<svg width="427" height="287" viewBox="0 0 427 287" fill="none" xmlns="http://www.w3.org/2000/svg">
<path d="M323.026 66.168H112.107C97.173 66.168 85.0664 80.1591 85.0664 97.418V159.918C85.0664 177.177 97.173 191.168 112.107 191.168H323.026C337.96 191.168 350.066 177.177 350.066 159.918V97.418C350.066 80.1591 337.96 66.168 323.026 66.168Z" stroke="white" stroke-width="10" stroke-linecap="round" stroke-linejoin="round"/>
<rect x="100" y="79" width="82.25" height="100" rx="20" fill="white"/>
<path d="M351 99V99C358.732 99 365 105.268 365 113V147C365 154.732 358.732 161 351 161V161V99Z" fill="white"/>
<path d="M231.954 111.49L229.498 114.034L233.034 114.031L287.127 113.995L130.9 212.363L207.422 136.958L210.031 134.387L206.368 134.389L152.049 134.43L294.653 46.5234L231.954 111.49Z" fill="black" stroke="white" stroke-width="3"/>
</svg>
