<svg width="427" height="287" viewBox="0 0 427 287" fill="none" xmlns="http://www.w3.org/2000/svg">
<path d="M323.026 66.168H112.107C97.173 66.168 85.0664 80.1591 85.0664 97.418V159.918C85.0664 177.177 97.173 191.168 112.107 191.168H323.026C337.96 191.168 350.066 177.177 350.066 159.918V97.418C350.066 80.1591 337.96 66.168 323.026 66.168Z" stroke="white" stroke-width="10" stroke-linecap="round" stroke-linejoin="round"/>
<rect x="100" y="79" width="152.75" height="100" rx="20" fill="white"/>
<path d="M351 99V99C358.732 99 365 105.268 365 113V147C365 154.732 358.732 161 351 161V161V99Z" fill="white"/>
<path d="M235.954 110.49L233.498 113.034L237.034 113.031L291.127 112.995L134.9 211.363L211.422 135.958L214.031 133.387L210.368 133.389L156.049 133.43L298.653 45.5234L235.954 110.49Z" fill="black" stroke="white" stroke-width="3"/>
</svg>
