<svg width="427" height="442" viewBox="0 0 427 442" fill="none" xmlns="http://www.w3.org/2000/svg">
<path d="M323.026 144.168H112.107C97.173 144.168 85.0664 158.159 85.0664 175.418V237.918C85.0664 255.177 97.173 269.168 112.107 269.168H323.026C337.96 269.168 350.066 255.177 350.066 237.918V175.418C350.066 158.159 337.96 144.168 323.026 144.168Z" stroke="white" stroke-width="10" stroke-linecap="round" stroke-linejoin="round"/>
<path d="M351 177V177C358.732 177 365 183.268 365 191V225C365 232.732 358.732 239 351 239V239V177Z" fill="white"/>
<path d="M204.084 191.2C203.351 192.267 202.284 193.133 200.884 193.8C199.484 194.4 198.117 194.7 196.784 194.7C196.184 194.3 195.384 193.4 194.384 192C193.384 190.6 192.884 188.733 192.884 186.4C192.884 184.067 193.484 181.833 194.684 179.7C195.951 177.567 197.651 175.7 199.784 174.1C201.984 172.433 204.517 171.133 207.384 170.2C210.251 169.2 213.351 168.7 216.684 168.7C219.951 168.7 222.817 169.167 225.284 170.1C227.751 170.967 229.784 172.133 231.384 173.6C233.051 175.067 234.284 176.767 235.084 178.7C235.884 180.567 236.284 182.5 236.284 184.5C236.284 186.833 235.884 188.967 235.084 190.9C234.284 192.767 233.217 194.5 231.884 196.1C230.617 197.7 229.117 199.233 227.384 200.7C225.651 202.167 223.851 203.633 221.984 205.1C219.184 207.3 217.251 209.267 216.184 211C215.117 212.667 214.584 214.5 214.584 216.5C214.584 217.7 214.851 218.7 215.384 219.5C215.984 220.3 216.584 220.967 217.184 221.5C216.584 222.433 215.517 223.233 213.984 223.9C212.451 224.5 211.051 224.8 209.784 224.8C209.184 224.4 208.517 223.733 207.784 222.8C207.117 221.8 206.784 220.567 206.784 219.1C206.784 217.967 206.951 216.867 207.284 215.8C207.617 214.733 208.217 213.6 209.084 212.4C210.017 211.2 211.217 209.867 212.684 208.4C214.151 206.867 216.051 205.067 218.384 203C221.384 200.333 223.651 197.867 225.184 195.6C226.784 193.267 227.584 190.5 227.584 187.3C227.584 182.833 226.351 179.367 223.884 176.9C221.484 174.367 217.984 173.1 213.384 173.1C211.784 173.1 210.217 173.367 208.684 173.9C207.151 174.367 205.784 175.067 204.584 176C203.451 176.867 202.517 178 201.784 179.4C201.117 180.733 200.784 182.233 200.784 183.9C200.784 185.633 201.151 187.133 201.884 188.4C202.617 189.6 203.351 190.533 204.084 191.2ZM219.984 237.9C219.251 239.233 218.217 240.5 216.884 241.7C215.617 242.833 214.417 243.667 213.284 244.2C212.084 243.667 210.851 242.833 209.584 241.7C208.317 240.5 207.317 239.233 206.584 237.9C207.317 236.633 208.317 235.4 209.584 234.2C210.917 232.933 212.151 232.033 213.284 231.5C214.617 232.033 215.917 232.933 217.184 234.2C218.451 235.4 219.384 236.633 219.984 237.9Z" fill="white"/>
</svg>
