<svg width="427" height="442" viewBox="0 0 427 442" fill="none" xmlns="http://www.w3.org/2000/svg">
<path d="M323.026 144.168H112.107C97.173 144.168 85.0664 158.159 85.0664 175.418V237.918C85.0664 255.177 97.173 269.168 112.107 269.168H323.026C337.96 269.168 350.066 255.177 350.066 237.918V175.418C350.066 158.159 337.96 144.168 323.026 144.168Z" stroke="black" stroke-width="10" stroke-linecap="round" stroke-linejoin="round"/>
<rect x="100" y="157" width="235" height="100" rx="20" fill="black"/>
<path d="M351 177V177C358.732 177 365 183.268 365 191V225C365 232.732 358.732 239 351 239V239V177Z" fill="black"/>
<path d="M233.957 189.083L231.484 191.63L235.034 191.628L289.103 191.591L132.938 289.381L209.419 214.428L212.046 211.854L208.368 211.856L154.072 211.897L296.623 124.508L233.957 189.083Z" fill="white" stroke="black" stroke-width="3"/>
<path d="M167.946 257.375H182.317" stroke="black" stroke-width="2" stroke-linecap="round"/>
<path d="M165.91 258.894H180.281" stroke="black" stroke-width="2" stroke-linecap="round"/>
<path d="M164.952 259.847H179.323" stroke="black" stroke-width="2" stroke-linecap="round"/>
<path d="M161.12 261.752H175.491" stroke="black" stroke-width="2" stroke-linecap="round"/>
<path d="M165.317 260.4C164.812 260.612 164.15 261.244 163.979 261.421C163.826 261.579 163.744 261.724 163.648 261.876C163.538 262.051 163.338 262.204 163.135 262.28C162.73 262.431 162.4 262.356 162.07 262.444C161.855 262.501 161.739 262.658 161.701 262.715C161.593 262.874 162.067 262.923 162.622 262.974C163.074 263.015 163.879 263.024 164.319 263.043C164.961 263.071 165.315 263.113 165.784 263.157C166.492 263.224 166.826 263.101 167.313 263.025C167.622 262.977 167.93 262.974 168.429 262.943C169.35 262.885 169.704 262.898 170.143 262.867C170.479 262.843 170.733 262.923 170.943 262.974C171.027 262.994 171.102 263.024 171.178 263.05C171.216 263.062 171.254 263.075 171.236 263.137C171.098 263.611 170.672 263.844 170.419 264.134C170.188 264.398 170.012 264.475 169.942 264.551C169.909 264.587 170.514 264.064 171.294 263.383C171.882 262.869 172.206 262.773 172.402 262.684C172.456 262.66 172.522 262.671 172.555 262.696C172.62 262.746 172.06 263.26 171.172 263.972C170.367 264.619 169.785 264.74 169.549 264.854C169.227 265.01 169.086 265.106 168.858 265.126C168.625 265.146 168.351 265.031 168.015 264.968C167.388 264.851 166.831 264.792 166.441 264.747C166.283 264.729 166.054 264.716 165.826 264.709C165.697 264.706 165.182 264.678 164.421 264.684C164.062 264.687 163.884 264.728 163.506 264.747C162.776 264.783 162.146 264.728 161.861 264.678C161.475 264.61 161.181 264.463 160.921 264.344C160.82 264.297 160.737 264.211 160.642 264.154C160.389 264.003 160.103 264.79 159.868 265.055C159.52 265.447 159.278 265.61 159.088 265.831C159.024 265.905 159.073 265.939 159.118 265.958C159.335 266.051 159.656 265.915 160.307 265.795C161.082 265.652 161.674 265.788 161.833 265.807C161.903 265.815 161.953 265.813 162.419 265.87C162.884 265.926 163.764 266.038 164.279 266.115C165.118 266.239 165.492 266.318 165.874 266.35C166.389 266.393 167.067 266.658 167.226 266.697C167.699 266.811 167.955 265.676 168.152 265.411C168.309 265.198 168.387 264.981 168.438 264.83C168.463 264.754 168.489 264.678 168.495 264.602C168.498 264.564 168.464 264.527 168.42 264.508C168.32 264.464 167.682 264.638 166.801 264.872C166.33 264.996 166.142 265.144 165.708 265.713C165.347 266.186 164.758 267.07 164.416 267.546C164.074 268.021 164.011 268.071 163.96 268.103C163.876 268.156 163.33 268.185 162.487 268.211C161.736 268.233 161.36 267.935 161.067 267.688C160.825 267.485 160.269 267.29 159.9 267.214C159.671 267.167 159.091 267.038 158.707 266.949C158.534 266.909 158.239 266.835 158.009 266.817C157.97 266.813 157.933 266.848 157.907 266.879C157.881 266.911 157.869 266.948 157.906 266.98C157.944 267.012 158.032 267.037 158.693 267.087C159.353 267.138 160.584 267.213 161.388 267.282C162.534 267.382 162.981 267.529 163.234 267.636C163.865 267.903 164.174 267.845 164.345 267.87C164.403 267.879 164.478 267.82 164.498 267.782C164.518 267.744 164.48 267.707 164.404 267.681C164.221 267.62 163.935 267.643 163.405 267.781C163.03 267.878 162.473 268.143 162.019 268.384C161.564 268.625 161.238 268.862 160.912 269.141C160.587 269.419 160.273 269.731 159.992 270.042C159.454 270.637 159.138 271.037 158.974 271.169C158.735 271.361 158.529 271.454 157.762 271.91C157.075 272.318 155.813 273.129 155.135 273.553C154.277 274.089 153.95 274.317 153.67 274.507C153.608 274.549 153.543 274.57 153.492 274.596C153.441 274.621 153.403 274.646 153.44 274.59C153.477 274.534 153.59 274.397 154.126 273.983C154.661 273.568 155.616 272.881 156.51 272.115C157.404 271.349 158.208 270.524 158.647 270.062C159.296 269.379 159.505 269.095 159.562 268.956C159.582 268.908 159.531 268.893 159.443 268.917C159.209 268.983 158.798 269.256 158.31 269.603C158.094 269.756 157.96 269.887 157.738 270.107C157.516 270.328 157.215 270.64 156.821 271.007C156.427 271.374 155.95 271.786 155.383 272.33C154.817 272.873 154.176 273.535 153.821 273.914C153.405 274.358 153.301 274.57 153.212 274.74C153.205 274.754 153.375 274.397 153.811 273.674C154.065 273.252 154.46 272.764 155.013 272.119C155.565 271.474 156.281 270.7 156.737 270.17C157.4 269.401 157.589 269.069 157.665 268.969C157.856 268.715 157.868 268.452 157.888 268.318C157.892 268.287 157.781 268.374 157.422 268.712C157.063 269.05 156.422 269.675 156.048 270.053C155.574 270.532 155.307 270.846 154.934 271.243C154.547 271.654 154.153 272.146 153.779 272.524C153.522 272.784 153.076 273.217 152.579 273.648C152.152 274.018 151.793 274.769 151.645 275.207C151.575 275.554 151.55 275.857 151.531 276.147C151.524 276.223 151.512 276.298 151.499 276.375" stroke="black" stroke-width="2" stroke-linecap="round"/>
<path d="M153.516 272.135C153.907 271.635 154.582 270.798 154.595 270.785C154.734 270.645 154.342 271.113 153.813 271.632C153.329 272.107 152.431 273.038 151.77 273.764C151.11 274.49 150.72 274.99 150.45 275.316C149.901 275.98 149.761 276.11 149.358 276.46C149.028 276.748 148.403 277.211 148.035 277.481C147.579 277.816 147.326 277.952 147.028 278.153C146.467 278.534 146.121 278.809 145.847 279.113C145.538 279.455 145.308 279.706 144.89 280.09C144.626 280.332 144.496 280.577 144.387 280.728C144.305 280.867 144.191 280.931 144.115 280.962C144.077 280.981 144.039 281.006 144 281.032" stroke="black" stroke-width="2" stroke-linecap="round"/>
<path d="M245.721 158.016C245.885 157.799 246.133 157.606 246.844 157.333C248.296 156.777 249.712 156.428 250.428 156.236C251.03 156.075 252.213 155.689 253.556 155.086C254.119 154.833 254.314 154.156 254.948 153.634C255.131 153.483 255.387 153.333 255.554 153.223C256.159 152.821 252.666 154.535 251.964 154.959C251.394 155.303 251.123 155.767 250.394 156.247C249.891 156.578 249.279 156.562 248.726 156.7C248.615 156.728 248.533 156.755 248.532 156.782C248.531 156.81 248.612 156.837 248.75 156.824C249.844 156.719 250.844 155.469 251.367 154.772C251.581 154.486 251.644 154.235 251.7 154.058C251.728 153.966 251.646 153.853 251.563 153.77C251.397 153.603 251.177 153.55 250.971 153.549C250.33 153.548 250.075 154.233 249.429 154.93C249.162 155.219 248.946 155.548 248.835 155.754C248.498 156.376 250.125 155.25 251.556 154.348C252.853 153.53 253.489 153.331 253.778 153.208C253.899 153.156 253.985 153.166 253.891 153.274C253.569 153.644 252.806 154.095 251.913 154.668C250.364 155.664 249.665 156.04 249.141 156.288C249.061 156.326 249.325 156.048 250.556 155.285C251.788 154.521 253.97 153.246 255.285 152.454C257.001 151.42 257.485 151.002 257.773 150.77C258.566 150.13 259.192 149.797 260.456 148.922C261.128 148.457 261.616 148.318 263.251 147.606C263.93 147.311 264.562 146.893 265.442 146.456C266.452 145.954 267.073 145.603 268.097 144.966C269.045 144.376 270.731 143.053 271.671 142.342C272.936 141.385 273.353 140.975 274.563 140.058C275.494 139.353 276.081 139.001 276.742 138.454C277.495 137.832 278.309 137.113 279.002 136.644C279.504 136.305 280.131 135.823 280.518 135.507C280.937 135.165 281.509 134.754 282.252 134.316C282.772 134.008 283.411 133.74 283.879 133.52C284.26 133.342 284.568 133.136 284.899 132.89C285.313 132.583 285.973 132.397 286.318 132.301C286.705 132.192 287.102 132.096 287.626 131.958C287.762 131.922 287.9 131.903 287.971 131.93C288.041 131.957 288.041 132.038 288 132.148C287.758 132.797 286.641 133.515 286.045 134.039C285.498 134.521 285.095 134.998 284.558 135.395C283.717 136.017 282.48 136.914 281.857 137.395C281.272 137.847 280.251 138.965 279.516 139.628C279.05 140.048 278.565 140.668 278.085 141.405C277.068 142.965 276.636 143.627 276.223 144.271C275.801 144.93 275.533 145.438 275.464 145.602C275.428 145.687 275.368 145.766 276.145 144.669C276.921 143.571 278.531 141.293 279.4 140.078C280.337 138.771 280.682 138.346 281.095 137.771C281.324 137.452 281.538 137.22 282.071 136.648C283.952 134.631 284.622 134.371 284.939 134.083C285.029 134.001 285.011 134.093 284.901 134.257C284.792 134.421 284.601 134.665 283.057 136.066C281.513 137.467 278.621 140.017 277.05 141.385C275.332 142.88 274.901 143.19 274.038 144.048C273.407 144.675 272.439 145.746 271.633 146.522C270.284 147.82 269.281 148.613 268.744 149.257C267.916 150.249 267.074 151.438 267.005 151.645C266.98 151.719 267.263 151.443 268.343 150.138C269.423 148.834 271.387 146.392 272.863 144.674C274.338 142.955 275.266 142.032 275.839 141.435C276.412 140.838 276.603 140.594 277.411 139.709C278.218 138.823 279.636 137.304 280.408 136.481C281.18 135.658 281.261 135.576 281.222 135.656C281.182 135.737 281.018 135.981 280.375 136.622C279.732 137.263 278.613 138.294 276.987 139.639C275.361 140.983 273.26 142.611 271.442 144.25C269.624 145.888 268.151 147.489 267.337 148.395C266.132 149.737 265.78 150.205 264.615 151.269C263.325 152.448 262.171 153.001 261.882 153.137C261.759 153.196 261.675 153.22 261.66 153.139C261.646 153.058 261.7 152.868 262.956 151.143C264.211 149.417 266.666 146.162 268.013 144.404C269.359 142.646 269.523 142.483 269.866 142.209C270.712 141.535 271.344 141.083 271.331 141.122C271.285 141.268 270.964 141.569 270.046 142.482C269.128 143.396 267.574 144.888 266.691 145.711C265.666 146.666 265.394 146.835 265.175 146.999C264.881 147.219 263.613 147.98 261.879 149.225C260.83 149.978 260.435 150.343 260.079 150.547C258.589 151.402 257.627 151.903 257.143 152.315C256.791 152.615 256.276 153.026 255.807 153.261C255.328 153.501 254.788 153.904 254.47 154.247C254.097 154.647 253.686 155.001 253.299 155.084C252.813 155.188 252.582 155.33 252.417 155.398C252.332 155.434 252.253 155.494 252.306 155.549C252.359 155.604 252.55 155.658 254.844 154.845C257.138 154.032 261.53 152.35 263.997 151.362C266.464 150.373 266.873 150.129 267.165 149.936C268.427 149.101 269.964 148.099 270.598 147.728C271.18 147.388 271.726 147.112 272.471 146.824C273.065 146.593 273.464 146.18 273.658 145.851C273.703 145.776 273.713 145.687 273.686 145.754C273.573 146.035 273.384 146.451 273.028 147.01C272.433 147.944 271.678 148.887 271.155 149.558C270.686 150.159 270.217 150.724 269.09 151.887C268.48 152.562 267.549 153.651 266.951 154.274C266.855 154.37 266.745 154.506 266.633 154.645" stroke="black" stroke-width="2" stroke-linecap="round"/>
<path d="M264.567 157.194L264.153 157.687" stroke="black" stroke-width="2" stroke-linecap="round"/>
<path d="M260.103 158.18C259.639 158.234 258.591 158.345 257.876 158.413C255.843 158.607 255.23 158.563 254.252 158.578C252.947 158.597 250.849 158.455 250.379 158.4C249.609 158.309 248.974 157.907 248.438 157.783C247.563 157.581 246.829 157.307 246.383 157.057C246.309 157.015 247.202 157.193 248.658 157.33C250.381 157.492 251.505 157.467 251.931 157.509C252.544 157.568 253.621 157.305 254.86 156.936C256.208 156.534 257.04 156.454 257.677 156.522C258.391 156.599 258.779 156.673 259.179 156.782C259.521 156.876 259.854 156.919 260.253 156.961C261.169 157.056 262.664 157.084 263.077 157.18C263.482 157.274 263.821 156.812 264.179 156.414C264.633 155.911 265.195 155.009 265.9 154.115C266.665 153.146 267.483 151.856 268.308 150.83C268.972 150.005 269.579 149.551 269.814 149.399C269.831 149.388 269.64 149.6 268.955 150.159C268.271 150.718 267.098 151.64 266.152 152.481C264.461 153.987 263.741 154.918 263.522 155.151C262.908 155.8 262.036 156.232 261.387 156.672C260.971 156.953 260.71 157.356 260.586 157.754C260.555 157.854 260.49 157.932 260.53 157.865C260.702 157.579 260.956 157.222 261.626 156.244C262.198 155.408 263.196 153.855 263.757 153.017C264.381 152.086 264.839 151.527 265.43 150.719C265.666 150.398 265.777 150.264 265.042 150.994C264.307 151.725 262.725 153.325 261.856 154.19C260.519 155.52 259.802 156.124 259.554 156.275C259.442 156.343 259.361 156.398 259.551 156.128C259.74 155.857 260.204 155.26 260.975 154.397C261.746 153.533 262.809 152.421 263.221 151.916C263.633 151.411 263.36 151.546 262.865 151.955C261.614 152.989 260.848 153.85 260.615 154.123C260.27 154.526 259.939 154.782 259.815 154.769C258.916 154.677 260.624 152.567 260.86 152.098C260.946 151.929 260.14 152.746 258.708 154.183C257.968 154.927 257.652 155.138 257.501 155.329C257.291 155.594 258.082 154.819 259.079 153.91C259.988 153.081 257.184 155.85 256.814 156.259C256.174 156.967 255.641 157.412 255.544 157.44C255.408 157.48 255.831 156.922 256.447 156.186C257.444 154.995 258.53 153.911 259.039 153.116C259.508 152.385 259.882 151.634 260.403 150.909C260.95 150.149 262.162 149.307 263.346 148.554C263.785 148.275 263.93 148.262 264.055 148.221C264.18 148.179 264.289 148.125 262.872 149.372C261.456 150.619 258.51 153.169 256.801 154.591C254.198 156.758 253.409 156.837 253.408 156.811C253.402 156.697 253.734 156.513 254.46 156.008C255.187 155.503 256.387 154.716 258.178 153.321C259.969 151.925 262.315 149.945 263.837 148.708C265.359 147.471 265.987 147.037 266.433 146.691C267.508 145.858 267.87 145.278 268.449 144.769C268.971 144.312 269.305 144.124 269.511 143.974C269.607 143.904 269.69 143.851 269.5 144.135C268.879 145.065 268.123 145.93 267.492 146.408C266.149 147.426 265.342 147.137 264.761 147.138C264.552 147.138 264.375 146.946 264.196 146.824C263.886 146.611 263.988 146.044 264.153 145.264C264.216 144.962 264.428 144.782 264.648 144.686C265.182 144.452 266.377 145.708 267.511 146.069C267.775 146.152 268.114 146.096 268.228 146.096C268.582 146.096 266.341 146.123 264.846 146.124C264.693 146.125 264.839 145.962 265.032 145.865C265.456 145.653 266.024 145.549 267.024 145.453C268.808 145.282 270.103 145.33 270.665 145.288C272.414 145.16 272.857 145.192 273.862 145.056C274.668 144.946 275.778 145.274 276.192 145.206C276.329 145.192 276.52 145.192 276.619 145.152C276.717 145.111 276.717 145.029 276.717 144.946" stroke="black" stroke-width="2" stroke-linecap="round"/>
<line x1="187" y1="256.731" x2="163" y2="256.731" stroke="black"/>
<path d="M213.177 158.905H266.077" stroke="black" stroke-width="2" stroke-linecap="round"/>
</svg>
