<svg width="427" height="442" viewBox="0 0 427 442" fill="none" xmlns="http://www.w3.org/2000/svg">
<path d="M323.026 144.168H112.107C97.173 144.168 85.0664 158.159 85.0664 175.418V237.918C85.0664 255.177 97.173 269.168 112.107 269.168H323.026C337.96 269.168 350.066 255.177 350.066 237.918V175.418C350.066 158.159 337.96 144.168 323.026 144.168Z" stroke="black" stroke-width="10" stroke-linecap="round" stroke-linejoin="round"/>
<rect x="100" y="157" width="70.5" height="100" rx="20" fill="black"/>
<path d="M351 177V177C358.732 177 365 183.268 365 191V225C365 232.732 358.732 239 351 239V239V177Z" fill="black"/>
<path d="M227.954 189.49L225.498 192.034L229.034 192.031L283.127 191.995L126.9 290.363L203.422 214.958L206.031 212.387L202.368 212.389L148.049 212.43L290.653 124.523L227.954 189.49Z" fill="white" stroke="black" stroke-width="3"/>
<path d="M229.954 188.49L227.498 191.034L231.034 191.031L285.127 190.995L128.9 289.363L205.422 213.958L208.031 211.387L204.368 211.389L150.049 211.43L292.653 123.523L229.954 188.49Z" fill="white" stroke="black" stroke-width="3"/>
<path d="M183.5 256.5H163.5" stroke="black"/>
<path d="M236.5 183C237.284 174.183 236.076 169.836 230 163.5" stroke="black"/>
<path d="M236.5 191V223" stroke="black"/>
<path d="M239.582 206.111C239.327 205.969 239.167 205.854 239.117 205.761C238.983 205.512 239.095 205.026 239.224 204.432C239.282 203.994 239.296 203.751 239.324 203.665C239.339 203.622 239.353 203.579 239.367 203.535" stroke="black" stroke-width="2" stroke-linecap="round"/>
<path d="M240.226 194.521C240.17 194.564 239.97 194.508 239.755 194.436C239.544 194.365 239.411 194.35 239.333 194.328C239.154 194.28 239.139 194.007 239.046 193.899C238.873 193.699 239.124 194.562 239.196 194.821C239.21 194.864 239.224 194.907 239.232 194.985C239.239 195.064 239.239 195.177 239.239 195.294" stroke="black" stroke-width="5" stroke-linecap="round"/>
<path d="M240.526 198.084C240.866 198.027 241.206 197.971 242.961 197.552C244.715 197.133 247.874 196.354 249.771 195.932C251.667 195.509 252.205 195.467 252.582 195.452C252.958 195.437 253.156 195.451 253.485 195.522C253.814 195.593 254.267 195.721 254.685 195.864C255.48 196.138 255.907 196.338 256.064 196.388C256.553 196.544 256.865 196.582 257.286 196.617C257.993 196.677 258.253 196.582 258.361 196.575C258.384 196.573 258.341 196.553 257.802 196.525C257.263 196.496 256.229 196.454 254.775 196.503C253.322 196.552 251.481 196.693 250.489 196.759C249.498 196.825 249.413 196.811 249.348 196.797C249.283 196.782 249.241 196.768 249.283 196.74C249.325 196.711 249.452 196.668 250.828 196.597C252.204 196.526 254.824 196.426 256.514 196.425C258.204 196.423 258.884 196.523 259.277 196.595C259.76 196.684 259.899 196.768 259.963 196.803C259.984 196.814 259.929 196.853 259.865 196.889C259.8 196.925 259.715 196.967 256.966 197.903C254.217 198.838 248.806 200.666 245.678 201.77C242.551 202.874 241.871 203.2 241.492 203.389C241.114 203.578 241.057 203.62 241.07 203.642C241.084 203.664 241.169 203.664 242.905 203.069C244.642 202.474 248.027 201.285 250.125 200.495C252.223 199.705 252.931 199.35 253.431 199.111C254.193 198.746 254.59 198.614 254.783 198.571C254.862 198.553 254.905 198.556 254.899 198.599C254.892 198.641 254.836 198.726 253.737 199.634C252.638 200.542 250.499 202.27 249.355 203.224C248.097 204.273 248.01 204.536 247.967 204.708C247.939 204.82 247.966 204.909 248.009 204.994C248.032 205.041 248.08 205.08 248.159 205.102C248.345 205.154 248.538 205.095 249.332 204.635C250.062 204.212 251.43 203.366 252.598 202.73C253.766 202.095 254.687 201.684 255.268 201.458C256.044 201.156 256.365 201.175 256.408 201.238C256.451 201.301 256.197 201.43 254.537 202.395C252.877 203.36 249.733 205.159 248.084 206.107C246.436 207.055 246.38 207.097 247.625 206.56C248.871 206.022 251.421 204.903 253.152 204.227C254.883 203.552 255.719 203.354 256.22 203.251C256.722 203.149 256.863 203.149 256.887 203.199C257.183 203.827 255.594 204.179 255.308 204.421C255.077 204.617 254.722 205.035 254.266 205.606C253.592 206.449 253.348 206.639 253.168 206.854C252.938 207.13 252.718 207.284 252.525 207.412C252.193 207.634 251.817 207.884 251.559 208.056C251.433 208.14 251.245 208.313 250.86 208.549C249.878 209.149 249.471 209.343 249.177 209.523C248.728 209.796 248.141 210.272 247.767 210.546C247.373 210.835 247.095 211.161 246.909 211.354C246.68 211.592 246.437 211.804 246.129 212.055C245.89 212.249 245.564 212.435 245.363 212.563C245.081 212.744 244.82 213.006 244.598 213.143C244.366 213.285 244.09 213.422 243.889 213.579C243.635 213.779 243.389 214.137 243.096 214.451C242.878 214.686 242.659 214.952 242.145 215.466C241.933 215.679 241.729 215.783 241.557 215.89C241.472 215.926 241.385 215.969 241.3 216.026C241.257 216.055 241.214 216.083 241.127 216.112" stroke="black" stroke-width="5" stroke-linecap="round"/>
<path d="M254.047 208.515C254.061 208.43 254.488 207.945 255.224 207.274C255.555 206.971 256.054 206.436 256.374 206.124C257.062 205.45 257.552 205.025 257.852 204.746C258.271 204.356 258.439 204.18 258.682 203.994C258.834 203.877 258.954 203.765 259.26 203.552C259.969 203.057 260.471 202.634 260.642 202.521C260.879 202.363 261.185 202.064 261.493 201.763C261.664 201.596 262.184 201.093 262.935 200.336C263.522 199.743 263.862 199.687 264.055 199.587C264.107 199.56 264.162 199.53 264.737 199.338C265.311 199.146 266.402 198.792 266.992 198.596C267.642 198.379 267.896 198.285 268.26 198.171C268.962 197.951 269.513 197.37 269.728 197.183C269.962 196.98 270.271 196.783 270.786 196.525C271.067 196.384 271.287 196.353 271.524 196.267C271.813 196.162 272.117 196.025 272.461 195.888C272.78 195.762 272.976 195.667 273.155 195.559C273.353 195.44 273.577 195.437 273.756 195.337C273.963 195.222 274.135 195.165 274.392 195.087C274.69 194.996 275.007 194.922 275.208 194.858C275.395 194.798 275.58 194.623 275.773 194.479C275.964 194.337 276.152 194.25 276.331 194.164C276.58 194.044 276.796 193.907 277.004 193.835C277.182 193.773 277.354 193.72 277.526 193.656C277.709 193.587 277.869 193.506 278.084 193.363C278.306 193.215 278.499 193.091 278.614 193.012C278.706 192.949 278.315 193.019 278.143 193.033C277.913 193.052 277.232 193.119 276.345 193.148C275.667 193.169 275.154 193.219 274.817 193.241C274.652 193.251 274.126 193.277 273.397 193.284C272.79 193.29 272.478 193.348 272.198 193.37C271.943 193.389 271.323 193.533 270.397 193.584C270.145 193.598 269.902 193.62 269.609 193.627C269.358 193.633 268.704 193.663 267.846 193.656C267.441 193.652 267.212 193.62 266.969 193.627C266.81 193.632 266.512 193.705 265.552 193.763C264.834 193.806 263.643 193.763 263.009 193.749C262.175 193.73 261.86 193.677 260.905 193.67C260.559 193.667 259.947 193.706 259.147 193.72C258.593 193.73 258.313 193.82 257.477 193.828C256.867 193.833 256.296 193.82 255.745 193.842C255.494 193.852 254.84 193.878 253.953 193.856C253.204 193.838 252.904 193.592 252.568 193.47C252.465 193.433 252.333 193.448 252.289 193.477C252.244 193.505 252.287 193.562 252.401 193.626C252.515 193.691 252.699 193.762 252.992 193.834C253.285 193.905 253.682 193.976 255.274 194.098C256.867 194.219 259.643 194.389 261.413 194.548C263.183 194.706 263.863 194.848 264.731 194.942C265.598 195.036 266.632 195.079 267.207 195.115C267.869 195.156 267.997 195.208 268.047 195.251C268.08 195.279 268.027 195.378 267.991 195.436C267.93 195.535 267.586 195.679 267.001 195.929C266.701 196.057 266.387 196.165 265.504 196.407C264.621 196.65 263.176 197.018 262.064 197.378C260.951 197.737 260.215 198.077 259.679 198.344C258.821 198.773 258.455 199.028 258.291 199.128C257.766 199.448 257.07 199.656 256.603 200.05C256.231 200.364 256.137 200.915 255.908 201.359C255.866 201.442 255.808 201.432 255.765 201.39C255.656 201.282 255.48 200.976 255.031 200.513C254.757 200.229 254.313 199.922 254.017 199.676C253.551 199.29 253.191 198.817 252.727 198.062C252.454 197.617 252.193 196.995 251.976 196.582C251.43 195.542 250.858 195.209 250.579 195.073C250.33 194.951 250.185 194.709 249.963 194.13C249.917 194.01 249.927 193.964 249.905 193.942C249.858 193.894 249.67 193.949 249.413 193.999C249.159 194.048 248.43 194.049 247.359 194.021C246.14 193.989 245.78 193.778 245.499 193.742C245.248 193.709 244.991 193.677 244.57 193.656C244.433 193.635 244.333 193.606 244.084 193.584C243.892 193.577 243.566 193.577 243.23 193.577" stroke="black" stroke-width="5" stroke-linecap="round"/>
<path d="M239.067 195.036C239.067 195.522 239.096 195.722 239.117 195.93C239.139 196.139 239.21 196.395 239.275 196.581C239.336 196.758 239.353 197.024 239.41 197.232C239.471 197.453 239.582 197.824 239.668 198.155C239.741 198.434 239.739 198.87 239.79 199.106C239.806 199.183 239.797 199.298 239.797 199.151C239.797 198.071 239.726 197.785 239.704 197.662C239.67 197.47 239.64 198.083 239.618 198.255C239.596 198.433 239.511 198.598 239.454 198.77C239.425 198.856 239.397 198.956 239.375 199.063C239.365 199.113 239.368 199.156 239.403 199.065C239.648 198.432 239.625 198.114 239.604 197.978C239.58 197.826 239.283 198.098 239.111 198.205C239.07 198.231 239.025 198.241 238.989 198.291C238.827 198.515 238.967 198.812 239.06 199.071C239.136 199.282 239.181 199.457 239.232 199.806C239.363 200.721 239.282 201.242 239.246 201.738C239.217 202.146 239.139 202.574 239.103 202.969C239.078 203.238 239.024 203.434 238.982 203.699C238.896 204.228 238.967 205.065 238.967 205.7C238.968 206.342 238.867 206.711 238.846 206.926C238.812 207.254 238.781 207.769 238.774 208.213C238.77 208.434 238.853 208.77 238.81 209.029C238.778 209.221 238.724 209.444 238.688 209.644C238.666 209.771 238.667 209.902 238.638 210.03C238.604 210.186 238.595 210.912 238.588 211.899C238.582 212.789 238.581 213.793 238.602 214.001C238.609 214.051 238.623 214.094 238.631 214.151C238.638 214.209 238.638 214.279 238.638 214.352" stroke="black" stroke-width="5" stroke-linecap="round"/>
<path d="M241.9 200.445C241.886 200.899 241.886 201.874 241.907 202.403C241.926 202.863 241.972 203.176 242.15 203.926C242.291 204.521 242.315 204.779 242.337 205.058C242.356 205.31 242.401 205.737 242.422 206.053C242.451 206.468 242.487 206.754 242.487 207.011C242.488 207.735 242.202 208.212 241.937 208.627C241.639 209.096 241.558 209.343 241.464 209.594C241.251 210.166 241.329 211.174 241.335 211.376C241.338 211.496 241.797 210.979 242.262 210.521C242.441 210.344 242.514 210.29 243.138 209.694C243.763 209.098 244.938 207.965 245.629 207.325C246.652 206.376 246.879 206.369 247.022 206.276C247.086 206.234 247.108 206.169 247.108 206.105C247.111 205.715 246.453 205.24 245.88 204.875C245.21 204.446 244.608 204.609 244.098 204.644C243.99 204.652 243.891 204.652 243.861 204.659C243.831 204.666 243.874 204.68 243.918 204.694" stroke="black" stroke-width="5" stroke-linecap="round"/>
<path d="M240.32 216.949C240.298 216.949 240.236 216.954 240.199 216.959C240.134 216.967 240.103 216.966 240.083 216.956C240.055 216.942 240.037 216.941 240.016 216.934C239.988 216.924 239.942 216.9 239.919 216.887C239.902 216.877 239.887 216.863 239.871 216.851C239.854 216.837 239.827 216.818 239.804 216.804C239.784 216.792 239.77 216.783 239.743 216.776C239.701 216.766 239.681 216.759 239.663 216.754C239.645 216.748 239.624 216.741 239.604 216.736C239.576 216.73 239.563 216.714 239.547 216.7C239.529 216.684 239.494 216.668 239.472 216.655C239.45 216.642 239.435 216.628 239.42 216.62C239.409 216.615 239.427 216.648 239.43 216.67C239.437 216.71 239.426 216.789 239.429 216.831C239.431 216.854 239.434 216.883 239.437 216.916C239.445 217.005 239.441 217.036 239.445 217.066C239.447 217.092 239.449 217.183 239.446 217.239C239.444 217.267 239.436 217.295 239.424 217.325C239.408 217.365 239.388 217.396 239.382 217.413C239.364 217.467 239.341 217.536 239.336 217.555C239.331 217.57 239.308 217.619 239.29 217.658C239.278 217.684 239.267 217.708 239.256 217.738C239.236 217.792 239.214 217.833 239.201 217.859C239.171 217.928 239.165 217.949 239.154 217.98C239.152 217.989 239.152 217.999 239.152 218.008" stroke="black" stroke-width="5" stroke-linecap="round"/>
<path d="M239.234 218.496C239.227 218.495 239.206 218.495 239.184 218.505C239.164 218.512 239.147 218.518 239.134 218.525C239.126 218.53 239.116 218.536 239.098 218.543" stroke="black" stroke-width="5" stroke-linecap="round"/>
<path d="M282.689 131.04C282.713 131.04 282.736 131.04 282.725 131.075C282.636 131.349 282.263 131.491 282.036 131.74C281.821 131.977 281.621 132.204 281.335 132.394C281.049 132.585 280.718 132.775 280.349 132.953C280.047 133.099 279.766 133.345 279.469 133.618C279.121 133.937 278.886 134.224 278.696 134.593C278.534 134.907 278.222 135.175 277.959 135.461C277.64 135.808 277.27 136.008 276.984 136.174C276.688 136.347 276.414 136.555 276.105 136.78C275.663 137.103 275.44 137.505 275.071 137.814C274.767 138.07 274.489 138.313 274.191 138.481C273.797 138.702 273.255 139.168 272.729 139.585C272.417 139.833 272.135 140.025 271.849 140.181C271.564 140.336 271.279 140.43 270.994 140.537C270.678 140.655 270.376 140.858 270.066 140.953C269.771 141.044 269.308 141.309 268.925 141.523C268.776 141.607 268.663 141.737 268.58 141.88C268.54 141.949 268.52 142.022 268.591 142.047C269.11 142.229 269.659 141.787 269.993 141.726C270.137 141.7 270.279 141.643 270.362 141.655C270.704 141.702 269.853 142.236 269.567 142.391C269.271 142.552 268.997 142.807 268.723 143.033C268.435 143.271 268.259 143.662 267.998 143.877C267.711 144.113 267.287 144.588 266.928 144.887C266.637 145.131 266.311 145.374 265.741 145.801C264.892 146.438 264.693 146.872 264.444 147.157C264.204 147.432 263.886 147.822 263.506 148.167C262.826 148.784 261.895 149.695 261.07 150.602C259.886 151.905 259.393 152.268 258.941 152.661C258.414 153.118 257.919 153.811 257.55 154.337C257.265 154.741 256.825 155.335 256.563 155.645C256.258 156.005 255.827 156.239 255.529 156.441C255.22 156.651 255.018 157.071 254.78 157.392C254.447 157.84 254.328 158.141 254.102 158.485C253.905 158.787 253.71 159.115 253.389 159.602C253.314 159.717 253.235 159.781 253.246 159.782C253.371 159.795 253.989 158.934 254.927 157.734C255.825 156.586 256.228 156.36 256.632 156.075C257.03 155.793 257.369 155.315 257.796 154.981C258.249 154.628 258.557 154.363 258.95 154.078C259.338 153.795 259.58 153.744 259.652 153.673C259.889 153.438 258.751 154.004 257.591 154.679C257.023 155.009 256.222 155.657 255.55 156.243C254.879 156.829 254.385 157.37 254.001 157.896C253.289 158.87 252.903 159.708 252.57 160.195C252.191 160.751 251.927 161.065 251.642 161.433C251.265 161.92 250.953 162.23 250.277 163.07C249.589 163.926 248.792 164.843 248.044 165.448C247.359 166.003 247.007 166.365 246.318 167.256C245.871 167.834 245.532 168.387 245.14 168.756C244.87 169.01 244.558 169.267 244.307 169.552C244.035 169.862 243.796 170.194 243.547 170.539C243.336 170.83 243.154 171.121 243.094 171.407C243.033 171.698 242.916 171.977 242.798 172.274C242.642 172.664 242.37 172.904 242.156 173.201C241.885 173.578 241.61 173.784 241.289 174.14C240.865 174.61 240.73 174.901 240.575 175.198C240.365 175.601 239.969 175.71 239.814 175.971C239.648 176.25 239.517 176.541 239.279 176.827C239.224 176.893 239.208 176.969 239.172 176.959C239.044 176.92 239.041 176.521 239.064 176.2C239.071 176.111 239.135 176.185 239.159 176.268C239.256 176.6 238.994 176.898 238.91 177.089C238.777 177.394 239.016 176.426 239.052 175.998C239.087 175.591 239.159 175.118 239.243 174.762C239.406 174.064 239.444 173.526 239.516 173.192C239.578 172.904 239.35 172.622 239.184 172.336C238.995 172.011 238.733 171.694 238.519 171.397C238.455 171.308 238.353 171.219 238.328 171.241C237.969 171.559 239.014 172.543 239.325 173.106C239.372 173.191 239.42 173.261 239.409 173.309C239.385 173.415 239.208 173.475 239.101 173.547C238.815 173.739 238.78 172.907 238.744 172.503C238.715 172.183 238.566 171.908 238.459 171.623C238.337 171.299 238.209 170.887 238.173 170.553C238.141 170.257 237.995 169.983 237.9 169.697C237.805 169.411 237.663 169.127 237.236 168.664C236.973 168.379 236.831 168.057 236.676 167.771C236.515 167.476 236.355 167.201 236.2 166.916C236.051 166.639 235.88 166.345 235.572 165.954C234.869 165.06 234.549 164.895 234.287 164.598C233.859 164.134 233.622 163.849 233.348 163.623C233.288 163.563 233.241 163.492 233.192 163.348" stroke="black" stroke-width="5" stroke-linecap="round"/>
<path d="M234.69 162.065C235.185 161.899 236.187 161.661 236.685 161.436C237.541 161.049 238.634 160.379 239.229 160.069C239.683 159.832 240.061 159.641 240.715 159.356C241.242 159.125 241.701 158.762 242.047 158.582C242.205 158.5 242.463 158.476 242.712 158.321C242.88 158.217 243.952 157.672 245.521 156.793C246.668 156.15 247.477 155.506 247.895 155.219C248.343 154.911 249.47 154.153 250.705 153.275C251.519 152.696 252.277 151.965 253.145 151.335C253.871 150.808 254.563 150.322 254.814 150.012C255.094 149.666 255.679 149.064 256.157 148.646C256.543 148.307 256.87 148.016 257.392 147.695C257.706 147.502 258.011 147.35 258.368 147.088C258.736 146.818 259.056 146.565 259.449 146.316C259.984 146.019 260.531 145.638 260.933 145.342C261.171 145.141 261.477 144.835 261.792 144.52" stroke="black" stroke-width="5" stroke-linecap="round"/>
<path d="M264.502 142.808C264.62 142.737 264.737 142.667 264.833 142.607C264.929 142.547 265 142.5 265.144 142.38" stroke="black" stroke-width="5" stroke-linecap="round"/>
<path d="M238.542 164.561C238.589 164.514 238.895 164.231 239.664 163.65C241.451 162.302 241.986 162.304 242.439 162.018C242.745 161.824 243.105 161.685 243.39 161.554C243.54 161.485 243.723 161.305 244.195 160.997C245.071 160.427 246.169 159.999 246.881 159.536C247.506 159.13 248.283 158.787 249.13 158.215C249.71 157.824 250.375 157.101 251.411 156.515C252.369 155.974 252.876 155.908 253.161 155.73C253.303 155.67 253.659 155.505 254.122 155.267C254.303 155.171 254.373 155.124 254.446 155.075" stroke="black" stroke-width="5" stroke-linecap="round"/>
<path d="M255.516 154.505L255.801 154.433" stroke="black" stroke-width="5" stroke-linecap="round"/>
<path d="M239.184 169.553C239.513 169.224 239.843 168.894 240.354 168.266C240.865 167.637 241.547 166.719 241.969 166.117C242.869 164.834 243.318 164.183 244.121 163.414C244.697 162.864 245.678 162.057 246.634 161.327C247.59 160.597 248.508 159.985 249.028 159.634C249.548 159.284 249.642 159.213 249.739 159.069" stroke="black" stroke-width="5" stroke-linecap="round"/>
<path d="M172.11 259.609C171.95 259.564 171.356 259.358 170.688 259.236C170.411 259.186 170.251 259.161 169.782 259.075C169.215 258.972 169.045 259.092 168.907 259.121C168.748 259.154 168.563 259.196 168.312 259.224C167.558 259.31 167.301 259.173 167.025 259.201C166.609 259.244 166.313 259.242 166.141 259.224C165.809 259.191 165.395 259.173 164.673 259.156C164.453 259.15 164.338 259.127 164.263 259.144C164.213 259.155 164.303 259.264 164.292 259.333C164.248 259.6 163.776 259.745 163.409 260.198C163.139 260.532 163.006 260.78 162.869 261.007C162.751 261.205 162.506 261.554 162.258 261.849C162.01 262.144 161.76 262.371 161.403 262.727C161.047 263.083 160.593 263.56 160.33 263.829C159.919 264.249 159.643 264.407 159.327 264.591C159.138 264.701 159.034 264.844 158.994 264.913C158.974 264.946 158.965 264.981 159.01 264.976C159.165 264.958 159.445 264.844 160.164 264.651C160.705 264.505 161.587 264.207 162.078 264.055C162.634 263.883 162.832 263.834 163.198 263.663C164.225 263.182 164.348 263.019 164.555 262.927C164.705 262.86 164.899 262.824 165.255 262.624C165.5 262.485 165.703 262.41 165.858 262.353C166.123 262.255 166.687 261.942 167.012 261.75C167.139 261.676 167.253 261.561 167.419 261.458C167.573 261.378 167.735 261.286 167.924 261.171C168.044 261.102 168.215 261.011 168.459 260.883" stroke="black" stroke-width="5" stroke-linecap="round"/>
<path d="M174.59 259.127C174.499 259.184 174.247 259.298 174.074 259.368C173.817 259.471 173.385 259.38 172.961 259.362C172.833 259.357 172.754 259.333 172.702 259.322C172.586 259.297 172.982 259.185 173.183 259.133C173.378 259.082 173.522 259.07 173.774 259.052C173.993 259.037 174.245 259.001 174.388 258.949C174.56 258.887 174.693 258.829 174.831 258.805C174.983 258.78 175.106 258.713 175.25 258.685C175.414 258.652 175.565 258.645 175.646 258.662C175.874 258.71 175.279 258.84 175.142 258.863C174.989 258.888 174.866 258.977 174.728 259.023C174.59 259.069 174.453 259.115 174.315 259.161C174.177 259.207 174.04 259.253 173.896 259.299C173.721 259.355 173.557 259.413 173.414 259.477C173.247 259.55 173.087 259.643 172.84 259.775C172.62 259.893 172.455 259.976 171.946 260.199C171.769 260.277 171.563 260.354 171.157 260.486C170.75 260.617 170.148 260.799 169.633 261.007C168.685 261.388 168.23 261.698 168.116 261.755C167.893 261.867 167.544 262.076 167.072 262.272C166.625 262.457 166.428 262.639 165.908 262.954C165.36 263.285 164.89 263.466 164.695 263.603C164.591 263.672 164.478 263.741 164.379 263.799C164.281 263.856 164.202 263.902 164.12 263.949" stroke="black" stroke-width="5" stroke-linecap="round"/>
<path d="M159.091 269.184C159.159 269.116 159.558 268.739 160.166 268.2C160.49 267.913 160.675 267.887 160.744 267.835C160.78 267.808 160.812 267.772 160.767 267.732C160.392 267.395 159.952 267.29 159.901 267.153C159.804 266.894 160.054 266.443 160.57 265.656C160.715 265.435 160.756 265.327 160.739 265.264C160.71 265.158 160.163 265.291 159.355 265.531C158.951 265.651 158.582 265.839 157.991 266.251C157.4 266.663 156.604 267.311 156.03 267.809C155.455 268.308 155.125 268.638 154.774 268.944C154.422 269.25 154.058 269.523 153.712 269.754C152.718 270.418 152.582 270.412 152.547 270.412C152.451 270.413 152.718 270.104 153.112 269.641C153.39 269.315 153.881 268.849 154.303 268.489C154.725 268.13 155.077 267.903 155.446 267.706C156.174 267.318 156.679 267.129 156.868 267.032C157.017 266.955 157.139 266.922 157.196 266.905C157.209 266.901 157.186 266.944 156.543 267.405C155.901 267.866 154.639 268.753 153.972 269.226C153.266 269.728 153.145 269.837 152.984 269.952C152.728 270.136 152.365 270.365 151.953 270.622C151.291 271.036 150.815 271.456 150.625 271.622C150.453 271.774 150.286 271.881 149.708 272.482C149.362 272.841 149.127 272.972 148.623 273.447C148.387 273.669 148.174 273.822 148.036 273.902C147.892 273.985 147.76 274.108 147.622 274.183C147.46 274.272 147.29 274.453 147.14 274.556C146.946 274.691 146.75 274.935 146.584 275.141C146.255 275.55 145.901 275.726 145.694 275.905C145.445 276.12 145.132 276.381 144.616 276.885C144.305 277.189 144.178 277.335 143.897 277.467C143.727 277.546 143.593 277.645 143.455 277.719C143.326 277.789 143.146 278 142.944 278.133C142.762 278.253 142.491 278.334 142.353 278.414C142.209 278.497 142.1 278.62 141.974 278.73C141.905 278.792 141.847 278.862 141.796 278.93C141.767 278.965 141.733 278.999 141.629 279.103" stroke="black" stroke-width="5" stroke-linecap="round"/>
<path d="M224 191L223 230" stroke="black"/>
<path d="M233.033 202.256C233.013 202.256 232.993 202.256 232.953 203.089C232.912 203.922 232.852 205.588 232.831 206.577C232.805 207.826 232.911 208.296 233.052 208.641C233.115 208.793 233.234 208.864 233.326 208.906C233.487 208.978 233.782 208.847 234.306 208.484C235.151 207.9 235.628 207.245 235.86 206.932C236.182 206.499 236.459 205.768 236.682 204.908C236.789 204.496 236.784 204.109 236.744 203.501C236.704 202.893 236.604 202.07 236.492 201.415C236.3 200.291 236.035 199.602 235.853 199.247C235.781 199.108 235.711 199.073 235.62 199.093C234.9 199.246 234.616 200.791 234.404 201.832C234.165 203 234.209 203.715 234.25 203.837C234.27 203.898 234.29 203.958 234.361 203.889C234.597 203.657 234.897 202.81 235.331 201.506C235.564 200.81 235.746 200.021 235.89 198.925C236.033 197.829 236.114 196.444 236.135 195.671C236.156 194.897 236.116 194.776 236.045 194.815C235.974 194.853 235.874 195.054 235.662 196.01C235.449 196.967 235.128 198.673 234.963 199.653C234.797 200.632 234.797 200.833 234.898 200.635C234.998 200.437 235.199 199.835 235.362 199.234C235.526 198.632 235.647 198.05 235.719 197.459C235.953 195.539 235.589 194.959 235.406 194.653C235.369 194.59 235.325 194.532 235.465 194.451C235.894 194.202 236.317 194.126 236.439 194.025C236.582 193.906 236.622 193.6 236.582 193.256C236.553 193.003 236.319 192.909 236.177 192.838C235.578 192.538 234.616 192.807 234.019 192.848C233.432 192.888 232.996 192.989 232.457 193.02C232.262 193.031 231.66 193.071 230.819 193.081C229.913 193.092 228.98 193.051 228.514 192.96C227.498 192.759 227.155 192.808 226.8 192.716C226.121 192.54 225.857 192.605 225.553 192.534C225.473 192.515 225.391 192.523 225.339 192.553C225.288 192.584 225.268 192.644 225.268 192.715C225.266 193.016 225.409 193.252 225.44 193.849C225.469 194.408 225.531 195.138 225.561 195.997C225.587 196.698 225.572 197.51 225.531 197.724C225.303 198.926 225.43 195.077 225.41 195.34C225.364 195.939 225.247 196.334 225.136 196.77C225.031 197.183 224.964 197.59 224.933 198.602C224.918 199.115 224.842 199.396 224.832 199.841C224.824 200.17 224.963 200.651 225.064 201.099C225.227 201.81 225.085 202.923 225.075 203.996C225.07 204.51 225.186 204.951 225.237 205.436C225.373 206.749 225.146 207.121 225.116 207.425C225.099 207.589 225.065 208.292 225.085 209.335C225.097 209.96 225.186 210.645 225.176 211.416C225.167 212.13 225.106 212.738 225.075 213.622C225.047 214.426 225.065 215.952 225.055 216.768C225.041 217.848 224.964 218.333 224.933 219.022C224.902 219.711 224.842 220.726 224.771 221.121C224.607 222.03 224.862 222.429 224.922 223.255C225.039 224.84 224.963 225.918 225.004 226.039C225.102 226.333 225.105 226.708 225.116 227.305C225.122 227.645 225.025 227.924 224.943 228.108C224.835 228.354 224.963 227.44 225.014 226.995C225.026 226.892 225.044 226.832 225.075 226.761C225.14 226.607 225.829 226.246 226.872 225.8C227.405 225.572 227.86 225.413 228.477 225.1C229.578 224.54 229.909 224.277 230.375 224.023C231.301 223.519 232.361 223.406 232.748 223.212C233.231 222.97 234.063 222.575 234.522 222.37C234.737 222.275 234.979 222.127 235.482 221.725C237.339 220.24 237.615 219.958 237.656 219.856C237.735 219.663 237.111 219.835 236.596 220.057C235.752 220.42 235.123 220.868 234.529 221.252C234.102 221.526 233.392 221.916 232.85 222.183C231.526 222.834 230.988 222.876 230.561 223.099C230.287 223.243 229.993 223.343 229.649 223.485C229.156 223.688 228.858 223.849 228.301 224.133C227.822 224.377 227.499 224.316 227.195 224.407C226.833 224.516 226.506 224.963 226.211 225.228C226.15 225.283 226.06 225.289 226.099 225.26C226.28 225.121 226.524 225.006 226.967 224.664C227.342 224.374 228.051 223.881 229.016 223.261C229.98 222.641 231.184 221.918 231.995 221.395C232.806 220.873 233.188 220.571 233.716 220.256C234.874 219.563 235.689 219.208 235.921 219.056C236.45 218.71 237.025 218.599 237.402 218.397C237.474 218.357 237.533 218.335 237.494 218.335C236.912 218.331 236.199 218.72 235.077 219.204C234.017 219.661 233.379 220.099 233.177 220.169C232.53 220.395 232.021 220.646 231.515 220.818C231 220.993 230.643 221.172 230.006 221.446C228.69 222.01 228.392 222.227 228.067 222.4C227.606 222.644 227.116 223.076 226.658 223.635C226.384 223.97 226.06 224.052 225.735 224.114C225.69 224.122 225.713 224.034 226.316 223.451C226.918 222.868 228.103 221.764 228.883 221.075C229.664 220.385 230.005 220.144 230.382 219.91C231.147 219.433 231.654 219.167 232.046 218.905C233.563 217.893 234.086 217.708 234.381 217.565C234.724 217.399 235.16 217.221 235.466 217.048C235.58 216.983 235.709 216.956 235.841 216.916C235.99 216.87 235.633 216.995 234.282 217.6C233.349 218.017 232.007 218.846 231.263 219.28C230.434 219.763 230.176 219.936 229.832 220.138C229.518 220.323 229.062 220.604 228.475 220.878C227.474 221.344 226.367 221.962 225.978 222.147C225.92 222.174 225.857 222.187 225.796 222.187C225.735 222.188 225.674 222.168 225.703 222.087C225.733 222.006 225.853 221.866 226.808 221.231C227.764 220.597 229.55 219.473 230.812 218.623C232.073 217.773 232.756 217.231 233.65 216.63C234.543 216.03 235.627 215.388 236.256 215.027C237.215 214.476 237.412 214.402 237.403 214.431C237.378 214.513 237.133 214.602 236.177 215.065C235.22 215.529 233.514 216.332 232.193 217.036C230.873 217.741 229.989 218.323 229.354 218.713C228.375 219.314 227.663 219.571 227.117 219.733C226.534 219.906 225.84 220.158 225.421 220.342C225.254 220.415 225.126 220.565 225.045 220.686C225.009 220.74 225.044 220.807 225.095 220.839C225.38 221.014 225.854 220.547 227.181 219.44C228.333 218.481 230.436 216.688 231.753 215.617C233.069 214.546 233.531 214.245 234.02 213.98C234.989 213.453 235.688 213.166 235.73 213.094C236.013 212.618 234.476 213.669 233.819 214.164C233.099 214.707 232.589 215.231 232.175 215.494C231.762 215.756 231.111 215.941 230.172 216.184C228.986 216.49 227.947 216.691 227.33 216.974C226.154 217.514 225.492 218.698 225.379 219.094C225.354 219.183 225.369 219.266 225.399 219.328C225.429 219.389 225.489 219.429 226.404 218.567C227.318 217.704 229.084 215.938 230.085 214.957C231.248 213.818 231.552 213.632 231.885 213.46C232.114 213.342 232.479 213.188 233.106 212.955C234.609 212.397 235.588 212.07 235.739 211.979C236.125 211.748 236.317 211.664 236.308 211.644C236.28 211.581 236.038 211.664 235.212 211.975C234.386 212.287 232.941 212.889 231.996 213.33C231.05 213.77 230.649 214.031 230.332 214.266C230.014 214.501 229.794 214.702 229.349 215.056C228.254 215.928 227.438 216.549 227.226 216.772C226.911 217.101 226.425 217.138 225.908 217.129C225.829 217.127 225.875 217.039 226.207 216.656C226.539 216.274 227.161 215.571 227.943 214.768C228.725 213.964 229.649 213.081 230.596 212.285C231.544 211.489 232.487 210.806 233.114 210.394C234.479 209.497 235.342 209.294 235.648 209.069C235.766 208.983 235.892 208.907 235.943 208.876C236.04 208.818 234.867 209.53 233.418 210.391C232.42 210.984 231.661 211.739 231.128 212.271C230.852 212.548 230.541 212.576 230.398 212.597C230.369 212.601 230.457 212.497 231.1 212.215C231.744 211.933 232.948 211.451 233.769 211.162C234.974 210.739 235.546 210.711 235.689 210.721C235.83 210.731 235.325 210.772 234.993 210.802C234.316 210.863 233.363 211.075 232.301 211.368C231.192 211.674 230.48 212.109 230.146 212.342C229.634 212.699 229.384 212.86 229.243 212.881C229.162 212.892 229.061 212.861 228.999 212.79C228.938 212.72 228.918 212.599 228.937 212.457C228.981 212.147 229.421 211.587 230.52 210.457C231.253 209.703 232.442 208.684 233.142 208.016C234.078 207.123 234.35 206.718 234.573 206.455C235.173 205.746 235.303 204.936 235.325 203.721C235.344 202.649 234.799 201.713 234.495 201.154C234.407 200.992 234.19 201.886 234.108 203.429C234.056 204.43 234.108 205.876 234.168 206.842C234.229 207.807 234.329 208.249 234.431 208.366C234.533 208.483 234.633 208.262 234.725 207.787C234.817 207.312 234.897 206.589 234.979 205.183C235.06 203.777 235.14 201.71 235.212 200.514C235.299 199.054 235.506 198.548 235.568 197.922C235.606 197.537 235.348 197.015 235.205 196.254C234.879 194.524 234.838 193.416 234.788 193.335C234.732 193.245 234.575 193.818 234.313 195.338C234.107 196.531 233.93 198.605 233.786 200.533C233.642 202.462 233.582 204.188 233.511 205.057C233.44 205.926 233.359 205.886 233.278 205.735C233.068 205.345 232.973 204.572 232.882 203.752C232.844 203.414 232.851 203.233 232.66 201.875C232.469 200.517 232.088 197.988 231.892 196.595C231.695 195.202 231.695 195.021 231.695 194.978C231.695 194.935 231.695 195.036 231.514 197.988C231.334 200.94 230.972 206.741 230.796 209.891C230.62 213.04 230.64 213.361 230.711 213.426C230.883 213.585 231.207 212.501 231.551 211.107C231.749 210.304 231.854 209.272 231.816 207.711C231.778 206.15 231.558 204.082 231.454 202.846C231.322 201.273 231.451 200.556 231.583 200.039C231.625 199.873 231.734 199.943 231.785 200.687C231.837 201.431 231.857 202.856 232.068 204.774C232.279 206.693 232.681 209.061 232.938 210.402C233.195 211.743 233.295 211.984 233.387 212.168C233.479 212.352 233.559 212.473 233.66 212.324C233.762 212.175 233.883 211.754 233.935 211.125C233.987 210.496 233.966 209.673 233.745 207.212C233.524 204.751 233.103 200.676 232.875 198.546C232.648 196.417 232.628 196.357 232.618 196.366C232.55 196.425 232.628 196.659 232.768 198.206C232.898 199.632 233.11 202.363 233.284 204.01C233.458 205.658 233.578 206.139 233.65 206.327C233.723 206.515 233.743 206.395 233.632 204.376C233.522 202.356 233.282 198.442 233.188 196.546C233.094 194.65 233.154 194.891 233.215 195.286C233.483 197.019 233.621 197.612 233.622 197.694C233.623 197.919 233.117 196.968 232.662 195.968C232.088 194.707 231.858 193.762 231.716 193.448C231.588 193.165 231.453 192.849 231.23 192.586C230.978 192.287 230.561 192.362 230.267 192.462C230.152 192.501 230.055 192.683 229.973 192.866C229.891 193.048 229.851 193.269 229.91 194.587C229.97 195.905 230.131 198.314 230.133 200.79C230.135 203.265 229.975 205.734 229.922 207.237C229.87 208.74 229.93 209.201 229.991 209.55C230.226 210.889 231.066 211.927 231.077 212.332C231.09 212.84 230.642 213.547 230.439 214.126C230.399 214.239 230.378 214.299 230.337 214.32C230.297 214.341 230.236 214.321 230.175 214.27C230.038 214.157 229.932 213.856 229.84 212.869C229.768 212.086 229.809 210.718 229.769 209.754C229.729 208.79 229.649 208.268 229.668 206.203C229.687 204.137 229.807 200.544 229.909 198.392C230.011 196.24 230.092 195.638 230.133 195.287C230.215 194.595 230.235 193.584 230.185 192.86C230.171 192.667 230.154 192.504 230.104 192.352C230.079 192.278 230.033 192.22 229.962 192.23C229.892 192.239 229.791 192.319 229.348 192.782C228.905 193.245 228.122 194.088 227.679 194.592C227.13 195.217 226.992 195.643 226.86 196.119C226.758 196.487 226.768 197.001 226.939 198.451C227.07 199.566 227.45 201.427 227.636 202.55C227.822 203.672 227.842 203.993 227.782 204.721C227.722 205.448 227.582 206.572 227.469 207.322C227.357 208.072 227.277 208.413 227.235 209.02C227.194 209.628 227.194 210.491 227.234 211.217C227.274 211.942 227.354 212.504 227.396 213.015C227.519 214.537 227.236 215.148 227.013 215.726C226.929 215.941 226.91 216.002 226.9 215.591C226.89 215.181 226.89 214.298 226.97 213.542C227.116 212.17 227.376 211.362 227.396 210.887C227.408 210.613 227.457 210.272 227.537 209.815C227.618 209.358 227.739 208.796 227.801 207.794C227.863 206.792 227.863 205.367 227.903 203.639C227.943 201.911 228.023 199.924 228.175 198.318C228.327 196.712 228.548 195.548 228.652 194.898C228.771 194.152 228.674 193.984 228.593 193.852C228.503 193.706 228.411 193.538 228.26 193.416C228.181 193.354 228.048 193.375 227.936 193.415C227.424 193.598 226.813 194.585 226.353 195.128C226.111 195.414 225.958 196.228 225.896 197.482C225.831 198.821 226.22 199.679 226.321 200.003C226.42 200.317 226.403 200.994 226.393 201.824C226.387 202.295 226.302 202.599 226.191 203.113C225.999 204.005 225.836 204.788 225.684 205.183C225.569 205.484 225.41 205.862 225.259 206.469C225.07 207.223 225.165 208.212 225.347 209.123C225.459 209.68 225.672 210.502 225.874 211.535C226.091 212.639 226.402 213.931 226.524 214.41C226.548 214.501 226.565 214.582 226.605 214.614C226.685 214.676 227.19 213.721 227.848 212.322C228.144 211.695 228.207 211.262 228.258 209.832C228.298 208.704 228.249 206.756 228.248 205.552C228.248 203.947 228.269 203.393 228.118 202.718C227.998 202.182 227.746 201.261 227.582 200.875C227.418 200.49 227.337 200.671 227.246 201.075C227.154 201.479 227.054 202.101 226.992 203.034C226.93 203.967 226.91 205.192 226.98 206.696C227.05 208.2 227.211 209.946 227.304 210.886C227.396 211.826 227.416 211.906 227.447 211.987C227.477 212.069 227.517 212.149 227.568 212.09C227.619 212.031 227.679 211.83 227.77 211.195C227.862 210.56 227.982 209.496 228.024 208.466C228.066 207.436 228.026 206.473 227.965 205.886C227.885 205.11 227.661 204.832 227.489 204.67C227.337 204.527 227.073 204.588 226.831 204.648C226.306 204.779 225.94 205.598 225.714 205.986C225.485 206.38 225.268 206.635 225.227 206.766C225.133 207.07 225.59 207.384 225.774 207.709C226.042 208.185 226.179 208.459 226.352 208.713C226.385 208.763 226.463 208.724 227.497 207.118C228.532 205.512 230.539 202.32 231.895 200.315C233.25 198.309 233.892 197.587 234.384 197.094C235.157 196.319 235.567 196.052 235.628 195.881C235.719 195.624 235.629 195.383 235.558 195.231C235.321 194.722 234.317 194.431 233.795 194.187C233.307 193.959 233.217 193.639 232.963 193.568C232.817 193.527 232.348 193.698 231.619 194.001C230.942 194.283 230.34 194.671 229.642 194.914C228.366 195.359 227.946 195.099 227.368 194.897C226.981 194.761 226.689 194.612 226.374 194.511C225.941 194.372 225.674 194.247 225.269 194.247C225.077 194.246 224.944 194.408 224.842 194.53C224.795 194.586 224.781 194.651 224.781 194.732C224.779 195.295 225.388 195.868 225.49 196.121C225.617 196.437 225.592 196.78 225.622 197.347C225.636 197.592 225.673 197.915 225.723 198.55C225.804 199.575 225.977 200.328 225.987 200.622C225.998 200.936 226.038 201.261 226.048 201.574C226.058 201.869 226.099 202.153 226.189 203.751C226.272 205.209 226.46 207.979 226.533 209.627C226.626 211.714 226.485 212.271 226.434 212.484C226.323 212.948 226.645 213.948 226.948 215.364C227.215 216.605 227.194 217.36 227.184 217.633C227.153 218.473 227.093 219.53 227.002 219.894C226.815 220.641 226.667 221.293 226.475 221.901C226.296 222.469 226.1 223.075 225.937 223.645C225.896 224.214 225.856 224.477 225.846 224.72C225.835 224.823 225.815 224.883 225.795 224.945" stroke="black" stroke-width="2" stroke-linecap="round"/>
<path d="M222.753 168.679C222.934 168.537 223.339 168.294 224.697 167.821C225.886 167.407 228.122 166.726 229.32 166.354C230.776 165.902 231.105 165.84 231.541 165.648C231.833 165.519 231.998 165.253 232.252 164.979C232.305 164.922 232.263 164.848 232.202 164.807C231.852 164.569 231.191 164.603 230.683 164.553C230.117 164.496 229.751 164.643 229.425 164.724C228.931 164.848 228.19 164.906 227.632 165.28C226.832 165.817 226.647 166.103 226.404 166.245C226.15 166.392 225.998 166.609 225.846 166.843C225.672 167.11 225.269 167.278 224.944 167.522C224.644 167.747 224.457 168.008 224.274 168.302C224.091 168.596 223.929 168.921 223.899 169.417C223.854 170.134 223.888 171.232 223.969 171.597C224.063 172.02 224.131 172.388 224.273 172.692C224.415 172.997 224.496 173.239 224.577 173.483C224.679 173.787 224.8 174.192 224.942 174.597C225.116 175.095 225.125 175.71 225.176 176.23C225.198 176.461 225.206 176.647 225.237 177.24C225.315 178.774 225.227 179.89 225.196 180.183C225.097 181.143 225.287 181.391 225.318 181.786C225.33 181.94 225.369 182.381 225.359 182.989C225.343 183.922 225.268 185.303 225.186 185.689C225.114 186.031 225.165 186.439 225.136 186.894C225.08 187.736 225.186 188.222 225.126 188.619C225.085 188.883 224.963 189.116 224.923 189.501C224.863 190.063 224.659 190.534 224.588 190.869C224.485 191.357 224.517 191.75 224.637 191.995C225.08 192.895 225.712 190.883 226.036 190.507C226.371 190.12 226.645 189.747 226.888 189.453C227.185 189.095 227.415 188.734 227.922 188.186C228.381 187.689 228.956 187.09 229.321 186.847C229.834 186.505 230.192 185.835 230.679 185.448C231.201 185.034 231.651 184.679 232.209 184.273C232.722 183.9 233.173 183.441 233.607 183.128C234.454 182.518 234.754 182.204 235.16 181.829C235.661 181.367 236.155 180.846 236.771 180.198C237.086 179.868 237.31 179.528 237.393 179.304C237.575 178.806 236.198 179.95 234.873 180.881C234.051 181.459 233.135 182.12 232.791 182.465C232.23 183.027 231.657 183.661 231.159 184.107C230.726 184.496 230.237 185.058 229.821 185.647C229.144 186.604 228.371 187.068 228.026 187.291C227.591 187.573 227.175 187.919 226.88 188.163C226.576 188.415 226.283 188.81 225.978 189.046C225.873 189.126 225.734 189.157 225.653 189.178C225.262 189.277 225.633 188.206 225.551 187.962C225.511 187.841 225.53 187.678 225.621 187.516C225.796 187.205 226.721 186.748 227.724 186.05C228.178 185.734 228.465 185.413 228.821 184.996C229.604 184.08 230.132 183.38 230.375 183.127C230.857 182.626 231.45 182.041 232.289 181.243C232.817 180.741 233.314 180.482 233.802 180.136C234.269 179.804 234.816 179.386 235.16 179.092C235.512 178.791 236.793 177.872 237.574 177.256C237.698 177.158 237.757 177.013 237.788 176.911C237.8 176.871 237.718 176.85 237.627 176.86C237.193 176.906 236.686 177.193 235.25 177.961C234.12 178.565 233.44 179.181 233.127 179.433C232.443 179.984 232.203 180.315 231.888 180.641C231.545 180.995 230.967 181.633 230.631 182.069C230.273 182.536 229.651 183.01 229.252 183.368C228.626 183.931 227.803 184.656 227.125 185.131C226.626 185.48 226.364 185.709 226.069 185.853C225.184 186.285 226.18 184.314 226.199 183.897C226.214 183.585 226.726 183.622 227.219 183.381C228.407 182.8 229.22 182.244 229.743 181.781C230.192 181.385 230.989 180.636 231.563 180.133C232.138 179.63 232.459 179.389 232.815 179.064C233.58 178.367 234.246 177.664 234.783 177.208C235.415 176.671 235.729 176.466 236.113 176.091C236.726 175.494 236.965 175.209 237.239 174.844C237.477 174.527 237.776 174.377 237.91 174.285C238.083 174.166 237.334 174.335 236.437 174.838C235.718 175.241 234.557 176.103 233.716 176.698C232.407 177.624 231.838 178.106 231.656 178.308C231.329 178.671 230.844 179.119 230.298 179.626C230.011 179.892 229.709 180.113 229.345 180.326C228.498 180.82 228.148 181.107 227.843 181.269C227.507 181.449 227.135 181.634 226.809 181.847C226.369 182.135 225.918 182.465 225.613 182.719C225.552 182.77 225.491 182.81 225.46 182.58C225.363 181.854 225.49 181.271 225.631 181.149C226.112 180.737 227.41 180.341 228.255 179.953C228.691 179.754 229.138 179.446 230.044 178.802C230.735 178.312 231.794 177.355 232.373 176.849C233.187 176.138 233.559 175.615 233.843 175.27C234.255 174.768 234.613 174.438 235.573 173.65C236.391 172.979 236.681 172.331 236.885 172.015C236.997 171.841 237.149 171.721 237.129 171.67C237.108 171.613 236.909 171.759 236.144 172.312C235.379 172.865 234.014 173.889 233.22 174.517C232.217 175.31 231.819 175.753 231.374 176.117C230.753 176.625 230.358 176.788 229.508 177.102C228.933 177.315 228.19 177.821 227.55 178.399C227.234 178.685 226.911 178.796 226.465 179.069C226.345 179.143 226.223 179.201 226.14 179.192C225.99 179.175 225.977 178.437 226.057 177.515C226.087 177.167 226.298 177.095 226.411 177.043C226.768 176.881 227.353 176.81 227.699 176.648C227.879 176.563 228.446 176.204 229.326 175.567C230.132 174.984 230.518 174.58 230.629 174.448C230.777 174.274 231.406 173.732 232.347 172.852C233.123 172.125 233.56 171.781 233.791 171.54C234.288 171.02 234.856 170.626 235.31 170.364C236.373 169.749 237.063 169.311 237.463 168.812C237.528 168.73 237.554 168.64 237.524 168.568C237.495 168.497 237.394 168.436 237.282 168.415C236.849 168.334 236.362 168.637 235.108 169.323C233.877 169.997 233.176 170.665 232.984 170.756C232.618 170.929 232.305 171.413 231.859 171.83C231.222 172.423 230.824 172.915 230.641 173.087C230.581 173.145 230.659 173.199 230.751 173.2C230.966 173.201 231.287 173.079 231.782 172.948C232.472 172.765 233.111 172.511 233.878 172.3C236.037 171.704 236.317 171.517 236.328 171.517C236.553 171.511 235.852 171.639 235.64 171.589C235.404 171.532 235.203 171.396 235.031 171.134C234.512 170.342 234.675 169.454 234.635 168.704C234.622 168.452 234.515 168.475 234.393 168.566C234.09 168.792 233.885 169.063 233.613 169.375C233.062 170.009 232.588 170.442 232.265 170.784C231.57 171.522 230.947 172.326 230.471 172.731C230.13 173.021 229.509 173.339 228.81 173.815C228.148 174.266 227.642 174.738 227.074 175.216C226.914 175.351 226.809 175.491 226.657 175.552C226.523 175.606 226.504 174.447 226.524 172.886C226.537 171.913 226.119 171.66 225.977 171.407C225.818 171.121 225.794 169.705 225.734 168.852C225.729 168.778 225.693 168.7 225.653 168.709C225.508 168.741 225.45 169.203 225.389 169.94C225.301 171.015 225.389 171.82 225.449 172.204C225.654 173.503 226.139 174.658 226.26 175.054C226.311 175.22 226.301 175.369 226.362 175.49C226.394 175.556 226.462 175.612 226.503 175.553C226.852 175.049 226.625 174.218 226.656 173.608C226.67 173.323 226.847 172.517 227.08 171.223C227.414 169.368 227.315 168.985 227.406 168.669C227.422 168.612 227.536 168.658 227.598 168.708C227.726 168.814 227.841 169.263 228.094 170.443C228.272 171.276 228.446 172.606 228.58 173.378C228.796 174.63 228.897 174.903 228.907 175.054C228.911 175.126 228.937 175.186 228.947 175.056C228.957 174.927 228.957 174.606 228.877 174.029C228.797 173.452 228.636 172.629 228.503 172.034C228.293 171.093 228.147 170.566 228.116 170.192C228.041 169.272 228.268 168.497 228.369 168.294C228.389 168.253 228.47 168.293 228.521 168.384C228.652 168.616 228.774 169.623 229.016 171.051C229.294 172.686 229.929 173.239 230.123 173.493C230.236 173.643 230.336 173.788 230.427 173.788C230.505 173.789 230.538 173.549 230.589 172.934C230.64 172.319 230.68 171.275 230.681 170.496C230.682 169.235 230.52 168.358 230.388 167.73C230.315 167.383 230.276 167.219 230.245 167.188C229.678 166.61 230.882 169.365 231.065 169.863C231.353 170.643 231.471 170.968 231.593 171.313C231.629 171.416 231.694 171.535 231.755 171.587C231.816 171.639 231.876 171.619 231.987 171.368C232.099 171.117 232.259 170.635 232.352 169.855C232.445 169.075 232.465 168.011 232.455 167.432C232.445 166.854 232.405 166.794 232.354 166.733C232.249 166.606 232.101 166.529 231.889 166.499C231.58 166.455 231.21 166.529 230.705 166.68C229.081 167.167 228.471 167.725 228.45 167.746C227.771 168.405 230.861 167.806 231.358 167.837C231.551 167.867 231.734 167.908 232.017 167.938C232.199 167.949 232.46 167.949 232.85 168.009" stroke="black" stroke-width="2" stroke-linecap="round"/>
<path d="M212.5 171.5C216.446 197.217 217 206.5 212.5 238" stroke="black"/>
<path d="M224.28 176.929C223.642 174.539 223.321 172.405 223.083 171.682C222.785 170.779 221.355 173.617 220.42 176.756C219.703 179.164 221.448 181.602 223.023 183.769C223.293 184.14 223.478 184.278 223.585 184.175C223.946 183.83 223.748 181.371 223.589 178.203C223.505 176.545 222.686 173.967 221.941 170.559C221.67 169.313 221.617 169.049 221.59 169.071C221.563 169.094 221.563 169.41 221.563 169.736" stroke="black" stroke-width="2" stroke-linecap="round"/>
<path d="M222.515 174.029C222.671 173.824 223.128 173.343 223.798 172.637C224.401 172.002 224.656 171.562 224.686 171.435C224.699 171.381 224.633 171.344 224.59 171.325C224.516 171.293 224.367 171.319 224.138 171.355C223.881 171.395 223.341 171.536 222.701 171.675C222.173 171.789 221.729 172.02 221.361 172.141C220.836 172.313 220.532 172.335 220.024 172.486C219.834 172.543 219.672 172.541 219.545 172.511C219.448 172.488 219.754 172.096 220.159 171.679C220.351 171.48 220.757 171.344 221.343 171.169C221.698 171.063 221.861 171.053 221.897 171.047C222.046 171.022 221.368 171.004 221.07 171.095C220.881 171.152 220.605 171.27 220.201 171.415C219.679 171.602 219.129 171.717 218.665 171.91C217.817 172.262 217.592 172.492 217.193 172.655C217.109 172.69 217.071 172.686 217.041 172.704C216.906 172.783 216.877 172.976 216.666 173.187C216.35 173.504 215.778 173.713 215.553 173.841C215.48 173.883 215.389 173.896 215.293 173.938C215.179 173.987 215.123 174.113 215.087 174.222C214.998 174.486 215.243 174.814 215.412 175.201C215.521 175.448 215.473 175.973 215.516 176.411C215.523 176.486 215.558 176.544 215.72 177.048C215.882 177.552 216.181 178.498 216.419 179.698C216.657 180.898 216.825 182.324 216.923 183.094C217.031 183.938 217.118 184.297 217.191 184.769C217.219 184.952 217.216 185.025 217.198 185.05C217.18 185.075 217.144 185.051 217.101 184.985C217.059 184.918 217.011 184.811 216.908 184.468C216.806 184.125 216.65 183.55 216.552 183.116C216.393 182.412 216.381 181.943 216.375 181.653C216.37 181.42 216.321 181.18 216.272 180.98C216.215 180.746 216.199 180.455 216.163 180.164C216.138 179.96 216.043 179.537 215.91 179.041C215.779 178.555 215.848 178.204 215.873 177.747C215.893 177.363 215.897 176.668 215.921 176.334C215.945 176 215.981 176.048 216.071 176.199C216.529 176.961 216.875 177.27 217.172 177.362C217.373 177.424 217.65 177.296 217.909 177.157C218.118 177.046 218.435 176.753 218.84 176.367C219.012 176.202 219.089 176.076 219.258 175.871C219.427 175.665 219.679 175.378 220.054 174.888C220.429 174.399 220.92 173.716 221.143 173.382C221.366 173.049 221.306 173.085 220.886 173.654C220.466 174.223 219.687 175.325 219.155 176.168C218.622 177.012 218.358 177.563 218.21 177.894C218.063 178.226 218.039 178.322 218.038 178.395C218.038 178.469 218.062 178.516 218.122 178.517C218.285 178.519 218.629 178.157 219.106 177.62C219.341 177.355 219.523 177.071 219.711 176.762C219.9 176.452 220.079 176.117 220.25 175.734C220.602 174.944 220.748 174.441 220.766 174.374C220.769 174.365 220.773 174.415 220.683 175.308C220.593 176.201 220.413 177.938 220.321 178.862C220.222 179.846 220.216 179.981 220.234 180.071C220.241 180.106 220.336 180.055 220.57 179.791C220.805 179.527 221.2 179.035 221.667 178.387C222.134 177.739 222.661 176.948 222.478 177.302C222.294 177.655 221.384 179.176 220.765 180.331C220.146 181.486 219.847 182.229 219.693 182.635C219.539 183.042 219.539 183.09 219.568 183.114C219.598 183.139 219.658 183.139 219.737 183.091C219.816 183.043 219.912 182.947 220.242 182.539C220.573 182.13 221.136 181.411 221.57 180.903C222.261 180.094 222.635 179.812 222.744 179.752C222.805 179.718 222.876 179.668 222.931 179.715C222.986 179.762 223.022 179.906 223.023 180.028C223.023 180.15 222.987 180.246 222.633 180.954C222.279 181.662 221.609 182.979 221.257 183.718C220.894 184.576 220.893 184.783 220.93 184.94C220.954 185.014 220.99 185.073 221.027 185.135" stroke="black" stroke-width="4" stroke-linecap="round"/>
<path d="M217.397 205.751C217.385 205.655 217.361 205.365 217.403 205.003C217.424 204.823 217.445 204.511 217.529 203.967C217.613 203.423 217.757 202.657 217.861 202.022C217.965 201.388 218.025 200.909 218.056 200.602C218.125 199.91 218.159 199.473 218.25 198.972C218.283 198.786 218.304 198.386 218.353 197.734C218.401 197.085 218.281 196.474 218.166 195.997C218.087 195.669 218.002 195.504 217.942 195.324C217.824 194.97 217.676 194.562 217.597 194.247C217.567 194.125 217.555 194.077 217.506 194.262C217.458 194.447 217.375 194.866 217.325 195.285C217.276 195.705 217.264 196.112 217.294 196.705C217.324 197.298 217.396 198.065 217.534 198.873C217.673 199.681 217.877 200.508 218.096 201.34C218.314 202.173 218.542 202.988 218.683 203.641C218.824 204.294 218.872 204.761 218.891 205.313C218.909 205.865 218.897 206.488 218.873 206.917C218.821 207.847 218.752 208.156 218.74 208.466C218.74 208.471 218.74 208.342 218.68 207.819C218.62 207.296 218.5 206.374 218.451 205.678C218.401 204.981 218.425 204.538 218.461 204.202C218.498 203.866 218.545 203.65 218.624 203.162C218.703 202.673 218.81 201.919 218.848 200.853C218.885 199.788 218.85 198.434 218.837 197.755C218.825 197.076 218.836 197.112 218.831 197.951C218.825 198.79 218.801 200.431 218.962 202.342C219.124 204.253 219.471 206.385 219.824 207.974C220.176 209.564 220.523 210.546 220.756 211.142C220.989 211.738 221.097 211.917 221.17 212.034C221.244 212.15 221.28 212.198 221.316 212.091C221.353 211.984 221.389 211.72 221.335 209.441C221.282 207.161 221.138 202.873 220.986 200.335C220.835 197.797 220.679 197.138 220.587 196.769C220.494 196.399 220.47 196.339 220.482 196.362C220.494 196.386 220.542 196.493 220.818 198.579C221.094 200.665 221.597 204.725 221.886 206.936C222.175 209.148 222.235 209.387 222.314 209.631C222.393 209.874 222.488 210.113 222.574 210.231C222.659 210.348 222.731 210.336 222.828 210.222C222.925 210.108 223.045 209.893 223.148 209.62C223.252 209.347 223.336 209.024 223.451 207.174C223.566 205.325 223.709 201.959 223.754 200.04C223.798 198.12 223.738 197.749 223.695 197.528C223.652 197.307 223.628 197.247 223.61 197.192C223.591 197.137 223.58 197.089 223.49 197.586C223.399 198.082 223.232 199.124 223.098 199.763C222.963 200.401 222.867 200.605 222.769 200.815" stroke="black" stroke-width="4" stroke-linecap="round"/>
<path d="M217.869 194.064C217.869 193.98 217.893 193.762 217.941 193.156C217.98 192.67 217.989 191.819 217.996 191.339C218.005 190.652 217.917 190.412 217.869 190.169C217.818 189.912 217.736 189.65 217.663 189.322C217.634 189.192 217.603 188.864 217.501 188.381C217.348 187.662 217.083 187.35 216.95 186.711C216.875 186.352 216.889 185.696 216.847 185.425C216.799 185.115 216.816 186.221 216.894 186.686C216.998 187.301 217.154 187.457 217.251 187.645C217.36 187.854 217.372 188.134 217.403 188.762C217.425 189.223 217.457 189.732 217.464 190.353C217.467 190.68 217.361 190.869 217.331 191.075C217.301 191.279 217.288 192.193 217.324 192.786C217.332 192.915 217.433 193.047 217.559 193.144C217.607 193.18 217.65 193.145 217.687 193.055C217.723 192.964 217.759 192.809 217.778 192.501C217.796 192.193 217.796 191.738 217.73 191.174C217.664 190.61 217.533 189.952 217.459 189.474C217.343 188.726 217.337 188.294 217.3 188.047C217.277 187.884 217.228 187.546 217.113 187.062C217.032 186.717 216.902 186.371 216.793 185.931C216.683 185.484 216.671 185.1 216.683 184.924C216.697 184.725 216.78 185.351 216.726 185.672C216.652 186.111 216.454 186.427 216.381 186.816C216.311 187.185 216.368 187.795 216.435 188.134C216.514 188.543 216.839 189.004 217.152 189.541C217.537 190.2 217.832 190.651 217.905 190.85C218.007 191.131 218.098 191.316 218.153 191.516C218.164 191.558 218.159 191.595 218.195 191.601C218.303 191.621 218.533 191.416 218.846 191.096C219.012 190.927 219.16 190.717 219.498 190.151C219.836 189.585 220.351 188.662 220.939 187.421C221.528 186.179 222.175 184.646 222.592 183.706C223.009 182.767 223.177 182.467 222.88 183.134C222.583 183.8 221.816 185.441 221.415 186.304C221.014 187.167 221.002 187.203 221.002 187.24C221.002 187.276 221.014 187.312 221.038 187.325C221.207 187.412 221.557 186.976 222.105 186.29C222.493 185.804 223.071 185.006 223.386 184.575C223.7 184.144 223.724 184.096 223.179 184.526C222.635 184.957 221.521 185.867 220.785 186.42C219.761 187.189 219.345 187.325 219.243 187.343C219.189 187.353 219.128 187.349 219.073 187.337C219.019 187.325 218.971 187.301 218.934 187.229C218.843 187.049 218.921 186.686 219.119 186.18C219.366 185.55 219.659 185.184 219.821 185.004C220.102 184.691 220.552 184.362 221.023 184.085C221.41 183.856 221.931 183.672 222.456 183.467C222.898 183.295 223.059 183.139 223.107 183.127C223.133 183.12 223.108 183.234 222.88 183.72C222.652 184.207 222.209 185.093 221.933 185.729C221.657 186.366 221.561 186.725 221.493 187.138C221.426 187.55 221.39 188.005 221.384 188.414C221.377 188.822 221.401 189.169 221.509 189.719C221.617 190.269 221.809 191.012 221.926 191.437C222.156 192.276 222.309 192.817 222.327 192.866C222.331 192.878 222.333 192.771 222.561 191.243C222.788 189.714 223.243 186.744 223.484 185.076C223.724 183.408 223.736 183.132 223.73 183.008C223.725 182.885 223.701 182.92 223.545 183.328C223.389 183.736 223.101 184.515 222.875 185.251C222.649 185.987 222.493 186.658 222.401 187.692C222.309 188.727 222.285 190.104 222.345 191.448C222.404 192.793 222.548 194.062 222.616 194.782C222.696 195.632 222.612 195.853 222.491 196.004C222.43 196.082 222.323 196.119 222.232 196.138C222.06 196.173 221.862 196.085 221.669 195.994C221.519 195.924 221.175 195.519 220.715 194.927C220.473 194.614 220.362 194.272 220.217 193.819C220.079 193.389 220.095 192.821 220.173 192.091C220.264 191.238 220.506 190.737 220.482 190.922C220.451 191.169 220.315 191.718 220.259 192.229C220.204 192.74 220.216 193.196 220.282 193.688C220.348 194.18 220.467 194.695 220.625 195.163C220.783 195.632 220.974 196.04 221.115 196.315C221.255 196.591 221.339 196.723 221.406 196.815C221.474 196.906 221.522 196.954 221.607 196.967" stroke="black" stroke-width="4" stroke-linecap="round"/>
<path d="M224.003 227.745C223.691 227.949 223.38 228.153 222.836 228.533C222.292 228.913 221.526 229.464 221.023 229.808C220.318 230.291 219.987 230.431 219.818 230.491C219.448 230.624 218.887 230.83 218.686 230.975C218.568 231.061 218.342 231.204 218.023 231.458C217.378 231.969 217.083 232.076 216.956 232.203C216.784 232.375 216.49 232.536 216.291 232.681C216.142 232.79 216.042 232.935 215.801 233.291C215.682 233.467 215.607 233.624 215.432 233.812C215.233 234.025 215.051 234.157 214.941 234.266C214.89 234.318 214.953 234.026 215.073 233.605C215.312 232.769 215.558 232.138 215.636 231.951C215.688 231.827 215.835 231.379 216.071 230.714C216.276 230.135 216.32 229.948 216.434 229.474C216.528 229.081 216.728 228.389 216.832 227.995C216.956 227.531 217.045 227.192 217.178 226.756C217.252 226.516 217.336 226.163 217.469 225.704C217.522 225.521 217.53 225.436 217.716 224.86C217.901 224.284 218.261 223.218 218.464 222.597C218.713 221.835 218.74 221.636 218.722 221.576C218.716 221.555 218.668 221.587 218.434 221.947C218.2 222.306 217.769 223.001 217.529 223.401C217.242 223.878 217.108 224.378 216.932 225.025C216.85 225.327 216.744 225.638 216.606 226.085C216.501 226.42 216.393 226.584 216.303 226.812C215.918 227.786 215.849 228.095 215.686 228.5C215.6 228.713 215.619 228.942 215.588 229.124C215.565 229.269 215.546 229.941 215.588 230.238C215.629 230.525 215.655 229.694 215.667 229.543C215.687 229.283 215.727 229.041 215.841 228.279C215.943 227.599 216.183 226.331 216.3 225.641C216.417 224.951 216.417 224.88 216.459 224.549C216.501 224.219 216.585 223.632 216.694 223.012C216.803 222.392 216.935 221.758 217.008 221.413C217.12 220.89 217.083 220.596 217.064 220.415C217.059 220.366 217.046 220.318 216.992 221.096C216.938 221.874 216.842 223.479 216.811 224.455C216.78 225.432 216.816 225.731 216.84 225.987C216.909 226.704 216.925 227.017 216.961 227.363C216.999 227.722 217.142 228.396 217.215 228.779C217.263 229.027 217.36 229.389 217.445 229.62C217.46 229.661 217.505 229.681 217.566 229.687C217.626 229.693 217.71 229.681 218.855 228.783C220 227.884 222.204 226.1 223.429 225.121C224.654 224.141 224.834 224.022 224.866 223.972C224.916 223.896 224.584 224.007 223.882 224.271C223.255 224.507 222.067 224.918 221.33 225.194C220.333 225.567 219.975 225.749 219.794 225.803C219.687 225.835 219.563 225.798 219.43 225.738C219.375 225.712 219.369 225.653 219.381 225.575C219.393 225.496 219.429 225.388 219.962 224.668C220.496 223.948 221.526 222.618 222.074 221.916C222.654 221.173 222.72 221.104 222.696 221.127C222.642 221.181 222.529 221.342 221.719 222.117C220.909 222.892 219.411 224.281 218.658 224.967C217.905 225.653 217.941 225.593 218.384 224.928C218.828 224.262 219.678 222.992 220.206 222.254C220.734 221.517 220.914 221.349 221.036 221.244C221.159 221.14 221.219 221.104 221.281 221.067" stroke="black" stroke-width="4" stroke-linecap="round"/>
<path d="M216.925 222.338C217.009 222.098 217.093 221.858 217.34 221.202C217.587 220.546 217.994 219.48 218.335 218.074C218.677 216.669 218.94 214.956 219.076 214.002C219.212 213.047 219.212 212.904 219.224 212.716C219.25 212.3 219.368 211.743 219.513 211.217C219.623 210.82 219.875 210.496 220.088 210.234C220.306 209.966 220.47 209.78 220.518 209.743C220.603 209.876 220.627 210.129 220.597 210.532C220.567 210.804 220.508 211.211 220.446 211.631" stroke="black" stroke-width="4" stroke-linecap="round"/>
<path d="M223.894 211.885C223.475 212.687 223.056 213.49 222.756 214.184C222.456 214.879 222.289 215.442 222.154 216.02C222.02 216.597 221.924 217.172 221.875 217.546C221.805 218.073 221.837 218.272 221.891 218.315C221.925 218.341 222.005 218.297 222.078 218.225C222.151 218.153 222.223 218.033 222.41 217.54C222.597 217.047 222.896 216.185 223.116 215.273C223.336 214.362 223.468 213.428 223.536 212.905C223.604 212.381 223.604 212.298 223.562 212.302C223.52 212.307 223.436 212.403 223.279 212.674C223.122 212.945 222.895 213.388 222.676 213.946C222.457 214.503 222.253 215.162 222.13 215.633C222.007 216.104 221.971 216.368 221.953 216.659C221.915 217.261 221.982 217.894 222.073 218.396C222.107 218.588 222.151 218.646 222.194 218.659C222.236 218.672 222.284 218.636 222.309 218.594C222.334 218.551 222.334 218.503 222.334 218.454" stroke="black" stroke-width="4" stroke-linecap="round"/>
<path d="M220.918 219.18C220.618 219.599 220.319 220.018 220.165 220.21C220.01 220.402 220.01 220.354 220.058 220.198C220.106 220.041 220.202 219.778 220.221 219.624C220.241 219.471 220.181 219.435 220 219.446C219.82 219.458 219.52 219.517 219.073 219.626C218.035 219.878 217.397 220.063 217.325 220.069C217.148 220.084 217.059 219.798 216.914 219.381C216.748 218.906 217.009 218.709 217.076 218.503C217.131 218.335 217.227 218.201 217.288 218.019C217.359 217.808 217.409 217.512 217.53 217.004C217.61 216.668 217.663 216.447 217.717 216.205C217.766 215.991 217.844 215.47 217.971 214.655C218.073 214.002 218.026 213.592 218.056 213.267C218.076 213.049 218.098 212.726 218.141 212.374C218.228 211.648 218.328 211.196 218.365 211.039C218.466 210.603 218.304 209.844 218.335 209.369C218.351 209.115 218.377 208.825 218.407 208.559C218.429 208.365 218.353 208.22 218.305 208.068C218.276 207.979 218.256 207.892 218.226 207.856C218.191 207.814 218.147 207.964 218.111 208.007C218.071 208.054 217.894 207.965 217.719 207.989C217.56 208.01 217.735 208.315 217.79 208.556C217.887 208.982 217.76 209.258 217.724 209.488C217.708 209.587 217.687 209.958 217.693 210.466C217.696 210.687 217.724 211.166 217.712 211.874C217.703 212.361 217.615 212.597 217.579 212.845C217.525 213.211 217.518 213.795 217.5 213.959C217.475 214.185 217.409 214.424 217.385 214.66C217.367 214.837 217.312 215.029 217.294 215.45C217.257 216.325 217.276 216.989 217.258 217.188C217.252 217.399 217.24 217.546 217.216 217.918C217.204 218.254 217.192 218.889 217.179 219.543" stroke="black" stroke-width="4" stroke-linecap="round"/>
<path d="M204.023 211.457C203.909 211.915 203.842 212.208 203.829 212.409C203.791 213.041 203.85 213.207 203.899 213.43C203.959 213.701 203.982 213.884 204.069 214.124C204.107 214.231 204.131 214.315 204.135 214.344C204.115 214.299 204.032 213.84 203.933 213.175C203.9 212.928 203.9 212.863 203.9 212.795" stroke="white" stroke-width="4" stroke-linecap="round"/>
<path d="M204.322 213C204.322 213.008 204.322 213.016 204.273 213.16C204.224 213.303 204.126 213.581 204.071 213.736C204.017 213.892 204.008 213.916 204 213.991" stroke="white" stroke-width="4" stroke-linecap="round"/>
<path d="M187.819 201.378C188.042 201.378 188.604 201.266 189.952 200.818C192.193 199.922 196.479 198.453 201.606 196.987C203.829 196.415 205.281 196.191 206.777 195.961" stroke="white" stroke-width="4" stroke-linecap="round"/>
<path d="M203.466 181.225C203.466 181.146 203.466 181.067 203.483 181.037C203.5 181.008 203.534 181.03 203.557 181.093C203.68 181.426 203.739 182.213 203.814 182.76C203.907 183.439 203.923 183.681 203.985 184.158C204.031 184.511 204.127 185.087 204.173 185.418C204.229 185.816 204.265 186.272 204.334 186.973C204.388 187.526 204.346 187.829 204.346 188.034C204.345 188.182 204.391 188.419 204.499 188.954C204.607 189.49 204.788 190.315 204.898 190.78C205.028 191.328 205.145 191.519 205.316 191.866C205.594 192.432 205.705 192.868 205.705 192.926C205.706 193.208 205.249 192.458 205.066 192.372C204.744 192.221 204.357 192.287 204.3 192.19C204.157 191.946 204.367 191.318 204.494 190.99C204.571 190.788 204.62 190.608 204.688 190.128C204.727 189.855 204.734 189.285 204.694 188.757C204.643 188.079 204.574 187.899 204.483 187.727C204.438 187.641 204.312 188.09 204.243 188.637C204.113 189.673 204.163 189.953 204.123 190.308C204.073 190.752 204.174 190.914 204.26 191.069C204.283 191.112 204.322 191.154 204.357 191.183C204.391 191.212 204.425 191.223 204.493 191.218C204.562 191.212 204.664 191.19 205.236 190.85C205.809 190.51 206.85 189.854 208.376 188.996C209.902 188.137 211.882 187.097 213.195 186.476C214.509 185.855 215.098 185.685 215.418 185.592C215.738 185.499 215.772 185.487 215.009 185.736C214.245 185.985 212.684 186.494 211.79 186.807C210.895 187.12 210.714 187.222 210.434 187.41C210.154 187.598 209.781 187.87 209.509 188.055C208.862 188.496 208.608 188.572 208.318 188.698C207.94 188.861 207.672 188.835 207.449 188.864C207.375 188.873 207.273 188.87 207.204 188.853C207.134 188.836 207.1 188.802 207.094 188.722C207.078 188.518 207.202 188.254 207.401 187.935C207.52 187.744 207.724 187.526 207.981 187.273C208.239 187.021 208.556 186.75 209.85 185.92C211.144 185.09 213.407 183.71 214.533 183.01C215.659 182.31 215.58 182.333 214.526 182.712C213.473 183.092 211.448 183.827 210.264 184.279C209.079 184.732 208.796 184.879 208.538 185.039C208.039 185.349 207.785 185.578 207.598 185.732C206.852 186.343 206.598 186.424 206.42 186.487C206.382 186.501 206.346 186.482 206.34 186.447C206.334 186.413 206.356 186.357 206.787 185.79C207.217 185.224 208.054 184.149 208.615 183.477C209.176 182.804 209.437 182.567 210.131 182.06C210.825 181.553 211.945 180.784 212.538 180.37C213.171 179.93 213.461 179.73 213.873 179.473C214.026 179.377 214.058 179.34 214.019 179.323C213.979 179.305 213.866 179.305 213.129 179.617C212.392 179.928 211.035 180.55 210.29 180.899C209.546 181.247 209.455 181.304 209.25 181.401C208.734 181.645 208.323 181.796 208.073 181.887C207.633 182.047 207.159 182.309 206.788 182.532C206.533 182.685 206.369 182.79 206.226 182.825C206.164 182.84 206.118 182.836 206.1 182.814C206.082 182.791 206.094 182.746 206.235 182.474C206.377 182.201 206.648 181.704 206.924 181.295C207.427 180.548 207.819 180.209 208.006 180.066C208.286 179.854 208.561 179.706 209.089 179.411C209.528 179.166 210.306 178.709 210.77 178.431C211.235 178.152 211.359 178.062 211.604 177.851C212.22 177.322 212.675 176.918 212.829 176.815C213.191 176.574 213.749 176.312 214.046 176.135C214.308 175.979 213.408 176.128 213.054 176.22C212.753 176.298 212.12 176.516 211.74 176.643C211.437 176.744 211.214 176.916 210.382 177.481C210.206 177.6 210.163 177.648 209.924 177.835C209.686 178.022 209.256 178.35 208.956 178.57C208.503 178.901 208.254 179.065 208.106 179.185C207.786 179.444 207.069 179.864 206.683 180.019C206.311 180.231 206.061 180.39 205.866 180.528C205.831 180.551 205.798 180.562 205.728 180.574" stroke="black" stroke-width="4" stroke-linecap="round"/>
<path d="M205.557 196.103C205.545 196.023 205.534 195.944 205.506 195.355C205.477 194.765 205.432 193.668 205.392 193.108C205.351 192.549 205.318 192.56 205.232 192.617C204.756 192.933 204.563 193.302 204.46 193.519C204.245 193.972 204.118 194.216 204.02 194.479C203.954 194.658 203.946 194.912 203.985 195.108C204.025 195.301 204.287 195.937 204.363 196.49C204.374 196.57 204.38 196.627 204.385 196.979C204.391 197.33 204.391 197.975 204.386 198.335C204.379 198.753 204.357 199.014 204.351 199.351C204.348 199.542 204.311 199.69 204.294 200.081C204.259 200.891 204.277 201.495 204.26 201.638C204.231 201.882 204.288 202.158 204.317 202.443C204.365 202.921 204.38 203.311 204.397 203.632C204.411 203.897 204.482 204.214 204.534 204.568C204.551 204.66 204.574 204.751 204.585 204.826C204.597 204.9 204.597 204.957 204.631 205.084" stroke="black" stroke-width="4" stroke-linecap="round"/>
<path d="M205.385 203.576C205.453 203.496 205.521 203.417 205.856 202.867C206.19 202.317 206.79 201.299 207.133 200.679C207.476 200.058 207.544 199.866 207.646 199.416C207.749 198.966 207.885 198.265 207.966 197.87C208.047 197.474 208.07 197.407 208.144 197.117C208.347 196.32 208.504 195.704 208.573 195.482C208.664 195.186 208.699 194.938 208.756 194.654C208.87 194.082 208.882 193.59 208.876 193.384C208.866 193.004 208.711 192.528 208.557 192.304C208.477 192.188 208.334 192.172 208.265 192.132C208.232 192.113 208.197 192.103 208.162 192.137C208.068 192.23 208.059 192.388 208.048 192.542C208.041 192.639 208.014 192.775 207.968 194.366C207.923 195.958 207.855 199.001 207.808 200.647C207.762 202.294 207.74 202.453 207.728 202.568C207.689 202.957 207.648 203.346 207.591 203.671C207.562 203.835 207.568 203.952 207.556 204.021C207.551 204.055 207.568 204.089 207.596 204.101C207.757 204.168 207.899 203.896 208.476 203.064C209.013 202.291 210.027 200.795 210.642 199.856C211.257 198.917 211.438 198.578 211.672 197.984C211.907 197.391 212.19 196.554 212.369 195.823C212.549 195.092 212.617 194.492 212.635 193.855C212.653 193.218 212.619 192.562 212.579 192.105C212.518 191.408 212.368 190.94 212.191 190.49C212.102 190.262 211.981 190.051 211.877 190.087C211.774 190.123 211.683 190.418 211.354 191.955C211.024 193.492 210.459 196.264 210.162 197.799C209.865 199.334 209.853 199.549 209.853 199.688C209.853 199.884 209.899 199.987 209.967 200.078C210.148 200.32 210.526 200.25 210.772 200.279C211.255 200.335 211.804 200.069 212.143 199.857C212.252 199.789 212.376 199.636 212.53 199.425C212.685 199.213 212.855 198.931 213.118 198.208C213.38 197.485 213.731 196.332 213.957 195.132C214.183 193.932 214.273 192.722 214.292 191.94C214.31 191.158 214.253 190.841 214.202 190.616C214.053 189.969 213.75 189.624 213.619 189.402C213.588 189.351 213.567 189.316 213.544 189.315C213.521 189.315 213.499 189.349 213.232 190.497C212.966 191.646 212.457 193.909 212.02 196.234C211.582 198.559 211.231 200.878 211.051 202.185C210.87 203.493 210.87 203.72 210.876 203.876C210.888 204.229 210.984 204.567 211.047 204.804C211.052 204.821 211.087 204.776 211.155 204.493C211.223 204.209 211.336 203.678 211.649 202.606C211.962 201.535 212.471 199.94 212.824 198.626C213.176 197.312 213.357 196.328 213.417 195.923C213.476 195.518 213.408 195.721 213.322 196.115C213.236 196.508 213.135 197.085 213.037 198.429C212.939 199.772 212.849 201.865 212.819 203.022C212.789 204.18 212.823 204.338 212.863 204.482C212.991 204.939 213.098 205.231 213.195 205.488C213.257 205.652 213.098 204.834 213.195 204.372C213.232 204.192 213.325 203.957 213.496 203.569C213.667 203.181 213.927 202.649 214.146 202.121C214.365 201.592 214.535 201.083 214.628 200.793C214.721 200.502 214.732 200.446 214.726 200.451C214.668 200.502 214.664 200.661 214.613 201.403C214.566 202.077 214.505 203.355 214.459 204.059C214.39 204.853 214.355 205.003 214.327 205.106C214.31 205.152 214.287 205.186 214.195 205.221" stroke="black" stroke-width="4" stroke-linecap="round"/>
<path d="M215.464 207.004C215.339 206.981 215.099 206.912 214.634 206.816C214.228 206.732 213.468 206.618 212.976 206.548C212.282 206.449 211.889 206.432 211.535 206.381C211.202 206.333 210.974 206.284 210.554 206.329C210.201 206.367 209.569 206.465 208.971 206.494C208.373 206.524 207.83 206.49 207.534 206.467C207.109 206.434 206.838 206.341 206.558 206.261C206.331 206.196 206.14 206.192 205.918 206.107C205.599 205.985 205.398 205.861 205.22 205.804C205.077 205.758 204.827 205.735 204.586 205.707C204.529 205.7 204.461 205.701 204.415 205.718C204.369 205.735 204.346 205.769 204.334 205.809C204.285 205.979 204.459 206.282 204.562 206.534C204.669 206.796 204.757 207.003 204.774 207.26C204.795 207.574 204.78 207.963 204.729 208.1C204.673 208.249 204.427 208.408 204.345 208.478C204.001 208.776 204.482 207.85 204.551 207.553C204.569 207.474 204.563 207.394 204.546 207.375C204.447 207.269 204.403 207.665 204.397 207.922C204.391 208.183 204.505 208.454 204.579 208.592C204.594 208.619 204.653 208.592 204.637 208.598C204.543 208.629 204.426 208.66 204.363 208.694C204.296 208.731 204.277 208.82 204.26 208.917C204.249 208.979 204.254 209.07 204.294 209.117C204.519 209.381 205.03 208.981 205.703 208.815C205.906 208.765 206.047 208.763 206.337 208.729C206.883 208.665 207.27 208.729 207.729 208.746C208.154 208.762 208.968 208.752 209.433 208.757C209.989 208.764 210.319 208.786 210.696 208.78C211.11 208.774 211.635 208.695 211.943 208.689C212.32 208.682 212.789 208.706 212.858 208.695C212.926 208.683 212.961 209.147 212.956 209.816C212.952 210.273 212.836 210.727 212.796 211.013C212.761 211.263 212.744 211.391 212.772 211.392C212.96 211.395 213.154 210.823 213.399 210.304C213.612 209.854 213.761 209.404 213.846 209.21C213.864 209.164 213.875 209.13 213.87 209.135C213.864 209.14 213.841 209.185 213.818 209.232" stroke="black" stroke-width="4" stroke-linecap="round"/>
<path d="M203.054 219.961C203.054 219.882 203.077 219.654 203.179 219.266C203.221 219.107 203.248 218.968 203.266 218.91C203.379 218.534 203.214 219.8 203.243 219.995C203.247 220.024 203.293 220.007 203.78 219.487C204.267 218.966 205.206 217.937 205.894 217.22C206.581 216.503 206.988 216.13 207.3 215.824C207.611 215.519 207.815 215.292 208.435 214.757C209.054 214.222 210.084 213.385 210.885 212.795C211.687 212.206 212.23 211.889 212.533 211.709C212.998 211.432 213.178 211.289 213.281 211.146C213.42 210.953 213.578 210.889 213.646 210.877C213.733 210.862 213.851 211.138 214.051 211.514C214.296 211.977 214.355 212.441 214.378 212.856C214.392 213.113 214.356 213.464 214.327 213.729C214.298 213.995 214.264 214.165 213.941 215.134C213.619 216.104 213.008 217.869 212.659 218.942C212.31 220.015 212.243 220.343 212.196 220.812C212.15 221.281 212.127 221.88 212.104 222.263C212.058 223.027 211.876 223.387 211.671 223.815C211.563 224.041 211.421 224.276 211.323 223.465C211.225 222.654 211.168 220.787 211.167 219.622C211.167 218.457 211.223 218.05 211.28 217.75C211.429 216.972 211.647 216.74 211.801 216.466C211.998 216.114 212.275 215.872 212.418 215.694C212.594 215.475 212.709 215.243 212.852 215.038C212.907 214.959 212.915 214.923 212.83 215.024C212.746 215.125 212.565 215.363 211.996 215.881C211.428 216.4 210.478 217.191 209.428 218.029C208.379 218.867 207.259 219.727 206.648 220.204C205.853 220.825 205.706 220.955 205.529 221.098C205.288 221.292 205.112 221.686 204.946 221.835C204.652 222.099 204.403 222.257 204.226 222.304C204.011 222.36 203.957 221.916 203.837 221.722C203.743 221.568 203.672 221.447 203.603 221.424C203.453 221.374 203.374 221.663 203.295 221.891C203.112 222.412 203.248 222.92 203.288 223.177C203.321 223.387 203.328 223.752 203.357 224.034C203.363 224.187 203.374 224.337 203.391 224.638C203.397 224.882 203.397 225.312 203.431 225.789" stroke="black" stroke-width="4" stroke-linecap="round"/>
<path d="M215.566 224.418C215.077 224.463 214.642 224.577 214.288 224.618C213.719 224.682 213.397 224.737 213.054 224.914C212.752 225.07 212.414 225.444 212.156 225.998C212.02 226.293 211.99 226.576 211.848 226.861C211.622 227.313 211.306 227.752 211.066 228.044C210.867 228.286 210.677 228.53 210.477 229.021C210.355 229.318 210.106 229.865 209.848 230.278C209.662 230.576 209.591 230.861 209.539 231.141C209.545 231.41 209.568 231.57 209.596 231.827C209.602 231.924 209.602 232.059 209.602 232.199" stroke="black" stroke-width="4" stroke-linecap="round"/>
<path d="M209.225 220.544C209.202 220.499 209.123 220.34 208.98 220.179C208.928 220.121 208.826 220.245 208.593 220.659C208.36 221.074 207.976 221.809 207.715 222.363C207.455 222.917 207.33 223.268 207.232 223.601C206.923 224.652 206.917 224.988 206.82 225.251C206.7 225.576 206.438 226.161 206.231 226.855C206.187 227.005 206.208 227.168 206.202 227.233C206.199 227.268 206.151 227.104 206.032 226.701C205.818 225.974 205.58 225.492 205.551 225.384C205.525 225.283 206.02 225.116 206.916 224.888C207.283 224.794 207.461 224.705 207.724 224.545C207.987 224.386 208.327 224.148 208.575 223.958C208.982 223.646 209.314 223.266 209.64 222.866C209.86 222.595 209.922 222.43 209.922 222.384C209.922 222.265 209.603 222.622 209.124 223.375C208.991 223.583 208.929 223.796 208.855 224.037C208.78 224.278 208.712 224.549 208.609 225.017C208.506 225.485 208.37 226.141 208.284 226.53C208.139 227.179 207.969 227.693 207.888 228.033C207.877 228.085 207.865 228.153 207.859 228.233C207.854 228.313 207.854 228.404 207.854 228.497" stroke="black" stroke-width="4" stroke-linecap="round"/>
<path d="M213.03 228.394C213.03 228.519 212.951 229.166 212.797 229.988C212.684 230.59 212.494 231.088 212.323 231.55C212.126 232.08 211.9 232.266 211.671 232.427C211.524 232.53 211.124 232.78 210.558 233.384C209.596 234.412 209.705 234.713 209.648 234.798C209.622 234.837 209.613 234.872 209.664 234.856C209.839 234.799 210.012 234.645 210.421 234.373C210.756 234.149 211.372 233.784 211.704 233.586C212.035 233.388 212.069 233.376 212.081 233.399C212.162 233.553 211.662 233.956 211.015 234.426C210.687 234.665 210.403 234.724 210.151 234.827C209.655 235.03 208.976 235.34 208.62 235.575C208.282 235.798 207.889 236.06 207.587 236.294C207.094 236.675 206.849 237.214 206.717 237.369C206.578 237.532 206.312 237.604 206.078 237.768C205.697 238.037 205.341 238.38 204.937 238.721C204.296 239.263 203.866 239.694 203.684 239.842C203.257 240.189 203.18 240.391 203.06 240.563C202.95 240.72 202.906 240.871 202.815 241.014C202.701 241.192 202.563 241.351 202.415 241.54C202.197 241.816 202.061 241.911 201.918 242.037C201.696 242.232 201.489 242.482 201.409 242.648C201.335 242.801 201.249 242.951 201.175 243.1C201.158 243.134 201.146 243.168 201.152 243.129C201.173 242.976 201.237 242.77 201.322 242.548C201.439 242.245 201.602 241.8 201.751 241.338C201.898 240.879 201.946 240.622 201.991 240.461C202.034 240.312 202.105 240.13 202.282 239.526C202.39 239.158 202.505 238.92 202.568 238.821C203.044 238.079 202.312 240.116 202.266 240.294C202.22 240.472 202.175 240.631 202.1 240.797C202.037 240.94 201.946 241.077 201.787 241.22C201.75 241.253 201.695 241.226 201.661 241.204C201.531 241.118 201.501 240.919 201.449 240.559C201.393 240.168 201.477 239.619 201.506 239.29C201.521 239.111 201.603 238.862 201.677 238.628C201.76 238.366 201.774 238.176 201.849 237.936C201.905 237.754 201.923 237.458 201.952 237.165C201.988 236.794 201.992 236.634 202.026 236.439C202.081 236.123 202.083 235.799 202.1 235.622C202.127 235.343 202.174 234.841 202.203 234.48C202.232 234.121 202.277 233.436 202.306 233.108C202.323 232.918 202.357 232.691 202.374 232.36C202.389 232.073 202.426 231.8 202.443 231.287C202.45 231.08 202.494 230.818 202.551 230.188C202.592 229.739 202.631 229.026 202.648 228.624C202.669 228.156 202.643 227.916 202.688 227.653C202.744 227.33 203.236 227.446 203.402 227.372C203.442 227.354 203.488 227.343 203.534 227.354C203.786 227.416 203.763 227.97 203.842 228.267C203.949 228.666 204.059 229.078 204.174 229.319C204.288 229.56 204.242 229.878 204.294 230.238C204.372 230.781 204.346 231.215 204.277 231.637C204.168 232.31 204.048 232.793 204.043 232.907C204.026 233.242 203.9 233.603 203.843 234.242C203.79 234.834 203.831 235.706 203.848 235.929C203.865 236.149 204.025 236.346 204.094 236.484C204.134 236.563 204.208 236.621 204.276 236.655C204.317 236.676 204.39 236.622 204.442 236.588C204.533 236.527 204.766 236.088 205.109 235.392C205.344 234.913 205.498 234.498 205.743 234.093C205.993 233.681 206.208 233.468 206.321 233.309C206.751 232.709 206.802 232.44 207.013 231.899C207.135 231.586 207.134 231.151 207.122 230.66C207.107 229.992 207.02 229.721 206.894 229.412C206.869 229.35 206.826 229.32 206.786 229.297C206.746 229.274 206.7 229.263 206.654 229.263C206.608 229.262 206.563 229.274 206.517 229.285" stroke="black" stroke-width="4" stroke-linecap="round"/>
<path d="M188.357 251.303C188.48 251.204 188.998 250.416 189.778 249.203C190.547 248.007 190.861 247.112 191.096 246.754C191.611 245.969 191.729 244.76 191.866 243.95C191.967 243.353 192.127 242.97 192.189 242.388C192.326 241.104 192.326 240.416 192.289 239.907C192.249 239.367 192.152 238.436 192.078 237.834C191.987 237.096 192.052 235.9 192.065 234.922C192.072 234.408 191.954 233.916 191.917 233.222C191.895 232.819 191.805 232.477 191.768 231.499C191.76 231.285 191.731 231.212 191.718 231.235C191.494 231.652 191.978 232.3 192.065 232.93C192.322 234.788 191.905 235.398 191.842 236.194C191.77 237.107 191.829 238.502 191.867 238.923C191.883 239.1 191.929 239.811 191.917 240.816C191.903 241.946 191.805 243.339 191.706 243.637C191.599 243.957 191.557 244.503 191.421 244.914C191.303 245.272 191.21 245.571 191.049 245.869C190.893 246.158 190.764 246.464 190.677 246.811C190.543 247.343 190.491 247.655 190.354 247.953C190.208 248.272 189.921 248.548 189.709 248.846C189.661 248.914 189.647 248.994 189.672 248.909C189.883 248.167 190.216 247.585 190.428 247.211C190.589 246.926 190.762 246.419 190.899 246.02C191.013 245.688 191.234 245.425 191.407 245.065C191.588 244.69 192.198 243.892 192.573 243.057C192.852 242.437 192.945 241.755 193.107 241.32C193.263 240.899 193.416 240.244 193.677 239.56C194.171 238.262 194.656 237.315 195.077 236.486C195.675 235.309 196.293 234.117 196.603 233.398C196.937 232.622 197.187 231.758 197.508 231.077C197.627 230.825 197.878 230.546 197.93 230.395C197.983 230.243 197.86 230.243 197.748 230.231C196.825 230.13 195.379 230.217 194.994 230.317C194.831 230.359 194.536 230.392 194.164 230.355C193.703 230.309 193.37 229.872 193.108 229.55C192.966 229.375 193.44 229.004 194.143 228.351C194.617 227.91 195.264 227.181 195.643 226.753C196.021 226.325 196.095 226.202 197.078 225.046C198.062 223.89 199.953 221.704 201.111 220.431C202.583 218.812 203.066 218.486 203.079 218.534C203.112 218.656 202.92 218.975 202.476 219.692C202.032 220.409 201.271 221.514 200.842 222.157C200.322 222.936 200.092 223.344 199.672 223.987C198.617 225.6 198.306 226.345 198.007 226.929C197.642 227.641 197.585 228.207 197.498 228.604C197.403 229.044 197.04 229.348 196.779 229.708C196.562 230.008 196.296 230.34 196.159 230.787C195.992 231.331 195.849 232.073 195.651 232.956C195.476 233.733 195.154 234.384 195.153 234.423C195.152 234.52 195.349 234.044 196.002 233.119C196.655 232.193 197.809 230.646 198.441 229.788C199.157 228.814 199.394 228.459 199.74 228.038C200.063 227.646 200.337 227.367 200.842 226.8C202.834 224.562 203.24 224.389 203.339 224.364C203.373 224.355 203.34 224.486 202.947 225.101C202.553 225.717 201.792 226.846 201.339 227.502C200.776 228.315 200.488 228.727 199.884 229.713C199.441 230.438 198.667 231.584 198.238 232.277C197.488 233.487 197.041 234.306 196.717 234.843C196.476 235.243 196.247 235.872 196.097 236.22C195.925 236.618 195.947 237.086 195.873 237.546C195.78 238.126 195.774 238.651 195.786 238.738C195.805 238.876 196.145 238.529 196.417 238.233C196.761 237.857 197.701 236.8 198.928 235.523C199.458 234.971 199.888 234.562 200.753 233.919C202.602 232.544 203.165 232.426 203.289 232.389C203.338 232.374 203.364 232.474 202.885 233.04C202.407 233.606 201.424 234.662 200.648 235.623C199.872 236.585 199.332 237.42 198.955 238.022C198.088 239.409 197.858 239.816 197.61 240.201C197.406 240.518 197.14 241.128 196.941 241.738C196.595 242.796 196.025 243.51 195.219 244.403C194.342 245.375 193.965 246.265 193.58 246.601C193.432 246.73 193.196 246.911 193.107 247.072C192.941 247.377 194.083 246.543 194.887 245.937C196.508 244.714 197.482 244.285 197.992 243.974C198.3 243.764 199.165 243.024 200.465 241.799C201.077 241.188 201.593 240.599 202.124 239.917" stroke="black" stroke-width="4" stroke-linecap="round"/>
<path d="M190.18 236.401C190.853 235.672 191.526 234.943 191.956 234.427C192.387 233.911 192.555 233.631 190.679 235.561C188.803 237.492 184.878 241.642 182.659 244.06C179.186 247.845 178.4 248.973 177.973 249.345C177.868 249.437 178.223 248.759 180.414 245.92C182.604 243.081 186.754 237.866 189.172 234.899C192.827 230.414 194.251 229.44 194.937 228.839C195.063 228.729 194.037 229.316 191.589 231.397C189.66 233.037 186.506 236.057 183.766 238.85C181.025 241.643 178.838 244.167 177.627 245.523C176.417 246.879 176.248 246.991 176.638 246.348C177.028 245.705 177.982 244.303 179.23 242.627C180.478 240.952 181.992 239.045 183.585 237.25C186.704 233.735 188.705 232.04 189.353 231.59C189.798 231.28 190.394 230.691 188.665 232.477C186.936 234.263 182.842 238.413 180.284 241.111C177.727 243.81 176.83 244.932 176.199 245.818C174.717 248.181 174.039 249.421 172.85 251.461C172.62 251.863 172.564 252.032 172.336 252.375" stroke="black" stroke-linecap="round"/>
<path d="M184.912 242.009C185.473 241.672 187.332 240.602 189.374 239.382C189.865 239.089 189.174 239.341 187.229 240.466C185.284 241.592 182.087 243.555 180.16 244.791C176.256 247.294 175.057 249.144 174.999 249.175C174.314 249.532 176.073 247.846 178.852 245.15C181.404 242.673 186.509 238.192 189.025 236.048C191.541 233.904 191.373 234.297 188.847 236.602C186.321 238.907 181.442 243.113 178.844 245.336C176.247 247.559 176.078 247.671 176.104 247.448C176.198 246.631 177.65 245.078 179.433 243.324C181.204 241.582 182.186 240.092 183.745 238.53C185.41 236.862 187.685 234.929 188.109 234.703C188.312 234.595 188.477 234.477 186.489 236.298C184.501 238.119 180.351 241.876 178.465 243.671C176.58 245.467 177.085 245.186 177.569 244.958C179.292 244.145 180.657 243.484 182.241 242.187C183.013 241.555 183.984 240.221 185.206 238.968C189.154 234.921 189.894 234.535 190.32 233.854C190.515 233.543 190.576 233.174 190.521 232.919C190.491 232.781 190.129 232.832 188.751 234.262C187.372 235.692 184.905 238.552 183.185 240.334C179.632 244.015 177.836 244.102 176.308 244.809C174.686 245.56 174.209 247.158 173.783 248.038C173.223 249.194 172.68 250.383 172.027 251.606C171.168 253.216 170.753 254.92 169.989 255.742C169.332 256.448 168.601 256.735 167.921 257.075C167.759 257.156 167.582 257.133 167.551 257.049C167.46 256.8 168.533 256.175 169.639 255.495C170.669 254.861 165.881 256.509 165.71 256.454C165.305 256.323 167.283 254.484 169.348 252.389C171.122 250.591 172.275 249.717 173.154 249.036C174.615 247.903 176.123 246.944 178.105 245.78C179.831 244.768 182.405 243.547 184.726 242.132C186.739 240.905 188.188 239.752 189.158 238.923C189.326 238.779 189.497 238.613 189.191 238.947C188.108 240.13 186.674 241.55 185.038 243.185C183.991 244.231 182.618 245.829 181.279 247.17C177.353 251.104 176.418 251.862 175.851 252.57C175.086 253.525 174.039 253.846 172.625 254.553C171.539 255.095 170.586 255.994 169.986 256.312C169.636 256.498 170.804 255.605 172.379 254.621C173.637 253.836 175.749 252.348 177.127 251.456C178.505 250.565 179.066 250.285 180.701 249.215C182.336 248.145 185.027 246.294 187.031 245.005C191.754 241.964 192.838 241.275 193.632 240.821C194.114 240.545 194.596 240.311 194.683 240.14C195.22 239.081 192.171 242.168 188.356 245.703C184.601 249.181 184.181 250.444 182.738 251.717C181.325 252.964 179.651 254.237 178.463 255.537C177.477 256.616 176.816 257.752 176.22 258.319C175.714 258.802 179.562 255.733 183.033 253.739C184.052 253.154 184.626 252.718 185.277 252.32C185.71 252.054 186.1 251.809 186.13 251.696C186.286 251.12 182.502 252.142 178.369 253.161C176.367 253.731 175.064 254.297 173.677 254.948C173.132 255.206 172.907 255.318 172.336 255.604" stroke="black" stroke-width="4" stroke-linecap="round"/>
<path d="M202.241 207.475C202.395 207.599 202.55 207.723 202.676 207.802C202.801 207.881 202.894 207.912 203.083 208.037" stroke="black" stroke-width="4" stroke-linecap="round"/>
<path d="M203.738 208.505C202.742 208.754 202.055 208.88 201.385 208.957C200.623 209.046 199.936 209.067 199.325 209.144C198.349 209.269 197.719 209.067 197.265 208.989C196.816 208.912 196.006 208.88 194.914 208.802C192.045 208.598 191.757 208.91 191.585 208.911C191.213 208.912 191.32 208.164 191.272 205.893C191.254 205.009 191.132 204.388 191.085 203.935C191.04 203.502 190.913 203.077 190.82 202.703C190.727 202.327 190.664 201.831 190.477 200.554C190.232 198.883 190.539 197.5 190.617 196.54C190.658 196.024 190.85 195.403 191.1 194.342C191.204 193.9 191.288 193.56 191.303 193.264C191.401 191.39 191.32 188.471 191.195 188.72C190.872 189.365 190.851 189.842 190.804 190.653C190.759 191.435 190.664 192.37 190.648 193.865C190.635 195.052 190.788 196.614 190.835 197.098C190.864 197.395 190.913 198.294 190.898 199.463C190.891 199.986 190.82 201.625 190.804 204.011C190.793 205.815 190.664 207.629 190.555 208.252C190.41 209.075 190.631 209.69 190.849 209.815C191.389 210.124 192.065 209.941 192.782 209.878C194.468 209.731 195.776 209.784 197.286 209.956C197.951 210.031 199.005 209.941 200.612 209.724C202.219 209.508 204.35 209.106 205.526 208.868C206.862 208.598 207.385 208.505 207.901 208.474C208.007 208.468 207.517 208.225 206.91 208.085C206.466 207.982 205.401 207.944 202.916 207.835C201.298 207.764 198.949 207.88 197.616 207.896C195.626 207.921 194.942 207.788 193.881 207.725C193.788 207.72 194.281 207.476 195.49 207.166C196.416 206.928 197.996 206.609 198.885 206.433C200.321 206.151 201.083 206.165 203.134 205.731C205.264 205.28 206.762 204.667 206.967 204.682C207.596 204.73 205.149 204.884 203.224 205.118C201.952 205.272 200.063 205.32 198.984 205.337C197.275 205.364 196.472 205.073 195.193 205.057C194.223 205.044 193.067 205.104 193.004 204.996C192.602 204.305 194.965 204.481 196.501 204.093C197.552 203.828 199.119 203.304 200.472 202.941C202.888 202.293 204.143 202.139 204.484 202.109C205.017 202.06 205.422 201.921 205.532 201.828C205.581 201.786 205.487 201.673 205.347 201.61C205.011 201.458 203.872 201.515 201.712 201.67C200.444 201.761 198.84 202.01 197.395 202.122C194.72 202.328 193.286 202.202 192.991 202.155C192.85 202.133 192.726 202.139 192.616 202.124C192.506 202.109 192.413 202.078 192.473 201.984C192.675 201.673 194.178 201.145 196.482 200.397C198.496 199.744 199.835 199.613 200.426 199.457C201.317 199.222 202.018 199.176 203.39 198.755C203.673 198.669 203.798 198.676 203.846 198.629C203.895 198.583 203.864 198.49 203.74 198.396C202.82 197.699 200.997 198.176 200.215 198.239C198.893 198.345 196.729 198.582 195.69 198.504C194.844 198.441 193.849 198.208 193.334 198.13C193.134 198.1 192.823 198.114 192.787 198.068C192.752 198.021 192.999 197.929 194.038 197.634C195.076 197.339 196.899 196.845 198.039 196.513C199.59 196.061 200.797 195.435 202.184 194.656C202.776 194.324 203.107 194.063 203.329 193.92C203.63 193.725 202.225 194.209 199.452 195.05C197.271 195.712 195.94 195.774 195.395 195.758C194.64 195.737 194.036 195.338 193.691 195.104C193.621 195.057 193.69 194.933 193.798 194.839C194.062 194.611 194.716 194.402 196.113 193.967C197.071 193.669 198.56 193.286 199.493 193.001C201.45 192.406 202.269 191.812 202.692 191.624C203.088 191.448 203.176 191 203.254 190.86C203.58 190.278 201.587 190.999 200.746 191.124C199.614 191.291 198.593 191.84 197.812 192.122C197.309 192.303 196.813 192.372 195.521 192.435C194.646 192.477 194.378 192.622 194.299 192.591C193.75 192.379 195.092 191.688 196.493 190.769C197.809 189.905 198.897 189.629 199.85 189.082C200.535 188.689 201.115 188.287 201.863 187.741C202.606 187.198 203.236 186.944 203.658 186.772C204.169 186.565 201.873 187.438 199.643 188.033C198.521 188.333 197.135 188.47 195.707 188.721C195.224 188.806 194.723 188.908 194.192 189.018C193.737 189.112 193.348 189.095 193.161 189.158C192.975 189.221 192.817 188.941 192.724 188.754C192.639 188.585 192.692 188.317 192.754 188.037C192.951 187.144 194.748 186.821 195.544 186.336C195.851 186.149 196.123 185.945 197.145 185.45C198.005 185.032 199.587 184.336 200.445 183.955C201.396 183.542 201.677 183.418 201.989 183.231C202.115 183.137 202.177 183.044 202.334 182.855" stroke="black" stroke-width="4" stroke-linecap="round"/>
<path d="M179.176 194.861C179.15 194.759 179.124 194.656 179.111 195.514C179.098 196.372 179.098 198.194 179.111 199.184C179.125 200.277 179.176 201.305 179.163 202.756C179.155 203.648 179.047 204.318 179.033 205.16C179.027 205.512 179.098 206.593 179.111 208.044C179.176 208.882 179.201 209.167 179.24 209.451C179.253 209.657 179.253 209.991 179.253 210.334" stroke="black" stroke-width="4" stroke-linecap="round"/>
<path d="M181.119 209.557C182.3 209.326 183.48 209.095 184.884 208.86C186.287 208.626 187.878 208.395 188.774 208.276C190.571 208.038 191.951 207.846 192.185 207.846C192.494 207.846 190.794 207.924 189.023 208.014C188.007 208.066 186.184 208.104 184.938 208.079C182.298 208.027 181.796 207.537 181.432 207.315C181.357 207.27 181.277 207.251 182.828 206.75C184.379 206.249 187.561 205.274 189.123 204.72C190.685 204.167 190.531 204.064 190.349 203.973C189.972 203.783 188.826 203.623 187.234 203.467C186.567 203.402 186.181 203.414 185.521 203.465C183.935 203.589 182.601 203.725 181.953 203.7C181.149 203.668 180.654 203.026 180.627 202.858C180.58 202.562 181.273 202.508 182.2 202.186C182.906 201.941 184.051 201.428 185.21 201.01C186.369 200.592 187.498 200.259 188.157 200.049C189.264 199.695 189.798 199.243 190.357 198.841C190.478 198.754 190.577 198.673 190.63 198.595C190.683 198.516 190.683 198.439 190.581 198.349C189.97 197.807 188.977 197.765 187.476 197.892C186.361 197.988 185.656 198.437 185.193 198.656C183.71 199.357 183.093 199.345 182.327 199.345C181.747 199.346 181.354 199.035 181.158 198.815C180.671 198.267 182.826 198.077 183.948 197.317C184.712 196.8 185.763 195.864 186.395 195.312C187.662 194.205 188.375 193.619 188.557 193.114C188.782 192.49 188.377 192.09 188.106 191.701C187.972 191.509 187.704 191.492 187.471 191.453C187.191 191.406 186.516 191.594 185.584 191.904C184.151 192.381 183.248 193.508 182.858 194.018C182.247 194.813 181.432 194.86 181.275 195.184C181.106 195.535 181.119 196.076 180.939 196.519C180.525 197.114 180.187 197.814 180.071 198.382C180.031 198.719 180.031 199.155 180.109 199.76" stroke="black" stroke-width="4" stroke-linecap="round"/>
<path d="M171.598 199.648C171.556 200.072 171.47 202.45 171.576 203.812C171.648 204.731 171.726 205.415 171.833 206.332C171.949 207.335 171.983 208.105 172.11 208.749C172.163 209.013 172.239 209.262 172.197 209.518C172.15 209.8 171.856 209.989 171.6 210.096C171.479 210.147 171.344 210.077 171.279 209.737C170.931 207.931 171.342 207.13 171.554 205.894C171.875 204.034 171.726 203.243 171.833 202.45C171.938 201.663 172.067 200.976 172.132 200.249C172.174 199.779 172.239 199.35 172.345 199.051C172.734 197.951 175.437 198.666 176.403 198.558C177.771 198.407 179.115 197.599 179.418 197.468C181.625 196.516 176.052 200.066 175.19 201.055C175.049 201.217 174.934 201.396 174.805 201.547C174.676 201.698 174.55 201.825 174.632 201.594C175.226 199.937 175.698 199.055 175.893 198.239C176.07 197.499 175.488 199.645 175.317 200.584C175.263 200.882 175.232 201.222 175.21 202.645C175.188 204.067 175.188 206.564 175.252 207.85C175.315 209.136 175.442 209.136 175.677 209.093C176.961 208.862 178.132 208.241 178.756 208.046C179.309 207.873 177.37 208.451 176.325 208.622C175.272 208.794 173.655 209.092 172.883 209.242C172.547 209.307 172.24 209.306 171.985 209.455C171.333 209.833 171.385 210.841 171.235 211.463C171.2 211.61 171.213 211.782 171.086 211.869C170.96 211.956 170.706 211.956 170.575 211.893C169.866 211.549 169.89 209.951 169.782 209.394C169.642 208.674 169.759 207.728 169.909 207.214C170.055 206.718 170.144 206.105 170.209 205.42C170.27 204.772 170.401 204.012 170.465 202.581C170.486 202.257 170.529 202.045 170.551 201.429C170.572 200.812 170.572 199.796 170.572 198.75" stroke="black" stroke-width="4" stroke-linecap="round"/>
<path d="M197.859 211.833C198.019 211.833 200.21 212.191 203.546 212.794C206.14 213.262 207.627 214.846 208.151 215.17C208.697 215.508 207.953 213.727 207.651 213.161C207.4 212.693 207.029 212.277 206.546 211.855C206.075 211.443 205.381 211.271 204.657 211.01C204.494 210.951 204.375 210.909 204.413 210.988C204.944 212.092 206.218 213.794 206.543 214.725C206.652 215.038 206.625 215.369 206.525 215.67C206.256 216.478 204.978 216.858 204.195 217.259C203.598 217.564 203.251 218.542 202.886 219.249C202.673 219.662 203.2 217.765 204.205 214.429C204.775 212.799 205.134 212.158 205.676 211.436C205.939 211.111 206.177 210.873 206.423 210.506" stroke="black" stroke-width="4" stroke-linecap="round"/>
<path d="M189.898 187.95C189.42 188.547 187.896 190.476 186.826 191.245C186.643 191.327 186.523 191.327 186.402 191.347C186.281 191.367 186.162 191.407 186.039 191.448" stroke="black" stroke-width="4" stroke-linecap="round"/>
</svg>
