<svg width="427" height="442" viewBox="0 0 427 442" fill="none" xmlns="http://www.w3.org/2000/svg">
<path d="M323.026 144.168H112.107C97.173 144.168 85.0664 158.159 85.0664 175.418V237.918C85.0664 255.177 97.173 269.168 112.107 269.168H323.026C337.96 269.168 350.066 255.177 350.066 237.918V175.418C350.066 158.159 337.96 144.168 323.026 144.168Z" stroke="black" stroke-width="10" stroke-linecap="round" stroke-linejoin="round"/>
<rect x="100" y="157" width="117.5" height="100" rx="20" fill="black"/>
<path d="M351 177V177C358.732 177 365 183.268 365 191V225C365 232.732 358.732 239 351 239V239V177Z" fill="black"/>
<path d="M233.954 189.49L231.498 192.034L235.034 192.031L289.127 191.995L132.9 290.363L209.422 214.958L212.031 212.387L208.368 212.389L154.049 212.43L296.653 124.523L233.954 189.49Z" fill="white" stroke="black" stroke-width="3"/>
<path d="M187.5 257.5H167.5" stroke="black"/>
<path d="M240.5 184C241.284 175.183 240.076 170.836 234 164.5" stroke="black"/>
<path d="M240.5 192V224" stroke="black"/>
<path d="M243.582 207.111C243.327 206.969 243.167 206.854 243.117 206.761C242.983 206.512 243.095 206.026 243.224 205.432C243.282 204.994 243.296 204.751 243.324 204.665C243.339 204.622 243.353 204.579 243.367 204.535" stroke="black" stroke-width="2" stroke-linecap="round"/>
<path d="M244.226 195.521C244.17 195.564 243.97 195.508 243.755 195.436C243.544 195.365 243.411 195.35 243.333 195.328C243.154 195.28 243.139 195.007 243.046 194.899C242.873 194.699 243.124 195.562 243.196 195.821C243.21 195.864 243.224 195.907 243.232 195.985C243.239 196.064 243.239 196.177 243.239 196.294" stroke="black" stroke-width="5" stroke-linecap="round"/>
<path d="M244.526 199.084C244.866 199.027 245.206 198.971 246.961 198.552C248.715 198.133 251.874 197.354 253.771 196.932C255.667 196.509 256.205 196.467 256.582 196.452C256.958 196.437 257.156 196.451 257.485 196.522C257.814 196.593 258.267 196.721 258.685 196.864C259.48 197.138 259.907 197.338 260.064 197.388C260.553 197.544 260.865 197.582 261.286 197.617C261.993 197.677 262.253 197.582 262.361 197.575C262.384 197.573 262.341 197.553 261.802 197.525C261.263 197.496 260.229 197.454 258.775 197.503C257.322 197.552 255.481 197.693 254.489 197.759C253.498 197.825 253.413 197.811 253.348 197.797C253.283 197.782 253.241 197.768 253.283 197.74C253.325 197.711 253.452 197.668 254.828 197.597C256.204 197.526 258.824 197.426 260.514 197.425C262.204 197.423 262.884 197.523 263.277 197.595C263.76 197.684 263.899 197.768 263.963 197.803C263.984 197.814 263.929 197.853 263.865 197.889C263.8 197.925 263.715 197.967 260.966 198.903C258.217 199.838 252.806 201.666 249.678 202.77C246.551 203.874 245.871 204.2 245.492 204.389C245.114 204.578 245.057 204.62 245.07 204.642C245.084 204.664 245.169 204.664 246.905 204.069C248.642 203.474 252.027 202.285 254.125 201.495C256.223 200.705 256.931 200.35 257.431 200.111C258.193 199.746 258.59 199.614 258.783 199.571C258.862 199.553 258.905 199.556 258.899 199.599C258.892 199.641 258.836 199.726 257.737 200.634C256.638 201.542 254.499 203.27 253.355 204.224C252.097 205.273 252.01 205.536 251.967 205.708C251.939 205.82 251.966 205.909 252.009 205.994C252.032 206.041 252.08 206.08 252.159 206.102C252.345 206.154 252.538 206.095 253.332 205.635C254.062 205.212 255.43 204.366 256.598 203.73C257.766 203.095 258.687 202.684 259.268 202.458C260.044 202.156 260.365 202.175 260.408 202.238C260.451 202.301 260.197 202.43 258.537 203.395C256.877 204.36 253.733 206.159 252.084 207.107C250.436 208.055 250.38 208.097 251.625 207.56C252.871 207.022 255.421 205.903 257.152 205.227C258.883 204.552 259.719 204.354 260.22 204.251C260.722 204.149 260.863 204.149 260.887 204.199C261.183 204.827 259.594 205.179 259.308 205.421C259.077 205.617 258.722 206.035 258.266 206.606C257.592 207.449 257.348 207.639 257.168 207.854C256.938 208.13 256.718 208.284 256.525 208.412C256.193 208.634 255.817 208.884 255.559 209.056C255.433 209.14 255.245 209.313 254.86 209.549C253.878 210.149 253.471 210.343 253.177 210.523C252.728 210.796 252.141 211.272 251.767 211.546C251.373 211.835 251.095 212.161 250.909 212.354C250.68 212.592 250.437 212.804 250.129 213.055C249.89 213.249 249.564 213.435 249.363 213.563C249.081 213.744 248.82 214.006 248.598 214.143C248.366 214.285 248.09 214.422 247.889 214.579C247.635 214.779 247.389 215.137 247.096 215.451C246.878 215.686 246.659 215.952 246.145 216.466C245.933 216.679 245.729 216.783 245.557 216.89C245.472 216.926 245.385 216.969 245.3 217.026C245.257 217.055 245.214 217.083 245.127 217.112" stroke="black" stroke-width="5" stroke-linecap="round"/>
<path d="M258.047 209.515C258.061 209.43 258.488 208.945 259.224 208.274C259.555 207.971 260.054 207.436 260.374 207.124C261.062 206.45 261.552 206.025 261.852 205.746C262.271 205.356 262.439 205.18 262.682 204.994C262.834 204.877 262.954 204.765 263.26 204.552C263.969 204.057 264.471 203.634 264.642 203.521C264.879 203.363 265.185 203.064 265.493 202.763C265.664 202.596 266.184 202.093 266.935 201.336C267.522 200.743 267.862 200.687 268.055 200.587C268.107 200.56 268.162 200.53 268.737 200.338C269.311 200.146 270.402 199.792 270.992 199.596C271.642 199.379 271.896 199.285 272.26 199.171C272.962 198.951 273.513 198.37 273.728 198.183C273.962 197.98 274.271 197.783 274.786 197.525C275.067 197.384 275.287 197.353 275.524 197.267C275.813 197.162 276.117 197.025 276.461 196.888C276.78 196.762 276.976 196.667 277.155 196.559C277.353 196.44 277.577 196.437 277.756 196.337C277.963 196.222 278.135 196.165 278.392 196.087C278.69 195.996 279.007 195.922 279.208 195.858C279.395 195.798 279.58 195.623 279.773 195.479C279.964 195.337 280.152 195.25 280.331 195.164C280.58 195.044 280.796 194.907 281.004 194.835C281.182 194.773 281.354 194.72 281.526 194.656C281.709 194.587 281.869 194.506 282.084 194.363C282.306 194.215 282.499 194.091 282.614 194.012C282.706 193.949 282.315 194.019 282.143 194.033C281.913 194.052 281.232 194.119 280.345 194.148C279.667 194.169 279.154 194.219 278.817 194.241C278.652 194.251 278.126 194.277 277.397 194.284C276.79 194.29 276.478 194.348 276.198 194.37C275.943 194.389 275.323 194.533 274.397 194.584C274.145 194.598 273.902 194.62 273.609 194.627C273.358 194.633 272.704 194.663 271.846 194.656C271.441 194.652 271.212 194.62 270.969 194.627C270.81 194.632 270.512 194.705 269.552 194.763C268.834 194.806 267.643 194.763 267.009 194.749C266.175 194.73 265.86 194.677 264.905 194.67C264.559 194.667 263.947 194.706 263.147 194.72C262.593 194.73 262.313 194.82 261.477 194.828C260.867 194.833 260.296 194.82 259.745 194.842C259.494 194.852 258.84 194.878 257.953 194.856C257.204 194.838 256.904 194.592 256.568 194.47C256.465 194.433 256.333 194.448 256.289 194.477C256.244 194.505 256.287 194.562 256.401 194.626C256.515 194.691 256.699 194.762 256.992 194.834C257.285 194.905 257.682 194.976 259.274 195.098C260.867 195.219 263.643 195.389 265.413 195.548C267.183 195.706 267.863 195.848 268.731 195.942C269.598 196.036 270.632 196.079 271.207 196.115C271.869 196.156 271.997 196.208 272.047 196.251C272.08 196.279 272.027 196.378 271.991 196.436C271.93 196.535 271.586 196.679 271.001 196.929C270.701 197.057 270.387 197.165 269.504 197.407C268.621 197.65 267.176 198.018 266.064 198.378C264.951 198.737 264.215 199.077 263.679 199.344C262.821 199.773 262.455 200.028 262.291 200.128C261.766 200.448 261.07 200.656 260.603 201.05C260.231 201.364 260.137 201.915 259.908 202.359C259.866 202.442 259.808 202.432 259.765 202.39C259.656 202.282 259.48 201.976 259.031 201.513C258.757 201.229 258.313 200.922 258.017 200.676C257.551 200.29 257.191 199.817 256.727 199.062C256.454 198.617 256.193 197.995 255.976 197.582C255.43 196.542 254.858 196.209 254.579 196.073C254.33 195.951 254.185 195.709 253.963 195.13C253.917 195.01 253.927 194.964 253.905 194.942C253.858 194.894 253.67 194.949 253.413 194.999C253.159 195.048 252.43 195.049 251.359 195.021C250.14 194.989 249.78 194.778 249.499 194.742C249.248 194.709 248.991 194.677 248.57 194.656C248.433 194.635 248.333 194.606 248.084 194.584C247.892 194.577 247.566 194.577 247.23 194.577" stroke="black" stroke-width="5" stroke-linecap="round"/>
<path d="M243.067 196.036C243.067 196.522 243.096 196.722 243.117 196.93C243.139 197.139 243.21 197.395 243.275 197.581C243.336 197.758 243.353 198.024 243.41 198.232C243.471 198.453 243.582 198.824 243.668 199.155C243.741 199.434 243.739 199.87 243.79 200.106C243.806 200.183 243.797 200.298 243.797 200.151C243.797 199.071 243.726 198.785 243.704 198.662C243.67 198.47 243.64 199.083 243.618 199.255C243.596 199.433 243.511 199.598 243.454 199.77C243.425 199.856 243.397 199.956 243.375 200.063C243.365 200.113 243.368 200.156 243.403 200.065C243.648 199.432 243.625 199.114 243.604 198.978C243.58 198.826 243.283 199.098 243.111 199.205C243.07 199.231 243.025 199.241 242.989 199.291C242.827 199.515 242.967 199.812 243.06 200.071C243.136 200.282 243.181 200.457 243.232 200.806C243.363 201.721 243.282 202.242 243.246 202.738C243.217 203.146 243.139 203.574 243.103 203.969C243.078 204.238 243.024 204.434 242.982 204.699C242.896 205.228 242.967 206.065 242.967 206.7C242.968 207.342 242.867 207.711 242.846 207.926C242.812 208.254 242.781 208.769 242.774 209.213C242.77 209.434 242.853 209.77 242.81 210.029C242.778 210.221 242.724 210.444 242.688 210.644C242.666 210.771 242.667 210.902 242.638 211.03C242.604 211.186 242.595 211.912 242.588 212.899C242.582 213.789 242.581 214.793 242.602 215.001C242.609 215.051 242.623 215.094 242.631 215.151C242.638 215.209 242.638 215.279 242.638 215.352" stroke="black" stroke-width="5" stroke-linecap="round"/>
<path d="M245.9 201.445C245.886 201.899 245.886 202.874 245.907 203.403C245.926 203.863 245.972 204.176 246.15 204.926C246.291 205.521 246.315 205.779 246.337 206.058C246.356 206.31 246.401 206.737 246.422 207.053C246.451 207.468 246.487 207.754 246.487 208.011C246.488 208.735 246.202 209.212 245.937 209.627C245.639 210.096 245.558 210.343 245.464 210.594C245.251 211.166 245.329 212.174 245.335 212.376C245.338 212.496 245.797 211.979 246.262 211.521C246.441 211.344 246.514 211.29 247.138 210.694C247.763 210.098 248.938 208.965 249.629 208.325C250.652 207.376 250.879 207.369 251.022 207.276C251.086 207.234 251.108 207.169 251.108 207.105C251.111 206.715 250.453 206.24 249.88 205.875C249.21 205.446 248.608 205.609 248.098 205.644C247.99 205.652 247.891 205.652 247.861 205.659C247.831 205.666 247.874 205.68 247.918 205.694" stroke="black" stroke-width="5" stroke-linecap="round"/>
<path d="M244.32 217.949C244.298 217.949 244.236 217.954 244.199 217.959C244.134 217.967 244.103 217.966 244.083 217.956C244.055 217.942 244.037 217.941 244.016 217.934C243.988 217.924 243.942 217.9 243.919 217.887C243.902 217.877 243.887 217.863 243.871 217.851C243.854 217.837 243.827 217.818 243.804 217.804C243.784 217.792 243.77 217.783 243.743 217.776C243.701 217.766 243.681 217.759 243.663 217.754C243.645 217.748 243.624 217.741 243.604 217.736C243.576 217.73 243.563 217.714 243.547 217.7C243.529 217.684 243.494 217.668 243.472 217.655C243.45 217.642 243.435 217.628 243.42 217.62C243.409 217.615 243.427 217.648 243.43 217.67C243.437 217.71 243.426 217.789 243.429 217.831C243.431 217.854 243.434 217.883 243.437 217.916C243.445 218.005 243.441 218.036 243.445 218.066C243.447 218.092 243.449 218.183 243.446 218.239C243.444 218.267 243.436 218.295 243.424 218.325C243.408 218.365 243.388 218.396 243.382 218.413C243.364 218.467 243.341 218.536 243.336 218.555C243.331 218.57 243.308 218.619 243.29 218.658C243.278 218.684 243.267 218.708 243.256 218.738C243.236 218.792 243.214 218.833 243.201 218.859C243.171 218.928 243.165 218.949 243.154 218.98C243.152 218.989 243.152 218.999 243.152 219.008" stroke="black" stroke-width="5" stroke-linecap="round"/>
<path d="M243.234 219.496C243.227 219.495 243.206 219.495 243.184 219.505C243.164 219.512 243.147 219.518 243.134 219.525C243.126 219.53 243.116 219.536 243.098 219.543" stroke="black" stroke-width="5" stroke-linecap="round"/>
<path d="M286.689 132.04C286.713 132.04 286.736 132.04 286.725 132.075C286.636 132.349 286.263 132.491 286.036 132.74C285.821 132.977 285.621 133.204 285.335 133.394C285.049 133.585 284.718 133.775 284.349 133.953C284.047 134.099 283.766 134.345 283.469 134.618C283.121 134.937 282.886 135.224 282.696 135.593C282.534 135.907 282.222 136.175 281.959 136.461C281.64 136.808 281.27 137.008 280.984 137.174C280.688 137.347 280.414 137.555 280.105 137.78C279.663 138.103 279.44 138.505 279.071 138.814C278.767 139.07 278.489 139.313 278.191 139.481C277.797 139.702 277.255 140.168 276.729 140.585C276.417 140.833 276.135 141.025 275.849 141.181C275.564 141.336 275.279 141.43 274.994 141.537C274.678 141.655 274.376 141.858 274.066 141.953C273.771 142.044 273.308 142.309 272.925 142.523C272.776 142.607 272.663 142.737 272.58 142.88C272.54 142.949 272.52 143.022 272.591 143.047C273.11 143.229 273.659 142.787 273.993 142.726C274.137 142.7 274.279 142.643 274.362 142.655C274.704 142.702 273.853 143.236 273.567 143.391C273.271 143.552 272.997 143.807 272.723 144.033C272.435 144.271 272.259 144.662 271.998 144.877C271.711 145.113 271.287 145.588 270.928 145.887C270.637 146.131 270.311 146.374 269.741 146.801C268.892 147.438 268.693 147.872 268.444 148.157C268.204 148.432 267.886 148.822 267.506 149.167C266.826 149.784 265.895 150.695 265.07 151.602C263.886 152.905 263.393 153.268 262.941 153.661C262.414 154.118 261.919 154.811 261.55 155.337C261.265 155.741 260.825 156.335 260.563 156.645C260.258 157.005 259.827 157.239 259.529 157.441C259.22 157.651 259.018 158.071 258.78 158.392C258.447 158.84 258.328 159.141 258.102 159.485C257.905 159.787 257.71 160.115 257.389 160.602C257.314 160.717 257.235 160.781 257.246 160.782C257.371 160.795 257.989 159.934 258.927 158.734C259.825 157.586 260.228 157.36 260.632 157.075C261.03 156.793 261.369 156.315 261.796 155.981C262.249 155.628 262.557 155.363 262.95 155.078C263.338 154.795 263.58 154.744 263.652 154.673C263.889 154.438 262.751 155.004 261.591 155.679C261.023 156.009 260.222 156.657 259.55 157.243C258.879 157.829 258.385 158.37 258.001 158.896C257.289 159.87 256.903 160.708 256.57 161.195C256.191 161.751 255.927 162.065 255.642 162.433C255.265 162.92 254.953 163.23 254.277 164.07C253.589 164.926 252.792 165.843 252.044 166.448C251.359 167.003 251.007 167.365 250.318 168.256C249.871 168.834 249.532 169.387 249.14 169.756C248.87 170.01 248.558 170.267 248.307 170.552C248.035 170.862 247.796 171.194 247.547 171.539C247.336 171.83 247.154 172.121 247.094 172.407C247.033 172.698 246.916 172.977 246.798 173.274C246.642 173.664 246.37 173.904 246.156 174.201C245.885 174.578 245.61 174.784 245.289 175.14C244.865 175.61 244.73 175.901 244.575 176.198C244.365 176.601 243.969 176.71 243.814 176.971C243.648 177.25 243.517 177.541 243.279 177.827C243.224 177.893 243.208 177.969 243.172 177.959C243.044 177.92 243.041 177.521 243.064 177.2C243.071 177.111 243.135 177.185 243.159 177.268C243.256 177.6 242.994 177.898 242.91 178.089C242.777 178.394 243.016 177.426 243.052 176.998C243.087 176.591 243.159 176.118 243.243 175.762C243.406 175.064 243.444 174.526 243.516 174.192C243.578 173.904 243.35 173.622 243.184 173.336C242.995 173.011 242.733 172.694 242.519 172.397C242.455 172.308 242.353 172.219 242.328 172.241C241.969 172.559 243.014 173.543 243.325 174.106C243.372 174.191 243.42 174.261 243.409 174.309C243.385 174.415 243.208 174.475 243.101 174.547C242.815 174.739 242.78 173.907 242.744 173.503C242.715 173.183 242.566 172.908 242.459 172.623C242.337 172.299 242.209 171.887 242.173 171.553C242.141 171.257 241.995 170.983 241.9 170.697C241.805 170.411 241.663 170.127 241.236 169.664C240.973 169.379 240.831 169.057 240.676 168.771C240.515 168.476 240.355 168.201 240.2 167.916C240.051 167.639 239.88 167.345 239.572 166.954C238.869 166.06 238.549 165.895 238.287 165.598C237.859 165.134 237.622 164.849 237.348 164.623C237.288 164.563 237.241 164.492 237.192 164.348" stroke="black" stroke-width="5" stroke-linecap="round"/>
<path d="M238.69 163.065C239.185 162.899 240.187 162.661 240.685 162.436C241.541 162.049 242.634 161.379 243.229 161.069C243.683 160.832 244.061 160.641 244.715 160.356C245.242 160.125 245.701 159.762 246.047 159.582C246.205 159.5 246.463 159.476 246.712 159.321C246.88 159.217 247.952 158.672 249.521 157.793C250.668 157.15 251.477 156.506 251.895 156.219C252.343 155.911 253.47 155.153 254.705 154.275C255.519 153.696 256.277 152.965 257.145 152.335C257.871 151.808 258.563 151.322 258.814 151.012C259.094 150.666 259.679 150.064 260.157 149.646C260.543 149.307 260.87 149.016 261.392 148.695C261.706 148.502 262.011 148.35 262.368 148.088C262.736 147.818 263.056 147.565 263.449 147.316C263.984 147.019 264.531 146.638 264.933 146.342C265.171 146.141 265.477 145.835 265.792 145.52" stroke="black" stroke-width="5" stroke-linecap="round"/>
<path d="M268.502 143.808C268.62 143.737 268.737 143.667 268.833 143.607C268.929 143.547 269 143.5 269.144 143.38" stroke="black" stroke-width="5" stroke-linecap="round"/>
<path d="M242.542 165.561C242.589 165.514 242.895 165.231 243.664 164.65C245.451 163.302 245.986 163.304 246.439 163.018C246.745 162.824 247.105 162.685 247.39 162.554C247.54 162.485 247.723 162.305 248.195 161.997C249.071 161.427 250.169 160.999 250.881 160.536C251.506 160.13 252.283 159.787 253.13 159.215C253.71 158.824 254.375 158.101 255.411 157.515C256.369 156.974 256.876 156.908 257.161 156.73C257.303 156.67 257.659 156.505 258.122 156.267C258.303 156.171 258.373 156.124 258.446 156.075" stroke="black" stroke-width="5" stroke-linecap="round"/>
<path d="M259.516 155.505L259.801 155.433" stroke="black" stroke-width="5" stroke-linecap="round"/>
<path d="M243.184 170.553C243.513 170.224 243.843 169.894 244.354 169.266C244.865 168.637 245.547 167.719 245.969 167.117C246.869 165.834 247.318 165.183 248.121 164.414C248.697 163.864 249.678 163.057 250.634 162.327C251.59 161.597 252.508 160.985 253.028 160.634C253.548 160.284 253.642 160.213 253.739 160.069" stroke="black" stroke-width="5" stroke-linecap="round"/>
<path d="M176.11 260.609C175.95 260.564 175.356 260.358 174.688 260.236C174.411 260.186 174.251 260.161 173.782 260.075C173.215 259.972 173.045 260.092 172.907 260.121C172.748 260.154 172.563 260.196 172.312 260.224C171.558 260.31 171.301 260.173 171.025 260.201C170.609 260.244 170.313 260.242 170.141 260.224C169.809 260.191 169.395 260.173 168.673 260.156C168.453 260.15 168.338 260.127 168.263 260.144C168.213 260.155 168.303 260.264 168.292 260.333C168.248 260.6 167.776 260.745 167.409 261.198C167.139 261.532 167.006 261.78 166.869 262.007C166.751 262.205 166.506 262.554 166.258 262.849C166.01 263.144 165.76 263.371 165.403 263.727C165.047 264.083 164.593 264.56 164.33 264.829C163.919 265.249 163.643 265.407 163.327 265.591C163.138 265.701 163.034 265.844 162.994 265.913C162.974 265.946 162.965 265.981 163.01 265.976C163.165 265.958 163.445 265.844 164.164 265.651C164.705 265.505 165.587 265.207 166.078 265.055C166.634 264.883 166.832 264.834 167.198 264.663C168.225 264.182 168.348 264.019 168.555 263.927C168.705 263.86 168.899 263.824 169.255 263.624C169.5 263.485 169.703 263.41 169.858 263.353C170.123 263.255 170.687 262.942 171.012 262.75C171.139 262.676 171.253 262.561 171.419 262.458C171.573 262.378 171.735 262.286 171.924 262.171C172.044 262.102 172.215 262.011 172.459 261.883" stroke="black" stroke-width="5" stroke-linecap="round"/>
<path d="M178.59 260.127C178.499 260.184 178.247 260.298 178.074 260.368C177.817 260.471 177.385 260.38 176.961 260.362C176.833 260.357 176.754 260.333 176.702 260.322C176.586 260.297 176.982 260.185 177.183 260.133C177.378 260.082 177.522 260.07 177.774 260.052C177.993 260.037 178.245 260.001 178.388 259.949C178.56 259.887 178.693 259.829 178.831 259.805C178.983 259.78 179.106 259.713 179.25 259.685C179.414 259.652 179.565 259.645 179.646 259.662C179.874 259.71 179.279 259.84 179.142 259.863C178.989 259.888 178.866 259.977 178.728 260.023C178.59 260.069 178.453 260.115 178.315 260.161C178.177 260.207 178.04 260.253 177.896 260.299C177.721 260.355 177.557 260.413 177.414 260.477C177.247 260.55 177.087 260.643 176.84 260.775C176.62 260.893 176.455 260.976 175.946 261.199C175.769 261.277 175.563 261.354 175.157 261.486C174.75 261.617 174.148 261.799 173.633 262.007C172.685 262.388 172.23 262.698 172.116 262.755C171.893 262.867 171.544 263.076 171.072 263.272C170.625 263.457 170.428 263.639 169.908 263.954C169.36 264.285 168.89 264.466 168.695 264.603C168.591 264.672 168.478 264.741 168.379 264.799C168.281 264.856 168.202 264.902 168.12 264.949" stroke="black" stroke-width="5" stroke-linecap="round"/>
<path d="M163.091 270.184C163.159 270.116 163.558 269.739 164.166 269.2C164.49 268.913 164.675 268.887 164.744 268.835C164.78 268.808 164.812 268.772 164.767 268.732C164.392 268.395 163.952 268.29 163.901 268.153C163.804 267.894 164.054 267.443 164.57 266.656C164.715 266.435 164.756 266.327 164.739 266.264C164.71 266.158 164.163 266.291 163.355 266.531C162.951 266.651 162.582 266.839 161.991 267.251C161.4 267.663 160.604 268.311 160.03 268.809C159.455 269.308 159.125 269.638 158.774 269.944C158.422 270.25 158.058 270.523 157.712 270.754C156.718 271.418 156.582 271.412 156.547 271.412C156.451 271.413 156.718 271.104 157.112 270.641C157.39 270.315 157.881 269.849 158.303 269.489C158.725 269.13 159.077 268.903 159.446 268.706C160.174 268.318 160.679 268.129 160.868 268.032C161.017 267.955 161.139 267.922 161.196 267.905C161.209 267.901 161.186 267.944 160.543 268.405C159.901 268.866 158.639 269.753 157.972 270.226C157.266 270.728 157.145 270.837 156.984 270.952C156.728 271.136 156.365 271.365 155.953 271.622C155.291 272.036 154.815 272.456 154.625 272.622C154.453 272.774 154.286 272.881 153.708 273.482C153.362 273.841 153.127 273.972 152.623 274.447C152.387 274.669 152.174 274.822 152.036 274.902C151.892 274.985 151.76 275.108 151.622 275.183C151.46 275.272 151.29 275.453 151.14 275.556C150.946 275.691 150.75 275.935 150.584 276.141C150.255 276.55 149.901 276.726 149.694 276.905C149.445 277.12 149.132 277.381 148.616 277.885C148.305 278.189 148.178 278.335 147.897 278.467C147.727 278.546 147.593 278.645 147.455 278.719C147.326 278.789 147.146 279 146.944 279.133C146.762 279.253 146.491 279.334 146.353 279.414C146.209 279.497 146.1 279.62 145.974 279.73C145.905 279.792 145.847 279.862 145.796 279.93C145.767 279.965 145.733 279.999 145.629 280.103" stroke="black" stroke-width="5" stroke-linecap="round"/>
<path d="M228 192L227 231" stroke="black"/>
<path d="M237.033 203.256C237.013 203.256 236.993 203.256 236.953 204.089C236.912 204.922 236.852 206.588 236.831 207.577C236.805 208.826 236.911 209.296 237.052 209.641C237.115 209.793 237.234 209.864 237.326 209.906C237.487 209.978 237.782 209.847 238.306 209.484C239.151 208.9 239.628 208.245 239.86 207.932C240.182 207.499 240.459 206.768 240.682 205.908C240.789 205.496 240.784 205.109 240.744 204.501C240.704 203.893 240.604 203.07 240.492 202.415C240.3 201.291 240.035 200.602 239.853 200.247C239.781 200.108 239.711 200.073 239.62 200.093C238.9 200.246 238.616 201.791 238.404 202.832C238.165 204 238.209 204.715 238.25 204.837C238.27 204.898 238.29 204.958 238.361 204.889C238.597 204.657 238.897 203.81 239.331 202.506C239.564 201.81 239.746 201.021 239.89 199.925C240.033 198.829 240.114 197.444 240.135 196.671C240.156 195.897 240.116 195.776 240.045 195.815C239.974 195.853 239.874 196.054 239.662 197.01C239.449 197.967 239.128 199.673 238.963 200.653C238.797 201.632 238.797 201.833 238.898 201.635C238.998 201.437 239.199 200.835 239.362 200.234C239.526 199.632 239.647 199.05 239.719 198.459C239.953 196.539 239.589 195.959 239.406 195.653C239.369 195.59 239.325 195.532 239.465 195.451C239.894 195.202 240.317 195.126 240.439 195.025C240.582 194.906 240.622 194.6 240.582 194.256C240.553 194.003 240.319 193.909 240.177 193.838C239.578 193.538 238.616 193.807 238.019 193.848C237.432 193.888 236.996 193.989 236.457 194.02C236.262 194.031 235.66 194.071 234.819 194.081C233.913 194.092 232.98 194.051 232.514 193.96C231.498 193.759 231.155 193.808 230.8 193.716C230.121 193.54 229.857 193.605 229.553 193.534C229.473 193.515 229.391 193.523 229.339 193.553C229.288 193.584 229.268 193.644 229.268 193.715C229.266 194.016 229.409 194.252 229.44 194.849C229.469 195.408 229.531 196.138 229.561 196.997C229.587 197.698 229.572 198.51 229.531 198.724C229.303 199.926 229.43 196.077 229.41 196.34C229.364 196.939 229.247 197.334 229.136 197.77C229.031 198.183 228.964 198.59 228.933 199.602C228.918 200.115 228.842 200.396 228.832 200.841C228.824 201.17 228.963 201.651 229.064 202.099C229.227 202.81 229.085 203.923 229.075 204.996C229.07 205.51 229.186 205.951 229.237 206.436C229.373 207.749 229.146 208.121 229.116 208.425C229.099 208.589 229.065 209.292 229.085 210.335C229.097 210.96 229.186 211.645 229.176 212.416C229.167 213.13 229.106 213.738 229.075 214.622C229.047 215.426 229.065 216.952 229.055 217.768C229.041 218.848 228.964 219.333 228.933 220.022C228.902 220.711 228.842 221.726 228.771 222.121C228.607 223.03 228.862 223.429 228.922 224.255C229.039 225.84 228.963 226.918 229.004 227.039C229.102 227.333 229.105 227.708 229.116 228.305C229.122 228.645 229.025 228.924 228.943 229.108C228.835 229.354 228.963 228.44 229.014 227.995C229.026 227.892 229.044 227.832 229.075 227.761C229.14 227.607 229.829 227.246 230.872 226.8C231.405 226.572 231.86 226.413 232.477 226.1C233.578 225.54 233.909 225.277 234.375 225.023C235.301 224.519 236.361 224.406 236.748 224.212C237.231 223.97 238.063 223.575 238.522 223.37C238.737 223.275 238.979 223.127 239.482 222.725C241.339 221.24 241.615 220.958 241.656 220.856C241.735 220.663 241.111 220.835 240.596 221.057C239.752 221.42 239.123 221.868 238.529 222.252C238.102 222.526 237.392 222.916 236.85 223.183C235.526 223.834 234.988 223.876 234.561 224.099C234.287 224.243 233.993 224.343 233.649 224.485C233.156 224.688 232.858 224.849 232.301 225.133C231.822 225.377 231.499 225.316 231.195 225.407C230.833 225.516 230.506 225.963 230.211 226.228C230.15 226.283 230.06 226.289 230.099 226.26C230.28 226.121 230.524 226.006 230.967 225.664C231.342 225.374 232.051 224.881 233.016 224.261C233.98 223.641 235.184 222.918 235.995 222.395C236.806 221.873 237.188 221.571 237.716 221.256C238.874 220.563 239.689 220.208 239.921 220.056C240.45 219.71 241.025 219.599 241.402 219.397C241.474 219.357 241.533 219.335 241.494 219.335C240.912 219.331 240.199 219.72 239.077 220.204C238.017 220.661 237.379 221.099 237.177 221.169C236.53 221.395 236.021 221.646 235.515 221.818C235 221.993 234.643 222.172 234.006 222.446C232.69 223.01 232.392 223.227 232.067 223.4C231.606 223.644 231.116 224.076 230.658 224.635C230.384 224.97 230.06 225.052 229.735 225.114C229.69 225.122 229.713 225.034 230.316 224.451C230.918 223.868 232.103 222.764 232.883 222.075C233.664 221.385 234.005 221.144 234.382 220.91C235.147 220.433 235.654 220.167 236.046 219.905C237.563 218.893 238.086 218.708 238.381 218.565C238.724 218.399 239.16 218.221 239.466 218.048C239.58 217.983 239.709 217.956 239.841 217.916C239.99 217.87 239.633 217.995 238.282 218.6C237.349 219.017 236.007 219.846 235.263 220.28C234.434 220.763 234.176 220.936 233.832 221.138C233.518 221.323 233.062 221.604 232.475 221.878C231.474 222.344 230.367 222.962 229.978 223.147C229.92 223.174 229.857 223.187 229.796 223.187C229.735 223.188 229.674 223.168 229.703 223.087C229.733 223.006 229.853 222.866 230.808 222.231C231.764 221.597 233.55 220.473 234.812 219.623C236.073 218.773 236.756 218.231 237.65 217.63C238.543 217.03 239.627 216.388 240.256 216.027C241.215 215.476 241.412 215.402 241.403 215.431C241.378 215.513 241.133 215.602 240.177 216.065C239.22 216.529 237.514 217.332 236.193 218.036C234.873 218.741 233.989 219.323 233.354 219.713C232.375 220.314 231.663 220.571 231.117 220.733C230.534 220.906 229.84 221.158 229.421 221.342C229.254 221.415 229.126 221.565 229.045 221.686C229.009 221.74 229.044 221.807 229.095 221.839C229.38 222.014 229.854 221.547 231.181 220.44C232.333 219.481 234.436 217.688 235.753 216.617C237.069 215.546 237.531 215.245 238.02 214.98C238.989 214.453 239.688 214.166 239.73 214.094C240.013 213.618 238.476 214.669 237.819 215.164C237.099 215.707 236.589 216.231 236.175 216.494C235.762 216.756 235.111 216.941 234.172 217.184C232.986 217.49 231.947 217.691 231.33 217.974C230.154 218.514 229.492 219.698 229.379 220.094C229.354 220.183 229.369 220.266 229.399 220.328C229.429 220.389 229.489 220.429 230.404 219.567C231.318 218.704 233.084 216.938 234.085 215.957C235.248 214.818 235.552 214.632 235.885 214.46C236.114 214.342 236.479 214.188 237.106 213.955C238.609 213.397 239.588 213.07 239.739 212.979C240.125 212.748 240.317 212.664 240.308 212.644C240.28 212.581 240.038 212.664 239.212 212.975C238.386 213.287 236.941 213.889 235.996 214.33C235.05 214.77 234.649 215.031 234.332 215.266C234.014 215.501 233.794 215.702 233.349 216.056C232.254 216.928 231.438 217.549 231.226 217.772C230.911 218.101 230.425 218.138 229.908 218.129C229.829 218.127 229.875 218.039 230.207 217.656C230.539 217.274 231.161 216.571 231.943 215.768C232.725 214.964 233.649 214.081 234.596 213.285C235.544 212.489 236.487 211.806 237.114 211.394C238.479 210.497 239.342 210.294 239.648 210.069C239.766 209.983 239.892 209.907 239.943 209.876C240.04 209.818 238.867 210.53 237.418 211.391C236.42 211.984 235.661 212.739 235.128 213.271C234.852 213.548 234.541 213.576 234.398 213.597C234.369 213.601 234.457 213.497 235.1 213.215C235.744 212.933 236.948 212.451 237.769 212.162C238.974 211.739 239.546 211.711 239.689 211.721C239.83 211.731 239.325 211.772 238.993 211.802C238.316 211.863 237.363 212.075 236.301 212.368C235.192 212.674 234.48 213.109 234.146 213.342C233.634 213.699 233.384 213.86 233.243 213.881C233.162 213.892 233.061 213.861 232.999 213.79C232.938 213.72 232.918 213.599 232.937 213.457C232.981 213.147 233.421 212.587 234.52 211.457C235.253 210.703 236.442 209.684 237.142 209.016C238.078 208.123 238.35 207.718 238.573 207.455C239.173 206.746 239.303 205.936 239.325 204.721C239.344 203.649 238.799 202.713 238.495 202.154C238.407 201.992 238.19 202.886 238.108 204.429C238.056 205.43 238.108 206.876 238.168 207.842C238.229 208.807 238.329 209.249 238.431 209.366C238.533 209.483 238.633 209.262 238.725 208.787C238.817 208.312 238.897 207.589 238.979 206.183C239.06 204.777 239.14 202.71 239.212 201.514C239.299 200.054 239.506 199.548 239.568 198.922C239.606 198.537 239.348 198.015 239.205 197.254C238.879 195.524 238.838 194.416 238.788 194.335C238.732 194.245 238.575 194.818 238.313 196.338C238.107 197.531 237.93 199.605 237.786 201.533C237.642 203.462 237.582 205.188 237.511 206.057C237.44 206.926 237.359 206.886 237.278 206.735C237.068 206.345 236.973 205.572 236.882 204.752C236.844 204.414 236.851 204.233 236.66 202.875C236.469 201.517 236.088 198.988 235.892 197.595C235.695 196.202 235.695 196.021 235.695 195.978C235.695 195.935 235.695 196.036 235.514 198.988C235.334 201.94 234.972 207.741 234.796 210.891C234.62 214.04 234.64 214.361 234.711 214.426C234.883 214.585 235.207 213.501 235.551 212.107C235.749 211.304 235.854 210.272 235.816 208.711C235.778 207.15 235.558 205.082 235.454 203.846C235.322 202.273 235.451 201.556 235.583 201.039C235.625 200.873 235.734 200.943 235.785 201.687C235.837 202.431 235.857 203.856 236.068 205.774C236.279 207.693 236.681 210.061 236.938 211.402C237.195 212.743 237.295 212.984 237.387 213.168C237.479 213.352 237.559 213.473 237.66 213.324C237.762 213.175 237.883 212.754 237.935 212.125C237.987 211.496 237.966 210.673 237.745 208.212C237.524 205.751 237.103 201.676 236.875 199.546C236.648 197.417 236.628 197.357 236.618 197.366C236.55 197.425 236.628 197.659 236.768 199.206C236.898 200.632 237.11 203.363 237.284 205.01C237.458 206.658 237.578 207.139 237.65 207.327C237.723 207.515 237.743 207.395 237.632 205.376C237.522 203.356 237.282 199.442 237.188 197.546C237.094 195.65 237.154 195.891 237.215 196.286C237.483 198.019 237.621 198.612 237.622 198.694C237.623 198.919 237.117 197.968 236.662 196.968C236.088 195.707 235.858 194.762 235.716 194.448C235.588 194.165 235.453 193.849 235.23 193.586C234.978 193.287 234.561 193.362 234.267 193.462C234.152 193.501 234.055 193.683 233.973 193.866C233.891 194.048 233.851 194.269 233.91 195.587C233.97 196.905 234.131 199.314 234.133 201.79C234.135 204.265 233.975 206.734 233.922 208.237C233.87 209.74 233.93 210.201 233.991 210.55C234.226 211.889 235.066 212.927 235.077 213.332C235.09 213.84 234.642 214.547 234.439 215.126C234.399 215.239 234.378 215.299 234.337 215.32C234.297 215.341 234.236 215.321 234.175 215.27C234.038 215.157 233.932 214.856 233.84 213.869C233.768 213.086 233.809 211.718 233.769 210.754C233.729 209.79 233.649 209.268 233.668 207.203C233.687 205.137 233.807 201.544 233.909 199.392C234.011 197.24 234.092 196.638 234.133 196.287C234.215 195.595 234.235 194.584 234.185 193.86C234.171 193.667 234.154 193.504 234.104 193.352C234.079 193.278 234.033 193.22 233.962 193.23C233.892 193.239 233.791 193.319 233.348 193.782C232.905 194.245 232.122 195.088 231.679 195.592C231.13 196.217 230.992 196.643 230.86 197.119C230.758 197.487 230.768 198.001 230.939 199.451C231.07 200.566 231.45 202.427 231.636 203.55C231.822 204.672 231.842 204.993 231.782 205.721C231.722 206.448 231.582 207.572 231.469 208.322C231.357 209.072 231.277 209.413 231.235 210.02C231.194 210.628 231.194 211.491 231.234 212.217C231.274 212.942 231.354 213.504 231.396 214.015C231.519 215.537 231.236 216.148 231.013 216.726C230.929 216.941 230.91 217.002 230.9 216.591C230.89 216.181 230.89 215.298 230.97 214.542C231.116 213.17 231.376 212.362 231.396 211.887C231.408 211.613 231.457 211.272 231.537 210.815C231.618 210.358 231.739 209.796 231.801 208.794C231.863 207.792 231.863 206.367 231.903 204.639C231.943 202.911 232.023 200.924 232.175 199.318C232.327 197.712 232.548 196.548 232.652 195.898C232.771 195.152 232.674 194.984 232.593 194.852C232.503 194.706 232.411 194.538 232.26 194.416C232.181 194.354 232.048 194.375 231.936 194.415C231.424 194.598 230.813 195.585 230.353 196.128C230.111 196.414 229.958 197.228 229.896 198.482C229.831 199.821 230.22 200.679 230.321 201.003C230.42 201.317 230.403 201.994 230.393 202.824C230.387 203.295 230.302 203.599 230.191 204.113C229.999 205.005 229.836 205.788 229.684 206.183C229.569 206.484 229.41 206.862 229.259 207.469C229.07 208.223 229.165 209.212 229.347 210.123C229.459 210.68 229.672 211.502 229.874 212.535C230.091 213.639 230.402 214.931 230.524 215.41C230.548 215.501 230.565 215.582 230.605 215.614C230.685 215.676 231.19 214.721 231.848 213.322C232.144 212.695 232.207 212.262 232.258 210.832C232.298 209.704 232.249 207.756 232.248 206.552C232.248 204.947 232.269 204.393 232.118 203.718C231.998 203.182 231.746 202.261 231.582 201.875C231.418 201.49 231.337 201.671 231.246 202.075C231.154 202.479 231.054 203.101 230.992 204.034C230.93 204.967 230.91 206.192 230.98 207.696C231.05 209.2 231.211 210.946 231.304 211.886C231.396 212.826 231.416 212.906 231.447 212.987C231.477 213.069 231.517 213.149 231.568 213.09C231.619 213.031 231.679 212.83 231.77 212.195C231.862 211.56 231.982 210.496 232.024 209.466C232.066 208.436 232.026 207.473 231.965 206.886C231.885 206.11 231.661 205.832 231.489 205.67C231.337 205.527 231.073 205.588 230.831 205.648C230.306 205.779 229.94 206.598 229.714 206.986C229.485 207.38 229.268 207.635 229.227 207.766C229.133 208.07 229.59 208.384 229.774 208.709C230.042 209.185 230.179 209.459 230.352 209.713C230.385 209.763 230.463 209.724 231.497 208.118C232.532 206.512 234.539 203.32 235.895 201.315C237.25 199.309 237.892 198.587 238.384 198.094C239.157 197.319 239.567 197.052 239.628 196.881C239.719 196.624 239.629 196.383 239.558 196.231C239.321 195.722 238.317 195.431 237.795 195.187C237.307 194.959 237.217 194.639 236.963 194.568C236.817 194.527 236.348 194.698 235.619 195.001C234.942 195.283 234.34 195.671 233.642 195.914C232.366 196.359 231.946 196.099 231.368 195.897C230.981 195.761 230.689 195.612 230.374 195.511C229.941 195.372 229.674 195.247 229.269 195.247C229.077 195.246 228.944 195.408 228.842 195.53C228.795 195.586 228.781 195.651 228.781 195.732C228.779 196.295 229.388 196.868 229.49 197.121C229.617 197.437 229.592 197.78 229.622 198.347C229.636 198.592 229.673 198.915 229.723 199.55C229.804 200.575 229.977 201.328 229.987 201.622C229.998 201.936 230.038 202.261 230.048 202.574C230.058 202.869 230.099 203.153 230.189 204.751C230.272 206.209 230.46 208.979 230.533 210.627C230.626 212.714 230.485 213.271 230.434 213.484C230.323 213.948 230.645 214.948 230.948 216.364C231.215 217.605 231.194 218.36 231.184 218.633C231.153 219.473 231.093 220.53 231.002 220.894C230.815 221.641 230.667 222.293 230.475 222.901C230.296 223.469 230.1 224.075 229.937 224.645C229.896 225.214 229.856 225.477 229.846 225.72C229.835 225.823 229.815 225.883 229.795 225.945" stroke="black" stroke-width="2" stroke-linecap="round"/>
<path d="M226.753 169.679C226.934 169.537 227.339 169.294 228.697 168.821C229.886 168.407 232.122 167.726 233.32 167.354C234.776 166.902 235.105 166.84 235.541 166.648C235.833 166.519 235.998 166.253 236.252 165.979C236.305 165.922 236.263 165.848 236.202 165.807C235.852 165.569 235.191 165.603 234.683 165.553C234.117 165.496 233.751 165.643 233.425 165.724C232.931 165.848 232.19 165.906 231.632 166.28C230.832 166.817 230.647 167.103 230.404 167.245C230.15 167.392 229.998 167.609 229.846 167.843C229.672 168.11 229.269 168.278 228.944 168.522C228.644 168.747 228.457 169.008 228.274 169.302C228.091 169.596 227.929 169.921 227.899 170.417C227.854 171.134 227.888 172.232 227.969 172.597C228.063 173.02 228.131 173.388 228.273 173.692C228.415 173.997 228.496 174.239 228.577 174.483C228.679 174.787 228.8 175.192 228.942 175.597C229.116 176.095 229.125 176.71 229.176 177.23C229.198 177.461 229.206 177.647 229.237 178.24C229.315 179.774 229.227 180.89 229.196 181.183C229.097 182.143 229.287 182.391 229.318 182.786C229.33 182.94 229.369 183.381 229.359 183.989C229.343 184.922 229.268 186.303 229.186 186.689C229.114 187.031 229.165 187.439 229.136 187.894C229.08 188.736 229.186 189.222 229.126 189.619C229.085 189.883 228.963 190.116 228.923 190.501C228.863 191.063 228.659 191.534 228.588 191.869C228.485 192.357 228.517 192.75 228.637 192.995C229.08 193.895 229.712 191.883 230.036 191.507C230.371 191.12 230.645 190.747 230.888 190.453C231.185 190.095 231.415 189.734 231.922 189.186C232.381 188.689 232.956 188.09 233.321 187.847C233.834 187.505 234.192 186.835 234.679 186.448C235.201 186.034 235.651 185.679 236.209 185.273C236.722 184.9 237.173 184.441 237.607 184.128C238.454 183.518 238.754 183.204 239.16 182.829C239.661 182.367 240.155 181.846 240.771 181.198C241.086 180.868 241.31 180.528 241.393 180.304C241.575 179.806 240.198 180.95 238.873 181.881C238.051 182.459 237.135 183.12 236.791 183.465C236.23 184.027 235.657 184.661 235.159 185.107C234.726 185.496 234.237 186.058 233.821 186.647C233.144 187.604 232.371 188.068 232.026 188.291C231.591 188.573 231.175 188.919 230.88 189.163C230.576 189.415 230.283 189.81 229.978 190.046C229.873 190.126 229.734 190.157 229.653 190.178C229.262 190.277 229.633 189.206 229.551 188.962C229.511 188.841 229.53 188.678 229.621 188.516C229.796 188.205 230.721 187.748 231.724 187.05C232.178 186.734 232.465 186.413 232.821 185.996C233.604 185.08 234.132 184.38 234.375 184.127C234.857 183.626 235.45 183.041 236.289 182.243C236.817 181.741 237.314 181.482 237.802 181.136C238.269 180.804 238.816 180.386 239.16 180.092C239.512 179.791 240.793 178.872 241.574 178.256C241.698 178.158 241.757 178.013 241.788 177.911C241.8 177.871 241.718 177.85 241.627 177.86C241.193 177.906 240.686 178.193 239.25 178.961C238.12 179.565 237.44 180.181 237.127 180.433C236.443 180.984 236.203 181.315 235.888 181.641C235.545 181.995 234.967 182.633 234.631 183.069C234.273 183.536 233.651 184.01 233.252 184.368C232.626 184.931 231.803 185.656 231.125 186.131C230.626 186.48 230.364 186.709 230.069 186.853C229.184 187.285 230.18 185.314 230.199 184.897C230.214 184.585 230.726 184.622 231.219 184.381C232.407 183.8 233.22 183.244 233.743 182.781C234.192 182.385 234.989 181.636 235.563 181.133C236.138 180.63 236.459 180.389 236.815 180.064C237.58 179.367 238.246 178.664 238.783 178.208C239.415 177.671 239.729 177.466 240.113 177.091C240.726 176.494 240.965 176.209 241.239 175.844C241.477 175.527 241.776 175.377 241.91 175.285C242.083 175.166 241.334 175.335 240.437 175.838C239.718 176.241 238.557 177.103 237.716 177.698C236.407 178.624 235.838 179.106 235.656 179.308C235.329 179.671 234.844 180.119 234.298 180.626C234.011 180.892 233.709 181.113 233.345 181.326C232.498 181.82 232.148 182.107 231.843 182.269C231.507 182.449 231.135 182.634 230.809 182.847C230.369 183.135 229.918 183.465 229.613 183.719C229.552 183.77 229.491 183.81 229.46 183.58C229.363 182.854 229.49 182.271 229.631 182.149C230.112 181.737 231.41 181.341 232.255 180.953C232.691 180.754 233.138 180.446 234.044 179.802C234.735 179.312 235.794 178.355 236.373 177.849C237.187 177.138 237.559 176.615 237.843 176.27C238.255 175.768 238.613 175.438 239.573 174.65C240.391 173.979 240.681 173.331 240.885 173.015C240.997 172.841 241.149 172.721 241.129 172.67C241.108 172.613 240.909 172.759 240.144 173.312C239.379 173.865 238.014 174.889 237.22 175.517C236.217 176.31 235.819 176.753 235.374 177.117C234.753 177.625 234.358 177.788 233.508 178.102C232.933 178.315 232.19 178.821 231.55 179.399C231.234 179.685 230.911 179.796 230.465 180.069C230.345 180.143 230.223 180.201 230.14 180.192C229.99 180.175 229.977 179.437 230.057 178.515C230.087 178.167 230.298 178.095 230.411 178.043C230.768 177.881 231.353 177.81 231.699 177.648C231.879 177.563 232.446 177.204 233.326 176.567C234.132 175.984 234.518 175.58 234.629 175.448C234.777 175.274 235.406 174.732 236.347 173.852C237.123 173.125 237.56 172.781 237.791 172.54C238.288 172.02 238.856 171.626 239.31 171.364C240.373 170.749 241.063 170.311 241.463 169.812C241.528 169.73 241.554 169.64 241.524 169.568C241.495 169.497 241.394 169.436 241.282 169.415C240.849 169.334 240.362 169.637 239.108 170.323C237.877 170.997 237.176 171.665 236.984 171.756C236.618 171.929 236.305 172.413 235.859 172.83C235.222 173.423 234.824 173.915 234.641 174.087C234.581 174.145 234.659 174.199 234.751 174.2C234.966 174.201 235.287 174.079 235.782 173.948C236.472 173.765 237.111 173.511 237.878 173.3C240.037 172.704 240.317 172.517 240.328 172.517C240.553 172.511 239.852 172.639 239.64 172.589C239.404 172.532 239.203 172.396 239.031 172.134C238.512 171.342 238.675 170.454 238.635 169.704C238.622 169.452 238.515 169.475 238.393 169.566C238.09 169.792 237.885 170.063 237.613 170.375C237.062 171.009 236.588 171.442 236.265 171.784C235.57 172.522 234.947 173.326 234.471 173.731C234.13 174.021 233.509 174.339 232.81 174.815C232.148 175.266 231.642 175.738 231.074 176.216C230.914 176.351 230.809 176.491 230.657 176.552C230.523 176.606 230.504 175.447 230.524 173.886C230.537 172.913 230.119 172.66 229.977 172.407C229.818 172.121 229.794 170.705 229.734 169.852C229.729 169.778 229.693 169.7 229.653 169.709C229.508 169.741 229.45 170.203 229.389 170.94C229.301 172.015 229.389 172.82 229.449 173.204C229.654 174.503 230.139 175.658 230.26 176.054C230.311 176.22 230.301 176.369 230.362 176.49C230.394 176.556 230.462 176.612 230.503 176.553C230.852 176.049 230.625 175.218 230.656 174.608C230.67 174.323 230.847 173.517 231.08 172.223C231.414 170.368 231.315 169.985 231.406 169.669C231.422 169.612 231.536 169.658 231.598 169.708C231.726 169.814 231.841 170.263 232.094 171.443C232.272 172.276 232.446 173.606 232.58 174.378C232.796 175.63 232.897 175.903 232.907 176.054C232.911 176.126 232.937 176.186 232.947 176.056C232.957 175.927 232.957 175.606 232.877 175.029C232.797 174.452 232.636 173.629 232.503 173.034C232.293 172.093 232.147 171.566 232.116 171.192C232.041 170.272 232.268 169.497 232.369 169.294C232.389 169.253 232.47 169.293 232.521 169.384C232.652 169.616 232.774 170.623 233.016 172.051C233.294 173.686 233.929 174.239 234.123 174.493C234.236 174.643 234.336 174.788 234.427 174.788C234.505 174.789 234.538 174.549 234.589 173.934C234.64 173.319 234.68 172.275 234.681 171.496C234.682 170.235 234.52 169.358 234.388 168.73C234.315 168.383 234.276 168.219 234.245 168.188C233.678 167.61 234.882 170.365 235.065 170.863C235.353 171.643 235.471 171.968 235.593 172.313C235.629 172.416 235.694 172.535 235.755 172.587C235.816 172.639 235.876 172.619 235.987 172.368C236.099 172.117 236.259 171.635 236.352 170.855C236.445 170.075 236.465 169.011 236.455 168.432C236.445 167.854 236.405 167.794 236.354 167.733C236.249 167.606 236.101 167.529 235.889 167.499C235.58 167.455 235.21 167.529 234.705 167.68C233.081 168.167 232.471 168.725 232.45 168.746C231.771 169.405 234.861 168.806 235.358 168.837C235.551 168.867 235.734 168.908 236.017 168.938C236.199 168.949 236.46 168.949 236.85 169.009" stroke="black" stroke-width="2" stroke-linecap="round"/>
<path d="M216.5 172.5C220.446 198.217 221 207.5 216.5 239" stroke="black"/>
<path d="M228.28 177.929C227.642 175.539 227.321 173.405 227.083 172.682C226.785 171.779 225.355 174.617 224.42 177.756C223.703 180.164 225.448 182.602 227.023 184.769C227.293 185.14 227.478 185.278 227.585 185.175C227.946 184.83 227.748 182.371 227.589 179.203C227.505 177.545 226.686 174.967 225.941 171.559C225.67 170.313 225.617 170.049 225.59 170.071C225.563 170.094 225.563 170.41 225.563 170.736" stroke="black" stroke-width="2" stroke-linecap="round"/>
<path d="M226.515 175.029C226.671 174.824 227.128 174.343 227.798 173.637C228.401 173.002 228.656 172.562 228.686 172.435C228.699 172.381 228.633 172.344 228.59 172.325C228.516 172.293 228.367 172.319 228.138 172.355C227.881 172.395 227.341 172.536 226.701 172.675C226.173 172.789 225.729 173.02 225.361 173.141C224.836 173.313 224.532 173.335 224.024 173.486C223.834 173.543 223.672 173.541 223.545 173.511C223.448 173.488 223.754 173.096 224.159 172.679C224.351 172.48 224.757 172.344 225.343 172.169C225.698 172.063 225.861 172.053 225.897 172.047C226.046 172.022 225.368 172.004 225.07 172.095C224.881 172.152 224.605 172.27 224.201 172.415C223.679 172.602 223.129 172.717 222.665 172.91C221.817 173.262 221.592 173.492 221.193 173.655C221.109 173.69 221.071 173.686 221.041 173.704C220.906 173.783 220.877 173.976 220.666 174.187C220.35 174.504 219.778 174.713 219.553 174.841C219.48 174.883 219.389 174.896 219.293 174.938C219.179 174.987 219.123 175.113 219.087 175.222C218.998 175.486 219.243 175.814 219.412 176.201C219.521 176.448 219.473 176.973 219.516 177.411C219.523 177.486 219.558 177.544 219.72 178.048C219.882 178.552 220.181 179.498 220.419 180.698C220.657 181.898 220.825 183.324 220.923 184.094C221.031 184.938 221.118 185.297 221.191 185.769C221.219 185.952 221.216 186.025 221.198 186.05C221.18 186.075 221.144 186.051 221.101 185.985C221.059 185.918 221.011 185.811 220.908 185.468C220.806 185.125 220.65 184.55 220.552 184.116C220.393 183.412 220.381 182.943 220.375 182.653C220.37 182.42 220.321 182.18 220.272 181.98C220.215 181.746 220.199 181.455 220.163 181.164C220.138 180.96 220.043 180.537 219.91 180.041C219.779 179.555 219.848 179.204 219.873 178.747C219.893 178.363 219.897 177.668 219.921 177.334C219.945 177 219.981 177.048 220.071 177.199C220.529 177.961 220.875 178.27 221.172 178.362C221.373 178.424 221.65 178.296 221.909 178.157C222.118 178.046 222.435 177.753 222.84 177.367C223.012 177.202 223.089 177.076 223.258 176.871C223.427 176.665 223.679 176.378 224.054 175.888C224.429 175.399 224.92 174.716 225.143 174.382C225.366 174.049 225.306 174.085 224.886 174.654C224.466 175.223 223.687 176.325 223.155 177.168C222.622 178.012 222.358 178.563 222.21 178.894C222.063 179.226 222.039 179.322 222.038 179.395C222.038 179.469 222.062 179.516 222.122 179.517C222.285 179.519 222.629 179.157 223.106 178.62C223.341 178.355 223.523 178.071 223.711 177.762C223.9 177.452 224.079 177.117 224.25 176.734C224.602 175.944 224.748 175.441 224.766 175.374C224.769 175.365 224.773 175.415 224.683 176.308C224.593 177.201 224.413 178.938 224.321 179.862C224.222 180.846 224.216 180.981 224.234 181.071C224.241 181.106 224.336 181.055 224.57 180.791C224.805 180.527 225.2 180.035 225.667 179.387C226.134 178.739 226.661 177.948 226.478 178.302C226.294 178.655 225.384 180.176 224.765 181.331C224.146 182.486 223.847 183.229 223.693 183.635C223.539 184.042 223.539 184.09 223.568 184.114C223.598 184.139 223.658 184.139 223.737 184.091C223.816 184.043 223.912 183.947 224.242 183.539C224.573 183.13 225.136 182.411 225.57 181.903C226.261 181.094 226.635 180.812 226.744 180.752C226.805 180.718 226.876 180.668 226.931 180.715C226.986 180.762 227.022 180.906 227.023 181.028C227.023 181.15 226.987 181.246 226.633 181.954C226.279 182.662 225.609 183.979 225.257 184.718C224.894 185.576 224.893 185.783 224.93 185.94C224.954 186.014 224.99 186.073 225.027 186.135" stroke="black" stroke-width="4" stroke-linecap="round"/>
<path d="M221.397 206.751C221.385 206.655 221.361 206.365 221.403 206.003C221.424 205.823 221.445 205.511 221.529 204.967C221.613 204.423 221.757 203.657 221.861 203.022C221.965 202.388 222.025 201.909 222.056 201.602C222.125 200.91 222.159 200.473 222.25 199.972C222.283 199.786 222.304 199.386 222.353 198.734C222.401 198.085 222.281 197.474 222.166 196.997C222.087 196.669 222.002 196.504 221.942 196.324C221.824 195.97 221.676 195.562 221.597 195.247C221.567 195.125 221.555 195.077 221.506 195.262C221.458 195.447 221.375 195.866 221.325 196.285C221.276 196.705 221.264 197.112 221.294 197.705C221.324 198.298 221.396 199.065 221.534 199.873C221.673 200.681 221.877 201.508 222.096 202.34C222.314 203.173 222.542 203.988 222.683 204.641C222.824 205.294 222.872 205.761 222.891 206.313C222.909 206.865 222.897 207.488 222.873 207.917C222.821 208.847 222.752 209.156 222.74 209.466C222.74 209.471 222.74 209.342 222.68 208.819C222.62 208.296 222.5 207.374 222.451 206.678C222.401 205.981 222.425 205.538 222.461 205.202C222.498 204.866 222.545 204.65 222.624 204.162C222.703 203.673 222.81 202.919 222.848 201.853C222.885 200.788 222.85 199.434 222.837 198.755C222.825 198.076 222.836 198.112 222.831 198.951C222.825 199.79 222.801 201.431 222.962 203.342C223.124 205.253 223.471 207.385 223.824 208.974C224.176 210.564 224.523 211.546 224.756 212.142C224.989 212.738 225.097 212.917 225.17 213.034C225.244 213.15 225.28 213.198 225.316 213.091C225.353 212.984 225.389 212.72 225.335 210.441C225.282 208.161 225.138 203.873 224.986 201.335C224.835 198.797 224.679 198.138 224.587 197.769C224.494 197.399 224.47 197.339 224.482 197.362C224.494 197.386 224.542 197.493 224.818 199.579C225.094 201.665 225.597 205.725 225.886 207.936C226.175 210.148 226.235 210.387 226.314 210.631C226.393 210.874 226.488 211.113 226.574 211.231C226.659 211.348 226.731 211.336 226.828 211.222C226.925 211.108 227.045 210.893 227.148 210.62C227.252 210.347 227.336 210.024 227.451 208.174C227.566 206.325 227.709 202.959 227.754 201.04C227.798 199.12 227.738 198.749 227.695 198.528C227.652 198.307 227.628 198.247 227.61 198.192C227.591 198.137 227.58 198.089 227.49 198.586C227.399 199.082 227.232 200.124 227.098 200.763C226.963 201.401 226.867 201.605 226.769 201.815" stroke="black" stroke-width="4" stroke-linecap="round"/>
<path d="M221.869 195.064C221.869 194.98 221.893 194.762 221.941 194.156C221.98 193.67 221.989 192.819 221.996 192.339C222.005 191.652 221.917 191.412 221.869 191.169C221.818 190.912 221.736 190.65 221.663 190.322C221.634 190.192 221.603 189.864 221.501 189.381C221.348 188.662 221.083 188.35 220.95 187.711C220.875 187.352 220.889 186.696 220.847 186.425C220.799 186.115 220.816 187.221 220.894 187.686C220.998 188.301 221.154 188.457 221.251 188.645C221.36 188.854 221.372 189.134 221.403 189.762C221.425 190.223 221.457 190.732 221.464 191.353C221.467 191.68 221.361 191.869 221.331 192.075C221.301 192.279 221.288 193.193 221.324 193.786C221.332 193.915 221.433 194.047 221.559 194.144C221.607 194.18 221.65 194.145 221.687 194.055C221.723 193.964 221.759 193.809 221.778 193.501C221.796 193.193 221.796 192.738 221.73 192.174C221.664 191.61 221.533 190.952 221.459 190.474C221.343 189.726 221.337 189.294 221.3 189.047C221.277 188.884 221.228 188.546 221.113 188.062C221.032 187.717 220.902 187.371 220.793 186.931C220.683 186.484 220.671 186.1 220.683 185.924C220.697 185.725 220.78 186.351 220.726 186.672C220.652 187.111 220.454 187.427 220.381 187.816C220.311 188.185 220.368 188.795 220.435 189.134C220.514 189.543 220.839 190.004 221.152 190.541C221.537 191.2 221.832 191.651 221.905 191.85C222.007 192.131 222.098 192.316 222.153 192.516C222.164 192.558 222.159 192.595 222.195 192.601C222.303 192.621 222.533 192.416 222.846 192.096C223.012 191.927 223.16 191.717 223.498 191.151C223.836 190.585 224.351 189.662 224.939 188.421C225.528 187.179 226.175 185.646 226.592 184.706C227.009 183.767 227.177 183.467 226.88 184.134C226.583 184.8 225.816 186.441 225.415 187.304C225.014 188.167 225.002 188.203 225.002 188.24C225.002 188.276 225.014 188.312 225.038 188.325C225.207 188.412 225.557 187.976 226.105 187.29C226.493 186.804 227.071 186.006 227.386 185.575C227.7 185.144 227.724 185.096 227.179 185.526C226.635 185.957 225.521 186.867 224.785 187.42C223.761 188.189 223.345 188.325 223.243 188.343C223.189 188.353 223.128 188.349 223.073 188.337C223.019 188.325 222.971 188.301 222.934 188.229C222.843 188.049 222.921 187.686 223.119 187.18C223.366 186.55 223.659 186.184 223.821 186.004C224.102 185.691 224.552 185.362 225.023 185.085C225.41 184.856 225.931 184.672 226.456 184.467C226.898 184.295 227.059 184.139 227.107 184.127C227.133 184.12 227.108 184.234 226.88 184.72C226.652 185.207 226.209 186.093 225.933 186.729C225.657 187.366 225.561 187.725 225.493 188.138C225.426 188.55 225.39 189.005 225.384 189.414C225.377 189.822 225.401 190.169 225.509 190.719C225.617 191.269 225.809 192.012 225.926 192.437C226.156 193.276 226.309 193.817 226.327 193.866C226.331 193.878 226.333 193.771 226.561 192.243C226.788 190.714 227.243 187.744 227.484 186.076C227.724 184.408 227.736 184.132 227.73 184.008C227.725 183.885 227.701 183.92 227.545 184.328C227.389 184.736 227.101 185.515 226.875 186.251C226.649 186.987 226.493 187.658 226.401 188.692C226.309 189.727 226.285 191.104 226.345 192.448C226.404 193.793 226.548 195.062 226.616 195.782C226.696 196.632 226.612 196.853 226.491 197.004C226.43 197.082 226.323 197.119 226.232 197.138C226.06 197.173 225.862 197.085 225.669 196.994C225.519 196.924 225.175 196.519 224.715 195.927C224.473 195.614 224.362 195.272 224.217 194.819C224.079 194.389 224.095 193.821 224.173 193.091C224.264 192.238 224.506 191.737 224.482 191.922C224.451 192.169 224.315 192.718 224.259 193.229C224.204 193.74 224.216 194.196 224.282 194.688C224.348 195.18 224.467 195.695 224.625 196.163C224.783 196.632 224.974 197.04 225.115 197.315C225.255 197.591 225.339 197.723 225.406 197.815C225.474 197.906 225.522 197.954 225.607 197.967" stroke="black" stroke-width="4" stroke-linecap="round"/>
<path d="M228.003 228.745C227.691 228.949 227.38 229.153 226.836 229.533C226.292 229.913 225.526 230.464 225.023 230.808C224.318 231.291 223.987 231.431 223.818 231.491C223.448 231.624 222.887 231.83 222.686 231.975C222.568 232.061 222.342 232.204 222.023 232.458C221.378 232.969 221.083 233.076 220.956 233.203C220.784 233.375 220.49 233.536 220.291 233.681C220.142 233.79 220.042 233.935 219.801 234.291C219.682 234.467 219.607 234.624 219.432 234.812C219.233 235.025 219.051 235.157 218.941 235.266C218.89 235.318 218.953 235.026 219.073 234.605C219.312 233.769 219.558 233.138 219.636 232.951C219.688 232.827 219.835 232.379 220.071 231.714C220.276 231.135 220.32 230.948 220.434 230.474C220.528 230.081 220.728 229.389 220.832 228.995C220.956 228.531 221.045 228.192 221.178 227.756C221.252 227.516 221.336 227.163 221.469 226.704C221.522 226.521 221.53 226.436 221.716 225.86C221.901 225.284 222.261 224.218 222.464 223.597C222.713 222.835 222.74 222.636 222.722 222.576C222.716 222.555 222.668 222.587 222.434 222.947C222.2 223.306 221.769 224.001 221.529 224.401C221.242 224.878 221.108 225.378 220.932 226.025C220.85 226.327 220.744 226.638 220.606 227.085C220.501 227.42 220.393 227.584 220.303 227.812C219.918 228.786 219.849 229.095 219.686 229.5C219.6 229.713 219.619 229.942 219.588 230.124C219.565 230.269 219.546 230.941 219.588 231.238C219.629 231.525 219.655 230.694 219.667 230.543C219.687 230.283 219.727 230.041 219.841 229.279C219.943 228.599 220.183 227.331 220.3 226.641C220.417 225.951 220.417 225.88 220.459 225.549C220.501 225.219 220.585 224.632 220.694 224.012C220.803 223.392 220.935 222.758 221.008 222.413C221.12 221.89 221.083 221.596 221.064 221.415C221.059 221.366 221.046 221.318 220.992 222.096C220.938 222.874 220.842 224.479 220.811 225.455C220.78 226.432 220.816 226.731 220.84 226.987C220.909 227.704 220.925 228.017 220.961 228.363C220.999 228.722 221.142 229.396 221.215 229.779C221.263 230.027 221.36 230.389 221.445 230.62C221.46 230.661 221.505 230.681 221.566 230.687C221.626 230.693 221.71 230.681 222.855 229.783C224 228.884 226.204 227.1 227.429 226.121C228.654 225.141 228.834 225.022 228.866 224.972C228.916 224.896 228.584 225.007 227.882 225.271C227.255 225.507 226.067 225.918 225.33 226.194C224.333 226.567 223.975 226.749 223.794 226.803C223.687 226.835 223.563 226.798 223.43 226.738C223.375 226.712 223.369 226.653 223.381 226.575C223.393 226.496 223.429 226.388 223.962 225.668C224.496 224.948 225.526 223.618 226.074 222.916C226.654 222.173 226.72 222.104 226.696 222.127C226.642 222.181 226.529 222.342 225.719 223.117C224.909 223.892 223.411 225.281 222.658 225.967C221.905 226.653 221.941 226.593 222.384 225.928C222.828 225.262 223.678 223.992 224.206 223.254C224.734 222.517 224.914 222.349 225.036 222.244C225.159 222.14 225.219 222.104 225.281 222.067" stroke="black" stroke-width="4" stroke-linecap="round"/>
<path d="M220.925 223.338C221.009 223.098 221.093 222.858 221.34 222.202C221.587 221.546 221.994 220.48 222.335 219.074C222.677 217.669 222.94 215.956 223.076 215.002C223.212 214.047 223.212 213.904 223.224 213.716C223.25 213.3 223.368 212.743 223.513 212.217C223.623 211.82 223.875 211.496 224.088 211.234C224.306 210.966 224.47 210.78 224.518 210.743C224.603 210.876 224.627 211.129 224.597 211.532C224.567 211.804 224.508 212.211 224.446 212.631" stroke="black" stroke-width="4" stroke-linecap="round"/>
<path d="M227.894 212.885C227.475 213.687 227.056 214.49 226.756 215.184C226.456 215.879 226.289 216.442 226.154 217.02C226.02 217.597 225.924 218.172 225.875 218.546C225.805 219.073 225.837 219.272 225.891 219.315C225.925 219.341 226.005 219.297 226.078 219.225C226.151 219.153 226.223 219.033 226.41 218.54C226.597 218.047 226.896 217.185 227.116 216.273C227.336 215.362 227.468 214.428 227.536 213.905C227.604 213.381 227.604 213.298 227.562 213.302C227.52 213.307 227.436 213.403 227.279 213.674C227.122 213.945 226.895 214.388 226.676 214.946C226.457 215.503 226.253 216.162 226.13 216.633C226.007 217.104 225.971 217.368 225.953 217.659C225.915 218.261 225.982 218.894 226.073 219.396C226.107 219.588 226.151 219.646 226.194 219.659C226.236 219.672 226.284 219.636 226.309 219.594C226.334 219.551 226.334 219.503 226.334 219.454" stroke="black" stroke-width="4" stroke-linecap="round"/>
<path d="M224.918 220.18C224.618 220.599 224.319 221.018 224.165 221.21C224.01 221.402 224.01 221.354 224.058 221.198C224.106 221.041 224.202 220.778 224.221 220.624C224.241 220.471 224.181 220.435 224 220.446C223.82 220.458 223.52 220.517 223.073 220.626C222.035 220.878 221.397 221.063 221.325 221.069C221.148 221.084 221.059 220.798 220.914 220.381C220.748 219.906 221.009 219.709 221.076 219.503C221.131 219.335 221.227 219.201 221.288 219.019C221.359 218.808 221.409 218.512 221.53 218.004C221.61 217.668 221.663 217.447 221.717 217.205C221.766 216.991 221.844 216.47 221.971 215.655C222.073 215.002 222.026 214.592 222.056 214.267C222.076 214.049 222.098 213.726 222.141 213.374C222.228 212.648 222.328 212.196 222.365 212.039C222.466 211.603 222.304 210.844 222.335 210.369C222.351 210.115 222.377 209.825 222.407 209.559C222.429 209.365 222.353 209.22 222.305 209.068C222.276 208.979 222.256 208.892 222.226 208.856C222.191 208.814 222.147 208.964 222.111 209.007C222.071 209.054 221.894 208.965 221.719 208.989C221.56 209.01 221.735 209.315 221.79 209.556C221.887 209.982 221.76 210.258 221.724 210.488C221.708 210.587 221.687 210.958 221.693 211.466C221.696 211.687 221.724 212.166 221.712 212.874C221.703 213.361 221.615 213.597 221.579 213.845C221.525 214.211 221.518 214.795 221.5 214.959C221.475 215.185 221.409 215.424 221.385 215.66C221.367 215.837 221.312 216.029 221.294 216.45C221.257 217.325 221.276 217.989 221.258 218.188C221.252 218.399 221.24 218.546 221.216 218.918C221.204 219.254 221.192 219.889 221.179 220.543" stroke="black" stroke-width="4" stroke-linecap="round"/>
</svg>
