<svg width="427" height="442" viewBox="0 0 427 442" fill="none" xmlns="http://www.w3.org/2000/svg">
<rect x="100" y="157" width="129.25" height="100" rx="20" fill="black"/>
<path d="M351 177V177C358.732 177 365 183.268 365 191V225C365 232.732 358.732 239 351 239V239V177Z" fill="black"/>
<path d="M234.954 188.49L232.498 191.034L236.034 191.031L290.127 190.995L133.9 289.363L210.422 213.958L213.031 211.387L209.368 211.389L155.049 211.43L297.653 123.523L234.954 188.49Z" fill="white" stroke="black" stroke-width="3"/>
<path d="M188.5 256.5H168.5" stroke="black"/>
<path d="M241.5 183C242.284 174.183 241.076 169.836 235 163.5" stroke="black"/>
<path d="M241.5 191V223" stroke="black"/>
<path d="M244.582 206.111C244.327 205.969 244.168 205.854 244.118 205.761C243.983 205.512 244.096 205.026 244.224 204.432C244.282 203.994 244.296 203.751 244.325 203.665C244.339 203.622 244.353 203.579 244.368 203.535" stroke="black" stroke-width="2" stroke-linecap="round"/>
<path d="M245.226 194.521C245.169 194.564 244.969 194.508 244.755 194.436C244.544 194.365 244.411 194.35 244.332 194.328C244.154 194.28 244.139 194.007 244.046 193.899C243.873 193.699 244.124 194.562 244.196 194.821C244.21 194.864 244.224 194.907 244.231 194.985C244.239 195.064 244.239 195.177 244.239 195.294" stroke="black" stroke-width="5" stroke-linecap="round"/>
<path d="M245.527 198.084C245.867 198.027 246.207 197.971 247.961 197.552C249.716 197.133 252.874 196.354 254.771 195.932C256.667 195.509 257.205 195.467 257.582 195.452C257.958 195.437 258.157 195.451 258.485 195.522C258.814 195.593 259.267 195.721 259.685 195.864C260.48 196.138 260.907 196.338 261.064 196.388C261.554 196.544 261.865 196.582 262.286 196.617C262.993 196.677 263.253 196.582 263.361 196.575C263.385 196.573 263.341 196.553 262.802 196.525C262.263 196.496 261.229 196.454 259.776 196.503C258.322 196.552 256.481 196.693 255.49 196.759C254.499 196.825 254.414 196.811 254.349 196.797C254.284 196.782 254.241 196.768 254.283 196.74C254.325 196.711 254.452 196.668 255.828 196.597C257.204 196.526 259.825 196.426 261.515 196.425C263.204 196.423 263.884 196.523 264.277 196.595C264.76 196.684 264.899 196.768 264.964 196.803C264.984 196.814 264.929 196.853 264.865 196.889C264.8 196.925 264.715 196.967 261.966 197.903C259.217 198.838 253.806 200.666 250.678 201.77C247.551 202.874 246.871 203.2 246.492 203.389C246.114 203.578 246.057 203.62 246.07 203.642C246.084 203.664 246.169 203.664 247.905 203.069C249.642 202.474 253.027 201.285 255.125 200.495C257.223 199.705 257.932 199.35 258.431 199.111C259.194 198.746 259.59 198.614 259.783 198.571C259.862 198.553 259.905 198.556 259.899 198.599C259.892 198.641 259.836 198.726 258.737 199.634C257.639 200.542 255.5 202.27 254.355 203.224C253.098 204.273 253.01 204.536 252.967 204.708C252.939 204.82 252.967 204.909 253.009 204.994C253.032 205.041 253.08 205.08 253.159 205.102C253.345 205.154 253.538 205.095 254.333 204.635C255.062 204.212 256.43 203.366 257.598 202.73C258.767 202.095 259.687 201.684 260.268 201.458C261.044 201.156 261.365 201.175 261.409 201.238C261.452 201.301 261.197 201.43 259.537 202.395C257.878 203.36 254.733 205.159 253.085 206.107C251.436 207.055 251.38 207.097 252.625 206.56C253.871 206.022 256.421 204.903 258.152 204.227C259.883 203.552 260.719 203.354 261.221 203.251C261.722 203.149 261.864 203.149 261.887 203.199C262.183 203.827 260.594 204.179 260.308 204.421C260.078 204.617 259.722 205.035 259.266 205.606C258.592 206.449 258.348 206.639 258.168 206.854C257.938 207.13 257.718 207.284 257.525 207.412C257.193 207.634 256.817 207.884 256.559 208.056C256.433 208.14 256.245 208.313 255.86 208.549C254.878 209.149 254.471 209.343 254.177 209.523C253.729 209.796 253.141 210.272 252.768 210.546C252.373 210.835 252.095 211.161 251.909 211.354C251.68 211.592 251.437 211.804 251.129 212.055C250.891 212.249 250.564 212.435 250.364 212.563C250.081 212.744 249.821 213.006 249.598 213.143C249.366 213.285 249.09 213.422 248.89 213.579C248.635 213.779 248.389 214.137 248.096 214.451C247.878 214.686 247.659 214.952 247.145 215.466C246.933 215.679 246.729 215.783 246.557 215.89C246.472 215.926 246.386 215.969 246.3 216.026C246.257 216.055 246.214 216.083 246.128 216.112" stroke="black" stroke-width="5" stroke-linecap="round"/>
<path d="M259.048 208.515C259.061 208.43 259.488 207.945 260.224 207.274C260.555 206.971 261.055 206.436 261.374 206.124C262.063 205.45 262.552 205.025 262.852 204.746C263.272 204.356 263.44 204.18 263.682 203.994C263.835 203.877 263.955 203.765 264.26 203.552C264.97 203.057 265.471 202.634 265.642 202.521C265.879 202.363 266.185 202.064 266.493 201.763C266.664 201.596 267.184 201.093 267.935 200.336C268.522 199.743 268.862 199.687 269.055 199.587C269.107 199.56 269.162 199.53 269.737 199.338C270.311 199.146 271.402 198.792 271.992 198.596C272.642 198.379 272.896 198.285 273.26 198.171C273.962 197.951 274.513 197.37 274.728 197.183C274.963 196.98 275.271 196.783 275.786 196.525C276.067 196.384 276.288 196.353 276.524 196.267C276.813 196.162 277.117 196.025 277.461 195.888C277.78 195.762 277.976 195.667 278.155 195.559C278.353 195.44 278.577 195.437 278.756 195.337C278.963 195.222 279.135 195.165 279.393 195.087C279.69 194.996 280.007 194.922 280.209 194.858C280.395 194.798 280.58 194.623 280.774 194.479C280.964 194.337 281.153 194.25 281.332 194.164C281.58 194.044 281.797 193.907 282.004 193.835C282.182 193.773 282.355 193.72 282.526 193.656C282.71 193.587 282.87 193.506 283.084 193.363C283.306 193.215 283.499 193.091 283.614 193.012C283.706 192.949 283.315 193.019 283.144 193.033C282.913 193.052 282.232 193.119 281.346 193.148C280.667 193.169 280.154 193.219 279.817 193.241C279.652 193.251 279.126 193.277 278.397 193.284C277.791 193.29 277.478 193.348 277.198 193.37C276.943 193.389 276.323 193.533 275.397 193.584C275.145 193.598 274.902 193.62 274.61 193.627C274.359 193.633 273.704 193.663 272.846 193.656C272.441 193.652 272.212 193.62 271.969 193.627C271.81 193.632 271.512 193.705 270.553 193.763C269.835 193.806 268.644 193.763 268.01 193.749C267.175 193.73 266.861 193.677 265.905 193.67C265.559 193.667 264.948 193.706 264.147 193.72C263.593 193.73 263.313 193.82 262.478 193.828C261.867 193.833 261.296 193.82 260.745 193.842C260.494 193.852 259.84 193.878 258.954 193.856C258.204 193.838 257.904 193.592 257.568 193.47C257.465 193.433 257.333 193.448 257.289 193.477C257.244 193.505 257.287 193.562 257.401 193.626C257.515 193.691 257.699 193.762 257.992 193.834C258.285 193.905 258.682 193.976 260.274 194.098C261.867 194.219 264.643 194.389 266.413 194.548C268.184 194.706 268.863 194.848 269.731 194.942C270.598 195.036 271.632 195.079 272.207 195.115C272.869 195.156 272.998 195.208 273.048 195.251C273.081 195.279 273.027 195.378 272.991 195.436C272.93 195.535 272.586 195.679 272.001 195.929C271.701 196.057 271.387 196.165 270.504 196.407C269.622 196.65 268.177 197.018 267.064 197.378C265.952 197.737 265.215 198.077 264.68 198.344C263.821 198.773 263.455 199.028 263.291 199.128C262.766 199.448 262.07 199.656 261.603 200.05C261.231 200.364 261.137 200.915 260.909 201.359C260.866 201.442 260.808 201.432 260.765 201.39C260.656 201.282 260.48 200.976 260.031 200.513C259.757 200.229 259.314 199.922 259.017 199.676C258.551 199.29 258.191 198.817 257.728 198.062C257.455 197.617 257.193 196.995 256.977 196.582C256.431 195.542 255.858 195.209 255.579 195.073C255.33 194.951 255.185 194.709 254.963 194.13C254.917 194.01 254.927 193.964 254.906 193.942C254.859 193.894 254.671 193.949 254.414 193.999C254.159 194.048 253.431 194.049 252.359 194.021C251.14 193.989 250.78 193.778 250.499 193.742C250.249 193.709 249.991 193.677 249.57 193.656C249.433 193.635 249.333 193.606 249.084 193.584C248.892 193.577 248.566 193.577 248.231 193.577" stroke="black" stroke-width="5" stroke-linecap="round"/>
<path d="M244.067 195.036C244.067 195.522 244.096 195.722 244.117 195.93C244.139 196.139 244.21 196.395 244.275 196.581C244.336 196.758 244.353 197.024 244.41 197.232C244.471 197.453 244.582 197.824 244.668 198.155C244.741 198.434 244.739 198.87 244.79 199.106C244.806 199.183 244.797 199.298 244.797 199.151C244.797 198.071 244.726 197.785 244.704 197.662C244.67 197.47 244.64 198.083 244.618 198.255C244.596 198.433 244.511 198.598 244.454 198.77C244.425 198.856 244.397 198.956 244.375 199.063C244.365 199.113 244.368 199.156 244.403 199.065C244.648 198.432 244.625 198.114 244.604 197.978C244.58 197.826 244.283 198.098 244.111 198.205C244.07 198.231 244.025 198.241 243.989 198.291C243.827 198.515 243.967 198.812 244.06 199.071C244.136 199.282 244.181 199.457 244.232 199.806C244.363 200.721 244.282 201.242 244.246 201.738C244.217 202.146 244.139 202.574 244.103 202.969C244.078 203.238 244.024 203.434 243.982 203.699C243.896 204.228 243.967 205.065 243.967 205.7C243.968 206.342 243.867 206.711 243.846 206.926C243.812 207.254 243.781 207.769 243.774 208.213C243.77 208.434 243.853 208.77 243.81 209.029C243.778 209.221 243.724 209.444 243.688 209.644C243.666 209.771 243.667 209.902 243.638 210.03C243.604 210.186 243.595 210.912 243.588 211.899C243.582 212.789 243.581 213.793 243.602 214.001C243.609 214.051 243.623 214.094 243.631 214.151C243.638 214.209 243.638 214.279 243.638 214.352" stroke="black" stroke-width="5" stroke-linecap="round"/>
<path d="M246.9 200.445C246.886 200.899 246.886 201.874 246.907 202.403C246.926 202.863 246.972 203.176 247.15 203.926C247.291 204.521 247.315 204.779 247.337 205.058C247.356 205.31 247.401 205.737 247.422 206.053C247.451 206.468 247.487 206.754 247.487 207.011C247.488 207.735 247.202 208.212 246.937 208.627C246.639 209.096 246.558 209.343 246.464 209.594C246.251 210.166 246.329 211.174 246.335 211.376C246.338 211.496 246.797 210.979 247.262 210.521C247.441 210.344 247.514 210.29 248.138 209.694C248.763 209.098 249.938 207.965 250.629 207.325C251.652 206.376 251.879 206.369 252.022 206.276C252.086 206.234 252.108 206.169 252.108 206.105C252.111 205.715 251.453 205.24 250.88 204.875C250.21 204.446 249.608 204.609 249.098 204.644C248.99 204.652 248.891 204.652 248.861 204.659C248.831 204.666 248.874 204.68 248.918 204.694" stroke="black" stroke-width="5" stroke-linecap="round"/>
<path d="M245.32 216.949C245.298 216.949 245.236 216.954 245.199 216.959C245.134 216.967 245.103 216.966 245.083 216.956C245.055 216.942 245.037 216.941 245.016 216.934C244.988 216.924 244.942 216.9 244.919 216.887C244.902 216.877 244.887 216.863 244.871 216.851C244.854 216.837 244.827 216.818 244.804 216.804C244.784 216.792 244.77 216.783 244.743 216.776C244.701 216.766 244.681 216.759 244.663 216.754C244.645 216.748 244.624 216.741 244.604 216.736C244.576 216.73 244.563 216.714 244.547 216.7C244.529 216.684 244.494 216.668 244.472 216.655C244.45 216.642 244.435 216.628 244.42 216.62C244.409 216.615 244.427 216.648 244.43 216.67C244.437 216.71 244.426 216.789 244.429 216.831C244.431 216.854 244.434 216.883 244.437 216.916C244.445 217.005 244.441 217.036 244.445 217.066C244.447 217.092 244.449 217.183 244.446 217.239C244.444 217.267 244.436 217.295 244.424 217.325C244.408 217.365 244.388 217.396 244.382 217.413C244.364 217.467 244.341 217.536 244.336 217.555C244.331 217.57 244.308 217.619 244.29 217.658C244.278 217.684 244.267 217.708 244.256 217.738C244.236 217.792 244.214 217.833 244.201 217.859C244.171 217.928 244.165 217.949 244.154 217.98C244.152 217.989 244.152 217.999 244.152 218.008" stroke="black" stroke-width="5" stroke-linecap="round"/>
<path d="M244.234 218.496C244.227 218.495 244.206 218.495 244.184 218.505C244.164 218.512 244.147 218.518 244.134 218.525C244.126 218.53 244.116 218.536 244.098 218.543" stroke="black" stroke-width="5" stroke-linecap="round"/>
<path d="M287.689 131.04C287.713 131.04 287.736 131.04 287.725 131.075C287.636 131.349 287.263 131.491 287.036 131.74C286.821 131.977 286.621 132.204 286.335 132.394C286.049 132.585 285.718 132.775 285.349 132.953C285.047 133.099 284.766 133.345 284.469 133.618C284.121 133.937 283.886 134.224 283.696 134.593C283.534 134.907 283.222 135.175 282.959 135.461C282.64 135.808 282.27 136.008 281.984 136.174C281.688 136.347 281.414 136.555 281.105 136.78C280.663 137.103 280.44 137.505 280.071 137.814C279.767 138.07 279.489 138.313 279.191 138.481C278.797 138.702 278.255 139.168 277.729 139.585C277.417 139.833 277.135 140.025 276.849 140.181C276.564 140.336 276.279 140.43 275.994 140.537C275.678 140.655 275.376 140.858 275.066 140.953C274.771 141.044 274.308 141.309 273.925 141.523C273.776 141.607 273.663 141.737 273.58 141.88C273.54 141.949 273.52 142.022 273.591 142.047C274.11 142.229 274.659 141.787 274.993 141.726C275.137 141.7 275.279 141.643 275.362 141.655C275.704 141.702 274.853 142.236 274.567 142.391C274.271 142.552 273.997 142.807 273.723 143.033C273.435 143.271 273.259 143.662 272.998 143.877C272.711 144.113 272.287 144.588 271.928 144.887C271.637 145.131 271.311 145.374 270.741 145.801C269.892 146.438 269.693 146.872 269.444 147.157C269.204 147.432 268.886 147.822 268.506 148.167C267.826 148.784 266.895 149.695 266.07 150.602C264.886 151.905 264.393 152.268 263.941 152.661C263.414 153.118 262.919 153.811 262.55 154.337C262.265 154.741 261.825 155.335 261.563 155.645C261.258 156.005 260.827 156.239 260.529 156.441C260.22 156.651 260.018 157.071 259.78 157.392C259.447 157.84 259.328 158.141 259.102 158.485C258.905 158.787 258.71 159.115 258.389 159.602C258.314 159.717 258.235 159.781 258.246 159.782C258.371 159.795 258.989 158.934 259.927 157.734C260.825 156.586 261.228 156.36 261.632 156.075C262.03 155.793 262.369 155.315 262.796 154.981C263.249 154.628 263.557 154.363 263.95 154.078C264.338 153.795 264.58 153.744 264.652 153.673C264.889 153.438 263.751 154.004 262.591 154.679C262.023 155.009 261.222 155.657 260.55 156.243C259.879 156.829 259.385 157.37 259.001 157.896C258.289 158.87 257.903 159.708 257.57 160.195C257.191 160.751 256.927 161.065 256.642 161.433C256.265 161.92 255.953 162.23 255.277 163.07C254.589 163.926 253.792 164.843 253.044 165.448C252.359 166.003 252.007 166.365 251.318 167.256C250.871 167.834 250.532 168.387 250.14 168.756C249.87 169.01 249.558 169.267 249.307 169.552C249.035 169.862 248.796 170.194 248.547 170.539C248.336 170.83 248.154 171.121 248.094 171.407C248.033 171.698 247.916 171.977 247.798 172.274C247.642 172.664 247.37 172.904 247.156 173.201C246.885 173.578 246.61 173.784 246.289 174.14C245.865 174.61 245.73 174.901 245.575 175.198C245.365 175.601 244.969 175.71 244.814 175.971C244.648 176.25 244.517 176.541 244.279 176.827C244.224 176.893 244.208 176.969 244.172 176.959C244.044 176.92 244.041 176.521 244.064 176.2C244.071 176.111 244.135 176.185 244.159 176.268C244.256 176.6 243.994 176.898 243.91 177.089C243.777 177.394 244.016 176.426 244.052 175.998C244.087 175.591 244.159 175.118 244.243 174.762C244.406 174.064 244.444 173.526 244.516 173.192C244.578 172.904 244.35 172.622 244.184 172.336C243.995 172.011 243.733 171.694 243.519 171.397C243.455 171.308 243.353 171.219 243.328 171.241C242.969 171.559 244.014 172.543 244.325 173.106C244.372 173.191 244.42 173.261 244.409 173.309C244.385 173.415 244.208 173.475 244.101 173.547C243.815 173.739 243.78 172.907 243.744 172.503C243.715 172.183 243.566 171.908 243.459 171.623C243.337 171.299 243.209 170.887 243.173 170.553C243.141 170.257 242.995 169.983 242.9 169.697C242.805 169.411 242.663 169.127 242.236 168.664C241.973 168.379 241.831 168.057 241.676 167.771C241.515 167.476 241.355 167.201 241.2 166.916C241.051 166.639 240.88 166.345 240.572 165.954C239.869 165.06 239.549 164.895 239.287 164.598C238.859 164.134 238.622 163.849 238.348 163.623C238.288 163.563 238.241 163.492 238.192 163.348" stroke="black" stroke-width="5" stroke-linecap="round"/>
<path d="M239.69 162.065C240.185 161.899 241.186 161.661 241.685 161.436C242.541 161.049 243.634 160.379 244.229 160.069C244.683 159.832 245.061 159.641 245.714 159.356C246.242 159.125 246.701 158.762 247.047 158.582C247.205 158.5 247.463 158.476 247.712 158.321C247.88 158.217 248.952 157.672 250.52 156.793C251.667 156.15 252.477 155.506 252.895 155.219C253.343 154.911 254.47 154.153 255.705 153.275C256.519 152.696 257.277 151.965 258.144 151.335C258.871 150.808 259.563 150.322 259.814 150.012C260.094 149.666 260.678 149.064 261.156 148.646C261.543 148.307 261.87 148.016 262.392 147.695C262.706 147.502 263.011 147.35 263.367 147.088C263.736 146.818 264.056 146.565 264.449 146.316C264.983 146.019 265.53 145.638 265.933 145.342C266.171 145.141 266.477 144.835 266.792 144.52" stroke="black" stroke-width="5" stroke-linecap="round"/>
<path d="M269.502 142.808C269.62 142.737 269.738 142.667 269.833 142.607C269.929 142.547 270 142.5 270.144 142.38" stroke="black" stroke-width="5" stroke-linecap="round"/>
<path d="M243.542 164.561C243.589 164.514 243.895 164.231 244.664 163.65C246.451 162.302 246.986 162.304 247.439 162.018C247.745 161.824 248.105 161.685 248.39 161.554C248.54 161.485 248.723 161.305 249.195 160.997C250.071 160.427 251.169 159.999 251.881 159.536C252.506 159.13 253.283 158.787 254.13 158.215C254.71 157.824 255.375 157.101 256.411 156.515C257.369 155.974 257.876 155.908 258.161 155.73C258.303 155.67 258.659 155.505 259.122 155.267C259.303 155.171 259.373 155.124 259.446 155.075" stroke="black" stroke-width="5" stroke-linecap="round"/>
<path d="M260.516 154.505L260.801 154.433" stroke="black" stroke-width="5" stroke-linecap="round"/>
<path d="M244.183 169.553C244.513 169.224 244.842 168.894 245.353 168.266C245.864 167.637 246.547 166.719 246.969 166.117C247.869 164.834 248.318 164.183 249.121 163.414C249.697 162.864 250.678 162.057 251.634 161.327C252.59 160.597 253.508 159.985 254.028 159.634C254.548 159.284 254.642 159.213 254.739 159.069" stroke="black" stroke-width="5" stroke-linecap="round"/>
<path d="M177.11 259.609C176.95 259.564 176.357 259.358 175.689 259.236C175.411 259.186 175.251 259.161 174.782 259.075C174.215 258.972 174.046 259.092 173.908 259.121C173.748 259.154 173.563 259.196 173.312 259.224C172.558 259.31 172.301 259.173 172.026 259.201C171.609 259.244 171.314 259.242 171.141 259.224C170.81 259.191 170.395 259.173 169.674 259.156C169.453 259.15 169.338 259.127 169.264 259.144C169.214 259.155 169.303 259.264 169.292 259.333C169.249 259.6 168.777 259.745 168.41 260.198C168.139 260.532 168.006 260.78 167.87 261.007C167.751 261.205 167.506 261.554 167.258 261.849C167.01 262.144 166.76 262.371 166.404 262.727C166.048 263.083 165.593 263.56 165.33 263.829C164.92 264.249 164.644 264.407 164.328 264.591C164.139 264.701 164.034 264.844 163.994 264.913C163.974 264.946 163.965 264.981 164.01 264.976C164.165 264.958 164.445 264.844 165.164 264.651C165.705 264.505 166.588 264.207 167.078 264.055C167.635 263.883 167.833 263.834 168.198 263.663C169.225 263.182 169.348 263.019 169.555 262.927C169.706 262.86 169.899 262.824 170.255 262.624C170.5 262.485 170.703 262.41 170.858 262.353C171.123 262.255 171.687 261.942 172.012 261.75C172.139 261.676 172.253 261.561 172.42 261.458C172.574 261.378 172.735 261.286 172.924 261.171C173.044 261.102 173.215 261.011 173.459 260.883" stroke="black" stroke-width="5" stroke-linecap="round"/>
<path d="M179.59 259.127C179.499 259.184 179.247 259.298 179.074 259.368C178.817 259.471 178.385 259.38 177.961 259.362C177.833 259.357 177.754 259.333 177.702 259.322C177.586 259.297 177.982 259.185 178.183 259.133C178.378 259.082 178.522 259.07 178.774 259.052C178.993 259.037 179.245 259.001 179.388 258.949C179.56 258.887 179.693 258.829 179.831 258.805C179.983 258.78 180.106 258.713 180.25 258.685C180.414 258.652 180.565 258.645 180.646 258.662C180.874 258.71 180.279 258.84 180.142 258.863C179.989 258.888 179.866 258.977 179.728 259.023C179.59 259.069 179.453 259.115 179.315 259.161C179.177 259.207 179.04 259.253 178.896 259.299C178.721 259.355 178.557 259.413 178.414 259.477C178.247 259.55 178.087 259.643 177.84 259.775C177.62 259.893 177.455 259.976 176.946 260.199C176.769 260.277 176.563 260.354 176.157 260.486C175.75 260.617 175.148 260.799 174.633 261.007C173.685 261.388 173.23 261.698 173.116 261.755C172.893 261.867 172.544 262.076 172.072 262.272C171.625 262.457 171.428 262.639 170.908 262.954C170.36 263.285 169.89 263.466 169.695 263.603C169.591 263.672 169.478 263.741 169.379 263.799C169.281 263.856 169.202 263.902 169.12 263.949" stroke="black" stroke-width="5" stroke-linecap="round"/>
<path d="M164.091 269.184C164.159 269.116 164.558 268.739 165.166 268.2C165.49 267.913 165.675 267.887 165.744 267.835C165.78 267.808 165.813 267.772 165.768 267.732C165.392 267.395 164.953 267.29 164.901 267.153C164.804 266.894 165.054 266.443 165.57 265.656C165.715 265.435 165.756 265.327 165.739 265.264C165.711 265.158 165.163 265.291 164.356 265.531C163.952 265.651 163.582 265.839 162.991 266.251C162.4 266.663 161.604 267.311 161.03 267.809C160.455 268.308 160.126 268.638 159.774 268.944C159.422 269.25 159.059 269.523 158.712 269.754C157.718 270.418 157.582 270.412 157.547 270.412C157.451 270.413 157.718 270.104 158.112 269.641C158.39 269.315 158.881 268.849 159.303 268.489C159.725 268.13 160.077 267.903 160.446 267.706C161.174 267.318 161.679 267.129 161.868 267.032C162.017 266.955 162.139 266.922 162.197 266.905C162.209 266.901 162.186 266.944 161.543 267.405C160.901 267.866 159.639 268.753 158.972 269.226C158.267 269.728 158.145 269.837 157.985 269.952C157.728 270.136 157.365 270.365 156.954 270.622C156.291 271.036 155.815 271.456 155.626 271.622C155.453 271.774 155.286 271.881 154.708 272.482C154.362 272.841 154.127 272.972 153.623 273.447C153.388 273.669 153.174 273.822 153.036 273.902C152.893 273.985 152.76 274.108 152.623 274.183C152.46 274.272 152.29 274.453 152.14 274.556C151.946 274.691 151.75 274.935 151.584 275.141C151.255 275.55 150.901 275.726 150.694 275.905C150.445 276.12 150.132 276.381 149.616 276.885C149.305 277.189 149.179 277.335 148.898 277.467C148.727 277.546 148.593 277.645 148.455 277.719C148.326 277.789 148.146 278 147.944 278.133C147.762 278.253 147.491 278.334 147.353 278.414C147.21 278.497 147.1 278.62 146.974 278.73C146.905 278.792 146.848 278.862 146.796 278.93C146.767 278.965 146.733 278.999 146.629 279.103" stroke="black" stroke-width="5" stroke-linecap="round"/>
<path d="M229 191L228.5 232.5" stroke="black"/>
<path d="M238.033 202.256C238.013 202.256 237.993 202.256 237.952 203.089C237.912 203.922 237.852 205.588 237.831 206.577C237.804 207.826 237.911 208.296 238.052 208.641C238.115 208.793 238.234 208.864 238.326 208.906C238.487 208.978 238.781 208.847 239.306 208.484C240.151 207.9 240.627 207.245 240.86 206.932C241.182 206.499 241.458 205.768 241.681 204.908C241.788 204.496 241.784 204.109 241.744 203.501C241.704 202.893 241.604 202.07 241.492 201.415C241.3 200.291 241.035 199.602 240.853 199.247C240.781 199.108 240.711 199.073 240.62 199.093C239.9 199.246 239.616 200.791 239.403 201.832C239.165 203 239.209 203.715 239.249 203.837C239.27 203.898 239.29 203.958 239.36 203.889C239.596 203.657 239.896 202.81 240.331 201.506C240.563 200.81 240.746 200.021 240.89 198.925C241.033 197.829 241.113 196.444 241.135 195.671C241.156 194.897 241.116 194.776 241.045 194.815C240.974 194.853 240.874 195.054 240.661 196.01C240.449 196.967 240.128 198.673 239.963 199.653C239.797 200.632 239.797 200.833 239.897 200.635C239.998 200.437 240.199 199.835 240.362 199.234C240.526 198.632 240.646 198.05 240.718 197.459C240.953 195.539 240.589 194.959 240.406 194.653C240.368 194.59 240.325 194.532 240.465 194.451C240.894 194.202 241.317 194.126 241.439 194.025C241.582 193.906 241.622 193.6 241.582 193.256C241.552 193.003 241.318 192.909 241.177 192.838C240.578 192.538 239.616 192.807 239.019 192.848C238.432 192.888 237.995 192.989 237.457 193.02C237.262 193.031 236.66 193.071 235.819 193.081C234.913 193.092 233.979 193.051 233.514 192.96C232.497 192.759 232.155 192.808 231.8 192.716C231.121 192.54 230.857 192.605 230.552 192.534C230.472 192.515 230.391 192.523 230.339 192.553C230.288 192.584 230.268 192.644 230.267 192.715C230.266 193.016 230.409 193.252 230.44 193.849C230.468 194.408 230.53 195.138 230.561 195.997C230.586 196.698 230.572 197.51 230.531 197.724C230.302 198.926 230.43 195.077 230.409 195.34C230.364 195.939 230.247 196.334 230.136 196.77C230.031 197.183 229.964 197.59 229.933 198.602C229.917 199.115 229.842 199.396 229.831 199.841C229.823 200.17 229.962 200.651 230.064 201.099C230.226 201.81 230.085 202.923 230.075 203.996C230.069 204.51 230.186 204.951 230.237 205.436C230.373 206.749 230.146 207.121 230.115 207.425C230.099 207.589 230.065 208.292 230.085 209.335C230.097 209.96 230.186 210.645 230.176 211.416C230.167 212.13 230.105 212.738 230.075 213.622C230.047 214.426 230.065 215.952 230.055 216.768C230.041 217.848 229.964 218.333 229.933 219.022C229.902 219.711 229.842 220.726 229.771 221.121C229.607 222.03 229.861 222.429 229.922 223.255C230.039 224.84 229.963 225.918 230.003 226.039C230.101 226.333 230.105 226.708 230.115 227.305C230.121 227.645 230.024 227.924 229.943 228.108C229.834 228.354 229.962 227.44 230.014 226.995C230.026 226.892 230.044 226.832 230.074 226.761C230.14 226.607 230.829 226.246 231.872 225.8C232.405 225.572 232.86 225.413 233.476 225.1C234.578 224.54 234.909 224.277 235.375 224.023C236.301 223.519 237.36 223.406 237.748 223.212C238.231 222.97 239.062 222.575 239.522 222.37C239.736 222.275 239.978 222.127 240.482 221.725C242.339 220.24 242.615 219.958 242.656 219.856C242.735 219.663 242.11 219.835 241.596 220.057C240.752 220.42 240.123 220.868 239.529 221.252C239.102 221.526 238.392 221.916 237.849 222.183C236.525 222.834 235.988 222.876 235.561 223.099C235.287 223.243 234.993 223.343 234.649 223.485C234.155 223.688 233.858 223.849 233.301 224.133C232.822 224.377 232.499 224.316 232.195 224.407C231.833 224.516 231.506 224.963 231.211 225.228C231.15 225.283 231.06 225.289 231.099 225.26C231.28 225.121 231.524 225.006 231.966 224.664C232.342 224.374 233.051 223.881 234.015 223.261C234.979 222.641 236.184 221.918 236.995 221.395C237.806 220.873 238.188 220.571 238.715 220.256C239.874 219.563 240.688 219.208 240.921 219.056C241.45 218.71 242.025 218.599 242.402 218.397C242.474 218.357 242.533 218.335 242.494 218.335C241.911 218.331 241.199 218.72 240.077 219.204C239.017 219.661 238.379 220.099 238.177 220.169C237.53 220.395 237.021 220.646 236.515 220.818C236 220.993 235.643 221.172 235.005 221.446C233.69 222.01 233.392 222.227 233.067 222.4C232.606 222.644 232.116 223.076 231.658 223.635C231.384 223.97 231.06 224.052 230.735 224.114C230.689 224.122 230.713 224.034 231.315 223.451C231.918 222.868 233.102 221.764 233.883 221.075C234.664 220.385 235.005 220.144 235.382 219.91C236.147 219.433 236.654 219.167 237.046 218.905C238.563 217.893 239.085 217.708 239.38 217.565C239.724 217.399 240.16 217.221 240.465 217.048C240.58 216.983 240.709 216.956 240.84 216.916C240.99 216.87 240.633 216.995 239.281 217.6C238.349 218.017 237.006 218.846 236.263 219.28C235.433 219.763 235.176 219.936 234.832 220.138C234.517 220.323 234.062 220.604 233.475 220.878C232.474 221.344 231.366 221.962 230.978 222.147C230.92 222.174 230.857 222.187 230.795 222.187C230.734 222.188 230.674 222.168 230.703 222.087C230.732 222.006 230.853 221.866 231.808 221.231C232.764 220.597 234.55 219.473 235.812 218.623C237.073 217.773 237.756 217.231 238.649 216.63C239.543 216.03 240.627 215.388 241.255 215.027C242.214 214.476 242.412 214.402 242.403 214.431C242.378 214.513 242.133 214.602 241.176 215.065C240.22 215.529 238.514 216.332 237.193 217.036C235.872 217.741 234.989 218.323 234.354 218.713C233.374 219.314 232.663 219.571 232.116 219.733C231.534 219.906 230.84 220.158 230.42 220.342C230.254 220.415 230.126 220.565 230.045 220.686C230.009 220.74 230.044 220.807 230.094 220.839C230.38 221.014 230.853 220.547 232.181 219.44C233.333 218.481 235.436 216.688 236.752 215.617C238.069 214.546 238.531 214.245 239.019 213.98C239.989 213.453 240.688 213.166 240.73 213.094C241.012 212.618 239.476 213.669 238.819 214.164C238.098 214.707 237.589 215.231 237.174 215.494C236.762 215.756 236.111 215.941 235.171 216.184C233.986 216.49 232.947 216.691 232.33 216.974C231.154 217.514 230.492 218.698 230.379 219.094C230.354 219.183 230.369 219.266 230.399 219.328C230.429 219.389 230.489 219.429 231.403 218.567C232.318 217.704 234.084 215.938 235.084 214.957C236.247 213.818 236.552 213.632 236.885 213.46C237.114 213.342 237.478 213.188 238.106 212.955C239.608 212.397 240.587 212.07 240.739 211.979C241.124 211.748 241.317 211.664 241.308 211.644C241.28 211.581 241.038 211.664 240.212 211.975C239.386 212.287 237.941 212.889 236.995 213.33C236.05 213.77 235.649 214.031 235.331 214.266C235.014 214.501 234.793 214.702 234.348 215.056C233.253 215.928 232.438 216.549 232.225 216.772C231.911 217.101 231.425 217.138 230.908 217.129C230.829 217.127 230.875 217.039 231.207 216.656C231.538 216.274 232.161 215.571 232.943 214.768C233.725 213.964 234.649 213.081 235.596 212.285C236.543 211.489 237.487 210.806 238.113 210.394C239.478 209.497 240.342 209.294 240.648 209.069C240.765 208.983 240.891 208.907 240.943 208.876C241.04 208.818 239.867 209.53 238.418 210.391C237.42 210.984 236.661 211.739 236.128 212.271C235.852 212.548 235.54 212.576 235.398 212.597C235.369 212.601 235.456 212.497 236.1 212.215C236.744 211.933 237.948 211.451 238.769 211.162C239.974 210.739 240.546 210.711 240.689 210.721C240.83 210.731 240.325 210.772 239.993 210.802C239.316 210.863 238.363 211.075 237.301 211.368C236.191 211.674 235.48 212.109 235.146 212.342C234.634 212.699 234.384 212.86 234.243 212.881C234.162 212.892 234.061 212.861 233.999 212.79C233.938 212.72 233.917 212.599 233.937 212.457C233.98 212.147 234.42 211.587 235.52 210.457C236.253 209.703 237.442 208.684 238.142 208.016C239.078 207.123 239.35 206.718 239.572 206.455C240.173 205.746 240.303 204.936 240.325 203.721C240.343 202.649 239.799 201.713 239.495 201.154C239.407 200.992 239.189 201.886 239.108 203.429C239.056 204.43 239.107 205.876 239.168 206.842C239.228 207.807 239.329 208.249 239.431 208.366C239.533 208.483 239.633 208.262 239.725 207.787C239.817 207.312 239.897 206.589 239.978 205.183C240.06 203.777 240.14 201.71 240.212 200.514C240.299 199.054 240.506 198.548 240.568 197.922C240.606 197.537 240.348 197.015 240.205 196.254C239.879 194.524 239.838 193.416 239.787 193.335C239.732 193.245 239.575 193.818 239.313 195.338C239.107 196.531 238.93 198.605 238.786 200.533C238.642 202.462 238.582 204.188 238.511 205.057C238.439 205.926 238.359 205.886 238.278 205.735C238.067 205.345 237.973 204.572 237.882 203.752C237.844 203.414 237.851 203.233 237.66 201.875C237.469 200.517 237.088 197.988 236.891 196.595C236.695 195.202 236.695 195.021 236.695 194.978C236.695 194.935 236.695 195.036 236.514 197.988C236.334 200.94 235.972 206.741 235.796 209.891C235.62 213.04 235.64 213.361 235.711 213.426C235.883 213.585 236.206 212.501 236.55 211.107C236.749 210.304 236.854 209.272 236.816 207.711C236.778 206.15 236.557 204.082 236.454 202.846C236.322 201.273 236.451 200.556 236.582 200.039C236.625 199.873 236.734 199.943 236.785 200.687C236.837 201.431 236.857 202.856 237.068 204.774C237.279 206.693 237.68 209.061 237.937 210.402C238.194 211.743 238.295 211.984 238.387 212.168C238.478 212.352 238.559 212.473 238.66 212.324C238.762 212.175 238.882 211.754 238.934 211.125C238.986 210.496 238.966 209.673 238.745 207.212C238.524 204.751 238.102 200.676 237.875 198.546C237.648 196.417 237.628 196.357 237.618 196.366C237.55 196.425 237.627 196.659 237.768 198.206C237.898 199.632 238.11 202.363 238.284 204.01C238.458 205.658 238.578 206.139 238.65 206.327C238.722 206.515 238.742 206.395 238.632 204.376C238.522 202.356 238.281 198.442 238.187 196.546C238.093 194.65 238.154 194.891 238.215 195.286C238.483 197.019 238.621 197.612 238.621 197.694C238.623 197.919 238.116 196.968 237.661 195.968C237.088 194.707 236.858 193.762 236.716 193.448C236.588 193.165 236.453 192.849 236.23 192.586C235.977 192.287 235.561 192.362 235.267 192.462C235.151 192.501 235.055 192.683 234.973 192.866C234.891 193.048 234.851 193.269 234.91 194.587C234.97 195.905 235.13 198.314 235.133 200.79C235.135 203.265 234.975 205.734 234.922 207.237C234.869 208.74 234.93 209.201 234.991 209.55C235.226 210.889 236.066 211.927 236.077 212.332C236.09 212.84 235.641 213.547 235.438 214.126C235.399 214.239 235.377 214.299 235.337 214.32C235.296 214.341 235.236 214.321 235.175 214.27C235.037 214.157 234.931 213.856 234.84 212.869C234.768 212.086 234.809 210.718 234.769 209.754C234.729 208.79 234.649 208.268 234.667 206.203C234.686 204.137 234.807 200.544 234.909 198.392C235.011 196.24 235.091 195.638 235.133 195.287C235.214 194.595 235.235 193.584 235.184 192.86C235.171 192.667 235.154 192.504 235.104 192.352C235.079 192.278 235.033 192.22 234.962 192.23C234.891 192.239 234.791 192.319 234.348 192.782C233.905 193.245 233.122 194.088 232.678 194.592C232.13 195.217 231.992 195.643 231.86 196.119C231.758 196.487 231.768 197.001 231.938 198.451C232.069 199.566 232.45 201.427 232.636 202.55C232.822 203.672 232.842 203.993 232.782 204.721C232.722 205.448 232.582 206.572 232.469 207.322C232.357 208.072 232.276 208.413 232.235 209.02C232.194 209.628 232.194 210.491 232.234 211.217C232.274 211.942 232.354 212.504 232.395 213.015C232.519 214.537 232.236 215.148 232.013 215.726C231.929 215.941 231.91 216.002 231.9 215.591C231.889 215.181 231.889 214.298 231.97 213.542C232.115 212.17 232.376 211.362 232.396 210.887C232.408 210.613 232.456 210.272 232.537 209.815C232.618 209.358 232.739 208.796 232.801 207.794C232.863 206.792 232.863 205.367 232.903 203.639C232.943 201.911 233.023 199.924 233.175 198.318C233.327 196.712 233.548 195.548 233.651 194.898C233.77 194.152 233.674 193.984 233.593 193.852C233.503 193.706 233.411 193.538 233.259 193.416C233.181 193.354 233.048 193.375 232.935 193.415C232.424 193.598 231.813 194.585 231.353 195.128C231.11 195.414 230.958 196.228 230.896 197.482C230.83 198.821 231.22 199.679 231.321 200.003C231.419 200.317 231.403 200.994 231.393 201.824C231.387 202.295 231.302 202.599 231.191 203.113C230.998 204.005 230.836 204.788 230.684 205.183C230.568 205.484 230.41 205.862 230.258 206.469C230.069 207.223 230.165 208.212 230.347 209.123C230.458 209.68 230.672 210.502 230.874 211.535C231.09 212.639 231.402 213.931 231.524 214.41C231.547 214.501 231.565 214.582 231.605 214.614C231.685 214.676 232.189 213.721 232.848 212.322C233.144 211.695 233.207 211.262 233.258 209.832C233.298 208.704 233.248 206.756 233.248 205.552C233.248 203.947 233.268 203.393 233.118 202.718C232.998 202.182 232.746 201.261 232.582 200.875C232.417 200.49 232.337 200.671 232.246 201.075C232.154 201.479 232.054 202.101 231.992 203.034C231.93 203.967 231.91 205.192 231.98 206.696C232.05 208.2 232.211 209.946 232.303 210.886C232.396 211.826 232.416 211.906 232.447 211.987C232.477 212.069 232.517 212.149 232.568 212.09C232.619 212.031 232.679 211.83 232.77 211.195C232.861 210.56 232.982 209.496 233.024 208.466C233.066 207.436 233.026 206.473 232.965 205.886C232.884 205.11 232.661 204.832 232.489 204.67C232.337 204.527 232.073 204.588 231.83 204.648C231.306 204.779 230.939 205.598 230.714 205.986C230.485 206.38 230.268 206.635 230.227 206.766C230.133 207.07 230.59 207.384 230.774 207.709C231.042 208.185 231.179 208.459 231.351 208.713C231.385 208.763 231.462 208.724 232.497 207.118C233.532 205.512 235.539 202.32 236.894 200.315C238.25 198.309 238.892 197.587 239.383 197.094C240.157 196.319 240.567 196.052 240.628 195.881C240.719 195.624 240.629 195.383 240.558 195.231C240.321 194.722 239.317 194.431 238.795 194.187C238.307 193.959 238.217 193.639 237.963 193.568C237.817 193.527 237.348 193.698 236.619 194.001C235.942 194.283 235.34 194.671 234.642 194.914C233.366 195.359 232.945 195.099 232.368 194.897C231.981 194.761 231.689 194.612 231.374 194.511C230.941 194.372 230.674 194.247 230.269 194.247C230.077 194.246 229.943 194.408 229.842 194.53C229.795 194.586 229.781 194.651 229.781 194.732C229.779 195.295 230.388 195.868 230.49 196.121C230.617 196.437 230.591 196.78 230.622 197.347C230.635 197.592 230.673 197.915 230.723 198.55C230.804 199.575 230.977 200.328 230.987 200.622C230.998 200.936 231.038 201.261 231.048 201.574C231.057 201.869 231.099 202.153 231.189 203.751C231.271 205.209 231.46 207.979 231.533 209.627C231.625 211.714 231.484 212.271 231.433 212.484C231.322 212.948 231.644 213.948 231.948 215.364C232.214 216.605 232.194 217.36 232.184 217.633C232.153 218.473 232.093 219.53 232.001 219.894C231.814 220.641 231.667 221.293 231.475 221.901C231.295 222.469 231.1 223.075 230.937 223.645C230.896 224.214 230.855 224.477 230.845 224.72C230.835 224.823 230.815 224.883 230.794 224.945" stroke="black" stroke-width="2" stroke-linecap="round"/>
<path d="M227.753 168.679C227.934 168.537 228.339 168.294 229.697 167.821C230.886 167.407 233.122 166.726 234.32 166.354C235.776 165.902 236.105 165.84 236.541 165.648C236.833 165.519 236.998 165.253 237.252 164.979C237.305 164.922 237.263 164.848 237.202 164.807C236.852 164.569 236.191 164.603 235.683 164.553C235.117 164.496 234.751 164.643 234.425 164.724C233.931 164.848 233.19 164.906 232.632 165.28C231.832 165.817 231.647 166.103 231.404 166.245C231.15 166.392 230.998 166.609 230.846 166.843C230.672 167.11 230.269 167.278 229.944 167.522C229.644 167.747 229.457 168.008 229.274 168.302C229.091 168.596 228.929 168.921 228.899 169.417C228.854 170.134 228.888 171.232 228.969 171.597C229.063 172.02 229.131 172.388 229.273 172.692C229.415 172.997 229.496 173.239 229.577 173.483C229.679 173.787 229.8 174.192 229.942 174.597C230.116 175.095 230.125 175.71 230.176 176.23C230.198 176.461 230.206 176.647 230.237 177.24C230.315 178.774 230.227 179.89 230.196 180.183C230.097 181.143 230.287 181.391 230.318 181.786C230.33 181.94 230.369 182.381 230.359 182.989C230.343 183.922 230.268 185.303 230.186 185.689C230.114 186.031 230.165 186.439 230.136 186.894C230.08 187.736 230.186 188.222 230.126 188.619C230.085 188.883 229.963 189.116 229.923 189.501C229.863 190.063 229.659 190.534 229.588 190.869C229.485 191.357 229.517 191.75 229.637 191.995C230.08 192.895 230.712 190.883 231.036 190.507C231.371 190.12 231.645 189.747 231.888 189.453C232.185 189.095 232.415 188.734 232.922 188.186C233.381 187.689 233.956 187.09 234.321 186.847C234.834 186.505 235.192 185.835 235.679 185.448C236.201 185.034 236.651 184.679 237.209 184.273C237.722 183.9 238.173 183.441 238.607 183.128C239.454 182.518 239.754 182.204 240.16 181.829C240.661 181.367 241.155 180.846 241.771 180.198C242.086 179.868 242.31 179.528 242.393 179.304C242.575 178.806 241.198 179.95 239.873 180.881C239.051 181.459 238.135 182.12 237.791 182.465C237.23 183.027 236.657 183.661 236.159 184.107C235.726 184.496 235.237 185.058 234.821 185.647C234.144 186.604 233.371 187.068 233.026 187.291C232.591 187.573 232.175 187.919 231.88 188.163C231.576 188.415 231.283 188.81 230.978 189.046C230.873 189.126 230.734 189.157 230.653 189.178C230.262 189.277 230.633 188.206 230.551 187.962C230.511 187.841 230.53 187.678 230.621 187.516C230.796 187.205 231.721 186.748 232.724 186.05C233.178 185.734 233.465 185.413 233.821 184.996C234.604 184.08 235.132 183.38 235.375 183.127C235.857 182.626 236.45 182.041 237.289 181.243C237.817 180.741 238.314 180.482 238.802 180.136C239.269 179.804 239.816 179.386 240.16 179.092C240.512 178.791 241.793 177.872 242.574 177.256C242.698 177.158 242.757 177.013 242.788 176.911C242.8 176.871 242.718 176.85 242.627 176.86C242.193 176.906 241.686 177.193 240.25 177.961C239.12 178.565 238.44 179.181 238.127 179.433C237.443 179.984 237.203 180.315 236.888 180.641C236.545 180.995 235.967 181.633 235.631 182.069C235.273 182.536 234.651 183.01 234.252 183.368C233.626 183.931 232.803 184.656 232.125 185.131C231.626 185.48 231.364 185.709 231.069 185.853C230.184 186.285 231.18 184.314 231.199 183.897C231.214 183.585 231.726 183.622 232.219 183.381C233.407 182.8 234.22 182.244 234.743 181.781C235.192 181.385 235.989 180.636 236.563 180.133C237.138 179.63 237.459 179.389 237.815 179.064C238.58 178.367 239.246 177.664 239.783 177.208C240.415 176.671 240.729 176.466 241.113 176.091C241.726 175.494 241.965 175.209 242.239 174.844C242.477 174.527 242.776 174.377 242.91 174.285C243.083 174.166 242.334 174.335 241.437 174.838C240.718 175.241 239.557 176.103 238.716 176.698C237.407 177.624 236.838 178.106 236.656 178.308C236.329 178.671 235.844 179.119 235.298 179.626C235.011 179.892 234.709 180.113 234.345 180.326C233.498 180.82 233.148 181.107 232.843 181.269C232.507 181.449 232.135 181.634 231.809 181.847C231.369 182.135 230.918 182.465 230.613 182.719C230.552 182.77 230.491 182.81 230.46 182.58C230.363 181.854 230.49 181.271 230.631 181.149C231.112 180.737 232.41 180.341 233.255 179.953C233.691 179.754 234.138 179.446 235.044 178.802C235.735 178.312 236.794 177.355 237.373 176.849C238.187 176.138 238.559 175.615 238.843 175.27C239.255 174.768 239.613 174.438 240.573 173.65C241.391 172.979 241.681 172.331 241.885 172.015C241.997 171.841 242.149 171.721 242.129 171.67C242.108 171.613 241.909 171.759 241.144 172.312C240.379 172.865 239.014 173.889 238.22 174.517C237.217 175.31 236.819 175.753 236.374 176.117C235.753 176.625 235.358 176.788 234.508 177.102C233.933 177.315 233.19 177.821 232.55 178.399C232.234 178.685 231.911 178.796 231.465 179.069C231.345 179.143 231.223 179.201 231.14 179.192C230.99 179.175 230.977 178.437 231.057 177.515C231.087 177.167 231.298 177.095 231.411 177.043C231.768 176.881 232.353 176.81 232.699 176.648C232.879 176.563 233.446 176.204 234.326 175.567C235.132 174.984 235.518 174.58 235.629 174.448C235.777 174.274 236.406 173.732 237.347 172.852C238.123 172.125 238.56 171.781 238.791 171.54C239.288 171.02 239.856 170.626 240.31 170.364C241.373 169.749 242.063 169.311 242.463 168.812C242.528 168.73 242.554 168.64 242.524 168.568C242.495 168.497 242.394 168.436 242.282 168.415C241.849 168.334 241.362 168.637 240.108 169.323C238.877 169.997 238.176 170.665 237.984 170.756C237.618 170.929 237.305 171.413 236.859 171.83C236.222 172.423 235.824 172.915 235.641 173.087C235.581 173.145 235.659 173.199 235.751 173.2C235.966 173.201 236.287 173.079 236.782 172.948C237.472 172.765 238.111 172.511 238.878 172.3C241.037 171.704 241.317 171.517 241.328 171.517C241.553 171.511 240.852 171.639 240.64 171.589C240.404 171.532 240.203 171.396 240.031 171.134C239.512 170.342 239.675 169.454 239.635 168.704C239.622 168.452 239.515 168.475 239.393 168.566C239.09 168.792 238.885 169.063 238.613 169.375C238.062 170.009 237.588 170.442 237.265 170.784C236.57 171.522 235.947 172.326 235.471 172.731C235.13 173.021 234.509 173.339 233.81 173.815C233.148 174.266 232.642 174.738 232.074 175.216C231.914 175.351 231.809 175.491 231.657 175.552C231.523 175.606 231.504 174.447 231.524 172.886C231.537 171.913 231.119 171.66 230.977 171.407C230.818 171.121 230.794 169.705 230.734 168.852C230.729 168.778 230.693 168.7 230.653 168.709C230.508 168.741 230.45 169.203 230.389 169.94C230.301 171.015 230.389 171.82 230.449 172.204C230.654 173.503 231.139 174.658 231.26 175.054C231.311 175.22 231.301 175.369 231.362 175.49C231.394 175.556 231.462 175.612 231.503 175.553C231.852 175.049 231.625 174.218 231.656 173.608C231.67 173.323 231.847 172.517 232.08 171.223C232.414 169.368 232.315 168.985 232.406 168.669C232.422 168.612 232.536 168.658 232.598 168.708C232.726 168.814 232.841 169.263 233.094 170.443C233.272 171.276 233.446 172.606 233.58 173.378C233.796 174.63 233.897 174.903 233.907 175.054C233.911 175.126 233.937 175.186 233.947 175.056C233.957 174.927 233.957 174.606 233.877 174.029C233.797 173.452 233.636 172.629 233.503 172.034C233.293 171.093 233.147 170.566 233.116 170.192C233.041 169.272 233.268 168.497 233.369 168.294C233.389 168.253 233.47 168.293 233.521 168.384C233.652 168.616 233.774 169.623 234.016 171.051C234.294 172.686 234.929 173.239 235.123 173.493C235.236 173.643 235.336 173.788 235.427 173.788C235.505 173.789 235.538 173.549 235.589 172.934C235.64 172.319 235.68 171.275 235.681 170.496C235.682 169.235 235.52 168.358 235.388 167.73C235.315 167.383 235.276 167.219 235.245 167.188C234.678 166.61 235.882 169.365 236.065 169.863C236.353 170.643 236.471 170.968 236.593 171.313C236.629 171.416 236.694 171.535 236.755 171.587C236.816 171.639 236.876 171.619 236.987 171.368C237.099 171.117 237.259 170.635 237.352 169.855C237.445 169.075 237.465 168.011 237.455 167.432C237.445 166.854 237.405 166.794 237.354 166.733C237.249 166.606 237.101 166.529 236.889 166.499C236.58 166.455 236.21 166.529 235.705 166.68C234.081 167.167 233.471 167.725 233.45 167.746C232.771 168.405 235.861 167.806 236.358 167.837C236.551 167.867 236.734 167.908 237.017 167.938C237.199 167.949 237.46 167.949 237.85 168.009" stroke="black" stroke-width="2" stroke-linecap="round"/>
<path d="M323.026 144.168H112.107C97.173 144.168 85.0664 158.159 85.0664 175.418V237.918C85.0664 255.177 97.173 269.168 112.107 269.168H323.026C337.96 269.168 350.066 255.177 350.066 237.918V175.418C350.066 158.159 337.96 144.168 323.026 144.168Z" stroke="black" stroke-width="10" stroke-linecap="round" stroke-linejoin="round"/>
<path d="M229 191.5C229.708 177.007 228.873 171.866 226 166" stroke="black"/>
</svg>
