<svg width="427" height="442" viewBox="0 0 427 442" fill="none" xmlns="http://www.w3.org/2000/svg">
<path d="M323.026 144.168H112.107C97.173 144.168 85.0664 158.159 85.0664 175.418V237.918C85.0664 255.177 97.173 269.168 112.107 269.168H323.026C337.96 269.168 350.066 255.177 350.066 237.918V175.418C350.066 158.159 337.96 144.168 323.026 144.168Z" stroke="black" stroke-width="10" stroke-linecap="round" stroke-linejoin="round"/>
<rect x="100" y="157" width="188" height="100" rx="20" fill="black"/>
<path d="M351 177V177C358.732 177 365 183.268 365 191V225C365 232.732 358.732 239 351 239V239V177Z" fill="black"/>
<path d="M233.954 188.49L231.498 191.034L235.034 191.031L289.127 190.995L132.9 289.363L209.422 213.958L212.031 211.387L208.368 211.389L154.049 211.43L296.653 123.523L233.954 188.49Z" fill="white" stroke="black" stroke-width="3"/>
<path d="M262.5 157.5H239.729" stroke="black"/>
<path d="M251.45 154.355C251.583 154.331 251.875 154.234 252.07 154.155C252.422 154.012 252.641 153.942 252.903 153.851C253.194 153.749 253.541 153.674 253.712 153.614C253.802 153.582 253.859 153.504 253.998 153.468C254.267 153.397 254.551 153.358 255.516 153.316C256.373 153.278 257.975 153.237 258.824 153.218C259.674 153.2 259.722 153.212 259.488 153.278C259.254 153.344 258.736 153.465 258.318 153.527C257.227 153.689 256.95 153.625 256.61 153.668C256.332 153.702 256.196 153.82 255.88 153.905C255.292 154.064 255.101 154.124 254.924 154.142C254.755 154.16 254.626 154.221 254.625 154.222C254.301 154.33 255.268 154.076 255.525 154.033C255.692 154.005 255.829 154.039 255.866 154.063C256.12 154.231 254.883 154.124 254.36 154.245C253.89 154.354 253.568 154.586 253.355 154.702C253.304 154.73 253.252 154.72 253.263 154.702C253.385 154.507 253.687 154.526 253.913 154.465C254.061 154.425 254.223 154.416 254.375 154.386C254.541 154.353 255.119 154.319 255.904 154.307C256.488 154.298 256.875 154.27 257.306 154.288C257.524 154.298 257.715 154.38 257.934 154.398C258.097 154.412 258.599 154.465 258.938 154.495C259.126 154.512 259.369 154.562 260.63 154.586C261.113 154.596 261.689 154.479 262.125 154.265C262.215 154.22 262.482 154.053 262.937 153.707C263.416 153.344 263.797 152.946 264.137 152.721C264.371 152.566 264.66 152.398 265.043 152.101C265.477 151.763 265.781 151.437 265.957 151.248C266.192 150.996 266.714 150.479 267.179 150.032C267.971 149.271 268.129 149.04 268.33 148.845C268.485 148.694 268.567 148.492 269.172 148.063C269.555 147.79 270.197 147.261 270.586 146.964C271.073 146.593 271.352 146.473 271.764 146.279C272.371 145.993 272.776 145.779 272.88 145.694C272.936 145.647 272.995 145.585 272.953 145.542C272.668 145.244 272.219 145.559 271.608 145.71C271.176 145.817 270.503 146.018 269.927 146.153C268.9 146.395 268.373 146.46 268.204 146.52C267.898 146.63 267.655 146.666 267.607 146.667C267.589 146.667 267.606 146.619 267.649 146.576C267.751 146.472 268.139 146.315 268.739 146.048C269.35 145.777 269.638 145.523 269.614 145.469C269.565 145.357 269.262 145.51 268.718 145.782C268.314 145.984 267.668 146.355 267.303 146.565C266.872 146.814 266.551 147.042 266.083 147.328C265.883 147.45 265.748 147.505 265.228 147.819C264.708 148.133 263.805 148.699 263.297 149.009C262.595 149.437 262.316 149.537 261.738 149.841C261.457 149.989 261.318 150.182 261.117 150.419C260.884 150.694 260.37 150.923 259.915 151.178C259.516 151.401 259.444 151.593 259.298 151.721C259.139 151.813 258.849 151.837 258.641 151.873C258.604 151.886 258.568 151.898 258.494 151.91" stroke="black" stroke-width="6" stroke-linecap="round"/>
<path d="M269.699 143.735C269.82 143.723 270.111 143.626 270.379 143.534C270.702 143.424 271.36 143.02 271.863 142.726C272.345 142.444 272.582 142.215 272.728 142.087C272.918 141.919 273.249 141.643 273.53 141.521C273.736 141.431 273.992 141.278 274.291 141.01C274.551 140.777 274.916 140.464 275.469 140.074C275.785 139.852 276.193 139.467 276.751 138.969C277.354 138.432 277.837 138.2 277.965 138.096C278.053 138.025 278.154 137.944 278.275 137.829C278.391 137.719 278.928 137.375 279.73 136.864C280.239 136.54 280.477 136.399 280.647 136.29C280.952 136.094 281.412 135.78 281.946 135.361C282.839 134.661 283.165 134.574 283.409 134.428C283.653 134.282 283.859 134.014 284.193 133.699C284.424 133.481 284.831 133.213 285.07 133.005C285.271 132.859 285.562 132.617 285.763 132.445C285.806 132.409 285.854 132.36 285.94 132.311" stroke="black" stroke-width="6" stroke-linecap="round"/>
<path d="M249.954 156.253C249.263 156.302 248.629 156.35 248.325 156.369C248.079 156.384 247.911 156.423 247.734 156.424C247.454 156.424 246.951 156.411 246.676 156.502C246.485 156.566 246.341 156.642 246.05 156.643C245.876 156.643 245.757 156.57 245.732 156.533C245.679 156.456 246.42 156.267 247.386 155.951C248.067 155.729 248.359 155.548 248.535 155.481C248.867 155.331 249.126 155.219 249.319 155.141C249.465 155.074 249.705 154.954 250.027 154.83" stroke="black" stroke-width="2" stroke-linecap="round"/>
<path d="M166.495 255.799H187.824" stroke="black" stroke-width="2" stroke-linecap="round"/>
<path d="M182.408 256.906C182.12 257.061 181.832 257.216 181.219 257.512C180.605 257.808 179.675 258.239 178.847 258.578C178.019 258.917 177.322 259.149 176.929 259.291C176.463 259.46 176.346 259.545 175.504 260.044C174.712 260.512 173.2 261.45 172.374 261.946C171.469 262.49 171.324 262.531 171.268 262.548C171.256 262.552 171.279 262.51 171.489 262.343C171.7 262.177 172.099 261.878 173.074 261.358C174.049 260.839 175.588 260.108 176.458 259.704C177.328 259.3 177.483 259.245 177.669 259.172C178.066 259.015 178.358 258.897 178.608 258.803C179.473 258.476 179.701 258.115 179.89 257.947C179.997 257.852 180.103 257.79 180.148 257.734C180.272 257.58 179.836 257.521 179.651 257.465C179.548 257.434 179.256 257.665 178.66 258.027C178.303 258.244 177.81 258.489 177.525 258.631C177.241 258.774 177.175 258.796 176.222 259.422C175.268 260.048 173.43 261.277 172.45 261.937C171.399 262.646 171.291 262.733 171.213 262.739C171.175 262.741 171.157 262.667 171.217 262.544C171.382 262.211 171.692 261.918 172.02 261.617C172.222 261.432 172.515 261.205 173.383 260.654C174.251 260.102 175.69 259.239 176.493 258.738C177.433 258.152 177.609 257.98 177.793 257.874C178.085 257.706 178.48 257.455 178.793 257.271C178.882 257.219 178.797 257.208 178.696 257.23C178.469 257.28 178.281 257.386 177.455 257.896C176.697 258.365 175.245 259.248 174.183 259.92C173.12 260.592 172.489 261.024 172.097 261.28C171.354 261.765 171.067 261.938 170.849 262.062C170.801 262.089 170.765 262.095 170.737 262.079C170.709 262.062 170.687 262.018 170.692 261.951C170.716 261.646 170.898 261.47 171.176 261.137C171.378 260.894 171.742 260.537 172.068 260.233C172.395 259.928 172.683 259.696 173.374 259.221C174.064 258.747 175.149 258.039 175.731 257.663C176.353 257.26 176.546 257.142 176.797 256.969C177.088 256.768 177.207 256.638 177.218 256.615C177.229 256.594 177.119 256.681 176.586 256.959C176.054 257.236 175.068 257.735 174.107 258.296C173.145 258.857 172.237 259.466 171.36 260.167C170.482 260.869 169.663 261.644 169.224 262.054C168.785 262.464 168.752 262.487 168.719 262.503C168.685 262.52 168.652 262.531 168.657 262.476C168.673 262.293 168.995 261.886 169.514 261.317C169.779 261.026 170.088 260.77 170.48 260.456C170.872 260.142 171.348 259.787 171.87 259.428C172.392 259.068 172.946 258.714 173.275 258.493C173.835 258.116 173.996 257.936 174.192 257.712C174.368 257.512 174.433 257.376 174.584 257.131C174.644 257.032 174.724 256.962 174.724 256.934C174.725 256.898 174.592 257.027 173.815 257.494C173.039 257.96 171.588 258.812 170.664 259.396C169.739 259.979 169.385 260.267 169.025 260.598C168.666 260.929 168.311 261.294 168.112 261.504C167.782 261.853 167.589 262.083 167.399 262.23C167.372 262.25 167.354 262.186 167.403 262.069C167.453 261.952 167.564 261.764 168.075 261.163C168.586 260.562 169.494 259.555 170.067 258.881C170.64 258.206 170.85 257.896 171.047 257.587C171.431 256.985 171.681 256.594 171.782 256.504C171.815 256.474 171.35 256.925 170.641 257.55C170.309 257.842 170.076 258.131 169.901 258.351C169.432 258.94 169.323 259.265 169.239 259.421C169.225 259.447 169.51 259.234 170.382 258.628C171.018 258.186 172.108 257.568 172.677 257.231C173.277 256.877 173.348 256.85 173.354 256.828C173.361 256.802 173.238 256.85 172.827 257.005C172.416 257.16 171.685 257.448 170.988 257.68C170.29 257.911 169.648 258.077 169.207 258.168C168.55 258.304 168.171 258.271 167.854 258.209C167.083 258.061 166.706 257.689 166.516 257.578C166.447 257.537 166.481 257.466 166.52 257.421C166.787 257.112 167.397 257.052 167.939 257.046C168.203 257.043 168.382 257.018 168.572 256.973C168.617 256.963 168.65 256.951 168.667 256.962C168.684 256.973 168.684 257.006 168.668 257.04C168.651 257.073 168.618 257.107 168.302 257.373C167.986 257.639 167.388 258.137 167.041 258.422C166.694 258.706 166.617 258.761 166.594 258.79C166.57 258.818 166.603 258.818 167.246 258.392C167.889 257.966 169.14 257.113 169.231 257.167C169.322 257.22 168.215 258.206 167.312 259.101C166.41 259.996 165.745 260.771 165.392 261.193C165.008 261.651 164.96 261.748 164.871 261.849C164.819 261.908 164.738 261.971 163.69 262.686C162.643 263.402 160.628 264.763 159.318 265.753C158.009 266.742 157.466 267.318 157.159 267.659C156.852 268 156.797 268.089 156.746 268.19C156.695 268.291 156.651 268.401 157.088 268.06C157.524 267.718 158.443 266.921 159.731 265.851C161.018 264.782 162.646 263.464 163.722 262.547C164.799 261.631 165.275 261.154 165.581 260.87C166.173 260.321 166.47 260.328 166.465 260.312C166.369 259.997 165.879 260.261 165.179 260.516C164.626 260.718 163.704 261.148 163.164 261.398C162.494 261.708 162.266 261.927 162.07 262.161C161.907 262.356 161.762 262.753 161.545 263.266C161.252 263.958 161.124 264.119 160.912 264.554C160.667 265.058 160.398 265.627 160.241 266.057C160.182 266.221 160.173 266.277 160.184 266.306C160.195 266.334 160.228 266.334 160.937 265.316C161.647 264.297 163.031 262.26 163.782 261.171C164.596 259.994 164.725 259.904 164.792 259.87C164.932 259.8 165.216 259.948 165.807 259.937C166.01 259.933 166.253 259.871 166.256 259.925C166.26 259.98 166.016 260.135 165.592 260.475C165.167 260.815 164.569 261.336 163.614 262.329C162.658 263.322 161.362 264.773 160.38 265.941C159.397 267.109 158.765 267.95 158.413 268.412C157.93 269.042 157.78 269.164 157.64 269.214C157.603 269.228 157.557 269.22 157.517 269.209C157.478 269.198 157.445 269.176 157.428 269.148C157.395 269.093 157.444 268.986 157.555 268.797C157.738 268.486 157.991 268.203 158.585 267.814C159.052 267.508 159.921 267.093 160.925 266.665C161.929 266.238 163.058 265.839 163.745 265.578C164.432 265.318 164.643 265.207 165.011 264.962C165.38 264.716 165.9 264.34 166.478 263.886C167.056 263.432 167.677 262.911 168.096 262.588C168.92 261.951 169.142 261.995 169.21 261.984C169.233 261.98 168.866 262.006 168.336 262.017C167.904 262.026 167.623 262.073 167.389 262.09C167.042 262.114 166.629 262.24 166.039 262.49C165.65 262.655 165.116 262.973 164.532 263.365C163.948 263.757 163.339 264.233 163.004 264.506C162.668 264.779 162.623 264.835 162.65 264.846C162.768 264.898 162.924 264.758 163.871 264.165C164.772 263.601 166.535 262.52 167.47 261.933C168.404 261.347 168.46 261.291 168.405 261.307C168.351 261.323 168.185 261.411 166.521 262.603C164.858 263.795 161.702 266.087 159.949 267.395C158.196 268.703 157.941 268.958 157.777 269.133C157.613 269.309 157.546 269.397 157.528 269.443C157.511 269.488 157.544 269.488 159.416 268.525C161.288 267.562 164.997 265.635 166.935 264.637C168.874 263.639 168.929 263.628 169.202 263.622C169.961 263.606 170.496 263.606 170.524 263.622C170.616 263.675 170.23 263.917 169.142 264.495C168.264 264.961 166.681 265.693 165.633 266.247C164.585 266.801 164.108 267.133 163.819 267.343C163.434 267.622 163.15 267.92 162.743 268.317C162.543 268.511 162.325 268.658 162.089 268.793C161.853 268.928 161.599 269.039 161.257 269.168C160.916 269.297 160.495 269.441 160.167 269.576C159.84 269.711 159.618 269.833 159.266 270.073C158.914 270.312 158.438 270.667 158.093 270.943C157.748 271.22 157.549 271.408 157.352 271.605C156.751 272.239 156.639 272.351 156.538 272.474C156.516 272.508 156.494 272.541 156.438 272.609" stroke="black" stroke-width="2" stroke-linecap="round"/>
<path d="M155.834 273.079C155.811 273.09 155.789 273.101 155.241 273.483C154.692 273.865 153.618 274.618 152.827 275.139C152.036 275.66 151.56 275.925 151.276 276.079C150.918 276.272 150.679 276.399 150.428 276.556C150.303 276.633 150.064 276.746 149.696 276.964C149.381 277.15 149.18 277.35 148.924 277.584C148.482 277.988 148.139 278.234 148.033 278.296C147.688 278.495 147.269 278.893 147.004 279.151C146.808 279.342 146.508 279.73 146.238 279.995C146.073 280.158 145.725 280.392 145.234 280.626C144.488 280.983 144.292 280.974 144.196 281.103C144.144 281.174 144.157 281.276 144.151 281.36C144.149 281.4 144.135 281.433 144.257 281.14C144.378 280.847 144.633 280.227 144.902 279.675C145.172 279.123 145.449 278.658 145.614 278.396C145.811 278.083 146.068 277.79 146.386 277.376C146.547 277.168 146.706 276.983 147.034 276.71C147.463 276.354 147.935 276.022 148.337 275.665C148.545 275.48 148.783 275.308 149.218 274.918C149.653 274.527 150.285 273.93 150.632 273.594C150.979 273.258 151.023 273.203 151.306 272.925C151.589 272.647 152.11 272.149 152.411 271.876C152.766 271.554 152.958 271.458 153.297 271.229C153.525 271.077 153.869 270.857 154.467 270.428C155.065 269.998 155.906 269.367 156.389 269.014C157.086 268.506 157.264 268.471 157.383 268.409C157.41 268.394 157.289 268.525 156.369 269.345C155.449 270.166 153.688 271.716 152.621 272.692C151.553 273.668 151.232 274.022 150.895 274.343C150.239 274.968 149.817 275.281 149.678 275.432C149.173 275.977 148.788 276.355 148.709 276.467C148.687 276.5 148.876 276.301 149.121 276.083C149.249 275.97 149.367 275.833 150.631 274.845C151.895 273.858 154.297 272.02 155.718 270.846C157.138 269.672 157.504 269.218 157.914 268.683" stroke="black" stroke-width="2" stroke-linecap="round"/>
</svg>
