<svg width="399" height="287" viewBox="0 0 399 287" fill="none" xmlns="http://www.w3.org/2000/svg">
<path d="M323.026 66.168H112.107C97.173 66.168 85.0664 80.1591 85.0664 97.418V159.918C85.0664 177.177 97.173 191.168 112.107 191.168H323.026C337.96 191.168 350.066 177.177 350.066 159.918V97.418C350.066 80.1591 337.96 66.168 323.026 66.168Z" stroke="white" stroke-width="10" stroke-linecap="round" stroke-linejoin="round"/>
<path d="M351 99C358.732 99 365 105.268 365 113V147C365 154.732 358.732 161 351 161V99Z" fill="white"/>
<path d="M234.954 110.49L232.498 113.034L236.034 113.031L290.127 112.995L133.9 211.363L210.422 135.958L213.031 133.387L209.368 133.389L155.049 133.43L297.653 45.5234L234.954 110.49Z" fill="black" stroke="white" stroke-width="3"/>
<path d="M188.5 178.5H168.5" stroke="white"/>
<path d="M241.5 105C242.284 96.1834 241.076 91.8359 235 85.5" stroke="white"/>
<path d="M241.5 113V145" stroke="white"/>
<path d="M244.582 128.111C244.327 127.969 244.167 127.854 244.117 127.761C243.983 127.512 244.095 127.026 244.224 126.432C244.282 125.994 244.296 125.751 244.324 125.665C244.339 125.622 244.353 125.579 244.367 125.535" stroke="white" stroke-width="2" stroke-linecap="round"/>
<path d="M245.226 116.521C245.17 116.564 244.97 116.508 244.755 116.436C244.544 116.365 244.411 116.35 244.333 116.328C244.154 116.28 244.139 116.007 244.046 115.899C243.873 115.699 244.124 116.562 244.196 116.821C244.21 116.864 244.224 116.907 244.232 116.985C244.239 117.064 244.239 117.177 244.239 117.294" stroke="white" stroke-width="5" stroke-linecap="round"/>
<path d="M245.526 120.084C245.866 120.027 246.206 119.971 247.961 119.552C249.715 119.133 252.874 118.354 254.771 117.932C256.667 117.509 257.205 117.467 257.582 117.452C257.958 117.437 258.156 117.451 258.485 117.522C258.814 117.593 259.267 117.721 259.685 117.864C260.48 118.138 260.907 118.338 261.064 118.388C261.553 118.544 261.865 118.582 262.286 118.617C262.993 118.677 263.253 118.582 263.361 118.575C263.384 118.573 263.341 118.553 262.802 118.525C262.263 118.496 261.229 118.454 259.775 118.503C258.322 118.552 256.481 118.693 255.489 118.759C254.498 118.825 254.413 118.811 254.348 118.797C254.283 118.782 254.241 118.768 254.283 118.74C254.325 118.711 254.452 118.668 255.828 118.597C257.204 118.526 259.824 118.426 261.514 118.425C263.204 118.423 263.884 118.523 264.277 118.595C264.76 118.684 264.899 118.768 264.963 118.803C264.984 118.814 264.929 118.853 264.865 118.889C264.8 118.925 264.715 118.967 261.966 119.903C259.217 120.838 253.806 122.666 250.678 123.77C247.551 124.874 246.871 125.2 246.492 125.389C246.114 125.578 246.057 125.62 246.07 125.642C246.084 125.664 246.169 125.664 247.905 125.069C249.642 124.474 253.027 123.285 255.125 122.495C257.223 121.705 257.931 121.35 258.431 121.111C259.193 120.746 259.59 120.614 259.783 120.571C259.862 120.553 259.905 120.556 259.899 120.599C259.892 120.641 259.836 120.726 258.737 121.634C257.638 122.542 255.499 124.27 254.355 125.224C253.097 126.273 253.01 126.536 252.967 126.708C252.939 126.82 252.966 126.909 253.009 126.994C253.032 127.041 253.08 127.08 253.159 127.102C253.345 127.154 253.538 127.095 254.332 126.635C255.062 126.212 256.43 125.366 257.598 124.73C258.766 124.095 259.687 123.684 260.268 123.458C261.044 123.156 261.365 123.175 261.408 123.238C261.451 123.301 261.197 123.43 259.537 124.395C257.877 125.36 254.733 127.159 253.084 128.107C251.436 129.055 251.38 129.097 252.625 128.56C253.871 128.022 256.421 126.903 258.152 126.227C259.883 125.552 260.719 125.354 261.22 125.251C261.722 125.149 261.863 125.149 261.887 125.199C262.183 125.827 260.594 126.179 260.308 126.421C260.077 126.617 259.722 127.035 259.266 127.606C258.592 128.449 258.348 128.639 258.168 128.854C257.938 129.13 257.718 129.284 257.525 129.412C257.193 129.634 256.817 129.884 256.559 130.056C256.433 130.14 256.245 130.313 255.86 130.549C254.878 131.149 254.471 131.343 254.177 131.523C253.728 131.796 253.141 132.272 252.767 132.546C252.373 132.835 252.095 133.161 251.909 133.354C251.68 133.592 251.437 133.804 251.129 134.055C250.89 134.249 250.564 134.435 250.363 134.563C250.081 134.744 249.82 135.006 249.598 135.143C249.366 135.285 249.09 135.422 248.889 135.579C248.635 135.779 248.389 136.137 248.096 136.451C247.878 136.686 247.659 136.952 247.145 137.466C246.933 137.679 246.729 137.783 246.557 137.89C246.472 137.926 246.385 137.969 246.3 138.026C246.257 138.055 246.214 138.083 246.127 138.112" stroke="white" stroke-width="5" stroke-linecap="round"/>
<path d="M259.047 130.515C259.061 130.43 259.488 129.945 260.224 129.274C260.555 128.971 261.054 128.436 261.374 128.124C262.062 127.45 262.552 127.025 262.852 126.746C263.271 126.356 263.439 126.18 263.682 125.994C263.834 125.877 263.954 125.765 264.26 125.552C264.969 125.057 265.471 124.634 265.642 124.521C265.879 124.363 266.185 124.064 266.493 123.763C266.664 123.596 267.184 123.093 267.935 122.336C268.522 121.743 268.862 121.687 269.055 121.587C269.107 121.56 269.162 121.53 269.737 121.338C270.311 121.146 271.402 120.792 271.992 120.596C272.642 120.379 272.896 120.285 273.26 120.171C273.962 119.951 274.513 119.37 274.728 119.183C274.962 118.98 275.271 118.783 275.786 118.525C276.067 118.384 276.287 118.353 276.524 118.267C276.813 118.162 277.117 118.025 277.461 117.888C277.78 117.762 277.976 117.667 278.155 117.559C278.353 117.44 278.577 117.437 278.756 117.337C278.963 117.222 279.135 117.165 279.392 117.087C279.69 116.996 280.007 116.922 280.208 116.858C280.395 116.798 280.58 116.623 280.773 116.479C280.964 116.337 281.152 116.25 281.331 116.164C281.58 116.044 281.796 115.907 282.004 115.835C282.182 115.773 282.354 115.72 282.526 115.656C282.709 115.587 282.869 115.506 283.084 115.363C283.306 115.215 283.499 115.091 283.614 115.012C283.706 114.949 283.315 115.019 283.143 115.033C282.913 115.052 282.232 115.119 281.345 115.148C280.667 115.169 280.154 115.219 279.817 115.241C279.652 115.251 279.126 115.277 278.397 115.284C277.79 115.29 277.478 115.348 277.198 115.37C276.943 115.389 276.323 115.533 275.397 115.584C275.145 115.598 274.902 115.62 274.609 115.627C274.358 115.633 273.704 115.663 272.846 115.656C272.441 115.652 272.212 115.62 271.969 115.627C271.81 115.632 271.512 115.705 270.552 115.763C269.834 115.806 268.643 115.763 268.009 115.749C267.175 115.73 266.86 115.677 265.905 115.67C265.559 115.667 264.947 115.706 264.147 115.72C263.593 115.73 263.313 115.82 262.477 115.828C261.867 115.833 261.296 115.82 260.745 115.842C260.494 115.852 259.84 115.878 258.953 115.856C258.204 115.838 257.904 115.592 257.568 115.47C257.465 115.433 257.333 115.448 257.289 115.477C257.244 115.505 257.287 115.562 257.401 115.626C257.515 115.691 257.699 115.762 257.992 115.834C258.285 115.905 258.682 115.976 260.274 116.098C261.867 116.219 264.643 116.389 266.413 116.548C268.183 116.706 268.863 116.848 269.731 116.942C270.598 117.036 271.632 117.079 272.207 117.115C272.869 117.156 272.997 117.208 273.047 117.251C273.08 117.279 273.027 117.378 272.991 117.436C272.93 117.535 272.586 117.679 272.001 117.929C271.701 118.057 271.387 118.165 270.504 118.407C269.621 118.65 268.176 119.018 267.064 119.378C265.951 119.737 265.215 120.077 264.679 120.344C263.821 120.773 263.455 121.028 263.291 121.128C262.766 121.448 262.07 121.656 261.603 122.05C261.231 122.364 261.137 122.915 260.908 123.359C260.866 123.442 260.808 123.432 260.765 123.39C260.656 123.282 260.48 122.976 260.031 122.513C259.757 122.229 259.313 121.922 259.017 121.676C258.551 121.29 258.191 120.817 257.727 120.062C257.454 119.617 257.193 118.995 256.976 118.582C256.43 117.542 255.858 117.209 255.579 117.073C255.33 116.951 255.185 116.709 254.963 116.13C254.917 116.01 254.927 115.964 254.905 115.942C254.858 115.894 254.67 115.949 254.413 115.999C254.159 116.048 253.43 116.049 252.359 116.021C251.14 115.989 250.78 115.778 250.499 115.742C250.248 115.709 249.991 115.677 249.57 115.656C249.433 115.635 249.333 115.606 249.084 115.584C248.892 115.577 248.566 115.577 248.23 115.577" stroke="white" stroke-width="5" stroke-linecap="round"/>
<path d="M244.067 117.036C244.067 117.522 244.096 117.722 244.117 117.93C244.139 118.139 244.21 118.395 244.275 118.581C244.336 118.758 244.353 119.024 244.41 119.232C244.471 119.453 244.582 119.824 244.668 120.155C244.741 120.434 244.739 120.87 244.79 121.106C244.806 121.183 244.797 121.298 244.797 121.151C244.797 120.071 244.726 119.785 244.704 119.662C244.67 119.47 244.64 120.083 244.618 120.255C244.596 120.433 244.511 120.598 244.454 120.77C244.425 120.856 244.397 120.956 244.375 121.063C244.365 121.113 244.368 121.156 244.403 121.065C244.648 120.432 244.625 120.114 244.604 119.978C244.58 119.826 244.283 120.098 244.111 120.205C244.07 120.231 244.025 120.241 243.989 120.291C243.827 120.515 243.967 120.812 244.06 121.071C244.136 121.282 244.181 121.457 244.232 121.806C244.363 122.721 244.282 123.242 244.246 123.738C244.217 124.146 244.139 124.574 244.103 124.969C244.078 125.238 244.024 125.434 243.982 125.699C243.896 126.228 243.967 127.065 243.967 127.7C243.968 128.342 243.867 128.711 243.846 128.926C243.812 129.254 243.781 129.769 243.774 130.213C243.77 130.434 243.853 130.77 243.81 131.029C243.778 131.221 243.724 131.444 243.688 131.644C243.666 131.771 243.667 131.902 243.638 132.03C243.604 132.186 243.595 132.912 243.588 133.899C243.582 134.789 243.581 135.793 243.602 136.001C243.609 136.051 243.623 136.094 243.631 136.151C243.638 136.209 243.638 136.279 243.638 136.352" stroke="white" stroke-width="5" stroke-linecap="round"/>
<path d="M246.901 122.445C246.887 122.899 246.886 123.874 246.908 124.403C246.927 124.863 246.972 125.176 247.15 125.926C247.292 126.521 247.315 126.779 247.337 127.058C247.357 127.31 247.401 127.737 247.423 128.053C247.451 128.468 247.487 128.754 247.488 129.011C247.489 129.735 247.202 130.212 246.938 130.627C246.639 131.096 246.558 131.343 246.465 131.594C246.251 132.166 246.329 133.174 246.335 133.376C246.339 133.496 246.798 132.979 247.262 132.521C247.442 132.344 247.515 132.29 248.139 131.694C248.763 131.098 249.939 129.965 250.63 129.325C251.652 128.376 251.879 128.369 252.022 128.276C252.086 128.234 252.108 128.169 252.109 128.105C252.111 127.715 251.453 127.24 250.881 126.875C250.21 126.446 249.608 126.609 249.099 126.644C248.991 126.652 248.892 126.652 248.862 126.659C248.832 126.666 248.874 126.68 248.918 126.694" stroke="white" stroke-width="5" stroke-linecap="round"/>
<path d="M245.32 138.949C245.298 138.949 245.236 138.954 245.199 138.959C245.134 138.967 245.103 138.966 245.083 138.956C245.055 138.942 245.037 138.941 245.016 138.934C244.988 138.924 244.942 138.9 244.919 138.887C244.902 138.877 244.887 138.863 244.871 138.851C244.854 138.837 244.827 138.818 244.804 138.804C244.784 138.792 244.77 138.783 244.743 138.776C244.701 138.766 244.681 138.759 244.663 138.754C244.645 138.748 244.624 138.741 244.604 138.736C244.576 138.73 244.563 138.714 244.547 138.7C244.529 138.684 244.494 138.668 244.472 138.655C244.45 138.642 244.435 138.628 244.42 138.62C244.409 138.615 244.427 138.648 244.43 138.67C244.437 138.71 244.426 138.789 244.429 138.831C244.431 138.854 244.434 138.883 244.437 138.916C244.445 139.005 244.441 139.036 244.445 139.066C244.447 139.092 244.449 139.183 244.446 139.239C244.444 139.267 244.436 139.295 244.424 139.325C244.408 139.365 244.388 139.396 244.382 139.413C244.364 139.467 244.341 139.536 244.336 139.555C244.331 139.57 244.308 139.619 244.29 139.658C244.278 139.684 244.267 139.708 244.256 139.738C244.236 139.792 244.214 139.833 244.201 139.859C244.171 139.928 244.165 139.949 244.154 139.98C244.152 139.989 244.152 139.999 244.152 140.008" stroke="white" stroke-width="5" stroke-linecap="round"/>
<path d="M244.234 140.496C244.227 140.495 244.206 140.495 244.184 140.505C244.164 140.512 244.147 140.518 244.134 140.525C244.126 140.53 244.116 140.536 244.098 140.543" stroke="white" stroke-width="5" stroke-linecap="round"/>
<path d="M287.689 53.04C287.713 53.04 287.736 53.04 287.725 53.0753C287.636 53.3486 287.263 53.4908 287.036 53.7404C286.821 53.9774 286.621 54.204 286.335 54.3944C286.049 54.5848 285.718 54.7746 285.349 54.9532C285.047 55.0994 284.766 55.3451 284.469 55.6183C284.121 55.9375 283.886 56.2238 283.696 56.5929C283.534 56.907 283.222 57.1752 282.959 57.4609C282.64 57.8084 282.27 58.0083 281.984 58.1744C281.688 58.3471 281.414 58.5546 281.105 58.7803C280.663 59.103 280.44 59.5046 280.071 59.8145C279.767 60.0695 279.489 60.3133 279.191 60.4806C278.797 60.7021 278.255 61.1678 277.729 61.5854C277.417 61.8334 277.135 62.025 276.849 62.1805C276.564 62.3358 276.279 62.4301 275.994 62.5371C275.678 62.6552 275.376 62.8581 275.066 62.9533C274.771 63.0441 274.308 63.3088 273.925 63.5235C273.776 63.6072 273.663 63.7375 273.58 63.8797C273.54 63.949 273.52 64.022 273.591 64.0466C274.11 64.2286 274.659 63.7867 274.993 63.7264C275.137 63.7004 275.279 63.6433 275.362 63.6547C275.704 63.7015 274.853 64.236 274.567 64.3915C274.271 64.5525 273.997 64.8066 273.723 65.033C273.435 65.2709 273.259 65.6624 272.998 65.8771C272.711 66.1129 272.287 66.5882 271.928 66.8873C271.637 67.1306 271.311 67.3741 270.741 67.8013C269.892 68.4379 269.693 68.8718 269.444 69.1575C269.204 69.4318 268.886 69.8218 268.506 70.1674C267.826 70.7844 266.895 71.6947 266.07 72.6023C264.886 73.9052 264.393 74.268 263.941 74.6606C263.414 75.1185 262.919 75.8114 262.55 76.3366C262.265 76.7413 261.825 77.3348 261.563 77.6447C261.258 78.0048 260.827 78.2391 260.529 78.4413C260.22 78.6509 260.018 79.0707 259.78 79.3917C259.447 79.8398 259.328 80.1405 259.102 80.4854C258.905 80.7868 258.71 81.1148 258.389 81.6023C258.314 81.7165 258.235 81.7809 258.246 81.782C258.371 81.7945 258.989 80.9336 259.927 79.7344C260.825 78.5861 261.228 78.3604 261.632 78.0747C262.03 77.793 262.369 77.3148 262.796 76.9814C263.249 76.6285 263.557 76.3634 263.95 76.0778C264.338 75.7952 264.58 75.7443 264.652 75.673C264.889 75.4376 263.751 76.0039 262.591 76.6786C262.023 77.009 261.222 77.6572 260.55 78.2431C259.879 78.829 259.385 79.3703 259.001 79.8963C258.289 80.8702 257.903 81.7082 257.57 82.1949C257.191 82.7511 256.927 83.0647 256.642 83.4331C256.265 83.9201 255.953 84.2301 255.277 85.0702C254.589 85.9264 253.792 86.8426 253.044 87.4481C252.359 88.0027 252.007 88.3653 251.318 89.2557C250.871 89.8336 250.532 90.3865 250.14 90.7556C249.87 91.01 249.558 91.2666 249.307 91.5522C249.035 91.8625 248.796 92.1938 248.547 92.5386C248.336 92.8303 248.154 93.1209 248.094 93.4066C248.033 93.6977 247.916 93.9768 247.798 94.2742C247.642 94.6635 247.37 94.904 247.156 95.2014C246.885 95.5777 246.61 95.7841 246.289 96.14C245.865 96.6103 245.73 96.901 245.575 97.1984C245.365 97.6014 244.969 97.7097 244.814 97.9711C244.648 98.2503 244.517 98.5413 244.279 98.827C244.224 98.8933 244.208 98.9693 244.172 98.9586C244.044 98.9202 244.041 98.5214 244.064 98.2001C244.071 98.1112 244.135 98.1847 244.159 98.2682C244.256 98.6004 243.994 98.8979 243.91 99.0894C243.777 99.394 244.016 98.4258 244.052 97.9975C244.087 97.5906 244.159 97.1178 244.243 96.7615C244.406 96.0644 244.444 95.5259 244.516 95.1917C244.578 94.904 244.35 94.6215 244.184 94.3359C243.995 94.0109 243.733 93.6944 243.519 93.397C243.455 93.3079 243.353 93.2194 243.328 93.2415C242.969 93.5592 244.014 94.5431 244.325 95.1062C244.372 95.1906 244.42 95.2606 244.409 95.3087C244.385 95.4146 244.208 95.4753 244.101 95.5469C243.815 95.7393 243.78 94.9068 243.744 94.5028C243.715 94.1832 243.566 93.9083 243.459 93.6227C243.337 93.2989 243.209 92.887 243.173 92.5529C243.141 92.2571 242.995 91.9827 242.9 91.697C242.805 91.4114 242.663 91.1268 242.236 90.6636C241.973 90.3788 241.831 90.057 241.676 89.7714C241.515 89.4756 241.355 89.2012 241.2 88.9155C241.051 88.6391 240.88 88.3453 240.572 87.9538C239.869 87.0602 239.549 86.8946 239.287 86.5979C238.859 86.1336 238.622 85.8491 238.348 85.6226C238.288 85.5631 238.241 85.4925 238.192 85.3484" stroke="white" stroke-width="5" stroke-linecap="round"/>
<path d="M239.69 84.0647C240.185 83.8992 241.187 83.661 241.685 83.4356C242.541 83.0488 243.634 82.3786 244.229 82.0687C244.683 81.832 245.061 81.6412 245.715 81.3555C246.242 81.1251 246.701 80.7625 247.047 80.5821C247.205 80.4997 247.463 80.4758 247.712 80.3214C247.88 80.2175 248.952 79.672 250.521 78.793C251.668 78.15 252.477 77.506 252.895 77.2186C253.343 76.911 254.47 76.153 255.705 75.2747C256.519 74.6959 257.277 73.9649 258.145 73.3351C258.871 72.8075 259.563 72.3224 259.814 72.0125C260.094 71.6657 260.679 71.0643 261.157 70.6456C261.543 70.3069 261.87 70.0159 262.392 69.6946C262.706 69.5016 263.011 69.3497 263.368 69.0883C263.736 68.8179 264.056 68.5652 264.449 68.3156C264.984 68.0189 265.531 67.638 265.933 67.3424C266.171 67.1409 266.477 66.835 266.792 66.5197" stroke="white" stroke-width="5" stroke-linecap="round"/>
<path d="M269.502 64.808C269.62 64.7374 269.737 64.6668 269.833 64.6069C269.929 64.547 270 64.4999 270.144 64.3801" stroke="white" stroke-width="5" stroke-linecap="round"/>
<path d="M243.541 86.5609C243.588 86.5138 243.895 86.2307 244.664 85.6501C246.45 84.3021 246.986 84.3043 247.438 84.0179C247.745 83.8239 248.104 83.6852 248.39 83.554C248.539 83.4853 248.722 83.3051 249.195 82.9973C250.07 82.4272 251.168 81.9992 251.881 81.536C252.505 81.1298 253.282 80.7867 254.13 80.2155C254.71 79.8244 255.375 79.1007 256.411 78.5152C257.369 77.9736 257.875 77.9082 258.161 77.7296C258.303 77.67 258.658 77.5045 259.121 77.267C259.302 77.1708 259.373 77.1237 259.446 77.0752" stroke="white" stroke-width="5" stroke-linecap="round"/>
<path d="M260.516 76.5046L260.801 76.4333" stroke="white" stroke-width="5" stroke-linecap="round"/>
<path d="M244.184 91.5533C244.513 91.2238 244.843 90.8943 245.354 90.2656C245.865 89.6369 246.547 88.719 246.969 88.1167C247.869 86.8337 248.318 86.1829 249.121 85.4144C249.697 84.8639 250.678 84.0575 251.634 83.3272C252.59 82.5968 253.508 81.9849 254.028 81.6344C254.548 81.2838 254.642 81.2132 254.739 81.0692" stroke="white" stroke-width="5" stroke-linecap="round"/>
<path d="M177.11 181.609C176.95 181.564 176.356 181.358 175.688 181.236C175.411 181.186 175.251 181.161 174.782 181.075C174.215 180.972 174.045 181.092 173.907 181.121C173.748 181.154 173.563 181.196 173.312 181.224C172.558 181.31 172.301 181.173 172.025 181.201C171.609 181.244 171.313 181.242 171.141 181.224C170.809 181.191 170.395 181.173 169.673 181.156C169.453 181.15 169.338 181.127 169.263 181.144C169.213 181.155 169.303 181.264 169.292 181.333C169.248 181.6 168.776 181.745 168.409 182.198C168.139 182.532 168.006 182.78 167.869 183.007C167.751 183.205 167.506 183.554 167.258 183.849C167.01 184.144 166.76 184.371 166.403 184.727C166.047 185.083 165.593 185.56 165.33 185.829C164.919 186.249 164.643 186.407 164.327 186.591C164.138 186.701 164.034 186.844 163.994 186.913C163.974 186.946 163.965 186.981 164.01 186.976C164.165 186.958 164.445 186.844 165.164 186.651C165.705 186.505 166.587 186.207 167.078 186.055C167.634 185.883 167.832 185.834 168.198 185.663C169.225 185.182 169.348 185.019 169.555 184.927C169.705 184.86 169.899 184.824 170.255 184.624C170.5 184.485 170.703 184.41 170.858 184.353C171.123 184.255 171.687 183.942 172.012 183.75C172.139 183.676 172.253 183.561 172.419 183.458C172.573 183.378 172.735 183.286 172.924 183.171C173.044 183.102 173.215 183.011 173.459 182.883" stroke="white" stroke-width="5" stroke-linecap="round"/>
<path d="M179.589 181.127C179.498 181.184 179.246 181.298 179.073 181.368C178.817 181.471 178.385 181.38 177.961 181.362C177.833 181.357 177.753 181.333 177.701 181.322C177.585 181.297 177.981 181.185 178.182 181.133C178.378 181.082 178.521 181.07 178.773 181.052C178.993 181.037 179.244 181.001 179.388 180.949C179.56 180.887 179.692 180.829 179.83 180.805C179.982 180.78 180.105 180.713 180.249 180.685C180.413 180.652 180.565 180.645 180.645 180.662C180.873 180.71 180.279 180.84 180.141 180.863C179.989 180.888 179.866 180.977 179.728 181.023C179.59 181.069 179.452 181.115 179.314 181.161C179.177 181.207 179.039 181.253 178.895 181.299C178.72 181.355 178.557 181.413 178.413 181.477C178.246 181.55 178.086 181.643 177.84 181.775C177.62 181.893 177.455 181.976 176.946 182.199C176.768 182.277 176.563 182.354 176.156 182.486C175.75 182.617 175.147 182.799 174.632 183.007C173.685 183.388 173.23 183.698 173.115 183.755C172.892 183.867 172.543 184.076 172.071 184.272C171.625 184.457 171.427 184.639 170.907 184.954C170.36 185.285 169.889 185.466 169.695 185.603C169.591 185.672 169.477 185.741 169.379 185.799C169.281 185.856 169.201 185.902 169.119 185.949" stroke="white" stroke-width="5" stroke-linecap="round"/>
<path d="M164.091 191.184C164.159 191.116 164.558 190.739 165.166 190.2C165.49 189.913 165.675 189.887 165.744 189.835C165.78 189.808 165.812 189.772 165.767 189.732C165.392 189.395 164.952 189.29 164.901 189.153C164.804 188.894 165.054 188.443 165.57 187.656C165.715 187.435 165.756 187.327 165.739 187.264C165.71 187.158 165.163 187.291 164.355 187.531C163.951 187.651 163.582 187.839 162.991 188.251C162.4 188.663 161.604 189.311 161.03 189.809C160.455 190.308 160.125 190.638 159.774 190.944C159.422 191.25 159.058 191.523 158.712 191.754C157.718 192.418 157.582 192.412 157.547 192.412C157.451 192.413 157.718 192.104 158.112 191.641C158.39 191.315 158.881 190.849 159.303 190.489C159.725 190.13 160.077 189.903 160.446 189.706C161.174 189.318 161.679 189.129 161.868 189.032C162.017 188.955 162.139 188.922 162.196 188.905C162.209 188.901 162.186 188.944 161.543 189.405C160.901 189.866 159.639 190.753 158.972 191.226C158.266 191.728 158.145 191.837 157.984 191.952C157.728 192.136 157.365 192.365 156.953 192.622C156.291 193.036 155.815 193.456 155.625 193.622C155.453 193.774 155.286 193.881 154.708 194.482C154.362 194.841 154.127 194.972 153.623 195.447C153.387 195.669 153.174 195.822 153.036 195.902C152.892 195.985 152.76 196.108 152.622 196.183C152.46 196.272 152.29 196.453 152.14 196.556C151.946 196.691 151.75 196.935 151.584 197.141C151.255 197.55 150.901 197.726 150.694 197.905C150.445 198.12 150.132 198.381 149.616 198.885C149.305 199.189 149.178 199.335 148.897 199.467C148.727 199.546 148.593 199.645 148.455 199.719C148.326 199.789 148.146 200 147.944 200.133C147.762 200.253 147.491 200.334 147.353 200.414C147.209 200.497 147.1 200.62 146.974 200.73C146.905 200.792 146.847 200.862 146.796 200.93C146.767 200.965 146.733 200.999 146.629 201.103" stroke="white" stroke-width="5" stroke-linecap="round"/>
<path d="M229 113L228 152" stroke="white"/>
<path d="M238.033 124.256C238.013 124.256 237.993 124.256 237.953 125.089C237.912 125.922 237.852 127.588 237.831 128.577C237.805 129.826 237.911 130.296 238.052 130.641C238.115 130.793 238.234 130.864 238.326 130.906C238.487 130.978 238.782 130.847 239.306 130.484C240.151 129.9 240.628 129.245 240.86 128.932C241.182 128.499 241.459 127.768 241.682 126.908C241.789 126.496 241.784 126.109 241.744 125.501C241.704 124.893 241.604 124.07 241.492 123.415C241.3 122.291 241.035 121.602 240.853 121.247C240.781 121.108 240.711 121.073 240.62 121.093C239.9 121.246 239.616 122.791 239.404 123.832C239.165 125 239.209 125.715 239.25 125.837C239.27 125.898 239.29 125.958 239.361 125.889C239.597 125.657 239.897 124.81 240.331 123.506C240.564 122.81 240.746 122.021 240.89 120.925C241.033 119.829 241.114 118.444 241.135 117.671C241.156 116.897 241.116 116.776 241.045 116.815C240.974 116.853 240.874 117.054 240.662 118.01C240.449 118.967 240.128 120.673 239.963 121.653C239.797 122.632 239.797 122.833 239.898 122.635C239.998 122.437 240.199 121.835 240.362 121.234C240.526 120.632 240.647 120.05 240.719 119.459C240.953 117.539 240.589 116.959 240.406 116.653C240.369 116.59 240.325 116.532 240.465 116.451C240.894 116.202 241.317 116.126 241.439 116.025C241.582 115.906 241.622 115.6 241.582 115.256C241.553 115.003 241.319 114.909 241.177 114.838C240.578 114.538 239.616 114.807 239.019 114.848C238.432 114.888 237.996 114.989 237.457 115.02C237.262 115.031 236.66 115.071 235.819 115.081C234.913 115.092 233.98 115.051 233.514 114.96C232.498 114.759 232.155 114.808 231.8 114.716C231.121 114.54 230.857 114.605 230.553 114.534C230.473 114.515 230.391 114.523 230.339 114.553C230.288 114.584 230.268 114.644 230.268 114.715C230.266 115.016 230.409 115.252 230.44 115.849C230.469 116.408 230.531 117.138 230.561 117.997C230.587 118.698 230.572 119.51 230.531 119.724C230.303 120.926 230.43 117.077 230.41 117.34C230.364 117.939 230.247 118.334 230.136 118.77C230.031 119.183 229.964 119.59 229.933 120.602C229.918 121.115 229.842 121.396 229.832 121.841C229.824 122.17 229.963 122.651 230.064 123.099C230.227 123.81 230.085 124.923 230.075 125.996C230.07 126.51 230.186 126.951 230.237 127.436C230.373 128.749 230.146 129.121 230.116 129.425C230.099 129.589 230.065 130.292 230.085 131.335C230.097 131.96 230.186 132.645 230.176 133.416C230.167 134.13 230.106 134.738 230.075 135.622C230.047 136.426 230.065 137.952 230.055 138.768C230.041 139.848 229.964 140.333 229.933 141.022C229.902 141.711 229.842 142.726 229.771 143.121C229.607 144.03 229.862 144.429 229.922 145.255C230.039 146.84 229.963 147.918 230.004 148.039C230.102 148.333 230.105 148.708 230.116 149.305C230.122 149.645 230.025 149.924 229.943 150.108C229.835 150.354 229.963 149.44 230.014 148.995C230.026 148.892 230.044 148.832 230.075 148.761C230.14 148.607 230.829 148.246 231.872 147.8C232.405 147.572 232.86 147.413 233.477 147.1C234.578 146.54 234.909 146.277 235.375 146.023C236.301 145.519 237.361 145.406 237.748 145.212C238.231 144.97 239.063 144.575 239.522 144.37C239.737 144.275 239.979 144.127 240.482 143.725C242.339 142.24 242.615 141.958 242.656 141.856C242.735 141.663 242.111 141.835 241.596 142.057C240.752 142.42 240.123 142.868 239.529 143.252C239.102 143.526 238.392 143.916 237.85 144.183C236.526 144.834 235.988 144.876 235.561 145.099C235.287 145.243 234.993 145.343 234.649 145.485C234.156 145.688 233.858 145.849 233.301 146.133C232.822 146.377 232.499 146.316 232.195 146.407C231.833 146.516 231.506 146.963 231.211 147.228C231.15 147.283 231.06 147.289 231.099 147.26C231.28 147.121 231.524 147.006 231.967 146.664C232.342 146.374 233.051 145.881 234.016 145.261C234.98 144.641 236.184 143.918 236.995 143.395C237.806 142.873 238.188 142.571 238.716 142.256C239.874 141.563 240.689 141.208 240.921 141.056C241.45 140.71 242.025 140.599 242.402 140.397C242.474 140.357 242.533 140.335 242.494 140.335C241.912 140.331 241.199 140.72 240.077 141.204C239.017 141.661 238.379 142.099 238.177 142.169C237.53 142.395 237.021 142.646 236.515 142.818C236 142.993 235.643 143.172 235.006 143.446C233.69 144.01 233.392 144.227 233.067 144.4C232.606 144.644 232.116 145.076 231.658 145.635C231.384 145.97 231.06 146.052 230.735 146.114C230.69 146.122 230.713 146.034 231.316 145.451C231.918 144.868 233.103 143.764 233.883 143.075C234.664 142.385 235.005 142.144 235.382 141.91C236.147 141.433 236.654 141.167 237.046 140.905C238.563 139.893 239.086 139.708 239.381 139.565C239.724 139.399 240.16 139.221 240.466 139.048C240.58 138.983 240.709 138.956 240.841 138.916C240.99 138.87 240.633 138.995 239.282 139.6C238.349 140.017 237.007 140.846 236.263 141.28C235.434 141.763 235.176 141.936 234.832 142.138C234.518 142.323 234.062 142.604 233.475 142.878C232.474 143.344 231.367 143.962 230.978 144.147C230.92 144.174 230.857 144.187 230.796 144.187C230.735 144.188 230.674 144.168 230.703 144.087C230.733 144.006 230.853 143.866 231.808 143.231C232.764 142.597 234.55 141.473 235.812 140.623C237.073 139.773 237.756 139.231 238.65 138.63C239.543 138.03 240.627 137.388 241.256 137.027C242.215 136.476 242.412 136.402 242.403 136.431C242.378 136.513 242.133 136.602 241.177 137.065C240.22 137.529 238.514 138.332 237.193 139.036C235.873 139.741 234.989 140.323 234.354 140.713C233.375 141.314 232.663 141.571 232.117 141.733C231.534 141.906 230.84 142.158 230.421 142.342C230.254 142.415 230.126 142.565 230.045 142.686C230.009 142.74 230.044 142.807 230.095 142.839C230.38 143.014 230.854 142.547 232.181 141.44C233.333 140.481 235.436 138.688 236.753 137.617C238.069 136.546 238.531 136.245 239.02 135.98C239.989 135.453 240.688 135.166 240.73 135.094C241.013 134.618 239.476 135.669 238.819 136.164C238.099 136.707 237.589 137.231 237.175 137.494C236.762 137.756 236.111 137.941 235.172 138.184C233.986 138.49 232.947 138.691 232.33 138.974C231.154 139.514 230.492 140.698 230.379 141.094C230.354 141.183 230.369 141.266 230.399 141.328C230.429 141.389 230.489 141.429 231.404 140.567C232.318 139.704 234.084 137.938 235.085 136.957C236.248 135.818 236.552 135.632 236.885 135.46C237.114 135.342 237.479 135.188 238.106 134.955C239.609 134.397 240.588 134.07 240.739 133.979C241.125 133.748 241.317 133.664 241.308 133.644C241.28 133.581 241.038 133.664 240.212 133.975C239.386 134.287 237.941 134.889 236.996 135.33C236.05 135.77 235.649 136.031 235.332 136.266C235.014 136.501 234.794 136.702 234.349 137.056C233.254 137.928 232.438 138.549 232.226 138.772C231.911 139.101 231.425 139.138 230.908 139.129C230.829 139.127 230.875 139.039 231.207 138.656C231.539 138.274 232.161 137.571 232.943 136.768C233.725 135.964 234.649 135.081 235.596 134.285C236.544 133.489 237.487 132.806 238.114 132.394C239.479 131.497 240.342 131.294 240.648 131.069C240.766 130.983 240.892 130.907 240.943 130.876C241.04 130.818 239.867 131.53 238.418 132.391C237.42 132.984 236.661 133.739 236.128 134.271C235.852 134.548 235.541 134.576 235.398 134.597C235.369 134.601 235.457 134.497 236.1 134.215C236.744 133.933 237.948 133.451 238.769 133.162C239.974 132.739 240.546 132.711 240.689 132.721C240.83 132.731 240.325 132.772 239.993 132.802C239.316 132.863 238.363 133.075 237.301 133.368C236.192 133.674 235.48 134.109 235.146 134.342C234.634 134.699 234.384 134.86 234.243 134.881C234.162 134.892 234.061 134.861 233.999 134.79C233.938 134.72 233.918 134.599 233.937 134.457C233.981 134.147 234.421 133.587 235.52 132.457C236.253 131.703 237.442 130.684 238.142 130.016C239.078 129.123 239.35 128.718 239.573 128.455C240.173 127.746 240.303 126.936 240.325 125.721C240.344 124.649 239.799 123.713 239.495 123.154C239.407 122.992 239.19 123.886 239.108 125.429C239.056 126.43 239.108 127.876 239.168 128.842C239.229 129.807 239.329 130.249 239.431 130.366C239.533 130.483 239.633 130.262 239.725 129.787C239.817 129.312 239.897 128.589 239.979 127.183C240.06 125.777 240.14 123.71 240.212 122.514C240.299 121.054 240.506 120.548 240.568 119.922C240.606 119.537 240.348 119.015 240.205 118.254C239.879 116.524 239.838 115.416 239.788 115.335C239.732 115.245 239.575 115.818 239.313 117.338C239.107 118.531 238.93 120.605 238.786 122.533C238.642 124.462 238.582 126.188 238.511 127.057C238.44 127.926 238.359 127.886 238.278 127.735C238.068 127.345 237.973 126.572 237.882 125.752C237.844 125.414 237.851 125.233 237.66 123.875C237.469 122.517 237.088 119.988 236.892 118.595C236.695 117.202 236.695 117.021 236.695 116.978C236.695 116.935 236.695 117.036 236.514 119.988C236.334 122.94 235.972 128.741 235.796 131.891C235.62 135.04 235.64 135.361 235.711 135.426C235.883 135.585 236.207 134.501 236.551 133.107C236.749 132.304 236.854 131.272 236.816 129.711C236.778 128.15 236.558 126.082 236.454 124.846C236.322 123.273 236.451 122.556 236.583 122.039C236.625 121.873 236.734 121.943 236.785 122.687C236.837 123.431 236.857 124.856 237.068 126.774C237.279 128.693 237.681 131.061 237.938 132.402C238.195 133.743 238.295 133.984 238.387 134.168C238.479 134.352 238.559 134.473 238.66 134.324C238.762 134.175 238.883 133.754 238.935 133.125C238.987 132.496 238.966 131.673 238.745 129.212C238.524 126.751 238.103 122.676 237.875 120.546C237.648 118.417 237.628 118.357 237.618 118.366C237.55 118.425 237.628 118.659 237.768 120.206C237.898 121.632 238.11 124.363 238.284 126.01C238.458 127.658 238.578 128.139 238.65 128.327C238.723 128.515 238.743 128.395 238.632 126.376C238.522 124.356 238.282 120.442 238.188 118.546C238.094 116.65 238.154 116.891 238.215 117.286C238.483 119.019 238.621 119.612 238.622 119.694C238.623 119.919 238.117 118.968 237.662 117.968C237.088 116.707 236.858 115.762 236.716 115.448C236.588 115.165 236.453 114.849 236.23 114.586C235.978 114.287 235.561 114.362 235.267 114.462C235.152 114.501 235.055 114.683 234.973 114.866C234.891 115.048 234.851 115.269 234.91 116.587C234.97 117.905 235.131 120.314 235.133 122.79C235.135 125.265 234.975 127.734 234.922 129.237C234.87 130.74 234.93 131.201 234.991 131.55C235.226 132.889 236.066 133.927 236.077 134.332C236.09 134.84 235.642 135.547 235.439 136.126C235.399 136.239 235.378 136.299 235.337 136.32C235.297 136.341 235.236 136.321 235.175 136.27C235.038 136.157 234.932 135.856 234.84 134.869C234.768 134.086 234.809 132.718 234.769 131.754C234.729 130.79 234.649 130.268 234.668 128.203C234.687 126.137 234.807 122.544 234.909 120.392C235.011 118.24 235.092 117.638 235.133 117.287C235.215 116.595 235.235 115.584 235.185 114.86C235.171 114.667 235.154 114.504 235.104 114.352C235.079 114.278 235.033 114.22 234.962 114.23C234.892 114.239 234.791 114.319 234.348 114.782C233.905 115.245 233.122 116.088 232.679 116.592C232.13 117.217 231.992 117.643 231.86 118.119C231.758 118.487 231.768 119.001 231.939 120.451C232.07 121.566 232.45 123.427 232.636 124.55C232.822 125.672 232.842 125.993 232.782 126.721C232.722 127.448 232.582 128.572 232.469 129.322C232.357 130.072 232.277 130.413 232.235 131.02C232.194 131.628 232.194 132.491 232.234 133.217C232.274 133.942 232.354 134.504 232.396 135.015C232.519 136.537 232.236 137.148 232.013 137.726C231.929 137.941 231.91 138.002 231.9 137.591C231.89 137.181 231.89 136.298 231.97 135.542C232.116 134.17 232.376 133.362 232.396 132.887C232.408 132.613 232.457 132.272 232.537 131.815C232.618 131.358 232.739 130.796 232.801 129.794C232.863 128.792 232.863 127.367 232.903 125.639C232.943 123.911 233.023 121.924 233.175 120.318C233.327 118.712 233.548 117.548 233.652 116.898C233.771 116.152 233.674 115.984 233.593 115.852C233.503 115.706 233.411 115.538 233.26 115.416C233.181 115.354 233.048 115.375 232.936 115.415C232.424 115.598 231.813 116.585 231.353 117.128C231.111 117.414 230.958 118.228 230.896 119.482C230.831 120.821 231.22 121.679 231.321 122.003C231.42 122.317 231.403 122.994 231.393 123.824C231.387 124.295 231.302 124.599 231.191 125.113C230.999 126.005 230.836 126.788 230.684 127.183C230.569 127.484 230.41 127.862 230.259 128.469C230.07 129.223 230.165 130.212 230.347 131.123C230.459 131.68 230.672 132.502 230.874 133.535C231.091 134.639 231.402 135.931 231.524 136.41C231.548 136.501 231.565 136.582 231.605 136.614C231.685 136.676 232.19 135.721 232.848 134.322C233.144 133.695 233.207 133.262 233.258 131.832C233.298 130.704 233.249 128.756 233.248 127.552C233.248 125.947 233.269 125.393 233.118 124.718C232.998 124.182 232.746 123.261 232.582 122.875C232.418 122.49 232.337 122.671 232.246 123.075C232.154 123.479 232.054 124.101 231.992 125.034C231.93 125.967 231.91 127.192 231.98 128.696C232.05 130.2 232.211 131.946 232.304 132.886C232.396 133.826 232.416 133.906 232.447 133.987C232.477 134.069 232.517 134.149 232.568 134.09C232.619 134.031 232.679 133.83 232.77 133.195C232.862 132.56 232.982 131.496 233.024 130.466C233.066 129.436 233.026 128.473 232.965 127.886C232.885 127.11 232.661 126.832 232.489 126.67C232.337 126.527 232.073 126.588 231.831 126.648C231.306 126.779 230.94 127.598 230.714 127.986C230.485 128.38 230.268 128.635 230.227 128.766C230.133 129.07 230.59 129.384 230.774 129.709C231.042 130.185 231.179 130.459 231.352 130.713C231.385 130.763 231.463 130.724 232.497 129.118C233.532 127.512 235.539 124.32 236.895 122.315C238.25 120.309 238.892 119.587 239.384 119.094C240.157 118.319 240.567 118.052 240.628 117.881C240.719 117.624 240.629 117.383 240.558 117.231C240.321 116.722 239.317 116.431 238.795 116.187C238.307 115.959 238.217 115.639 237.963 115.568C237.817 115.527 237.348 115.698 236.619 116.001C235.942 116.283 235.34 116.671 234.642 116.914C233.366 117.359 232.946 117.099 232.368 116.897C231.981 116.761 231.689 116.612 231.374 116.511C230.941 116.372 230.674 116.247 230.269 116.247C230.077 116.246 229.944 116.408 229.842 116.53C229.795 116.586 229.781 116.651 229.781 116.732C229.779 117.295 230.388 117.868 230.49 118.121C230.617 118.437 230.592 118.78 230.622 119.347C230.636 119.592 230.673 119.915 230.723 120.55C230.804 121.575 230.977 122.328 230.987 122.622C230.998 122.936 231.038 123.261 231.048 123.574C231.058 123.869 231.099 124.153 231.189 125.751C231.272 127.209 231.46 129.979 231.533 131.627C231.626 133.714 231.485 134.271 231.434 134.484C231.323 134.948 231.645 135.948 231.948 137.364C232.215 138.605 232.194 139.36 232.184 139.633C232.153 140.473 232.093 141.53 232.002 141.894C231.815 142.641 231.667 143.293 231.475 143.901C231.296 144.469 231.1 145.075 230.937 145.645C230.896 146.214 230.856 146.477 230.846 146.72C230.835 146.823 230.815 146.883 230.795 146.945" stroke="white" stroke-width="2" stroke-linecap="round"/>
<path d="M227.753 90.6786C227.934 90.5374 228.339 90.2941 229.697 89.8212C230.886 89.4068 233.122 88.726 234.32 88.354C235.776 87.9019 236.105 87.8403 236.541 87.6481C236.833 87.5194 236.998 87.2527 237.252 86.9793C237.305 86.9221 237.263 86.8476 237.202 86.8065C236.852 86.5692 236.191 86.603 235.683 86.5526C235.117 86.4963 234.751 86.6432 234.425 86.7244C233.931 86.8476 233.19 86.906 232.632 87.2804C231.832 87.8169 231.647 88.1031 231.404 88.2448C231.15 88.392 230.998 88.6092 230.846 88.8428C230.672 89.1097 230.269 89.2783 229.944 89.5219C229.644 89.7467 229.457 90.0082 229.274 90.3023C229.091 90.5962 228.929 90.9207 228.899 91.4167C228.854 92.134 228.888 93.2322 228.969 93.5968C229.063 94.0202 229.131 94.3879 229.273 94.692C229.415 94.9969 229.496 95.2395 229.577 95.4831C229.679 95.787 229.8 96.1921 229.942 96.5975C230.116 97.0952 230.125 97.7104 230.176 98.2298C230.198 98.4613 230.206 98.6465 230.237 99.2396C230.315 100.774 230.227 101.89 230.196 102.183C230.097 103.143 230.287 103.391 230.318 103.786C230.33 103.94 230.369 104.381 230.359 104.989C230.343 105.922 230.268 107.303 230.186 107.689C230.114 108.031 230.165 108.439 230.136 108.894C230.08 109.736 230.186 110.222 230.126 110.619C230.085 110.883 229.963 111.116 229.923 111.501C229.863 112.063 229.659 112.534 229.588 112.869C229.485 113.357 229.517 113.75 229.637 113.995C230.08 114.895 230.712 112.883 231.036 112.507C231.371 112.12 231.645 111.747 231.888 111.453C232.185 111.095 232.415 110.734 232.922 110.186C233.381 109.689 233.956 109.09 234.321 108.847C234.834 108.505 235.192 107.835 235.679 107.448C236.201 107.034 236.651 106.679 237.209 106.273C237.722 105.9 238.173 105.441 238.607 105.128C239.454 104.518 239.754 104.204 240.16 103.829C240.661 103.367 241.155 102.846 241.771 102.198C242.086 101.868 242.31 101.528 242.393 101.304C242.575 100.806 241.198 101.95 239.873 102.881C239.051 103.459 238.135 104.12 237.791 104.465C237.23 105.027 236.657 105.661 236.159 106.107C235.726 106.496 235.237 107.058 234.821 107.647C234.144 108.604 233.371 109.068 233.026 109.291C232.591 109.573 232.175 109.919 231.88 110.163C231.576 110.415 231.283 110.81 230.978 111.046C230.873 111.126 230.734 111.157 230.653 111.178C230.262 111.277 230.633 110.206 230.551 109.962C230.511 109.841 230.53 109.678 230.621 109.516C230.796 109.205 231.721 108.748 232.724 108.05C233.178 107.734 233.465 107.413 233.821 106.996C234.604 106.08 235.132 105.38 235.375 105.127C235.857 104.626 236.45 104.041 237.289 103.243C237.817 102.741 238.314 102.482 238.802 102.136C239.269 101.804 239.816 101.386 240.16 101.092C240.512 100.791 241.793 99.8722 242.574 99.2563C242.698 99.1583 242.757 99.0127 242.788 98.9114C242.8 98.8711 242.718 98.8503 242.627 98.86C242.193 98.9063 241.686 99.1934 240.25 99.961C239.12 100.565 238.44 101.181 238.127 101.433C237.443 101.984 237.203 102.315 236.888 102.641C236.545 102.995 235.967 103.633 235.631 104.069C235.273 104.536 234.651 105.01 234.252 105.368C233.626 105.931 232.803 106.656 232.125 107.131C231.626 107.48 231.364 107.709 231.069 107.853C230.184 108.285 231.18 106.314 231.199 105.897C231.214 105.585 231.726 105.622 232.219 105.381C233.407 104.8 234.22 104.244 234.743 103.781C235.192 103.385 235.989 102.636 236.563 102.133C237.138 101.63 237.459 101.389 237.815 101.064C238.58 100.367 239.246 99.6636 239.783 99.208C240.415 98.6713 240.729 98.4658 241.113 98.0914C241.726 97.4936 241.965 97.2091 242.239 96.8439C242.477 96.5275 242.776 96.377 242.91 96.2851C243.083 96.1659 242.334 96.335 241.437 96.8378C240.718 97.2411 239.557 98.1033 238.716 98.6979C237.407 99.6239 236.838 100.106 236.656 100.308C236.329 100.671 235.844 101.119 235.298 101.626C235.011 101.892 234.709 102.113 234.345 102.326C233.498 102.82 233.148 103.107 232.843 103.269C232.507 103.449 232.135 103.634 231.809 103.847C231.369 104.135 230.918 104.465 230.613 104.719C230.552 104.77 230.491 104.81 230.46 104.58C230.363 103.854 230.49 103.271 230.631 103.149C231.112 102.737 232.41 102.341 233.255 101.953C233.691 101.754 234.138 101.446 235.044 100.802C235.735 100.312 236.794 99.3552 237.373 98.8494C238.187 98.1376 238.559 97.6155 238.843 97.2697C239.255 96.7682 239.613 96.4378 240.573 95.6498C241.391 94.979 241.681 94.3307 241.885 94.015C241.997 93.8409 242.149 93.7206 242.129 93.6695C242.108 93.6132 241.909 93.7589 241.144 94.3122C240.379 94.8654 239.014 95.8891 238.22 96.5169C237.217 97.3103 236.819 97.7529 236.374 98.1173C235.753 98.6251 235.358 98.7882 234.508 99.1021C233.933 99.3145 233.19 99.8211 232.55 100.399C232.234 100.685 231.911 100.796 231.465 101.069C231.345 101.143 231.223 101.201 231.14 101.192C230.99 101.175 230.977 100.437 231.057 99.5151C231.087 99.1671 231.298 99.0948 231.411 99.0434C231.768 98.8809 232.353 98.8101 232.699 98.6477C232.879 98.5633 233.446 98.2043 234.326 97.5671C235.132 96.984 235.518 96.5795 235.629 96.4482C235.777 96.2735 236.406 95.7322 237.347 94.8517C238.123 94.1252 238.56 93.7814 238.791 93.5396C239.288 93.0204 239.856 92.6263 240.31 92.3635C241.373 91.7491 242.063 91.3112 242.463 90.8118C242.528 90.7297 242.554 90.6396 242.524 90.5682C242.495 90.4967 242.394 90.4365 242.282 90.4155C241.849 90.3342 241.362 90.6372 240.108 91.3233C238.877 91.9968 238.176 92.6652 237.984 92.7562C237.618 92.9291 237.305 93.4134 236.859 93.8298C236.222 94.4229 235.824 94.9153 235.641 95.0874C235.581 95.1445 235.659 95.1993 235.751 95.2C235.966 95.2014 236.287 95.0789 236.782 94.9478C237.472 94.765 238.111 94.5114 238.878 94.2997C241.037 93.7035 241.317 93.5174 241.328 93.5171C241.553 93.5109 240.852 93.6391 240.64 93.5886C240.404 93.5324 240.203 93.3964 240.031 93.1342C239.512 92.3422 239.675 91.4541 239.635 90.7038C239.622 90.4525 239.515 90.4754 239.393 90.566C239.09 90.7918 238.885 91.063 238.613 91.3754C238.062 92.0085 237.588 92.442 237.265 92.7841C236.57 93.5223 235.947 94.3258 235.471 94.731C235.13 95.0214 234.509 95.3393 233.81 95.8152C233.148 96.2663 232.642 96.7383 232.074 97.2161C231.914 97.3505 231.809 97.4908 231.657 97.5519C231.523 97.6059 231.504 96.4469 231.524 94.8864C231.537 93.9132 231.119 93.6604 230.977 93.4067C230.818 93.1213 230.794 91.7054 230.734 90.8519C230.729 90.7781 230.693 90.7005 230.653 90.7093C230.508 90.7409 230.45 91.2029 230.389 91.9398C230.301 93.0146 230.389 93.8198 230.449 94.2036C230.654 95.5034 231.139 96.658 231.26 97.054C231.311 97.2198 231.301 97.3691 231.362 97.4905C231.394 97.5561 231.462 97.6118 231.503 97.5525C231.852 97.0491 231.625 96.2176 231.656 95.6078C231.67 95.3234 231.847 94.5175 232.08 93.2227C232.414 91.3681 232.315 90.9851 232.406 90.6691C232.422 90.612 232.536 90.6579 232.598 90.7084C232.726 90.8135 232.841 91.2631 233.094 92.4426C233.272 93.2756 233.446 94.6057 233.58 95.3785C233.796 96.6303 233.897 96.9026 233.907 97.0543C233.911 97.1263 233.937 97.186 233.947 97.0564C233.957 96.9269 233.957 96.6057 233.877 96.0287C233.797 95.4518 233.636 94.6288 233.503 94.0342C233.293 93.0929 233.147 92.5661 233.116 92.192C233.041 91.2724 233.268 90.4973 233.369 90.2938C233.389 90.253 233.47 90.2929 233.521 90.3835C233.652 90.6164 233.774 91.6232 234.016 93.0509C234.294 94.686 234.929 95.2395 235.123 95.4932C235.236 95.6426 235.336 95.7876 235.427 95.7885C235.505 95.7893 235.538 95.5485 235.589 94.9335C235.64 94.3185 235.68 93.2747 235.681 92.4961C235.682 91.2351 235.52 90.358 235.388 89.7299C235.315 89.3832 235.276 89.2193 235.245 89.1883C234.678 88.6101 235.882 91.3647 236.065 91.8626C236.353 92.6434 236.471 92.9682 236.593 93.3131C236.629 93.4161 236.694 93.5351 236.755 93.5871C236.816 93.6391 236.876 93.619 236.987 93.3678C237.099 93.1166 237.259 92.6348 237.352 91.8547C237.445 91.0746 237.465 90.0107 237.455 89.4325C237.445 88.8543 237.405 88.7941 237.354 88.733C237.249 88.6065 237.101 88.5295 236.889 88.4991C236.58 88.4547 236.21 88.5289 235.705 88.68C234.081 89.1666 233.471 89.7254 233.45 89.7458C232.771 90.4055 235.861 89.8063 236.358 89.837C236.551 89.8671 236.734 89.9079 237.017 89.9383C237.199 89.9486 237.46 89.9486 237.85 90.0095" stroke="white" stroke-width="2" stroke-linecap="round"/>
<path d="M217.5 93.5C221.446 119.217 222 128.5 217.5 160" stroke="white"/>
<path d="M229.28 98.9287C228.642 96.5392 228.321 94.4054 228.083 93.6822C227.785 92.7788 226.355 95.617 225.42 98.7561C224.703 101.164 226.448 103.602 228.023 105.769C228.293 106.14 228.478 106.278 228.585 106.175C228.946 105.83 228.748 103.371 228.589 100.203C228.505 98.5452 227.686 95.967 226.941 92.5585C226.67 91.3126 226.617 91.0489 226.59 91.0713C226.563 91.0937 226.563 91.4101 226.563 91.7362" stroke="white" stroke-width="2" stroke-linecap="round"/>
<path d="M227.515 96.0289C227.672 95.8238 228.129 95.3429 228.799 94.6368C229.401 94.0022 229.656 93.5616 229.687 93.4347C229.7 93.381 229.633 93.3438 229.591 93.3253C229.517 93.2932 229.367 93.3188 229.138 93.3549C228.881 93.3954 228.342 93.5358 227.701 93.6748C227.173 93.7893 226.73 94.0204 226.362 94.141C225.836 94.3132 225.532 94.3347 225.025 94.4858C224.834 94.5426 224.673 94.5408 224.546 94.5109C224.449 94.488 224.754 94.0958 225.159 93.6786C225.352 93.4801 225.757 93.3442 226.344 93.1689C226.698 93.0628 226.862 93.0527 226.898 93.0467C227.046 93.0224 226.368 93.0041 226.07 93.0946C225.881 93.1522 225.605 93.2698 225.202 93.4146C224.679 93.6019 224.13 93.7173 223.665 93.9102C222.818 94.2621 222.592 94.4922 222.193 94.6551C222.109 94.6897 222.072 94.686 222.041 94.704C221.907 94.7833 221.878 94.9756 221.667 95.1872C221.35 95.504 220.778 95.7131 220.553 95.8411C220.48 95.8827 220.39 95.8957 220.293 95.9378C220.179 95.9874 220.123 96.1131 220.087 96.2216C219.999 96.4859 220.243 96.8136 220.413 97.2011C220.521 97.4478 220.474 97.9729 220.516 98.4111C220.523 98.4861 220.558 98.5442 220.72 99.0481C220.882 99.5521 221.182 100.498 221.42 101.698C221.658 102.898 221.826 104.324 221.924 105.094C222.032 105.938 222.119 106.297 222.191 106.769C222.22 106.952 222.216 107.025 222.198 107.05C222.18 107.075 222.144 107.051 222.102 106.985C222.059 106.918 222.011 106.811 221.909 106.468C221.806 106.125 221.651 105.55 221.552 105.116C221.393 104.412 221.381 103.943 221.375 103.653C221.371 103.42 221.321 103.18 221.273 102.98C221.216 102.746 221.2 102.455 221.164 102.164C221.138 101.96 221.043 101.537 220.91 101.041C220.78 100.555 220.849 100.204 220.873 99.7473C220.893 99.3633 220.897 98.6683 220.921 98.3344C220.945 98.0005 220.981 98.0484 221.072 98.1988C221.529 98.9608 221.876 99.2701 222.173 99.3619C222.374 99.4241 222.65 99.2962 222.91 99.1574C223.119 99.0458 223.436 98.7532 223.84 98.3667C224.013 98.2024 224.09 98.0759 224.259 97.8705C224.428 97.6651 224.679 97.3776 225.054 96.8882C225.429 96.3988 225.92 95.7161 226.143 95.3823C226.366 95.0486 226.307 95.0845 225.886 95.654C225.466 96.2235 224.688 97.3254 224.155 98.1685C223.622 99.0116 223.359 99.5626 223.211 99.8943C223.063 100.226 223.039 100.322 223.039 100.395C223.039 100.469 223.063 100.516 223.123 100.517C223.286 100.519 223.629 100.157 224.106 99.6201C224.341 99.3551 224.523 99.0712 224.712 98.7616C224.9 98.452 225.08 98.1166 225.25 97.7342C225.602 96.9438 225.749 96.4409 225.767 96.3741C225.769 96.3651 225.773 96.4151 225.683 97.3081C225.593 98.2012 225.414 99.9379 225.321 100.862C225.223 101.846 225.217 101.981 225.234 102.071C225.241 102.106 225.336 102.055 225.571 101.791C225.805 101.527 226.201 101.035 226.668 100.387C227.135 99.739 227.662 98.9485 227.478 99.3018C227.295 99.6551 226.384 101.176 225.766 102.331C225.147 103.486 224.847 104.229 224.693 104.635C224.539 105.042 224.539 105.09 224.569 105.114C224.599 105.139 224.659 105.139 224.738 105.091C224.816 105.043 224.912 104.947 225.243 104.539C225.574 104.13 226.137 103.411 226.57 102.903C227.262 102.094 227.636 101.812 227.744 101.752C227.806 101.718 227.877 101.668 227.932 101.715C227.987 101.762 228.023 101.906 228.023 102.028C228.024 102.15 227.988 102.246 227.634 102.954C227.28 103.662 226.609 104.979 226.258 105.718C225.894 106.576 225.894 106.783 225.93 106.94C225.954 107.014 225.99 107.073 226.027 107.135" stroke="white" stroke-width="4" stroke-linecap="round"/>
<path d="M222.397 127.751C222.385 127.655 222.36 127.365 222.402 127.003C222.423 126.823 222.444 126.511 222.529 125.967C222.613 125.423 222.757 124.657 222.861 124.022C222.965 123.388 223.024 122.909 223.055 122.602C223.125 121.91 223.159 121.473 223.249 120.972C223.283 120.786 223.304 120.386 223.352 119.734C223.4 119.085 223.28 118.474 223.166 117.997C223.087 117.669 223.002 117.504 222.942 117.324C222.824 116.97 222.675 116.562 222.597 116.247C222.566 116.125 222.554 116.077 222.506 116.262C222.458 116.447 222.374 116.866 222.325 117.285C222.276 117.705 222.264 118.112 222.293 118.705C222.323 119.298 222.395 120.065 222.534 120.873C222.673 121.681 222.876 122.508 223.095 123.34C223.314 124.173 223.541 124.988 223.682 125.641C223.824 126.294 223.872 126.761 223.89 127.313C223.909 127.865 223.897 128.488 223.873 128.917C223.82 129.847 223.752 130.156 223.739 130.466C223.739 130.471 223.739 130.342 223.68 129.819C223.62 129.296 223.5 128.374 223.45 127.678C223.4 126.981 223.424 126.538 223.461 126.202C223.497 125.866 223.545 125.65 223.623 125.162C223.702 124.673 223.81 123.919 223.847 122.853C223.885 121.788 223.849 120.434 223.837 119.755C223.824 119.076 223.836 119.112 223.83 119.951C223.824 120.79 223.8 122.431 223.962 124.342C224.123 126.253 224.47 128.385 224.823 129.974C225.176 131.564 225.523 132.546 225.756 133.142C225.989 133.738 226.096 133.917 226.17 134.034C226.243 134.15 226.279 134.198 226.316 134.091C226.352 133.984 226.388 133.72 226.335 131.441C226.282 129.161 226.138 124.873 225.986 122.335C225.834 119.797 225.678 119.138 225.586 118.769C225.494 118.399 225.47 118.339 225.482 118.362C225.493 118.386 225.541 118.493 225.817 120.579C226.094 122.665 226.597 126.725 226.886 128.936C227.175 131.148 227.235 131.387 227.313 131.631C227.392 131.874 227.488 132.113 227.573 132.231C227.659 132.348 227.73 132.336 227.827 132.222C227.924 132.108 228.044 131.893 228.148 131.62C228.251 131.347 228.335 131.024 228.45 129.174C228.565 127.325 228.709 123.959 228.753 122.04C228.797 120.12 228.737 119.749 228.694 119.528C228.652 119.307 228.628 119.247 228.609 119.192C228.591 119.137 228.579 119.089 228.489 119.586C228.399 120.082 228.231 121.124 228.097 121.763C227.963 122.401 227.867 122.605 227.768 122.815" stroke="white" stroke-width="4" stroke-linecap="round"/>
<path d="M222.869 116.064C222.869 115.98 222.893 115.762 222.941 115.156C222.98 114.67 222.99 113.819 222.996 113.339C223.005 112.652 222.918 112.412 222.869 112.169C222.818 111.912 222.736 111.65 222.664 111.322C222.635 111.192 222.604 110.864 222.501 110.381C222.348 109.662 222.083 109.35 221.95 108.711C221.876 108.352 221.889 107.696 221.847 107.425C221.799 107.115 221.816 108.221 221.895 108.686C221.998 109.301 222.155 109.457 222.252 109.645C222.36 109.854 222.373 110.134 222.403 110.762C222.426 111.223 222.458 111.732 222.464 112.353C222.467 112.68 222.361 112.869 222.331 113.075C222.301 113.279 222.289 114.193 222.325 114.786C222.333 114.915 222.433 115.047 222.56 115.144C222.608 115.18 222.651 115.145 222.687 115.055C222.724 114.964 222.76 114.809 222.778 114.501C222.797 114.193 222.797 113.738 222.731 113.174C222.665 112.61 222.533 111.952 222.459 111.474C222.343 110.726 222.337 110.294 222.301 110.047C222.277 109.884 222.229 109.546 222.114 109.062C222.032 108.717 221.902 108.371 221.793 107.931C221.683 107.484 221.672 107.1 221.684 106.924C221.697 106.725 221.78 107.351 221.726 107.672C221.652 108.111 221.454 108.427 221.381 108.816C221.312 109.185 221.369 109.795 221.435 110.134C221.515 110.543 221.84 111.004 222.153 111.541C222.538 112.2 222.833 112.651 222.905 112.85C223.007 113.131 223.099 113.316 223.153 113.516C223.165 113.558 223.16 113.595 223.196 113.601C223.303 113.621 223.533 113.416 223.847 113.096C224.013 112.927 224.161 112.717 224.498 112.151C224.836 111.585 225.351 110.662 225.94 109.421C226.529 108.179 227.175 106.646 227.592 105.706C228.009 104.767 228.177 104.467 227.88 105.134C227.583 105.8 226.817 107.441 226.416 108.304C226.015 109.167 226.003 109.203 226.003 109.24C226.003 109.276 226.015 109.312 226.039 109.325C226.208 109.412 226.558 108.976 227.105 108.29C227.494 107.804 228.072 107.006 228.386 106.575C228.7 106.144 228.724 106.096 228.18 106.526C227.635 106.957 226.521 107.867 225.786 108.42C224.762 109.189 224.346 109.325 224.243 109.343C224.189 109.353 224.129 109.349 224.074 109.337C224.019 109.325 223.971 109.301 223.935 109.229C223.843 109.049 223.921 108.686 224.12 108.18C224.367 107.55 224.659 107.184 224.822 107.004C225.103 106.691 225.553 106.362 226.023 106.085C226.41 105.856 226.931 105.672 227.457 105.467C227.898 105.295 228.059 105.139 228.108 105.127C228.133 105.12 228.108 105.234 227.88 105.72C227.653 106.207 227.209 107.093 226.933 107.729C226.657 108.366 226.561 108.725 226.494 109.138C226.427 109.55 226.391 110.005 226.384 110.414C226.378 110.822 226.401 111.169 226.51 111.719C226.618 112.269 226.809 113.012 226.926 113.437C227.157 114.276 227.309 114.817 227.327 114.866C227.332 114.878 227.334 114.771 227.561 113.243C227.789 111.714 228.244 108.744 228.484 107.076C228.725 105.408 228.737 105.132 228.731 105.008C228.725 104.885 228.701 104.92 228.545 105.328C228.389 105.736 228.102 106.515 227.876 107.251C227.65 107.987 227.494 108.658 227.402 109.692C227.31 110.727 227.286 112.104 227.345 113.448C227.405 114.793 227.548 116.062 227.616 116.782C227.697 117.632 227.612 117.853 227.492 118.004C227.43 118.082 227.323 118.119 227.232 118.138C227.06 118.173 226.863 118.085 226.67 117.994C226.52 117.924 226.175 117.519 225.716 116.927C225.473 116.614 225.362 116.272 225.217 115.819C225.08 115.389 225.095 114.821 225.173 114.091C225.264 113.238 225.506 112.737 225.483 112.922C225.451 113.169 225.316 113.718 225.26 114.229C225.204 114.74 225.216 115.196 225.282 115.688C225.348 116.18 225.468 116.695 225.626 117.163C225.783 117.632 225.975 118.04 226.115 118.315C226.256 118.591 226.34 118.723 226.407 118.815C226.474 118.906 226.522 118.954 226.608 118.967" stroke="white" stroke-width="4" stroke-linecap="round"/>
<path d="M229.003 149.745C228.692 149.949 228.38 150.153 227.837 150.533C227.293 150.913 226.526 151.464 226.024 151.808C225.318 152.291 224.987 152.431 224.818 152.491C224.448 152.624 223.887 152.83 223.687 152.975C223.569 153.061 223.343 153.204 223.023 153.458C222.378 153.969 222.084 154.076 221.956 154.203C221.784 154.375 221.491 154.536 221.291 154.681C221.142 154.79 221.043 154.935 220.801 155.291C220.682 155.467 220.607 155.624 220.432 155.812C220.233 156.025 220.051 156.157 219.942 156.266C219.891 156.318 219.953 156.026 220.073 155.605C220.312 154.769 220.558 154.138 220.637 153.951C220.689 153.827 220.835 153.379 221.071 152.714C221.277 152.135 221.321 151.948 221.435 151.474C221.529 151.081 221.728 150.389 221.833 149.995C221.956 149.531 222.046 149.192 222.179 148.756C222.252 148.516 222.336 148.163 222.469 147.704C222.522 147.521 222.53 147.436 222.716 146.86C222.902 146.284 223.261 145.218 223.464 144.597C223.713 143.835 223.74 143.636 223.722 143.576C223.716 143.555 223.669 143.587 223.434 143.947C223.2 144.306 222.769 145.001 222.529 145.401C222.242 145.878 222.108 146.378 221.933 147.025C221.851 147.327 221.745 147.638 221.606 148.085C221.502 148.42 221.394 148.584 221.303 148.812C220.918 149.786 220.849 150.095 220.686 150.5C220.601 150.713 220.619 150.942 220.589 151.124C220.565 151.269 220.546 151.941 220.589 152.238C220.629 152.525 220.655 151.694 220.667 151.543C220.688 151.283 220.728 151.041 220.842 150.279C220.943 149.599 221.183 148.331 221.3 147.641C221.418 146.951 221.418 146.88 221.459 146.549C221.501 146.219 221.585 145.632 221.694 145.012C221.803 144.392 221.935 143.758 222.009 143.413C222.121 142.89 222.083 142.596 222.065 142.415C222.06 142.366 222.047 142.318 221.993 143.096C221.939 143.874 221.843 145.479 221.811 146.455C221.78 147.432 221.816 147.731 221.841 147.987C221.909 148.704 221.926 149.017 221.962 149.363C221.999 149.722 222.143 150.396 222.216 150.779C222.263 151.027 222.36 151.389 222.446 151.62C222.461 151.661 222.506 151.681 222.566 151.687C222.626 151.693 222.71 151.681 223.855 150.783C225.001 149.884 227.204 148.1 228.43 147.121C229.655 146.141 229.834 146.022 229.867 145.972C229.917 145.896 229.585 146.007 228.883 146.271C228.256 146.507 227.067 146.918 226.331 147.194C225.334 147.567 224.975 147.749 224.794 147.803C224.688 147.835 224.564 147.798 224.431 147.738C224.375 147.712 224.37 147.653 224.382 147.575C224.393 147.496 224.429 147.388 224.963 146.668C225.496 145.948 226.526 144.618 227.075 143.916C227.655 143.173 227.72 143.104 227.697 143.127C227.643 143.181 227.53 143.342 226.719 144.117C225.909 144.892 224.412 146.281 223.659 146.967C222.905 147.653 222.941 147.593 223.385 146.928C223.829 146.262 224.679 144.992 225.207 144.254C225.735 143.517 225.914 143.349 226.037 143.244C226.159 143.14 226.219 143.104 226.281 143.067" stroke="white" stroke-width="4" stroke-linecap="round"/>
<path d="M221.926 144.338C222.01 144.098 222.093 143.858 222.34 143.202C222.587 142.546 222.994 141.48 223.336 140.074C223.677 138.669 223.941 136.956 224.077 136.002C224.212 135.047 224.212 134.904 224.224 134.716C224.251 134.3 224.369 133.743 224.514 133.217C224.623 132.82 224.876 132.496 225.089 132.234C225.306 131.966 225.47 131.78 225.519 131.743C225.604 131.876 225.628 132.129 225.598 132.532C225.568 132.804 225.508 133.211 225.446 133.631" stroke="white" stroke-width="4" stroke-linecap="round"/>
<path d="M228.894 133.885C228.475 134.687 228.056 135.49 227.756 136.184C227.456 136.879 227.289 137.442 227.154 138.02C227.02 138.597 226.924 139.172 226.875 139.546C226.805 140.073 226.837 140.272 226.891 140.315C226.925 140.341 227.005 140.297 227.078 140.225C227.151 140.153 227.223 140.033 227.41 139.54C227.597 139.047 227.896 138.185 228.116 137.273C228.336 136.362 228.468 135.428 228.536 134.905C228.604 134.381 228.604 134.298 228.562 134.302C228.52 134.307 228.436 134.403 228.279 134.674C228.122 134.945 227.895 135.388 227.676 135.946C227.457 136.503 227.253 137.162 227.13 137.633C227.007 138.104 226.971 138.368 226.953 138.659C226.915 139.261 226.982 139.894 227.073 140.396C227.107 140.588 227.151 140.646 227.194 140.659C227.236 140.672 227.284 140.636 227.309 140.594C227.334 140.551 227.334 140.503 227.334 140.454" stroke="white" stroke-width="4" stroke-linecap="round"/>
<path d="M225.918 141.18C225.618 141.599 225.319 142.018 225.165 142.21C225.01 142.402 225.01 142.354 225.058 142.198C225.106 142.041 225.202 141.778 225.221 141.624C225.241 141.471 225.181 141.435 225 141.446C224.82 141.458 224.52 141.517 224.073 141.626C223.035 141.878 222.397 142.063 222.325 142.069C222.148 142.084 222.059 141.798 221.914 141.381C221.748 140.906 222.009 140.709 222.076 140.503C222.131 140.335 222.227 140.201 222.288 140.019C222.359 139.808 222.409 139.512 222.53 139.004C222.61 138.668 222.663 138.447 222.717 138.205C222.766 137.991 222.844 137.47 222.971 136.655C223.073 136.002 223.026 135.592 223.056 135.267C223.076 135.049 223.098 134.726 223.141 134.374C223.228 133.648 223.328 133.196 223.365 133.039C223.466 132.603 223.304 131.844 223.335 131.369C223.351 131.115 223.377 130.825 223.407 130.559C223.429 130.365 223.353 130.22 223.305 130.068C223.276 129.979 223.256 129.892 223.226 129.856C223.191 129.814 223.147 129.964 223.111 130.007C223.071 130.054 222.894 129.965 222.719 129.989C222.56 130.01 222.735 130.315 222.79 130.556C222.887 130.982 222.76 131.258 222.724 131.488C222.708 131.587 222.687 131.958 222.693 132.466C222.696 132.687 222.724 133.166 222.712 133.874C222.703 134.361 222.615 134.597 222.579 134.845C222.525 135.211 222.518 135.795 222.5 135.959C222.475 136.185 222.409 136.424 222.385 136.66C222.367 136.837 222.312 137.029 222.294 137.45C222.257 138.325 222.276 138.989 222.258 139.188C222.252 139.399 222.24 139.546 222.216 139.918C222.204 140.254 222.192 140.889 222.179 141.543" stroke="white" stroke-width="4" stroke-linecap="round"/>
<path d="M208.466 103.225C208.466 103.146 208.466 103.067 208.483 103.037C208.5 103.008 208.534 103.03 208.557 103.093C208.68 103.426 208.739 104.213 208.814 104.76C208.907 105.439 208.923 105.681 208.985 106.158C209.031 106.511 209.127 107.087 209.173 107.418C209.229 107.816 209.265 108.272 209.334 108.973C209.388 109.526 209.346 109.829 209.346 110.034C209.345 110.182 209.391 110.419 209.499 110.954C209.607 111.49 209.788 112.315 209.898 112.78C210.028 113.328 210.145 113.519 210.316 113.866C210.594 114.432 210.705 114.868 210.705 114.926C210.706 115.208 210.249 114.458 210.066 114.372C209.744 114.221 209.357 114.287 209.3 114.19C209.157 113.946 209.367 113.318 209.494 112.99C209.571 112.788 209.62 112.608 209.688 112.128C209.727 111.855 209.734 111.285 209.694 110.757C209.643 110.079 209.574 109.899 209.483 109.727C209.438 109.641 209.312 110.09 209.243 110.637C209.113 111.673 209.163 111.953 209.123 112.308C209.073 112.752 209.174 112.914 209.26 113.069C209.283 113.112 209.322 113.154 209.357 113.183C209.391 113.212 209.425 113.223 209.493 113.218C209.562 113.212 209.664 113.19 210.236 112.85C210.809 112.51 211.85 111.854 213.376 110.996C214.902 110.137 216.882 109.097 218.195 108.476C219.509 107.855 220.098 107.685 220.418 107.592C220.738 107.499 220.772 107.487 220.009 107.736C219.245 107.985 217.684 108.494 216.79 108.807C215.895 109.12 215.714 109.222 215.434 109.41C215.154 109.598 214.781 109.87 214.509 110.055C213.862 110.496 213.608 110.572 213.318 110.698C212.94 110.861 212.672 110.835 212.449 110.864C212.375 110.873 212.273 110.87 212.204 110.853C212.134 110.836 212.1 110.802 212.094 110.722C212.078 110.518 212.202 110.254 212.401 109.935C212.52 109.744 212.724 109.526 212.981 109.273C213.239 109.021 213.556 108.75 214.85 107.92C216.144 107.09 218.407 105.71 219.533 105.01C220.659 104.31 220.58 104.333 219.526 104.712C218.473 105.092 216.448 105.827 215.264 106.279C214.079 106.732 213.796 106.879 213.538 107.039C213.039 107.349 212.785 107.578 212.598 107.732C211.852 108.343 211.598 108.424 211.42 108.487C211.382 108.501 211.346 108.482 211.34 108.447C211.334 108.413 211.356 108.357 211.787 107.79C212.217 107.224 213.054 106.149 213.615 105.477C214.176 104.804 214.437 104.567 215.131 104.06C215.825 103.553 216.945 102.784 217.538 102.37C218.171 101.93 218.461 101.73 218.873 101.473C219.026 101.377 219.058 101.34 219.019 101.323C218.979 101.305 218.866 101.305 218.129 101.617C217.392 101.928 216.035 102.55 215.29 102.899C214.546 103.247 214.455 103.304 214.25 103.401C213.734 103.645 213.323 103.796 213.073 103.887C212.633 104.047 212.159 104.309 211.788 104.532C211.533 104.685 211.369 104.79 211.226 104.825C211.164 104.84 211.118 104.836 211.1 104.814C211.082 104.791 211.094 104.746 211.235 104.474C211.377 104.201 211.648 103.704 211.924 103.295C212.427 102.548 212.819 102.209 213.006 102.066C213.286 101.854 213.561 101.706 214.089 101.411C214.528 101.166 215.306 100.709 215.77 100.431C216.235 100.152 216.359 100.062 216.604 99.8511C217.22 99.3221 217.675 98.9179 217.829 98.8152C218.191 98.5742 218.749 98.3121 219.046 98.1353C219.308 97.9794 218.408 98.1284 218.054 98.2199C217.753 98.2978 217.12 98.5158 216.74 98.6428C216.437 98.7437 216.214 98.9162 215.382 99.4807C215.206 99.6 215.163 99.6477 214.924 99.835C214.686 100.022 214.256 100.35 213.956 100.57C213.503 100.901 213.254 101.065 213.106 101.185C212.786 101.444 212.069 101.864 211.683 102.019C211.311 102.231 211.061 102.39 210.866 102.528C210.831 102.551 210.798 102.562 210.728 102.574" stroke="white" stroke-width="4" stroke-linecap="round"/>
<path d="M210.556 118.103C210.545 118.023 210.534 117.944 210.505 117.355C210.477 116.765 210.432 115.668 210.391 115.108C210.351 114.549 210.317 114.56 210.232 114.617C209.755 114.933 209.563 115.302 209.46 115.519C209.245 115.972 209.117 116.216 209.02 116.479C208.954 116.658 208.945 116.912 208.985 117.108C209.024 117.301 209.287 117.937 209.362 118.49C209.373 118.57 209.379 118.627 209.385 118.979C209.391 119.33 209.391 119.975 209.385 120.335C209.379 120.753 209.357 121.014 209.351 121.351C209.348 121.542 209.311 121.69 209.294 122.081C209.258 122.891 209.277 123.495 209.26 123.638C209.23 123.882 209.288 124.158 209.316 124.443C209.364 124.921 209.379 125.311 209.396 125.632C209.411 125.897 209.482 126.214 209.533 126.568C209.551 126.66 209.573 126.751 209.585 126.826C209.596 126.9 209.596 126.957 209.631 127.084" stroke="white" stroke-width="4" stroke-linecap="round"/>
<path d="M210.385 125.576C210.453 125.496 210.521 125.417 210.855 124.867C211.19 124.317 211.79 123.299 212.132 122.679C212.475 122.058 212.543 121.866 212.646 121.416C212.749 120.966 212.884 120.265 212.966 119.87C213.047 119.474 213.07 119.407 213.143 119.117C213.347 118.32 213.504 117.704 213.572 117.482C213.663 117.186 213.698 116.938 213.755 116.654C213.87 116.082 213.881 115.59 213.876 115.384C213.865 115.004 213.711 114.528 213.556 114.304C213.477 114.188 213.333 114.172 213.265 114.132C213.231 114.113 213.196 114.103 213.162 114.137C213.068 114.23 213.059 114.388 213.047 114.542C213.04 114.639 213.013 114.775 212.968 116.366C212.922 117.958 212.854 121.001 212.808 122.647C212.762 124.294 212.739 124.453 212.727 124.568C212.688 124.957 212.647 125.346 212.59 125.671C212.562 125.835 212.567 125.952 212.556 126.021C212.55 126.055 212.567 126.089 212.595 126.101C212.757 126.168 212.898 125.896 213.476 125.064C214.012 124.291 215.026 122.795 215.641 121.856C216.256 120.917 216.437 120.578 216.672 119.984C216.906 119.391 217.189 118.554 217.369 117.823C217.549 117.092 217.616 116.492 217.634 115.855C217.652 115.218 217.618 114.562 217.578 114.105C217.517 113.408 217.367 112.94 217.191 112.49C217.102 112.262 216.98 112.051 216.877 112.087C216.773 112.123 216.683 112.418 216.353 113.955C216.024 115.492 215.458 118.264 215.161 119.799C214.864 121.334 214.853 121.549 214.853 121.688C214.852 121.884 214.898 121.987 214.966 122.078C215.147 122.32 215.525 122.25 215.771 122.279C216.254 122.335 216.804 122.069 217.142 121.857C217.252 121.789 217.375 121.636 217.53 121.425C217.685 121.213 217.854 120.931 218.117 120.208C218.38 119.485 218.731 118.332 218.956 117.132C219.182 115.932 219.273 114.722 219.291 113.94C219.31 113.158 219.253 112.841 219.201 112.616C219.053 111.969 218.75 111.624 218.618 111.402C218.588 111.351 218.567 111.316 218.544 111.315C218.521 111.315 218.498 111.349 218.232 112.497C217.966 113.646 217.457 115.909 217.019 118.234C216.582 120.559 216.231 122.878 216.05 124.185C215.87 125.493 215.87 125.72 215.875 125.876C215.888 126.229 215.983 126.567 216.046 126.804C216.051 126.821 216.086 126.776 216.154 126.493C216.223 126.209 216.336 125.678 216.649 124.606C216.961 123.535 217.47 121.94 217.823 120.626C218.176 119.312 218.357 118.328 218.416 117.923C218.475 117.518 218.408 117.721 218.322 118.115C218.236 118.508 218.134 119.085 218.036 120.429C217.939 121.772 217.848 123.865 217.819 125.022C217.789 126.18 217.823 126.338 217.863 126.482C217.991 126.939 218.097 127.231 218.194 127.488C218.256 127.652 218.098 126.834 218.194 126.372C218.232 126.192 218.325 125.957 218.496 125.569C218.666 125.181 218.927 124.649 219.145 124.121C219.364 123.592 219.534 123.083 219.627 122.793C219.72 122.502 219.731 122.446 219.726 122.451C219.667 122.502 219.663 122.661 219.612 123.403C219.566 124.077 219.505 125.355 219.458 126.059C219.389 126.853 219.355 127.003 219.326 127.106C219.309 127.152 219.287 127.186 219.195 127.221" stroke="white" stroke-width="4" stroke-linecap="round"/>
<path d="M220.464 129.004C220.339 128.981 220.099 128.912 219.634 128.816C219.228 128.732 218.468 128.618 217.976 128.548C217.282 128.449 216.889 128.432 216.535 128.381C216.202 128.333 215.974 128.284 215.554 128.329C215.201 128.367 214.569 128.465 213.971 128.494C213.373 128.524 212.83 128.49 212.534 128.467C212.109 128.434 211.838 128.341 211.558 128.261C211.331 128.196 211.14 128.192 210.918 128.107C210.599 127.985 210.398 127.861 210.22 127.804C210.077 127.758 209.827 127.735 209.586 127.707C209.529 127.7 209.461 127.701 209.415 127.718C209.369 127.735 209.346 127.769 209.334 127.809C209.285 127.979 209.459 128.282 209.562 128.534C209.669 128.796 209.757 129.003 209.774 129.26C209.795 129.574 209.78 129.963 209.729 130.1C209.673 130.249 209.427 130.408 209.345 130.478C209.001 130.776 209.482 129.85 209.551 129.553C209.569 129.474 209.563 129.394 209.546 129.375C209.447 129.269 209.403 129.665 209.397 129.922C209.391 130.183 209.505 130.454 209.579 130.592C209.594 130.619 209.653 130.592 209.637 130.598C209.543 130.629 209.426 130.66 209.363 130.694C209.296 130.731 209.277 130.82 209.26 130.917C209.249 130.979 209.254 131.07 209.294 131.117C209.519 131.381 210.03 130.981 210.703 130.815C210.906 130.765 211.047 130.763 211.337 130.729C211.883 130.665 212.27 130.729 212.729 130.746C213.154 130.762 213.968 130.752 214.433 130.757C214.989 130.764 215.319 130.786 215.696 130.78C216.11 130.774 216.635 130.695 216.943 130.689C217.32 130.682 217.789 130.706 217.858 130.695C217.926 130.683 217.961 131.147 217.956 131.816C217.952 132.273 217.836 132.727 217.796 133.013C217.761 133.263 217.744 133.391 217.772 133.392C217.96 133.395 218.154 132.823 218.399 132.304C218.612 131.854 218.761 131.404 218.846 131.21C218.864 131.164 218.875 131.13 218.87 131.135C218.864 131.14 218.841 131.185 218.818 131.232" stroke="white" stroke-width="4" stroke-linecap="round"/>
<path d="M208.055 141.961C208.055 141.882 208.077 141.654 208.18 141.266C208.222 141.107 208.249 140.968 208.266 140.91C208.379 140.534 208.214 141.8 208.243 141.995C208.247 142.024 208.294 142.007 208.781 141.487C209.268 140.966 210.207 139.937 210.894 139.22C211.581 138.503 211.989 138.13 212.3 137.824C212.612 137.519 212.815 137.292 213.435 136.757C214.055 136.222 215.084 135.385 215.886 134.795C216.688 134.206 217.231 133.889 217.533 133.709C217.999 133.432 218.178 133.289 218.281 133.146C218.42 132.953 218.578 132.889 218.647 132.877C218.734 132.862 218.852 133.138 219.051 133.514C219.297 133.977 219.355 134.441 219.378 134.856C219.393 135.113 219.356 135.464 219.327 135.729C219.299 135.995 219.265 136.165 218.942 137.134C218.619 138.104 218.008 139.869 217.66 140.942C217.311 142.015 217.243 142.343 217.197 142.812C217.15 143.281 217.128 143.88 217.105 144.263C217.059 145.027 216.877 145.387 216.672 145.815C216.563 146.041 216.422 146.276 216.323 145.465C216.225 144.654 216.169 142.787 216.168 141.622C216.167 140.457 216.224 140.05 216.281 139.75C216.43 138.972 216.647 138.74 216.801 138.466C216.999 138.114 217.275 137.872 217.418 137.694C217.594 137.475 217.709 137.243 217.852 137.038C217.907 136.959 217.916 136.923 217.831 137.024C217.746 137.125 217.565 137.363 216.997 137.881C216.429 138.4 215.478 139.191 214.429 140.029C213.379 140.867 212.259 141.727 211.649 142.204C210.853 142.825 210.707 142.955 210.529 143.098C210.288 143.292 210.112 143.686 209.947 143.835C209.653 144.099 209.404 144.257 209.227 144.304C209.012 144.36 208.958 143.916 208.838 143.722C208.743 143.568 208.672 143.447 208.604 143.424C208.453 143.374 208.375 143.663 208.295 143.891C208.113 144.412 208.249 144.92 208.289 145.177C208.322 145.387 208.329 145.752 208.357 146.034C208.363 146.187 208.375 146.337 208.392 146.638C208.397 146.882 208.397 147.312 208.432 147.789" stroke="white" stroke-width="4" stroke-linecap="round"/>
<path d="M220.566 146.418C220.077 146.463 219.642 146.577 219.288 146.618C218.719 146.682 218.397 146.737 218.054 146.914C217.752 147.07 217.414 147.444 217.156 147.998C217.02 148.293 216.99 148.576 216.848 148.861C216.622 149.313 216.306 149.752 216.066 150.044C215.867 150.286 215.677 150.53 215.477 151.021C215.355 151.318 215.106 151.865 214.848 152.278C214.662 152.576 214.591 152.861 214.539 153.141C214.545 153.41 214.568 153.57 214.596 153.827C214.602 153.924 214.602 154.059 214.602 154.199" stroke="white" stroke-width="4" stroke-linecap="round"/>
<path d="M214.225 142.544C214.203 142.499 214.123 142.34 213.981 142.179C213.928 142.121 213.827 142.245 213.594 142.659C213.361 143.074 212.976 143.809 212.716 144.363C212.455 144.917 212.331 145.268 212.233 145.601C211.924 146.652 211.918 146.988 211.82 147.251C211.7 147.576 211.439 148.161 211.232 148.855C211.187 149.005 211.209 149.168 211.203 149.233C211.2 149.268 211.152 149.104 211.033 148.701C210.818 147.974 210.58 147.492 210.552 147.384C210.525 147.283 211.02 147.116 211.916 146.888C212.284 146.794 212.462 146.705 212.725 146.545C212.988 146.386 213.327 146.148 213.575 145.958C213.982 145.646 214.315 145.266 214.64 144.866C214.861 144.595 214.922 144.43 214.922 144.384C214.923 144.265 214.604 144.622 214.124 145.375C213.992 145.583 213.93 145.796 213.855 146.037C213.78 146.278 213.712 146.549 213.61 147.017C213.507 147.485 213.371 148.141 213.284 148.53C213.139 149.179 212.969 149.693 212.888 150.033C212.877 150.085 212.866 150.153 212.86 150.233C212.854 150.313 212.854 150.404 212.854 150.497" stroke="white" stroke-width="4" stroke-linecap="round"/>
<path d="M218.03 150.394C218.03 150.519 217.951 151.166 217.797 151.988C217.684 152.59 217.494 153.088 217.323 153.55C217.126 154.08 216.9 154.266 216.671 154.427C216.524 154.53 216.124 154.78 215.558 155.384C214.596 156.412 214.705 156.713 214.648 156.798C214.622 156.837 214.613 156.872 214.664 156.856C214.839 156.799 215.012 156.645 215.421 156.373C215.756 156.149 216.372 155.784 216.704 155.586C217.035 155.388 217.069 155.376 217.081 155.399C217.162 155.553 216.662 155.956 216.015 156.426C215.687 156.665 215.403 156.724 215.151 156.827C214.655 157.03 213.976 157.34 213.62 157.575C213.282 157.798 212.889 158.06 212.587 158.294C212.094 158.675 211.849 159.214 211.717 159.369C211.578 159.532 211.312 159.604 211.078 159.768C210.697 160.037 210.341 160.38 209.937 160.721C209.296 161.263 208.866 161.694 208.684 161.842C208.257 162.189 208.18 162.391 208.06 162.563C207.95 162.72 207.906 162.871 207.815 163.014C207.701 163.192 207.563 163.351 207.415 163.54C207.197 163.816 207.061 163.911 206.918 164.037C206.696 164.232 206.489 164.482 206.409 164.648C206.335 164.801 206.249 164.951 206.175 165.1C206.158 165.134 206.146 165.168 206.152 165.129C206.173 164.976 206.237 164.77 206.322 164.548C206.439 164.245 206.602 163.8 206.751 163.338C206.898 162.879 206.946 162.622 206.991 162.461C207.034 162.312 207.105 162.13 207.282 161.526C207.39 161.158 207.505 160.92 207.568 160.821C208.044 160.079 207.312 162.116 207.266 162.294C207.22 162.472 207.175 162.631 207.1 162.797C207.037 162.94 206.946 163.077 206.787 163.22C206.75 163.253 206.695 163.226 206.661 163.204C206.531 163.118 206.501 162.919 206.449 162.559C206.393 162.168 206.477 161.619 206.506 161.29C206.521 161.111 206.603 160.862 206.677 160.628C206.76 160.366 206.774 160.176 206.849 159.936C206.905 159.754 206.923 159.458 206.952 159.165C206.988 158.794 206.992 158.634 207.026 158.439C207.081 158.123 207.083 157.799 207.1 157.622C207.127 157.343 207.174 156.841 207.203 156.48C207.232 156.121 207.277 155.436 207.306 155.108C207.323 154.918 207.357 154.691 207.374 154.36C207.389 154.073 207.426 153.8 207.443 153.287C207.45 153.08 207.494 152.818 207.551 152.188C207.592 151.739 207.631 151.026 207.648 150.624C207.669 150.156 207.643 149.916 207.688 149.653C207.744 149.33 208.236 149.446 208.402 149.372C208.442 149.354 208.488 149.343 208.534 149.354C208.786 149.416 208.763 149.97 208.842 150.267C208.949 150.666 209.059 151.078 209.174 151.319C209.288 151.56 209.242 151.878 209.294 152.238C209.372 152.781 209.346 153.215 209.277 153.637C209.168 154.31 209.048 154.793 209.043 154.907C209.026 155.242 208.9 155.603 208.843 156.242C208.79 156.834 208.831 157.706 208.848 157.929C208.865 158.149 209.025 158.346 209.094 158.484C209.134 158.563 209.208 158.621 209.276 158.655C209.317 158.676 209.39 158.622 209.442 158.588C209.533 158.527 209.766 158.088 210.109 157.392C210.344 156.913 210.498 156.498 210.743 156.093C210.993 155.681 211.208 155.468 211.321 155.309C211.751 154.709 211.802 154.44 212.013 153.899C212.135 153.586 212.134 153.151 212.122 152.66C212.107 151.992 212.02 151.721 211.894 151.412C211.869 151.35 211.826 151.32 211.786 151.297C211.746 151.274 211.7 151.263 211.654 151.263C211.608 151.262 211.563 151.274 211.517 151.285" stroke="white" stroke-width="4" stroke-linecap="round"/>
<path d="M193.357 173.303C193.481 173.204 193.998 172.416 194.778 171.203C195.548 170.007 195.862 169.112 196.097 168.754C196.611 167.969 196.73 166.76 196.867 165.95C196.968 165.353 197.127 164.97 197.19 164.388C197.327 163.104 197.327 162.416 197.289 161.907C197.249 161.367 197.153 160.436 197.079 159.834C196.988 159.096 197.053 157.9 197.066 156.922C197.073 156.408 196.955 155.916 196.917 155.222C196.895 154.819 196.806 154.477 196.768 153.499C196.76 153.285 196.731 153.212 196.719 153.235C196.494 153.652 196.979 154.3 197.066 154.93C197.322 156.788 196.906 157.398 196.843 158.194C196.77 159.107 196.83 160.502 196.867 160.923C196.883 161.1 196.929 161.811 196.917 162.816C196.903 163.946 196.806 165.339 196.707 165.637C196.6 165.957 196.557 166.503 196.422 166.914C196.303 167.272 196.211 167.571 196.049 167.869C195.894 168.158 195.764 168.464 195.677 168.811C195.544 169.343 195.492 169.655 195.355 169.953C195.208 170.272 194.922 170.548 194.71 170.846C194.661 170.914 194.648 170.994 194.672 170.909C194.884 170.167 195.216 169.585 195.428 169.211C195.59 168.926 195.763 168.419 195.899 168.02C196.013 167.688 196.234 167.425 196.408 167.065C196.589 166.69 197.199 165.892 197.573 165.057C197.852 164.437 197.946 163.755 198.107 163.32C198.263 162.899 198.416 162.244 198.677 161.56C199.172 160.262 199.656 159.315 200.077 158.486C200.675 157.309 201.293 156.117 201.603 155.398C201.938 154.622 202.188 153.758 202.509 153.077C202.628 152.825 202.878 152.546 202.931 152.395C202.983 152.243 202.86 152.243 202.748 152.231C201.826 152.13 200.379 152.217 199.994 152.317C199.831 152.359 199.536 152.392 199.165 152.355C198.704 152.309 198.37 151.872 198.108 151.55C197.966 151.375 198.44 151.004 199.144 150.351C199.618 149.91 200.265 149.181 200.643 148.753C201.022 148.325 201.095 148.202 202.079 147.046C203.062 145.89 204.953 143.704 206.111 142.431C207.584 140.812 208.067 140.486 208.08 140.534C208.113 140.656 207.921 140.975 207.477 141.692C207.033 142.409 206.272 143.514 205.843 144.157C205.323 144.936 205.092 145.344 204.672 145.987C203.617 147.6 203.307 148.345 203.008 148.929C202.643 149.641 202.585 150.207 202.499 150.604C202.403 151.044 202.04 151.348 201.78 151.708C201.562 152.008 201.296 152.34 201.159 152.787C200.993 153.331 200.85 154.073 200.651 154.956C200.476 155.733 200.155 156.384 200.154 156.423C200.152 156.52 200.35 156.044 201.003 155.119C201.656 154.193 202.81 152.646 203.441 151.788C204.157 150.814 204.394 150.459 204.741 150.038C205.063 149.646 205.338 149.367 205.842 148.8C207.835 146.562 208.24 146.389 208.339 146.364C208.373 146.355 208.34 146.486 207.947 147.101C207.554 147.717 206.793 148.846 206.339 149.502C205.777 150.315 205.489 150.727 204.885 151.713C204.441 152.438 203.667 153.584 203.238 154.277C202.489 155.487 202.042 156.306 201.718 156.843C201.476 157.243 201.247 157.872 201.097 158.22C200.925 158.618 200.948 159.086 200.874 159.546C200.781 160.126 200.775 160.651 200.786 160.738C200.805 160.876 201.145 160.529 201.417 160.233C201.761 159.857 202.701 158.8 203.929 157.523C204.459 156.971 204.888 156.562 205.753 155.919C207.603 154.544 208.166 154.426 208.289 154.389C208.339 154.374 208.364 154.474 207.886 155.04C207.407 155.606 206.425 156.662 205.649 157.623C204.873 158.585 204.332 159.42 203.956 160.022C203.088 161.409 202.859 161.816 202.611 162.201C202.406 162.518 202.14 163.128 201.941 163.738C201.595 164.796 201.025 165.51 200.219 166.403C199.342 167.375 198.965 168.265 198.58 168.601C198.433 168.73 198.196 168.911 198.108 169.072C197.942 169.377 199.084 168.543 199.887 167.937C201.509 166.714 202.482 166.285 202.993 165.974C203.301 165.764 204.166 165.024 205.465 163.799C206.077 163.188 206.593 162.599 207.125 161.917" stroke="white" stroke-width="4" stroke-linecap="round"/>
<path d="M195.179 158.401C195.852 157.672 196.525 156.943 196.956 156.427C197.387 155.911 197.555 155.631 195.679 157.561C193.803 159.492 189.877 163.642 187.659 166.06C184.186 169.845 183.399 170.973 182.973 171.345C182.867 171.437 183.223 170.759 185.413 167.92C187.604 165.081 191.753 159.866 194.172 156.899C197.827 152.414 199.251 151.44 199.937 150.839C200.063 150.729 199.037 151.316 196.589 153.397C194.66 155.037 191.505 158.057 188.765 160.85C186.025 163.643 183.838 166.167 182.627 167.523C181.416 168.879 181.248 168.991 181.638 168.348C182.028 167.705 182.981 166.303 184.229 164.627C185.478 162.952 186.992 161.045 188.585 159.25C191.703 155.735 193.704 154.04 194.353 153.59C194.798 153.28 195.393 152.691 193.664 154.477C191.935 156.263 187.841 160.413 185.284 163.111C182.726 165.81 181.829 166.932 181.199 167.818C179.717 170.181 179.039 171.421 177.85 173.461C177.62 173.863 177.564 174.032 177.336 174.375" stroke="white" stroke-linecap="round"/>
<path d="M189.911 164.009C190.472 163.672 192.331 162.602 194.374 161.382C194.865 161.089 194.173 161.341 192.228 162.466C190.283 163.592 187.087 165.555 185.16 166.791C181.256 169.294 180.057 171.144 179.998 171.175C179.314 171.532 181.073 169.846 183.851 167.15C186.404 164.673 191.509 160.192 194.025 158.048C196.541 155.904 196.372 156.297 193.846 158.602C191.32 160.907 186.441 165.113 183.844 167.336C181.246 169.559 181.078 169.671 181.103 169.448C181.197 168.631 182.65 167.078 184.433 165.324C186.204 163.582 187.186 162.092 188.745 160.53C190.41 158.862 192.685 156.929 193.109 156.703C193.312 156.595 193.477 156.477 191.488 158.298C189.5 160.119 185.35 163.876 183.465 165.671C181.579 167.467 182.084 167.186 182.568 166.958C184.291 166.145 185.656 165.484 187.241 164.187C188.013 163.555 188.983 162.221 190.205 160.968C194.154 156.921 194.894 156.535 195.32 155.854C195.514 155.543 195.575 155.174 195.52 154.919C195.49 154.781 195.128 154.832 193.75 156.262C192.372 157.692 189.905 160.552 188.185 162.334C184.632 166.015 182.835 166.102 181.307 166.809C179.686 167.56 179.209 169.158 178.782 170.038C178.222 171.194 177.679 172.383 177.027 173.606C176.167 175.216 175.752 176.92 174.988 177.742C174.332 178.448 173.601 178.735 172.92 179.075C172.759 179.156 172.581 179.133 172.551 179.049C172.46 178.8 173.533 178.175 174.638 177.495C175.669 176.861 170.88 178.509 170.709 178.454C170.305 178.323 172.282 176.484 174.348 174.389C176.122 172.591 177.275 171.717 178.153 171.036C179.614 169.903 181.122 168.944 183.104 167.78C184.83 166.768 187.405 165.547 189.725 164.132C191.738 162.905 193.188 161.752 194.157 160.923C194.326 160.779 194.496 160.613 194.19 160.947C193.107 162.13 191.674 163.55 190.038 165.185C188.991 166.231 187.617 167.829 186.278 169.17C182.352 173.104 181.418 173.862 180.85 174.57C180.085 175.525 179.039 175.846 177.625 176.553C176.539 177.095 175.586 177.994 174.986 178.312C174.636 178.498 175.803 177.605 177.378 176.621C178.637 175.836 180.748 174.348 182.127 173.456C183.505 172.565 184.065 172.285 185.7 171.215C187.335 170.145 190.027 168.294 192.03 167.005C196.754 163.964 197.837 163.275 198.632 162.821C199.114 162.545 199.596 162.311 199.683 162.14C200.22 161.081 197.171 164.168 193.355 167.703C189.601 171.181 189.181 172.444 187.738 173.717C186.324 174.964 184.65 176.237 183.462 177.537C182.476 178.616 181.816 179.752 181.22 180.319C180.713 180.802 184.562 177.733 188.033 175.739C189.052 175.154 189.626 174.718 190.277 174.32C190.71 174.054 191.099 173.809 191.13 173.696C191.286 173.12 187.502 174.142 183.369 175.161C181.367 175.731 180.063 176.297 178.677 176.948C178.131 177.206 177.907 177.318 177.336 177.604" stroke="white" stroke-width="4" stroke-linecap="round"/>
<path d="M207.24 129.475C207.395 129.599 207.549 129.723 207.675 129.802C207.801 129.881 207.894 129.912 208.083 130.037" stroke="white" stroke-width="4" stroke-linecap="round"/>
<path d="M208.738 130.505C207.742 130.754 207.055 130.88 206.385 130.957C205.623 131.046 204.936 131.067 204.325 131.144C203.349 131.269 202.719 131.067 202.265 130.989C201.816 130.912 201.006 130.88 199.914 130.802C197.045 130.598 196.757 130.91 196.585 130.911C196.213 130.912 196.32 130.164 196.272 127.893C196.254 127.009 196.132 126.388 196.085 125.935C196.04 125.502 195.913 125.077 195.82 124.703C195.727 124.327 195.664 123.831 195.477 122.554C195.232 120.883 195.539 119.5 195.617 118.54C195.658 118.024 195.85 117.403 196.1 116.342C196.204 115.9 196.288 115.56 196.303 115.264C196.401 113.39 196.32 110.471 196.195 110.72C195.872 111.365 195.851 111.842 195.804 112.653C195.759 113.435 195.664 114.37 195.648 115.865C195.635 117.052 195.788 118.614 195.835 119.098C195.864 119.395 195.913 120.294 195.898 121.463C195.891 121.986 195.82 123.625 195.804 126.011C195.793 127.815 195.664 129.629 195.555 130.252C195.41 131.075 195.631 131.69 195.849 131.815C196.389 132.124 197.065 131.941 197.782 131.878C199.468 131.731 200.776 131.784 202.286 131.956C202.951 132.031 204.005 131.941 205.612 131.724C207.219 131.508 209.35 131.106 210.526 130.868C211.862 130.598 212.385 130.505 212.901 130.474C213.007 130.468 212.517 130.225 211.91 130.085C211.466 129.982 210.401 129.944 207.916 129.835C206.298 129.764 203.949 129.88 202.616 129.896C200.626 129.921 199.942 129.788 198.881 129.725C198.788 129.72 199.281 129.476 200.49 129.166C201.416 128.928 202.996 128.609 203.885 128.433C205.321 128.151 206.083 128.165 208.134 127.731C210.264 127.28 211.762 126.667 211.967 126.682C212.596 126.73 210.149 126.884 208.224 127.118C206.952 127.272 205.063 127.32 203.984 127.337C202.275 127.364 201.472 127.073 200.193 127.057C199.223 127.044 198.067 127.104 198.004 126.996C197.602 126.305 199.965 126.481 201.501 126.093C202.552 125.828 204.119 125.304 205.472 124.941C207.888 124.293 209.143 124.139 209.484 124.109C210.017 124.06 210.422 123.921 210.532 123.828C210.581 123.786 210.487 123.673 210.347 123.61C210.011 123.458 208.872 123.515 206.712 123.67C205.444 123.761 203.84 124.01 202.395 124.122C199.72 124.328 198.286 124.202 197.991 124.155C197.85 124.133 197.726 124.139 197.616 124.124C197.506 124.109 197.413 124.078 197.473 123.984C197.675 123.673 199.178 123.145 201.482 122.397C203.496 121.744 204.835 121.613 205.426 121.457C206.317 121.222 207.018 121.176 208.39 120.755C208.673 120.669 208.798 120.676 208.846 120.629C208.895 120.583 208.864 120.49 208.74 120.396C207.82 119.699 205.997 120.176 205.215 120.239C203.893 120.345 201.729 120.582 200.69 120.504C199.844 120.441 198.849 120.208 198.334 120.13C198.134 120.1 197.823 120.114 197.787 120.068C197.752 120.021 197.999 119.929 199.038 119.634C200.076 119.339 201.899 118.845 203.039 118.513C204.59 118.061 205.797 117.435 207.184 116.656C207.776 116.324 208.107 116.063 208.329 115.92C208.63 115.725 207.225 116.209 204.452 117.05C202.271 117.712 200.94 117.774 200.395 117.758C199.64 117.737 199.036 117.338 198.691 117.104C198.621 117.057 198.69 116.933 198.798 116.839C199.062 116.611 199.716 116.402 201.113 115.967C202.071 115.669 203.56 115.286 204.493 115.001C206.45 114.406 207.269 113.812 207.692 113.624C208.088 113.448 208.176 113 208.254 112.86C208.58 112.278 206.587 112.999 205.746 113.124C204.614 113.291 203.593 113.84 202.812 114.122C202.309 114.303 201.813 114.372 200.521 114.435C199.646 114.477 199.378 114.622 199.299 114.591C198.75 114.379 200.092 113.688 201.493 112.769C202.809 111.905 203.897 111.629 204.85 111.082C205.535 110.689 206.115 110.287 206.863 109.741C207.606 109.198 208.236 108.944 208.658 108.772C209.169 108.565 206.873 109.438 204.643 110.033C203.521 110.333 202.135 110.47 200.707 110.721C200.224 110.806 199.723 110.908 199.192 111.018C198.737 111.112 198.348 111.095 198.161 111.158C197.975 111.221 197.817 110.941 197.724 110.754C197.639 110.585 197.692 110.317 197.754 110.037C197.951 109.144 199.748 108.821 200.544 108.336C200.851 108.149 201.123 107.945 202.145 107.45C203.005 107.032 204.587 106.336 205.445 105.955C206.396 105.542 206.677 105.418 206.989 105.231C207.115 105.137 207.177 105.044 207.334 104.855" stroke="white" stroke-width="4" stroke-linecap="round"/>
<path d="M184.176 116.861C184.151 116.759 184.125 116.656 184.112 117.514C184.098 118.372 184.098 120.194 184.111 121.184C184.125 122.277 184.176 123.305 184.163 124.756C184.155 125.648 184.047 126.318 184.034 127.16C184.028 127.512 184.098 128.593 184.111 130.044C184.176 130.882 184.202 131.167 184.241 131.451C184.254 131.657 184.254 131.991 184.254 132.334" stroke="white" stroke-width="4" stroke-linecap="round"/>
<path d="M186.12 131.557C187.3 131.326 188.481 131.095 189.884 130.86C191.287 130.626 192.878 130.395 193.775 130.276C195.572 130.038 196.952 129.846 197.186 129.846C197.494 129.846 195.794 129.924 194.023 130.014C193.007 130.066 191.185 130.104 189.938 130.079C187.299 130.027 186.796 129.537 186.432 129.315C186.357 129.27 186.277 129.251 187.828 128.75C189.379 128.249 192.561 127.274 194.123 126.72C195.685 126.167 195.531 126.064 195.349 125.973C194.972 125.783 193.827 125.623 192.235 125.467C191.568 125.402 191.182 125.414 190.522 125.465C188.935 125.589 187.601 125.725 186.954 125.7C186.149 125.668 185.654 125.026 185.627 124.858C185.58 124.562 186.273 124.508 187.2 124.186C187.906 123.941 189.051 123.428 190.211 123.01C191.37 122.592 192.499 122.259 193.157 122.049C194.264 121.695 194.799 121.243 195.358 120.841C195.479 120.754 195.578 120.673 195.631 120.595C195.684 120.516 195.684 120.439 195.581 120.349C194.97 119.807 193.978 119.765 192.477 119.892C191.361 119.988 190.657 120.437 190.193 120.656C188.711 121.357 188.093 121.345 187.328 121.345C186.748 121.346 186.355 121.035 186.159 120.815C185.672 120.267 187.827 120.077 188.949 119.317C189.712 118.8 190.763 117.864 191.396 117.312C192.662 116.205 193.376 115.619 193.558 115.114C193.783 114.49 193.378 114.09 193.106 113.701C192.973 113.509 192.704 113.492 192.472 113.453C192.191 113.406 191.516 113.594 190.585 113.904C189.152 114.381 188.249 115.508 187.858 116.018C187.248 116.813 186.433 116.86 186.276 117.184C186.106 117.535 186.12 118.076 185.94 118.519C185.525 119.114 185.188 119.814 185.071 120.382C185.031 120.719 185.031 121.155 185.109 121.76" stroke="white" stroke-width="4" stroke-linecap="round"/>
<path d="M176.84 123.44C176.798 123.701 176.714 125.164 176.818 126.001C176.889 126.567 176.965 126.987 177.069 127.552C177.183 128.168 177.216 128.642 177.341 129.038C177.393 129.201 177.467 129.354 177.426 129.512C177.38 129.685 177.092 129.801 176.842 129.867C176.723 129.898 176.591 129.855 176.527 129.646C176.186 128.535 176.589 128.043 176.797 127.282C177.111 126.138 176.965 125.651 177.069 125.163C177.173 124.679 177.299 124.257 177.363 123.809C177.404 123.52 177.467 123.257 177.571 123.073C177.953 122.396 180.599 122.835 181.545 122.77C182.885 122.676 184.201 122.179 184.498 122.099C186.658 121.513 181.201 123.697 180.357 124.306C180.219 124.405 180.107 124.515 179.98 124.608C179.854 124.701 179.73 124.779 179.811 124.637C180.392 123.618 180.855 123.075 181.046 122.573C181.218 122.118 180.649 123.438 180.481 124.015C180.428 124.199 180.398 124.408 180.376 125.283C180.355 126.158 180.355 127.694 180.417 128.485C180.479 129.276 180.604 129.276 180.833 129.25C182.092 129.108 183.238 128.726 183.849 128.606C184.39 128.499 182.492 128.855 181.468 128.96C180.437 129.066 178.854 129.249 178.098 129.342C177.769 129.382 177.469 129.381 177.218 129.473C176.581 129.705 176.631 130.325 176.484 130.708C176.45 130.798 176.463 130.904 176.339 130.958C176.215 131.011 175.966 131.011 175.838 130.972C175.144 130.761 175.167 129.778 175.061 129.435C174.924 128.993 175.039 128.41 175.186 128.094C175.328 127.789 175.416 127.412 175.479 126.99C175.539 126.592 175.667 126.124 175.731 125.244C175.751 125.045 175.793 124.914 175.814 124.535C175.835 124.156 175.835 123.531 175.835 122.887" stroke="white" stroke-width="4" stroke-linecap="round"/>
<path d="M182.679 120.256C182.444 120.021 182.158 119.9 181.732 119.971C181.091 120.077 180.002 120.798 178.815 121.558C178.264 121.91 178.118 122.085 178.047 122.121C177.696 122.297 178.899 121.422 179.563 121.019C180.479 120.463 181.416 119.854 182.022 119.558C182.526 119.31 183.08 119.117 183.437 119.069C183.537 119.055 183.464 119.209 182.911 119.751C182.357 120.294 181.322 121.258 180.413 122.273C179.503 123.287 178.751 124.322 178.245 125.125C177.428 126.425 177.262 127.356 177.286 127.914C177.296 128.143 177.357 128.26 177.428 128.356C177.754 128.795 178.495 128.856 179.113 128.857C179.754 128.857 180.253 128.548 180.93 128.536C181.614 128.523 182.297 129.164 182.678 129.437C182.854 129.564 183.058 129.663 183.212 129.829C183.368 129.996 183.32 130.304 183.285 130.565C183.211 131.113 181.879 131.68 180.841 132.004C180.434 132.13 180.043 132.134 179.569 132.147C179.352 132.152 178.811 132.017 177.722 131.91C176.264 131.767 175.268 131.897 174.949 131.921C174.559 131.95 173.447 131.897 172.01 131.944C171.302 131.968 170.192 132.016 168.685 132.004C167.616 131.996 167.096 131.873 166.681 131.803C165.733 131.641 164.578 131.778 163.334 131.826C162.754 131.848 162.44 132.063 162.142 132.158C161.741 132.287 161.299 132.277 160.99 132.254C160.254 132.2 162.507 131.139 163.969 130.466C165.136 129.929 167.219 129.111 168.321 128.64C169.422 128.168 169.493 128.098 170.164 127.697C170.835 127.296 172.105 126.567 172.877 126.132C173.878 125.569 174.221 125.436 174.41 125.4C174.597 125.365 173.827 126.305 172.238 127.907C170.486 129.672 170.041 129.687 169.864 129.841C169.709 129.925 170.577 129.737 172.214 129.417C172.911 129.308 173.334 129.308 173.841 129.379" stroke="white" stroke-width="4" stroke-linecap="round"/>
</svg>
