<svg width="367" height="287" viewBox="0 0 367 287" fill="none" xmlns="http://www.w3.org/2000/svg">
<path d="M263.026 66.168H52.1072C37.173 66.168 25.0664 80.1591 25.0664 97.418V159.918C25.0664 177.177 37.173 191.168 52.1072 191.168H263.026C277.96 191.168 290.066 177.177 290.066 159.918V97.418C290.066 80.1591 277.96 66.168 263.026 66.168Z" stroke="white" stroke-width="10" stroke-linecap="round" stroke-linejoin="round"/>
<rect x="40" y="79" width="235" height="100" rx="20" fill="white"/>
<path d="M291 99C298.732 99 305 105.268 305 113V147C305 154.732 298.732 161 291 161V99Z" fill="white"/>
<path d="M173.957 111.083L171.484 113.63L175.034 113.628L229.103 113.591L72.9375 211.381L149.419 136.428L152.046 133.854L148.368 133.856L94.0723 133.897L236.623 46.5078L173.957 111.083Z" fill="black" stroke="white" stroke-width="3"/>
<path d="M107.946 179.375H122.317" stroke="white" stroke-width="2" stroke-linecap="round"/>
<path d="M105.91 180.894H120.281" stroke="white" stroke-width="2" stroke-linecap="round"/>
<path d="M104.952 181.847H119.323" stroke="white" stroke-width="2" stroke-linecap="round"/>
<path d="M101.12 183.752H115.491" stroke="white" stroke-width="2" stroke-linecap="round"/>
<path d="M105.317 182.4C104.812 182.612 104.15 183.244 103.979 183.421C103.826 183.579 103.744 183.724 103.648 183.876C103.538 184.051 103.338 184.204 103.135 184.28C102.73 184.431 102.4 184.356 102.07 184.444C101.855 184.501 101.739 184.658 101.701 184.715C101.593 184.874 102.067 184.923 102.622 184.974C103.074 185.015 103.879 185.024 104.319 185.043C104.961 185.071 105.315 185.113 105.784 185.157C106.492 185.224 106.826 185.101 107.313 185.025C107.622 184.977 107.93 184.974 108.429 184.943C109.35 184.885 109.704 184.898 110.143 184.867C110.479 184.843 110.733 184.923 110.943 184.974C111.027 184.994 111.102 185.024 111.178 185.05C111.216 185.062 111.254 185.075 111.236 185.137C111.098 185.611 110.672 185.844 110.419 186.134C110.188 186.398 110.012 186.475 109.942 186.551C109.909 186.587 110.514 186.064 111.294 185.383C111.882 184.869 112.206 184.773 112.402 184.684C112.456 184.66 112.522 184.671 112.555 184.696C112.62 184.746 112.06 185.26 111.172 185.972C110.367 186.619 109.785 186.74 109.549 186.854C109.227 187.01 109.086 187.106 108.858 187.126C108.625 187.146 108.351 187.031 108.015 186.968C107.388 186.851 106.831 186.792 106.441 186.747C106.283 186.729 106.054 186.716 105.826 186.709C105.697 186.706 105.182 186.678 104.421 186.684C104.062 186.687 103.884 186.728 103.506 186.747C102.776 186.783 102.146 186.728 101.861 186.678C101.475 186.61 101.181 186.463 100.921 186.344C100.82 186.297 100.737 186.211 100.642 186.154C100.389 186.003 100.103 186.79 99.868 187.055C99.5202 187.447 99.2784 187.61 99.0878 187.831C99.0235 187.905 99.0732 187.939 99.1177 187.958C99.335 188.051 99.6563 187.915 100.307 187.795C101.082 187.652 101.674 187.788 101.833 187.807C101.903 187.815 101.953 187.813 102.419 187.87C102.884 187.926 103.764 188.038 104.279 188.115C105.118 188.239 105.492 188.318 105.874 188.35C106.389 188.393 107.067 188.658 107.226 188.697C107.699 188.811 107.955 187.676 108.152 187.411C108.309 187.198 108.387 186.981 108.438 186.83C108.463 186.754 108.489 186.678 108.495 186.603C108.498 186.564 108.464 186.527 108.42 186.508C108.32 186.464 107.682 186.638 106.801 186.872C106.33 186.996 106.142 187.144 105.708 187.713C105.347 188.186 104.758 189.07 104.416 189.546C104.074 190.021 104.011 190.071 103.96 190.103C103.876 190.156 103.33 190.185 102.487 190.211C101.736 190.233 101.36 189.935 101.067 189.688C100.825 189.485 100.269 189.291 99.8998 189.214C99.6705 189.167 99.0907 189.038 98.7068 188.949C98.5343 188.909 98.2388 188.835 98.0087 188.817C97.9701 188.813 97.9327 188.848 97.907 188.879C97.8814 188.911 97.8688 188.948 97.9063 188.98C97.9438 189.012 98.0317 189.037 98.6925 189.087C99.3533 189.138 100.584 189.213 101.388 189.282C102.534 189.382 102.981 189.529 103.234 189.636C103.865 189.903 104.174 189.845 104.345 189.87C104.403 189.879 104.478 189.821 104.498 189.782C104.518 189.744 104.48 189.707 104.404 189.681C104.221 189.62 103.935 189.643 103.405 189.781C103.03 189.878 102.473 190.143 102.019 190.384C101.564 190.625 101.238 190.862 100.912 191.141C100.587 191.419 100.273 191.732 99.9919 192.042C99.4539 192.637 99.1383 193.037 98.9736 193.169C98.7348 193.361 98.5292 193.454 97.7616 193.91C97.0753 194.318 95.8132 195.129 95.1345 195.553C94.2774 196.089 93.9496 196.317 93.6696 196.507C93.6081 196.549 93.543 196.57 93.4918 196.596C93.4406 196.621 93.4029 196.646 93.4401 196.59C93.4772 196.534 93.5902 196.397 94.1258 195.983C94.6614 195.568 95.6161 194.881 96.5098 194.115C97.4036 193.349 98.2076 192.524 98.6468 192.062C99.2963 191.379 99.5048 191.095 99.5621 190.956C99.5819 190.909 99.5315 190.893 99.443 190.917C99.209 190.983 98.7976 191.256 98.3098 191.603C98.094 191.756 97.9601 191.887 97.7382 192.107C97.5163 192.328 97.2148 192.64 96.8208 193.007C96.4269 193.374 95.9495 193.786 95.3833 194.33C94.8171 194.873 94.1764 195.535 93.8213 195.914C93.405 196.358 93.3013 196.57 93.2124 196.74C93.2052 196.754 93.3752 196.397 93.811 195.674C94.0654 195.252 94.4604 194.764 95.0125 194.119C95.5647 193.474 96.2807 192.7 96.7375 192.17C97.3995 191.401 97.589 191.069 97.6649 190.969C97.8564 190.716 97.868 190.452 97.8878 190.318C97.8924 190.287 97.7812 190.374 97.4221 190.712C97.0629 191.05 96.4223 191.675 96.0483 192.053C95.5744 192.532 95.3074 192.846 94.9339 193.243C94.5468 193.654 94.1532 194.146 93.779 194.524C93.5221 194.784 93.0756 195.217 92.579 195.648C92.1525 196.019 91.7928 196.769 91.6451 197.207C91.575 197.554 91.5499 197.857 91.5307 198.147C91.5244 198.223 91.5118 198.298 91.4989 198.375" stroke="white" stroke-width="2" stroke-linecap="round"/>
<path d="M93.5164 194.135C93.9066 193.635 94.5818 192.798 94.595 192.785C94.7337 192.645 94.3416 193.113 93.8133 193.632C93.3292 194.107 92.4308 195.038 91.7701 195.764C91.1095 196.49 90.7201 196.99 90.4504 197.316C89.9008 197.98 89.7612 198.11 89.3583 198.46C89.0281 198.748 88.4027 199.211 88.0353 199.481C87.5787 199.816 87.3258 199.952 87.0285 200.153C86.4666 200.534 86.121 200.809 85.8471 201.113C85.5381 201.455 85.3079 201.706 84.8898 202.09C84.6259 202.332 84.4956 202.577 84.3873 202.728C84.3049 202.867 84.1907 202.931 84.1148 202.962C84.0765 202.981 84.0388 203.006 84 203.032" stroke="white" stroke-width="2" stroke-linecap="round"/>
<path d="M185.721 80.0157C185.885 79.7987 186.133 79.6055 186.844 79.333C188.296 78.7773 189.712 78.4276 190.428 78.2361C191.03 78.075 192.213 77.6894 193.556 77.0861C194.119 76.8334 194.314 76.1555 194.948 75.6335C195.131 75.4831 195.387 75.3335 195.554 75.2225C196.159 74.8214 192.666 76.5353 191.964 76.9586C191.394 77.3031 191.123 77.7667 190.394 78.2467C189.891 78.5781 189.279 78.5624 188.726 78.7001C188.615 78.7278 188.533 78.7547 188.532 78.7823C188.531 78.8098 188.612 78.837 188.75 78.8238C189.844 78.7193 190.844 77.4691 191.367 76.7716C191.581 76.4864 191.644 76.2353 191.7 76.0577C191.728 75.9658 191.646 75.853 191.563 75.77C191.397 75.603 191.177 75.5497 190.971 75.5493C190.33 75.548 190.075 76.2328 189.429 76.9303C189.162 77.219 188.946 77.548 188.835 77.7539C188.498 78.3757 190.125 77.2505 191.556 76.3479C192.853 75.5299 193.489 75.331 193.778 75.2077C193.899 75.1559 193.985 75.1658 193.891 75.2743C193.569 75.6444 192.806 76.0947 191.913 76.6685C190.364 77.6638 189.665 78.0404 189.141 78.2883C189.061 78.326 189.325 78.0478 190.556 77.2846C191.788 76.5213 193.97 75.2464 195.285 74.4539C197.001 73.4202 197.485 73.0023 197.773 72.77C198.566 72.1305 199.192 71.7972 200.456 70.9221C201.128 70.4568 201.616 70.3176 203.251 69.6065C203.93 69.3112 204.562 68.893 205.442 68.4561C206.452 67.9536 207.073 67.6032 208.097 66.9658C209.045 66.3763 210.731 65.0533 211.671 64.3423C212.936 63.385 213.353 62.9753 214.563 62.0583C215.494 61.3529 216.081 61.0008 216.742 60.4542C217.495 59.8317 218.309 59.1134 219.002 58.6445C219.504 58.3051 220.131 57.8229 220.518 57.5072C220.937 57.1654 221.509 56.7543 222.252 56.3157C222.772 56.0085 223.411 55.7399 223.879 55.5204C224.26 55.3417 224.568 55.1365 224.899 54.8903C225.313 54.5826 225.973 54.3967 226.318 54.3005C226.705 54.1925 227.102 54.0958 227.626 53.9582C227.762 53.9223 227.9 53.9035 227.971 53.9302C228.041 53.9569 228.041 54.0383 228 54.148C227.758 54.797 226.641 55.5147 226.045 56.0387C225.498 56.5206 225.095 56.9976 224.558 57.395C223.717 58.0173 222.48 58.9145 221.857 59.395C221.272 59.8469 220.251 60.9646 219.516 61.628C219.05 62.0478 218.565 62.6679 218.085 63.4052C217.068 64.9654 216.636 65.6271 216.223 66.2712C215.801 66.93 215.533 67.438 215.464 67.602C215.428 67.6872 215.368 67.766 216.145 66.6686C216.921 65.5712 218.531 63.2926 219.4 62.0781C220.337 60.771 220.682 60.3457 221.095 59.7706C221.324 59.4516 221.538 59.2203 222.071 58.6482C223.952 56.6315 224.622 56.3712 224.939 56.0831C225.029 56.0013 225.011 56.0934 224.901 56.2573C224.792 56.4213 224.601 56.6655 223.057 58.0662C221.513 59.4669 218.621 62.0168 217.05 63.3847C215.332 64.8803 214.901 65.1898 214.038 66.0476C213.407 66.675 212.439 67.7463 211.633 68.5219C210.284 69.82 209.281 70.6135 208.744 71.2567C207.916 72.2493 207.074 73.4379 207.005 73.6451C206.98 73.7188 207.263 73.4429 208.343 72.1383C209.423 70.8338 211.387 68.3924 212.863 66.6735C214.338 64.9547 215.266 64.0324 215.839 63.4352C216.412 62.838 216.603 62.5939 217.411 61.7086C218.218 60.8232 219.636 59.3042 220.408 58.4809C221.18 57.6577 221.261 57.5763 221.222 57.6564C221.182 57.7366 221.018 57.9807 220.375 58.6219C219.732 59.2631 218.613 60.2939 216.987 61.6387C215.361 62.9835 213.26 64.6111 211.442 66.2498C209.624 67.8885 208.151 69.489 207.337 70.3948C206.132 71.7373 205.78 72.2049 204.615 73.2694C203.325 74.4479 202.171 75.0006 201.882 75.1375C201.759 75.1961 201.675 75.2201 201.66 75.1391C201.646 75.0581 201.7 74.8682 202.956 73.1428C204.211 71.4174 206.666 68.1622 208.013 66.4039C209.359 64.6456 209.523 64.4829 209.866 64.2091C210.712 63.5352 211.344 63.083 211.331 63.1224C211.285 63.2684 210.964 63.5688 210.046 64.4825C209.128 65.3961 207.574 66.8881 206.691 67.7109C205.666 68.666 205.394 68.8355 205.175 68.9994C204.881 69.2191 203.613 69.9797 201.879 71.2251C200.83 71.978 200.435 72.343 200.079 72.5473C198.589 73.4023 197.627 73.9032 197.143 74.315C196.791 74.6147 196.276 75.0261 195.807 75.2612C195.328 75.5011 194.788 75.904 194.47 76.2468C194.097 76.6475 193.686 77.0006 193.299 77.0836C192.813 77.188 192.582 77.3302 192.417 77.3984C192.332 77.4339 192.253 77.4938 192.306 77.5488C192.359 77.6039 192.55 77.6582 194.844 76.8452C197.138 76.0322 201.53 74.3504 203.997 73.3619C206.464 72.3734 206.873 72.1293 207.165 71.9357C208.427 71.101 209.964 70.0989 210.598 69.7282C211.18 69.3877 211.726 69.1125 212.471 68.8235C213.065 68.5934 213.464 68.1803 213.658 67.8511C213.703 67.776 213.713 67.6871 213.686 67.7537C213.573 68.0354 213.384 68.4508 213.028 69.0097C212.433 69.9436 211.678 70.8872 211.155 71.558C210.686 72.1588 210.217 72.7244 209.09 73.8872C208.48 74.5616 207.549 75.6508 206.951 76.2743C206.855 76.3701 206.745 76.5057 206.633 76.6454" stroke="white" stroke-width="2" stroke-linecap="round"/>
<path d="M204.567 79.1937L204.153 79.6869" stroke="white" stroke-width="2" stroke-linecap="round"/>
<path d="M200.103 80.1801C199.639 80.2344 198.591 80.3445 197.876 80.4127C195.843 80.6069 195.23 80.5632 194.252 80.5775C192.947 80.5967 190.849 80.4547 190.379 80.3996C189.609 80.3093 188.974 79.9072 188.438 79.7831C187.563 79.5808 186.829 79.3071 186.383 79.0568C186.309 79.0153 187.202 79.1929 188.658 79.3297C190.381 79.4917 191.505 79.4674 191.931 79.5085C192.544 79.5678 193.621 79.3055 194.86 78.936C196.208 78.5336 197.04 78.4539 197.677 78.5221C198.391 78.5987 198.779 78.6725 199.179 78.7823C199.521 78.8762 199.854 78.9191 200.253 78.9606C201.169 79.0557 202.664 79.0835 203.077 79.1797C203.482 79.274 203.821 78.8123 204.179 78.4144C204.633 77.9112 205.195 77.0088 205.9 76.1152C206.665 75.1461 207.483 73.8563 208.308 72.8304C208.972 72.0047 209.579 71.5506 209.814 71.3989C209.831 71.3879 209.64 71.5999 208.955 72.1588C208.271 72.7178 207.098 73.6401 206.152 74.4815C204.461 75.9869 203.741 76.9183 203.522 77.1505C202.908 77.7996 202.036 78.2319 201.387 78.6717C200.971 78.9529 200.71 79.3564 200.586 79.7539C200.555 79.8541 200.49 79.9318 200.53 79.8653C200.702 79.5791 200.956 79.2224 201.626 78.2438C202.198 77.4083 203.196 75.8546 203.757 75.0174C204.381 74.0861 204.839 73.5267 205.43 72.719C205.666 72.3982 205.777 72.2641 205.042 72.9944C204.307 73.7248 202.725 75.3253 201.856 76.1904C200.519 77.52 199.802 78.1242 199.554 78.2747C199.442 78.3426 199.361 78.398 199.551 78.1275C199.74 77.8571 200.204 77.2603 200.975 76.3968C201.746 75.5332 202.809 74.421 203.221 73.9159C203.633 73.4108 203.36 73.5464 202.865 73.9554C201.614 74.9888 200.848 75.8497 200.615 76.1226C200.27 76.5263 199.939 76.7819 199.815 76.7691C198.916 76.6767 200.624 74.5674 200.86 74.0984C200.946 73.9288 200.14 74.7457 198.708 76.1834C197.968 76.9268 197.652 77.1378 197.501 77.3289C197.291 77.5942 198.082 76.8189 199.079 75.9101C199.988 75.0807 197.184 77.8497 196.814 78.2586C196.174 78.9665 195.641 79.4123 195.544 79.4403C195.408 79.4795 195.831 78.9224 196.447 78.1859C197.444 76.9952 198.53 75.9105 199.039 75.1165C199.508 74.3852 199.882 73.6335 200.403 72.9089C200.95 72.1491 202.162 71.3072 203.346 70.5539C203.785 70.2746 203.93 70.2616 204.055 70.2205C204.18 70.1794 204.289 70.1252 202.872 71.3722C201.456 72.6192 198.51 75.1691 196.801 76.5912C194.198 78.7583 193.409 78.8369 193.408 78.8106C193.402 78.6971 193.734 78.513 194.46 78.0079C195.187 77.5028 196.387 76.7161 198.178 75.3207C199.969 73.9254 202.315 71.9451 203.837 70.708C205.359 69.4708 205.987 69.0368 206.433 68.6912C207.508 67.8577 207.87 67.2777 208.449 66.7693C208.971 66.3123 209.305 66.1244 209.511 65.974C209.607 65.9038 209.69 65.8507 209.5 66.1347C208.879 67.0647 208.123 67.9296 207.492 68.408C206.149 69.4264 205.342 69.1371 204.761 69.1379C204.552 69.1382 204.375 68.9464 204.196 68.8235C203.886 68.6107 203.988 68.0438 204.153 67.2637C204.216 66.9617 204.428 66.782 204.648 66.6858C205.182 66.452 206.377 67.7084 207.511 68.0685C207.775 68.1524 208.114 68.0964 208.228 68.0964C208.582 68.0964 206.341 68.1227 204.846 68.1244C204.693 68.1245 204.839 67.9616 205.032 67.865C205.456 67.6533 206.024 67.549 207.024 67.4532C208.808 67.2824 210.103 67.3295 210.665 67.2884C212.414 67.1604 212.857 67.1922 213.862 67.0558C214.668 66.9462 215.778 67.2744 216.192 67.2062C216.329 67.1922 216.52 67.1922 216.619 67.1515C216.717 67.1108 216.717 67.0295 216.717 66.9456" stroke="white" stroke-width="2" stroke-linecap="round"/>
<line x1="127" y1="178.731" x2="103" y2="178.731" stroke="white"/>
<path d="M153.177 80.905H206.077" stroke="white" stroke-width="2" stroke-linecap="round"/>
</svg>
