<svg width="427" height="287" viewBox="0 0 427 287" fill="none" xmlns="http://www.w3.org/2000/svg">
<path d="M323.026 69.168H112.107C97.173 69.168 85.0664 83.1591 85.0664 100.418V162.918C85.0664 180.177 97.173 194.168 112.107 194.168H323.026C337.96 194.168 350.066 180.177 350.066 162.918V100.418C350.066 83.1591 337.96 69.168 323.026 69.168Z" stroke="white" stroke-width="10" stroke-linecap="round" stroke-linejoin="round"/>
<rect x="100" y="82" width="35.25" height="100" rx="17.625" fill="#00FF1E"/>
<path d="M351 102C358.732 102 365 108.268 365 116V150C365 157.732 358.732 164 351 164V102Z" fill="white"/>
<path d="M233.954 113.49L231.498 116.034L235.034 116.031L289.127 115.995L132.9 214.363L209.422 138.958L212.031 136.387L208.368 136.389L154.049 136.43L296.653 48.5234L233.954 113.49Z" fill="black" stroke="white" stroke-width="3"/>
<path d="M187.5 181.5H167.5" stroke="white"/>
<path d="M240.5 108C241.284 99.1834 240.076 94.8359 234 88.5" stroke="white"/>
<path d="M240.5 116V148" stroke="white"/>
<path d="M243.582 131.111C243.327 130.969 243.167 130.854 243.117 130.761C242.983 130.512 243.095 130.026 243.224 129.432C243.282 128.994 243.296 128.751 243.324 128.665C243.339 128.622 243.353 128.579 243.367 128.535" stroke="white" stroke-width="2" stroke-linecap="round"/>
<path d="M244.226 119.521C244.17 119.564 243.97 119.508 243.755 119.436C243.544 119.365 243.411 119.35 243.333 119.328C243.154 119.28 243.139 119.007 243.046 118.899C242.873 118.699 243.124 119.562 243.196 119.821C243.21 119.864 243.224 119.907 243.232 119.985C243.239 120.064 243.239 120.177 243.239 120.294" stroke="white" stroke-width="5" stroke-linecap="round"/>
<path d="M244.526 123.084C244.866 123.027 245.206 122.971 246.961 122.552C248.715 122.133 251.874 121.354 253.771 120.932C255.667 120.509 256.205 120.467 256.582 120.452C256.958 120.437 257.156 120.451 257.485 120.522C257.814 120.593 258.267 120.721 258.685 120.864C259.48 121.138 259.907 121.338 260.064 121.388C260.553 121.544 260.865 121.582 261.286 121.617C261.993 121.677 262.253 121.582 262.361 121.575C262.384 121.573 262.341 121.553 261.802 121.525C261.263 121.496 260.229 121.454 258.775 121.503C257.322 121.552 255.481 121.693 254.489 121.759C253.498 121.825 253.413 121.811 253.348 121.797C253.283 121.782 253.241 121.768 253.283 121.74C253.325 121.711 253.452 121.668 254.828 121.597C256.204 121.526 258.824 121.426 260.514 121.425C262.204 121.423 262.884 121.523 263.277 121.595C263.76 121.684 263.899 121.768 263.963 121.803C263.984 121.814 263.929 121.853 263.865 121.889C263.8 121.925 263.715 121.967 260.966 122.903C258.217 123.838 252.806 125.666 249.678 126.77C246.551 127.874 245.871 128.2 245.492 128.389C245.114 128.578 245.057 128.62 245.07 128.642C245.084 128.664 245.169 128.664 246.905 128.069C248.642 127.474 252.027 126.285 254.125 125.495C256.223 124.705 256.931 124.35 257.431 124.111C258.193 123.746 258.59 123.614 258.783 123.571C258.862 123.553 258.905 123.556 258.899 123.599C258.892 123.641 258.836 123.726 257.737 124.634C256.638 125.542 254.499 127.27 253.355 128.224C252.097 129.273 252.01 129.536 251.967 129.708C251.939 129.82 251.966 129.909 252.009 129.994C252.032 130.041 252.08 130.08 252.159 130.102C252.345 130.154 252.538 130.095 253.332 129.635C254.062 129.212 255.43 128.366 256.598 127.73C257.766 127.095 258.687 126.684 259.268 126.458C260.044 126.156 260.365 126.175 260.408 126.238C260.451 126.301 260.197 126.43 258.537 127.395C256.877 128.36 253.733 130.159 252.084 131.107C250.436 132.055 250.38 132.097 251.625 131.56C252.871 131.022 255.421 129.903 257.152 129.227C258.883 128.552 259.719 128.354 260.22 128.251C260.722 128.149 260.863 128.149 260.887 128.199C261.183 128.827 259.594 129.179 259.308 129.421C259.077 129.617 258.722 130.035 258.266 130.606C257.592 131.449 257.348 131.639 257.168 131.854C256.938 132.13 256.718 132.284 256.525 132.412C256.193 132.634 255.817 132.884 255.559 133.056C255.433 133.14 255.245 133.313 254.86 133.549C253.878 134.149 253.471 134.343 253.177 134.523C252.728 134.796 252.141 135.272 251.767 135.546C251.373 135.835 251.095 136.161 250.909 136.354C250.68 136.592 250.437 136.804 250.129 137.055C249.89 137.249 249.564 137.435 249.363 137.563C249.081 137.744 248.82 138.006 248.598 138.143C248.366 138.285 248.09 138.422 247.889 138.579C247.635 138.779 247.389 139.137 247.096 139.451C246.878 139.686 246.659 139.952 246.145 140.466C245.933 140.679 245.729 140.783 245.557 140.89C245.472 140.926 245.385 140.969 245.3 141.026C245.257 141.055 245.214 141.083 245.127 141.112" stroke="white" stroke-width="5" stroke-linecap="round"/>
<path d="M258.047 133.515C258.061 133.43 258.488 132.945 259.224 132.274C259.555 131.971 260.054 131.436 260.374 131.124C261.062 130.45 261.552 130.025 261.852 129.746C262.271 129.356 262.439 129.18 262.682 128.994C262.834 128.877 262.954 128.765 263.26 128.552C263.969 128.057 264.471 127.634 264.642 127.521C264.879 127.363 265.185 127.064 265.493 126.763C265.664 126.596 266.184 126.093 266.935 125.336C267.522 124.743 267.862 124.687 268.055 124.587C268.107 124.56 268.162 124.53 268.737 124.338C269.311 124.146 270.402 123.792 270.992 123.596C271.642 123.379 271.896 123.285 272.26 123.171C272.962 122.951 273.513 122.37 273.728 122.183C273.962 121.98 274.271 121.783 274.786 121.525C275.067 121.384 275.287 121.353 275.524 121.267C275.813 121.162 276.117 121.025 276.461 120.888C276.78 120.762 276.976 120.667 277.155 120.559C277.353 120.44 277.577 120.437 277.756 120.337C277.963 120.222 278.135 120.165 278.392 120.087C278.69 119.996 279.007 119.922 279.208 119.858C279.395 119.798 279.58 119.623 279.773 119.479C279.964 119.337 280.152 119.25 280.331 119.164C280.58 119.044 280.796 118.907 281.004 118.835C281.182 118.773 281.354 118.72 281.526 118.656C281.709 118.587 281.869 118.506 282.084 118.363C282.306 118.215 282.499 118.091 282.614 118.012C282.706 117.949 282.315 118.019 282.143 118.033C281.913 118.052 281.232 118.119 280.345 118.148C279.667 118.169 279.154 118.219 278.817 118.241C278.652 118.251 278.126 118.277 277.397 118.284C276.79 118.29 276.478 118.348 276.198 118.37C275.943 118.389 275.323 118.533 274.397 118.584C274.145 118.598 273.902 118.62 273.609 118.627C273.358 118.633 272.704 118.663 271.846 118.656C271.441 118.652 271.212 118.62 270.969 118.627C270.81 118.632 270.512 118.705 269.552 118.763C268.834 118.806 267.643 118.763 267.009 118.749C266.175 118.73 265.86 118.677 264.905 118.67C264.559 118.667 263.947 118.706 263.147 118.72C262.593 118.73 262.313 118.82 261.477 118.828C260.867 118.833 260.296 118.82 259.745 118.842C259.494 118.852 258.84 118.878 257.953 118.856C257.204 118.838 256.904 118.592 256.568 118.47C256.465 118.433 256.333 118.448 256.289 118.477C256.244 118.505 256.287 118.562 256.401 118.626C256.515 118.691 256.699 118.762 256.992 118.834C257.285 118.905 257.682 118.976 259.274 119.098C260.867 119.219 263.643 119.389 265.413 119.548C267.183 119.706 267.863 119.848 268.731 119.942C269.598 120.036 270.632 120.079 271.207 120.115C271.869 120.156 271.997 120.208 272.047 120.251C272.08 120.279 272.027 120.378 271.991 120.436C271.93 120.535 271.586 120.679 271.001 120.929C270.701 121.057 270.387 121.165 269.504 121.407C268.621 121.65 267.176 122.018 266.064 122.378C264.951 122.737 264.215 123.077 263.679 123.344C262.821 123.773 262.455 124.028 262.291 124.128C261.766 124.448 261.07 124.656 260.603 125.05C260.231 125.364 260.137 125.915 259.908 126.359C259.866 126.442 259.808 126.432 259.765 126.39C259.656 126.282 259.48 125.976 259.031 125.513C258.757 125.229 258.313 124.922 258.017 124.676C257.551 124.29 257.191 123.817 256.727 123.062C256.454 122.617 256.193 121.995 255.976 121.582C255.43 120.542 254.858 120.209 254.579 120.073C254.33 119.951 254.185 119.709 253.963 119.13C253.917 119.01 253.927 118.964 253.905 118.942C253.858 118.894 253.67 118.949 253.413 118.999C253.159 119.048 252.43 119.049 251.359 119.021C250.14 118.989 249.78 118.778 249.499 118.742C249.248 118.709 248.991 118.677 248.57 118.656C248.433 118.635 248.333 118.606 248.084 118.584C247.892 118.577 247.566 118.577 247.23 118.577" stroke="white" stroke-width="5" stroke-linecap="round"/>
<path d="M243.067 120.036C243.067 120.522 243.096 120.722 243.117 120.93C243.139 121.139 243.21 121.395 243.275 121.581C243.336 121.758 243.353 122.024 243.41 122.232C243.471 122.453 243.582 122.824 243.668 123.155C243.741 123.434 243.739 123.87 243.79 124.106C243.806 124.183 243.797 124.298 243.797 124.151C243.797 123.071 243.726 122.785 243.704 122.662C243.67 122.47 243.64 123.083 243.618 123.255C243.596 123.433 243.511 123.598 243.454 123.77C243.425 123.856 243.397 123.956 243.375 124.063C243.365 124.113 243.368 124.156 243.403 124.065C243.648 123.432 243.625 123.114 243.604 122.978C243.58 122.826 243.283 123.098 243.111 123.205C243.07 123.231 243.025 123.241 242.989 123.291C242.827 123.515 242.967 123.812 243.06 124.071C243.136 124.282 243.181 124.457 243.232 124.806C243.363 125.721 243.282 126.242 243.246 126.738C243.217 127.146 243.139 127.574 243.103 127.969C243.078 128.238 243.024 128.434 242.982 128.699C242.896 129.228 242.967 130.065 242.967 130.7C242.968 131.342 242.867 131.711 242.846 131.926C242.812 132.254 242.781 132.769 242.774 133.213C242.77 133.434 242.853 133.77 242.81 134.029C242.778 134.221 242.724 134.444 242.688 134.644C242.666 134.771 242.667 134.902 242.638 135.03C242.604 135.186 242.595 135.912 242.588 136.899C242.582 137.789 242.581 138.793 242.602 139.001C242.609 139.051 242.623 139.094 242.631 139.151C242.638 139.209 242.638 139.279 242.638 139.352" stroke="white" stroke-width="5" stroke-linecap="round"/>
<path d="M245.9 125.445C245.886 125.899 245.886 126.874 245.907 127.403C245.926 127.863 245.972 128.176 246.15 128.926C246.291 129.521 246.315 129.779 246.337 130.058C246.356 130.31 246.401 130.737 246.422 131.053C246.451 131.468 246.487 131.754 246.487 132.011C246.488 132.735 246.202 133.212 245.937 133.627C245.639 134.096 245.558 134.343 245.464 134.594C245.251 135.166 245.329 136.174 245.335 136.376C245.338 136.496 245.797 135.979 246.262 135.521C246.441 135.344 246.514 135.29 247.138 134.694C247.763 134.098 248.938 132.965 249.629 132.325C250.652 131.376 250.879 131.369 251.022 131.276C251.086 131.234 251.108 131.169 251.108 131.105C251.111 130.715 250.453 130.24 249.88 129.875C249.21 129.446 248.608 129.609 248.098 129.644C247.99 129.652 247.891 129.652 247.861 129.659C247.831 129.666 247.874 129.68 247.918 129.694" stroke="white" stroke-width="5" stroke-linecap="round"/>
<path d="M244.32 141.949C244.298 141.949 244.236 141.954 244.199 141.959C244.134 141.967 244.103 141.966 244.083 141.956C244.055 141.942 244.037 141.941 244.016 141.934C243.988 141.924 243.942 141.9 243.919 141.887C243.902 141.877 243.887 141.863 243.871 141.851C243.854 141.837 243.827 141.818 243.804 141.804C243.784 141.792 243.77 141.783 243.743 141.776C243.701 141.766 243.681 141.759 243.663 141.754C243.645 141.748 243.624 141.741 243.604 141.736C243.576 141.73 243.563 141.714 243.547 141.7C243.529 141.684 243.494 141.668 243.472 141.655C243.45 141.642 243.435 141.628 243.42 141.62C243.409 141.615 243.427 141.648 243.43 141.67C243.437 141.71 243.426 141.789 243.429 141.831C243.431 141.854 243.434 141.883 243.437 141.916C243.445 142.005 243.441 142.036 243.445 142.066C243.447 142.092 243.449 142.183 243.446 142.239C243.444 142.267 243.436 142.295 243.424 142.325C243.408 142.365 243.388 142.396 243.382 142.413C243.364 142.467 243.341 142.536 243.336 142.555C243.331 142.57 243.308 142.619 243.29 142.658C243.278 142.684 243.267 142.708 243.256 142.738C243.236 142.792 243.214 142.833 243.201 142.859C243.171 142.928 243.165 142.949 243.154 142.98C243.152 142.989 243.152 142.999 243.152 143.008" stroke="white" stroke-width="5" stroke-linecap="round"/>
<path d="M243.234 143.496C243.227 143.495 243.206 143.495 243.184 143.505C243.164 143.512 243.147 143.518 243.134 143.525C243.126 143.53 243.116 143.536 243.098 143.543" stroke="white" stroke-width="5" stroke-linecap="round"/>
<path d="M286.689 56.04C286.713 56.04 286.736 56.04 286.725 56.0753C286.636 56.3486 286.263 56.4908 286.036 56.7404C285.821 56.9774 285.621 57.204 285.335 57.3944C285.049 57.5848 284.718 57.7746 284.349 57.9532C284.047 58.0994 283.766 58.3451 283.469 58.6183C283.121 58.9375 282.886 59.2238 282.696 59.5929C282.534 59.907 282.222 60.1752 281.959 60.4609C281.64 60.8084 281.27 61.0083 280.984 61.1744C280.688 61.3471 280.414 61.5546 280.105 61.7803C279.663 62.103 279.44 62.5046 279.071 62.8145C278.767 63.0695 278.489 63.3133 278.191 63.4806C277.797 63.7021 277.255 64.1678 276.729 64.5854C276.417 64.8334 276.135 65.025 275.849 65.1805C275.564 65.3358 275.279 65.4301 274.994 65.5371C274.678 65.6552 274.376 65.8581 274.066 65.9533C273.771 66.0441 273.308 66.3088 272.925 66.5235C272.776 66.6072 272.663 66.7375 272.58 66.8797C272.54 66.949 272.52 67.022 272.591 67.0466C273.11 67.2286 273.659 66.7867 273.993 66.7264C274.137 66.7004 274.279 66.6433 274.362 66.6547C274.704 66.7015 273.853 67.236 273.567 67.3915C273.271 67.5525 272.997 67.8066 272.723 68.033C272.435 68.2709 272.259 68.6624 271.998 68.8771C271.711 69.1129 271.287 69.5882 270.928 69.8873C270.637 70.1306 270.311 70.3741 269.741 70.8013C268.892 71.4379 268.693 71.8718 268.444 72.1575C268.204 72.4318 267.886 72.8218 267.506 73.1674C266.826 73.7844 265.895 74.6947 265.07 75.6023C263.886 76.9052 263.393 77.268 262.941 77.6606C262.414 78.1185 261.919 78.8114 261.55 79.3366C261.265 79.7413 260.825 80.3348 260.563 80.6447C260.258 81.0048 259.827 81.2391 259.529 81.4413C259.22 81.6509 259.018 82.0707 258.78 82.3917C258.447 82.8398 258.328 83.1405 258.102 83.4854C257.905 83.7868 257.71 84.1148 257.389 84.6023C257.314 84.7165 257.235 84.7809 257.246 84.782C257.371 84.7945 257.989 83.9336 258.927 82.7344C259.825 81.5861 260.228 81.3604 260.632 81.0747C261.03 80.793 261.369 80.3148 261.796 79.9814C262.249 79.6285 262.557 79.3634 262.95 79.0778C263.338 78.7952 263.58 78.7443 263.652 78.673C263.889 78.4376 262.751 79.0039 261.591 79.6786C261.023 80.009 260.222 80.6572 259.55 81.2431C258.879 81.829 258.385 82.3703 258.001 82.8963C257.289 83.8702 256.903 84.7082 256.57 85.1949C256.191 85.7511 255.927 86.0647 255.642 86.4331C255.265 86.9201 254.953 87.2301 254.277 88.0702C253.589 88.9264 252.792 89.8426 252.044 90.4481C251.359 91.0027 251.007 91.3653 250.318 92.2557C249.871 92.8336 249.532 93.3865 249.14 93.7556C248.87 94.01 248.558 94.2666 248.307 94.5522C248.035 94.8625 247.796 95.1938 247.547 95.5386C247.336 95.8303 247.154 96.1209 247.094 96.4066C247.033 96.6977 246.916 96.9768 246.798 97.2742C246.642 97.6635 246.37 97.904 246.156 98.2014C245.885 98.5777 245.61 98.7841 245.289 99.14C244.865 99.6103 244.73 99.901 244.575 100.198C244.365 100.601 243.969 100.71 243.814 100.971C243.648 101.25 243.517 101.541 243.279 101.827C243.224 101.893 243.208 101.969 243.172 101.959C243.044 101.92 243.041 101.521 243.064 101.2C243.071 101.111 243.135 101.185 243.159 101.268C243.256 101.6 242.994 101.898 242.91 102.089C242.777 102.394 243.016 101.426 243.052 100.998C243.087 100.591 243.159 100.118 243.243 99.7615C243.406 99.0644 243.444 98.5259 243.516 98.1917C243.578 97.904 243.35 97.6215 243.184 97.3359C242.995 97.0109 242.733 96.6944 242.519 96.397C242.455 96.3079 242.353 96.2194 242.328 96.2415C241.969 96.5592 243.014 97.5431 243.325 98.1062C243.372 98.1906 243.42 98.2606 243.409 98.3087C243.385 98.4146 243.208 98.4753 243.101 98.5469C242.815 98.7393 242.78 97.9068 242.744 97.5028C242.715 97.1832 242.566 96.9083 242.459 96.6227C242.337 96.2989 242.209 95.887 242.173 95.5529C242.141 95.2571 241.995 94.9827 241.9 94.697C241.805 94.4114 241.663 94.1268 241.236 93.6636C240.973 93.3788 240.831 93.057 240.676 92.7714C240.515 92.4756 240.355 92.2012 240.2 91.9155C240.051 91.6391 239.88 91.3453 239.572 90.9538C238.869 90.0602 238.549 89.8946 238.287 89.5979C237.859 89.1336 237.622 88.8491 237.348 88.6226C237.288 88.5631 237.241 88.4925 237.192 88.3484" stroke="white" stroke-width="5" stroke-linecap="round"/>
<path d="M238.69 87.0647C239.185 86.8992 240.187 86.661 240.685 86.4356C241.541 86.0488 242.634 85.3786 243.229 85.0687C243.683 84.832 244.061 84.6412 244.715 84.3555C245.242 84.1251 245.701 83.7625 246.047 83.5821C246.205 83.4997 246.463 83.4758 246.712 83.3214C246.88 83.2175 247.952 82.672 249.521 81.793C250.668 81.15 251.477 80.506 251.895 80.2186C252.343 79.911 253.47 79.153 254.705 78.2747C255.519 77.6959 256.277 76.9649 257.145 76.3351C257.871 75.8075 258.563 75.3224 258.814 75.0125C259.094 74.6657 259.679 74.0643 260.157 73.6456C260.543 73.3069 260.87 73.0159 261.392 72.6946C261.706 72.5016 262.011 72.3497 262.368 72.0883C262.736 71.8179 263.056 71.5652 263.449 71.3156C263.984 71.0189 264.531 70.638 264.933 70.3424C265.171 70.1409 265.477 69.835 265.792 69.5197" stroke="white" stroke-width="5" stroke-linecap="round"/>
<path d="M268.502 67.808C268.62 67.7374 268.737 67.6668 268.833 67.6069C268.929 67.547 269 67.4999 269.144 67.3801" stroke="white" stroke-width="5" stroke-linecap="round"/>
<path d="M242.542 89.5609C242.589 89.5138 242.895 89.2307 243.664 88.6501C245.451 87.3021 245.986 87.3043 246.439 87.0179C246.745 86.8239 247.105 86.6852 247.39 86.554C247.54 86.4853 247.723 86.3051 248.195 85.9973C249.071 85.4272 250.169 84.9992 250.881 84.536C251.506 84.1298 252.283 83.7867 253.13 83.2155C253.71 82.8244 254.375 82.1007 255.411 81.5152C256.369 80.9736 256.876 80.9082 257.161 80.7296C257.303 80.67 257.659 80.5045 258.122 80.267C258.303 80.1708 258.373 80.1237 258.446 80.0752" stroke="white" stroke-width="5" stroke-linecap="round"/>
<path d="M259.516 79.5046L259.801 79.4333" stroke="white" stroke-width="5" stroke-linecap="round"/>
<path d="M243.184 94.5533C243.513 94.2238 243.843 93.8943 244.354 93.2656C244.865 92.6369 245.547 91.719 245.969 91.1167C246.869 89.8337 247.318 89.1829 248.121 88.4144C248.697 87.8639 249.678 87.0575 250.634 86.3272C251.59 85.5968 252.508 84.9849 253.028 84.6344C253.548 84.2838 253.642 84.2132 253.739 84.0692" stroke="white" stroke-width="5" stroke-linecap="round"/>
<path d="M176.11 184.609C175.95 184.564 175.356 184.358 174.688 184.236C174.411 184.186 174.251 184.161 173.782 184.075C173.215 183.972 173.045 184.092 172.907 184.121C172.748 184.154 172.563 184.196 172.312 184.224C171.558 184.31 171.301 184.173 171.025 184.201C170.609 184.244 170.313 184.242 170.141 184.224C169.809 184.191 169.395 184.173 168.673 184.156C168.453 184.15 168.338 184.127 168.263 184.144C168.213 184.155 168.303 184.264 168.292 184.333C168.248 184.6 167.776 184.745 167.409 185.198C167.139 185.532 167.006 185.78 166.869 186.007C166.751 186.205 166.506 186.554 166.258 186.849C166.01 187.144 165.76 187.371 165.403 187.727C165.047 188.083 164.593 188.56 164.33 188.829C163.919 189.249 163.643 189.407 163.327 189.591C163.138 189.701 163.034 189.844 162.994 189.913C162.974 189.946 162.965 189.981 163.01 189.976C163.165 189.958 163.445 189.844 164.164 189.651C164.705 189.505 165.587 189.207 166.078 189.055C166.634 188.883 166.832 188.834 167.198 188.663C168.225 188.182 168.348 188.019 168.555 187.927C168.705 187.86 168.899 187.824 169.255 187.624C169.5 187.485 169.703 187.41 169.858 187.353C170.123 187.255 170.687 186.942 171.012 186.75C171.139 186.676 171.253 186.561 171.419 186.458C171.573 186.378 171.735 186.286 171.924 186.171C172.044 186.102 172.215 186.011 172.459 185.883" stroke="white" stroke-width="5" stroke-linecap="round"/>
<path d="M178.59 184.127C178.499 184.184 178.247 184.298 178.074 184.368C177.817 184.471 177.385 184.38 176.961 184.362C176.833 184.357 176.754 184.333 176.702 184.322C176.586 184.297 176.982 184.185 177.183 184.133C177.378 184.082 177.522 184.07 177.774 184.052C177.993 184.037 178.245 184.001 178.388 183.949C178.56 183.887 178.693 183.829 178.831 183.805C178.983 183.78 179.106 183.713 179.25 183.685C179.414 183.652 179.565 183.645 179.646 183.662C179.874 183.71 179.279 183.84 179.142 183.863C178.989 183.888 178.866 183.977 178.728 184.023C178.59 184.069 178.453 184.115 178.315 184.161C178.177 184.207 178.04 184.253 177.896 184.299C177.721 184.355 177.557 184.413 177.414 184.477C177.247 184.55 177.087 184.643 176.84 184.775C176.62 184.893 176.455 184.976 175.946 185.199C175.769 185.277 175.563 185.354 175.157 185.486C174.75 185.617 174.148 185.799 173.633 186.007C172.685 186.388 172.23 186.698 172.116 186.755C171.893 186.867 171.544 187.076 171.072 187.272C170.625 187.457 170.428 187.639 169.908 187.954C169.36 188.285 168.89 188.466 168.695 188.603C168.591 188.672 168.478 188.741 168.379 188.799C168.281 188.856 168.202 188.902 168.12 188.949" stroke="white" stroke-width="5" stroke-linecap="round"/>
<path d="M163.091 194.184C163.159 194.116 163.558 193.739 164.166 193.2C164.49 192.913 164.675 192.887 164.744 192.835C164.78 192.808 164.812 192.772 164.767 192.732C164.392 192.395 163.952 192.29 163.901 192.153C163.804 191.894 164.054 191.443 164.57 190.656C164.715 190.435 164.756 190.327 164.739 190.264C164.71 190.158 164.163 190.291 163.355 190.531C162.951 190.651 162.582 190.839 161.991 191.251C161.4 191.663 160.604 192.311 160.03 192.809C159.455 193.308 159.125 193.638 158.774 193.944C158.422 194.25 158.058 194.523 157.712 194.754C156.718 195.418 156.582 195.412 156.547 195.412C156.451 195.413 156.718 195.104 157.112 194.641C157.39 194.315 157.881 193.849 158.303 193.489C158.725 193.13 159.077 192.903 159.446 192.706C160.174 192.318 160.679 192.129 160.868 192.032C161.017 191.955 161.139 191.922 161.196 191.905C161.209 191.901 161.186 191.944 160.543 192.405C159.901 192.866 158.639 193.753 157.972 194.226C157.266 194.728 157.145 194.837 156.984 194.952C156.728 195.136 156.365 195.365 155.953 195.622C155.291 196.036 154.815 196.456 154.625 196.622C154.453 196.774 154.286 196.881 153.708 197.482C153.362 197.841 153.127 197.972 152.623 198.447C152.387 198.669 152.174 198.822 152.036 198.902C151.892 198.985 151.76 199.108 151.622 199.183C151.46 199.272 151.29 199.453 151.14 199.556C150.946 199.691 150.75 199.935 150.584 200.141C150.255 200.55 149.901 200.726 149.694 200.905C149.445 201.12 149.132 201.381 148.616 201.885C148.305 202.189 148.178 202.335 147.897 202.467C147.727 202.546 147.593 202.645 147.455 202.719C147.326 202.789 147.146 203 146.944 203.133C146.762 203.253 146.491 203.334 146.353 203.414C146.209 203.497 146.1 203.62 145.974 203.73C145.905 203.792 145.847 203.862 145.796 203.93C145.767 203.965 145.733 203.999 145.629 204.103" stroke="white" stroke-width="5" stroke-linecap="round"/>
<path d="M228 116L227 155" stroke="white"/>
<path d="M237.033 127.256C237.013 127.256 236.993 127.256 236.953 128.089C236.912 128.922 236.852 130.588 236.831 131.577C236.805 132.826 236.911 133.296 237.052 133.641C237.115 133.793 237.234 133.864 237.326 133.906C237.487 133.978 237.782 133.847 238.306 133.484C239.151 132.9 239.628 132.245 239.86 131.932C240.182 131.499 240.459 130.768 240.682 129.908C240.789 129.496 240.784 129.109 240.744 128.501C240.704 127.893 240.604 127.07 240.492 126.415C240.3 125.291 240.035 124.602 239.853 124.247C239.781 124.108 239.711 124.073 239.62 124.093C238.9 124.246 238.616 125.791 238.404 126.832C238.165 128 238.209 128.715 238.25 128.837C238.27 128.898 238.29 128.958 238.361 128.889C238.597 128.657 238.897 127.81 239.331 126.506C239.564 125.81 239.746 125.021 239.89 123.925C240.033 122.829 240.114 121.444 240.135 120.671C240.156 119.897 240.116 119.776 240.045 119.815C239.974 119.853 239.874 120.054 239.662 121.01C239.449 121.967 239.128 123.673 238.963 124.653C238.797 125.632 238.797 125.833 238.898 125.635C238.998 125.437 239.199 124.835 239.362 124.234C239.526 123.632 239.647 123.05 239.719 122.459C239.953 120.539 239.589 119.959 239.406 119.653C239.369 119.59 239.325 119.532 239.465 119.451C239.894 119.202 240.317 119.126 240.439 119.025C240.582 118.906 240.622 118.6 240.582 118.256C240.553 118.003 240.319 117.909 240.177 117.838C239.578 117.538 238.616 117.807 238.019 117.848C237.432 117.888 236.996 117.989 236.457 118.02C236.262 118.031 235.66 118.071 234.819 118.081C233.913 118.092 232.98 118.051 232.514 117.96C231.498 117.759 231.155 117.808 230.8 117.716C230.121 117.54 229.857 117.605 229.553 117.534C229.473 117.515 229.391 117.523 229.339 117.553C229.288 117.584 229.268 117.644 229.268 117.715C229.266 118.016 229.409 118.252 229.44 118.849C229.469 119.408 229.531 120.138 229.561 120.997C229.587 121.698 229.572 122.51 229.531 122.724C229.303 123.926 229.43 120.077 229.41 120.34C229.364 120.939 229.247 121.334 229.136 121.77C229.031 122.183 228.964 122.59 228.933 123.602C228.918 124.115 228.842 124.396 228.832 124.841C228.824 125.17 228.963 125.651 229.064 126.099C229.227 126.81 229.085 127.923 229.075 128.996C229.07 129.51 229.186 129.951 229.237 130.436C229.373 131.749 229.146 132.121 229.116 132.425C229.099 132.589 229.065 133.292 229.085 134.335C229.097 134.96 229.186 135.645 229.176 136.416C229.167 137.13 229.106 137.738 229.075 138.622C229.047 139.426 229.065 140.952 229.055 141.768C229.041 142.848 228.964 143.333 228.933 144.022C228.902 144.711 228.842 145.726 228.771 146.121C228.607 147.03 228.862 147.429 228.922 148.255C229.039 149.84 228.963 150.918 229.004 151.039C229.102 151.333 229.105 151.708 229.116 152.305C229.122 152.645 229.025 152.924 228.943 153.108C228.835 153.354 228.963 152.44 229.014 151.995C229.026 151.892 229.044 151.832 229.075 151.761C229.14 151.607 229.829 151.246 230.872 150.8C231.405 150.572 231.86 150.413 232.477 150.1C233.578 149.54 233.909 149.277 234.375 149.023C235.301 148.519 236.361 148.406 236.748 148.212C237.231 147.97 238.063 147.575 238.522 147.37C238.737 147.275 238.979 147.127 239.482 146.725C241.339 145.24 241.615 144.958 241.656 144.856C241.735 144.663 241.111 144.835 240.596 145.057C239.752 145.42 239.123 145.868 238.529 146.252C238.102 146.526 237.392 146.916 236.85 147.183C235.526 147.834 234.988 147.876 234.561 148.099C234.287 148.243 233.993 148.343 233.649 148.485C233.156 148.688 232.858 148.849 232.301 149.133C231.822 149.377 231.499 149.316 231.195 149.407C230.833 149.516 230.506 149.963 230.211 150.228C230.15 150.283 230.06 150.289 230.099 150.26C230.28 150.121 230.524 150.006 230.967 149.664C231.342 149.374 232.051 148.881 233.016 148.261C233.98 147.641 235.184 146.918 235.995 146.395C236.806 145.873 237.188 145.571 237.716 145.256C238.874 144.563 239.689 144.208 239.921 144.056C240.45 143.71 241.025 143.599 241.402 143.397C241.474 143.357 241.533 143.335 241.494 143.335C240.912 143.331 240.199 143.72 239.077 144.204C238.017 144.661 237.379 145.099 237.177 145.169C236.53 145.395 236.021 145.646 235.515 145.818C235 145.993 234.643 146.172 234.006 146.446C232.69 147.01 232.392 147.227 232.067 147.4C231.606 147.644 231.116 148.076 230.658 148.635C230.384 148.97 230.06 149.052 229.735 149.114C229.69 149.122 229.713 149.034 230.316 148.451C230.918 147.868 232.103 146.764 232.883 146.075C233.664 145.385 234.005 145.144 234.382 144.91C235.147 144.433 235.654 144.167 236.046 143.905C237.563 142.893 238.086 142.708 238.381 142.565C238.724 142.399 239.16 142.221 239.466 142.048C239.58 141.983 239.709 141.956 239.841 141.916C239.99 141.87 239.633 141.995 238.282 142.6C237.349 143.017 236.007 143.846 235.263 144.28C234.434 144.763 234.176 144.936 233.832 145.138C233.518 145.323 233.062 145.604 232.475 145.878C231.474 146.344 230.367 146.962 229.978 147.147C229.92 147.174 229.857 147.187 229.796 147.187C229.735 147.188 229.674 147.168 229.703 147.087C229.733 147.006 229.853 146.866 230.808 146.231C231.764 145.597 233.55 144.473 234.812 143.623C236.073 142.773 236.756 142.231 237.65 141.63C238.543 141.03 239.627 140.388 240.256 140.027C241.215 139.476 241.412 139.402 241.403 139.431C241.378 139.513 241.133 139.602 240.177 140.065C239.22 140.529 237.514 141.332 236.193 142.036C234.873 142.741 233.989 143.323 233.354 143.713C232.375 144.314 231.663 144.571 231.117 144.733C230.534 144.906 229.84 145.158 229.421 145.342C229.254 145.415 229.126 145.565 229.045 145.686C229.009 145.74 229.044 145.807 229.095 145.839C229.38 146.014 229.854 145.547 231.181 144.44C232.333 143.481 234.436 141.688 235.753 140.617C237.069 139.546 237.531 139.245 238.02 138.98C238.989 138.453 239.688 138.166 239.73 138.094C240.013 137.618 238.476 138.669 237.819 139.164C237.099 139.707 236.589 140.231 236.175 140.494C235.762 140.756 235.111 140.941 234.172 141.184C232.986 141.49 231.947 141.691 231.33 141.974C230.154 142.514 229.492 143.698 229.379 144.094C229.354 144.183 229.369 144.266 229.399 144.328C229.429 144.389 229.489 144.429 230.404 143.567C231.318 142.704 233.084 140.938 234.085 139.957C235.248 138.818 235.552 138.632 235.885 138.46C236.114 138.342 236.479 138.188 237.106 137.955C238.609 137.397 239.588 137.07 239.739 136.979C240.125 136.748 240.317 136.664 240.308 136.644C240.28 136.581 240.038 136.664 239.212 136.975C238.386 137.287 236.941 137.889 235.996 138.33C235.05 138.77 234.649 139.031 234.332 139.266C234.014 139.501 233.794 139.702 233.349 140.056C232.254 140.928 231.438 141.549 231.226 141.772C230.911 142.101 230.425 142.138 229.908 142.129C229.829 142.127 229.875 142.039 230.207 141.656C230.539 141.274 231.161 140.571 231.943 139.768C232.725 138.964 233.649 138.081 234.596 137.285C235.544 136.489 236.487 135.806 237.114 135.394C238.479 134.497 239.342 134.294 239.648 134.069C239.766 133.983 239.892 133.907 239.943 133.876C240.04 133.818 238.867 134.53 237.418 135.391C236.42 135.984 235.661 136.739 235.128 137.271C234.852 137.548 234.541 137.576 234.398 137.597C234.369 137.601 234.457 137.497 235.1 137.215C235.744 136.933 236.948 136.451 237.769 136.162C238.974 135.739 239.546 135.711 239.689 135.721C239.83 135.731 239.325 135.772 238.993 135.802C238.316 135.863 237.363 136.075 236.301 136.368C235.192 136.674 234.48 137.109 234.146 137.342C233.634 137.699 233.384 137.86 233.243 137.881C233.162 137.892 233.061 137.861 232.999 137.79C232.938 137.72 232.918 137.599 232.937 137.457C232.981 137.147 233.421 136.587 234.52 135.457C235.253 134.703 236.442 133.684 237.142 133.016C238.078 132.123 238.35 131.718 238.573 131.455C239.173 130.746 239.303 129.936 239.325 128.721C239.344 127.649 238.799 126.713 238.495 126.154C238.407 125.992 238.19 126.886 238.108 128.429C238.056 129.43 238.108 130.876 238.168 131.842C238.229 132.807 238.329 133.249 238.431 133.366C238.533 133.483 238.633 133.262 238.725 132.787C238.817 132.312 238.897 131.589 238.979 130.183C239.06 128.777 239.14 126.71 239.212 125.514C239.299 124.054 239.506 123.548 239.568 122.922C239.606 122.537 239.348 122.015 239.205 121.254C238.879 119.524 238.838 118.416 238.788 118.335C238.732 118.245 238.575 118.818 238.313 120.338C238.107 121.531 237.93 123.605 237.786 125.533C237.642 127.462 237.582 129.188 237.511 130.057C237.44 130.926 237.359 130.886 237.278 130.735C237.068 130.345 236.973 129.572 236.882 128.752C236.844 128.414 236.851 128.233 236.66 126.875C236.469 125.517 236.088 122.988 235.892 121.595C235.695 120.202 235.695 120.021 235.695 119.978C235.695 119.935 235.695 120.036 235.514 122.988C235.334 125.94 234.972 131.741 234.796 134.891C234.62 138.04 234.64 138.361 234.711 138.426C234.883 138.585 235.207 137.501 235.551 136.107C235.749 135.304 235.854 134.272 235.816 132.711C235.778 131.15 235.558 129.082 235.454 127.846C235.322 126.273 235.451 125.556 235.583 125.039C235.625 124.873 235.734 124.943 235.785 125.687C235.837 126.431 235.857 127.856 236.068 129.774C236.279 131.693 236.681 134.061 236.938 135.402C237.195 136.743 237.295 136.984 237.387 137.168C237.479 137.352 237.559 137.473 237.66 137.324C237.762 137.175 237.883 136.754 237.935 136.125C237.987 135.496 237.966 134.673 237.745 132.212C237.524 129.751 237.103 125.676 236.875 123.546C236.648 121.417 236.628 121.357 236.618 121.366C236.55 121.425 236.628 121.659 236.768 123.206C236.898 124.632 237.11 127.363 237.284 129.01C237.458 130.658 237.578 131.139 237.65 131.327C237.723 131.515 237.743 131.395 237.632 129.376C237.522 127.356 237.282 123.442 237.188 121.546C237.094 119.65 237.154 119.891 237.215 120.286C237.483 122.019 237.621 122.612 237.622 122.694C237.623 122.919 237.117 121.968 236.662 120.968C236.088 119.707 235.858 118.762 235.716 118.448C235.588 118.165 235.453 117.849 235.23 117.586C234.978 117.287 234.561 117.362 234.267 117.462C234.152 117.501 234.055 117.683 233.973 117.866C233.891 118.048 233.851 118.269 233.91 119.587C233.97 120.905 234.131 123.314 234.133 125.79C234.135 128.265 233.975 130.734 233.922 132.237C233.87 133.74 233.93 134.201 233.991 134.55C234.226 135.889 235.066 136.927 235.077 137.332C235.09 137.84 234.642 138.547 234.439 139.126C234.399 139.239 234.378 139.299 234.337 139.32C234.297 139.341 234.236 139.321 234.175 139.27C234.038 139.157 233.932 138.856 233.84 137.869C233.768 137.086 233.809 135.718 233.769 134.754C233.729 133.79 233.649 133.268 233.668 131.203C233.687 129.137 233.807 125.544 233.909 123.392C234.011 121.24 234.092 120.638 234.133 120.287C234.215 119.595 234.235 118.584 234.185 117.86C234.171 117.667 234.154 117.504 234.104 117.352C234.079 117.278 234.033 117.22 233.962 117.23C233.892 117.239 233.791 117.319 233.348 117.782C232.905 118.245 232.122 119.088 231.679 119.592C231.13 120.217 230.992 120.643 230.86 121.119C230.758 121.487 230.768 122.001 230.939 123.451C231.07 124.566 231.45 126.427 231.636 127.55C231.822 128.672 231.842 128.993 231.782 129.721C231.722 130.448 231.582 131.572 231.469 132.322C231.357 133.072 231.277 133.413 231.235 134.02C231.194 134.628 231.194 135.491 231.234 136.217C231.274 136.942 231.354 137.504 231.396 138.015C231.519 139.537 231.236 140.148 231.013 140.726C230.929 140.941 230.91 141.002 230.9 140.591C230.89 140.181 230.89 139.298 230.97 138.542C231.116 137.17 231.376 136.362 231.396 135.887C231.408 135.613 231.457 135.272 231.537 134.815C231.618 134.358 231.739 133.796 231.801 132.794C231.863 131.792 231.863 130.367 231.903 128.639C231.943 126.911 232.023 124.924 232.175 123.318C232.327 121.712 232.548 120.548 232.652 119.898C232.771 119.152 232.674 118.984 232.593 118.852C232.503 118.706 232.411 118.538 232.26 118.416C232.181 118.354 232.048 118.375 231.936 118.415C231.424 118.598 230.813 119.585 230.353 120.128C230.111 120.414 229.958 121.228 229.896 122.482C229.831 123.821 230.22 124.679 230.321 125.003C230.42 125.317 230.403 125.994 230.393 126.824C230.387 127.295 230.302 127.599 230.191 128.113C229.999 129.005 229.836 129.788 229.684 130.183C229.569 130.484 229.41 130.862 229.259 131.469C229.07 132.223 229.165 133.212 229.347 134.123C229.459 134.68 229.672 135.502 229.874 136.535C230.091 137.639 230.402 138.931 230.524 139.41C230.548 139.501 230.565 139.582 230.605 139.614C230.685 139.676 231.19 138.721 231.848 137.322C232.144 136.695 232.207 136.262 232.258 134.832C232.298 133.704 232.249 131.756 232.248 130.552C232.248 128.947 232.269 128.393 232.118 127.718C231.998 127.182 231.746 126.261 231.582 125.875C231.418 125.49 231.337 125.671 231.246 126.075C231.154 126.479 231.054 127.101 230.992 128.034C230.93 128.967 230.91 130.192 230.98 131.696C231.05 133.2 231.211 134.946 231.304 135.886C231.396 136.826 231.416 136.906 231.447 136.987C231.477 137.069 231.517 137.149 231.568 137.09C231.619 137.031 231.679 136.83 231.77 136.195C231.862 135.56 231.982 134.496 232.024 133.466C232.066 132.436 232.026 131.473 231.965 130.886C231.885 130.11 231.661 129.832 231.489 129.67C231.337 129.527 231.073 129.588 230.831 129.648C230.306 129.779 229.94 130.598 229.714 130.986C229.485 131.38 229.268 131.635 229.227 131.766C229.133 132.07 229.59 132.384 229.774 132.709C230.042 133.185 230.179 133.459 230.352 133.713C230.385 133.763 230.463 133.724 231.497 132.118C232.532 130.512 234.539 127.32 235.895 125.315C237.25 123.309 237.892 122.587 238.384 122.094C239.157 121.319 239.567 121.052 239.628 120.881C239.719 120.624 239.629 120.383 239.558 120.231C239.321 119.722 238.317 119.431 237.795 119.187C237.307 118.959 237.217 118.639 236.963 118.568C236.817 118.527 236.348 118.698 235.619 119.001C234.942 119.283 234.34 119.671 233.642 119.914C232.366 120.359 231.946 120.099 231.368 119.897C230.981 119.761 230.689 119.612 230.374 119.511C229.941 119.372 229.674 119.247 229.269 119.247C229.077 119.246 228.944 119.408 228.842 119.53C228.795 119.586 228.781 119.651 228.781 119.732C228.779 120.295 229.388 120.868 229.49 121.121C229.617 121.437 229.592 121.78 229.622 122.347C229.636 122.592 229.673 122.915 229.723 123.55C229.804 124.575 229.977 125.328 229.987 125.622C229.998 125.936 230.038 126.261 230.048 126.574C230.058 126.869 230.099 127.153 230.189 128.751C230.272 130.209 230.46 132.979 230.533 134.627C230.626 136.714 230.485 137.271 230.434 137.484C230.323 137.948 230.645 138.948 230.948 140.364C231.215 141.605 231.194 142.36 231.184 142.633C231.153 143.473 231.093 144.53 231.002 144.894C230.815 145.641 230.667 146.293 230.475 146.901C230.296 147.469 230.1 148.075 229.937 148.645C229.896 149.214 229.856 149.477 229.846 149.72C229.835 149.823 229.815 149.883 229.795 149.945" stroke="white" stroke-width="2" stroke-linecap="round"/>
<path d="M226.753 93.6786C226.934 93.5374 227.339 93.2941 228.697 92.8212C229.886 92.4068 232.122 91.726 233.32 91.354C234.776 90.9019 235.105 90.8403 235.541 90.6481C235.833 90.5194 235.998 90.2527 236.252 89.9793C236.305 89.9221 236.263 89.8476 236.202 89.8065C235.852 89.5692 235.191 89.603 234.683 89.5526C234.117 89.4963 233.751 89.6432 233.425 89.7244C232.931 89.8476 232.19 89.906 231.632 90.2804C230.832 90.8169 230.647 91.1031 230.404 91.2448C230.15 91.392 229.998 91.6092 229.846 91.8428C229.672 92.1097 229.269 92.2783 228.944 92.5219C228.644 92.7467 228.457 93.0082 228.274 93.3023C228.091 93.5962 227.929 93.9207 227.899 94.4167C227.854 95.134 227.888 96.2322 227.969 96.5968C228.063 97.0202 228.131 97.3879 228.273 97.692C228.415 97.9969 228.496 98.2395 228.577 98.4831C228.679 98.787 228.8 99.1921 228.942 99.5975C229.116 100.095 229.125 100.71 229.176 101.23C229.198 101.461 229.206 101.647 229.237 102.24C229.315 103.774 229.227 104.89 229.196 105.183C229.097 106.143 229.287 106.391 229.318 106.786C229.33 106.94 229.369 107.381 229.359 107.989C229.343 108.922 229.268 110.303 229.186 110.689C229.114 111.031 229.165 111.439 229.136 111.894C229.08 112.736 229.186 113.222 229.126 113.619C229.085 113.883 228.963 114.116 228.923 114.501C228.863 115.063 228.659 115.534 228.588 115.869C228.485 116.357 228.517 116.75 228.637 116.995C229.08 117.895 229.712 115.883 230.036 115.507C230.371 115.12 230.645 114.747 230.888 114.453C231.185 114.095 231.415 113.734 231.922 113.186C232.381 112.689 232.956 112.09 233.321 111.847C233.834 111.505 234.192 110.835 234.679 110.448C235.201 110.034 235.651 109.679 236.209 109.273C236.722 108.9 237.173 108.441 237.607 108.128C238.454 107.518 238.754 107.204 239.16 106.829C239.661 106.367 240.155 105.846 240.771 105.198C241.086 104.868 241.31 104.528 241.393 104.304C241.575 103.806 240.198 104.95 238.873 105.881C238.051 106.459 237.135 107.12 236.791 107.465C236.23 108.027 235.657 108.661 235.159 109.107C234.726 109.496 234.237 110.058 233.821 110.647C233.144 111.604 232.371 112.068 232.026 112.291C231.591 112.573 231.175 112.919 230.88 113.163C230.576 113.415 230.283 113.81 229.978 114.046C229.873 114.126 229.734 114.157 229.653 114.178C229.262 114.277 229.633 113.206 229.551 112.962C229.511 112.841 229.53 112.678 229.621 112.516C229.796 112.205 230.721 111.748 231.724 111.05C232.178 110.734 232.465 110.413 232.821 109.996C233.604 109.08 234.132 108.38 234.375 108.127C234.857 107.626 235.45 107.041 236.289 106.243C236.817 105.741 237.314 105.482 237.802 105.136C238.269 104.804 238.816 104.386 239.16 104.092C239.512 103.791 240.793 102.872 241.574 102.256C241.698 102.158 241.757 102.013 241.788 101.911C241.8 101.871 241.718 101.85 241.627 101.86C241.193 101.906 240.686 102.193 239.25 102.961C238.12 103.565 237.44 104.181 237.127 104.433C236.443 104.984 236.203 105.315 235.888 105.641C235.545 105.995 234.967 106.633 234.631 107.069C234.273 107.536 233.651 108.01 233.252 108.368C232.626 108.931 231.803 109.656 231.125 110.131C230.626 110.48 230.364 110.709 230.069 110.853C229.184 111.285 230.18 109.314 230.199 108.897C230.214 108.585 230.726 108.622 231.219 108.381C232.407 107.8 233.22 107.244 233.743 106.781C234.192 106.385 234.989 105.636 235.563 105.133C236.138 104.63 236.459 104.389 236.815 104.064C237.58 103.367 238.246 102.664 238.783 102.208C239.415 101.671 239.729 101.466 240.113 101.091C240.726 100.494 240.965 100.209 241.239 99.8439C241.477 99.5275 241.776 99.377 241.91 99.2851C242.083 99.1659 241.334 99.335 240.437 99.8378C239.718 100.241 238.557 101.103 237.716 101.698C236.407 102.624 235.838 103.106 235.656 103.308C235.329 103.671 234.844 104.119 234.298 104.626C234.011 104.892 233.709 105.113 233.345 105.326C232.498 105.82 232.148 106.107 231.843 106.269C231.507 106.449 231.135 106.634 230.809 106.847C230.369 107.135 229.918 107.465 229.613 107.719C229.552 107.77 229.491 107.81 229.46 107.58C229.363 106.854 229.49 106.271 229.631 106.149C230.112 105.737 231.41 105.341 232.255 104.953C232.691 104.754 233.138 104.446 234.044 103.802C234.735 103.312 235.794 102.355 236.373 101.849C237.187 101.138 237.559 100.615 237.843 100.27C238.255 99.7682 238.613 99.4378 239.573 98.6498C240.391 97.979 240.681 97.3307 240.885 97.015C240.997 96.8409 241.149 96.7206 241.129 96.6695C241.108 96.6132 240.909 96.7589 240.144 97.3122C239.379 97.8654 238.014 98.8891 237.22 99.5169C236.217 100.31 235.819 100.753 235.374 101.117C234.753 101.625 234.358 101.788 233.508 102.102C232.933 102.315 232.19 102.821 231.55 103.399C231.234 103.685 230.911 103.796 230.465 104.069C230.345 104.143 230.223 104.201 230.14 104.192C229.99 104.175 229.977 103.437 230.057 102.515C230.087 102.167 230.298 102.095 230.411 102.043C230.768 101.881 231.353 101.81 231.699 101.648C231.879 101.563 232.446 101.204 233.326 100.567C234.132 99.984 234.518 99.5795 234.629 99.4482C234.777 99.2735 235.406 98.7322 236.347 97.8517C237.123 97.1252 237.56 96.7814 237.791 96.5396C238.288 96.0204 238.856 95.6263 239.31 95.3635C240.373 94.7491 241.063 94.3112 241.463 93.8118C241.528 93.7297 241.554 93.6396 241.524 93.5682C241.495 93.4967 241.394 93.4365 241.282 93.4155C240.849 93.3342 240.362 93.6372 239.108 94.3233C237.877 94.9968 237.176 95.6652 236.984 95.7562C236.618 95.9291 236.305 96.4134 235.859 96.8298C235.222 97.4229 234.824 97.9153 234.641 98.0874C234.581 98.1445 234.659 98.1993 234.751 98.2C234.966 98.2014 235.287 98.0789 235.782 97.9478C236.472 97.765 237.111 97.5114 237.878 97.2997C240.037 96.7035 240.317 96.5174 240.328 96.5171C240.553 96.5109 239.852 96.6391 239.64 96.5886C239.404 96.5324 239.203 96.3964 239.031 96.1342C238.512 95.3422 238.675 94.4541 238.635 93.7038C238.622 93.4525 238.515 93.4754 238.393 93.566C238.09 93.7918 237.885 94.063 237.613 94.3754C237.062 95.0085 236.588 95.442 236.265 95.7841C235.57 96.5223 234.947 97.3258 234.471 97.731C234.13 98.0214 233.509 98.3393 232.81 98.8152C232.148 99.2663 231.642 99.7383 231.074 100.216C230.914 100.351 230.809 100.491 230.657 100.552C230.523 100.606 230.504 99.4469 230.524 97.8864C230.537 96.9132 230.119 96.6604 229.977 96.4067C229.818 96.1213 229.794 94.7054 229.734 93.8519C229.729 93.7781 229.693 93.7005 229.653 93.7093C229.508 93.7409 229.45 94.2029 229.389 94.9398C229.301 96.0146 229.389 96.8198 229.449 97.2036C229.654 98.5034 230.139 99.658 230.26 100.054C230.311 100.22 230.301 100.369 230.362 100.49C230.394 100.556 230.462 100.612 230.503 100.553C230.852 100.049 230.625 99.2176 230.656 98.6078C230.67 98.3234 230.847 97.5175 231.08 96.2227C231.414 94.3681 231.315 93.9851 231.406 93.6691C231.422 93.612 231.536 93.6579 231.598 93.7084C231.726 93.8135 231.841 94.2631 232.094 95.4426C232.272 96.2756 232.446 97.6057 232.58 98.3785C232.796 99.6303 232.897 99.9026 232.907 100.054C232.911 100.126 232.937 100.186 232.947 100.056C232.957 99.9269 232.957 99.6057 232.877 99.0287C232.797 98.4518 232.636 97.6288 232.503 97.0342C232.293 96.0929 232.147 95.5661 232.116 95.192C232.041 94.2724 232.268 93.4973 232.369 93.2938C232.389 93.253 232.47 93.2929 232.521 93.3835C232.652 93.6164 232.774 94.6232 233.016 96.0509C233.294 97.686 233.929 98.2395 234.123 98.4932C234.236 98.6426 234.336 98.7876 234.427 98.7885C234.505 98.7893 234.538 98.5485 234.589 97.9335C234.64 97.3185 234.68 96.2747 234.681 95.4961C234.682 94.2351 234.52 93.358 234.388 92.7299C234.315 92.3832 234.276 92.2193 234.245 92.1883C233.678 91.6101 234.882 94.3647 235.065 94.8626C235.353 95.6434 235.471 95.9682 235.593 96.3131C235.629 96.4161 235.694 96.5351 235.755 96.5871C235.816 96.6391 235.876 96.619 235.987 96.3678C236.099 96.1166 236.259 95.6348 236.352 94.8547C236.445 94.0746 236.465 93.0107 236.455 92.4325C236.445 91.8543 236.405 91.7941 236.354 91.733C236.249 91.6065 236.101 91.5295 235.889 91.4991C235.58 91.4547 235.21 91.5289 234.705 91.68C233.081 92.1666 232.471 92.7254 232.45 92.7458C231.771 93.4055 234.861 92.8063 235.358 92.837C235.551 92.8671 235.734 92.9079 236.017 92.9383C236.199 92.9486 236.46 92.9486 236.85 93.0095" stroke="white" stroke-width="2" stroke-linecap="round"/>
<path d="M216.5 96.5C220.446 122.217 221 131.5 216.5 163" stroke="white"/>
<path d="M228.28 101.929C227.642 99.5392 227.321 97.4054 227.083 96.6822C226.785 95.7788 225.355 98.617 224.42 101.756C223.703 104.164 225.448 106.602 227.023 108.769C227.293 109.14 227.478 109.278 227.585 109.175C227.946 108.83 227.748 106.371 227.589 103.203C227.505 101.545 226.686 98.967 225.941 95.5585C225.67 94.3126 225.617 94.0489 225.59 94.0713C225.563 94.0937 225.563 94.4101 225.563 94.7362" stroke="white" stroke-width="2" stroke-linecap="round"/>
<path d="M226.515 99.0289C226.671 98.8238 227.128 98.3429 227.798 97.6368C228.401 97.0022 228.656 96.5616 228.686 96.4347C228.699 96.381 228.633 96.3438 228.59 96.3253C228.516 96.2932 228.367 96.3188 228.138 96.3549C227.881 96.3954 227.341 96.5358 226.701 96.6748C226.173 96.7893 225.729 97.0204 225.361 97.141C224.836 97.3132 224.532 97.3347 224.024 97.4858C223.834 97.5426 223.672 97.5408 223.545 97.5109C223.448 97.488 223.754 97.0958 224.159 96.6786C224.351 96.4801 224.757 96.3442 225.343 96.1689C225.698 96.0628 225.861 96.0527 225.897 96.0467C226.046 96.0224 225.368 96.0041 225.07 96.0946C224.881 96.1522 224.605 96.2698 224.201 96.4146C223.679 96.6019 223.129 96.7173 222.665 96.9102C221.817 97.2621 221.592 97.4922 221.193 97.6551C221.109 97.6897 221.071 97.686 221.041 97.704C220.906 97.7833 220.877 97.9756 220.666 98.1872C220.35 98.504 219.778 98.7131 219.553 98.8411C219.48 98.8827 219.389 98.8957 219.293 98.9378C219.179 98.9874 219.123 99.1131 219.087 99.2216C218.998 99.4859 219.243 99.8136 219.412 100.201C219.521 100.448 219.473 100.973 219.516 101.411C219.523 101.486 219.558 101.544 219.72 102.048C219.882 102.552 220.181 103.498 220.419 104.698C220.657 105.898 220.825 107.324 220.923 108.094C221.031 108.938 221.118 109.297 221.191 109.769C221.219 109.952 221.216 110.025 221.198 110.05C221.18 110.075 221.144 110.051 221.101 109.985C221.059 109.918 221.011 109.811 220.908 109.468C220.806 109.125 220.65 108.55 220.552 108.116C220.393 107.412 220.381 106.943 220.375 106.653C220.37 106.42 220.321 106.18 220.272 105.98C220.215 105.746 220.199 105.455 220.163 105.164C220.138 104.96 220.043 104.537 219.91 104.041C219.779 103.555 219.848 103.204 219.873 102.747C219.893 102.363 219.897 101.668 219.921 101.334C219.945 101 219.981 101.048 220.071 101.199C220.529 101.961 220.875 102.27 221.172 102.362C221.373 102.424 221.65 102.296 221.909 102.157C222.118 102.046 222.435 101.753 222.84 101.367C223.012 101.202 223.089 101.076 223.258 100.871C223.427 100.665 223.679 100.378 224.054 99.8882C224.429 99.3988 224.92 98.7161 225.143 98.3823C225.366 98.0486 225.306 98.0845 224.886 98.654C224.466 99.2235 223.687 100.325 223.155 101.168C222.622 102.012 222.358 102.563 222.21 102.894C222.063 103.226 222.039 103.322 222.038 103.395C222.038 103.469 222.062 103.516 222.122 103.517C222.285 103.519 222.629 103.157 223.106 102.62C223.341 102.355 223.523 102.071 223.711 101.762C223.9 101.452 224.079 101.117 224.25 100.734C224.602 99.9438 224.748 99.4409 224.766 99.3741C224.769 99.3651 224.773 99.4151 224.683 100.308C224.593 101.201 224.413 102.938 224.321 103.862C224.222 104.846 224.216 104.981 224.234 105.071C224.241 105.106 224.336 105.055 224.57 104.791C224.805 104.527 225.2 104.035 225.667 103.387C226.134 102.739 226.661 101.948 226.478 102.302C226.294 102.655 225.384 104.176 224.765 105.331C224.146 106.486 223.847 107.229 223.693 107.635C223.539 108.042 223.539 108.09 223.568 108.114C223.598 108.139 223.658 108.139 223.737 108.091C223.816 108.043 223.912 107.947 224.242 107.539C224.573 107.13 225.136 106.411 225.57 105.903C226.261 105.094 226.635 104.812 226.744 104.752C226.805 104.718 226.876 104.668 226.931 104.715C226.986 104.762 227.022 104.906 227.023 105.028C227.023 105.15 226.987 105.246 226.633 105.954C226.279 106.662 225.609 107.979 225.257 108.718C224.894 109.576 224.893 109.783 224.93 109.94C224.954 110.014 224.99 110.073 225.027 110.135" stroke="white" stroke-width="4" stroke-linecap="round"/>
<path d="M221.397 130.751C221.385 130.655 221.361 130.365 221.403 130.003C221.424 129.823 221.445 129.511 221.529 128.967C221.613 128.423 221.757 127.657 221.861 127.022C221.965 126.388 222.025 125.909 222.056 125.602C222.125 124.91 222.159 124.473 222.25 123.972C222.283 123.786 222.304 123.386 222.353 122.734C222.401 122.085 222.281 121.474 222.166 120.997C222.087 120.669 222.002 120.504 221.942 120.324C221.824 119.97 221.676 119.562 221.597 119.247C221.567 119.125 221.555 119.077 221.506 119.262C221.458 119.447 221.375 119.866 221.325 120.285C221.276 120.705 221.264 121.112 221.294 121.705C221.324 122.298 221.396 123.065 221.534 123.873C221.673 124.681 221.877 125.508 222.096 126.34C222.314 127.173 222.542 127.988 222.683 128.641C222.824 129.294 222.872 129.761 222.891 130.313C222.909 130.865 222.897 131.488 222.873 131.917C222.821 132.847 222.752 133.156 222.74 133.466C222.74 133.471 222.74 133.342 222.68 132.819C222.62 132.296 222.5 131.374 222.451 130.678C222.401 129.981 222.425 129.538 222.461 129.202C222.498 128.866 222.545 128.65 222.624 128.162C222.703 127.673 222.81 126.919 222.848 125.853C222.885 124.788 222.85 123.434 222.837 122.755C222.825 122.076 222.836 122.112 222.831 122.951C222.825 123.79 222.801 125.431 222.962 127.342C223.124 129.253 223.471 131.385 223.824 132.974C224.176 134.564 224.523 135.546 224.756 136.142C224.989 136.738 225.097 136.917 225.17 137.034C225.244 137.15 225.28 137.198 225.316 137.091C225.353 136.984 225.389 136.72 225.335 134.441C225.282 132.161 225.138 127.873 224.986 125.335C224.835 122.797 224.679 122.138 224.587 121.769C224.494 121.399 224.47 121.339 224.482 121.362C224.494 121.386 224.542 121.493 224.818 123.579C225.094 125.665 225.597 129.725 225.886 131.936C226.175 134.148 226.235 134.387 226.314 134.631C226.393 134.874 226.488 135.113 226.574 135.231C226.659 135.348 226.731 135.336 226.828 135.222C226.925 135.108 227.045 134.893 227.148 134.62C227.252 134.347 227.336 134.024 227.451 132.174C227.566 130.325 227.709 126.959 227.754 125.04C227.798 123.12 227.738 122.749 227.695 122.528C227.652 122.307 227.628 122.247 227.61 122.192C227.591 122.137 227.58 122.089 227.49 122.586C227.399 123.082 227.232 124.124 227.098 124.763C226.963 125.401 226.867 125.605 226.769 125.815" stroke="white" stroke-width="4" stroke-linecap="round"/>
<path d="M221.869 119.064C221.869 118.98 221.893 118.762 221.941 118.156C221.98 117.67 221.989 116.819 221.996 116.339C222.005 115.652 221.917 115.412 221.869 115.169C221.818 114.912 221.736 114.65 221.663 114.322C221.634 114.192 221.603 113.864 221.501 113.381C221.348 112.662 221.083 112.35 220.95 111.711C220.875 111.352 220.889 110.696 220.847 110.425C220.799 110.115 220.816 111.221 220.894 111.686C220.998 112.301 221.154 112.457 221.251 112.645C221.36 112.854 221.372 113.134 221.403 113.762C221.425 114.223 221.457 114.732 221.464 115.353C221.467 115.68 221.361 115.869 221.331 116.075C221.301 116.279 221.288 117.193 221.324 117.786C221.332 117.915 221.433 118.047 221.559 118.144C221.607 118.18 221.65 118.145 221.687 118.055C221.723 117.964 221.759 117.809 221.778 117.501C221.796 117.193 221.796 116.738 221.73 116.174C221.664 115.61 221.533 114.952 221.459 114.474C221.343 113.726 221.337 113.294 221.3 113.047C221.277 112.884 221.228 112.546 221.113 112.062C221.032 111.717 220.902 111.371 220.793 110.931C220.683 110.484 220.671 110.1 220.683 109.924C220.697 109.725 220.78 110.351 220.726 110.672C220.652 111.111 220.454 111.427 220.381 111.816C220.311 112.185 220.368 112.795 220.435 113.134C220.514 113.543 220.839 114.004 221.152 114.541C221.537 115.2 221.832 115.651 221.905 115.85C222.007 116.131 222.098 116.316 222.153 116.516C222.164 116.558 222.159 116.595 222.195 116.601C222.303 116.621 222.533 116.416 222.846 116.096C223.012 115.927 223.16 115.717 223.498 115.151C223.836 114.585 224.351 113.662 224.939 112.421C225.528 111.179 226.175 109.646 226.592 108.706C227.009 107.767 227.177 107.467 226.88 108.134C226.583 108.8 225.816 110.441 225.415 111.304C225.014 112.167 225.002 112.203 225.002 112.24C225.002 112.276 225.014 112.312 225.038 112.325C225.207 112.412 225.557 111.976 226.105 111.29C226.493 110.804 227.071 110.006 227.386 109.575C227.7 109.144 227.724 109.096 227.179 109.526C226.635 109.957 225.521 110.867 224.785 111.42C223.761 112.189 223.345 112.325 223.243 112.343C223.189 112.353 223.128 112.349 223.073 112.337C223.019 112.325 222.971 112.301 222.934 112.229C222.843 112.049 222.921 111.686 223.119 111.18C223.366 110.55 223.659 110.184 223.821 110.004C224.102 109.691 224.552 109.362 225.023 109.085C225.41 108.856 225.931 108.672 226.456 108.467C226.898 108.295 227.059 108.139 227.107 108.127C227.133 108.12 227.108 108.234 226.88 108.72C226.652 109.207 226.209 110.093 225.933 110.729C225.657 111.366 225.561 111.725 225.493 112.138C225.426 112.55 225.39 113.005 225.384 113.414C225.377 113.822 225.401 114.169 225.509 114.719C225.617 115.269 225.809 116.012 225.926 116.437C226.156 117.276 226.309 117.817 226.327 117.866C226.331 117.878 226.333 117.771 226.561 116.243C226.788 114.714 227.243 111.744 227.484 110.076C227.724 108.408 227.736 108.132 227.73 108.008C227.725 107.885 227.701 107.92 227.545 108.328C227.389 108.736 227.101 109.515 226.875 110.251C226.649 110.987 226.493 111.658 226.401 112.692C226.309 113.727 226.285 115.104 226.345 116.448C226.404 117.793 226.548 119.062 226.616 119.782C226.696 120.632 226.612 120.853 226.491 121.004C226.43 121.082 226.323 121.119 226.232 121.138C226.06 121.173 225.862 121.085 225.669 120.994C225.519 120.924 225.175 120.519 224.715 119.927C224.473 119.614 224.362 119.272 224.217 118.819C224.079 118.389 224.095 117.821 224.173 117.091C224.264 116.238 224.506 115.737 224.482 115.922C224.451 116.169 224.315 116.718 224.259 117.229C224.204 117.74 224.216 118.196 224.282 118.688C224.348 119.18 224.467 119.695 224.625 120.163C224.783 120.632 224.974 121.04 225.115 121.315C225.255 121.591 225.339 121.723 225.406 121.815C225.474 121.906 225.522 121.954 225.607 121.967" stroke="white" stroke-width="4" stroke-linecap="round"/>
<path d="M228.003 152.745C227.691 152.949 227.38 153.153 226.836 153.533C226.292 153.913 225.526 154.464 225.023 154.808C224.318 155.291 223.987 155.431 223.818 155.491C223.448 155.624 222.887 155.83 222.686 155.975C222.568 156.061 222.342 156.204 222.023 156.458C221.378 156.969 221.083 157.076 220.956 157.203C220.784 157.375 220.49 157.536 220.291 157.681C220.142 157.79 220.042 157.935 219.801 158.291C219.682 158.467 219.607 158.624 219.432 158.812C219.233 159.025 219.051 159.157 218.941 159.266C218.89 159.318 218.953 159.026 219.073 158.605C219.312 157.769 219.558 157.138 219.636 156.951C219.688 156.827 219.835 156.379 220.071 155.714C220.276 155.135 220.32 154.948 220.434 154.474C220.528 154.081 220.728 153.389 220.832 152.995C220.956 152.531 221.045 152.192 221.178 151.756C221.252 151.516 221.336 151.163 221.469 150.704C221.522 150.521 221.53 150.436 221.716 149.86C221.901 149.284 222.261 148.218 222.464 147.597C222.713 146.835 222.74 146.636 222.722 146.576C222.716 146.555 222.668 146.587 222.434 146.947C222.2 147.306 221.769 148.001 221.529 148.401C221.242 148.878 221.108 149.378 220.932 150.025C220.85 150.327 220.744 150.638 220.606 151.085C220.501 151.42 220.393 151.584 220.303 151.812C219.918 152.786 219.849 153.095 219.686 153.5C219.6 153.713 219.619 153.942 219.588 154.124C219.565 154.269 219.546 154.941 219.588 155.238C219.629 155.525 219.655 154.694 219.667 154.543C219.687 154.283 219.727 154.041 219.841 153.279C219.943 152.599 220.183 151.331 220.3 150.641C220.417 149.951 220.417 149.88 220.459 149.549C220.501 149.219 220.585 148.632 220.694 148.012C220.803 147.392 220.935 146.758 221.008 146.413C221.12 145.89 221.083 145.596 221.064 145.415C221.059 145.366 221.046 145.318 220.992 146.096C220.938 146.874 220.842 148.479 220.811 149.455C220.78 150.432 220.816 150.731 220.84 150.987C220.909 151.704 220.925 152.017 220.961 152.363C220.999 152.722 221.142 153.396 221.215 153.779C221.263 154.027 221.36 154.389 221.445 154.62C221.46 154.661 221.505 154.681 221.566 154.687C221.626 154.693 221.71 154.681 222.855 153.783C224 152.884 226.204 151.1 227.429 150.121C228.654 149.141 228.834 149.022 228.866 148.972C228.916 148.896 228.584 149.007 227.882 149.271C227.255 149.507 226.067 149.918 225.33 150.194C224.333 150.567 223.975 150.749 223.794 150.803C223.687 150.835 223.563 150.798 223.43 150.738C223.375 150.712 223.369 150.653 223.381 150.575C223.393 150.496 223.429 150.388 223.962 149.668C224.496 148.948 225.526 147.618 226.074 146.916C226.654 146.173 226.72 146.104 226.696 146.127C226.642 146.181 226.529 146.342 225.719 147.117C224.909 147.892 223.411 149.281 222.658 149.967C221.905 150.653 221.941 150.593 222.384 149.928C222.828 149.262 223.678 147.992 224.206 147.254C224.734 146.517 224.914 146.349 225.036 146.244C225.159 146.14 225.219 146.104 225.281 146.067" stroke="white" stroke-width="4" stroke-linecap="round"/>
<path d="M220.925 147.338C221.009 147.098 221.093 146.858 221.34 146.202C221.587 145.546 221.994 144.48 222.335 143.074C222.677 141.669 222.94 139.956 223.076 139.002C223.212 138.047 223.212 137.904 223.224 137.716C223.25 137.3 223.368 136.743 223.513 136.217C223.623 135.82 223.875 135.496 224.088 135.234C224.306 134.966 224.47 134.78 224.518 134.743C224.603 134.876 224.627 135.129 224.597 135.532C224.567 135.804 224.508 136.211 224.446 136.631" stroke="white" stroke-width="4" stroke-linecap="round"/>
<path d="M227.894 136.885C227.475 137.687 227.056 138.49 226.756 139.184C226.456 139.879 226.289 140.442 226.154 141.02C226.02 141.597 225.924 142.172 225.875 142.546C225.805 143.073 225.837 143.272 225.891 143.315C225.925 143.341 226.005 143.297 226.078 143.225C226.151 143.153 226.223 143.033 226.41 142.54C226.597 142.047 226.896 141.185 227.116 140.273C227.336 139.362 227.468 138.428 227.536 137.905C227.604 137.381 227.604 137.298 227.562 137.302C227.52 137.307 227.436 137.403 227.279 137.674C227.122 137.945 226.895 138.388 226.676 138.946C226.457 139.503 226.253 140.162 226.13 140.633C226.007 141.104 225.971 141.368 225.953 141.659C225.915 142.261 225.982 142.894 226.073 143.396C226.107 143.588 226.151 143.646 226.194 143.659C226.236 143.672 226.284 143.636 226.309 143.594C226.334 143.551 226.334 143.503 226.334 143.454" stroke="white" stroke-width="4" stroke-linecap="round"/>
<path d="M224.918 144.18C224.618 144.599 224.319 145.018 224.165 145.21C224.01 145.402 224.01 145.354 224.058 145.198C224.106 145.041 224.202 144.778 224.221 144.624C224.241 144.471 224.181 144.435 224 144.446C223.82 144.458 223.52 144.517 223.073 144.626C222.035 144.878 221.397 145.063 221.325 145.069C221.148 145.084 221.059 144.798 220.914 144.381C220.748 143.906 221.009 143.709 221.076 143.503C221.131 143.335 221.227 143.201 221.288 143.019C221.359 142.808 221.409 142.512 221.53 142.004C221.61 141.668 221.663 141.447 221.717 141.205C221.766 140.991 221.844 140.47 221.971 139.655C222.073 139.002 222.026 138.592 222.056 138.267C222.076 138.049 222.098 137.726 222.141 137.374C222.228 136.648 222.328 136.196 222.365 136.039C222.466 135.603 222.304 134.844 222.335 134.369C222.351 134.115 222.377 133.825 222.407 133.559C222.429 133.365 222.353 133.22 222.305 133.068C222.276 132.979 222.256 132.892 222.226 132.856C222.191 132.814 222.147 132.964 222.111 133.007C222.071 133.054 221.894 132.965 221.719 132.989C221.56 133.01 221.735 133.315 221.79 133.556C221.887 133.982 221.76 134.258 221.724 134.488C221.708 134.587 221.687 134.958 221.693 135.466C221.696 135.687 221.724 136.166 221.712 136.874C221.703 137.361 221.615 137.597 221.579 137.845C221.525 138.211 221.518 138.795 221.5 138.959C221.475 139.185 221.409 139.424 221.385 139.66C221.367 139.837 221.312 140.029 221.294 140.45C221.257 141.325 221.276 141.989 221.258 142.188C221.252 142.399 221.24 142.546 221.216 142.918C221.204 143.254 221.192 143.889 221.179 144.543" stroke="white" stroke-width="4" stroke-linecap="round"/>
<path d="M207.466 106.225C207.466 106.146 207.466 106.067 207.483 106.037C207.5 106.008 207.534 106.03 207.557 106.093C207.68 106.426 207.739 107.213 207.814 107.76C207.907 108.439 207.923 108.681 207.985 109.158C208.031 109.511 208.127 110.087 208.173 110.418C208.229 110.816 208.265 111.272 208.334 111.973C208.388 112.526 208.346 112.829 208.346 113.034C208.345 113.182 208.391 113.419 208.499 113.954C208.607 114.49 208.788 115.315 208.898 115.78C209.028 116.328 209.145 116.519 209.316 116.866C209.594 117.432 209.705 117.868 209.705 117.926C209.706 118.208 209.249 117.458 209.066 117.372C208.744 117.221 208.357 117.287 208.3 117.19C208.157 116.946 208.367 116.318 208.494 115.99C208.571 115.788 208.62 115.608 208.688 115.128C208.727 114.855 208.734 114.285 208.694 113.757C208.643 113.079 208.574 112.899 208.483 112.727C208.438 112.641 208.312 113.09 208.243 113.637C208.113 114.673 208.163 114.953 208.123 115.308C208.073 115.752 208.174 115.914 208.26 116.069C208.283 116.112 208.322 116.154 208.357 116.183C208.391 116.212 208.425 116.223 208.493 116.218C208.562 116.212 208.664 116.19 209.236 115.85C209.809 115.51 210.85 114.854 212.376 113.996C213.902 113.137 215.882 112.097 217.195 111.476C218.509 110.855 219.098 110.685 219.418 110.592C219.738 110.499 219.772 110.487 219.009 110.736C218.245 110.985 216.684 111.494 215.79 111.807C214.895 112.12 214.714 112.222 214.434 112.41C214.154 112.598 213.781 112.87 213.509 113.055C212.862 113.496 212.608 113.572 212.318 113.698C211.94 113.861 211.672 113.835 211.449 113.864C211.375 113.873 211.273 113.87 211.204 113.853C211.134 113.836 211.1 113.802 211.094 113.722C211.078 113.518 211.202 113.254 211.401 112.935C211.52 112.744 211.724 112.526 211.981 112.273C212.239 112.021 212.556 111.75 213.85 110.92C215.144 110.09 217.407 108.71 218.533 108.01C219.659 107.31 219.58 107.333 218.526 107.712C217.473 108.092 215.448 108.827 214.264 109.279C213.079 109.732 212.796 109.879 212.538 110.039C212.039 110.349 211.785 110.578 211.598 110.732C210.852 111.343 210.598 111.424 210.42 111.487C210.382 111.501 210.346 111.482 210.34 111.447C210.334 111.413 210.356 111.357 210.787 110.79C211.217 110.224 212.054 109.149 212.615 108.477C213.176 107.804 213.437 107.567 214.131 107.06C214.825 106.553 215.945 105.784 216.538 105.37C217.171 104.93 217.461 104.73 217.873 104.473C218.026 104.377 218.058 104.34 218.019 104.323C217.979 104.305 217.866 104.305 217.129 104.617C216.392 104.928 215.035 105.55 214.29 105.899C213.546 106.247 213.455 106.304 213.25 106.401C212.734 106.645 212.323 106.796 212.073 106.887C211.633 107.047 211.159 107.309 210.788 107.532C210.533 107.685 210.369 107.79 210.226 107.825C210.164 107.84 210.118 107.836 210.1 107.814C210.082 107.791 210.094 107.746 210.235 107.474C210.377 107.201 210.648 106.704 210.924 106.295C211.427 105.548 211.819 105.209 212.006 105.066C212.286 104.854 212.561 104.706 213.089 104.411C213.528 104.166 214.306 103.709 214.77 103.431C215.235 103.152 215.359 103.062 215.604 102.851C216.22 102.322 216.675 101.918 216.829 101.815C217.191 101.574 217.749 101.312 218.046 101.135C218.308 100.979 217.408 101.128 217.054 101.22C216.753 101.298 216.12 101.516 215.74 101.643C215.437 101.744 215.214 101.916 214.382 102.481C214.206 102.6 214.163 102.648 213.924 102.835C213.686 103.022 213.256 103.35 212.956 103.57C212.503 103.901 212.254 104.065 212.106 104.185C211.786 104.444 211.069 104.864 210.683 105.019C210.311 105.231 210.061 105.39 209.866 105.528C209.831 105.551 209.798 105.562 209.728 105.574" stroke="white" stroke-width="4" stroke-linecap="round"/>
<path d="M209.557 121.103C209.545 121.023 209.534 120.944 209.506 120.355C209.477 119.765 209.432 118.668 209.392 118.108C209.351 117.549 209.318 117.56 209.232 117.617C208.756 117.933 208.563 118.302 208.46 118.519C208.245 118.972 208.118 119.216 208.02 119.479C207.954 119.658 207.946 119.912 207.985 120.108C208.025 120.301 208.287 120.937 208.363 121.49C208.374 121.57 208.38 121.627 208.385 121.979C208.391 122.33 208.391 122.975 208.386 123.335C208.379 123.753 208.357 124.014 208.351 124.351C208.348 124.542 208.311 124.69 208.294 125.081C208.259 125.891 208.277 126.495 208.26 126.638C208.231 126.882 208.288 127.158 208.317 127.443C208.365 127.921 208.38 128.311 208.397 128.632C208.411 128.897 208.482 129.214 208.534 129.568C208.551 129.66 208.574 129.751 208.585 129.826C208.597 129.9 208.597 129.957 208.631 130.084" stroke="white" stroke-width="4" stroke-linecap="round"/>
<path d="M209.385 128.576C209.453 128.496 209.521 128.417 209.856 127.867C210.19 127.317 210.79 126.299 211.133 125.679C211.476 125.058 211.544 124.866 211.646 124.416C211.749 123.966 211.885 123.265 211.966 122.87C212.047 122.474 212.07 122.407 212.144 122.117C212.347 121.32 212.504 120.704 212.573 120.482C212.664 120.186 212.699 119.938 212.756 119.654C212.87 119.082 212.882 118.59 212.876 118.384C212.866 118.004 212.711 117.528 212.557 117.304C212.477 117.188 212.334 117.172 212.265 117.132C212.232 117.113 212.197 117.103 212.162 117.137C212.068 117.23 212.059 117.388 212.048 117.542C212.041 117.639 212.014 117.775 211.968 119.366C211.923 120.958 211.855 124.001 211.808 125.647C211.762 127.294 211.74 127.453 211.728 127.568C211.689 127.957 211.648 128.346 211.591 128.671C211.562 128.835 211.568 128.952 211.556 129.021C211.551 129.055 211.568 129.089 211.596 129.101C211.757 129.168 211.899 128.896 212.476 128.064C213.013 127.291 214.027 125.795 214.642 124.856C215.257 123.917 215.438 123.578 215.672 122.984C215.907 122.391 216.19 121.554 216.369 120.823C216.549 120.092 216.617 119.492 216.635 118.855C216.653 118.218 216.619 117.562 216.579 117.105C216.518 116.408 216.368 115.94 216.191 115.49C216.102 115.262 215.981 115.051 215.877 115.087C215.774 115.123 215.683 115.418 215.354 116.955C215.024 118.492 214.459 121.264 214.162 122.799C213.865 124.334 213.853 124.549 213.853 124.688C213.853 124.884 213.899 124.987 213.967 125.078C214.148 125.32 214.526 125.25 214.772 125.279C215.255 125.335 215.804 125.069 216.143 124.857C216.252 124.789 216.376 124.636 216.53 124.425C216.685 124.213 216.855 123.931 217.118 123.208C217.38 122.485 217.731 121.332 217.957 120.132C218.183 118.932 218.273 117.722 218.292 116.94C218.31 116.158 218.253 115.841 218.202 115.616C218.053 114.969 217.75 114.624 217.619 114.402C217.588 114.351 217.567 114.316 217.544 114.315C217.521 114.315 217.499 114.349 217.232 115.497C216.966 116.646 216.457 118.909 216.02 121.234C215.582 123.559 215.231 125.878 215.051 127.185C214.87 128.493 214.87 128.72 214.876 128.876C214.888 129.229 214.984 129.567 215.047 129.804C215.052 129.821 215.087 129.776 215.155 129.493C215.223 129.209 215.336 128.678 215.649 127.606C215.962 126.535 216.471 124.94 216.824 123.626C217.176 122.312 217.357 121.328 217.417 120.923C217.476 120.518 217.408 120.721 217.322 121.115C217.236 121.508 217.135 122.085 217.037 123.429C216.939 124.772 216.849 126.865 216.819 128.022C216.789 129.18 216.823 129.338 216.863 129.482C216.991 129.939 217.098 130.231 217.195 130.488C217.257 130.652 217.098 129.834 217.195 129.372C217.232 129.192 217.325 128.957 217.496 128.569C217.667 128.181 217.927 127.649 218.146 127.121C218.365 126.592 218.535 126.083 218.628 125.793C218.721 125.502 218.732 125.446 218.726 125.451C218.668 125.502 218.664 125.661 218.613 126.403C218.566 127.077 218.505 128.355 218.459 129.059C218.39 129.853 218.355 130.003 218.327 130.106C218.31 130.152 218.287 130.186 218.195 130.221" stroke="white" stroke-width="4" stroke-linecap="round"/>
<path d="M219.464 132.004C219.339 131.981 219.099 131.912 218.634 131.816C218.228 131.732 217.468 131.618 216.976 131.548C216.282 131.449 215.889 131.432 215.535 131.381C215.202 131.333 214.974 131.284 214.554 131.329C214.201 131.367 213.569 131.465 212.971 131.494C212.373 131.524 211.83 131.49 211.534 131.467C211.109 131.434 210.838 131.341 210.558 131.261C210.331 131.196 210.14 131.192 209.918 131.107C209.599 130.985 209.398 130.861 209.22 130.804C209.077 130.758 208.827 130.735 208.586 130.707C208.529 130.7 208.461 130.701 208.415 130.718C208.369 130.735 208.346 130.769 208.334 130.809C208.285 130.979 208.459 131.282 208.562 131.534C208.669 131.796 208.757 132.003 208.774 132.26C208.795 132.574 208.78 132.963 208.729 133.1C208.673 133.249 208.427 133.408 208.345 133.478C208.001 133.776 208.482 132.85 208.551 132.553C208.569 132.474 208.563 132.394 208.546 132.375C208.447 132.269 208.403 132.665 208.397 132.922C208.391 133.183 208.505 133.454 208.579 133.592C208.594 133.619 208.653 133.592 208.637 133.598C208.543 133.629 208.426 133.66 208.363 133.694C208.296 133.731 208.277 133.82 208.26 133.917C208.249 133.979 208.254 134.07 208.294 134.117C208.519 134.381 209.03 133.981 209.703 133.815C209.906 133.765 210.047 133.763 210.337 133.729C210.883 133.665 211.27 133.729 211.729 133.746C212.154 133.762 212.968 133.752 213.433 133.757C213.989 133.764 214.319 133.786 214.696 133.78C215.11 133.774 215.635 133.695 215.943 133.689C216.32 133.682 216.789 133.706 216.858 133.695C216.926 133.683 216.961 134.147 216.956 134.816C216.952 135.273 216.836 135.727 216.796 136.013C216.761 136.263 216.744 136.391 216.772 136.392C216.96 136.395 217.154 135.823 217.399 135.304C217.612 134.854 217.761 134.404 217.846 134.21C217.864 134.164 217.875 134.13 217.87 134.135C217.864 134.14 217.841 134.185 217.818 134.232" stroke="white" stroke-width="4" stroke-linecap="round"/>
<path d="M207.054 144.961C207.054 144.882 207.077 144.654 207.179 144.266C207.221 144.107 207.248 143.968 207.266 143.91C207.379 143.534 207.214 144.8 207.243 144.995C207.247 145.024 207.293 145.007 207.78 144.487C208.267 143.966 209.206 142.937 209.894 142.22C210.581 141.503 210.988 141.13 211.3 140.824C211.611 140.519 211.815 140.292 212.435 139.757C213.054 139.222 214.084 138.385 214.885 137.795C215.687 137.206 216.23 136.889 216.533 136.709C216.998 136.432 217.178 136.289 217.281 136.146C217.42 135.953 217.578 135.889 217.646 135.877C217.733 135.862 217.851 136.138 218.051 136.514C218.296 136.977 218.355 137.441 218.378 137.856C218.392 138.113 218.356 138.464 218.327 138.729C218.298 138.995 218.264 139.165 217.941 140.134C217.619 141.104 217.008 142.869 216.659 143.942C216.31 145.015 216.243 145.343 216.196 145.812C216.15 146.281 216.127 146.88 216.104 147.263C216.058 148.027 215.876 148.387 215.671 148.815C215.563 149.041 215.421 149.276 215.323 148.465C215.225 147.654 215.168 145.787 215.167 144.622C215.167 143.457 215.223 143.05 215.28 142.75C215.429 141.972 215.647 141.74 215.801 141.466C215.998 141.114 216.275 140.872 216.418 140.694C216.594 140.475 216.709 140.243 216.852 140.038C216.907 139.959 216.915 139.923 216.83 140.024C216.746 140.125 216.565 140.363 215.996 140.881C215.428 141.4 214.478 142.191 213.428 143.029C212.379 143.867 211.259 144.727 210.648 145.204C209.853 145.825 209.706 145.955 209.529 146.098C209.288 146.292 209.112 146.686 208.946 146.835C208.652 147.099 208.403 147.257 208.226 147.304C208.011 147.36 207.957 146.916 207.837 146.722C207.743 146.568 207.672 146.447 207.603 146.424C207.453 146.374 207.374 146.663 207.295 146.891C207.112 147.412 207.248 147.92 207.288 148.177C207.321 148.387 207.328 148.752 207.357 149.034C207.363 149.187 207.374 149.337 207.391 149.638C207.397 149.882 207.397 150.312 207.431 150.789" stroke="white" stroke-width="4" stroke-linecap="round"/>
<path d="M219.566 149.418C219.077 149.463 218.642 149.577 218.288 149.618C217.719 149.682 217.397 149.737 217.054 149.914C216.752 150.07 216.414 150.444 216.156 150.998C216.02 151.293 215.99 151.576 215.848 151.861C215.622 152.313 215.306 152.752 215.066 153.044C214.867 153.286 214.677 153.53 214.477 154.021C214.355 154.318 214.106 154.865 213.848 155.278C213.662 155.576 213.591 155.861 213.539 156.141C213.545 156.41 213.568 156.57 213.596 156.827C213.602 156.924 213.602 157.059 213.602 157.199" stroke="white" stroke-width="4" stroke-linecap="round"/>
<path d="M213.225 145.544C213.202 145.499 213.123 145.34 212.98 145.179C212.928 145.121 212.826 145.245 212.593 145.659C212.36 146.074 211.976 146.809 211.715 147.363C211.455 147.917 211.33 148.268 211.232 148.601C210.923 149.652 210.917 149.988 210.82 150.251C210.7 150.576 210.438 151.161 210.231 151.855C210.187 152.005 210.208 152.168 210.202 152.233C210.199 152.268 210.151 152.104 210.032 151.701C209.818 150.974 209.58 150.492 209.551 150.384C209.525 150.283 210.02 150.116 210.916 149.888C211.283 149.794 211.461 149.705 211.724 149.545C211.987 149.386 212.327 149.148 212.575 148.958C212.982 148.646 213.314 148.266 213.64 147.866C213.86 147.595 213.922 147.43 213.922 147.384C213.922 147.265 213.603 147.622 213.124 148.375C212.991 148.583 212.929 148.796 212.855 149.037C212.78 149.278 212.712 149.549 212.609 150.017C212.506 150.485 212.37 151.141 212.284 151.53C212.139 152.179 211.969 152.693 211.888 153.033C211.877 153.085 211.865 153.153 211.859 153.233C211.854 153.313 211.854 153.404 211.854 153.497" stroke="white" stroke-width="4" stroke-linecap="round"/>
<path d="M217.03 153.394C217.03 153.519 216.951 154.166 216.797 154.988C216.684 155.59 216.494 156.088 216.323 156.55C216.126 157.08 215.9 157.266 215.671 157.427C215.524 157.53 215.124 157.78 214.558 158.384C213.596 159.412 213.705 159.713 213.648 159.798C213.622 159.837 213.613 159.872 213.664 159.856C213.839 159.799 214.012 159.645 214.421 159.373C214.756 159.149 215.372 158.784 215.704 158.586C216.035 158.388 216.069 158.376 216.081 158.399C216.162 158.553 215.662 158.956 215.015 159.426C214.687 159.665 214.403 159.724 214.151 159.827C213.655 160.03 212.976 160.34 212.62 160.575C212.282 160.798 211.889 161.06 211.587 161.294C211.094 161.675 210.849 162.214 210.717 162.369C210.578 162.532 210.312 162.604 210.078 162.768C209.697 163.037 209.341 163.38 208.937 163.721C208.296 164.263 207.866 164.694 207.684 164.842C207.257 165.189 207.18 165.391 207.06 165.563C206.95 165.72 206.906 165.871 206.815 166.014C206.701 166.192 206.563 166.351 206.415 166.54C206.197 166.816 206.061 166.911 205.918 167.037C205.696 167.232 205.489 167.482 205.409 167.648C205.335 167.801 205.249 167.951 205.175 168.1C205.158 168.134 205.146 168.168 205.152 168.129C205.173 167.976 205.237 167.77 205.322 167.548C205.439 167.245 205.602 166.8 205.751 166.338C205.898 165.879 205.946 165.622 205.991 165.461C206.034 165.312 206.105 165.13 206.282 164.526C206.39 164.158 206.505 163.92 206.568 163.821C207.044 163.079 206.312 165.116 206.266 165.294C206.22 165.472 206.175 165.631 206.1 165.797C206.037 165.94 205.946 166.077 205.787 166.22C205.75 166.253 205.695 166.226 205.661 166.204C205.531 166.118 205.501 165.919 205.449 165.559C205.393 165.168 205.477 164.619 205.506 164.29C205.521 164.111 205.603 163.862 205.677 163.628C205.76 163.366 205.774 163.176 205.849 162.936C205.905 162.754 205.923 162.458 205.952 162.165C205.988 161.794 205.992 161.634 206.026 161.439C206.081 161.123 206.083 160.799 206.1 160.622C206.127 160.343 206.174 159.841 206.203 159.48C206.232 159.121 206.277 158.436 206.306 158.108C206.323 157.918 206.357 157.691 206.374 157.36C206.389 157.073 206.426 156.8 206.443 156.287C206.45 156.08 206.494 155.818 206.551 155.188C206.592 154.739 206.631 154.026 206.648 153.624C206.669 153.156 206.643 152.916 206.688 152.653C206.744 152.33 207.236 152.446 207.402 152.372C207.442 152.354 207.488 152.343 207.534 152.354C207.786 152.416 207.763 152.97 207.842 153.267C207.949 153.666 208.059 154.078 208.174 154.319C208.288 154.56 208.242 154.878 208.294 155.238C208.372 155.781 208.346 156.215 208.277 156.637C208.168 157.31 208.048 157.793 208.043 157.907C208.026 158.242 207.9 158.603 207.843 159.242C207.79 159.834 207.831 160.706 207.848 160.929C207.865 161.149 208.025 161.346 208.094 161.484C208.134 161.563 208.208 161.621 208.276 161.655C208.317 161.676 208.39 161.622 208.442 161.588C208.533 161.527 208.766 161.088 209.109 160.392C209.344 159.913 209.498 159.498 209.743 159.093C209.993 158.681 210.208 158.468 210.321 158.309C210.751 157.709 210.802 157.44 211.013 156.899C211.135 156.586 211.134 156.151 211.122 155.66C211.107 154.992 211.02 154.721 210.894 154.412C210.869 154.35 210.826 154.32 210.786 154.297C210.746 154.274 210.7 154.263 210.654 154.263C210.608 154.262 210.563 154.274 210.517 154.285" stroke="white" stroke-width="4" stroke-linecap="round"/>
<path d="M192.357 176.303C192.48 176.204 192.998 175.416 193.778 174.203C194.547 173.007 194.861 172.112 195.096 171.754C195.611 170.969 195.729 169.76 195.866 168.95C195.967 168.353 196.127 167.97 196.189 167.388C196.326 166.104 196.326 165.416 196.289 164.907C196.249 164.367 196.152 163.436 196.078 162.834C195.987 162.096 196.052 160.9 196.065 159.922C196.072 159.408 195.954 158.916 195.917 158.222C195.895 157.819 195.805 157.477 195.768 156.499C195.76 156.285 195.731 156.212 195.718 156.235C195.494 156.652 195.978 157.3 196.065 157.93C196.322 159.788 195.905 160.398 195.842 161.194C195.77 162.107 195.829 163.502 195.867 163.923C195.883 164.1 195.929 164.811 195.917 165.816C195.903 166.946 195.805 168.339 195.706 168.637C195.599 168.957 195.557 169.503 195.421 169.914C195.303 170.272 195.21 170.571 195.049 170.869C194.893 171.158 194.764 171.464 194.677 171.811C194.543 172.343 194.491 172.655 194.354 172.953C194.208 173.272 193.921 173.548 193.709 173.846C193.661 173.914 193.647 173.994 193.672 173.909C193.883 173.167 194.216 172.585 194.428 172.211C194.589 171.926 194.762 171.419 194.899 171.02C195.013 170.688 195.234 170.425 195.407 170.065C195.588 169.69 196.198 168.892 196.573 168.057C196.852 167.437 196.945 166.755 197.107 166.32C197.263 165.899 197.416 165.244 197.677 164.56C198.171 163.262 198.656 162.315 199.077 161.486C199.675 160.309 200.293 159.117 200.603 158.398C200.937 157.622 201.187 156.758 201.508 156.077C201.627 155.825 201.878 155.546 201.93 155.395C201.983 155.243 201.86 155.243 201.748 155.231C200.825 155.13 199.379 155.217 198.994 155.317C198.831 155.359 198.536 155.392 198.164 155.355C197.703 155.309 197.37 154.872 197.108 154.55C196.966 154.375 197.44 154.004 198.143 153.351C198.617 152.91 199.264 152.181 199.643 151.753C200.021 151.325 200.095 151.202 201.078 150.046C202.062 148.89 203.953 146.704 205.111 145.431C206.583 143.812 207.066 143.486 207.079 143.534C207.112 143.656 206.92 143.975 206.476 144.692C206.032 145.409 205.271 146.514 204.842 147.157C204.322 147.936 204.092 148.344 203.672 148.987C202.617 150.6 202.306 151.345 202.007 151.929C201.642 152.641 201.585 153.207 201.498 153.604C201.403 154.044 201.04 154.348 200.779 154.708C200.562 155.008 200.296 155.34 200.159 155.787C199.992 156.331 199.849 157.073 199.651 157.956C199.476 158.733 199.154 159.384 199.153 159.423C199.152 159.52 199.349 159.044 200.002 158.119C200.655 157.193 201.809 155.646 202.441 154.788C203.157 153.814 203.394 153.459 203.74 153.038C204.063 152.646 204.337 152.367 204.842 151.8C206.834 149.562 207.24 149.389 207.339 149.364C207.373 149.355 207.34 149.486 206.947 150.101C206.553 150.717 205.792 151.846 205.339 152.502C204.776 153.315 204.488 153.727 203.884 154.713C203.441 155.438 202.667 156.584 202.238 157.277C201.488 158.487 201.041 159.306 200.717 159.843C200.476 160.243 200.247 160.872 200.097 161.22C199.925 161.618 199.947 162.086 199.873 162.546C199.78 163.126 199.774 163.651 199.786 163.738C199.805 163.876 200.145 163.529 200.417 163.233C200.761 162.857 201.701 161.8 202.928 160.523C203.458 159.971 203.888 159.562 204.753 158.919C206.602 157.544 207.165 157.426 207.289 157.389C207.338 157.374 207.364 157.474 206.885 158.04C206.407 158.606 205.424 159.662 204.648 160.623C203.872 161.585 203.332 162.42 202.955 163.022C202.088 164.409 201.858 164.816 201.61 165.201C201.406 165.518 201.14 166.128 200.941 166.738C200.595 167.796 200.025 168.51 199.219 169.403C198.342 170.375 197.965 171.265 197.58 171.601C197.432 171.73 197.196 171.911 197.107 172.072C196.941 172.377 198.083 171.543 198.887 170.937C200.508 169.714 201.482 169.285 201.992 168.974C202.3 168.764 203.165 168.024 204.465 166.799C205.077 166.188 205.593 165.599 206.124 164.917" stroke="white" stroke-width="4" stroke-linecap="round"/>
<path d="M194.18 161.401C194.853 160.672 195.526 159.943 195.956 159.427C196.387 158.911 196.555 158.631 194.679 160.561C192.803 162.492 188.878 166.642 186.659 169.06C183.186 172.845 182.4 173.973 181.973 174.345C181.868 174.437 182.223 173.759 184.414 170.92C186.604 168.081 190.754 162.866 193.172 159.899C196.827 155.414 198.251 154.44 198.937 153.839C199.063 153.729 198.037 154.316 195.589 156.397C193.66 158.037 190.506 161.057 187.766 163.85C185.025 166.643 182.838 169.167 181.627 170.523C180.417 171.879 180.248 171.991 180.638 171.348C181.028 170.705 181.982 169.303 183.23 167.627C184.478 165.952 185.992 164.045 187.585 162.25C190.704 158.735 192.705 157.04 193.353 156.59C193.798 156.28 194.394 155.691 192.665 157.477C190.936 159.263 186.842 163.413 184.284 166.111C181.727 168.81 180.83 169.932 180.199 170.818C178.717 173.181 178.039 174.421 176.85 176.461C176.62 176.863 176.564 177.032 176.336 177.375" stroke="white" stroke-linecap="round"/>
<path d="M188.912 167.009C189.473 166.672 191.332 165.602 193.374 164.382C193.865 164.089 193.174 164.341 191.229 165.466C189.284 166.592 186.087 168.555 184.16 169.791C180.256 172.294 179.057 174.144 178.999 174.175C178.314 174.532 180.073 172.846 182.852 170.15C185.404 167.673 190.509 163.192 193.025 161.048C195.541 158.904 195.373 159.297 192.847 161.602C190.321 163.907 185.442 168.113 182.844 170.336C180.247 172.559 180.078 172.671 180.104 172.448C180.198 171.631 181.65 170.078 183.433 168.324C185.204 166.582 186.186 165.092 187.745 163.53C189.41 161.862 191.685 159.929 192.109 159.703C192.312 159.595 192.477 159.477 190.489 161.298C188.501 163.119 184.351 166.876 182.465 168.671C180.58 170.467 181.085 170.186 181.569 169.958C183.292 169.145 184.657 168.484 186.241 167.187C187.013 166.555 187.984 165.221 189.206 163.968C193.154 159.921 193.894 159.535 194.32 158.854C194.515 158.543 194.576 158.174 194.521 157.919C194.491 157.781 194.129 157.832 192.751 159.262C191.372 160.692 188.905 163.552 187.185 165.334C183.632 169.015 181.836 169.102 180.308 169.809C178.686 170.56 178.209 172.158 177.783 173.038C177.223 174.194 176.68 175.383 176.027 176.606C175.168 178.216 174.753 179.92 173.989 180.742C173.332 181.448 172.601 181.735 171.921 182.075C171.759 182.156 171.582 182.133 171.551 182.049C171.46 181.8 172.533 181.175 173.639 180.495C174.669 179.861 169.881 181.509 169.71 181.454C169.305 181.323 171.283 179.484 173.348 177.389C175.122 175.591 176.275 174.717 177.154 174.036C178.615 172.903 180.123 171.944 182.105 170.78C183.831 169.768 186.405 168.547 188.726 167.132C190.739 165.905 192.188 164.752 193.158 163.923C193.326 163.779 193.497 163.613 193.191 163.947C192.108 165.13 190.674 166.55 189.038 168.185C187.991 169.231 186.618 170.829 185.279 172.17C181.353 176.104 180.418 176.862 179.851 177.57C179.086 178.525 178.039 178.846 176.625 179.553C175.539 180.095 174.586 180.994 173.986 181.312C173.636 181.498 174.804 180.605 176.379 179.621C177.637 178.836 179.749 177.348 181.127 176.456C182.505 175.565 183.066 175.285 184.701 174.215C186.336 173.145 189.027 171.294 191.031 170.005C195.754 166.964 196.838 166.275 197.632 165.821C198.114 165.545 198.596 165.311 198.683 165.14C199.22 164.081 196.171 167.168 192.356 170.703C188.601 174.181 188.181 175.444 186.738 176.717C185.325 177.964 183.651 179.237 182.463 180.537C181.477 181.616 180.816 182.752 180.22 183.319C179.714 183.802 183.562 180.733 187.033 178.739C188.052 178.154 188.626 177.718 189.277 177.32C189.71 177.054 190.1 176.809 190.13 176.696C190.286 176.12 186.502 177.142 182.369 178.161C180.367 178.731 179.064 179.297 177.677 179.948C177.132 180.206 176.907 180.318 176.336 180.604" stroke="white" stroke-width="4" stroke-linecap="round"/>
<path d="M206.241 132.475C206.395 132.599 206.55 132.723 206.676 132.802C206.801 132.881 206.894 132.912 207.083 133.037" stroke="white" stroke-width="4" stroke-linecap="round"/>
<path d="M207.738 133.505C206.742 133.754 206.055 133.88 205.385 133.957C204.623 134.046 203.936 134.067 203.325 134.144C202.349 134.269 201.719 134.067 201.265 133.989C200.816 133.912 200.006 133.88 198.914 133.802C196.045 133.598 195.757 133.91 195.585 133.911C195.213 133.912 195.32 133.164 195.272 130.893C195.254 130.009 195.132 129.388 195.085 128.935C195.04 128.502 194.913 128.077 194.82 127.703C194.727 127.327 194.664 126.831 194.477 125.554C194.232 123.883 194.539 122.5 194.617 121.54C194.658 121.024 194.85 120.403 195.1 119.342C195.204 118.9 195.288 118.56 195.303 118.264C195.401 116.39 195.32 113.471 195.195 113.72C194.872 114.365 194.851 114.842 194.804 115.653C194.759 116.435 194.664 117.37 194.648 118.865C194.635 120.052 194.788 121.614 194.835 122.098C194.864 122.395 194.913 123.294 194.898 124.463C194.891 124.986 194.82 126.625 194.804 129.011C194.793 130.815 194.664 132.629 194.555 133.252C194.41 134.075 194.631 134.69 194.849 134.815C195.389 135.124 196.065 134.941 196.782 134.878C198.468 134.731 199.776 134.784 201.286 134.956C201.951 135.031 203.005 134.941 204.612 134.724C206.219 134.508 208.35 134.106 209.526 133.868C210.862 133.598 211.385 133.505 211.901 133.474C212.007 133.468 211.517 133.225 210.91 133.085C210.466 132.982 209.401 132.944 206.916 132.835C205.298 132.764 202.949 132.88 201.616 132.896C199.626 132.921 198.942 132.788 197.881 132.725C197.788 132.72 198.281 132.476 199.49 132.166C200.416 131.928 201.996 131.609 202.885 131.433C204.321 131.151 205.083 131.165 207.134 130.731C209.264 130.28 210.762 129.667 210.967 129.682C211.596 129.73 209.149 129.884 207.224 130.118C205.952 130.272 204.063 130.32 202.984 130.337C201.275 130.364 200.472 130.073 199.193 130.057C198.223 130.044 197.067 130.104 197.004 129.996C196.602 129.305 198.965 129.481 200.501 129.093C201.552 128.828 203.119 128.304 204.472 127.941C206.888 127.293 208.143 127.139 208.484 127.109C209.017 127.06 209.422 126.921 209.532 126.828C209.581 126.786 209.487 126.673 209.347 126.61C209.011 126.458 207.872 126.515 205.712 126.67C204.444 126.761 202.84 127.01 201.395 127.122C198.72 127.328 197.286 127.202 196.991 127.155C196.85 127.133 196.726 127.139 196.616 127.124C196.506 127.109 196.413 127.078 196.473 126.984C196.675 126.673 198.178 126.145 200.482 125.397C202.496 124.744 203.835 124.613 204.426 124.457C205.317 124.222 206.018 124.176 207.39 123.755C207.673 123.669 207.798 123.676 207.846 123.629C207.895 123.583 207.864 123.49 207.74 123.396C206.82 122.699 204.997 123.176 204.215 123.239C202.893 123.345 200.729 123.582 199.69 123.504C198.844 123.441 197.849 123.208 197.334 123.13C197.134 123.1 196.823 123.114 196.787 123.068C196.752 123.021 196.999 122.929 198.038 122.634C199.076 122.339 200.899 121.845 202.039 121.513C203.59 121.061 204.797 120.435 206.184 119.656C206.776 119.324 207.107 119.063 207.329 118.92C207.63 118.725 206.225 119.209 203.452 120.05C201.271 120.712 199.94 120.774 199.395 120.758C198.64 120.737 198.036 120.338 197.691 120.104C197.621 120.057 197.69 119.933 197.798 119.839C198.062 119.611 198.716 119.402 200.113 118.967C201.071 118.669 202.56 118.286 203.493 118.001C205.45 117.406 206.269 116.812 206.692 116.624C207.088 116.448 207.176 116 207.254 115.86C207.58 115.278 205.587 115.999 204.746 116.124C203.614 116.291 202.593 116.84 201.812 117.122C201.309 117.303 200.813 117.372 199.521 117.435C198.646 117.477 198.378 117.622 198.299 117.591C197.75 117.379 199.092 116.688 200.493 115.769C201.809 114.905 202.897 114.629 203.85 114.082C204.535 113.689 205.115 113.287 205.863 112.741C206.606 112.198 207.236 111.944 207.658 111.772C208.169 111.565 205.873 112.438 203.643 113.033C202.521 113.333 201.135 113.47 199.707 113.721C199.224 113.806 198.723 113.908 198.192 114.018C197.737 114.112 197.348 114.095 197.161 114.158C196.975 114.221 196.817 113.941 196.724 113.754C196.639 113.585 196.692 113.317 196.754 113.037C196.951 112.144 198.748 111.821 199.544 111.336C199.851 111.149 200.123 110.945 201.145 110.45C202.005 110.032 203.587 109.336 204.445 108.955C205.396 108.542 205.677 108.418 205.989 108.231C206.115 108.137 206.177 108.044 206.334 107.855" stroke="white" stroke-width="4" stroke-linecap="round"/>
<path d="M183.176 119.861C183.15 119.759 183.124 119.656 183.111 120.514C183.098 121.372 183.098 123.194 183.111 124.184C183.125 125.277 183.176 126.305 183.163 127.756C183.155 128.648 183.047 129.318 183.033 130.16C183.027 130.512 183.098 131.593 183.111 133.044C183.176 133.882 183.201 134.167 183.24 134.451C183.253 134.657 183.253 134.991 183.253 135.334" stroke="white" stroke-width="4" stroke-linecap="round"/>
<path d="M185.119 134.557C186.3 134.326 187.48 134.095 188.884 133.86C190.287 133.626 191.878 133.395 192.774 133.276C194.571 133.038 195.951 132.846 196.185 132.846C196.494 132.846 194.794 132.924 193.023 133.014C192.007 133.066 190.184 133.104 188.938 133.079C186.298 133.027 185.796 132.537 185.432 132.315C185.357 132.27 185.277 132.251 186.828 131.75C188.379 131.249 191.561 130.274 193.123 129.72C194.685 129.167 194.531 129.064 194.349 128.973C193.972 128.783 192.826 128.623 191.234 128.467C190.567 128.402 190.181 128.414 189.521 128.465C187.935 128.589 186.601 128.725 185.953 128.7C185.149 128.668 184.654 128.026 184.627 127.858C184.58 127.562 185.273 127.508 186.2 127.186C186.906 126.941 188.051 126.428 189.21 126.01C190.369 125.592 191.498 125.259 192.157 125.049C193.264 124.695 193.798 124.243 194.357 123.841C194.478 123.754 194.577 123.673 194.63 123.595C194.683 123.516 194.683 123.439 194.581 123.349C193.97 122.807 192.977 122.765 191.476 122.892C190.361 122.988 189.656 123.437 189.193 123.656C187.71 124.357 187.093 124.345 186.327 124.345C185.747 124.346 185.354 124.035 185.158 123.815C184.671 123.267 186.826 123.077 187.948 122.317C188.712 121.8 189.763 120.864 190.395 120.312C191.662 119.205 192.375 118.619 192.557 118.114C192.782 117.49 192.377 117.09 192.106 116.701C191.972 116.509 191.704 116.492 191.471 116.453C191.191 116.406 190.516 116.594 189.584 116.904C188.151 117.381 187.248 118.508 186.858 119.018C186.247 119.813 185.432 119.86 185.275 120.184C185.106 120.535 185.119 121.076 184.939 121.519C184.525 122.114 184.187 122.814 184.071 123.382C184.031 123.719 184.031 124.155 184.109 124.76" stroke="white" stroke-width="4" stroke-linecap="round"/>
<path d="M175.84 126.44C175.798 126.701 175.714 128.164 175.818 129.001C175.889 129.567 175.965 129.987 176.069 130.552C176.183 131.168 176.216 131.642 176.341 132.038C176.393 132.201 176.467 132.354 176.426 132.512C176.38 132.685 176.092 132.801 175.842 132.867C175.723 132.898 175.591 132.855 175.527 132.646C175.186 131.535 175.589 131.043 175.797 130.282C176.111 129.138 175.965 128.651 176.069 128.163C176.173 127.679 176.299 127.257 176.363 126.809C176.404 126.52 176.467 126.257 176.571 126.073C176.953 125.396 179.599 125.835 180.545 125.77C181.885 125.676 183.201 125.179 183.498 125.099C185.658 124.513 180.201 126.697 179.357 127.306C179.219 127.405 179.107 127.515 178.98 127.608C178.854 127.701 178.73 127.779 178.811 127.637C179.392 126.618 179.855 126.075 180.046 125.573C180.218 125.118 179.649 126.438 179.481 127.015C179.428 127.199 179.398 127.408 179.376 128.283C179.355 129.158 179.355 130.694 179.417 131.485C179.479 132.276 179.604 132.276 179.833 132.25C181.092 132.108 182.238 131.726 182.849 131.606C183.39 131.499 181.492 131.855 180.468 131.96C179.437 132.066 177.854 132.249 177.098 132.342C176.769 132.382 176.469 132.381 176.218 132.473C175.581 132.705 175.631 133.325 175.484 133.708C175.45 133.798 175.463 133.904 175.339 133.958C175.215 134.011 174.966 134.011 174.838 133.972C174.144 133.761 174.167 132.778 174.061 132.435C173.924 131.993 174.039 131.41 174.186 131.094C174.328 130.789 174.416 130.412 174.479 129.99C174.539 129.592 174.667 129.124 174.731 128.244C174.751 128.045 174.793 127.914 174.814 127.535C174.835 127.156 174.835 126.531 174.835 125.887" stroke="white" stroke-width="4" stroke-linecap="round"/>
<path d="M181.679 123.256C181.444 123.021 181.158 122.9 180.733 122.971C180.092 123.077 179.003 123.798 177.815 124.558C177.265 124.91 177.119 125.085 177.047 125.121C176.696 125.297 177.899 124.422 178.564 124.019C179.479 123.463 180.417 122.854 181.022 122.558C181.526 122.31 182.081 122.117 182.437 122.069C182.537 122.055 182.465 122.209 181.911 122.751C181.357 123.294 180.322 124.258 179.413 125.273C178.504 126.287 177.751 127.322 177.246 128.125C176.429 129.425 176.263 130.356 176.286 130.914C176.296 131.143 176.357 131.26 176.428 131.356C176.754 131.795 177.496 131.856 178.113 131.857C178.754 131.857 179.253 131.548 179.931 131.536C180.614 131.523 181.297 132.164 181.678 132.437C181.855 132.564 182.059 132.663 182.213 132.829C182.369 132.996 182.321 133.304 182.286 133.565C182.211 134.113 180.88 134.68 179.841 135.004C179.435 135.13 179.044 135.134 178.569 135.147C178.353 135.152 177.812 135.017 176.723 134.91C175.265 134.767 174.269 134.897 173.949 134.921C173.559 134.95 172.447 134.897 171.011 134.944C170.302 134.968 169.193 135.016 167.685 135.004C166.616 134.996 166.097 134.873 165.681 134.803C164.733 134.641 163.578 134.778 162.335 134.826C161.755 134.848 161.44 135.063 161.143 135.158C160.741 135.287 160.3 135.277 159.99 135.254C159.254 135.2 161.507 134.139 162.97 133.466C164.137 132.929 166.22 132.111 167.321 131.64C168.422 131.168 168.493 131.098 169.164 130.697C169.836 130.296 171.106 129.567 171.878 129.132C172.878 128.569 173.221 128.436 173.411 128.4C173.597 128.365 172.827 129.305 171.238 130.907C169.487 132.672 169.042 132.687 168.864 132.841C168.71 132.925 169.578 132.737 171.215 132.417C171.911 132.308 172.335 132.308 172.842 132.379" stroke="white" stroke-width="4" stroke-linecap="round"/>
</svg>
