<svg width="427" height="287" viewBox="0 0 427 287" fill="none" xmlns="http://www.w3.org/2000/svg">
<path d="M323.026 66.168H112.107C97.173 66.168 85.0664 80.1591 85.0664 97.418V159.918C85.0664 177.177 97.173 191.168 112.107 191.168H323.026C337.96 191.168 350.066 177.177 350.066 159.918V97.418C350.066 80.1591 337.96 66.168 323.026 66.168Z" stroke="white" stroke-width="10" stroke-linecap="round" stroke-linejoin="round"/>
<rect x="100" y="79" width="47" height="100" rx="20" fill="#00FF1E"/>
<path d="M351 99C358.732 99 365 105.268 365 113V147C365 154.732 358.732 161 351 161V99Z" fill="white"/>
<path d="M237.954 110.49L235.498 113.034L239.034 113.031L293.127 112.995L136.9 211.363L213.422 135.958L216.031 133.387L212.368 133.389L158.049 133.43L300.653 45.5234L237.954 110.49Z" fill="black" stroke="white" stroke-width="3"/>
<path d="M191.5 178.5H171.5" stroke="white"/>
<path d="M244.5 105C245.284 96.1834 244.076 91.8359 238 85.5" stroke="white"/>
<path d="M244.5 113V145" stroke="white"/>
<path d="M247.582 128.111C247.327 127.969 247.167 127.854 247.117 127.761C246.983 127.512 247.095 127.026 247.224 126.432C247.282 125.994 247.296 125.751 247.324 125.665C247.339 125.622 247.353 125.579 247.367 125.535" stroke="white" stroke-width="2" stroke-linecap="round"/>
<path d="M248.226 116.521C248.17 116.564 247.97 116.508 247.755 116.436C247.544 116.365 247.411 116.35 247.333 116.328C247.154 116.28 247.139 116.007 247.046 115.899C246.873 115.699 247.124 116.562 247.196 116.821C247.21 116.864 247.224 116.907 247.232 116.985C247.239 117.064 247.239 117.177 247.239 117.294" stroke="white" stroke-width="5" stroke-linecap="round"/>
<path d="M248.526 120.084C248.866 120.027 249.206 119.971 250.961 119.552C252.715 119.133 255.874 118.354 257.771 117.932C259.667 117.509 260.205 117.467 260.582 117.452C260.958 117.437 261.156 117.451 261.485 117.522C261.814 117.593 262.267 117.721 262.685 117.864C263.48 118.138 263.907 118.338 264.064 118.388C264.553 118.544 264.865 118.582 265.286 118.617C265.993 118.677 266.253 118.582 266.361 118.575C266.384 118.573 266.341 118.553 265.802 118.525C265.263 118.496 264.229 118.454 262.775 118.503C261.322 118.552 259.481 118.693 258.489 118.759C257.498 118.825 257.413 118.811 257.348 118.797C257.283 118.782 257.241 118.768 257.283 118.74C257.325 118.711 257.452 118.668 258.828 118.597C260.204 118.526 262.824 118.426 264.514 118.425C266.204 118.423 266.884 118.523 267.277 118.595C267.76 118.684 267.899 118.768 267.963 118.803C267.984 118.814 267.929 118.853 267.865 118.889C267.8 118.925 267.715 118.967 264.966 119.903C262.217 120.838 256.806 122.666 253.678 123.77C250.551 124.874 249.871 125.2 249.492 125.389C249.114 125.578 249.057 125.62 249.07 125.642C249.084 125.664 249.169 125.664 250.905 125.069C252.642 124.474 256.027 123.285 258.125 122.495C260.223 121.705 260.931 121.35 261.431 121.111C262.193 120.746 262.59 120.614 262.783 120.571C262.862 120.553 262.905 120.556 262.899 120.599C262.892 120.641 262.836 120.726 261.737 121.634C260.638 122.542 258.499 124.27 257.355 125.224C256.097 126.273 256.01 126.536 255.967 126.708C255.939 126.82 255.966 126.909 256.009 126.994C256.032 127.041 256.08 127.08 256.159 127.102C256.345 127.154 256.538 127.095 257.332 126.635C258.062 126.212 259.43 125.366 260.598 124.73C261.766 124.095 262.687 123.684 263.268 123.458C264.044 123.156 264.365 123.175 264.408 123.238C264.451 123.301 264.197 123.43 262.537 124.395C260.877 125.36 257.733 127.159 256.084 128.107C254.436 129.055 254.38 129.097 255.625 128.56C256.871 128.022 259.421 126.903 261.152 126.227C262.883 125.552 263.719 125.354 264.22 125.251C264.722 125.149 264.863 125.149 264.887 125.199C265.183 125.827 263.594 126.179 263.308 126.421C263.077 126.617 262.722 127.035 262.266 127.606C261.592 128.449 261.348 128.639 261.168 128.854C260.938 129.13 260.718 129.284 260.525 129.412C260.193 129.634 259.817 129.884 259.559 130.056C259.433 130.14 259.245 130.313 258.86 130.549C257.878 131.149 257.471 131.343 257.177 131.523C256.728 131.796 256.141 132.272 255.767 132.546C255.373 132.835 255.095 133.161 254.909 133.354C254.68 133.592 254.437 133.804 254.129 134.055C253.89 134.249 253.564 134.435 253.363 134.563C253.081 134.744 252.82 135.006 252.598 135.143C252.366 135.285 252.09 135.422 251.889 135.579C251.635 135.779 251.389 136.137 251.096 136.451C250.878 136.686 250.659 136.952 250.145 137.466C249.933 137.679 249.729 137.783 249.557 137.89C249.472 137.926 249.385 137.969 249.3 138.026C249.257 138.055 249.214 138.083 249.127 138.112" stroke="white" stroke-width="5" stroke-linecap="round"/>
<path d="M262.047 130.515C262.061 130.43 262.488 129.945 263.224 129.274C263.555 128.971 264.054 128.436 264.374 128.124C265.062 127.45 265.552 127.025 265.852 126.746C266.271 126.356 266.439 126.18 266.682 125.994C266.834 125.877 266.954 125.765 267.26 125.552C267.969 125.057 268.471 124.634 268.642 124.521C268.879 124.363 269.185 124.064 269.493 123.763C269.664 123.596 270.184 123.093 270.935 122.336C271.522 121.743 271.862 121.687 272.055 121.587C272.107 121.56 272.162 121.53 272.737 121.338C273.311 121.146 274.402 120.792 274.992 120.596C275.642 120.379 275.896 120.285 276.26 120.171C276.962 119.951 277.513 119.37 277.728 119.183C277.962 118.98 278.271 118.783 278.786 118.525C279.067 118.384 279.287 118.353 279.524 118.267C279.813 118.162 280.117 118.025 280.461 117.888C280.78 117.762 280.976 117.667 281.155 117.559C281.353 117.44 281.577 117.437 281.756 117.337C281.963 117.222 282.135 117.165 282.392 117.087C282.69 116.996 283.007 116.922 283.208 116.858C283.395 116.798 283.58 116.623 283.773 116.479C283.964 116.337 284.152 116.25 284.331 116.164C284.58 116.044 284.796 115.907 285.004 115.835C285.182 115.773 285.354 115.72 285.526 115.656C285.709 115.587 285.869 115.506 286.084 115.363C286.306 115.215 286.499 115.091 286.614 115.012C286.706 114.949 286.315 115.019 286.143 115.033C285.913 115.052 285.232 115.119 284.345 115.148C283.667 115.169 283.154 115.219 282.817 115.241C282.652 115.251 282.126 115.277 281.397 115.284C280.79 115.29 280.478 115.348 280.198 115.37C279.943 115.389 279.323 115.533 278.397 115.584C278.145 115.598 277.902 115.62 277.609 115.627C277.358 115.633 276.704 115.663 275.846 115.656C275.441 115.652 275.212 115.62 274.969 115.627C274.81 115.632 274.512 115.705 273.552 115.763C272.834 115.806 271.643 115.763 271.009 115.749C270.175 115.73 269.86 115.677 268.905 115.67C268.559 115.667 267.947 115.706 267.147 115.72C266.593 115.73 266.313 115.82 265.477 115.828C264.867 115.833 264.296 115.82 263.745 115.842C263.494 115.852 262.84 115.878 261.953 115.856C261.204 115.838 260.904 115.592 260.568 115.47C260.465 115.433 260.333 115.448 260.289 115.477C260.244 115.505 260.287 115.562 260.401 115.626C260.515 115.691 260.699 115.762 260.992 115.834C261.285 115.905 261.682 115.976 263.274 116.098C264.867 116.219 267.643 116.389 269.413 116.548C271.183 116.706 271.863 116.848 272.731 116.942C273.598 117.036 274.632 117.079 275.207 117.115C275.869 117.156 275.997 117.208 276.047 117.251C276.08 117.279 276.027 117.378 275.991 117.436C275.93 117.535 275.586 117.679 275.001 117.929C274.701 118.057 274.387 118.165 273.504 118.407C272.621 118.65 271.176 119.018 270.064 119.378C268.951 119.737 268.215 120.077 267.679 120.344C266.821 120.773 266.455 121.028 266.291 121.128C265.766 121.448 265.07 121.656 264.603 122.05C264.231 122.364 264.137 122.915 263.908 123.359C263.866 123.442 263.808 123.432 263.765 123.39C263.656 123.282 263.48 122.976 263.031 122.513C262.757 122.229 262.313 121.922 262.017 121.676C261.551 121.29 261.191 120.817 260.727 120.062C260.454 119.617 260.193 118.995 259.976 118.582C259.43 117.542 258.858 117.209 258.579 117.073C258.33 116.951 258.185 116.709 257.963 116.13C257.917 116.01 257.927 115.964 257.905 115.942C257.858 115.894 257.67 115.949 257.413 115.999C257.159 116.048 256.43 116.049 255.359 116.021C254.14 115.989 253.78 115.778 253.499 115.742C253.248 115.709 252.991 115.677 252.57 115.656C252.433 115.635 252.333 115.606 252.084 115.584C251.892 115.577 251.566 115.577 251.23 115.577" stroke="white" stroke-width="5" stroke-linecap="round"/>
<path d="M247.067 117.036C247.067 117.522 247.096 117.722 247.117 117.93C247.139 118.139 247.21 118.395 247.275 118.581C247.336 118.758 247.353 119.024 247.41 119.232C247.471 119.453 247.582 119.824 247.668 120.155C247.741 120.434 247.739 120.87 247.79 121.106C247.806 121.183 247.797 121.298 247.797 121.151C247.797 120.071 247.726 119.785 247.704 119.662C247.67 119.47 247.64 120.083 247.618 120.255C247.596 120.433 247.511 120.598 247.454 120.77C247.425 120.856 247.397 120.956 247.375 121.063C247.365 121.113 247.368 121.156 247.403 121.065C247.648 120.432 247.625 120.114 247.604 119.978C247.58 119.826 247.283 120.098 247.111 120.205C247.07 120.231 247.025 120.241 246.989 120.291C246.827 120.515 246.967 120.812 247.06 121.071C247.136 121.282 247.181 121.457 247.232 121.806C247.363 122.721 247.282 123.242 247.246 123.738C247.217 124.146 247.139 124.574 247.103 124.969C247.078 125.238 247.024 125.434 246.982 125.699C246.896 126.228 246.967 127.065 246.967 127.7C246.968 128.342 246.867 128.711 246.846 128.926C246.812 129.254 246.781 129.769 246.774 130.213C246.77 130.434 246.853 130.77 246.81 131.029C246.778 131.221 246.724 131.444 246.688 131.644C246.666 131.771 246.667 131.902 246.638 132.03C246.604 132.186 246.595 132.912 246.588 133.899C246.582 134.789 246.581 135.793 246.602 136.001C246.609 136.051 246.623 136.094 246.631 136.151C246.638 136.209 246.638 136.279 246.638 136.352" stroke="white" stroke-width="5" stroke-linecap="round"/>
<path d="M249.9 122.445C249.886 122.899 249.886 123.874 249.907 124.403C249.926 124.863 249.972 125.176 250.15 125.926C250.291 126.521 250.315 126.779 250.337 127.058C250.356 127.31 250.401 127.737 250.422 128.053C250.451 128.468 250.487 128.754 250.487 129.011C250.488 129.735 250.202 130.212 249.937 130.627C249.639 131.096 249.558 131.343 249.464 131.594C249.251 132.166 249.329 133.174 249.335 133.376C249.338 133.496 249.797 132.979 250.262 132.521C250.441 132.344 250.514 132.29 251.138 131.694C251.763 131.098 252.938 129.965 253.629 129.325C254.652 128.376 254.879 128.369 255.022 128.276C255.086 128.234 255.108 128.169 255.108 128.105C255.111 127.715 254.453 127.24 253.88 126.875C253.21 126.446 252.608 126.609 252.098 126.644C251.99 126.652 251.891 126.652 251.861 126.659C251.831 126.666 251.874 126.68 251.918 126.694" stroke="white" stroke-width="5" stroke-linecap="round"/>
<path d="M248.32 138.949C248.298 138.949 248.236 138.954 248.199 138.959C248.134 138.967 248.103 138.966 248.083 138.956C248.055 138.942 248.037 138.941 248.016 138.934C247.988 138.924 247.942 138.9 247.919 138.887C247.902 138.877 247.887 138.863 247.871 138.851C247.854 138.837 247.827 138.818 247.804 138.804C247.784 138.792 247.77 138.783 247.743 138.776C247.701 138.766 247.681 138.759 247.663 138.754C247.645 138.748 247.624 138.741 247.604 138.736C247.576 138.73 247.563 138.714 247.547 138.7C247.529 138.684 247.494 138.668 247.472 138.655C247.45 138.642 247.435 138.628 247.42 138.62C247.409 138.615 247.427 138.648 247.43 138.67C247.437 138.71 247.426 138.789 247.429 138.831C247.431 138.854 247.434 138.883 247.437 138.916C247.445 139.005 247.441 139.036 247.445 139.066C247.447 139.092 247.449 139.183 247.446 139.239C247.444 139.267 247.436 139.295 247.424 139.325C247.408 139.365 247.388 139.396 247.382 139.413C247.364 139.467 247.341 139.536 247.336 139.555C247.331 139.57 247.308 139.619 247.29 139.658C247.278 139.684 247.267 139.708 247.256 139.738C247.236 139.792 247.214 139.833 247.201 139.859C247.171 139.928 247.165 139.949 247.154 139.98C247.152 139.989 247.152 139.999 247.152 140.008" stroke="white" stroke-width="5" stroke-linecap="round"/>
<path d="M247.234 140.496C247.227 140.495 247.206 140.495 247.184 140.505C247.164 140.512 247.147 140.518 247.134 140.525C247.126 140.53 247.116 140.536 247.098 140.543" stroke="white" stroke-width="5" stroke-linecap="round"/>
<path d="M290.689 53.04C290.713 53.04 290.736 53.04 290.725 53.0753C290.636 53.3486 290.263 53.4908 290.036 53.7404C289.821 53.9774 289.621 54.204 289.335 54.3944C289.049 54.5848 288.718 54.7746 288.349 54.9532C288.047 55.0994 287.766 55.3451 287.469 55.6183C287.121 55.9375 286.886 56.2238 286.696 56.5929C286.534 56.907 286.222 57.1752 285.959 57.4609C285.64 57.8084 285.27 58.0083 284.984 58.1744C284.688 58.3471 284.414 58.5546 284.105 58.7803C283.663 59.103 283.44 59.5046 283.071 59.8145C282.767 60.0695 282.489 60.3133 282.191 60.4806C281.797 60.7021 281.255 61.1678 280.729 61.5854C280.417 61.8334 280.135 62.025 279.849 62.1805C279.564 62.3358 279.279 62.4301 278.994 62.5371C278.678 62.6552 278.376 62.8581 278.066 62.9533C277.771 63.0441 277.308 63.3088 276.925 63.5235C276.776 63.6072 276.663 63.7375 276.58 63.8797C276.54 63.949 276.52 64.022 276.591 64.0466C277.11 64.2286 277.659 63.7867 277.993 63.7264C278.137 63.7004 278.279 63.6433 278.362 63.6547C278.704 63.7015 277.853 64.236 277.567 64.3915C277.271 64.5525 276.997 64.8066 276.723 65.033C276.435 65.2709 276.259 65.6624 275.998 65.8771C275.711 66.1129 275.287 66.5882 274.928 66.8873C274.637 67.1306 274.311 67.3741 273.741 67.8013C272.892 68.4379 272.693 68.8718 272.444 69.1575C272.204 69.4318 271.886 69.8218 271.506 70.1674C270.826 70.7844 269.895 71.6947 269.07 72.6023C267.886 73.9052 267.393 74.268 266.941 74.6606C266.414 75.1185 265.919 75.8114 265.55 76.3366C265.265 76.7413 264.825 77.3348 264.563 77.6447C264.258 78.0048 263.827 78.2391 263.529 78.4413C263.22 78.6509 263.018 79.0707 262.78 79.3917C262.447 79.8398 262.328 80.1405 262.102 80.4854C261.905 80.7868 261.71 81.1148 261.389 81.6023C261.314 81.7165 261.235 81.7809 261.246 81.782C261.371 81.7945 261.989 80.9336 262.927 79.7344C263.825 78.5861 264.228 78.3604 264.632 78.0747C265.03 77.793 265.369 77.3148 265.796 76.9814C266.249 76.6285 266.557 76.3634 266.95 76.0778C267.338 75.7952 267.58 75.7443 267.652 75.673C267.889 75.4376 266.751 76.0039 265.591 76.6786C265.023 77.009 264.222 77.6572 263.55 78.2431C262.879 78.829 262.385 79.3703 262.001 79.8963C261.289 80.8702 260.903 81.7082 260.57 82.1949C260.191 82.7511 259.927 83.0647 259.642 83.4331C259.265 83.9201 258.953 84.2301 258.277 85.0702C257.589 85.9264 256.792 86.8426 256.044 87.4481C255.359 88.0027 255.007 88.3653 254.318 89.2557C253.871 89.8336 253.532 90.3865 253.14 90.7556C252.87 91.01 252.558 91.2666 252.307 91.5522C252.035 91.8625 251.796 92.1938 251.547 92.5386C251.336 92.8303 251.154 93.1209 251.094 93.4066C251.033 93.6977 250.916 93.9768 250.798 94.2742C250.642 94.6635 250.37 94.904 250.156 95.2014C249.885 95.5777 249.61 95.7841 249.289 96.14C248.865 96.6103 248.73 96.901 248.575 97.1984C248.365 97.6014 247.969 97.7097 247.814 97.9711C247.648 98.2503 247.517 98.5413 247.279 98.827C247.224 98.8933 247.208 98.9693 247.172 98.9586C247.044 98.9202 247.041 98.5214 247.064 98.2001C247.071 98.1112 247.135 98.1847 247.159 98.2682C247.256 98.6004 246.994 98.8979 246.91 99.0894C246.777 99.394 247.016 98.4258 247.052 97.9975C247.087 97.5906 247.159 97.1178 247.243 96.7615C247.406 96.0644 247.444 95.5259 247.516 95.1917C247.578 94.904 247.35 94.6215 247.184 94.3359C246.995 94.0109 246.733 93.6944 246.519 93.397C246.455 93.3079 246.353 93.2194 246.328 93.2415C245.969 93.5592 247.014 94.5431 247.325 95.1062C247.372 95.1906 247.42 95.2606 247.409 95.3087C247.385 95.4146 247.208 95.4753 247.101 95.5469C246.815 95.7393 246.78 94.9068 246.744 94.5028C246.715 94.1832 246.566 93.9083 246.459 93.6227C246.337 93.2989 246.209 92.887 246.173 92.5529C246.141 92.2571 245.995 91.9827 245.9 91.697C245.805 91.4114 245.663 91.1268 245.236 90.6636C244.973 90.3788 244.831 90.057 244.676 89.7714C244.515 89.4756 244.355 89.2012 244.2 88.9155C244.051 88.6391 243.88 88.3453 243.572 87.9538C242.869 87.0602 242.549 86.8946 242.287 86.5979C241.859 86.1336 241.622 85.8491 241.348 85.6226C241.288 85.5631 241.241 85.4925 241.192 85.3484" stroke="white" stroke-width="5" stroke-linecap="round"/>
<path d="M242.69 84.0647C243.185 83.8992 244.187 83.661 244.685 83.4356C245.541 83.0488 246.634 82.3786 247.229 82.0687C247.683 81.832 248.061 81.6412 248.715 81.3555C249.242 81.1251 249.701 80.7625 250.047 80.5821C250.205 80.4997 250.463 80.4758 250.712 80.3214C250.88 80.2175 251.952 79.672 253.521 78.793C254.668 78.15 255.477 77.506 255.895 77.2186C256.343 76.911 257.47 76.153 258.705 75.2747C259.519 74.6959 260.277 73.9649 261.145 73.3351C261.871 72.8075 262.563 72.3224 262.814 72.0125C263.094 71.6657 263.679 71.0643 264.157 70.6456C264.543 70.3069 264.87 70.0159 265.392 69.6946C265.706 69.5016 266.011 69.3497 266.368 69.0883C266.736 68.8179 267.056 68.5652 267.449 68.3156C267.984 68.0189 268.531 67.638 268.933 67.3424C269.171 67.1409 269.477 66.835 269.792 66.5197" stroke="white" stroke-width="5" stroke-linecap="round"/>
<path d="M272.502 64.808C272.62 64.7374 272.737 64.6668 272.833 64.6069C272.929 64.547 273 64.4999 273.144 64.3801" stroke="white" stroke-width="5" stroke-linecap="round"/>
<path d="M246.542 86.5609C246.589 86.5138 246.895 86.2307 247.664 85.6501C249.451 84.3021 249.986 84.3043 250.439 84.0179C250.745 83.8239 251.105 83.6852 251.39 83.554C251.54 83.4853 251.723 83.3051 252.195 82.9973C253.071 82.4272 254.169 81.9992 254.881 81.536C255.506 81.1298 256.283 80.7867 257.13 80.2155C257.71 79.8244 258.375 79.1007 259.411 78.5152C260.369 77.9736 260.876 77.9082 261.161 77.7296C261.303 77.67 261.659 77.5045 262.122 77.267C262.303 77.1708 262.373 77.1237 262.446 77.0752" stroke="white" stroke-width="5" stroke-linecap="round"/>
<path d="M263.516 76.5046L263.801 76.4333" stroke="white" stroke-width="5" stroke-linecap="round"/>
<path d="M247.184 91.5533C247.513 91.2238 247.843 90.8943 248.354 90.2656C248.865 89.6369 249.547 88.719 249.969 88.1167C250.869 86.8337 251.318 86.1829 252.121 85.4144C252.697 84.8639 253.678 84.0575 254.634 83.3272C255.59 82.5968 256.508 81.9849 257.028 81.6344C257.548 81.2838 257.642 81.2132 257.739 81.0692" stroke="white" stroke-width="5" stroke-linecap="round"/>
<path d="M180.11 181.609C179.95 181.564 179.356 181.358 178.688 181.236C178.411 181.186 178.251 181.161 177.782 181.075C177.215 180.972 177.045 181.092 176.907 181.121C176.748 181.154 176.563 181.196 176.312 181.224C175.558 181.31 175.301 181.173 175.025 181.201C174.609 181.244 174.313 181.242 174.141 181.224C173.809 181.191 173.395 181.173 172.673 181.156C172.453 181.15 172.338 181.127 172.263 181.144C172.213 181.155 172.303 181.264 172.292 181.333C172.248 181.6 171.776 181.745 171.409 182.198C171.139 182.532 171.006 182.78 170.869 183.007C170.751 183.205 170.506 183.554 170.258 183.849C170.01 184.144 169.76 184.371 169.403 184.727C169.047 185.083 168.593 185.56 168.33 185.829C167.919 186.249 167.643 186.407 167.327 186.591C167.138 186.701 167.034 186.844 166.994 186.913C166.974 186.946 166.965 186.981 167.01 186.976C167.165 186.958 167.445 186.844 168.164 186.651C168.705 186.505 169.587 186.207 170.078 186.055C170.634 185.883 170.832 185.834 171.198 185.663C172.225 185.182 172.348 185.019 172.555 184.927C172.705 184.86 172.899 184.824 173.255 184.624C173.5 184.485 173.703 184.41 173.858 184.353C174.123 184.255 174.687 183.942 175.012 183.75C175.139 183.676 175.253 183.561 175.419 183.458C175.573 183.378 175.735 183.286 175.924 183.171C176.044 183.102 176.215 183.011 176.459 182.883" stroke="white" stroke-width="5" stroke-linecap="round"/>
<path d="M182.59 181.127C182.499 181.184 182.247 181.298 182.074 181.368C181.817 181.471 181.385 181.38 180.961 181.362C180.833 181.357 180.754 181.333 180.702 181.322C180.586 181.297 180.982 181.185 181.183 181.133C181.378 181.082 181.522 181.07 181.774 181.052C181.993 181.037 182.245 181.001 182.388 180.949C182.56 180.887 182.693 180.829 182.831 180.805C182.983 180.78 183.106 180.713 183.25 180.685C183.414 180.652 183.565 180.645 183.646 180.662C183.874 180.71 183.279 180.84 183.142 180.863C182.989 180.888 182.866 180.977 182.728 181.023C182.59 181.069 182.453 181.115 182.315 181.161C182.177 181.207 182.04 181.253 181.896 181.299C181.721 181.355 181.557 181.413 181.414 181.477C181.247 181.55 181.087 181.643 180.84 181.775C180.62 181.893 180.455 181.976 179.946 182.199C179.769 182.277 179.563 182.354 179.157 182.486C178.75 182.617 178.148 182.799 177.633 183.007C176.685 183.388 176.23 183.698 176.116 183.755C175.893 183.867 175.544 184.076 175.072 184.272C174.625 184.457 174.428 184.639 173.908 184.954C173.36 185.285 172.89 185.466 172.695 185.603C172.591 185.672 172.478 185.741 172.379 185.799C172.281 185.856 172.202 185.902 172.12 185.949" stroke="white" stroke-width="5" stroke-linecap="round"/>
<path d="M167.091 191.184C167.159 191.116 167.558 190.739 168.166 190.2C168.49 189.913 168.675 189.887 168.744 189.835C168.78 189.808 168.812 189.772 168.767 189.732C168.392 189.395 167.952 189.29 167.901 189.153C167.804 188.894 168.054 188.443 168.57 187.656C168.715 187.435 168.756 187.327 168.739 187.264C168.71 187.158 168.163 187.291 167.355 187.531C166.951 187.651 166.582 187.839 165.991 188.251C165.4 188.663 164.604 189.311 164.03 189.809C163.455 190.308 163.125 190.638 162.774 190.944C162.422 191.25 162.058 191.523 161.712 191.754C160.718 192.418 160.582 192.412 160.547 192.412C160.451 192.413 160.718 192.104 161.112 191.641C161.39 191.315 161.881 190.849 162.303 190.489C162.725 190.13 163.077 189.903 163.446 189.706C164.174 189.318 164.679 189.129 164.868 189.032C165.017 188.955 165.139 188.922 165.196 188.905C165.209 188.901 165.186 188.944 164.543 189.405C163.901 189.866 162.639 190.753 161.972 191.226C161.266 191.728 161.145 191.837 160.984 191.952C160.728 192.136 160.365 192.365 159.953 192.622C159.291 193.036 158.815 193.456 158.625 193.622C158.453 193.774 158.286 193.881 157.708 194.482C157.362 194.841 157.127 194.972 156.623 195.447C156.387 195.669 156.174 195.822 156.036 195.902C155.892 195.985 155.76 196.108 155.622 196.183C155.46 196.272 155.29 196.453 155.14 196.556C154.946 196.691 154.75 196.935 154.584 197.141C154.255 197.55 153.901 197.726 153.694 197.905C153.445 198.12 153.132 198.381 152.616 198.885C152.305 199.189 152.178 199.335 151.897 199.467C151.727 199.546 151.593 199.645 151.455 199.719C151.326 199.789 151.146 200 150.944 200.133C150.762 200.253 150.491 200.334 150.353 200.414C150.209 200.497 150.1 200.62 149.974 200.73C149.905 200.792 149.847 200.862 149.796 200.93C149.767 200.965 149.733 200.999 149.629 201.103" stroke="white" stroke-width="5" stroke-linecap="round"/>
<path d="M232 113L231 152" stroke="white"/>
<path d="M241.033 124.256C241.013 124.256 240.993 124.256 240.953 125.089C240.912 125.922 240.852 127.588 240.831 128.577C240.805 129.826 240.911 130.296 241.052 130.641C241.115 130.793 241.234 130.864 241.326 130.906C241.487 130.978 241.782 130.847 242.306 130.484C243.151 129.9 243.628 129.245 243.86 128.932C244.182 128.499 244.459 127.768 244.682 126.908C244.789 126.496 244.784 126.109 244.744 125.501C244.704 124.893 244.604 124.07 244.492 123.415C244.3 122.291 244.035 121.602 243.853 121.247C243.781 121.108 243.711 121.073 243.62 121.093C242.9 121.246 242.616 122.791 242.404 123.832C242.165 125 242.209 125.715 242.25 125.837C242.27 125.898 242.29 125.958 242.361 125.889C242.597 125.657 242.897 124.81 243.331 123.506C243.564 122.81 243.746 122.021 243.89 120.925C244.033 119.829 244.114 118.444 244.135 117.671C244.156 116.897 244.116 116.776 244.045 116.815C243.974 116.853 243.874 117.054 243.662 118.01C243.449 118.967 243.128 120.673 242.963 121.653C242.797 122.632 242.797 122.833 242.898 122.635C242.998 122.437 243.199 121.835 243.362 121.234C243.526 120.632 243.647 120.05 243.719 119.459C243.953 117.539 243.589 116.959 243.406 116.653C243.369 116.59 243.325 116.532 243.465 116.451C243.894 116.202 244.317 116.126 244.439 116.025C244.582 115.906 244.622 115.6 244.582 115.256C244.553 115.003 244.319 114.909 244.177 114.838C243.578 114.538 242.616 114.807 242.019 114.848C241.432 114.888 240.996 114.989 240.457 115.02C240.262 115.031 239.66 115.071 238.819 115.081C237.913 115.092 236.98 115.051 236.514 114.96C235.498 114.759 235.155 114.808 234.8 114.716C234.121 114.54 233.857 114.605 233.553 114.534C233.473 114.515 233.391 114.523 233.339 114.553C233.288 114.584 233.268 114.644 233.268 114.715C233.266 115.016 233.409 115.252 233.44 115.849C233.469 116.408 233.531 117.138 233.561 117.997C233.587 118.698 233.572 119.51 233.531 119.724C233.303 120.926 233.43 117.077 233.41 117.34C233.364 117.939 233.247 118.334 233.136 118.77C233.031 119.183 232.964 119.59 232.933 120.602C232.918 121.115 232.842 121.396 232.832 121.841C232.824 122.17 232.963 122.651 233.064 123.099C233.227 123.81 233.085 124.923 233.075 125.996C233.07 126.51 233.186 126.951 233.237 127.436C233.373 128.749 233.146 129.121 233.116 129.425C233.099 129.589 233.065 130.292 233.085 131.335C233.097 131.96 233.186 132.645 233.176 133.416C233.167 134.13 233.106 134.738 233.075 135.622C233.047 136.426 233.065 137.952 233.055 138.768C233.041 139.848 232.964 140.333 232.933 141.022C232.902 141.711 232.842 142.726 232.771 143.121C232.607 144.03 232.862 144.429 232.922 145.255C233.039 146.84 232.963 147.918 233.004 148.039C233.102 148.333 233.105 148.708 233.116 149.305C233.122 149.645 233.025 149.924 232.943 150.108C232.835 150.354 232.963 149.44 233.014 148.995C233.026 148.892 233.044 148.832 233.075 148.761C233.14 148.607 233.829 148.246 234.872 147.8C235.405 147.572 235.86 147.413 236.477 147.1C237.578 146.54 237.909 146.277 238.375 146.023C239.301 145.519 240.361 145.406 240.748 145.212C241.231 144.97 242.063 144.575 242.522 144.37C242.737 144.275 242.979 144.127 243.482 143.725C245.339 142.24 245.615 141.958 245.656 141.856C245.735 141.663 245.111 141.835 244.596 142.057C243.752 142.42 243.123 142.868 242.529 143.252C242.102 143.526 241.392 143.916 240.85 144.183C239.526 144.834 238.988 144.876 238.561 145.099C238.287 145.243 237.993 145.343 237.649 145.485C237.156 145.688 236.858 145.849 236.301 146.133C235.822 146.377 235.499 146.316 235.195 146.407C234.833 146.516 234.506 146.963 234.211 147.228C234.15 147.283 234.06 147.289 234.099 147.26C234.28 147.121 234.524 147.006 234.967 146.664C235.342 146.374 236.051 145.881 237.016 145.261C237.98 144.641 239.184 143.918 239.995 143.395C240.806 142.873 241.188 142.571 241.716 142.256C242.874 141.563 243.689 141.208 243.921 141.056C244.45 140.71 245.025 140.599 245.402 140.397C245.474 140.357 245.533 140.335 245.494 140.335C244.912 140.331 244.199 140.72 243.077 141.204C242.017 141.661 241.379 142.099 241.177 142.169C240.53 142.395 240.021 142.646 239.515 142.818C239 142.993 238.643 143.172 238.006 143.446C236.69 144.01 236.392 144.227 236.067 144.4C235.606 144.644 235.116 145.076 234.658 145.635C234.384 145.97 234.06 146.052 233.735 146.114C233.69 146.122 233.713 146.034 234.316 145.451C234.918 144.868 236.103 143.764 236.883 143.075C237.664 142.385 238.005 142.144 238.382 141.91C239.147 141.433 239.654 141.167 240.046 140.905C241.563 139.893 242.086 139.708 242.381 139.565C242.724 139.399 243.16 139.221 243.466 139.048C243.58 138.983 243.709 138.956 243.841 138.916C243.99 138.87 243.633 138.995 242.282 139.6C241.349 140.017 240.007 140.846 239.263 141.28C238.434 141.763 238.176 141.936 237.832 142.138C237.518 142.323 237.062 142.604 236.475 142.878C235.474 143.344 234.367 143.962 233.978 144.147C233.92 144.174 233.857 144.187 233.796 144.187C233.735 144.188 233.674 144.168 233.703 144.087C233.733 144.006 233.853 143.866 234.808 143.231C235.764 142.597 237.55 141.473 238.812 140.623C240.073 139.773 240.756 139.231 241.65 138.63C242.543 138.03 243.627 137.388 244.256 137.027C245.215 136.476 245.412 136.402 245.403 136.431C245.378 136.513 245.133 136.602 244.177 137.065C243.22 137.529 241.514 138.332 240.193 139.036C238.873 139.741 237.989 140.323 237.354 140.713C236.375 141.314 235.663 141.571 235.117 141.733C234.534 141.906 233.84 142.158 233.421 142.342C233.254 142.415 233.126 142.565 233.045 142.686C233.009 142.74 233.044 142.807 233.095 142.839C233.38 143.014 233.854 142.547 235.181 141.44C236.333 140.481 238.436 138.688 239.753 137.617C241.069 136.546 241.531 136.245 242.02 135.98C242.989 135.453 243.688 135.166 243.73 135.094C244.013 134.618 242.476 135.669 241.819 136.164C241.099 136.707 240.589 137.231 240.175 137.494C239.762 137.756 239.111 137.941 238.172 138.184C236.986 138.49 235.947 138.691 235.33 138.974C234.154 139.514 233.492 140.698 233.379 141.094C233.354 141.183 233.369 141.266 233.399 141.328C233.429 141.389 233.489 141.429 234.404 140.567C235.318 139.704 237.084 137.938 238.085 136.957C239.248 135.818 239.552 135.632 239.885 135.46C240.114 135.342 240.479 135.188 241.106 134.955C242.609 134.397 243.588 134.07 243.739 133.979C244.125 133.748 244.317 133.664 244.308 133.644C244.28 133.581 244.038 133.664 243.212 133.975C242.386 134.287 240.941 134.889 239.996 135.33C239.05 135.77 238.649 136.031 238.332 136.266C238.014 136.501 237.794 136.702 237.349 137.056C236.254 137.928 235.438 138.549 235.226 138.772C234.911 139.101 234.425 139.138 233.908 139.129C233.829 139.127 233.875 139.039 234.207 138.656C234.539 138.274 235.161 137.571 235.943 136.768C236.725 135.964 237.649 135.081 238.596 134.285C239.544 133.489 240.487 132.806 241.114 132.394C242.479 131.497 243.342 131.294 243.648 131.069C243.766 130.983 243.892 130.907 243.943 130.876C244.04 130.818 242.867 131.53 241.418 132.391C240.42 132.984 239.661 133.739 239.128 134.271C238.852 134.548 238.541 134.576 238.398 134.597C238.369 134.601 238.457 134.497 239.1 134.215C239.744 133.933 240.948 133.451 241.769 133.162C242.974 132.739 243.546 132.711 243.689 132.721C243.83 132.731 243.325 132.772 242.993 132.802C242.316 132.863 241.363 133.075 240.301 133.368C239.192 133.674 238.48 134.109 238.146 134.342C237.634 134.699 237.384 134.86 237.243 134.881C237.162 134.892 237.061 134.861 236.999 134.79C236.938 134.72 236.918 134.599 236.937 134.457C236.981 134.147 237.421 133.587 238.52 132.457C239.253 131.703 240.442 130.684 241.142 130.016C242.078 129.123 242.35 128.718 242.573 128.455C243.173 127.746 243.303 126.936 243.325 125.721C243.344 124.649 242.799 123.713 242.495 123.154C242.407 122.992 242.19 123.886 242.108 125.429C242.056 126.43 242.108 127.876 242.168 128.842C242.229 129.807 242.329 130.249 242.431 130.366C242.533 130.483 242.633 130.262 242.725 129.787C242.817 129.312 242.897 128.589 242.979 127.183C243.06 125.777 243.14 123.71 243.212 122.514C243.299 121.054 243.506 120.548 243.568 119.922C243.606 119.537 243.348 119.015 243.205 118.254C242.879 116.524 242.838 115.416 242.788 115.335C242.732 115.245 242.575 115.818 242.313 117.338C242.107 118.531 241.93 120.605 241.786 122.533C241.642 124.462 241.582 126.188 241.511 127.057C241.44 127.926 241.359 127.886 241.278 127.735C241.068 127.345 240.973 126.572 240.882 125.752C240.844 125.414 240.851 125.233 240.66 123.875C240.469 122.517 240.088 119.988 239.892 118.595C239.695 117.202 239.695 117.021 239.695 116.978C239.695 116.935 239.695 117.036 239.514 119.988C239.334 122.94 238.972 128.741 238.796 131.891C238.62 135.04 238.64 135.361 238.711 135.426C238.883 135.585 239.207 134.501 239.551 133.107C239.749 132.304 239.854 131.272 239.816 129.711C239.778 128.15 239.558 126.082 239.454 124.846C239.322 123.273 239.451 122.556 239.583 122.039C239.625 121.873 239.734 121.943 239.785 122.687C239.837 123.431 239.857 124.856 240.068 126.774C240.279 128.693 240.681 131.061 240.938 132.402C241.195 133.743 241.295 133.984 241.387 134.168C241.479 134.352 241.559 134.473 241.66 134.324C241.762 134.175 241.883 133.754 241.935 133.125C241.987 132.496 241.966 131.673 241.745 129.212C241.524 126.751 241.103 122.676 240.875 120.546C240.648 118.417 240.628 118.357 240.618 118.366C240.55 118.425 240.628 118.659 240.768 120.206C240.898 121.632 241.11 124.363 241.284 126.01C241.458 127.658 241.578 128.139 241.65 128.327C241.723 128.515 241.743 128.395 241.632 126.376C241.522 124.356 241.282 120.442 241.188 118.546C241.094 116.65 241.154 116.891 241.215 117.286C241.483 119.019 241.621 119.612 241.622 119.694C241.623 119.919 241.117 118.968 240.662 117.968C240.088 116.707 239.858 115.762 239.716 115.448C239.588 115.165 239.453 114.849 239.23 114.586C238.978 114.287 238.561 114.362 238.267 114.462C238.152 114.501 238.055 114.683 237.973 114.866C237.891 115.048 237.851 115.269 237.91 116.587C237.97 117.905 238.131 120.314 238.133 122.79C238.135 125.265 237.975 127.734 237.922 129.237C237.87 130.74 237.93 131.201 237.991 131.55C238.226 132.889 239.066 133.927 239.077 134.332C239.09 134.84 238.642 135.547 238.439 136.126C238.399 136.239 238.378 136.299 238.337 136.32C238.297 136.341 238.236 136.321 238.175 136.27C238.038 136.157 237.932 135.856 237.84 134.869C237.768 134.086 237.809 132.718 237.769 131.754C237.729 130.79 237.649 130.268 237.668 128.203C237.687 126.137 237.807 122.544 237.909 120.392C238.011 118.24 238.092 117.638 238.133 117.287C238.215 116.595 238.235 115.584 238.185 114.86C238.171 114.667 238.154 114.504 238.104 114.352C238.079 114.278 238.033 114.22 237.962 114.23C237.892 114.239 237.791 114.319 237.348 114.782C236.905 115.245 236.122 116.088 235.679 116.592C235.13 117.217 234.992 117.643 234.86 118.119C234.758 118.487 234.768 119.001 234.939 120.451C235.07 121.566 235.45 123.427 235.636 124.55C235.822 125.672 235.842 125.993 235.782 126.721C235.722 127.448 235.582 128.572 235.469 129.322C235.357 130.072 235.277 130.413 235.235 131.02C235.194 131.628 235.194 132.491 235.234 133.217C235.274 133.942 235.354 134.504 235.396 135.015C235.519 136.537 235.236 137.148 235.013 137.726C234.929 137.941 234.91 138.002 234.9 137.591C234.89 137.181 234.89 136.298 234.97 135.542C235.116 134.17 235.376 133.362 235.396 132.887C235.408 132.613 235.457 132.272 235.537 131.815C235.618 131.358 235.739 130.796 235.801 129.794C235.863 128.792 235.863 127.367 235.903 125.639C235.943 123.911 236.023 121.924 236.175 120.318C236.327 118.712 236.548 117.548 236.652 116.898C236.771 116.152 236.674 115.984 236.593 115.852C236.503 115.706 236.411 115.538 236.26 115.416C236.181 115.354 236.048 115.375 235.936 115.415C235.424 115.598 234.813 116.585 234.353 117.128C234.111 117.414 233.958 118.228 233.896 119.482C233.831 120.821 234.22 121.679 234.321 122.003C234.42 122.317 234.403 122.994 234.393 123.824C234.387 124.295 234.302 124.599 234.191 125.113C233.999 126.005 233.836 126.788 233.684 127.183C233.569 127.484 233.41 127.862 233.259 128.469C233.07 129.223 233.165 130.212 233.347 131.123C233.459 131.68 233.672 132.502 233.874 133.535C234.091 134.639 234.402 135.931 234.524 136.41C234.548 136.501 234.565 136.582 234.605 136.614C234.685 136.676 235.19 135.721 235.848 134.322C236.144 133.695 236.207 133.262 236.258 131.832C236.298 130.704 236.249 128.756 236.248 127.552C236.248 125.947 236.269 125.393 236.118 124.718C235.998 124.182 235.746 123.261 235.582 122.875C235.418 122.49 235.337 122.671 235.246 123.075C235.154 123.479 235.054 124.101 234.992 125.034C234.93 125.967 234.91 127.192 234.98 128.696C235.05 130.2 235.211 131.946 235.304 132.886C235.396 133.826 235.416 133.906 235.447 133.987C235.477 134.069 235.517 134.149 235.568 134.09C235.619 134.031 235.679 133.83 235.77 133.195C235.862 132.56 235.982 131.496 236.024 130.466C236.066 129.436 236.026 128.473 235.965 127.886C235.885 127.11 235.661 126.832 235.489 126.67C235.337 126.527 235.073 126.588 234.831 126.648C234.306 126.779 233.94 127.598 233.714 127.986C233.485 128.38 233.268 128.635 233.227 128.766C233.133 129.07 233.59 129.384 233.774 129.709C234.042 130.185 234.179 130.459 234.352 130.713C234.385 130.763 234.463 130.724 235.497 129.118C236.532 127.512 238.539 124.32 239.895 122.315C241.25 120.309 241.892 119.587 242.384 119.094C243.157 118.319 243.567 118.052 243.628 117.881C243.719 117.624 243.629 117.383 243.558 117.231C243.321 116.722 242.317 116.431 241.795 116.187C241.307 115.959 241.217 115.639 240.963 115.568C240.817 115.527 240.348 115.698 239.619 116.001C238.942 116.283 238.34 116.671 237.642 116.914C236.366 117.359 235.946 117.099 235.368 116.897C234.981 116.761 234.689 116.612 234.374 116.511C233.941 116.372 233.674 116.247 233.269 116.247C233.077 116.246 232.944 116.408 232.842 116.53C232.795 116.586 232.781 116.651 232.781 116.732C232.779 117.295 233.388 117.868 233.49 118.121C233.617 118.437 233.592 118.78 233.622 119.347C233.636 119.592 233.673 119.915 233.723 120.55C233.804 121.575 233.977 122.328 233.987 122.622C233.998 122.936 234.038 123.261 234.048 123.574C234.058 123.869 234.099 124.153 234.189 125.751C234.272 127.209 234.46 129.979 234.533 131.627C234.626 133.714 234.485 134.271 234.434 134.484C234.323 134.948 234.645 135.948 234.948 137.364C235.215 138.605 235.194 139.36 235.184 139.633C235.153 140.473 235.093 141.53 235.002 141.894C234.815 142.641 234.667 143.293 234.475 143.901C234.296 144.469 234.1 145.075 233.937 145.645C233.896 146.214 233.856 146.477 233.846 146.72C233.835 146.823 233.815 146.883 233.795 146.945" stroke="white" stroke-width="2" stroke-linecap="round"/>
<path d="M230.753 90.6786C230.934 90.5374 231.339 90.2941 232.697 89.8212C233.886 89.4068 236.122 88.726 237.32 88.354C238.776 87.9019 239.105 87.8403 239.541 87.6481C239.833 87.5194 239.998 87.2527 240.252 86.9793C240.305 86.9221 240.263 86.8476 240.202 86.8065C239.852 86.5692 239.191 86.603 238.683 86.5526C238.117 86.4963 237.751 86.6432 237.425 86.7244C236.931 86.8476 236.19 86.906 235.632 87.2804C234.832 87.8169 234.647 88.1031 234.404 88.2448C234.15 88.392 233.998 88.6092 233.846 88.8428C233.672 89.1097 233.269 89.2783 232.944 89.5219C232.644 89.7467 232.457 90.0082 232.274 90.3023C232.091 90.5962 231.929 90.9207 231.899 91.4167C231.854 92.134 231.888 93.2322 231.969 93.5968C232.063 94.0202 232.131 94.3879 232.273 94.692C232.415 94.9969 232.496 95.2395 232.577 95.4831C232.679 95.787 232.8 96.1921 232.942 96.5975C233.116 97.0952 233.125 97.7104 233.176 98.2298C233.198 98.4613 233.206 98.6465 233.237 99.2396C233.315 100.774 233.227 101.89 233.196 102.183C233.097 103.143 233.287 103.391 233.318 103.786C233.33 103.94 233.369 104.381 233.359 104.989C233.343 105.922 233.268 107.303 233.186 107.689C233.114 108.031 233.165 108.439 233.136 108.894C233.08 109.736 233.186 110.222 233.126 110.619C233.085 110.883 232.963 111.116 232.923 111.501C232.863 112.063 232.659 112.534 232.588 112.869C232.485 113.357 232.517 113.75 232.637 113.995C233.08 114.895 233.712 112.883 234.036 112.507C234.371 112.12 234.645 111.747 234.888 111.453C235.185 111.095 235.415 110.734 235.922 110.186C236.381 109.689 236.956 109.09 237.321 108.847C237.834 108.505 238.192 107.835 238.679 107.448C239.201 107.034 239.651 106.679 240.209 106.273C240.722 105.9 241.173 105.441 241.607 105.128C242.454 104.518 242.754 104.204 243.16 103.829C243.661 103.367 244.155 102.846 244.771 102.198C245.086 101.868 245.31 101.528 245.393 101.304C245.575 100.806 244.198 101.95 242.873 102.881C242.051 103.459 241.135 104.12 240.791 104.465C240.23 105.027 239.657 105.661 239.159 106.107C238.726 106.496 238.237 107.058 237.821 107.647C237.144 108.604 236.371 109.068 236.026 109.291C235.591 109.573 235.175 109.919 234.88 110.163C234.576 110.415 234.283 110.81 233.978 111.046C233.873 111.126 233.734 111.157 233.653 111.178C233.262 111.277 233.633 110.206 233.551 109.962C233.511 109.841 233.53 109.678 233.621 109.516C233.796 109.205 234.721 108.748 235.724 108.05C236.178 107.734 236.465 107.413 236.821 106.996C237.604 106.08 238.132 105.38 238.375 105.127C238.857 104.626 239.45 104.041 240.289 103.243C240.817 102.741 241.314 102.482 241.802 102.136C242.269 101.804 242.816 101.386 243.16 101.092C243.512 100.791 244.793 99.8722 245.574 99.2563C245.698 99.1583 245.757 99.0127 245.788 98.9114C245.8 98.8711 245.718 98.8503 245.627 98.86C245.193 98.9063 244.686 99.1934 243.25 99.961C242.12 100.565 241.44 101.181 241.127 101.433C240.443 101.984 240.203 102.315 239.888 102.641C239.545 102.995 238.967 103.633 238.631 104.069C238.273 104.536 237.651 105.01 237.252 105.368C236.626 105.931 235.803 106.656 235.125 107.131C234.626 107.48 234.364 107.709 234.069 107.853C233.184 108.285 234.18 106.314 234.199 105.897C234.214 105.585 234.726 105.622 235.219 105.381C236.407 104.8 237.22 104.244 237.743 103.781C238.192 103.385 238.989 102.636 239.563 102.133C240.138 101.63 240.459 101.389 240.815 101.064C241.58 100.367 242.246 99.6636 242.783 99.208C243.415 98.6713 243.729 98.4658 244.113 98.0914C244.726 97.4936 244.965 97.2091 245.239 96.8439C245.477 96.5275 245.776 96.377 245.91 96.2851C246.083 96.1659 245.334 96.335 244.437 96.8378C243.718 97.2411 242.557 98.1033 241.716 98.6979C240.407 99.6239 239.838 100.106 239.656 100.308C239.329 100.671 238.844 101.119 238.298 101.626C238.011 101.892 237.709 102.113 237.345 102.326C236.498 102.82 236.148 103.107 235.843 103.269C235.507 103.449 235.135 103.634 234.809 103.847C234.369 104.135 233.918 104.465 233.613 104.719C233.552 104.77 233.491 104.81 233.46 104.58C233.363 103.854 233.49 103.271 233.631 103.149C234.112 102.737 235.41 102.341 236.255 101.953C236.691 101.754 237.138 101.446 238.044 100.802C238.735 100.312 239.794 99.3552 240.373 98.8494C241.187 98.1376 241.559 97.6155 241.843 97.2697C242.255 96.7682 242.613 96.4378 243.573 95.6498C244.391 94.979 244.681 94.3307 244.885 94.015C244.997 93.8409 245.149 93.7206 245.129 93.6695C245.108 93.6132 244.909 93.7589 244.144 94.3122C243.379 94.8654 242.014 95.8891 241.22 96.5169C240.217 97.3103 239.819 97.7529 239.374 98.1173C238.753 98.6251 238.358 98.7882 237.508 99.1021C236.933 99.3145 236.19 99.8211 235.55 100.399C235.234 100.685 234.911 100.796 234.465 101.069C234.345 101.143 234.223 101.201 234.14 101.192C233.99 101.175 233.977 100.437 234.057 99.5151C234.087 99.1671 234.298 99.0948 234.411 99.0434C234.768 98.8809 235.353 98.8101 235.699 98.6477C235.879 98.5633 236.446 98.2043 237.326 97.5671C238.132 96.984 238.518 96.5795 238.629 96.4482C238.777 96.2735 239.406 95.7322 240.347 94.8517C241.123 94.1252 241.56 93.7814 241.791 93.5396C242.288 93.0204 242.856 92.6263 243.31 92.3635C244.373 91.7491 245.063 91.3112 245.463 90.8118C245.528 90.7297 245.554 90.6396 245.524 90.5682C245.495 90.4967 245.394 90.4365 245.282 90.4155C244.849 90.3342 244.362 90.6372 243.108 91.3233C241.877 91.9968 241.176 92.6652 240.984 92.7562C240.618 92.9291 240.305 93.4134 239.859 93.8298C239.222 94.4229 238.824 94.9153 238.641 95.0874C238.581 95.1445 238.659 95.1993 238.751 95.2C238.966 95.2014 239.287 95.0789 239.782 94.9478C240.472 94.765 241.111 94.5114 241.878 94.2997C244.037 93.7035 244.317 93.5174 244.328 93.5171C244.553 93.5109 243.852 93.6391 243.64 93.5886C243.404 93.5324 243.203 93.3964 243.031 93.1342C242.512 92.3422 242.675 91.4541 242.635 90.7038C242.622 90.4525 242.515 90.4754 242.393 90.566C242.09 90.7918 241.885 91.063 241.613 91.3754C241.062 92.0085 240.588 92.442 240.265 92.7841C239.57 93.5223 238.947 94.3258 238.471 94.731C238.13 95.0214 237.509 95.3393 236.81 95.8152C236.148 96.2663 235.642 96.7383 235.074 97.2161C234.914 97.3505 234.809 97.4908 234.657 97.5519C234.523 97.6059 234.504 96.4469 234.524 94.8864C234.537 93.9132 234.119 93.6604 233.977 93.4067C233.818 93.1213 233.794 91.7054 233.734 90.8519C233.729 90.7781 233.693 90.7005 233.653 90.7093C233.508 90.7409 233.45 91.2029 233.389 91.9398C233.301 93.0146 233.389 93.8198 233.449 94.2036C233.654 95.5034 234.139 96.658 234.26 97.054C234.311 97.2198 234.301 97.3691 234.362 97.4905C234.394 97.5561 234.462 97.6118 234.503 97.5525C234.852 97.0491 234.625 96.2176 234.656 95.6078C234.67 95.3234 234.847 94.5175 235.08 93.2227C235.414 91.3681 235.315 90.9851 235.406 90.6691C235.422 90.612 235.536 90.6579 235.598 90.7084C235.726 90.8135 235.841 91.2631 236.094 92.4426C236.272 93.2756 236.446 94.6057 236.58 95.3785C236.796 96.6303 236.897 96.9026 236.907 97.0543C236.911 97.1263 236.937 97.186 236.947 97.0564C236.957 96.9269 236.957 96.6057 236.877 96.0287C236.797 95.4518 236.636 94.6288 236.503 94.0342C236.293 93.0929 236.147 92.5661 236.116 92.192C236.041 91.2724 236.268 90.4973 236.369 90.2938C236.389 90.253 236.47 90.2929 236.521 90.3835C236.652 90.6164 236.774 91.6232 237.016 93.0509C237.294 94.686 237.929 95.2395 238.123 95.4932C238.236 95.6426 238.336 95.7876 238.427 95.7885C238.505 95.7893 238.538 95.5485 238.589 94.9335C238.64 94.3185 238.68 93.2747 238.681 92.4961C238.682 91.2351 238.52 90.358 238.388 89.7299C238.315 89.3832 238.276 89.2193 238.245 89.1883C237.678 88.6101 238.882 91.3647 239.065 91.8626C239.353 92.6434 239.471 92.9682 239.593 93.3131C239.629 93.4161 239.694 93.5351 239.755 93.5871C239.816 93.6391 239.876 93.619 239.987 93.3678C240.099 93.1166 240.259 92.6348 240.352 91.8547C240.445 91.0746 240.465 90.0107 240.455 89.4325C240.445 88.8543 240.405 88.7941 240.354 88.733C240.249 88.6065 240.101 88.5295 239.889 88.4991C239.58 88.4547 239.21 88.5289 238.705 88.68C237.081 89.1666 236.471 89.7254 236.45 89.7458C235.771 90.4055 238.861 89.8063 239.358 89.837C239.551 89.8671 239.734 89.9079 240.017 89.9383C240.199 89.9486 240.46 89.9486 240.85 90.0095" stroke="white" stroke-width="2" stroke-linecap="round"/>
<path d="M220.5 93.5C224.446 119.217 225 128.5 220.5 160" stroke="white"/>
<path d="M232.28 98.9287C231.642 96.5392 231.321 94.4054 231.083 93.6822C230.785 92.7788 229.355 95.617 228.42 98.7561C227.703 101.164 229.448 103.602 231.023 105.769C231.293 106.14 231.478 106.278 231.585 106.175C231.946 105.83 231.748 103.371 231.589 100.203C231.505 98.5452 230.686 95.967 229.941 92.5585C229.67 91.3126 229.617 91.0489 229.59 91.0713C229.563 91.0937 229.563 91.4101 229.563 91.7362" stroke="white" stroke-width="2" stroke-linecap="round"/>
<path d="M230.515 96.0289C230.671 95.8238 231.128 95.3429 231.798 94.6368C232.401 94.0022 232.656 93.5616 232.686 93.4347C232.699 93.381 232.633 93.3438 232.59 93.3253C232.516 93.2932 232.367 93.3188 232.138 93.3549C231.881 93.3954 231.341 93.5358 230.701 93.6748C230.173 93.7893 229.729 94.0204 229.361 94.141C228.836 94.3132 228.532 94.3347 228.024 94.4858C227.834 94.5426 227.672 94.5408 227.545 94.5109C227.448 94.488 227.754 94.0958 228.159 93.6786C228.351 93.4801 228.757 93.3442 229.343 93.1689C229.698 93.0628 229.861 93.0527 229.897 93.0467C230.046 93.0224 229.368 93.0041 229.07 93.0946C228.881 93.1522 228.605 93.2698 228.201 93.4146C227.679 93.6019 227.129 93.7173 226.665 93.9102C225.817 94.2621 225.592 94.4922 225.193 94.6551C225.109 94.6897 225.071 94.686 225.041 94.704C224.906 94.7833 224.877 94.9756 224.666 95.1872C224.35 95.504 223.778 95.7131 223.553 95.8411C223.48 95.8827 223.389 95.8957 223.293 95.9378C223.179 95.9874 223.123 96.1131 223.087 96.2216C222.998 96.4859 223.243 96.8136 223.412 97.2011C223.521 97.4478 223.473 97.9729 223.516 98.4111C223.523 98.4861 223.558 98.5442 223.72 99.0481C223.882 99.5521 224.181 100.498 224.419 101.698C224.657 102.898 224.825 104.324 224.923 105.094C225.031 105.938 225.118 106.297 225.191 106.769C225.219 106.952 225.216 107.025 225.198 107.05C225.18 107.075 225.144 107.051 225.101 106.985C225.059 106.918 225.011 106.811 224.908 106.468C224.806 106.125 224.65 105.55 224.552 105.116C224.393 104.412 224.381 103.943 224.375 103.653C224.37 103.42 224.321 103.18 224.272 102.98C224.215 102.746 224.199 102.455 224.163 102.164C224.138 101.96 224.043 101.537 223.91 101.041C223.779 100.555 223.848 100.204 223.873 99.7473C223.893 99.3633 223.897 98.6683 223.921 98.3344C223.945 98.0005 223.981 98.0484 224.071 98.1988C224.529 98.9608 224.875 99.2701 225.172 99.3619C225.373 99.4241 225.65 99.2962 225.909 99.1574C226.118 99.0458 226.435 98.7532 226.84 98.3667C227.012 98.2024 227.089 98.0759 227.258 97.8705C227.427 97.6651 227.679 97.3776 228.054 96.8882C228.429 96.3988 228.92 95.7161 229.143 95.3823C229.366 95.0486 229.306 95.0845 228.886 95.654C228.466 96.2235 227.687 97.3254 227.155 98.1685C226.622 99.0116 226.358 99.5626 226.21 99.8943C226.063 100.226 226.039 100.322 226.038 100.395C226.038 100.469 226.062 100.516 226.122 100.517C226.285 100.519 226.629 100.157 227.106 99.6201C227.341 99.3551 227.523 99.0712 227.711 98.7616C227.9 98.452 228.079 98.1166 228.25 97.7342C228.602 96.9438 228.748 96.4409 228.766 96.3741C228.769 96.3651 228.773 96.4151 228.683 97.3081C228.593 98.2012 228.413 99.9379 228.321 100.862C228.222 101.846 228.216 101.981 228.234 102.071C228.241 102.106 228.336 102.055 228.57 101.791C228.805 101.527 229.2 101.035 229.667 100.387C230.134 99.739 230.661 98.9485 230.478 99.3018C230.294 99.6551 229.384 101.176 228.765 102.331C228.146 103.486 227.847 104.229 227.693 104.635C227.539 105.042 227.539 105.09 227.568 105.114C227.598 105.139 227.658 105.139 227.737 105.091C227.816 105.043 227.912 104.947 228.242 104.539C228.573 104.13 229.136 103.411 229.57 102.903C230.261 102.094 230.635 101.812 230.744 101.752C230.805 101.718 230.876 101.668 230.931 101.715C230.986 101.762 231.022 101.906 231.023 102.028C231.023 102.15 230.987 102.246 230.633 102.954C230.279 103.662 229.609 104.979 229.257 105.718C228.894 106.576 228.893 106.783 228.93 106.94C228.954 107.014 228.99 107.073 229.027 107.135" stroke="white" stroke-width="4" stroke-linecap="round"/>
<path d="M225.397 127.751C225.385 127.655 225.361 127.365 225.403 127.003C225.424 126.823 225.445 126.511 225.529 125.967C225.613 125.423 225.757 124.657 225.861 124.022C225.965 123.388 226.025 122.909 226.056 122.602C226.125 121.91 226.159 121.473 226.25 120.972C226.283 120.786 226.304 120.386 226.353 119.734C226.401 119.085 226.281 118.474 226.166 117.997C226.087 117.669 226.002 117.504 225.942 117.324C225.824 116.97 225.676 116.562 225.597 116.247C225.567 116.125 225.555 116.077 225.506 116.262C225.458 116.447 225.375 116.866 225.325 117.285C225.276 117.705 225.264 118.112 225.294 118.705C225.324 119.298 225.396 120.065 225.534 120.873C225.673 121.681 225.877 122.508 226.096 123.34C226.314 124.173 226.542 124.988 226.683 125.641C226.824 126.294 226.872 126.761 226.891 127.313C226.909 127.865 226.897 128.488 226.873 128.917C226.821 129.847 226.752 130.156 226.74 130.466C226.74 130.471 226.74 130.342 226.68 129.819C226.62 129.296 226.5 128.374 226.451 127.678C226.401 126.981 226.425 126.538 226.461 126.202C226.498 125.866 226.545 125.65 226.624 125.162C226.703 124.673 226.81 123.919 226.848 122.853C226.885 121.788 226.85 120.434 226.837 119.755C226.825 119.076 226.836 119.112 226.831 119.951C226.825 120.79 226.801 122.431 226.962 124.342C227.124 126.253 227.471 128.385 227.824 129.974C228.176 131.564 228.523 132.546 228.756 133.142C228.989 133.738 229.097 133.917 229.17 134.034C229.244 134.15 229.28 134.198 229.316 134.091C229.353 133.984 229.389 133.72 229.335 131.441C229.282 129.161 229.138 124.873 228.986 122.335C228.835 119.797 228.679 119.138 228.587 118.769C228.494 118.399 228.47 118.339 228.482 118.362C228.494 118.386 228.542 118.493 228.818 120.579C229.094 122.665 229.597 126.725 229.886 128.936C230.175 131.148 230.235 131.387 230.314 131.631C230.393 131.874 230.488 132.113 230.574 132.231C230.659 132.348 230.731 132.336 230.828 132.222C230.925 132.108 231.045 131.893 231.148 131.62C231.252 131.347 231.336 131.024 231.451 129.174C231.566 127.325 231.709 123.959 231.754 122.04C231.798 120.12 231.738 119.749 231.695 119.528C231.652 119.307 231.628 119.247 231.61 119.192C231.591 119.137 231.58 119.089 231.49 119.586C231.399 120.082 231.232 121.124 231.098 121.763C230.963 122.401 230.867 122.605 230.769 122.815" stroke="white" stroke-width="4" stroke-linecap="round"/>
<path d="M225.869 116.064C225.869 115.98 225.893 115.762 225.941 115.156C225.98 114.67 225.989 113.819 225.996 113.339C226.005 112.652 225.917 112.412 225.869 112.169C225.818 111.912 225.736 111.65 225.663 111.322C225.634 111.192 225.603 110.864 225.501 110.381C225.348 109.662 225.083 109.35 224.95 108.711C224.875 108.352 224.889 107.696 224.847 107.425C224.799 107.115 224.816 108.221 224.894 108.686C224.998 109.301 225.154 109.457 225.251 109.645C225.36 109.854 225.372 110.134 225.403 110.762C225.425 111.223 225.457 111.732 225.464 112.353C225.467 112.68 225.361 112.869 225.331 113.075C225.301 113.279 225.288 114.193 225.324 114.786C225.332 114.915 225.433 115.047 225.559 115.144C225.607 115.18 225.65 115.145 225.687 115.055C225.723 114.964 225.759 114.809 225.778 114.501C225.796 114.193 225.796 113.738 225.73 113.174C225.664 112.61 225.533 111.952 225.459 111.474C225.343 110.726 225.337 110.294 225.3 110.047C225.277 109.884 225.228 109.546 225.113 109.062C225.032 108.717 224.902 108.371 224.793 107.931C224.683 107.484 224.671 107.1 224.683 106.924C224.697 106.725 224.78 107.351 224.726 107.672C224.652 108.111 224.454 108.427 224.381 108.816C224.311 109.185 224.368 109.795 224.435 110.134C224.514 110.543 224.839 111.004 225.152 111.541C225.537 112.2 225.832 112.651 225.905 112.85C226.007 113.131 226.098 113.316 226.153 113.516C226.164 113.558 226.159 113.595 226.195 113.601C226.303 113.621 226.533 113.416 226.846 113.096C227.012 112.927 227.16 112.717 227.498 112.151C227.836 111.585 228.351 110.662 228.939 109.421C229.528 108.179 230.175 106.646 230.592 105.706C231.009 104.767 231.177 104.467 230.88 105.134C230.583 105.8 229.816 107.441 229.415 108.304C229.014 109.167 229.002 109.203 229.002 109.24C229.002 109.276 229.014 109.312 229.038 109.325C229.207 109.412 229.557 108.976 230.105 108.29C230.493 107.804 231.071 107.006 231.386 106.575C231.7 106.144 231.724 106.096 231.179 106.526C230.635 106.957 229.521 107.867 228.785 108.42C227.761 109.189 227.345 109.325 227.243 109.343C227.189 109.353 227.128 109.349 227.073 109.337C227.019 109.325 226.971 109.301 226.934 109.229C226.843 109.049 226.921 108.686 227.119 108.18C227.366 107.55 227.659 107.184 227.821 107.004C228.102 106.691 228.552 106.362 229.023 106.085C229.41 105.856 229.931 105.672 230.456 105.467C230.898 105.295 231.059 105.139 231.107 105.127C231.133 105.12 231.108 105.234 230.88 105.72C230.652 106.207 230.209 107.093 229.933 107.729C229.657 108.366 229.561 108.725 229.493 109.138C229.426 109.55 229.39 110.005 229.384 110.414C229.377 110.822 229.401 111.169 229.509 111.719C229.617 112.269 229.809 113.012 229.926 113.437C230.156 114.276 230.309 114.817 230.327 114.866C230.331 114.878 230.333 114.771 230.561 113.243C230.788 111.714 231.243 108.744 231.484 107.076C231.724 105.408 231.736 105.132 231.73 105.008C231.725 104.885 231.701 104.92 231.545 105.328C231.389 105.736 231.101 106.515 230.875 107.251C230.649 107.987 230.493 108.658 230.401 109.692C230.309 110.727 230.285 112.104 230.345 113.448C230.404 114.793 230.548 116.062 230.616 116.782C230.696 117.632 230.612 117.853 230.491 118.004C230.43 118.082 230.323 118.119 230.232 118.138C230.06 118.173 229.862 118.085 229.669 117.994C229.519 117.924 229.175 117.519 228.715 116.927C228.473 116.614 228.362 116.272 228.217 115.819C228.079 115.389 228.095 114.821 228.173 114.091C228.264 113.238 228.506 112.737 228.482 112.922C228.451 113.169 228.315 113.718 228.259 114.229C228.204 114.74 228.216 115.196 228.282 115.688C228.348 116.18 228.467 116.695 228.625 117.163C228.783 117.632 228.974 118.04 229.115 118.315C229.255 118.591 229.339 118.723 229.406 118.815C229.474 118.906 229.522 118.954 229.607 118.967" stroke="white" stroke-width="4" stroke-linecap="round"/>
<path d="M232.003 149.745C231.691 149.949 231.38 150.153 230.836 150.533C230.292 150.913 229.526 151.464 229.023 151.808C228.318 152.291 227.987 152.431 227.818 152.491C227.448 152.624 226.887 152.83 226.686 152.975C226.568 153.061 226.342 153.204 226.023 153.458C225.378 153.969 225.083 154.076 224.956 154.203C224.784 154.375 224.49 154.536 224.291 154.681C224.142 154.79 224.042 154.935 223.801 155.291C223.682 155.467 223.607 155.624 223.432 155.812C223.233 156.025 223.051 156.157 222.941 156.266C222.89 156.318 222.953 156.026 223.073 155.605C223.312 154.769 223.558 154.138 223.636 153.951C223.688 153.827 223.835 153.379 224.071 152.714C224.276 152.135 224.32 151.948 224.434 151.474C224.528 151.081 224.728 150.389 224.832 149.995C224.956 149.531 225.045 149.192 225.178 148.756C225.252 148.516 225.336 148.163 225.469 147.704C225.522 147.521 225.53 147.436 225.716 146.86C225.901 146.284 226.261 145.218 226.464 144.597C226.713 143.835 226.74 143.636 226.722 143.576C226.716 143.555 226.668 143.587 226.434 143.947C226.2 144.306 225.769 145.001 225.529 145.401C225.242 145.878 225.108 146.378 224.932 147.025C224.85 147.327 224.744 147.638 224.606 148.085C224.501 148.42 224.393 148.584 224.303 148.812C223.918 149.786 223.849 150.095 223.686 150.5C223.6 150.713 223.619 150.942 223.588 151.124C223.565 151.269 223.546 151.941 223.588 152.238C223.629 152.525 223.655 151.694 223.667 151.543C223.687 151.283 223.727 151.041 223.841 150.279C223.943 149.599 224.183 148.331 224.3 147.641C224.417 146.951 224.417 146.88 224.459 146.549C224.501 146.219 224.585 145.632 224.694 145.012C224.803 144.392 224.935 143.758 225.008 143.413C225.12 142.89 225.083 142.596 225.064 142.415C225.059 142.366 225.046 142.318 224.992 143.096C224.938 143.874 224.842 145.479 224.811 146.455C224.78 147.432 224.816 147.731 224.84 147.987C224.909 148.704 224.925 149.017 224.961 149.363C224.999 149.722 225.142 150.396 225.215 150.779C225.263 151.027 225.36 151.389 225.445 151.62C225.46 151.661 225.505 151.681 225.566 151.687C225.626 151.693 225.71 151.681 226.855 150.783C228 149.884 230.204 148.1 231.429 147.121C232.654 146.141 232.834 146.022 232.866 145.972C232.916 145.896 232.584 146.007 231.882 146.271C231.255 146.507 230.067 146.918 229.33 147.194C228.333 147.567 227.975 147.749 227.794 147.803C227.687 147.835 227.563 147.798 227.43 147.738C227.375 147.712 227.369 147.653 227.381 147.575C227.393 147.496 227.429 147.388 227.962 146.668C228.496 145.948 229.526 144.618 230.074 143.916C230.654 143.173 230.72 143.104 230.696 143.127C230.642 143.181 230.529 143.342 229.719 144.117C228.909 144.892 227.411 146.281 226.658 146.967C225.905 147.653 225.941 147.593 226.384 146.928C226.828 146.262 227.678 144.992 228.206 144.254C228.734 143.517 228.914 143.349 229.036 143.244C229.159 143.14 229.219 143.104 229.281 143.067" stroke="white" stroke-width="4" stroke-linecap="round"/>
<path d="M224.925 144.338C225.009 144.098 225.093 143.858 225.34 143.202C225.587 142.546 225.994 141.48 226.335 140.074C226.677 138.669 226.94 136.956 227.076 136.002C227.212 135.047 227.212 134.904 227.224 134.716C227.25 134.3 227.368 133.743 227.513 133.217C227.623 132.82 227.875 132.496 228.088 132.234C228.306 131.966 228.47 131.78 228.518 131.743C228.603 131.876 228.627 132.129 228.597 132.532C228.567 132.804 228.508 133.211 228.446 133.631" stroke="white" stroke-width="4" stroke-linecap="round"/>
<path d="M231.894 133.885C231.475 134.687 231.056 135.49 230.756 136.184C230.456 136.879 230.289 137.442 230.154 138.02C230.02 138.597 229.924 139.172 229.875 139.546C229.805 140.073 229.837 140.272 229.891 140.315C229.925 140.341 230.005 140.297 230.078 140.225C230.151 140.153 230.223 140.033 230.41 139.54C230.597 139.047 230.896 138.185 231.116 137.273C231.336 136.362 231.468 135.428 231.536 134.905C231.604 134.381 231.604 134.298 231.562 134.302C231.52 134.307 231.436 134.403 231.279 134.674C231.122 134.945 230.895 135.388 230.676 135.946C230.457 136.503 230.253 137.162 230.13 137.633C230.007 138.104 229.971 138.368 229.953 138.659C229.915 139.261 229.982 139.894 230.073 140.396C230.107 140.588 230.151 140.646 230.194 140.659C230.236 140.672 230.284 140.636 230.309 140.594C230.334 140.551 230.334 140.503 230.334 140.454" stroke="white" stroke-width="4" stroke-linecap="round"/>
<path d="M228.918 141.18C228.618 141.599 228.319 142.018 228.165 142.21C228.01 142.402 228.01 142.354 228.058 142.198C228.106 142.041 228.202 141.778 228.221 141.624C228.241 141.471 228.181 141.435 228 141.446C227.82 141.458 227.52 141.517 227.073 141.626C226.035 141.878 225.397 142.063 225.325 142.069C225.148 142.084 225.059 141.798 224.914 141.381C224.748 140.906 225.009 140.709 225.076 140.503C225.131 140.335 225.227 140.201 225.288 140.019C225.359 139.808 225.409 139.512 225.53 139.004C225.61 138.668 225.663 138.447 225.717 138.205C225.766 137.991 225.844 137.47 225.971 136.655C226.073 136.002 226.026 135.592 226.056 135.267C226.076 135.049 226.098 134.726 226.141 134.374C226.228 133.648 226.328 133.196 226.365 133.039C226.466 132.603 226.304 131.844 226.335 131.369C226.351 131.115 226.377 130.825 226.407 130.559C226.429 130.365 226.353 130.22 226.305 130.068C226.276 129.979 226.256 129.892 226.226 129.856C226.191 129.814 226.147 129.964 226.111 130.007C226.071 130.054 225.894 129.965 225.719 129.989C225.56 130.01 225.735 130.315 225.79 130.556C225.887 130.982 225.76 131.258 225.724 131.488C225.708 131.587 225.687 131.958 225.693 132.466C225.696 132.687 225.724 133.166 225.712 133.874C225.703 134.361 225.615 134.597 225.579 134.845C225.525 135.211 225.518 135.795 225.5 135.959C225.475 136.185 225.409 136.424 225.385 136.66C225.367 136.837 225.312 137.029 225.294 137.45C225.257 138.325 225.276 138.989 225.258 139.188C225.252 139.399 225.24 139.546 225.216 139.918C225.204 140.254 225.192 140.889 225.179 141.543" stroke="white" stroke-width="4" stroke-linecap="round"/>
<path d="M211.466 103.225C211.466 103.146 211.466 103.067 211.483 103.037C211.5 103.008 211.534 103.03 211.557 103.093C211.68 103.426 211.739 104.213 211.814 104.76C211.907 105.439 211.923 105.681 211.985 106.158C212.031 106.511 212.127 107.087 212.173 107.418C212.229 107.816 212.265 108.272 212.334 108.973C212.388 109.526 212.346 109.829 212.346 110.034C212.345 110.182 212.391 110.419 212.499 110.954C212.607 111.49 212.788 112.315 212.898 112.78C213.028 113.328 213.145 113.519 213.316 113.866C213.594 114.432 213.705 114.868 213.705 114.926C213.706 115.208 213.249 114.458 213.066 114.372C212.744 114.221 212.357 114.287 212.3 114.19C212.157 113.946 212.367 113.318 212.494 112.99C212.571 112.788 212.62 112.608 212.688 112.128C212.727 111.855 212.734 111.285 212.694 110.757C212.643 110.079 212.574 109.899 212.483 109.727C212.438 109.641 212.312 110.09 212.243 110.637C212.113 111.673 212.163 111.953 212.123 112.308C212.073 112.752 212.174 112.914 212.26 113.069C212.283 113.112 212.322 113.154 212.357 113.183C212.391 113.212 212.425 113.223 212.493 113.218C212.562 113.212 212.664 113.19 213.236 112.85C213.809 112.51 214.85 111.854 216.376 110.996C217.902 110.137 219.882 109.097 221.195 108.476C222.509 107.855 223.098 107.685 223.418 107.592C223.738 107.499 223.772 107.487 223.009 107.736C222.245 107.985 220.684 108.494 219.79 108.807C218.895 109.12 218.714 109.222 218.434 109.41C218.154 109.598 217.781 109.87 217.509 110.055C216.862 110.496 216.608 110.572 216.318 110.698C215.94 110.861 215.672 110.835 215.449 110.864C215.375 110.873 215.273 110.87 215.204 110.853C215.134 110.836 215.1 110.802 215.094 110.722C215.078 110.518 215.202 110.254 215.401 109.935C215.52 109.744 215.724 109.526 215.981 109.273C216.239 109.021 216.556 108.75 217.85 107.92C219.144 107.09 221.407 105.71 222.533 105.01C223.659 104.31 223.58 104.333 222.526 104.712C221.473 105.092 219.448 105.827 218.264 106.279C217.079 106.732 216.796 106.879 216.538 107.039C216.039 107.349 215.785 107.578 215.598 107.732C214.852 108.343 214.598 108.424 214.42 108.487C214.382 108.501 214.346 108.482 214.34 108.447C214.334 108.413 214.356 108.357 214.787 107.79C215.217 107.224 216.054 106.149 216.615 105.477C217.176 104.804 217.437 104.567 218.131 104.06C218.825 103.553 219.945 102.784 220.538 102.37C221.171 101.93 221.461 101.73 221.873 101.473C222.026 101.377 222.058 101.34 222.019 101.323C221.979 101.305 221.866 101.305 221.129 101.617C220.392 101.928 219.035 102.55 218.29 102.899C217.546 103.247 217.455 103.304 217.25 103.401C216.734 103.645 216.323 103.796 216.073 103.887C215.633 104.047 215.159 104.309 214.788 104.532C214.533 104.685 214.369 104.79 214.226 104.825C214.164 104.84 214.118 104.836 214.1 104.814C214.082 104.791 214.094 104.746 214.235 104.474C214.377 104.201 214.648 103.704 214.924 103.295C215.427 102.548 215.819 102.209 216.006 102.066C216.286 101.854 216.561 101.706 217.089 101.411C217.528 101.166 218.306 100.709 218.77 100.431C219.235 100.152 219.359 100.062 219.604 99.8511C220.22 99.3221 220.675 98.9179 220.829 98.8152C221.191 98.5742 221.749 98.3121 222.046 98.1353C222.308 97.9794 221.408 98.1284 221.054 98.2199C220.753 98.2978 220.12 98.5158 219.74 98.6428C219.437 98.7437 219.214 98.9162 218.382 99.4807C218.206 99.6 218.163 99.6477 217.924 99.835C217.686 100.022 217.256 100.35 216.956 100.57C216.503 100.901 216.254 101.065 216.106 101.185C215.786 101.444 215.069 101.864 214.683 102.019C214.311 102.231 214.061 102.39 213.866 102.528C213.831 102.551 213.798 102.562 213.728 102.574" stroke="white" stroke-width="4" stroke-linecap="round"/>
<path d="M213.557 118.103C213.545 118.023 213.534 117.944 213.506 117.355C213.477 116.765 213.432 115.668 213.392 115.108C213.351 114.549 213.318 114.56 213.232 114.617C212.756 114.933 212.563 115.302 212.46 115.519C212.245 115.972 212.118 116.216 212.02 116.479C211.954 116.658 211.946 116.912 211.985 117.108C212.025 117.301 212.287 117.937 212.363 118.49C212.374 118.57 212.38 118.627 212.385 118.979C212.391 119.33 212.391 119.975 212.386 120.335C212.379 120.753 212.357 121.014 212.351 121.351C212.348 121.542 212.311 121.69 212.294 122.081C212.259 122.891 212.277 123.495 212.26 123.638C212.231 123.882 212.288 124.158 212.317 124.443C212.365 124.921 212.38 125.311 212.397 125.632C212.411 125.897 212.482 126.214 212.534 126.568C212.551 126.66 212.574 126.751 212.585 126.826C212.597 126.9 212.597 126.957 212.631 127.084" stroke="white" stroke-width="4" stroke-linecap="round"/>
<path d="M213.385 125.576C213.453 125.496 213.521 125.417 213.856 124.867C214.19 124.317 214.79 123.299 215.133 122.679C215.476 122.058 215.544 121.866 215.646 121.416C215.749 120.966 215.885 120.265 215.966 119.87C216.047 119.474 216.07 119.407 216.144 119.117C216.347 118.32 216.504 117.704 216.573 117.482C216.664 117.186 216.699 116.938 216.756 116.654C216.87 116.082 216.882 115.59 216.876 115.384C216.866 115.004 216.711 114.528 216.557 114.304C216.477 114.188 216.334 114.172 216.265 114.132C216.232 114.113 216.197 114.103 216.162 114.137C216.068 114.23 216.059 114.388 216.048 114.542C216.041 114.639 216.014 114.775 215.968 116.366C215.923 117.958 215.855 121.001 215.808 122.647C215.762 124.294 215.74 124.453 215.728 124.568C215.689 124.957 215.648 125.346 215.591 125.671C215.562 125.835 215.568 125.952 215.556 126.021C215.551 126.055 215.568 126.089 215.596 126.101C215.757 126.168 215.899 125.896 216.476 125.064C217.013 124.291 218.027 122.795 218.642 121.856C219.257 120.917 219.438 120.578 219.672 119.984C219.907 119.391 220.19 118.554 220.369 117.823C220.549 117.092 220.617 116.492 220.635 115.855C220.653 115.218 220.619 114.562 220.579 114.105C220.518 113.408 220.368 112.94 220.191 112.49C220.102 112.262 219.981 112.051 219.877 112.087C219.774 112.123 219.683 112.418 219.354 113.955C219.024 115.492 218.459 118.264 218.162 119.799C217.865 121.334 217.853 121.549 217.853 121.688C217.853 121.884 217.899 121.987 217.967 122.078C218.148 122.32 218.526 122.25 218.772 122.279C219.255 122.335 219.804 122.069 220.143 121.857C220.252 121.789 220.376 121.636 220.53 121.425C220.685 121.213 220.855 120.931 221.118 120.208C221.38 119.485 221.731 118.332 221.957 117.132C222.183 115.932 222.273 114.722 222.292 113.94C222.31 113.158 222.253 112.841 222.202 112.616C222.053 111.969 221.75 111.624 221.619 111.402C221.588 111.351 221.567 111.316 221.544 111.315C221.521 111.315 221.499 111.349 221.232 112.497C220.966 113.646 220.457 115.909 220.02 118.234C219.582 120.559 219.231 122.878 219.051 124.185C218.87 125.493 218.87 125.72 218.876 125.876C218.888 126.229 218.984 126.567 219.047 126.804C219.052 126.821 219.087 126.776 219.155 126.493C219.223 126.209 219.336 125.678 219.649 124.606C219.962 123.535 220.471 121.94 220.824 120.626C221.176 119.312 221.357 118.328 221.417 117.923C221.476 117.518 221.408 117.721 221.322 118.115C221.236 118.508 221.135 119.085 221.037 120.429C220.939 121.772 220.849 123.865 220.819 125.022C220.789 126.18 220.823 126.338 220.863 126.482C220.991 126.939 221.098 127.231 221.195 127.488C221.257 127.652 221.098 126.834 221.195 126.372C221.232 126.192 221.325 125.957 221.496 125.569C221.667 125.181 221.927 124.649 222.146 124.121C222.365 123.592 222.535 123.083 222.628 122.793C222.721 122.502 222.732 122.446 222.726 122.451C222.668 122.502 222.664 122.661 222.613 123.403C222.566 124.077 222.505 125.355 222.459 126.059C222.39 126.853 222.355 127.003 222.327 127.106C222.31 127.152 222.287 127.186 222.195 127.221" stroke="white" stroke-width="4" stroke-linecap="round"/>
<path d="M223.464 129.004C223.339 128.981 223.099 128.912 222.634 128.816C222.228 128.732 221.468 128.618 220.976 128.548C220.282 128.449 219.889 128.432 219.535 128.381C219.202 128.333 218.974 128.284 218.554 128.329C218.201 128.367 217.569 128.465 216.971 128.494C216.373 128.524 215.83 128.49 215.534 128.467C215.109 128.434 214.838 128.341 214.558 128.261C214.331 128.196 214.14 128.192 213.918 128.107C213.599 127.985 213.398 127.861 213.22 127.804C213.077 127.758 212.827 127.735 212.586 127.707C212.529 127.7 212.461 127.701 212.415 127.718C212.369 127.735 212.346 127.769 212.334 127.809C212.285 127.979 212.459 128.282 212.562 128.534C212.669 128.796 212.757 129.003 212.774 129.26C212.795 129.574 212.78 129.963 212.729 130.1C212.673 130.249 212.427 130.408 212.345 130.478C212.001 130.776 212.482 129.85 212.551 129.553C212.569 129.474 212.563 129.394 212.546 129.375C212.447 129.269 212.403 129.665 212.397 129.922C212.391 130.183 212.505 130.454 212.579 130.592C212.594 130.619 212.653 130.592 212.637 130.598C212.543 130.629 212.426 130.66 212.363 130.694C212.296 130.731 212.277 130.82 212.26 130.917C212.249 130.979 212.254 131.07 212.294 131.117C212.519 131.381 213.03 130.981 213.703 130.815C213.906 130.765 214.047 130.763 214.337 130.729C214.883 130.665 215.27 130.729 215.729 130.746C216.154 130.762 216.968 130.752 217.433 130.757C217.989 130.764 218.319 130.786 218.696 130.78C219.11 130.774 219.635 130.695 219.943 130.689C220.32 130.682 220.789 130.706 220.858 130.695C220.926 130.683 220.961 131.147 220.956 131.816C220.952 132.273 220.836 132.727 220.796 133.013C220.761 133.263 220.744 133.391 220.772 133.392C220.96 133.395 221.154 132.823 221.399 132.304C221.612 131.854 221.761 131.404 221.846 131.21C221.864 131.164 221.875 131.13 221.87 131.135C221.864 131.14 221.841 131.185 221.818 131.232" stroke="white" stroke-width="4" stroke-linecap="round"/>
<path d="M211.054 141.961C211.054 141.882 211.077 141.654 211.179 141.266C211.221 141.107 211.248 140.968 211.266 140.91C211.379 140.534 211.214 141.8 211.243 141.995C211.247 142.024 211.293 142.007 211.78 141.487C212.267 140.966 213.206 139.937 213.894 139.22C214.581 138.503 214.988 138.13 215.3 137.824C215.611 137.519 215.815 137.292 216.435 136.757C217.054 136.222 218.084 135.385 218.885 134.795C219.687 134.206 220.23 133.889 220.533 133.709C220.998 133.432 221.178 133.289 221.281 133.146C221.42 132.953 221.578 132.889 221.646 132.877C221.733 132.862 221.851 133.138 222.051 133.514C222.296 133.977 222.355 134.441 222.378 134.856C222.392 135.113 222.356 135.464 222.327 135.729C222.298 135.995 222.264 136.165 221.941 137.134C221.619 138.104 221.008 139.869 220.659 140.942C220.31 142.015 220.243 142.343 220.196 142.812C220.15 143.281 220.127 143.88 220.104 144.263C220.058 145.027 219.876 145.387 219.671 145.815C219.563 146.041 219.421 146.276 219.323 145.465C219.225 144.654 219.168 142.787 219.167 141.622C219.167 140.457 219.223 140.05 219.28 139.75C219.429 138.972 219.647 138.74 219.801 138.466C219.998 138.114 220.275 137.872 220.418 137.694C220.594 137.475 220.709 137.243 220.852 137.038C220.907 136.959 220.915 136.923 220.83 137.024C220.746 137.125 220.565 137.363 219.996 137.881C219.428 138.4 218.478 139.191 217.428 140.029C216.379 140.867 215.259 141.727 214.648 142.204C213.853 142.825 213.706 142.955 213.529 143.098C213.288 143.292 213.112 143.686 212.946 143.835C212.652 144.099 212.403 144.257 212.226 144.304C212.011 144.36 211.957 143.916 211.837 143.722C211.743 143.568 211.672 143.447 211.603 143.424C211.453 143.374 211.374 143.663 211.295 143.891C211.112 144.412 211.248 144.92 211.288 145.177C211.321 145.387 211.328 145.752 211.357 146.034C211.363 146.187 211.374 146.337 211.391 146.638C211.397 146.882 211.397 147.312 211.431 147.789" stroke="white" stroke-width="4" stroke-linecap="round"/>
<path d="M223.566 146.418C223.077 146.463 222.642 146.577 222.288 146.618C221.719 146.682 221.397 146.737 221.054 146.914C220.752 147.07 220.414 147.444 220.156 147.998C220.02 148.293 219.99 148.576 219.848 148.861C219.622 149.313 219.306 149.752 219.066 150.044C218.867 150.286 218.677 150.53 218.477 151.021C218.355 151.318 218.106 151.865 217.848 152.278C217.662 152.576 217.591 152.861 217.539 153.141C217.545 153.41 217.568 153.57 217.596 153.827C217.602 153.924 217.602 154.059 217.602 154.199" stroke="white" stroke-width="4" stroke-linecap="round"/>
<path d="M217.225 142.544C217.202 142.499 217.123 142.34 216.98 142.179C216.928 142.121 216.826 142.245 216.593 142.659C216.36 143.074 215.976 143.809 215.715 144.363C215.455 144.917 215.33 145.268 215.232 145.601C214.923 146.652 214.917 146.988 214.82 147.251C214.7 147.576 214.438 148.161 214.231 148.855C214.187 149.005 214.208 149.168 214.202 149.233C214.199 149.268 214.151 149.104 214.032 148.701C213.818 147.974 213.58 147.492 213.551 147.384C213.525 147.283 214.02 147.116 214.916 146.888C215.283 146.794 215.461 146.705 215.724 146.545C215.987 146.386 216.327 146.148 216.575 145.958C216.982 145.646 217.314 145.266 217.64 144.866C217.86 144.595 217.922 144.43 217.922 144.384C217.922 144.265 217.603 144.622 217.124 145.375C216.991 145.583 216.929 145.796 216.855 146.037C216.78 146.278 216.712 146.549 216.609 147.017C216.506 147.485 216.37 148.141 216.284 148.53C216.139 149.179 215.969 149.693 215.888 150.033C215.877 150.085 215.865 150.153 215.859 150.233C215.854 150.313 215.854 150.404 215.854 150.497" stroke="white" stroke-width="4" stroke-linecap="round"/>
<path d="M221.03 150.394C221.03 150.519 220.951 151.166 220.797 151.988C220.684 152.59 220.494 153.088 220.323 153.55C220.126 154.08 219.9 154.266 219.671 154.427C219.524 154.53 219.124 154.78 218.558 155.384C217.596 156.412 217.705 156.713 217.648 156.798C217.622 156.837 217.613 156.872 217.664 156.856C217.839 156.799 218.012 156.645 218.421 156.373C218.756 156.149 219.372 155.784 219.704 155.586C220.035 155.388 220.069 155.376 220.081 155.399C220.162 155.553 219.662 155.956 219.015 156.426C218.687 156.665 218.403 156.724 218.151 156.827C217.655 157.03 216.976 157.34 216.62 157.575C216.282 157.798 215.889 158.06 215.587 158.294C215.094 158.675 214.849 159.214 214.717 159.369C214.578 159.532 214.312 159.604 214.078 159.768C213.697 160.037 213.341 160.38 212.937 160.721C212.296 161.263 211.866 161.694 211.684 161.842C211.257 162.189 211.18 162.391 211.06 162.563C210.95 162.72 210.906 162.871 210.815 163.014C210.701 163.192 210.563 163.351 210.415 163.54C210.197 163.816 210.061 163.911 209.918 164.037C209.696 164.232 209.489 164.482 209.409 164.648C209.335 164.801 209.249 164.951 209.175 165.1C209.158 165.134 209.146 165.168 209.152 165.129C209.173 164.976 209.237 164.77 209.322 164.548C209.439 164.245 209.602 163.8 209.751 163.338C209.898 162.879 209.946 162.622 209.991 162.461C210.034 162.312 210.105 162.13 210.282 161.526C210.39 161.158 210.505 160.92 210.568 160.821C211.044 160.079 210.312 162.116 210.266 162.294C210.22 162.472 210.175 162.631 210.1 162.797C210.037 162.94 209.946 163.077 209.787 163.22C209.75 163.253 209.695 163.226 209.661 163.204C209.531 163.118 209.501 162.919 209.449 162.559C209.393 162.168 209.477 161.619 209.506 161.29C209.521 161.111 209.603 160.862 209.677 160.628C209.76 160.366 209.774 160.176 209.849 159.936C209.905 159.754 209.923 159.458 209.952 159.165C209.988 158.794 209.992 158.634 210.026 158.439C210.081 158.123 210.083 157.799 210.1 157.622C210.127 157.343 210.174 156.841 210.203 156.48C210.232 156.121 210.277 155.436 210.306 155.108C210.323 154.918 210.357 154.691 210.374 154.36C210.389 154.073 210.426 153.8 210.443 153.287C210.45 153.08 210.494 152.818 210.551 152.188C210.592 151.739 210.631 151.026 210.648 150.624C210.669 150.156 210.643 149.916 210.688 149.653C210.744 149.33 211.236 149.446 211.402 149.372C211.442 149.354 211.488 149.343 211.534 149.354C211.786 149.416 211.763 149.97 211.842 150.267C211.949 150.666 212.059 151.078 212.174 151.319C212.288 151.56 212.242 151.878 212.294 152.238C212.372 152.781 212.346 153.215 212.277 153.637C212.168 154.31 212.048 154.793 212.043 154.907C212.026 155.242 211.9 155.603 211.843 156.242C211.79 156.834 211.831 157.706 211.848 157.929C211.865 158.149 212.025 158.346 212.094 158.484C212.134 158.563 212.208 158.621 212.276 158.655C212.317 158.676 212.39 158.622 212.442 158.588C212.533 158.527 212.766 158.088 213.109 157.392C213.344 156.913 213.498 156.498 213.743 156.093C213.993 155.681 214.208 155.468 214.321 155.309C214.751 154.709 214.802 154.44 215.013 153.899C215.135 153.586 215.134 153.151 215.122 152.66C215.107 151.992 215.02 151.721 214.894 151.412C214.869 151.35 214.826 151.32 214.786 151.297C214.746 151.274 214.7 151.263 214.654 151.263C214.608 151.262 214.563 151.274 214.517 151.285" stroke="white" stroke-width="4" stroke-linecap="round"/>
<path d="M196.357 173.303C196.48 173.204 196.998 172.416 197.778 171.203C198.547 170.007 198.861 169.112 199.096 168.754C199.611 167.969 199.729 166.76 199.866 165.95C199.967 165.353 200.127 164.97 200.189 164.388C200.326 163.104 200.326 162.416 200.289 161.907C200.249 161.367 200.152 160.436 200.078 159.834C199.987 159.096 200.052 157.9 200.065 156.922C200.072 156.408 199.954 155.916 199.917 155.222C199.895 154.819 199.805 154.477 199.768 153.499C199.76 153.285 199.731 153.212 199.718 153.235C199.494 153.652 199.978 154.3 200.065 154.93C200.322 156.788 199.905 157.398 199.842 158.194C199.77 159.107 199.829 160.502 199.867 160.923C199.883 161.1 199.929 161.811 199.917 162.816C199.903 163.946 199.805 165.339 199.706 165.637C199.599 165.957 199.557 166.503 199.421 166.914C199.303 167.272 199.21 167.571 199.049 167.869C198.893 168.158 198.764 168.464 198.677 168.811C198.543 169.343 198.491 169.655 198.354 169.953C198.208 170.272 197.921 170.548 197.709 170.846C197.661 170.914 197.647 170.994 197.672 170.909C197.883 170.167 198.216 169.585 198.428 169.211C198.589 168.926 198.762 168.419 198.899 168.02C199.013 167.688 199.234 167.425 199.407 167.065C199.588 166.69 200.198 165.892 200.573 165.057C200.852 164.437 200.945 163.755 201.107 163.32C201.263 162.899 201.416 162.244 201.677 161.56C202.171 160.262 202.656 159.315 203.077 158.486C203.675 157.309 204.293 156.117 204.603 155.398C204.937 154.622 205.187 153.758 205.508 153.077C205.627 152.825 205.878 152.546 205.93 152.395C205.983 152.243 205.86 152.243 205.748 152.231C204.825 152.13 203.379 152.217 202.994 152.317C202.831 152.359 202.536 152.392 202.164 152.355C201.703 152.309 201.37 151.872 201.108 151.55C200.966 151.375 201.44 151.004 202.143 150.351C202.617 149.91 203.264 149.181 203.643 148.753C204.021 148.325 204.095 148.202 205.078 147.046C206.062 145.89 207.953 143.704 209.111 142.431C210.583 140.812 211.066 140.486 211.079 140.534C211.112 140.656 210.92 140.975 210.476 141.692C210.032 142.409 209.271 143.514 208.842 144.157C208.322 144.936 208.092 145.344 207.672 145.987C206.617 147.6 206.306 148.345 206.007 148.929C205.642 149.641 205.585 150.207 205.498 150.604C205.403 151.044 205.04 151.348 204.779 151.708C204.562 152.008 204.296 152.34 204.159 152.787C203.992 153.331 203.849 154.073 203.651 154.956C203.476 155.733 203.154 156.384 203.153 156.423C203.152 156.52 203.349 156.044 204.002 155.119C204.655 154.193 205.809 152.646 206.441 151.788C207.157 150.814 207.394 150.459 207.74 150.038C208.063 149.646 208.337 149.367 208.842 148.8C210.834 146.562 211.24 146.389 211.339 146.364C211.373 146.355 211.34 146.486 210.947 147.101C210.553 147.717 209.792 148.846 209.339 149.502C208.776 150.315 208.488 150.727 207.884 151.713C207.441 152.438 206.667 153.584 206.238 154.277C205.488 155.487 205.041 156.306 204.717 156.843C204.476 157.243 204.247 157.872 204.097 158.22C203.925 158.618 203.947 159.086 203.873 159.546C203.78 160.126 203.774 160.651 203.786 160.738C203.805 160.876 204.145 160.529 204.417 160.233C204.761 159.857 205.701 158.8 206.928 157.523C207.458 156.971 207.888 156.562 208.753 155.919C210.602 154.544 211.165 154.426 211.289 154.389C211.338 154.374 211.364 154.474 210.885 155.04C210.407 155.606 209.424 156.662 208.648 157.623C207.872 158.585 207.332 159.42 206.955 160.022C206.088 161.409 205.858 161.816 205.61 162.201C205.406 162.518 205.14 163.128 204.941 163.738C204.595 164.796 204.025 165.51 203.219 166.403C202.342 167.375 201.965 168.265 201.58 168.601C201.432 168.73 201.196 168.911 201.107 169.072C200.941 169.377 202.083 168.543 202.887 167.937C204.508 166.714 205.482 166.285 205.992 165.974C206.3 165.764 207.165 165.024 208.465 163.799C209.077 163.188 209.593 162.599 210.124 161.917" stroke="white" stroke-width="4" stroke-linecap="round"/>
<path d="M198.18 158.401C198.853 157.672 199.526 156.943 199.956 156.427C200.387 155.911 200.555 155.631 198.679 157.561C196.803 159.492 192.878 163.642 190.659 166.06C187.186 169.845 186.4 170.973 185.973 171.345C185.868 171.437 186.223 170.759 188.414 167.92C190.604 165.081 194.754 159.866 197.172 156.899C200.827 152.414 202.251 151.44 202.937 150.839C203.063 150.729 202.037 151.316 199.589 153.397C197.66 155.037 194.506 158.057 191.766 160.85C189.025 163.643 186.838 166.167 185.627 167.523C184.417 168.879 184.248 168.991 184.638 168.348C185.028 167.705 185.982 166.303 187.23 164.627C188.478 162.952 189.992 161.045 191.585 159.25C194.704 155.735 196.705 154.04 197.353 153.59C197.798 153.28 198.394 152.691 196.665 154.477C194.936 156.263 190.842 160.413 188.284 163.111C185.727 165.81 184.83 166.932 184.199 167.818C182.717 170.181 182.039 171.421 180.85 173.461C180.62 173.863 180.564 174.032 180.336 174.375" stroke="white" stroke-linecap="round"/>
<path d="M192.912 164.009C193.473 163.672 195.332 162.602 197.374 161.382C197.865 161.089 197.174 161.341 195.229 162.466C193.284 163.592 190.087 165.555 188.16 166.791C184.256 169.294 183.057 171.144 182.999 171.175C182.314 171.532 184.073 169.846 186.852 167.15C189.404 164.673 194.509 160.192 197.025 158.048C199.541 155.904 199.373 156.297 196.847 158.602C194.321 160.907 189.442 165.113 186.844 167.336C184.247 169.559 184.078 169.671 184.104 169.448C184.198 168.631 185.65 167.078 187.433 165.324C189.204 163.582 190.186 162.092 191.745 160.53C193.41 158.862 195.685 156.929 196.109 156.703C196.312 156.595 196.477 156.477 194.489 158.298C192.501 160.119 188.351 163.876 186.465 165.671C184.58 167.467 185.085 167.186 185.569 166.958C187.292 166.145 188.657 165.484 190.241 164.187C191.013 163.555 191.984 162.221 193.206 160.968C197.154 156.921 197.894 156.535 198.32 155.854C198.515 155.543 198.576 155.174 198.521 154.919C198.491 154.781 198.129 154.832 196.751 156.262C195.372 157.692 192.905 160.552 191.185 162.334C187.632 166.015 185.836 166.102 184.308 166.809C182.686 167.56 182.209 169.158 181.783 170.038C181.223 171.194 180.68 172.383 180.027 173.606C179.168 175.216 178.753 176.92 177.989 177.742C177.332 178.448 176.601 178.735 175.921 179.075C175.759 179.156 175.582 179.133 175.551 179.049C175.46 178.8 176.533 178.175 177.639 177.495C178.669 176.861 173.881 178.509 173.71 178.454C173.305 178.323 175.283 176.484 177.348 174.389C179.122 172.591 180.275 171.717 181.154 171.036C182.615 169.903 184.123 168.944 186.105 167.78C187.831 166.768 190.405 165.547 192.726 164.132C194.739 162.905 196.188 161.752 197.158 160.923C197.326 160.779 197.497 160.613 197.191 160.947C196.108 162.13 194.674 163.55 193.038 165.185C191.991 166.231 190.618 167.829 189.279 169.17C185.353 173.104 184.418 173.862 183.851 174.57C183.086 175.525 182.039 175.846 180.625 176.553C179.539 177.095 178.586 177.994 177.986 178.312C177.636 178.498 178.804 177.605 180.379 176.621C181.637 175.836 183.749 174.348 185.127 173.456C186.505 172.565 187.066 172.285 188.701 171.215C190.336 170.145 193.027 168.294 195.031 167.005C199.754 163.964 200.838 163.275 201.632 162.821C202.114 162.545 202.596 162.311 202.683 162.14C203.22 161.081 200.171 164.168 196.356 167.703C192.601 171.181 192.181 172.444 190.738 173.717C189.325 174.964 187.651 176.237 186.463 177.537C185.477 178.616 184.816 179.752 184.22 180.319C183.714 180.802 187.562 177.733 191.033 175.739C192.052 175.154 192.626 174.718 193.277 174.32C193.71 174.054 194.1 173.809 194.13 173.696C194.286 173.12 190.502 174.142 186.369 175.161C184.367 175.731 183.064 176.297 181.677 176.948C181.132 177.206 180.907 177.318 180.336 177.604" stroke="white" stroke-width="4" stroke-linecap="round"/>
<path d="M210.241 129.475C210.395 129.599 210.55 129.723 210.676 129.802C210.801 129.881 210.894 129.912 211.083 130.037" stroke="white" stroke-width="4" stroke-linecap="round"/>
<path d="M211.738 130.505C210.742 130.754 210.055 130.88 209.385 130.957C208.623 131.046 207.936 131.067 207.325 131.144C206.349 131.269 205.719 131.067 205.265 130.989C204.816 130.912 204.006 130.88 202.914 130.802C200.045 130.598 199.757 130.91 199.585 130.911C199.213 130.912 199.32 130.164 199.272 127.893C199.254 127.009 199.132 126.388 199.085 125.935C199.04 125.502 198.913 125.077 198.82 124.703C198.727 124.327 198.664 123.831 198.477 122.554C198.232 120.883 198.539 119.5 198.617 118.54C198.658 118.024 198.85 117.403 199.1 116.342C199.204 115.9 199.288 115.56 199.303 115.264C199.401 113.39 199.32 110.471 199.195 110.72C198.872 111.365 198.851 111.842 198.804 112.653C198.759 113.435 198.664 114.37 198.648 115.865C198.635 117.052 198.788 118.614 198.835 119.098C198.864 119.395 198.913 120.294 198.898 121.463C198.891 121.986 198.82 123.625 198.804 126.011C198.793 127.815 198.664 129.629 198.555 130.252C198.41 131.075 198.631 131.69 198.849 131.815C199.389 132.124 200.065 131.941 200.782 131.878C202.468 131.731 203.776 131.784 205.286 131.956C205.951 132.031 207.005 131.941 208.612 131.724C210.219 131.508 212.35 131.106 213.526 130.868C214.862 130.598 215.385 130.505 215.901 130.474C216.007 130.468 215.517 130.225 214.91 130.085C214.466 129.982 213.401 129.944 210.916 129.835C209.298 129.764 206.949 129.88 205.616 129.896C203.626 129.921 202.942 129.788 201.881 129.725C201.788 129.72 202.281 129.476 203.49 129.166C204.416 128.928 205.996 128.609 206.885 128.433C208.321 128.151 209.083 128.165 211.134 127.731C213.264 127.28 214.762 126.667 214.967 126.682C215.596 126.73 213.149 126.884 211.224 127.118C209.952 127.272 208.063 127.32 206.984 127.337C205.275 127.364 204.472 127.073 203.193 127.057C202.223 127.044 201.067 127.104 201.004 126.996C200.602 126.305 202.965 126.481 204.501 126.093C205.552 125.828 207.119 125.304 208.472 124.941C210.888 124.293 212.143 124.139 212.484 124.109C213.017 124.06 213.422 123.921 213.532 123.828C213.581 123.786 213.487 123.673 213.347 123.61C213.011 123.458 211.872 123.515 209.712 123.67C208.444 123.761 206.84 124.01 205.395 124.122C202.72 124.328 201.286 124.202 200.991 124.155C200.85 124.133 200.726 124.139 200.616 124.124C200.506 124.109 200.413 124.078 200.473 123.984C200.675 123.673 202.178 123.145 204.482 122.397C206.496 121.744 207.835 121.613 208.426 121.457C209.317 121.222 210.018 121.176 211.39 120.755C211.673 120.669 211.798 120.676 211.846 120.629C211.895 120.583 211.864 120.49 211.74 120.396C210.82 119.699 208.997 120.176 208.215 120.239C206.893 120.345 204.729 120.582 203.69 120.504C202.844 120.441 201.849 120.208 201.334 120.13C201.134 120.1 200.823 120.114 200.787 120.068C200.752 120.021 200.999 119.929 202.038 119.634C203.076 119.339 204.899 118.845 206.039 118.513C207.59 118.061 208.797 117.435 210.184 116.656C210.776 116.324 211.107 116.063 211.329 115.92C211.63 115.725 210.225 116.209 207.452 117.05C205.271 117.712 203.94 117.774 203.395 117.758C202.64 117.737 202.036 117.338 201.691 117.104C201.621 117.057 201.69 116.933 201.798 116.839C202.062 116.611 202.716 116.402 204.113 115.967C205.071 115.669 206.56 115.286 207.493 115.001C209.45 114.406 210.269 113.812 210.692 113.624C211.088 113.448 211.176 113 211.254 112.86C211.58 112.278 209.587 112.999 208.746 113.124C207.614 113.291 206.593 113.84 205.812 114.122C205.309 114.303 204.813 114.372 203.521 114.435C202.646 114.477 202.378 114.622 202.299 114.591C201.75 114.379 203.092 113.688 204.493 112.769C205.809 111.905 206.897 111.629 207.85 111.082C208.535 110.689 209.115 110.287 209.863 109.741C210.606 109.198 211.236 108.944 211.658 108.772C212.169 108.565 209.873 109.438 207.643 110.033C206.521 110.333 205.135 110.47 203.707 110.721C203.224 110.806 202.723 110.908 202.192 111.018C201.737 111.112 201.348 111.095 201.161 111.158C200.975 111.221 200.817 110.941 200.724 110.754C200.639 110.585 200.692 110.317 200.754 110.037C200.951 109.144 202.748 108.821 203.544 108.336C203.851 108.149 204.123 107.945 205.145 107.45C206.005 107.032 207.587 106.336 208.445 105.955C209.396 105.542 209.677 105.418 209.989 105.231C210.115 105.137 210.177 105.044 210.334 104.855" stroke="white" stroke-width="4" stroke-linecap="round"/>
<path d="M187.176 116.861C187.15 116.759 187.124 116.656 187.111 117.514C187.098 118.372 187.098 120.194 187.111 121.184C187.125 122.277 187.176 123.305 187.163 124.756C187.155 125.648 187.047 126.318 187.033 127.16C187.027 127.512 187.098 128.593 187.111 130.044C187.176 130.882 187.201 131.167 187.24 131.451C187.253 131.657 187.253 131.991 187.253 132.334" stroke="white" stroke-width="4" stroke-linecap="round"/>
<path d="M189.119 131.557C190.3 131.326 191.48 131.095 192.884 130.86C194.287 130.626 195.878 130.395 196.774 130.276C198.571 130.038 199.951 129.846 200.185 129.846C200.494 129.846 198.794 129.924 197.023 130.014C196.007 130.066 194.184 130.104 192.938 130.079C190.298 130.027 189.796 129.537 189.432 129.315C189.357 129.27 189.277 129.251 190.828 128.75C192.379 128.249 195.561 127.274 197.123 126.72C198.685 126.167 198.531 126.064 198.349 125.973C197.972 125.783 196.826 125.623 195.234 125.467C194.567 125.402 194.181 125.414 193.521 125.465C191.935 125.589 190.601 125.725 189.953 125.7C189.149 125.668 188.654 125.026 188.627 124.858C188.58 124.562 189.273 124.508 190.2 124.186C190.906 123.941 192.051 123.428 193.21 123.01C194.369 122.592 195.498 122.259 196.157 122.049C197.264 121.695 197.798 121.243 198.357 120.841C198.478 120.754 198.577 120.673 198.63 120.595C198.683 120.516 198.683 120.439 198.581 120.349C197.97 119.807 196.977 119.765 195.476 119.892C194.361 119.988 193.656 120.437 193.193 120.656C191.71 121.357 191.093 121.345 190.327 121.345C189.747 121.346 189.354 121.035 189.158 120.815C188.671 120.267 190.826 120.077 191.948 119.317C192.712 118.8 193.763 117.864 194.395 117.312C195.662 116.205 196.375 115.619 196.557 115.114C196.782 114.49 196.377 114.09 196.106 113.701C195.972 113.509 195.704 113.492 195.471 113.453C195.191 113.406 194.516 113.594 193.584 113.904C192.151 114.381 191.248 115.508 190.858 116.018C190.247 116.813 189.432 116.86 189.275 117.184C189.106 117.535 189.119 118.076 188.939 118.519C188.525 119.114 188.187 119.814 188.071 120.382C188.031 120.719 188.031 121.155 188.109 121.76" stroke="white" stroke-width="4" stroke-linecap="round"/>
<path d="M179.84 123.44C179.798 123.701 179.714 125.164 179.818 126.001C179.889 126.567 179.965 126.987 180.069 127.552C180.183 128.168 180.216 128.642 180.341 129.038C180.393 129.201 180.467 129.354 180.426 129.512C180.38 129.685 180.092 129.801 179.842 129.867C179.723 129.898 179.591 129.855 179.527 129.646C179.186 128.535 179.589 128.043 179.797 127.282C180.111 126.138 179.965 125.651 180.069 125.163C180.173 124.679 180.299 124.257 180.363 123.809C180.404 123.52 180.467 123.257 180.571 123.073C180.953 122.396 183.599 122.835 184.545 122.77C185.885 122.676 187.201 122.179 187.498 122.099C189.658 121.513 184.201 123.697 183.357 124.306C183.219 124.405 183.107 124.515 182.98 124.608C182.854 124.701 182.73 124.779 182.811 124.637C183.392 123.618 183.855 123.075 184.046 122.573C184.218 122.118 183.649 123.438 183.481 124.015C183.428 124.199 183.398 124.408 183.376 125.283C183.355 126.158 183.355 127.694 183.417 128.485C183.479 129.276 183.604 129.276 183.833 129.25C185.092 129.108 186.238 128.726 186.849 128.606C187.39 128.499 185.492 128.855 184.468 128.96C183.437 129.066 181.854 129.249 181.098 129.342C180.769 129.382 180.469 129.381 180.218 129.473C179.581 129.705 179.631 130.325 179.484 130.708C179.45 130.798 179.463 130.904 179.339 130.958C179.215 131.011 178.966 131.011 178.838 130.972C178.144 130.761 178.167 129.778 178.061 129.435C177.924 128.993 178.039 128.41 178.186 128.094C178.328 127.789 178.416 127.412 178.479 126.99C178.539 126.592 178.667 126.124 178.731 125.244C178.751 125.045 178.793 124.914 178.814 124.535C178.835 124.156 178.835 123.531 178.835 122.887" stroke="white" stroke-width="4" stroke-linecap="round"/>
<path d="M185.679 120.256C185.444 120.021 185.158 119.9 184.733 119.971C184.092 120.077 183.003 120.798 181.815 121.558C181.265 121.91 181.119 122.085 181.047 122.121C180.696 122.297 181.899 121.422 182.564 121.019C183.479 120.463 184.417 119.854 185.022 119.558C185.526 119.31 186.081 119.117 186.437 119.069C186.537 119.055 186.465 119.209 185.911 119.751C185.357 120.294 184.322 121.258 183.413 122.273C182.504 123.287 181.751 124.322 181.246 125.125C180.429 126.425 180.263 127.356 180.286 127.914C180.296 128.143 180.357 128.26 180.428 128.356C180.754 128.795 181.496 128.856 182.113 128.857C182.754 128.857 183.253 128.548 183.931 128.536C184.614 128.523 185.297 129.164 185.678 129.437C185.855 129.564 186.059 129.663 186.213 129.829C186.369 129.996 186.321 130.304 186.286 130.565C186.211 131.113 184.88 131.68 183.841 132.004C183.435 132.13 183.044 132.134 182.569 132.147C182.353 132.152 181.812 132.017 180.723 131.91C179.265 131.767 178.269 131.897 177.949 131.921C177.559 131.95 176.447 131.897 175.011 131.944C174.302 131.968 173.193 132.016 171.685 132.004C170.616 131.996 170.097 131.873 169.681 131.803C168.733 131.641 167.578 131.778 166.335 131.826C165.755 131.848 165.44 132.063 165.143 132.158C164.741 132.287 164.3 132.277 163.99 132.254C163.254 132.2 165.507 131.139 166.97 130.466C168.137 129.929 170.22 129.111 171.321 128.64C172.422 128.168 172.493 128.098 173.164 127.697C173.836 127.296 175.106 126.567 175.878 126.132C176.878 125.569 177.221 125.436 177.411 125.4C177.597 125.365 176.827 126.305 175.238 127.907C173.487 129.672 173.042 129.687 172.864 129.841C172.71 129.925 173.578 129.737 175.215 129.417C175.911 129.308 176.335 129.308 176.842 129.379" stroke="white" stroke-width="4" stroke-linecap="round"/>
</svg>
