<svg width="427" height="287" viewBox="0 0 427 287" fill="none" xmlns="http://www.w3.org/2000/svg">
<path d="M323.026 66.168H112.107C97.173 66.168 85.0664 80.1591 85.0664 97.418V159.918C85.0664 177.177 97.173 191.168 112.107 191.168H323.026C337.96 191.168 350.066 177.177 350.066 159.918V97.418C350.066 80.1591 337.96 66.168 323.026 66.168Z" stroke="white" stroke-width="10" stroke-linecap="round" stroke-linejoin="round"/>
<rect x="100" y="79" width="11.75" height="100" rx="5.875" fill="white"/>
<path d="M351 99C358.732 99 365 105.268 365 113V147C365 154.732 358.732 161 351 161V99Z" fill="white"/>
<path d="M233.954 110.49L231.498 113.034L235.034 113.031L289.127 112.995L132.9 211.363L209.422 135.958L212.031 133.387L208.368 133.389L154.049 133.43L296.653 45.5234L233.954 110.49Z" fill="black" stroke="white" stroke-width="3"/>
<path d="M187.5 178.5H167.5" stroke="white"/>
<path d="M240.5 105C241.284 96.1834 240.076 91.8359 234 85.5" stroke="white"/>
<path d="M240.5 113V145" stroke="white"/>
<path d="M243.582 128.111C243.327 127.969 243.167 127.854 243.117 127.761C242.983 127.512 243.095 127.026 243.224 126.432C243.282 125.994 243.296 125.751 243.324 125.665C243.339 125.622 243.353 125.579 243.367 125.535" stroke="white" stroke-width="2" stroke-linecap="round"/>
<path d="M244.226 116.521C244.17 116.564 243.97 116.508 243.755 116.436C243.544 116.365 243.411 116.35 243.333 116.328C243.154 116.28 243.139 116.007 243.046 115.899C242.873 115.699 243.124 116.562 243.196 116.821C243.21 116.864 243.224 116.907 243.232 116.985C243.239 117.064 243.239 117.177 243.239 117.294" stroke="white" stroke-width="5" stroke-linecap="round"/>
<path d="M244.526 120.084C244.866 120.027 245.206 119.971 246.961 119.552C248.715 119.133 251.874 118.354 253.771 117.932C255.667 117.509 256.205 117.467 256.582 117.452C256.958 117.437 257.156 117.451 257.485 117.522C257.814 117.593 258.267 117.721 258.685 117.864C259.48 118.138 259.907 118.338 260.064 118.388C260.553 118.544 260.865 118.582 261.286 118.617C261.993 118.677 262.253 118.582 262.361 118.575C262.384 118.573 262.341 118.553 261.802 118.525C261.263 118.496 260.229 118.454 258.775 118.503C257.322 118.552 255.481 118.693 254.489 118.759C253.498 118.825 253.413 118.811 253.348 118.797C253.283 118.782 253.241 118.768 253.283 118.74C253.325 118.711 253.452 118.668 254.828 118.597C256.204 118.526 258.824 118.426 260.514 118.425C262.204 118.423 262.884 118.523 263.277 118.595C263.76 118.684 263.899 118.768 263.963 118.803C263.984 118.814 263.929 118.853 263.865 118.889C263.8 118.925 263.715 118.967 260.966 119.903C258.217 120.838 252.806 122.666 249.678 123.77C246.551 124.874 245.871 125.2 245.492 125.389C245.114 125.578 245.057 125.62 245.07 125.642C245.084 125.664 245.169 125.664 246.905 125.069C248.642 124.474 252.027 123.285 254.125 122.495C256.223 121.705 256.931 121.35 257.431 121.111C258.193 120.746 258.59 120.614 258.783 120.571C258.862 120.553 258.905 120.556 258.899 120.599C258.892 120.641 258.836 120.726 257.737 121.634C256.638 122.542 254.499 124.27 253.355 125.224C252.097 126.273 252.01 126.536 251.967 126.708C251.939 126.82 251.966 126.909 252.009 126.994C252.032 127.041 252.08 127.08 252.159 127.102C252.345 127.154 252.538 127.095 253.332 126.635C254.062 126.212 255.43 125.366 256.598 124.73C257.766 124.095 258.687 123.684 259.268 123.458C260.044 123.156 260.365 123.175 260.408 123.238C260.451 123.301 260.197 123.43 258.537 124.395C256.877 125.36 253.733 127.159 252.084 128.107C250.436 129.055 250.38 129.097 251.625 128.56C252.871 128.022 255.421 126.903 257.152 126.227C258.883 125.552 259.719 125.354 260.22 125.251C260.722 125.149 260.863 125.149 260.887 125.199C261.183 125.827 259.594 126.179 259.308 126.421C259.077 126.617 258.722 127.035 258.266 127.606C257.592 128.449 257.348 128.639 257.168 128.854C256.938 129.13 256.718 129.284 256.525 129.412C256.193 129.634 255.817 129.884 255.559 130.056C255.433 130.14 255.245 130.313 254.86 130.549C253.878 131.149 253.471 131.343 253.177 131.523C252.728 131.796 252.141 132.272 251.767 132.546C251.373 132.835 251.095 133.161 250.909 133.354C250.68 133.592 250.437 133.804 250.129 134.055C249.89 134.249 249.564 134.435 249.363 134.563C249.081 134.744 248.82 135.006 248.598 135.143C248.366 135.285 248.09 135.422 247.889 135.579C247.635 135.779 247.389 136.137 247.096 136.451C246.878 136.686 246.659 136.952 246.145 137.466C245.933 137.679 245.729 137.783 245.557 137.89C245.472 137.926 245.385 137.969 245.3 138.026C245.257 138.055 245.214 138.083 245.127 138.112" stroke="white" stroke-width="5" stroke-linecap="round"/>
<path d="M258.047 130.515C258.061 130.43 258.488 129.945 259.224 129.274C259.555 128.971 260.054 128.436 260.374 128.124C261.062 127.45 261.552 127.025 261.852 126.746C262.271 126.356 262.439 126.18 262.682 125.994C262.834 125.877 262.954 125.765 263.26 125.552C263.969 125.057 264.471 124.634 264.642 124.521C264.879 124.363 265.185 124.064 265.493 123.763C265.664 123.596 266.184 123.093 266.935 122.336C267.522 121.743 267.862 121.687 268.055 121.587C268.107 121.56 268.162 121.53 268.737 121.338C269.311 121.146 270.402 120.792 270.992 120.596C271.642 120.379 271.896 120.285 272.26 120.171C272.962 119.951 273.513 119.37 273.728 119.183C273.962 118.98 274.271 118.783 274.786 118.525C275.067 118.384 275.287 118.353 275.524 118.267C275.813 118.162 276.117 118.025 276.461 117.888C276.78 117.762 276.976 117.667 277.155 117.559C277.353 117.44 277.577 117.437 277.756 117.337C277.963 117.222 278.135 117.165 278.392 117.087C278.69 116.996 279.007 116.922 279.208 116.858C279.395 116.798 279.58 116.623 279.773 116.479C279.964 116.337 280.152 116.25 280.331 116.164C280.58 116.044 280.796 115.907 281.004 115.835C281.182 115.773 281.354 115.72 281.526 115.656C281.709 115.587 281.869 115.506 282.084 115.363C282.306 115.215 282.499 115.091 282.614 115.012C282.706 114.949 282.315 115.019 282.143 115.033C281.913 115.052 281.232 115.119 280.345 115.148C279.667 115.169 279.154 115.219 278.817 115.241C278.652 115.251 278.126 115.277 277.397 115.284C276.79 115.29 276.478 115.348 276.198 115.37C275.943 115.389 275.323 115.533 274.397 115.584C274.145 115.598 273.902 115.62 273.609 115.627C273.358 115.633 272.704 115.663 271.846 115.656C271.441 115.652 271.212 115.62 270.969 115.627C270.81 115.632 270.512 115.705 269.552 115.763C268.834 115.806 267.643 115.763 267.009 115.749C266.175 115.73 265.86 115.677 264.905 115.67C264.559 115.667 263.947 115.706 263.147 115.72C262.593 115.73 262.313 115.82 261.477 115.828C260.867 115.833 260.296 115.82 259.745 115.842C259.494 115.852 258.84 115.878 257.953 115.856C257.204 115.838 256.904 115.592 256.568 115.47C256.465 115.433 256.333 115.448 256.289 115.477C256.244 115.505 256.287 115.562 256.401 115.626C256.515 115.691 256.699 115.762 256.992 115.834C257.285 115.905 257.682 115.976 259.274 116.098C260.867 116.219 263.643 116.389 265.413 116.548C267.183 116.706 267.863 116.848 268.731 116.942C269.598 117.036 270.632 117.079 271.207 117.115C271.869 117.156 271.997 117.208 272.047 117.251C272.08 117.279 272.027 117.378 271.991 117.436C271.93 117.535 271.586 117.679 271.001 117.929C270.701 118.057 270.387 118.165 269.504 118.407C268.621 118.65 267.176 119.018 266.064 119.378C264.951 119.737 264.215 120.077 263.679 120.344C262.821 120.773 262.455 121.028 262.291 121.128C261.766 121.448 261.07 121.656 260.603 122.05C260.231 122.364 260.137 122.915 259.908 123.359C259.866 123.442 259.808 123.432 259.765 123.39C259.656 123.282 259.48 122.976 259.031 122.513C258.757 122.229 258.313 121.922 258.017 121.676C257.551 121.29 257.191 120.817 256.727 120.062C256.454 119.617 256.193 118.995 255.976 118.582C255.43 117.542 254.858 117.209 254.579 117.073C254.33 116.951 254.185 116.709 253.963 116.13C253.917 116.01 253.927 115.964 253.905 115.942C253.858 115.894 253.67 115.949 253.413 115.999C253.159 116.048 252.43 116.049 251.359 116.021C250.14 115.989 249.78 115.778 249.499 115.742C249.248 115.709 248.991 115.677 248.57 115.656C248.433 115.635 248.333 115.606 248.084 115.584C247.892 115.577 247.566 115.577 247.23 115.577" stroke="white" stroke-width="5" stroke-linecap="round"/>
<path d="M243.067 117.036C243.067 117.522 243.096 117.722 243.117 117.93C243.139 118.139 243.21 118.395 243.275 118.581C243.336 118.758 243.353 119.024 243.41 119.232C243.471 119.453 243.582 119.824 243.668 120.155C243.741 120.434 243.739 120.87 243.79 121.106C243.806 121.183 243.797 121.298 243.797 121.151C243.797 120.071 243.726 119.785 243.704 119.662C243.67 119.47 243.64 120.083 243.618 120.255C243.596 120.433 243.511 120.598 243.454 120.77C243.425 120.856 243.397 120.956 243.375 121.063C243.365 121.113 243.368 121.156 243.403 121.065C243.648 120.432 243.625 120.114 243.604 119.978C243.58 119.826 243.283 120.098 243.111 120.205C243.07 120.231 243.025 120.241 242.989 120.291C242.827 120.515 242.967 120.812 243.06 121.071C243.136 121.282 243.181 121.457 243.232 121.806C243.363 122.721 243.282 123.242 243.246 123.738C243.217 124.146 243.139 124.574 243.103 124.969C243.078 125.238 243.024 125.434 242.982 125.699C242.896 126.228 242.967 127.065 242.967 127.7C242.968 128.342 242.867 128.711 242.846 128.926C242.812 129.254 242.781 129.769 242.774 130.213C242.77 130.434 242.853 130.77 242.81 131.029C242.778 131.221 242.724 131.444 242.688 131.644C242.666 131.771 242.667 131.902 242.638 132.03C242.604 132.186 242.595 132.912 242.588 133.899C242.582 134.789 242.581 135.793 242.602 136.001C242.609 136.051 242.623 136.094 242.631 136.151C242.638 136.209 242.638 136.279 242.638 136.352" stroke="white" stroke-width="5" stroke-linecap="round"/>
<path d="M245.901 122.445C245.887 122.899 245.886 123.874 245.908 124.403C245.927 124.863 245.972 125.176 246.15 125.926C246.292 126.521 246.315 126.779 246.337 127.058C246.357 127.31 246.401 127.737 246.423 128.053C246.451 128.468 246.487 128.754 246.488 129.011C246.489 129.735 246.202 130.212 245.938 130.627C245.639 131.096 245.558 131.343 245.465 131.594C245.251 132.166 245.329 133.174 245.335 133.376C245.339 133.496 245.798 132.979 246.262 132.521C246.442 132.344 246.515 132.29 247.139 131.694C247.763 131.098 248.939 129.965 249.63 129.325C250.652 128.376 250.879 128.369 251.022 128.276C251.086 128.234 251.108 128.169 251.109 128.105C251.111 127.715 250.453 127.24 249.881 126.875C249.21 126.446 248.608 126.609 248.099 126.644C247.991 126.652 247.892 126.652 247.862 126.659C247.832 126.666 247.874 126.68 247.918 126.694" stroke="white" stroke-width="5" stroke-linecap="round"/>
<path d="M244.32 138.949C244.298 138.949 244.236 138.954 244.199 138.959C244.134 138.967 244.103 138.966 244.083 138.956C244.055 138.942 244.037 138.941 244.016 138.934C243.988 138.924 243.942 138.9 243.919 138.887C243.902 138.877 243.887 138.863 243.871 138.851C243.854 138.837 243.827 138.818 243.804 138.804C243.784 138.792 243.77 138.783 243.743 138.776C243.701 138.766 243.681 138.759 243.663 138.754C243.645 138.748 243.624 138.741 243.604 138.736C243.576 138.73 243.563 138.714 243.547 138.7C243.529 138.684 243.494 138.668 243.472 138.655C243.45 138.642 243.435 138.628 243.42 138.62C243.409 138.615 243.427 138.648 243.43 138.67C243.437 138.71 243.426 138.789 243.429 138.831C243.431 138.854 243.434 138.883 243.437 138.916C243.445 139.005 243.441 139.036 243.445 139.066C243.447 139.092 243.449 139.183 243.446 139.239C243.444 139.267 243.436 139.295 243.424 139.325C243.408 139.365 243.388 139.396 243.382 139.413C243.364 139.467 243.341 139.536 243.336 139.555C243.331 139.57 243.308 139.619 243.29 139.658C243.278 139.684 243.267 139.708 243.256 139.738C243.236 139.792 243.214 139.833 243.201 139.859C243.171 139.928 243.165 139.949 243.154 139.98C243.152 139.989 243.152 139.999 243.152 140.008" stroke="white" stroke-width="5" stroke-linecap="round"/>
<path d="M243.234 140.496C243.227 140.495 243.206 140.495 243.184 140.505C243.164 140.512 243.147 140.518 243.134 140.525C243.126 140.53 243.116 140.536 243.098 140.543" stroke="white" stroke-width="5" stroke-linecap="round"/>
<path d="M286.689 53.04C286.713 53.04 286.736 53.04 286.725 53.0753C286.636 53.3486 286.263 53.4908 286.036 53.7404C285.821 53.9774 285.621 54.204 285.335 54.3944C285.049 54.5848 284.718 54.7746 284.349 54.9532C284.047 55.0994 283.766 55.3451 283.469 55.6183C283.121 55.9375 282.886 56.2238 282.696 56.5929C282.534 56.907 282.222 57.1752 281.959 57.4609C281.64 57.8084 281.27 58.0083 280.984 58.1744C280.688 58.3471 280.414 58.5546 280.105 58.7803C279.663 59.103 279.44 59.5046 279.071 59.8145C278.767 60.0695 278.489 60.3133 278.191 60.4806C277.797 60.7021 277.255 61.1678 276.729 61.5854C276.417 61.8334 276.135 62.025 275.849 62.1805C275.564 62.3358 275.279 62.4301 274.994 62.5371C274.678 62.6552 274.376 62.8581 274.066 62.9533C273.771 63.0441 273.308 63.3088 272.925 63.5235C272.776 63.6072 272.663 63.7375 272.58 63.8797C272.54 63.949 272.52 64.022 272.591 64.0466C273.11 64.2286 273.659 63.7867 273.993 63.7264C274.137 63.7004 274.279 63.6433 274.362 63.6547C274.704 63.7015 273.853 64.236 273.567 64.3915C273.271 64.5525 272.997 64.8066 272.723 65.033C272.435 65.2709 272.259 65.6624 271.998 65.8771C271.711 66.1129 271.287 66.5882 270.928 66.8873C270.637 67.1306 270.311 67.3741 269.741 67.8013C268.892 68.4379 268.693 68.8718 268.444 69.1575C268.204 69.4318 267.886 69.8218 267.506 70.1674C266.826 70.7844 265.895 71.6947 265.07 72.6023C263.886 73.9052 263.393 74.268 262.941 74.6606C262.414 75.1185 261.919 75.8114 261.55 76.3366C261.265 76.7413 260.825 77.3348 260.563 77.6447C260.258 78.0048 259.827 78.2391 259.529 78.4413C259.22 78.6509 259.018 79.0707 258.78 79.3917C258.447 79.8398 258.328 80.1405 258.102 80.4854C257.905 80.7868 257.71 81.1148 257.389 81.6023C257.314 81.7165 257.235 81.7809 257.246 81.782C257.371 81.7945 257.989 80.9336 258.927 79.7344C259.825 78.5861 260.228 78.3604 260.632 78.0747C261.03 77.793 261.369 77.3148 261.796 76.9814C262.249 76.6285 262.557 76.3634 262.95 76.0778C263.338 75.7952 263.58 75.7443 263.652 75.673C263.889 75.4376 262.751 76.0039 261.591 76.6786C261.023 77.009 260.222 77.6572 259.55 78.2431C258.879 78.829 258.385 79.3703 258.001 79.8963C257.289 80.8702 256.903 81.7082 256.57 82.1949C256.191 82.7511 255.927 83.0647 255.642 83.4331C255.265 83.9201 254.953 84.2301 254.277 85.0702C253.589 85.9264 252.792 86.8426 252.044 87.4481C251.359 88.0027 251.007 88.3653 250.318 89.2557C249.871 89.8336 249.532 90.3865 249.14 90.7556C248.87 91.01 248.558 91.2666 248.307 91.5522C248.035 91.8625 247.796 92.1938 247.547 92.5386C247.336 92.8303 247.154 93.1209 247.094 93.4066C247.033 93.6977 246.916 93.9768 246.798 94.2742C246.642 94.6635 246.37 94.904 246.156 95.2014C245.885 95.5777 245.61 95.7841 245.289 96.14C244.865 96.6103 244.73 96.901 244.575 97.1984C244.365 97.6014 243.969 97.7097 243.814 97.9711C243.648 98.2503 243.517 98.5413 243.279 98.827C243.224 98.8933 243.208 98.9693 243.172 98.9586C243.044 98.9202 243.041 98.5214 243.064 98.2001C243.071 98.1112 243.135 98.1847 243.159 98.2682C243.256 98.6004 242.994 98.8979 242.91 99.0894C242.777 99.394 243.016 98.4258 243.052 97.9975C243.087 97.5906 243.159 97.1178 243.243 96.7615C243.406 96.0644 243.444 95.5259 243.516 95.1917C243.578 94.904 243.35 94.6215 243.184 94.3359C242.995 94.0109 242.733 93.6944 242.519 93.397C242.455 93.3079 242.353 93.2194 242.328 93.2415C241.969 93.5592 243.014 94.5431 243.325 95.1062C243.372 95.1906 243.42 95.2606 243.409 95.3087C243.385 95.4146 243.208 95.4753 243.101 95.5469C242.815 95.7393 242.78 94.9068 242.744 94.5028C242.715 94.1832 242.566 93.9083 242.459 93.6227C242.337 93.2989 242.209 92.887 242.173 92.5529C242.141 92.2571 241.995 91.9827 241.9 91.697C241.805 91.4114 241.663 91.1268 241.236 90.6636C240.973 90.3788 240.831 90.057 240.676 89.7714C240.515 89.4756 240.355 89.2012 240.2 88.9155C240.051 88.6391 239.88 88.3453 239.572 87.9538C238.869 87.0602 238.549 86.8946 238.287 86.5979C237.859 86.1336 237.622 85.8491 237.348 85.6226C237.288 85.5631 237.241 85.4925 237.192 85.3484" stroke="white" stroke-width="5" stroke-linecap="round"/>
<path d="M238.69 84.0647C239.185 83.8992 240.187 83.661 240.685 83.4356C241.541 83.0488 242.634 82.3786 243.229 82.0687C243.683 81.832 244.061 81.6412 244.715 81.3555C245.242 81.1251 245.701 80.7625 246.047 80.5821C246.205 80.4997 246.463 80.4758 246.712 80.3214C246.88 80.2175 247.952 79.672 249.521 78.793C250.668 78.15 251.477 77.506 251.895 77.2186C252.343 76.911 253.47 76.153 254.705 75.2747C255.519 74.6959 256.277 73.9649 257.145 73.3351C257.871 72.8075 258.563 72.3224 258.814 72.0125C259.094 71.6657 259.679 71.0643 260.157 70.6456C260.543 70.3069 260.87 70.0159 261.392 69.6946C261.706 69.5016 262.011 69.3497 262.368 69.0883C262.736 68.8179 263.056 68.5652 263.449 68.3156C263.984 68.0189 264.531 67.638 264.933 67.3424C265.171 67.1409 265.477 66.835 265.792 66.5197" stroke="white" stroke-width="5" stroke-linecap="round"/>
<path d="M268.502 64.808C268.62 64.7374 268.737 64.6668 268.833 64.6069C268.929 64.547 269 64.4999 269.144 64.3801" stroke="white" stroke-width="5" stroke-linecap="round"/>
<path d="M242.541 86.5609C242.588 86.5138 242.895 86.2307 243.664 85.6501C245.45 84.3021 245.986 84.3043 246.438 84.0179C246.745 83.8239 247.104 83.6852 247.39 83.554C247.539 83.4853 247.722 83.3051 248.195 82.9973C249.07 82.4272 250.168 81.9992 250.881 81.536C251.505 81.1298 252.282 80.7867 253.13 80.2155C253.71 79.8244 254.375 79.1007 255.411 78.5152C256.369 77.9736 256.875 77.9082 257.161 77.7296C257.303 77.67 257.658 77.5045 258.121 77.267C258.302 77.1708 258.373 77.1237 258.446 77.0752" stroke="white" stroke-width="5" stroke-linecap="round"/>
<path d="M259.516 76.5046L259.801 76.4333" stroke="white" stroke-width="5" stroke-linecap="round"/>
<path d="M243.184 91.5533C243.513 91.2238 243.843 90.8943 244.354 90.2656C244.865 89.6369 245.547 88.719 245.969 88.1167C246.869 86.8337 247.318 86.1829 248.121 85.4144C248.697 84.8639 249.678 84.0575 250.634 83.3272C251.59 82.5968 252.508 81.9849 253.028 81.6344C253.548 81.2838 253.642 81.2132 253.739 81.0692" stroke="white" stroke-width="5" stroke-linecap="round"/>
<path d="M176.11 181.609C175.95 181.564 175.356 181.358 174.688 181.236C174.411 181.186 174.251 181.161 173.782 181.075C173.215 180.972 173.045 181.092 172.907 181.121C172.748 181.154 172.563 181.196 172.312 181.224C171.558 181.31 171.301 181.173 171.025 181.201C170.609 181.244 170.313 181.242 170.141 181.224C169.809 181.191 169.395 181.173 168.673 181.156C168.453 181.15 168.338 181.127 168.263 181.144C168.213 181.155 168.303 181.264 168.292 181.333C168.248 181.6 167.776 181.745 167.409 182.198C167.139 182.532 167.006 182.78 166.869 183.007C166.751 183.205 166.506 183.554 166.258 183.849C166.01 184.144 165.76 184.371 165.403 184.727C165.047 185.083 164.593 185.56 164.33 185.829C163.919 186.249 163.643 186.407 163.327 186.591C163.138 186.701 163.034 186.844 162.994 186.913C162.974 186.946 162.965 186.981 163.01 186.976C163.165 186.958 163.445 186.844 164.164 186.651C164.705 186.505 165.587 186.207 166.078 186.055C166.634 185.883 166.832 185.834 167.198 185.663C168.225 185.182 168.348 185.019 168.555 184.927C168.705 184.86 168.899 184.824 169.255 184.624C169.5 184.485 169.703 184.41 169.858 184.353C170.123 184.255 170.687 183.942 171.012 183.75C171.139 183.676 171.253 183.561 171.419 183.458C171.573 183.378 171.735 183.286 171.924 183.171C172.044 183.102 172.215 183.011 172.459 182.883" stroke="white" stroke-width="5" stroke-linecap="round"/>
<path d="M178.59 181.127C178.499 181.184 178.247 181.298 178.074 181.368C177.817 181.471 177.385 181.38 176.961 181.362C176.833 181.357 176.754 181.333 176.702 181.322C176.586 181.297 176.982 181.185 177.183 181.133C177.378 181.082 177.522 181.07 177.774 181.052C177.993 181.037 178.245 181.001 178.388 180.949C178.56 180.887 178.693 180.829 178.831 180.805C178.983 180.78 179.106 180.713 179.25 180.685C179.414 180.652 179.565 180.645 179.646 180.662C179.874 180.71 179.279 180.84 179.142 180.863C178.989 180.888 178.866 180.977 178.728 181.023C178.59 181.069 178.453 181.115 178.315 181.161C178.177 181.207 178.04 181.253 177.896 181.299C177.721 181.355 177.557 181.413 177.414 181.477C177.247 181.55 177.087 181.643 176.84 181.775C176.62 181.893 176.455 181.976 175.946 182.199C175.769 182.277 175.563 182.354 175.157 182.486C174.75 182.617 174.148 182.799 173.633 183.007C172.685 183.388 172.23 183.698 172.116 183.755C171.893 183.867 171.544 184.076 171.072 184.272C170.625 184.457 170.428 184.639 169.908 184.954C169.36 185.285 168.89 185.466 168.695 185.603C168.591 185.672 168.478 185.741 168.379 185.799C168.281 185.856 168.202 185.902 168.12 185.949" stroke="white" stroke-width="5" stroke-linecap="round"/>
<path d="M163.091 191.184C163.159 191.116 163.558 190.739 164.166 190.2C164.49 189.913 164.675 189.887 164.744 189.835C164.78 189.808 164.812 189.772 164.767 189.732C164.392 189.395 163.952 189.29 163.901 189.153C163.804 188.894 164.054 188.443 164.57 187.656C164.715 187.435 164.756 187.327 164.739 187.264C164.71 187.158 164.163 187.291 163.355 187.531C162.951 187.651 162.582 187.839 161.991 188.251C161.4 188.663 160.604 189.311 160.03 189.809C159.455 190.308 159.125 190.638 158.774 190.944C158.422 191.25 158.058 191.523 157.712 191.754C156.718 192.418 156.582 192.412 156.547 192.412C156.451 192.413 156.718 192.104 157.112 191.641C157.39 191.315 157.881 190.849 158.303 190.489C158.725 190.13 159.077 189.903 159.446 189.706C160.174 189.318 160.679 189.129 160.868 189.032C161.017 188.955 161.139 188.922 161.196 188.905C161.209 188.901 161.186 188.944 160.543 189.405C159.901 189.866 158.639 190.753 157.972 191.226C157.266 191.728 157.145 191.837 156.984 191.952C156.728 192.136 156.365 192.365 155.953 192.622C155.291 193.036 154.815 193.456 154.625 193.622C154.453 193.774 154.286 193.881 153.708 194.482C153.362 194.841 153.127 194.972 152.623 195.447C152.387 195.669 152.174 195.822 152.036 195.902C151.892 195.985 151.76 196.108 151.622 196.183C151.46 196.272 151.29 196.453 151.14 196.556C150.946 196.691 150.75 196.935 150.584 197.141C150.255 197.55 149.901 197.726 149.694 197.905C149.445 198.12 149.132 198.381 148.616 198.885C148.305 199.189 148.178 199.335 147.897 199.467C147.727 199.546 147.593 199.645 147.455 199.719C147.326 199.789 147.146 200 146.944 200.133C146.762 200.253 146.491 200.334 146.353 200.414C146.209 200.497 146.1 200.62 145.974 200.73C145.905 200.792 145.847 200.862 145.796 200.93C145.767 200.965 145.733 200.999 145.629 201.103" stroke="white" stroke-width="5" stroke-linecap="round"/>
<path d="M228 113L227 152" stroke="white"/>
<path d="M237.033 124.256C237.013 124.256 236.993 124.256 236.953 125.089C236.912 125.922 236.852 127.588 236.831 128.577C236.805 129.826 236.911 130.296 237.052 130.641C237.115 130.793 237.234 130.864 237.326 130.906C237.487 130.978 237.782 130.847 238.306 130.484C239.151 129.9 239.628 129.245 239.86 128.932C240.182 128.499 240.459 127.768 240.682 126.908C240.789 126.496 240.784 126.109 240.744 125.501C240.704 124.893 240.604 124.07 240.492 123.415C240.3 122.291 240.035 121.602 239.853 121.247C239.781 121.108 239.711 121.073 239.62 121.093C238.9 121.246 238.616 122.791 238.404 123.832C238.165 125 238.209 125.715 238.25 125.837C238.27 125.898 238.29 125.958 238.361 125.889C238.597 125.657 238.897 124.81 239.331 123.506C239.564 122.81 239.746 122.021 239.89 120.925C240.033 119.829 240.114 118.444 240.135 117.671C240.156 116.897 240.116 116.776 240.045 116.815C239.974 116.853 239.874 117.054 239.662 118.01C239.449 118.967 239.128 120.673 238.963 121.653C238.797 122.632 238.797 122.833 238.898 122.635C238.998 122.437 239.199 121.835 239.362 121.234C239.526 120.632 239.647 120.05 239.719 119.459C239.953 117.539 239.589 116.959 239.406 116.653C239.369 116.59 239.325 116.532 239.465 116.451C239.894 116.202 240.317 116.126 240.439 116.025C240.582 115.906 240.622 115.6 240.582 115.256C240.553 115.003 240.319 114.909 240.177 114.838C239.578 114.538 238.616 114.807 238.019 114.848C237.432 114.888 236.996 114.989 236.457 115.02C236.262 115.031 235.66 115.071 234.819 115.081C233.913 115.092 232.98 115.051 232.514 114.96C231.498 114.759 231.155 114.808 230.8 114.716C230.121 114.54 229.857 114.605 229.553 114.534C229.473 114.515 229.391 114.523 229.339 114.553C229.288 114.584 229.268 114.644 229.268 114.715C229.266 115.016 229.409 115.252 229.44 115.849C229.469 116.408 229.531 117.138 229.561 117.997C229.587 118.698 229.572 119.51 229.531 119.724C229.303 120.926 229.43 117.077 229.41 117.34C229.364 117.939 229.247 118.334 229.136 118.77C229.031 119.183 228.964 119.59 228.933 120.602C228.918 121.115 228.842 121.396 228.832 121.841C228.824 122.17 228.963 122.651 229.064 123.099C229.227 123.81 229.085 124.923 229.075 125.996C229.07 126.51 229.186 126.951 229.237 127.436C229.373 128.749 229.146 129.121 229.116 129.425C229.099 129.589 229.065 130.292 229.085 131.335C229.097 131.96 229.186 132.645 229.176 133.416C229.167 134.13 229.106 134.738 229.075 135.622C229.047 136.426 229.065 137.952 229.055 138.768C229.041 139.848 228.964 140.333 228.933 141.022C228.902 141.711 228.842 142.726 228.771 143.121C228.607 144.03 228.862 144.429 228.922 145.255C229.039 146.84 228.963 147.918 229.004 148.039C229.102 148.333 229.105 148.708 229.116 149.305C229.122 149.645 229.025 149.924 228.943 150.108C228.835 150.354 228.963 149.44 229.014 148.995C229.026 148.892 229.044 148.832 229.075 148.761C229.14 148.607 229.829 148.246 230.872 147.8C231.405 147.572 231.86 147.413 232.477 147.1C233.578 146.54 233.909 146.277 234.375 146.023C235.301 145.519 236.361 145.406 236.748 145.212C237.231 144.97 238.063 144.575 238.522 144.37C238.737 144.275 238.979 144.127 239.482 143.725C241.339 142.24 241.615 141.958 241.656 141.856C241.735 141.663 241.111 141.835 240.596 142.057C239.752 142.42 239.123 142.868 238.529 143.252C238.102 143.526 237.392 143.916 236.85 144.183C235.526 144.834 234.988 144.876 234.561 145.099C234.287 145.243 233.993 145.343 233.649 145.485C233.156 145.688 232.858 145.849 232.301 146.133C231.822 146.377 231.499 146.316 231.195 146.407C230.833 146.516 230.506 146.963 230.211 147.228C230.15 147.283 230.06 147.289 230.099 147.26C230.28 147.121 230.524 147.006 230.967 146.664C231.342 146.374 232.051 145.881 233.016 145.261C233.98 144.641 235.184 143.918 235.995 143.395C236.806 142.873 237.188 142.571 237.716 142.256C238.874 141.563 239.689 141.208 239.921 141.056C240.45 140.71 241.025 140.599 241.402 140.397C241.474 140.357 241.533 140.335 241.494 140.335C240.912 140.331 240.199 140.72 239.077 141.204C238.017 141.661 237.379 142.099 237.177 142.169C236.53 142.395 236.021 142.646 235.515 142.818C235 142.993 234.643 143.172 234.006 143.446C232.69 144.01 232.392 144.227 232.067 144.4C231.606 144.644 231.116 145.076 230.658 145.635C230.384 145.97 230.06 146.052 229.735 146.114C229.69 146.122 229.713 146.034 230.316 145.451C230.918 144.868 232.103 143.764 232.883 143.075C233.664 142.385 234.005 142.144 234.382 141.91C235.147 141.433 235.654 141.167 236.046 140.905C237.563 139.893 238.086 139.708 238.381 139.565C238.724 139.399 239.16 139.221 239.466 139.048C239.58 138.983 239.709 138.956 239.841 138.916C239.99 138.87 239.633 138.995 238.282 139.6C237.349 140.017 236.007 140.846 235.263 141.28C234.434 141.763 234.176 141.936 233.832 142.138C233.518 142.323 233.062 142.604 232.475 142.878C231.474 143.344 230.367 143.962 229.978 144.147C229.92 144.174 229.857 144.187 229.796 144.187C229.735 144.188 229.674 144.168 229.703 144.087C229.733 144.006 229.853 143.866 230.808 143.231C231.764 142.597 233.55 141.473 234.812 140.623C236.073 139.773 236.756 139.231 237.65 138.63C238.543 138.03 239.627 137.388 240.256 137.027C241.215 136.476 241.412 136.402 241.403 136.431C241.378 136.513 241.133 136.602 240.177 137.065C239.22 137.529 237.514 138.332 236.193 139.036C234.873 139.741 233.989 140.323 233.354 140.713C232.375 141.314 231.663 141.571 231.117 141.733C230.534 141.906 229.84 142.158 229.421 142.342C229.254 142.415 229.126 142.565 229.045 142.686C229.009 142.74 229.044 142.807 229.095 142.839C229.38 143.014 229.854 142.547 231.181 141.44C232.333 140.481 234.436 138.688 235.753 137.617C237.069 136.546 237.531 136.245 238.02 135.98C238.989 135.453 239.688 135.166 239.73 135.094C240.013 134.618 238.476 135.669 237.819 136.164C237.099 136.707 236.589 137.231 236.175 137.494C235.762 137.756 235.111 137.941 234.172 138.184C232.986 138.49 231.947 138.691 231.33 138.974C230.154 139.514 229.492 140.698 229.379 141.094C229.354 141.183 229.369 141.266 229.399 141.328C229.429 141.389 229.489 141.429 230.404 140.567C231.318 139.704 233.084 137.938 234.085 136.957C235.248 135.818 235.552 135.632 235.885 135.46C236.114 135.342 236.479 135.188 237.106 134.955C238.609 134.397 239.588 134.07 239.739 133.979C240.125 133.748 240.317 133.664 240.308 133.644C240.28 133.581 240.038 133.664 239.212 133.975C238.386 134.287 236.941 134.889 235.996 135.33C235.05 135.77 234.649 136.031 234.332 136.266C234.014 136.501 233.794 136.702 233.349 137.056C232.254 137.928 231.438 138.549 231.226 138.772C230.911 139.101 230.425 139.138 229.908 139.129C229.829 139.127 229.875 139.039 230.207 138.656C230.539 138.274 231.161 137.571 231.943 136.768C232.725 135.964 233.649 135.081 234.596 134.285C235.544 133.489 236.487 132.806 237.114 132.394C238.479 131.497 239.342 131.294 239.648 131.069C239.766 130.983 239.892 130.907 239.943 130.876C240.04 130.818 238.867 131.53 237.418 132.391C236.42 132.984 235.661 133.739 235.128 134.271C234.852 134.548 234.541 134.576 234.398 134.597C234.369 134.601 234.457 134.497 235.1 134.215C235.744 133.933 236.948 133.451 237.769 133.162C238.974 132.739 239.546 132.711 239.689 132.721C239.83 132.731 239.325 132.772 238.993 132.802C238.316 132.863 237.363 133.075 236.301 133.368C235.192 133.674 234.48 134.109 234.146 134.342C233.634 134.699 233.384 134.86 233.243 134.881C233.162 134.892 233.061 134.861 232.999 134.79C232.938 134.72 232.918 134.599 232.937 134.457C232.981 134.147 233.421 133.587 234.52 132.457C235.253 131.703 236.442 130.684 237.142 130.016C238.078 129.123 238.35 128.718 238.573 128.455C239.173 127.746 239.303 126.936 239.325 125.721C239.344 124.649 238.799 123.713 238.495 123.154C238.407 122.992 238.19 123.886 238.108 125.429C238.056 126.43 238.108 127.876 238.168 128.842C238.229 129.807 238.329 130.249 238.431 130.366C238.533 130.483 238.633 130.262 238.725 129.787C238.817 129.312 238.897 128.589 238.979 127.183C239.06 125.777 239.14 123.71 239.212 122.514C239.299 121.054 239.506 120.548 239.568 119.922C239.606 119.537 239.348 119.015 239.205 118.254C238.879 116.524 238.838 115.416 238.788 115.335C238.732 115.245 238.575 115.818 238.313 117.338C238.107 118.531 237.93 120.605 237.786 122.533C237.642 124.462 237.582 126.188 237.511 127.057C237.44 127.926 237.359 127.886 237.278 127.735C237.068 127.345 236.973 126.572 236.882 125.752C236.844 125.414 236.851 125.233 236.66 123.875C236.469 122.517 236.088 119.988 235.892 118.595C235.695 117.202 235.695 117.021 235.695 116.978C235.695 116.935 235.695 117.036 235.514 119.988C235.334 122.94 234.972 128.741 234.796 131.891C234.62 135.04 234.64 135.361 234.711 135.426C234.883 135.585 235.207 134.501 235.551 133.107C235.749 132.304 235.854 131.272 235.816 129.711C235.778 128.15 235.558 126.082 235.454 124.846C235.322 123.273 235.451 122.556 235.583 122.039C235.625 121.873 235.734 121.943 235.785 122.687C235.837 123.431 235.857 124.856 236.068 126.774C236.279 128.693 236.681 131.061 236.938 132.402C237.195 133.743 237.295 133.984 237.387 134.168C237.479 134.352 237.559 134.473 237.66 134.324C237.762 134.175 237.883 133.754 237.935 133.125C237.987 132.496 237.966 131.673 237.745 129.212C237.524 126.751 237.103 122.676 236.875 120.546C236.648 118.417 236.628 118.357 236.618 118.366C236.55 118.425 236.628 118.659 236.768 120.206C236.898 121.632 237.11 124.363 237.284 126.01C237.458 127.658 237.578 128.139 237.65 128.327C237.723 128.515 237.743 128.395 237.632 126.376C237.522 124.356 237.282 120.442 237.188 118.546C237.094 116.65 237.154 116.891 237.215 117.286C237.483 119.019 237.621 119.612 237.622 119.694C237.623 119.919 237.117 118.968 236.662 117.968C236.088 116.707 235.858 115.762 235.716 115.448C235.588 115.165 235.453 114.849 235.23 114.586C234.978 114.287 234.561 114.362 234.267 114.462C234.152 114.501 234.055 114.683 233.973 114.866C233.891 115.048 233.851 115.269 233.91 116.587C233.97 117.905 234.131 120.314 234.133 122.79C234.135 125.265 233.975 127.734 233.922 129.237C233.87 130.74 233.93 131.201 233.991 131.55C234.226 132.889 235.066 133.927 235.077 134.332C235.09 134.84 234.642 135.547 234.439 136.126C234.399 136.239 234.378 136.299 234.337 136.32C234.297 136.341 234.236 136.321 234.175 136.27C234.038 136.157 233.932 135.856 233.84 134.869C233.768 134.086 233.809 132.718 233.769 131.754C233.729 130.79 233.649 130.268 233.668 128.203C233.687 126.137 233.807 122.544 233.909 120.392C234.011 118.24 234.092 117.638 234.133 117.287C234.215 116.595 234.235 115.584 234.185 114.86C234.171 114.667 234.154 114.504 234.104 114.352C234.079 114.278 234.033 114.22 233.962 114.23C233.892 114.239 233.791 114.319 233.348 114.782C232.905 115.245 232.122 116.088 231.679 116.592C231.13 117.217 230.992 117.643 230.86 118.119C230.758 118.487 230.768 119.001 230.939 120.451C231.07 121.566 231.45 123.427 231.636 124.55C231.822 125.672 231.842 125.993 231.782 126.721C231.722 127.448 231.582 128.572 231.469 129.322C231.357 130.072 231.277 130.413 231.235 131.02C231.194 131.628 231.194 132.491 231.234 133.217C231.274 133.942 231.354 134.504 231.396 135.015C231.519 136.537 231.236 137.148 231.013 137.726C230.929 137.941 230.91 138.002 230.9 137.591C230.89 137.181 230.89 136.298 230.97 135.542C231.116 134.17 231.376 133.362 231.396 132.887C231.408 132.613 231.457 132.272 231.537 131.815C231.618 131.358 231.739 130.796 231.801 129.794C231.863 128.792 231.863 127.367 231.903 125.639C231.943 123.911 232.023 121.924 232.175 120.318C232.327 118.712 232.548 117.548 232.652 116.898C232.771 116.152 232.674 115.984 232.593 115.852C232.503 115.706 232.411 115.538 232.26 115.416C232.181 115.354 232.048 115.375 231.936 115.415C231.424 115.598 230.813 116.585 230.353 117.128C230.111 117.414 229.958 118.228 229.896 119.482C229.831 120.821 230.22 121.679 230.321 122.003C230.42 122.317 230.403 122.994 230.393 123.824C230.387 124.295 230.302 124.599 230.191 125.113C229.999 126.005 229.836 126.788 229.684 127.183C229.569 127.484 229.41 127.862 229.259 128.469C229.07 129.223 229.165 130.212 229.347 131.123C229.459 131.68 229.672 132.502 229.874 133.535C230.091 134.639 230.402 135.931 230.524 136.41C230.548 136.501 230.565 136.582 230.605 136.614C230.685 136.676 231.19 135.721 231.848 134.322C232.144 133.695 232.207 133.262 232.258 131.832C232.298 130.704 232.249 128.756 232.248 127.552C232.248 125.947 232.269 125.393 232.118 124.718C231.998 124.182 231.746 123.261 231.582 122.875C231.418 122.49 231.337 122.671 231.246 123.075C231.154 123.479 231.054 124.101 230.992 125.034C230.93 125.967 230.91 127.192 230.98 128.696C231.05 130.2 231.211 131.946 231.304 132.886C231.396 133.826 231.416 133.906 231.447 133.987C231.477 134.069 231.517 134.149 231.568 134.09C231.619 134.031 231.679 133.83 231.77 133.195C231.862 132.56 231.982 131.496 232.024 130.466C232.066 129.436 232.026 128.473 231.965 127.886C231.885 127.11 231.661 126.832 231.489 126.67C231.337 126.527 231.073 126.588 230.831 126.648C230.306 126.779 229.94 127.598 229.714 127.986C229.485 128.38 229.268 128.635 229.227 128.766C229.133 129.07 229.59 129.384 229.774 129.709C230.042 130.185 230.179 130.459 230.352 130.713C230.385 130.763 230.463 130.724 231.497 129.118C232.532 127.512 234.539 124.32 235.895 122.315C237.25 120.309 237.892 119.587 238.384 119.094C239.157 118.319 239.567 118.052 239.628 117.881C239.719 117.624 239.629 117.383 239.558 117.231C239.321 116.722 238.317 116.431 237.795 116.187C237.307 115.959 237.217 115.639 236.963 115.568C236.817 115.527 236.348 115.698 235.619 116.001C234.942 116.283 234.34 116.671 233.642 116.914C232.366 117.359 231.946 117.099 231.368 116.897C230.981 116.761 230.689 116.612 230.374 116.511C229.941 116.372 229.674 116.247 229.269 116.247C229.077 116.246 228.944 116.408 228.842 116.53C228.795 116.586 228.781 116.651 228.781 116.732C228.779 117.295 229.388 117.868 229.49 118.121C229.617 118.437 229.592 118.78 229.622 119.347C229.636 119.592 229.673 119.915 229.723 120.55C229.804 121.575 229.977 122.328 229.987 122.622C229.998 122.936 230.038 123.261 230.048 123.574C230.058 123.869 230.099 124.153 230.189 125.751C230.272 127.209 230.46 129.979 230.533 131.627C230.626 133.714 230.485 134.271 230.434 134.484C230.323 134.948 230.645 135.948 230.948 137.364C231.215 138.605 231.194 139.36 231.184 139.633C231.153 140.473 231.093 141.53 231.002 141.894C230.815 142.641 230.667 143.293 230.475 143.901C230.296 144.469 230.1 145.075 229.937 145.645C229.896 146.214 229.856 146.477 229.846 146.72C229.835 146.823 229.815 146.883 229.795 146.945" stroke="white" stroke-width="2" stroke-linecap="round"/>
<path d="M226.753 90.6786C226.934 90.5374 227.339 90.2941 228.697 89.8212C229.886 89.4068 232.122 88.726 233.32 88.354C234.776 87.9019 235.105 87.8403 235.541 87.6481C235.833 87.5194 235.998 87.2527 236.252 86.9793C236.305 86.9221 236.263 86.8476 236.202 86.8065C235.852 86.5692 235.191 86.603 234.683 86.5526C234.117 86.4963 233.751 86.6432 233.425 86.7244C232.931 86.8476 232.19 86.906 231.632 87.2804C230.832 87.8169 230.647 88.1031 230.404 88.2448C230.15 88.392 229.998 88.6092 229.846 88.8428C229.672 89.1097 229.269 89.2783 228.944 89.5219C228.644 89.7467 228.457 90.0082 228.274 90.3023C228.091 90.5962 227.929 90.9207 227.899 91.4167C227.854 92.134 227.888 93.2322 227.969 93.5968C228.063 94.0202 228.131 94.3879 228.273 94.692C228.415 94.9969 228.496 95.2395 228.577 95.4831C228.679 95.787 228.8 96.1921 228.942 96.5975C229.116 97.0952 229.125 97.7104 229.176 98.2298C229.198 98.4613 229.206 98.6465 229.237 99.2396C229.315 100.774 229.227 101.89 229.196 102.183C229.097 103.143 229.287 103.391 229.318 103.786C229.33 103.94 229.369 104.381 229.359 104.989C229.343 105.922 229.268 107.303 229.186 107.689C229.114 108.031 229.165 108.439 229.136 108.894C229.08 109.736 229.186 110.222 229.126 110.619C229.085 110.883 228.963 111.116 228.923 111.501C228.863 112.063 228.659 112.534 228.588 112.869C228.485 113.357 228.517 113.75 228.637 113.995C229.08 114.895 229.712 112.883 230.036 112.507C230.371 112.12 230.645 111.747 230.888 111.453C231.185 111.095 231.415 110.734 231.922 110.186C232.381 109.689 232.956 109.09 233.321 108.847C233.834 108.505 234.192 107.835 234.679 107.448C235.201 107.034 235.651 106.679 236.209 106.273C236.722 105.9 237.173 105.441 237.607 105.128C238.454 104.518 238.754 104.204 239.16 103.829C239.661 103.367 240.155 102.846 240.771 102.198C241.086 101.868 241.31 101.528 241.393 101.304C241.575 100.806 240.198 101.95 238.873 102.881C238.051 103.459 237.135 104.12 236.791 104.465C236.23 105.027 235.657 105.661 235.159 106.107C234.726 106.496 234.237 107.058 233.821 107.647C233.144 108.604 232.371 109.068 232.026 109.291C231.591 109.573 231.175 109.919 230.88 110.163C230.576 110.415 230.283 110.81 229.978 111.046C229.873 111.126 229.734 111.157 229.653 111.178C229.262 111.277 229.633 110.206 229.551 109.962C229.511 109.841 229.53 109.678 229.621 109.516C229.796 109.205 230.721 108.748 231.724 108.05C232.178 107.734 232.465 107.413 232.821 106.996C233.604 106.08 234.132 105.38 234.375 105.127C234.857 104.626 235.45 104.041 236.289 103.243C236.817 102.741 237.314 102.482 237.802 102.136C238.269 101.804 238.816 101.386 239.16 101.092C239.512 100.791 240.793 99.8722 241.574 99.2563C241.698 99.1583 241.757 99.0127 241.788 98.9114C241.8 98.8711 241.718 98.8503 241.627 98.86C241.193 98.9063 240.686 99.1934 239.25 99.961C238.12 100.565 237.44 101.181 237.127 101.433C236.443 101.984 236.203 102.315 235.888 102.641C235.545 102.995 234.967 103.633 234.631 104.069C234.273 104.536 233.651 105.01 233.252 105.368C232.626 105.931 231.803 106.656 231.125 107.131C230.626 107.48 230.364 107.709 230.069 107.853C229.184 108.285 230.18 106.314 230.199 105.897C230.214 105.585 230.726 105.622 231.219 105.381C232.407 104.8 233.22 104.244 233.743 103.781C234.192 103.385 234.989 102.636 235.563 102.133C236.138 101.63 236.459 101.389 236.815 101.064C237.58 100.367 238.246 99.6636 238.783 99.208C239.415 98.6713 239.729 98.4658 240.113 98.0914C240.726 97.4936 240.965 97.2091 241.239 96.8439C241.477 96.5275 241.776 96.377 241.91 96.2851C242.083 96.1659 241.334 96.335 240.437 96.8378C239.718 97.2411 238.557 98.1033 237.716 98.6979C236.407 99.6239 235.838 100.106 235.656 100.308C235.329 100.671 234.844 101.119 234.298 101.626C234.011 101.892 233.709 102.113 233.345 102.326C232.498 102.82 232.148 103.107 231.843 103.269C231.507 103.449 231.135 103.634 230.809 103.847C230.369 104.135 229.918 104.465 229.613 104.719C229.552 104.77 229.491 104.81 229.46 104.58C229.363 103.854 229.49 103.271 229.631 103.149C230.112 102.737 231.41 102.341 232.255 101.953C232.691 101.754 233.138 101.446 234.044 100.802C234.735 100.312 235.794 99.3552 236.373 98.8494C237.187 98.1376 237.559 97.6155 237.843 97.2697C238.255 96.7682 238.613 96.4378 239.573 95.6498C240.391 94.979 240.681 94.3307 240.885 94.015C240.997 93.8409 241.149 93.7206 241.129 93.6695C241.108 93.6132 240.909 93.7589 240.144 94.3122C239.379 94.8654 238.014 95.8891 237.22 96.5169C236.217 97.3103 235.819 97.7529 235.374 98.1173C234.753 98.6251 234.358 98.7882 233.508 99.1021C232.933 99.3145 232.19 99.8211 231.55 100.399C231.234 100.685 230.911 100.796 230.465 101.069C230.345 101.143 230.223 101.201 230.14 101.192C229.99 101.175 229.977 100.437 230.057 99.5151C230.087 99.1671 230.298 99.0948 230.411 99.0434C230.768 98.8809 231.353 98.8101 231.699 98.6477C231.879 98.5633 232.446 98.2043 233.326 97.5671C234.132 96.984 234.518 96.5795 234.629 96.4482C234.777 96.2735 235.406 95.7322 236.347 94.8517C237.123 94.1252 237.56 93.7814 237.791 93.5396C238.288 93.0204 238.856 92.6263 239.31 92.3635C240.373 91.7491 241.063 91.3112 241.463 90.8118C241.528 90.7297 241.554 90.6396 241.524 90.5682C241.495 90.4967 241.394 90.4365 241.282 90.4155C240.849 90.3342 240.362 90.6372 239.108 91.3233C237.877 91.9968 237.176 92.6652 236.984 92.7562C236.618 92.9291 236.305 93.4134 235.859 93.8298C235.222 94.4229 234.824 94.9153 234.641 95.0874C234.581 95.1445 234.659 95.1993 234.751 95.2C234.966 95.2014 235.287 95.0789 235.782 94.9478C236.472 94.765 237.111 94.5114 237.878 94.2997C240.037 93.7035 240.317 93.5174 240.328 93.5171C240.553 93.5109 239.852 93.6391 239.64 93.5886C239.404 93.5324 239.203 93.3964 239.031 93.1342C238.512 92.3422 238.675 91.4541 238.635 90.7038C238.622 90.4525 238.515 90.4754 238.393 90.566C238.09 90.7918 237.885 91.063 237.613 91.3754C237.062 92.0085 236.588 92.442 236.265 92.7841C235.57 93.5223 234.947 94.3258 234.471 94.731C234.13 95.0214 233.509 95.3393 232.81 95.8152C232.148 96.2663 231.642 96.7383 231.074 97.2161C230.914 97.3505 230.809 97.4908 230.657 97.5519C230.523 97.6059 230.504 96.4469 230.524 94.8864C230.537 93.9132 230.119 93.6604 229.977 93.4067C229.818 93.1213 229.794 91.7054 229.734 90.8519C229.729 90.7781 229.693 90.7005 229.653 90.7093C229.508 90.7409 229.45 91.2029 229.389 91.9398C229.301 93.0146 229.389 93.8198 229.449 94.2036C229.654 95.5034 230.139 96.658 230.26 97.054C230.311 97.2198 230.301 97.3691 230.362 97.4905C230.394 97.5561 230.462 97.6118 230.503 97.5525C230.852 97.0491 230.625 96.2176 230.656 95.6078C230.67 95.3234 230.847 94.5175 231.08 93.2227C231.414 91.3681 231.315 90.9851 231.406 90.6691C231.422 90.612 231.536 90.6579 231.598 90.7084C231.726 90.8135 231.841 91.2631 232.094 92.4426C232.272 93.2756 232.446 94.6057 232.58 95.3785C232.796 96.6303 232.897 96.9026 232.907 97.0543C232.911 97.1263 232.937 97.186 232.947 97.0564C232.957 96.9269 232.957 96.6057 232.877 96.0287C232.797 95.4518 232.636 94.6288 232.503 94.0342C232.293 93.0929 232.147 92.5661 232.116 92.192C232.041 91.2724 232.268 90.4973 232.369 90.2938C232.389 90.253 232.47 90.2929 232.521 90.3835C232.652 90.6164 232.774 91.6232 233.016 93.0509C233.294 94.686 233.929 95.2395 234.123 95.4932C234.236 95.6426 234.336 95.7876 234.427 95.7885C234.505 95.7893 234.538 95.5485 234.589 94.9335C234.64 94.3185 234.68 93.2747 234.681 92.4961C234.682 91.2351 234.52 90.358 234.388 89.7299C234.315 89.3832 234.276 89.2193 234.245 89.1883C233.678 88.6101 234.882 91.3647 235.065 91.8626C235.353 92.6434 235.471 92.9682 235.593 93.3131C235.629 93.4161 235.694 93.5351 235.755 93.5871C235.816 93.6391 235.876 93.619 235.987 93.3678C236.099 93.1166 236.259 92.6348 236.352 91.8547C236.445 91.0746 236.465 90.0107 236.455 89.4325C236.445 88.8543 236.405 88.7941 236.354 88.733C236.249 88.6065 236.101 88.5295 235.889 88.4991C235.58 88.4547 235.21 88.5289 234.705 88.68C233.081 89.1666 232.471 89.7254 232.45 89.7458C231.771 90.4055 234.861 89.8063 235.358 89.837C235.551 89.8671 235.734 89.9079 236.017 89.9383C236.199 89.9486 236.46 89.9486 236.85 90.0095" stroke="white" stroke-width="2" stroke-linecap="round"/>
<path d="M216.5 93.5C220.446 119.217 221 128.5 216.5 160" stroke="white"/>
<path d="M228.28 98.9287C227.642 96.5392 227.321 94.4054 227.083 93.6822C226.785 92.7788 225.355 95.617 224.42 98.7561C223.703 101.164 225.448 103.602 227.023 105.769C227.293 106.14 227.478 106.278 227.585 106.175C227.946 105.83 227.748 103.371 227.589 100.203C227.505 98.5452 226.686 95.967 225.941 92.5585C225.67 91.3126 225.617 91.0489 225.59 91.0713C225.563 91.0937 225.563 91.4101 225.563 91.7362" stroke="white" stroke-width="2" stroke-linecap="round"/>
<path d="M226.515 96.0289C226.672 95.8238 227.129 95.3429 227.799 94.6368C228.401 94.0022 228.656 93.5616 228.687 93.4347C228.7 93.381 228.633 93.3438 228.591 93.3253C228.517 93.2932 228.367 93.3188 228.138 93.3549C227.881 93.3954 227.342 93.5358 226.701 93.6748C226.173 93.7893 225.73 94.0204 225.362 94.141C224.836 94.3132 224.532 94.3347 224.025 94.4858C223.834 94.5426 223.673 94.5408 223.546 94.5109C223.449 94.488 223.754 94.0958 224.159 93.6786C224.352 93.4801 224.757 93.3442 225.344 93.1689C225.698 93.0628 225.862 93.0527 225.898 93.0467C226.046 93.0224 225.368 93.0041 225.07 93.0946C224.881 93.1522 224.605 93.2698 224.202 93.4146C223.679 93.6019 223.13 93.7173 222.665 93.9102C221.818 94.2621 221.592 94.4922 221.193 94.6551C221.109 94.6897 221.072 94.686 221.041 94.704C220.907 94.7833 220.878 94.9756 220.667 95.1872C220.35 95.504 219.778 95.7131 219.553 95.8411C219.48 95.8827 219.39 95.8957 219.293 95.9378C219.179 95.9874 219.123 96.1131 219.087 96.2216C218.999 96.4859 219.243 96.8136 219.413 97.2011C219.521 97.4478 219.474 97.9729 219.516 98.4111C219.523 98.4861 219.558 98.5442 219.72 99.0481C219.882 99.5521 220.182 100.498 220.42 101.698C220.658 102.898 220.826 104.324 220.924 105.094C221.032 105.938 221.119 106.297 221.191 106.769C221.22 106.952 221.216 107.025 221.198 107.05C221.18 107.075 221.144 107.051 221.102 106.985C221.059 106.918 221.011 106.811 220.909 106.468C220.806 106.125 220.651 105.55 220.552 105.116C220.393 104.412 220.381 103.943 220.375 103.653C220.371 103.42 220.321 103.18 220.273 102.98C220.216 102.746 220.2 102.455 220.164 102.164C220.138 101.96 220.043 101.537 219.91 101.041C219.78 100.555 219.849 100.204 219.873 99.7473C219.893 99.3633 219.897 98.6683 219.921 98.3344C219.945 98.0005 219.981 98.0484 220.072 98.1988C220.529 98.9608 220.876 99.2701 221.173 99.3619C221.374 99.4241 221.65 99.2962 221.91 99.1574C222.119 99.0458 222.436 98.7532 222.84 98.3667C223.013 98.2024 223.09 98.0759 223.259 97.8705C223.428 97.6651 223.679 97.3776 224.054 96.8882C224.429 96.3988 224.92 95.7161 225.143 95.3823C225.366 95.0486 225.307 95.0845 224.886 95.654C224.466 96.2235 223.688 97.3254 223.155 98.1685C222.622 99.0116 222.359 99.5626 222.211 99.8943C222.063 100.226 222.039 100.322 222.039 100.395C222.039 100.469 222.063 100.516 222.123 100.517C222.286 100.519 222.629 100.157 223.106 99.6201C223.341 99.3551 223.523 99.0712 223.712 98.7616C223.9 98.452 224.08 98.1166 224.25 97.7342C224.602 96.9438 224.749 96.4409 224.767 96.3741C224.769 96.3651 224.773 96.4151 224.683 97.3081C224.593 98.2012 224.414 99.9379 224.321 100.862C224.223 101.846 224.217 101.981 224.234 102.071C224.241 102.106 224.336 102.055 224.571 101.791C224.805 101.527 225.201 101.035 225.668 100.387C226.135 99.739 226.662 98.9485 226.478 99.3018C226.295 99.6551 225.384 101.176 224.766 102.331C224.147 103.486 223.847 104.229 223.693 104.635C223.539 105.042 223.539 105.09 223.569 105.114C223.599 105.139 223.659 105.139 223.738 105.091C223.816 105.043 223.912 104.947 224.243 104.539C224.574 104.13 225.137 103.411 225.57 102.903C226.262 102.094 226.636 101.812 226.744 101.752C226.806 101.718 226.877 101.668 226.932 101.715C226.987 101.762 227.023 101.906 227.023 102.028C227.024 102.15 226.988 102.246 226.634 102.954C226.28 103.662 225.609 104.979 225.258 105.718C224.894 106.576 224.894 106.783 224.93 106.94C224.954 107.014 224.99 107.073 225.027 107.135" stroke="white" stroke-width="4" stroke-linecap="round"/>
<path d="M221.397 127.751C221.385 127.655 221.36 127.365 221.402 127.003C221.423 126.823 221.444 126.511 221.529 125.967C221.613 125.423 221.757 124.657 221.861 124.022C221.965 123.388 222.024 122.909 222.055 122.602C222.125 121.91 222.159 121.473 222.249 120.972C222.283 120.786 222.304 120.386 222.352 119.734C222.4 119.085 222.28 118.474 222.166 117.997C222.087 117.669 222.002 117.504 221.942 117.324C221.824 116.97 221.675 116.562 221.597 116.247C221.566 116.125 221.554 116.077 221.506 116.262C221.458 116.447 221.374 116.866 221.325 117.285C221.276 117.705 221.264 118.112 221.293 118.705C221.323 119.298 221.395 120.065 221.534 120.873C221.673 121.681 221.876 122.508 222.095 123.34C222.314 124.173 222.541 124.988 222.682 125.641C222.824 126.294 222.872 126.761 222.89 127.313C222.909 127.865 222.897 128.488 222.873 128.917C222.82 129.847 222.752 130.156 222.739 130.466C222.739 130.471 222.739 130.342 222.68 129.819C222.62 129.296 222.5 128.374 222.45 127.678C222.4 126.981 222.424 126.538 222.461 126.202C222.497 125.866 222.545 125.65 222.623 125.162C222.702 124.673 222.81 123.919 222.847 122.853C222.885 121.788 222.849 120.434 222.837 119.755C222.824 119.076 222.836 119.112 222.83 119.951C222.824 120.79 222.8 122.431 222.962 124.342C223.123 126.253 223.47 128.385 223.823 129.974C224.176 131.564 224.523 132.546 224.756 133.142C224.989 133.738 225.096 133.917 225.17 134.034C225.243 134.15 225.279 134.198 225.316 134.091C225.352 133.984 225.388 133.72 225.335 131.441C225.282 129.161 225.138 124.873 224.986 122.335C224.834 119.797 224.678 119.138 224.586 118.769C224.494 118.399 224.47 118.339 224.482 118.362C224.493 118.386 224.541 118.493 224.817 120.579C225.094 122.665 225.597 126.725 225.886 128.936C226.175 131.148 226.235 131.387 226.313 131.631C226.392 131.874 226.488 132.113 226.573 132.231C226.659 132.348 226.73 132.336 226.827 132.222C226.924 132.108 227.044 131.893 227.148 131.62C227.251 131.347 227.335 131.024 227.45 129.174C227.565 127.325 227.709 123.959 227.753 122.04C227.797 120.12 227.737 119.749 227.694 119.528C227.652 119.307 227.628 119.247 227.609 119.192C227.591 119.137 227.579 119.089 227.489 119.586C227.399 120.082 227.231 121.124 227.097 121.763C226.963 122.401 226.867 122.605 226.768 122.815" stroke="white" stroke-width="4" stroke-linecap="round"/>
<path d="M221.869 116.064C221.869 115.98 221.893 115.762 221.941 115.156C221.98 114.67 221.99 113.819 221.996 113.339C222.005 112.652 221.918 112.412 221.869 112.169C221.818 111.912 221.736 111.65 221.664 111.322C221.635 111.192 221.604 110.864 221.501 110.381C221.348 109.662 221.083 109.35 220.95 108.711C220.876 108.352 220.889 107.696 220.847 107.425C220.799 107.115 220.816 108.221 220.895 108.686C220.998 109.301 221.155 109.457 221.252 109.645C221.36 109.854 221.373 110.134 221.403 110.762C221.426 111.223 221.458 111.732 221.464 112.353C221.467 112.68 221.361 112.869 221.331 113.075C221.301 113.279 221.289 114.193 221.325 114.786C221.333 114.915 221.433 115.047 221.56 115.144C221.608 115.18 221.651 115.145 221.687 115.055C221.724 114.964 221.76 114.809 221.778 114.501C221.797 114.193 221.797 113.738 221.731 113.174C221.665 112.61 221.533 111.952 221.459 111.474C221.343 110.726 221.337 110.294 221.301 110.047C221.277 109.884 221.229 109.546 221.114 109.062C221.032 108.717 220.902 108.371 220.793 107.931C220.683 107.484 220.672 107.1 220.684 106.924C220.697 106.725 220.78 107.351 220.726 107.672C220.652 108.111 220.454 108.427 220.381 108.816C220.312 109.185 220.369 109.795 220.435 110.134C220.515 110.543 220.84 111.004 221.153 111.541C221.538 112.2 221.833 112.651 221.905 112.85C222.007 113.131 222.099 113.316 222.153 113.516C222.165 113.558 222.16 113.595 222.196 113.601C222.303 113.621 222.533 113.416 222.847 113.096C223.013 112.927 223.161 112.717 223.498 112.151C223.836 111.585 224.351 110.662 224.94 109.421C225.529 108.179 226.175 106.646 226.592 105.706C227.009 104.767 227.177 104.467 226.88 105.134C226.583 105.8 225.817 107.441 225.416 108.304C225.015 109.167 225.003 109.203 225.003 109.24C225.003 109.276 225.015 109.312 225.039 109.325C225.208 109.412 225.558 108.976 226.105 108.29C226.494 107.804 227.072 107.006 227.386 106.575C227.7 106.144 227.724 106.096 227.18 106.526C226.635 106.957 225.521 107.867 224.786 108.42C223.762 109.189 223.346 109.325 223.243 109.343C223.189 109.353 223.129 109.349 223.074 109.337C223.019 109.325 222.971 109.301 222.935 109.229C222.843 109.049 222.921 108.686 223.12 108.18C223.367 107.55 223.659 107.184 223.822 107.004C224.103 106.691 224.553 106.362 225.023 106.085C225.41 105.856 225.931 105.672 226.457 105.467C226.898 105.295 227.059 105.139 227.108 105.127C227.133 105.12 227.108 105.234 226.88 105.72C226.653 106.207 226.209 107.093 225.933 107.729C225.657 108.366 225.561 108.725 225.494 109.138C225.427 109.55 225.391 110.005 225.384 110.414C225.378 110.822 225.401 111.169 225.51 111.719C225.618 112.269 225.809 113.012 225.926 113.437C226.157 114.276 226.309 114.817 226.327 114.866C226.332 114.878 226.334 114.771 226.561 113.243C226.789 111.714 227.244 108.744 227.484 107.076C227.725 105.408 227.737 105.132 227.731 105.008C227.725 104.885 227.701 104.92 227.545 105.328C227.389 105.736 227.102 106.515 226.876 107.251C226.65 107.987 226.494 108.658 226.402 109.692C226.31 110.727 226.286 112.104 226.345 113.448C226.405 114.793 226.548 116.062 226.616 116.782C226.697 117.632 226.612 117.853 226.492 118.004C226.43 118.082 226.323 118.119 226.232 118.138C226.06 118.173 225.863 118.085 225.67 117.994C225.52 117.924 225.175 117.519 224.716 116.927C224.473 116.614 224.362 116.272 224.217 115.819C224.08 115.389 224.095 114.821 224.173 114.091C224.264 113.238 224.506 112.737 224.483 112.922C224.451 113.169 224.316 113.718 224.26 114.229C224.204 114.74 224.216 115.196 224.282 115.688C224.348 116.18 224.468 116.695 224.626 117.163C224.783 117.632 224.975 118.04 225.115 118.315C225.256 118.591 225.34 118.723 225.407 118.815C225.474 118.906 225.522 118.954 225.608 118.967" stroke="white" stroke-width="4" stroke-linecap="round"/>
<path d="M228.003 149.745C227.692 149.949 227.38 150.153 226.837 150.533C226.293 150.913 225.526 151.464 225.024 151.808C224.318 152.291 223.987 152.431 223.818 152.491C223.448 152.624 222.887 152.83 222.687 152.975C222.569 153.061 222.343 153.204 222.023 153.458C221.378 153.969 221.084 154.076 220.956 154.203C220.784 154.375 220.491 154.536 220.291 154.681C220.142 154.79 220.043 154.935 219.801 155.291C219.682 155.467 219.607 155.624 219.432 155.812C219.233 156.025 219.051 156.157 218.942 156.266C218.891 156.318 218.953 156.026 219.073 155.605C219.312 154.769 219.558 154.138 219.637 153.951C219.689 153.827 219.835 153.379 220.071 152.714C220.277 152.135 220.321 151.948 220.435 151.474C220.529 151.081 220.728 150.389 220.833 149.995C220.956 149.531 221.046 149.192 221.179 148.756C221.252 148.516 221.336 148.163 221.469 147.704C221.522 147.521 221.53 147.436 221.716 146.86C221.902 146.284 222.261 145.218 222.464 144.597C222.713 143.835 222.74 143.636 222.722 143.576C222.716 143.555 222.669 143.587 222.434 143.947C222.2 144.306 221.769 145.001 221.529 145.401C221.242 145.878 221.108 146.378 220.933 147.025C220.851 147.327 220.745 147.638 220.606 148.085C220.502 148.42 220.394 148.584 220.303 148.812C219.918 149.786 219.849 150.095 219.686 150.5C219.601 150.713 219.619 150.942 219.589 151.124C219.565 151.269 219.546 151.941 219.589 152.238C219.629 152.525 219.655 151.694 219.667 151.543C219.688 151.283 219.728 151.041 219.842 150.279C219.943 149.599 220.183 148.331 220.3 147.641C220.418 146.951 220.418 146.88 220.459 146.549C220.501 146.219 220.585 145.632 220.694 145.012C220.803 144.392 220.935 143.758 221.009 143.413C221.121 142.89 221.083 142.596 221.065 142.415C221.06 142.366 221.047 142.318 220.993 143.096C220.939 143.874 220.843 145.479 220.811 146.455C220.78 147.432 220.816 147.731 220.841 147.987C220.909 148.704 220.926 149.017 220.962 149.363C220.999 149.722 221.143 150.396 221.216 150.779C221.263 151.027 221.36 151.389 221.446 151.62C221.461 151.661 221.506 151.681 221.566 151.687C221.626 151.693 221.71 151.681 222.855 150.783C224.001 149.884 226.204 148.1 227.43 147.121C228.655 146.141 228.834 146.022 228.867 145.972C228.917 145.896 228.585 146.007 227.883 146.271C227.256 146.507 226.067 146.918 225.331 147.194C224.334 147.567 223.975 147.749 223.794 147.803C223.688 147.835 223.564 147.798 223.431 147.738C223.375 147.712 223.37 147.653 223.382 147.575C223.393 147.496 223.429 147.388 223.963 146.668C224.496 145.948 225.526 144.618 226.075 143.916C226.655 143.173 226.72 143.104 226.697 143.127C226.643 143.181 226.53 143.342 225.719 144.117C224.909 144.892 223.412 146.281 222.659 146.967C221.905 147.653 221.941 147.593 222.385 146.928C222.829 146.262 223.679 144.992 224.207 144.254C224.735 143.517 224.914 143.349 225.037 143.244C225.159 143.14 225.219 143.104 225.281 143.067" stroke="white" stroke-width="4" stroke-linecap="round"/>
<path d="M220.926 144.338C221.01 144.098 221.093 143.858 221.34 143.202C221.587 142.546 221.994 141.48 222.336 140.074C222.677 138.669 222.941 136.956 223.077 136.002C223.212 135.047 223.212 134.904 223.224 134.716C223.251 134.3 223.369 133.743 223.514 133.217C223.623 132.82 223.876 132.496 224.089 132.234C224.306 131.966 224.47 131.78 224.519 131.743C224.604 131.876 224.628 132.129 224.598 132.532C224.568 132.804 224.508 133.211 224.446 133.631" stroke="white" stroke-width="4" stroke-linecap="round"/>
<path d="M227.894 133.885C227.475 134.687 227.056 135.49 226.756 136.184C226.456 136.879 226.289 137.442 226.154 138.02C226.02 138.597 225.924 139.172 225.875 139.546C225.805 140.073 225.837 140.272 225.891 140.315C225.925 140.341 226.005 140.297 226.078 140.225C226.151 140.153 226.223 140.033 226.41 139.54C226.597 139.047 226.896 138.185 227.116 137.273C227.336 136.362 227.468 135.428 227.536 134.905C227.604 134.381 227.604 134.298 227.562 134.302C227.52 134.307 227.436 134.403 227.279 134.674C227.122 134.945 226.895 135.388 226.676 135.946C226.457 136.503 226.253 137.162 226.13 137.633C226.007 138.104 225.971 138.368 225.953 138.659C225.915 139.261 225.982 139.894 226.073 140.396C226.107 140.588 226.151 140.646 226.194 140.659C226.236 140.672 226.284 140.636 226.309 140.594C226.334 140.551 226.334 140.503 226.334 140.454" stroke="white" stroke-width="4" stroke-linecap="round"/>
<path d="M224.918 141.18C224.618 141.599 224.319 142.018 224.165 142.21C224.01 142.402 224.01 142.354 224.058 142.198C224.106 142.041 224.202 141.778 224.221 141.624C224.241 141.471 224.181 141.435 224 141.446C223.82 141.458 223.52 141.517 223.073 141.626C222.035 141.878 221.397 142.063 221.325 142.069C221.148 142.084 221.059 141.798 220.914 141.381C220.748 140.906 221.009 140.709 221.076 140.503C221.131 140.335 221.227 140.201 221.288 140.019C221.359 139.808 221.409 139.512 221.53 139.004C221.61 138.668 221.663 138.447 221.717 138.205C221.766 137.991 221.844 137.47 221.971 136.655C222.073 136.002 222.026 135.592 222.056 135.267C222.076 135.049 222.098 134.726 222.141 134.374C222.228 133.648 222.328 133.196 222.365 133.039C222.466 132.603 222.304 131.844 222.335 131.369C222.351 131.115 222.377 130.825 222.407 130.559C222.429 130.365 222.353 130.22 222.305 130.068C222.276 129.979 222.256 129.892 222.226 129.856C222.191 129.814 222.147 129.964 222.111 130.007C222.071 130.054 221.894 129.965 221.719 129.989C221.56 130.01 221.735 130.315 221.79 130.556C221.887 130.982 221.76 131.258 221.724 131.488C221.708 131.587 221.687 131.958 221.693 132.466C221.696 132.687 221.724 133.166 221.712 133.874C221.703 134.361 221.615 134.597 221.579 134.845C221.525 135.211 221.518 135.795 221.5 135.959C221.475 136.185 221.409 136.424 221.385 136.66C221.367 136.837 221.312 137.029 221.294 137.45C221.257 138.325 221.276 138.989 221.258 139.188C221.252 139.399 221.24 139.546 221.216 139.918C221.204 140.254 221.192 140.889 221.179 141.543" stroke="white" stroke-width="4" stroke-linecap="round"/>
<path d="M207.466 103.225C207.466 103.146 207.466 103.067 207.483 103.037C207.5 103.008 207.534 103.03 207.557 103.093C207.68 103.426 207.739 104.213 207.814 104.76C207.907 105.439 207.923 105.681 207.985 106.158C208.031 106.511 208.127 107.087 208.173 107.418C208.229 107.816 208.265 108.272 208.334 108.973C208.388 109.526 208.346 109.829 208.346 110.034C208.345 110.182 208.391 110.419 208.499 110.954C208.607 111.49 208.788 112.315 208.898 112.78C209.028 113.328 209.145 113.519 209.316 113.866C209.594 114.432 209.705 114.868 209.705 114.926C209.706 115.208 209.249 114.458 209.066 114.372C208.744 114.221 208.357 114.287 208.3 114.19C208.157 113.946 208.367 113.318 208.494 112.99C208.571 112.788 208.62 112.608 208.688 112.128C208.727 111.855 208.734 111.285 208.694 110.757C208.643 110.079 208.574 109.899 208.483 109.727C208.438 109.641 208.312 110.09 208.243 110.637C208.113 111.673 208.163 111.953 208.123 112.308C208.073 112.752 208.174 112.914 208.26 113.069C208.283 113.112 208.322 113.154 208.357 113.183C208.391 113.212 208.425 113.223 208.493 113.218C208.562 113.212 208.664 113.19 209.236 112.85C209.809 112.51 210.85 111.854 212.376 110.996C213.902 110.137 215.882 109.097 217.195 108.476C218.509 107.855 219.098 107.685 219.418 107.592C219.738 107.499 219.772 107.487 219.009 107.736C218.245 107.985 216.684 108.494 215.79 108.807C214.895 109.12 214.714 109.222 214.434 109.41C214.154 109.598 213.781 109.87 213.509 110.055C212.862 110.496 212.608 110.572 212.318 110.698C211.94 110.861 211.672 110.835 211.449 110.864C211.375 110.873 211.273 110.87 211.204 110.853C211.134 110.836 211.1 110.802 211.094 110.722C211.078 110.518 211.202 110.254 211.401 109.935C211.52 109.744 211.724 109.526 211.981 109.273C212.239 109.021 212.556 108.75 213.85 107.92C215.144 107.09 217.407 105.71 218.533 105.01C219.659 104.31 219.58 104.333 218.526 104.712C217.473 105.092 215.448 105.827 214.264 106.279C213.079 106.732 212.796 106.879 212.538 107.039C212.039 107.349 211.785 107.578 211.598 107.732C210.852 108.343 210.598 108.424 210.42 108.487C210.382 108.501 210.346 108.482 210.34 108.447C210.334 108.413 210.356 108.357 210.787 107.79C211.217 107.224 212.054 106.149 212.615 105.477C213.176 104.804 213.437 104.567 214.131 104.06C214.825 103.553 215.945 102.784 216.538 102.37C217.171 101.93 217.461 101.73 217.873 101.473C218.026 101.377 218.058 101.34 218.019 101.323C217.979 101.305 217.866 101.305 217.129 101.617C216.392 101.928 215.035 102.55 214.29 102.899C213.546 103.247 213.455 103.304 213.25 103.401C212.734 103.645 212.323 103.796 212.073 103.887C211.633 104.047 211.159 104.309 210.788 104.532C210.533 104.685 210.369 104.79 210.226 104.825C210.164 104.84 210.118 104.836 210.1 104.814C210.082 104.791 210.094 104.746 210.235 104.474C210.377 104.201 210.648 103.704 210.924 103.295C211.427 102.548 211.819 102.209 212.006 102.066C212.286 101.854 212.561 101.706 213.089 101.411C213.528 101.166 214.306 100.709 214.77 100.431C215.235 100.152 215.359 100.062 215.604 99.8511C216.22 99.3221 216.675 98.9179 216.829 98.8152C217.191 98.5742 217.749 98.3121 218.046 98.1353C218.308 97.9794 217.408 98.1284 217.054 98.2199C216.753 98.2978 216.12 98.5158 215.74 98.6428C215.437 98.7437 215.214 98.9162 214.382 99.4807C214.206 99.6 214.163 99.6477 213.924 99.835C213.686 100.022 213.256 100.35 212.956 100.57C212.503 100.901 212.254 101.065 212.106 101.185C211.786 101.444 211.069 101.864 210.683 102.019C210.311 102.231 210.061 102.39 209.866 102.528C209.831 102.551 209.798 102.562 209.728 102.574" stroke="white" stroke-width="4" stroke-linecap="round"/>
<path d="M209.557 118.103C209.545 118.023 209.534 117.944 209.506 117.355C209.477 116.765 209.432 115.668 209.392 115.108C209.351 114.549 209.318 114.56 209.232 114.617C208.756 114.933 208.563 115.302 208.46 115.519C208.245 115.972 208.118 116.216 208.02 116.479C207.954 116.658 207.946 116.912 207.985 117.108C208.025 117.301 208.287 117.937 208.363 118.49C208.374 118.57 208.38 118.627 208.385 118.979C208.391 119.33 208.391 119.975 208.386 120.335C208.379 120.753 208.357 121.014 208.351 121.351C208.348 121.542 208.311 121.69 208.294 122.081C208.259 122.891 208.277 123.495 208.26 123.638C208.231 123.882 208.288 124.158 208.317 124.443C208.365 124.921 208.38 125.311 208.397 125.632C208.411 125.897 208.482 126.214 208.534 126.568C208.551 126.66 208.574 126.751 208.585 126.826C208.597 126.9 208.597 126.957 208.631 127.084" stroke="white" stroke-width="4" stroke-linecap="round"/>
<path d="M209.385 125.576C209.453 125.496 209.521 125.417 209.856 124.867C210.19 124.317 210.79 123.299 211.133 122.679C211.476 122.058 211.544 121.866 211.646 121.416C211.749 120.966 211.885 120.265 211.966 119.87C212.047 119.474 212.07 119.407 212.144 119.117C212.347 118.32 212.504 117.704 212.573 117.482C212.664 117.186 212.699 116.938 212.756 116.654C212.87 116.082 212.882 115.59 212.876 115.384C212.866 115.004 212.711 114.528 212.557 114.304C212.477 114.188 212.334 114.172 212.265 114.132C212.232 114.113 212.197 114.103 212.162 114.137C212.068 114.23 212.059 114.388 212.048 114.542C212.041 114.639 212.014 114.775 211.968 116.366C211.923 117.958 211.855 121.001 211.808 122.647C211.762 124.294 211.74 124.453 211.728 124.568C211.689 124.957 211.648 125.346 211.591 125.671C211.562 125.835 211.568 125.952 211.556 126.021C211.551 126.055 211.568 126.089 211.596 126.101C211.757 126.168 211.899 125.896 212.476 125.064C213.013 124.291 214.027 122.795 214.642 121.856C215.257 120.917 215.438 120.578 215.672 119.984C215.907 119.391 216.19 118.554 216.369 117.823C216.549 117.092 216.617 116.492 216.635 115.855C216.653 115.218 216.619 114.562 216.579 114.105C216.518 113.408 216.368 112.94 216.191 112.49C216.102 112.262 215.981 112.051 215.877 112.087C215.774 112.123 215.683 112.418 215.354 113.955C215.024 115.492 214.459 118.264 214.162 119.799C213.865 121.334 213.853 121.549 213.853 121.688C213.853 121.884 213.899 121.987 213.967 122.078C214.148 122.32 214.526 122.25 214.772 122.279C215.255 122.335 215.804 122.069 216.143 121.857C216.252 121.789 216.376 121.636 216.53 121.425C216.685 121.213 216.855 120.931 217.118 120.208C217.38 119.485 217.731 118.332 217.957 117.132C218.183 115.932 218.273 114.722 218.292 113.94C218.31 113.158 218.253 112.841 218.202 112.616C218.053 111.969 217.75 111.624 217.619 111.402C217.588 111.351 217.567 111.316 217.544 111.315C217.521 111.315 217.499 111.349 217.232 112.497C216.966 113.646 216.457 115.909 216.02 118.234C215.582 120.559 215.231 122.878 215.051 124.185C214.87 125.493 214.87 125.72 214.876 125.876C214.888 126.229 214.984 126.567 215.047 126.804C215.052 126.821 215.087 126.776 215.155 126.493C215.223 126.209 215.336 125.678 215.649 124.606C215.962 123.535 216.471 121.94 216.824 120.626C217.176 119.312 217.357 118.328 217.417 117.923C217.476 117.518 217.408 117.721 217.322 118.115C217.236 118.508 217.135 119.085 217.037 120.429C216.939 121.772 216.849 123.865 216.819 125.022C216.789 126.18 216.823 126.338 216.863 126.482C216.991 126.939 217.098 127.231 217.195 127.488C217.257 127.652 217.098 126.834 217.195 126.372C217.232 126.192 217.325 125.957 217.496 125.569C217.667 125.181 217.927 124.649 218.146 124.121C218.365 123.592 218.535 123.083 218.628 122.793C218.721 122.502 218.732 122.446 218.726 122.451C218.668 122.502 218.664 122.661 218.613 123.403C218.566 124.077 218.505 125.355 218.459 126.059C218.39 126.853 218.355 127.003 218.327 127.106C218.31 127.152 218.287 127.186 218.195 127.221" stroke="white" stroke-width="4" stroke-linecap="round"/>
<path d="M219.464 129.004C219.339 128.981 219.099 128.912 218.634 128.816C218.228 128.732 217.468 128.618 216.976 128.548C216.282 128.449 215.889 128.432 215.535 128.381C215.202 128.333 214.974 128.284 214.554 128.329C214.201 128.367 213.569 128.465 212.971 128.494C212.373 128.524 211.83 128.49 211.534 128.467C211.109 128.434 210.838 128.341 210.558 128.261C210.331 128.196 210.14 128.192 209.918 128.107C209.599 127.985 209.398 127.861 209.22 127.804C209.077 127.758 208.827 127.735 208.586 127.707C208.529 127.7 208.461 127.701 208.415 127.718C208.369 127.735 208.346 127.769 208.334 127.809C208.285 127.979 208.459 128.282 208.562 128.534C208.669 128.796 208.757 129.003 208.774 129.26C208.795 129.574 208.78 129.963 208.729 130.1C208.673 130.249 208.427 130.408 208.345 130.478C208.001 130.776 208.482 129.85 208.551 129.553C208.569 129.474 208.563 129.394 208.546 129.375C208.447 129.269 208.403 129.665 208.397 129.922C208.391 130.183 208.505 130.454 208.579 130.592C208.594 130.619 208.653 130.592 208.637 130.598C208.543 130.629 208.426 130.66 208.363 130.694C208.296 130.731 208.277 130.82 208.26 130.917C208.249 130.979 208.254 131.07 208.294 131.117C208.519 131.381 209.03 130.981 209.703 130.815C209.906 130.765 210.047 130.763 210.337 130.729C210.883 130.665 211.27 130.729 211.729 130.746C212.154 130.762 212.968 130.752 213.433 130.757C213.989 130.764 214.319 130.786 214.696 130.78C215.11 130.774 215.635 130.695 215.943 130.689C216.32 130.682 216.789 130.706 216.858 130.695C216.926 130.683 216.961 131.147 216.956 131.816C216.952 132.273 216.836 132.727 216.796 133.013C216.761 133.263 216.744 133.391 216.772 133.392C216.96 133.395 217.154 132.823 217.399 132.304C217.612 131.854 217.761 131.404 217.846 131.21C217.864 131.164 217.875 131.13 217.87 131.135C217.864 131.14 217.841 131.185 217.818 131.232" stroke="white" stroke-width="4" stroke-linecap="round"/>
<path d="M207.054 141.961C207.054 141.882 207.077 141.654 207.179 141.266C207.221 141.107 207.248 140.968 207.266 140.91C207.379 140.534 207.214 141.8 207.243 141.995C207.247 142.024 207.293 142.007 207.78 141.487C208.267 140.966 209.206 139.937 209.894 139.22C210.581 138.503 210.988 138.13 211.3 137.824C211.611 137.519 211.815 137.292 212.435 136.757C213.054 136.222 214.084 135.385 214.885 134.795C215.687 134.206 216.23 133.889 216.533 133.709C216.998 133.432 217.178 133.289 217.281 133.146C217.42 132.953 217.578 132.889 217.646 132.877C217.733 132.862 217.851 133.138 218.051 133.514C218.296 133.977 218.355 134.441 218.378 134.856C218.392 135.113 218.356 135.464 218.327 135.729C218.298 135.995 218.264 136.165 217.941 137.134C217.619 138.104 217.008 139.869 216.659 140.942C216.31 142.015 216.243 142.343 216.196 142.812C216.15 143.281 216.127 143.88 216.104 144.263C216.058 145.027 215.876 145.387 215.671 145.815C215.563 146.041 215.421 146.276 215.323 145.465C215.225 144.654 215.168 142.787 215.167 141.622C215.167 140.457 215.223 140.05 215.28 139.75C215.429 138.972 215.647 138.74 215.801 138.466C215.998 138.114 216.275 137.872 216.418 137.694C216.594 137.475 216.709 137.243 216.852 137.038C216.907 136.959 216.915 136.923 216.83 137.024C216.746 137.125 216.565 137.363 215.996 137.881C215.428 138.4 214.478 139.191 213.428 140.029C212.379 140.867 211.259 141.727 210.648 142.204C209.853 142.825 209.706 142.955 209.529 143.098C209.288 143.292 209.112 143.686 208.946 143.835C208.652 144.099 208.403 144.257 208.226 144.304C208.011 144.36 207.957 143.916 207.837 143.722C207.743 143.568 207.672 143.447 207.603 143.424C207.453 143.374 207.374 143.663 207.295 143.891C207.112 144.412 207.248 144.92 207.288 145.177C207.321 145.387 207.328 145.752 207.357 146.034C207.363 146.187 207.374 146.337 207.391 146.638C207.397 146.882 207.397 147.312 207.431 147.789" stroke="white" stroke-width="4" stroke-linecap="round"/>
<path d="M219.566 146.418C219.077 146.463 218.642 146.577 218.288 146.618C217.719 146.682 217.397 146.737 217.054 146.914C216.752 147.07 216.414 147.444 216.156 147.998C216.02 148.293 215.99 148.576 215.848 148.861C215.622 149.313 215.306 149.752 215.066 150.044C214.867 150.286 214.677 150.53 214.477 151.021C214.355 151.318 214.106 151.865 213.848 152.278C213.662 152.576 213.591 152.861 213.539 153.141C213.545 153.41 213.568 153.57 213.596 153.827C213.602 153.924 213.602 154.059 213.602 154.199" stroke="white" stroke-width="4" stroke-linecap="round"/>
<path d="M213.225 142.544C213.202 142.499 213.123 142.34 212.98 142.179C212.928 142.121 212.826 142.245 212.593 142.659C212.36 143.074 211.976 143.809 211.715 144.363C211.455 144.917 211.33 145.268 211.232 145.601C210.923 146.652 210.917 146.988 210.82 147.251C210.7 147.576 210.438 148.161 210.231 148.855C210.187 149.005 210.208 149.168 210.202 149.233C210.199 149.268 210.151 149.104 210.032 148.701C209.818 147.974 209.58 147.492 209.551 147.384C209.525 147.283 210.02 147.116 210.916 146.888C211.283 146.794 211.461 146.705 211.724 146.545C211.987 146.386 212.327 146.148 212.575 145.958C212.982 145.646 213.314 145.266 213.64 144.866C213.86 144.595 213.922 144.43 213.922 144.384C213.922 144.265 213.603 144.622 213.124 145.375C212.991 145.583 212.929 145.796 212.855 146.037C212.78 146.278 212.712 146.549 212.609 147.017C212.506 147.485 212.37 148.141 212.284 148.53C212.139 149.179 211.969 149.693 211.888 150.033C211.877 150.085 211.865 150.153 211.859 150.233C211.854 150.313 211.854 150.404 211.854 150.497" stroke="white" stroke-width="4" stroke-linecap="round"/>
<path d="M217.03 150.394C217.03 150.519 216.951 151.166 216.797 151.988C216.684 152.59 216.494 153.088 216.323 153.55C216.126 154.08 215.9 154.266 215.671 154.427C215.524 154.53 215.124 154.78 214.558 155.384C213.596 156.412 213.705 156.713 213.648 156.798C213.622 156.837 213.613 156.872 213.664 156.856C213.839 156.799 214.012 156.645 214.421 156.373C214.756 156.149 215.372 155.784 215.704 155.586C216.035 155.388 216.069 155.376 216.081 155.399C216.162 155.553 215.662 155.956 215.015 156.426C214.687 156.665 214.403 156.724 214.151 156.827C213.655 157.03 212.976 157.34 212.62 157.575C212.282 157.798 211.889 158.06 211.587 158.294C211.094 158.675 210.849 159.214 210.717 159.369C210.578 159.532 210.312 159.604 210.078 159.768C209.697 160.037 209.341 160.38 208.937 160.721C208.296 161.263 207.866 161.694 207.684 161.842C207.257 162.189 207.18 162.391 207.06 162.563C206.95 162.72 206.906 162.871 206.815 163.014C206.701 163.192 206.563 163.351 206.415 163.54C206.197 163.816 206.061 163.911 205.918 164.037C205.696 164.232 205.489 164.482 205.409 164.648C205.335 164.801 205.249 164.951 205.175 165.1C205.158 165.134 205.146 165.168 205.152 165.129C205.173 164.976 205.237 164.77 205.322 164.548C205.439 164.245 205.602 163.8 205.751 163.338C205.898 162.879 205.946 162.622 205.991 162.461C206.034 162.312 206.105 162.13 206.282 161.526C206.39 161.158 206.505 160.92 206.568 160.821C207.044 160.079 206.312 162.116 206.266 162.294C206.22 162.472 206.175 162.631 206.1 162.797C206.037 162.94 205.946 163.077 205.787 163.22C205.75 163.253 205.695 163.226 205.661 163.204C205.531 163.118 205.501 162.919 205.449 162.559C205.393 162.168 205.477 161.619 205.506 161.29C205.521 161.111 205.603 160.862 205.677 160.628C205.76 160.366 205.774 160.176 205.849 159.936C205.905 159.754 205.923 159.458 205.952 159.165C205.988 158.794 205.992 158.634 206.026 158.439C206.081 158.123 206.083 157.799 206.1 157.622C206.127 157.343 206.174 156.841 206.203 156.48C206.232 156.121 206.277 155.436 206.306 155.108C206.323 154.918 206.357 154.691 206.374 154.36C206.389 154.073 206.426 153.8 206.443 153.287C206.45 153.08 206.494 152.818 206.551 152.188C206.592 151.739 206.631 151.026 206.648 150.624C206.669 150.156 206.643 149.916 206.688 149.653C206.744 149.33 207.236 149.446 207.402 149.372C207.442 149.354 207.488 149.343 207.534 149.354C207.786 149.416 207.763 149.97 207.842 150.267C207.949 150.666 208.059 151.078 208.174 151.319C208.288 151.56 208.242 151.878 208.294 152.238C208.372 152.781 208.346 153.215 208.277 153.637C208.168 154.31 208.048 154.793 208.043 154.907C208.026 155.242 207.9 155.603 207.843 156.242C207.79 156.834 207.831 157.706 207.848 157.929C207.865 158.149 208.025 158.346 208.094 158.484C208.134 158.563 208.208 158.621 208.276 158.655C208.317 158.676 208.39 158.622 208.442 158.588C208.533 158.527 208.766 158.088 209.109 157.392C209.344 156.913 209.498 156.498 209.743 156.093C209.993 155.681 210.208 155.468 210.321 155.309C210.751 154.709 210.802 154.44 211.013 153.899C211.135 153.586 211.134 153.151 211.122 152.66C211.107 151.992 211.02 151.721 210.894 151.412C210.869 151.35 210.826 151.32 210.786 151.297C210.746 151.274 210.7 151.263 210.654 151.263C210.608 151.262 210.563 151.274 210.517 151.285" stroke="white" stroke-width="4" stroke-linecap="round"/>
<path d="M192.357 173.303C192.48 173.204 192.998 172.416 193.778 171.203C194.547 170.007 194.861 169.112 195.096 168.754C195.611 167.969 195.729 166.76 195.866 165.95C195.967 165.353 196.127 164.97 196.189 164.388C196.326 163.104 196.326 162.416 196.289 161.907C196.249 161.367 196.152 160.436 196.078 159.834C195.987 159.096 196.052 157.9 196.065 156.922C196.072 156.408 195.954 155.916 195.917 155.222C195.895 154.819 195.805 154.477 195.768 153.499C195.76 153.285 195.731 153.212 195.718 153.235C195.494 153.652 195.978 154.3 196.065 154.93C196.322 156.788 195.905 157.398 195.842 158.194C195.77 159.107 195.829 160.502 195.867 160.923C195.883 161.1 195.929 161.811 195.917 162.816C195.903 163.946 195.805 165.339 195.706 165.637C195.599 165.957 195.557 166.503 195.421 166.914C195.303 167.272 195.21 167.571 195.049 167.869C194.893 168.158 194.764 168.464 194.677 168.811C194.543 169.343 194.491 169.655 194.354 169.953C194.208 170.272 193.921 170.548 193.709 170.846C193.661 170.914 193.647 170.994 193.672 170.909C193.883 170.167 194.216 169.585 194.428 169.211C194.589 168.926 194.762 168.419 194.899 168.02C195.013 167.688 195.234 167.425 195.407 167.065C195.588 166.69 196.198 165.892 196.573 165.057C196.852 164.437 196.945 163.755 197.107 163.32C197.263 162.899 197.416 162.244 197.677 161.56C198.171 160.262 198.656 159.315 199.077 158.486C199.675 157.309 200.293 156.117 200.603 155.398C200.937 154.622 201.187 153.758 201.508 153.077C201.627 152.825 201.878 152.546 201.93 152.395C201.983 152.243 201.86 152.243 201.748 152.231C200.825 152.13 199.379 152.217 198.994 152.317C198.831 152.359 198.536 152.392 198.164 152.355C197.703 152.309 197.37 151.872 197.108 151.55C196.966 151.375 197.44 151.004 198.143 150.351C198.617 149.91 199.264 149.181 199.643 148.753C200.021 148.325 200.095 148.202 201.078 147.046C202.062 145.89 203.953 143.704 205.111 142.431C206.583 140.812 207.066 140.486 207.079 140.534C207.112 140.656 206.92 140.975 206.476 141.692C206.032 142.409 205.271 143.514 204.842 144.157C204.322 144.936 204.092 145.344 203.672 145.987C202.617 147.6 202.306 148.345 202.007 148.929C201.642 149.641 201.585 150.207 201.498 150.604C201.403 151.044 201.04 151.348 200.779 151.708C200.562 152.008 200.296 152.34 200.159 152.787C199.992 153.331 199.849 154.073 199.651 154.956C199.476 155.733 199.154 156.384 199.153 156.423C199.152 156.52 199.349 156.044 200.002 155.119C200.655 154.193 201.809 152.646 202.441 151.788C203.157 150.814 203.394 150.459 203.74 150.038C204.063 149.646 204.337 149.367 204.842 148.8C206.834 146.562 207.24 146.389 207.339 146.364C207.373 146.355 207.34 146.486 206.947 147.101C206.553 147.717 205.792 148.846 205.339 149.502C204.776 150.315 204.488 150.727 203.884 151.713C203.441 152.438 202.667 153.584 202.238 154.277C201.488 155.487 201.041 156.306 200.717 156.843C200.476 157.243 200.247 157.872 200.097 158.22C199.925 158.618 199.947 159.086 199.873 159.546C199.78 160.126 199.774 160.651 199.786 160.738C199.805 160.876 200.145 160.529 200.417 160.233C200.761 159.857 201.701 158.8 202.928 157.523C203.458 156.971 203.888 156.562 204.753 155.919C206.602 154.544 207.165 154.426 207.289 154.389C207.338 154.374 207.364 154.474 206.885 155.04C206.407 155.606 205.424 156.662 204.648 157.623C203.872 158.585 203.332 159.42 202.955 160.022C202.088 161.409 201.858 161.816 201.61 162.201C201.406 162.518 201.14 163.128 200.941 163.738C200.595 164.796 200.025 165.51 199.219 166.403C198.342 167.375 197.965 168.265 197.58 168.601C197.432 168.73 197.196 168.911 197.107 169.072C196.941 169.377 198.083 168.543 198.887 167.937C200.508 166.714 201.482 166.285 201.992 165.974C202.3 165.764 203.165 165.024 204.465 163.799C205.077 163.188 205.593 162.599 206.124 161.917" stroke="white" stroke-width="4" stroke-linecap="round"/>
<path d="M194.18 158.401C194.853 157.672 195.526 156.943 195.956 156.427C196.387 155.911 196.555 155.631 194.679 157.561C192.803 159.492 188.878 163.642 186.659 166.06C183.186 169.845 182.4 170.973 181.973 171.345C181.868 171.437 182.223 170.759 184.414 167.92C186.604 165.081 190.754 159.866 193.172 156.899C196.827 152.414 198.251 151.44 198.937 150.839C199.063 150.729 198.037 151.316 195.589 153.397C193.66 155.037 190.506 158.057 187.766 160.85C185.025 163.643 182.838 166.167 181.627 167.523C180.417 168.879 180.248 168.991 180.638 168.348C181.028 167.705 181.982 166.303 183.23 164.627C184.478 162.952 185.992 161.045 187.585 159.25C190.704 155.735 192.705 154.04 193.353 153.59C193.798 153.28 194.394 152.691 192.665 154.477C190.936 156.263 186.842 160.413 184.284 163.111C181.727 165.81 180.83 166.932 180.199 167.818C178.717 170.181 178.039 171.421 176.85 173.461C176.62 173.863 176.564 174.032 176.336 174.375" stroke="white" stroke-linecap="round"/>
<path d="M188.912 164.009C189.473 163.672 191.332 162.602 193.374 161.382C193.865 161.089 193.174 161.341 191.229 162.466C189.284 163.592 186.087 165.555 184.16 166.791C180.256 169.294 179.057 171.144 178.999 171.175C178.314 171.532 180.073 169.846 182.852 167.15C185.404 164.673 190.509 160.192 193.025 158.048C195.541 155.904 195.373 156.297 192.847 158.602C190.321 160.907 185.442 165.113 182.844 167.336C180.247 169.559 180.078 169.671 180.104 169.448C180.198 168.631 181.65 167.078 183.433 165.324C185.204 163.582 186.186 162.092 187.745 160.53C189.41 158.862 191.685 156.929 192.109 156.703C192.312 156.595 192.477 156.477 190.489 158.298C188.501 160.119 184.351 163.876 182.465 165.671C180.58 167.467 181.085 167.186 181.569 166.958C183.292 166.145 184.657 165.484 186.241 164.187C187.013 163.555 187.984 162.221 189.206 160.968C193.154 156.921 193.894 156.535 194.32 155.854C194.515 155.543 194.576 155.174 194.521 154.919C194.491 154.781 194.129 154.832 192.751 156.262C191.372 157.692 188.905 160.552 187.185 162.334C183.632 166.015 181.836 166.102 180.308 166.809C178.686 167.56 178.209 169.158 177.783 170.038C177.223 171.194 176.68 172.383 176.027 173.606C175.168 175.216 174.753 176.92 173.989 177.742C173.332 178.448 172.601 178.735 171.921 179.075C171.759 179.156 171.582 179.133 171.551 179.049C171.46 178.8 172.533 178.175 173.639 177.495C174.669 176.861 169.881 178.509 169.71 178.454C169.305 178.323 171.283 176.484 173.348 174.389C175.122 172.591 176.275 171.717 177.154 171.036C178.615 169.903 180.123 168.944 182.105 167.78C183.831 166.768 186.405 165.547 188.726 164.132C190.739 162.905 192.188 161.752 193.158 160.923C193.326 160.779 193.497 160.613 193.191 160.947C192.108 162.13 190.674 163.55 189.038 165.185C187.991 166.231 186.618 167.829 185.279 169.17C181.353 173.104 180.418 173.862 179.851 174.57C179.086 175.525 178.039 175.846 176.625 176.553C175.539 177.095 174.586 177.994 173.986 178.312C173.636 178.498 174.804 177.605 176.379 176.621C177.637 175.836 179.749 174.348 181.127 173.456C182.505 172.565 183.066 172.285 184.701 171.215C186.336 170.145 189.027 168.294 191.031 167.005C195.754 163.964 196.838 163.275 197.632 162.821C198.114 162.545 198.596 162.311 198.683 162.14C199.22 161.081 196.171 164.168 192.356 167.703C188.601 171.181 188.181 172.444 186.738 173.717C185.325 174.964 183.651 176.237 182.463 177.537C181.477 178.616 180.816 179.752 180.22 180.319C179.714 180.802 183.562 177.733 187.033 175.739C188.052 175.154 188.626 174.718 189.277 174.32C189.71 174.054 190.1 173.809 190.13 173.696C190.286 173.12 186.502 174.142 182.369 175.161C180.367 175.731 179.064 176.297 177.677 176.948C177.132 177.206 176.907 177.318 176.336 177.604" stroke="white" stroke-width="4" stroke-linecap="round"/>
<path d="M206.241 129.475C206.395 129.599 206.55 129.723 206.676 129.802C206.801 129.881 206.894 129.912 207.083 130.037" stroke="white" stroke-width="4" stroke-linecap="round"/>
<path d="M207.738 130.505C206.742 130.754 206.055 130.88 205.385 130.957C204.623 131.046 203.936 131.067 203.325 131.144C202.349 131.269 201.719 131.067 201.265 130.989C200.816 130.912 200.006 130.88 198.914 130.802C196.045 130.598 195.757 130.91 195.585 130.911C195.213 130.912 195.32 130.164 195.272 127.893C195.254 127.009 195.132 126.388 195.085 125.935C195.04 125.502 194.913 125.077 194.82 124.703C194.727 124.327 194.664 123.831 194.477 122.554C194.232 120.883 194.539 119.5 194.617 118.54C194.658 118.024 194.85 117.403 195.1 116.342C195.204 115.9 195.288 115.56 195.303 115.264C195.401 113.39 195.32 110.471 195.195 110.72C194.872 111.365 194.851 111.842 194.804 112.653C194.759 113.435 194.664 114.37 194.648 115.865C194.635 117.052 194.788 118.614 194.835 119.098C194.864 119.395 194.913 120.294 194.898 121.463C194.891 121.986 194.82 123.625 194.804 126.011C194.793 127.815 194.664 129.629 194.555 130.252C194.41 131.075 194.631 131.69 194.849 131.815C195.389 132.124 196.065 131.941 196.782 131.878C198.468 131.731 199.776 131.784 201.286 131.956C201.951 132.031 203.005 131.941 204.612 131.724C206.219 131.508 208.35 131.106 209.526 130.868C210.862 130.598 211.385 130.505 211.901 130.474C212.007 130.468 211.517 130.225 210.91 130.085C210.466 129.982 209.401 129.944 206.916 129.835C205.298 129.764 202.949 129.88 201.616 129.896C199.626 129.921 198.942 129.788 197.881 129.725C197.788 129.72 198.281 129.476 199.49 129.166C200.416 128.928 201.996 128.609 202.885 128.433C204.321 128.151 205.083 128.165 207.134 127.731C209.264 127.28 210.762 126.667 210.967 126.682C211.596 126.73 209.149 126.884 207.224 127.118C205.952 127.272 204.063 127.32 202.984 127.337C201.275 127.364 200.472 127.073 199.193 127.057C198.223 127.044 197.067 127.104 197.004 126.996C196.602 126.305 198.965 126.481 200.501 126.093C201.552 125.828 203.119 125.304 204.472 124.941C206.888 124.293 208.143 124.139 208.484 124.109C209.017 124.06 209.422 123.921 209.532 123.828C209.581 123.786 209.487 123.673 209.347 123.61C209.011 123.458 207.872 123.515 205.712 123.67C204.444 123.761 202.84 124.01 201.395 124.122C198.72 124.328 197.286 124.202 196.991 124.155C196.85 124.133 196.726 124.139 196.616 124.124C196.506 124.109 196.413 124.078 196.473 123.984C196.675 123.673 198.178 123.145 200.482 122.397C202.496 121.744 203.835 121.613 204.426 121.457C205.317 121.222 206.018 121.176 207.39 120.755C207.673 120.669 207.798 120.676 207.846 120.629C207.895 120.583 207.864 120.49 207.74 120.396C206.82 119.699 204.997 120.176 204.215 120.239C202.893 120.345 200.729 120.582 199.69 120.504C198.844 120.441 197.849 120.208 197.334 120.13C197.134 120.1 196.823 120.114 196.787 120.068C196.752 120.021 196.999 119.929 198.038 119.634C199.076 119.339 200.899 118.845 202.039 118.513C203.59 118.061 204.797 117.435 206.184 116.656C206.776 116.324 207.107 116.063 207.329 115.92C207.63 115.725 206.225 116.209 203.452 117.05C201.271 117.712 199.94 117.774 199.395 117.758C198.64 117.737 198.036 117.338 197.691 117.104C197.621 117.057 197.69 116.933 197.798 116.839C198.062 116.611 198.716 116.402 200.113 115.967C201.071 115.669 202.56 115.286 203.493 115.001C205.45 114.406 206.269 113.812 206.692 113.624C207.088 113.448 207.176 113 207.254 112.86C207.58 112.278 205.587 112.999 204.746 113.124C203.614 113.291 202.593 113.84 201.812 114.122C201.309 114.303 200.813 114.372 199.521 114.435C198.646 114.477 198.378 114.622 198.299 114.591C197.75 114.379 199.092 113.688 200.493 112.769C201.809 111.905 202.897 111.629 203.85 111.082C204.535 110.689 205.115 110.287 205.863 109.741C206.606 109.198 207.236 108.944 207.658 108.772C208.169 108.565 205.873 109.438 203.643 110.033C202.521 110.333 201.135 110.47 199.707 110.721C199.224 110.806 198.723 110.908 198.192 111.018C197.737 111.112 197.348 111.095 197.161 111.158C196.975 111.221 196.817 110.941 196.724 110.754C196.639 110.585 196.692 110.317 196.754 110.037C196.951 109.144 198.748 108.821 199.544 108.336C199.851 108.149 200.123 107.945 201.145 107.45C202.005 107.032 203.587 106.336 204.445 105.955C205.396 105.542 205.677 105.418 205.989 105.231C206.115 105.137 206.177 105.044 206.334 104.855" stroke="white" stroke-width="4" stroke-linecap="round"/>
<path d="M183.176 116.861C183.15 116.759 183.124 116.656 183.111 117.514C183.098 118.372 183.098 120.194 183.111 121.184C183.125 122.277 183.176 123.305 183.163 124.756C183.155 125.648 183.047 126.318 183.033 127.16C183.027 127.512 183.098 128.593 183.111 130.044C183.176 130.882 183.201 131.167 183.24 131.451C183.253 131.657 183.253 131.991 183.253 132.334" stroke="white" stroke-width="4" stroke-linecap="round"/>
<path d="M185.119 131.557C186.3 131.326 187.48 131.095 188.884 130.86C190.287 130.626 191.878 130.395 192.774 130.276C194.571 130.038 195.951 129.846 196.185 129.846C196.494 129.846 194.794 129.924 193.023 130.014C192.007 130.066 190.184 130.104 188.938 130.079C186.298 130.027 185.796 129.537 185.432 129.315C185.357 129.27 185.277 129.251 186.828 128.75C188.379 128.249 191.561 127.274 193.123 126.72C194.685 126.167 194.531 126.064 194.349 125.973C193.972 125.783 192.826 125.623 191.234 125.467C190.567 125.402 190.181 125.414 189.521 125.465C187.935 125.589 186.601 125.725 185.953 125.7C185.149 125.668 184.654 125.026 184.627 124.858C184.58 124.562 185.273 124.508 186.2 124.186C186.906 123.941 188.051 123.428 189.21 123.01C190.369 122.592 191.498 122.259 192.157 122.049C193.264 121.695 193.798 121.243 194.357 120.841C194.478 120.754 194.577 120.673 194.63 120.595C194.683 120.516 194.683 120.439 194.581 120.349C193.97 119.807 192.977 119.765 191.476 119.892C190.361 119.988 189.656 120.437 189.193 120.656C187.71 121.357 187.093 121.345 186.327 121.345C185.747 121.346 185.354 121.035 185.158 120.815C184.671 120.267 186.826 120.077 187.948 119.317C188.712 118.8 189.763 117.864 190.395 117.312C191.662 116.205 192.375 115.619 192.557 115.114C192.782 114.49 192.377 114.09 192.106 113.701C191.972 113.509 191.704 113.492 191.471 113.453C191.191 113.406 190.516 113.594 189.584 113.904C188.151 114.381 187.248 115.508 186.858 116.018C186.247 116.813 185.432 116.86 185.275 117.184C185.106 117.535 185.119 118.076 184.939 118.519C184.525 119.114 184.187 119.814 184.071 120.382C184.031 120.719 184.031 121.155 184.109 121.76" stroke="white" stroke-width="4" stroke-linecap="round"/>
<path d="M175.84 123.44C175.798 123.701 175.714 125.164 175.818 126.001C175.889 126.567 175.965 126.987 176.069 127.552C176.183 128.168 176.216 128.642 176.341 129.038C176.393 129.201 176.467 129.354 176.426 129.512C176.38 129.685 176.092 129.801 175.842 129.867C175.723 129.898 175.591 129.855 175.527 129.646C175.186 128.535 175.589 128.043 175.797 127.282C176.111 126.138 175.965 125.651 176.069 125.163C176.173 124.679 176.299 124.257 176.363 123.809C176.404 123.52 176.467 123.257 176.571 123.073C176.953 122.396 179.599 122.835 180.545 122.77C181.885 122.676 183.201 122.179 183.498 122.099C185.658 121.513 180.201 123.697 179.357 124.306C179.219 124.405 179.107 124.515 178.98 124.608C178.854 124.701 178.73 124.779 178.811 124.637C179.392 123.618 179.855 123.075 180.046 122.573C180.218 122.118 179.649 123.438 179.481 124.015C179.428 124.199 179.398 124.408 179.376 125.283C179.355 126.158 179.355 127.694 179.417 128.485C179.479 129.276 179.604 129.276 179.833 129.25C181.092 129.108 182.238 128.726 182.849 128.606C183.39 128.499 181.492 128.855 180.468 128.96C179.437 129.066 177.854 129.249 177.098 129.342C176.769 129.382 176.469 129.381 176.218 129.473C175.581 129.705 175.631 130.325 175.484 130.708C175.45 130.798 175.463 130.904 175.339 130.958C175.215 131.011 174.966 131.011 174.838 130.972C174.144 130.761 174.167 129.778 174.061 129.435C173.924 128.993 174.039 128.41 174.186 128.094C174.328 127.789 174.416 127.412 174.479 126.99C174.539 126.592 174.667 126.124 174.731 125.244C174.751 125.045 174.793 124.914 174.814 124.535C174.835 124.156 174.835 123.531 174.835 122.887" stroke="white" stroke-width="4" stroke-linecap="round"/>
<path d="M181.679 120.256C181.444 120.021 181.158 119.9 180.733 119.971C180.092 120.077 179.003 120.798 177.815 121.558C177.265 121.91 177.119 122.085 177.047 122.121C176.696 122.297 177.899 121.422 178.564 121.019C179.479 120.463 180.417 119.854 181.022 119.558C181.526 119.31 182.081 119.117 182.437 119.069C182.537 119.055 182.465 119.209 181.911 119.751C181.357 120.294 180.322 121.258 179.413 122.273C178.504 123.287 177.751 124.322 177.246 125.125C176.429 126.425 176.263 127.356 176.286 127.914C176.296 128.143 176.357 128.26 176.428 128.356C176.754 128.795 177.496 128.856 178.113 128.857C178.754 128.857 179.253 128.548 179.931 128.536C180.614 128.523 181.297 129.164 181.678 129.437C181.855 129.564 182.059 129.663 182.213 129.829C182.369 129.996 182.321 130.304 182.286 130.565C182.211 131.113 180.88 131.68 179.841 132.004C179.435 132.13 179.044 132.134 178.569 132.147C178.353 132.152 177.812 132.017 176.723 131.91C175.265 131.767 174.269 131.897 173.949 131.921C173.559 131.95 172.447 131.897 171.011 131.944C170.302 131.968 169.193 132.016 167.685 132.004C166.616 131.996 166.097 131.873 165.681 131.803C164.733 131.641 163.578 131.778 162.335 131.826C161.755 131.848 161.44 132.063 161.143 132.158C160.741 132.287 160.3 132.277 159.99 132.254C159.254 132.2 161.507 131.139 162.97 130.466C164.137 129.929 166.22 129.111 167.321 128.64C168.422 128.168 168.493 128.098 169.164 127.697C169.836 127.296 171.106 126.567 171.878 126.132C172.878 125.569 173.221 125.436 173.411 125.4C173.597 125.365 172.827 126.305 171.238 127.907C169.487 129.672 169.042 129.687 168.864 129.841C168.71 129.925 169.578 129.737 171.215 129.417C171.911 129.308 172.335 129.308 172.842 129.379" stroke="white" stroke-width="4" stroke-linecap="round"/>
</svg>
