<svg width="427" height="287" viewBox="0 0 427 287" fill="none" xmlns="http://www.w3.org/2000/svg">
<path d="M323.026 66.168H112.107C97.173 66.168 85.0664 80.1591 85.0664 97.418V159.918C85.0664 177.177 97.173 191.168 112.107 191.168H323.026C337.96 191.168 350.066 177.177 350.066 159.918V97.418C350.066 80.1591 337.96 66.168 323.026 66.168Z" stroke="white" stroke-width="10" stroke-linecap="round" stroke-linejoin="round"/>
<rect x="100" y="79" width="117.5" height="100" rx="20" fill="white"/>
<path d="M351 99C358.732 99 365 105.268 365 113V147C365 154.732 358.732 161 351 161V99Z" fill="white"/>
<path d="M233.954 111.49L231.498 114.034L235.034 114.031L289.127 113.995L132.9 212.363L209.422 136.958L212.031 134.387L208.368 134.389L154.049 134.43L296.653 46.5234L233.954 111.49Z" fill="black" stroke="white" stroke-width="3"/>
<path d="M187.5 179.5H167.5" stroke="white"/>
<path d="M240.5 106C241.284 97.1834 240.076 92.8359 234 86.5" stroke="white"/>
<path d="M240.5 114V146" stroke="white"/>
<path d="M243.582 129.111C243.327 128.969 243.167 128.854 243.117 128.761C242.983 128.512 243.095 128.026 243.224 127.432C243.282 126.994 243.296 126.751 243.324 126.665C243.339 126.622 243.353 126.579 243.367 126.535" stroke="white" stroke-width="2" stroke-linecap="round"/>
<path d="M244.226 117.521C244.17 117.564 243.97 117.508 243.755 117.436C243.544 117.365 243.411 117.35 243.333 117.328C243.154 117.28 243.139 117.007 243.046 116.899C242.873 116.699 243.124 117.562 243.196 117.821C243.21 117.864 243.224 117.907 243.232 117.985C243.239 118.064 243.239 118.177 243.239 118.294" stroke="white" stroke-width="5" stroke-linecap="round"/>
<path d="M244.526 121.084C244.866 121.027 245.206 120.971 246.961 120.552C248.715 120.133 251.874 119.354 253.771 118.932C255.667 118.509 256.205 118.467 256.582 118.452C256.958 118.437 257.156 118.451 257.485 118.522C257.814 118.593 258.267 118.721 258.685 118.864C259.48 119.138 259.907 119.338 260.064 119.388C260.553 119.544 260.865 119.582 261.286 119.617C261.993 119.677 262.253 119.582 262.361 119.575C262.384 119.573 262.341 119.553 261.802 119.525C261.263 119.496 260.229 119.454 258.775 119.503C257.322 119.552 255.481 119.693 254.489 119.759C253.498 119.825 253.413 119.811 253.348 119.797C253.283 119.782 253.241 119.768 253.283 119.74C253.325 119.711 253.452 119.668 254.828 119.597C256.204 119.526 258.824 119.426 260.514 119.425C262.204 119.423 262.884 119.523 263.277 119.595C263.76 119.684 263.899 119.768 263.963 119.803C263.984 119.814 263.929 119.853 263.865 119.889C263.8 119.925 263.715 119.967 260.966 120.903C258.217 121.838 252.806 123.666 249.678 124.77C246.551 125.874 245.871 126.2 245.492 126.389C245.114 126.578 245.057 126.62 245.07 126.642C245.084 126.664 245.169 126.664 246.905 126.069C248.642 125.474 252.027 124.285 254.125 123.495C256.223 122.705 256.931 122.35 257.431 122.111C258.193 121.746 258.59 121.614 258.783 121.571C258.862 121.553 258.905 121.556 258.899 121.599C258.892 121.641 258.836 121.726 257.737 122.634C256.638 123.542 254.499 125.27 253.355 126.224C252.097 127.273 252.01 127.536 251.967 127.708C251.939 127.82 251.966 127.909 252.009 127.994C252.032 128.041 252.08 128.08 252.159 128.102C252.345 128.154 252.538 128.095 253.332 127.635C254.062 127.212 255.43 126.366 256.598 125.73C257.766 125.095 258.687 124.684 259.268 124.458C260.044 124.156 260.365 124.175 260.408 124.238C260.451 124.301 260.197 124.43 258.537 125.395C256.877 126.36 253.733 128.159 252.084 129.107C250.436 130.055 250.38 130.097 251.625 129.56C252.871 129.022 255.421 127.903 257.152 127.227C258.883 126.552 259.719 126.354 260.22 126.251C260.722 126.149 260.863 126.149 260.887 126.199C261.183 126.827 259.594 127.179 259.308 127.421C259.077 127.617 258.722 128.035 258.266 128.606C257.592 129.449 257.348 129.639 257.168 129.854C256.938 130.13 256.718 130.284 256.525 130.412C256.193 130.634 255.817 130.884 255.559 131.056C255.433 131.14 255.245 131.313 254.86 131.549C253.878 132.149 253.471 132.343 253.177 132.523C252.728 132.796 252.141 133.272 251.767 133.546C251.373 133.835 251.095 134.161 250.909 134.354C250.68 134.592 250.437 134.804 250.129 135.055C249.89 135.249 249.564 135.435 249.363 135.563C249.081 135.744 248.82 136.006 248.598 136.143C248.366 136.285 248.09 136.422 247.889 136.579C247.635 136.779 247.389 137.137 247.096 137.451C246.878 137.686 246.659 137.952 246.145 138.466C245.933 138.679 245.729 138.783 245.557 138.89C245.472 138.926 245.385 138.969 245.3 139.026C245.257 139.055 245.214 139.083 245.127 139.112" stroke="white" stroke-width="5" stroke-linecap="round"/>
<path d="M258.047 131.515C258.061 131.43 258.488 130.945 259.224 130.274C259.555 129.971 260.054 129.436 260.374 129.124C261.062 128.45 261.552 128.025 261.852 127.746C262.271 127.356 262.439 127.18 262.682 126.994C262.834 126.877 262.954 126.765 263.26 126.552C263.969 126.057 264.471 125.634 264.642 125.521C264.879 125.363 265.185 125.064 265.493 124.763C265.664 124.596 266.184 124.093 266.935 123.336C267.522 122.743 267.862 122.687 268.055 122.587C268.107 122.56 268.162 122.53 268.737 122.338C269.311 122.146 270.402 121.792 270.992 121.596C271.642 121.379 271.896 121.285 272.26 121.171C272.962 120.951 273.513 120.37 273.728 120.183C273.962 119.98 274.271 119.783 274.786 119.525C275.067 119.384 275.287 119.353 275.524 119.267C275.813 119.162 276.117 119.025 276.461 118.888C276.78 118.762 276.976 118.667 277.155 118.559C277.353 118.44 277.577 118.437 277.756 118.337C277.963 118.222 278.135 118.165 278.392 118.087C278.69 117.996 279.007 117.922 279.208 117.858C279.395 117.798 279.58 117.623 279.773 117.479C279.964 117.337 280.152 117.25 280.331 117.164C280.58 117.044 280.796 116.907 281.004 116.835C281.182 116.773 281.354 116.72 281.526 116.656C281.709 116.587 281.869 116.506 282.084 116.363C282.306 116.215 282.499 116.091 282.614 116.012C282.706 115.949 282.315 116.019 282.143 116.033C281.913 116.052 281.232 116.119 280.345 116.148C279.667 116.169 279.154 116.219 278.817 116.241C278.652 116.251 278.126 116.277 277.397 116.284C276.79 116.29 276.478 116.348 276.198 116.37C275.943 116.389 275.323 116.533 274.397 116.584C274.145 116.598 273.902 116.62 273.609 116.627C273.358 116.633 272.704 116.663 271.846 116.656C271.441 116.652 271.212 116.62 270.969 116.627C270.81 116.632 270.512 116.705 269.552 116.763C268.834 116.806 267.643 116.763 267.009 116.749C266.175 116.73 265.86 116.677 264.905 116.67C264.559 116.667 263.947 116.706 263.147 116.72C262.593 116.73 262.313 116.82 261.477 116.828C260.867 116.833 260.296 116.82 259.745 116.842C259.494 116.852 258.84 116.878 257.953 116.856C257.204 116.838 256.904 116.592 256.568 116.47C256.465 116.433 256.333 116.448 256.289 116.477C256.244 116.505 256.287 116.562 256.401 116.626C256.515 116.691 256.699 116.762 256.992 116.834C257.285 116.905 257.682 116.976 259.274 117.098C260.867 117.219 263.643 117.389 265.413 117.548C267.183 117.706 267.863 117.848 268.731 117.942C269.598 118.036 270.632 118.079 271.207 118.115C271.869 118.156 271.997 118.208 272.047 118.251C272.08 118.279 272.027 118.378 271.991 118.436C271.93 118.535 271.586 118.679 271.001 118.929C270.701 119.057 270.387 119.165 269.504 119.407C268.621 119.65 267.176 120.018 266.064 120.378C264.951 120.737 264.215 121.077 263.679 121.344C262.821 121.773 262.455 122.028 262.291 122.128C261.766 122.448 261.07 122.656 260.603 123.05C260.231 123.364 260.137 123.915 259.908 124.359C259.866 124.442 259.808 124.432 259.765 124.39C259.656 124.282 259.48 123.976 259.031 123.513C258.757 123.229 258.313 122.922 258.017 122.676C257.551 122.29 257.191 121.817 256.727 121.062C256.454 120.617 256.193 119.995 255.976 119.582C255.43 118.542 254.858 118.209 254.579 118.073C254.33 117.951 254.185 117.709 253.963 117.13C253.917 117.01 253.927 116.964 253.905 116.942C253.858 116.894 253.67 116.949 253.413 116.999C253.159 117.048 252.43 117.049 251.359 117.021C250.14 116.989 249.78 116.778 249.499 116.742C249.248 116.709 248.991 116.677 248.57 116.656C248.433 116.635 248.333 116.606 248.084 116.584C247.892 116.577 247.566 116.577 247.23 116.577" stroke="white" stroke-width="5" stroke-linecap="round"/>
<path d="M243.067 118.036C243.067 118.522 243.096 118.722 243.117 118.93C243.139 119.139 243.21 119.395 243.275 119.581C243.336 119.758 243.353 120.024 243.41 120.232C243.471 120.453 243.582 120.824 243.668 121.155C243.741 121.434 243.739 121.87 243.79 122.106C243.806 122.183 243.797 122.298 243.797 122.151C243.797 121.071 243.726 120.785 243.704 120.662C243.67 120.47 243.64 121.083 243.618 121.255C243.596 121.433 243.511 121.598 243.454 121.77C243.425 121.856 243.397 121.956 243.375 122.063C243.365 122.113 243.368 122.156 243.403 122.065C243.648 121.432 243.625 121.114 243.604 120.978C243.58 120.826 243.283 121.098 243.111 121.205C243.07 121.231 243.025 121.241 242.989 121.291C242.827 121.515 242.967 121.812 243.06 122.071C243.136 122.282 243.181 122.457 243.232 122.806C243.363 123.721 243.282 124.242 243.246 124.738C243.217 125.146 243.139 125.574 243.103 125.969C243.078 126.238 243.024 126.434 242.982 126.699C242.896 127.228 242.967 128.065 242.967 128.7C242.968 129.342 242.867 129.711 242.846 129.926C242.812 130.254 242.781 130.769 242.774 131.213C242.77 131.434 242.853 131.77 242.81 132.029C242.778 132.221 242.724 132.444 242.688 132.644C242.666 132.771 242.667 132.902 242.638 133.03C242.604 133.186 242.595 133.912 242.588 134.899C242.582 135.789 242.581 136.793 242.602 137.001C242.609 137.051 242.623 137.094 242.631 137.151C242.638 137.209 242.638 137.279 242.638 137.352" stroke="white" stroke-width="5" stroke-linecap="round"/>
<path d="M245.9 123.445C245.886 123.899 245.886 124.874 245.907 125.403C245.926 125.863 245.972 126.176 246.15 126.926C246.291 127.521 246.315 127.779 246.337 128.058C246.356 128.31 246.401 128.737 246.422 129.053C246.451 129.468 246.487 129.754 246.487 130.011C246.488 130.735 246.202 131.212 245.937 131.627C245.639 132.096 245.558 132.343 245.464 132.594C245.251 133.166 245.329 134.174 245.335 134.376C245.338 134.496 245.797 133.979 246.262 133.521C246.441 133.344 246.514 133.29 247.138 132.694C247.763 132.098 248.938 130.965 249.629 130.325C250.652 129.376 250.879 129.369 251.022 129.276C251.086 129.234 251.108 129.169 251.108 129.105C251.111 128.715 250.453 128.24 249.88 127.875C249.21 127.446 248.608 127.609 248.098 127.644C247.99 127.652 247.891 127.652 247.861 127.659C247.831 127.666 247.874 127.68 247.918 127.694" stroke="white" stroke-width="5" stroke-linecap="round"/>
<path d="M244.32 139.949C244.298 139.949 244.236 139.954 244.199 139.959C244.134 139.967 244.103 139.966 244.083 139.956C244.055 139.942 244.037 139.941 244.016 139.934C243.988 139.924 243.942 139.9 243.919 139.887C243.902 139.877 243.887 139.863 243.871 139.851C243.854 139.837 243.827 139.818 243.804 139.804C243.784 139.792 243.77 139.783 243.743 139.776C243.701 139.766 243.681 139.759 243.663 139.754C243.645 139.748 243.624 139.741 243.604 139.736C243.576 139.73 243.563 139.714 243.547 139.7C243.529 139.684 243.494 139.668 243.472 139.655C243.45 139.642 243.435 139.628 243.42 139.62C243.409 139.615 243.427 139.648 243.43 139.67C243.437 139.71 243.426 139.789 243.429 139.831C243.431 139.854 243.434 139.883 243.437 139.916C243.445 140.005 243.441 140.036 243.445 140.066C243.447 140.092 243.449 140.183 243.446 140.239C243.444 140.267 243.436 140.295 243.424 140.325C243.408 140.365 243.388 140.396 243.382 140.413C243.364 140.467 243.341 140.536 243.336 140.555C243.331 140.57 243.308 140.619 243.29 140.658C243.278 140.684 243.267 140.708 243.256 140.738C243.236 140.792 243.214 140.833 243.201 140.859C243.171 140.928 243.165 140.949 243.154 140.98C243.152 140.989 243.152 140.999 243.152 141.008" stroke="white" stroke-width="5" stroke-linecap="round"/>
<path d="M243.234 141.496C243.227 141.495 243.206 141.495 243.184 141.505C243.164 141.512 243.147 141.518 243.134 141.525C243.126 141.53 243.116 141.536 243.098 141.543" stroke="white" stroke-width="5" stroke-linecap="round"/>
<path d="M286.689 54.04C286.713 54.04 286.736 54.04 286.725 54.0753C286.636 54.3486 286.263 54.4908 286.036 54.7404C285.821 54.9774 285.621 55.204 285.335 55.3944C285.049 55.5848 284.718 55.7746 284.349 55.9532C284.047 56.0994 283.766 56.3451 283.469 56.6183C283.121 56.9375 282.886 57.2238 282.696 57.5929C282.534 57.907 282.222 58.1752 281.959 58.4609C281.64 58.8084 281.27 59.0083 280.984 59.1744C280.688 59.3471 280.414 59.5546 280.105 59.7803C279.663 60.103 279.44 60.5046 279.071 60.8145C278.767 61.0695 278.489 61.3133 278.191 61.4806C277.797 61.7021 277.255 62.1678 276.729 62.5854C276.417 62.8334 276.135 63.025 275.849 63.1805C275.564 63.3358 275.279 63.4301 274.994 63.5371C274.678 63.6552 274.376 63.8581 274.066 63.9533C273.771 64.0441 273.308 64.3088 272.925 64.5235C272.776 64.6072 272.663 64.7375 272.58 64.8797C272.54 64.949 272.52 65.022 272.591 65.0466C273.11 65.2286 273.659 64.7867 273.993 64.7264C274.137 64.7004 274.279 64.6433 274.362 64.6547C274.704 64.7015 273.853 65.236 273.567 65.3915C273.271 65.5525 272.997 65.8066 272.723 66.033C272.435 66.2709 272.259 66.6624 271.998 66.8771C271.711 67.1129 271.287 67.5882 270.928 67.8873C270.637 68.1306 270.311 68.3741 269.741 68.8013C268.892 69.4379 268.693 69.8718 268.444 70.1575C268.204 70.4318 267.886 70.8218 267.506 71.1674C266.826 71.7844 265.895 72.6947 265.07 73.6023C263.886 74.9052 263.393 75.268 262.941 75.6606C262.414 76.1185 261.919 76.8114 261.55 77.3366C261.265 77.7413 260.825 78.3348 260.563 78.6447C260.258 79.0048 259.827 79.2391 259.529 79.4413C259.22 79.6509 259.018 80.0707 258.78 80.3917C258.447 80.8398 258.328 81.1405 258.102 81.4854C257.905 81.7868 257.71 82.1148 257.389 82.6023C257.314 82.7165 257.235 82.7809 257.246 82.782C257.371 82.7945 257.989 81.9336 258.927 80.7344C259.825 79.5861 260.228 79.3604 260.632 79.0747C261.03 78.793 261.369 78.3148 261.796 77.9814C262.249 77.6285 262.557 77.3634 262.95 77.0778C263.338 76.7952 263.58 76.7443 263.652 76.673C263.889 76.4376 262.751 77.0039 261.591 77.6786C261.023 78.009 260.222 78.6572 259.55 79.2431C258.879 79.829 258.385 80.3703 258.001 80.8963C257.289 81.8702 256.903 82.7082 256.57 83.1949C256.191 83.7511 255.927 84.0647 255.642 84.4331C255.265 84.9201 254.953 85.2301 254.277 86.0702C253.589 86.9264 252.792 87.8426 252.044 88.4481C251.359 89.0027 251.007 89.3653 250.318 90.2557C249.871 90.8336 249.532 91.3865 249.14 91.7556C248.87 92.01 248.558 92.2666 248.307 92.5522C248.035 92.8625 247.796 93.1938 247.547 93.5386C247.336 93.8303 247.154 94.1209 247.094 94.4066C247.033 94.6977 246.916 94.9768 246.798 95.2742C246.642 95.6635 246.37 95.904 246.156 96.2014C245.885 96.5777 245.61 96.7841 245.289 97.14C244.865 97.6103 244.73 97.901 244.575 98.1984C244.365 98.6014 243.969 98.7097 243.814 98.9711C243.648 99.2503 243.517 99.5413 243.279 99.827C243.224 99.8933 243.208 99.9693 243.172 99.9586C243.044 99.9202 243.041 99.5214 243.064 99.2001C243.071 99.1112 243.135 99.1847 243.159 99.2682C243.256 99.6004 242.994 99.8979 242.91 100.089C242.777 100.394 243.016 99.4258 243.052 98.9975C243.087 98.5906 243.159 98.1178 243.243 97.7615C243.406 97.0644 243.444 96.5259 243.516 96.1917C243.578 95.904 243.35 95.6215 243.184 95.3359C242.995 95.0109 242.733 94.6944 242.519 94.397C242.455 94.3079 242.353 94.2194 242.328 94.2415C241.969 94.5592 243.014 95.5431 243.325 96.1062C243.372 96.1906 243.42 96.2606 243.409 96.3087C243.385 96.4146 243.208 96.4753 243.101 96.5469C242.815 96.7393 242.78 95.9068 242.744 95.5028C242.715 95.1832 242.566 94.9083 242.459 94.6227C242.337 94.2989 242.209 93.887 242.173 93.5529C242.141 93.2571 241.995 92.9827 241.9 92.697C241.805 92.4114 241.663 92.1268 241.236 91.6636C240.973 91.3788 240.831 91.057 240.676 90.7714C240.515 90.4756 240.355 90.2012 240.2 89.9155C240.051 89.6391 239.88 89.3453 239.572 88.9538C238.869 88.0602 238.549 87.8946 238.287 87.5979C237.859 87.1336 237.622 86.8491 237.348 86.6226C237.288 86.5631 237.241 86.4925 237.192 86.3484" stroke="white" stroke-width="5" stroke-linecap="round"/>
<path d="M238.69 85.0647C239.185 84.8992 240.187 84.661 240.685 84.4356C241.541 84.0488 242.634 83.3786 243.229 83.0687C243.683 82.832 244.061 82.6412 244.715 82.3555C245.242 82.1251 245.701 81.7625 246.047 81.5821C246.205 81.4997 246.463 81.4758 246.712 81.3214C246.88 81.2175 247.952 80.672 249.521 79.793C250.668 79.15 251.477 78.506 251.895 78.2186C252.343 77.911 253.47 77.153 254.705 76.2747C255.519 75.6959 256.277 74.9649 257.145 74.3351C257.871 73.8075 258.563 73.3224 258.814 73.0125C259.094 72.6657 259.679 72.0643 260.157 71.6456C260.543 71.3069 260.87 71.0159 261.392 70.6946C261.706 70.5016 262.011 70.3497 262.368 70.0883C262.736 69.8179 263.056 69.5652 263.449 69.3156C263.984 69.0189 264.531 68.638 264.933 68.3424C265.171 68.1409 265.477 67.835 265.792 67.5197" stroke="white" stroke-width="5" stroke-linecap="round"/>
<path d="M268.502 65.808C268.62 65.7374 268.737 65.6668 268.833 65.6069C268.929 65.547 269 65.4999 269.144 65.3801" stroke="white" stroke-width="5" stroke-linecap="round"/>
<path d="M242.542 87.5609C242.589 87.5138 242.895 87.2307 243.664 86.6501C245.451 85.3021 245.986 85.3043 246.439 85.0179C246.745 84.8239 247.105 84.6852 247.39 84.554C247.54 84.4853 247.723 84.3051 248.195 83.9973C249.071 83.4272 250.169 82.9992 250.881 82.536C251.506 82.1298 252.283 81.7867 253.13 81.2155C253.71 80.8244 254.375 80.1007 255.411 79.5152C256.369 78.9736 256.876 78.9082 257.161 78.7296C257.303 78.67 257.659 78.5045 258.122 78.267C258.303 78.1708 258.373 78.1237 258.446 78.0752" stroke="white" stroke-width="5" stroke-linecap="round"/>
<path d="M259.516 77.5046L259.801 77.4333" stroke="white" stroke-width="5" stroke-linecap="round"/>
<path d="M243.184 92.5533C243.513 92.2238 243.843 91.8943 244.354 91.2656C244.865 90.6369 245.547 89.719 245.969 89.1167C246.869 87.8337 247.318 87.1829 248.121 86.4144C248.697 85.8639 249.678 85.0575 250.634 84.3272C251.59 83.5968 252.508 82.9849 253.028 82.6344C253.548 82.2838 253.642 82.2132 253.739 82.0692" stroke="white" stroke-width="5" stroke-linecap="round"/>
<path d="M176.11 182.609C175.95 182.564 175.356 182.358 174.688 182.236C174.411 182.186 174.251 182.161 173.782 182.075C173.215 181.972 173.045 182.092 172.907 182.121C172.748 182.154 172.563 182.196 172.312 182.224C171.558 182.31 171.301 182.173 171.025 182.201C170.609 182.244 170.313 182.242 170.141 182.224C169.809 182.191 169.395 182.173 168.673 182.156C168.453 182.15 168.338 182.127 168.263 182.144C168.213 182.155 168.303 182.264 168.292 182.333C168.248 182.6 167.776 182.745 167.409 183.198C167.139 183.532 167.006 183.78 166.869 184.007C166.751 184.205 166.506 184.554 166.258 184.849C166.01 185.144 165.76 185.371 165.403 185.727C165.047 186.083 164.593 186.56 164.33 186.829C163.919 187.249 163.643 187.407 163.327 187.591C163.138 187.701 163.034 187.844 162.994 187.913C162.974 187.946 162.965 187.981 163.01 187.976C163.165 187.958 163.445 187.844 164.164 187.651C164.705 187.505 165.587 187.207 166.078 187.055C166.634 186.883 166.832 186.834 167.198 186.663C168.225 186.182 168.348 186.019 168.555 185.927C168.705 185.86 168.899 185.824 169.255 185.624C169.5 185.485 169.703 185.41 169.858 185.353C170.123 185.255 170.687 184.942 171.012 184.75C171.139 184.676 171.253 184.561 171.419 184.458C171.573 184.378 171.735 184.286 171.924 184.171C172.044 184.102 172.215 184.011 172.459 183.883" stroke="white" stroke-width="5" stroke-linecap="round"/>
<path d="M178.59 182.127C178.499 182.184 178.247 182.298 178.074 182.368C177.817 182.471 177.385 182.38 176.961 182.362C176.833 182.357 176.754 182.333 176.702 182.322C176.586 182.297 176.982 182.185 177.183 182.133C177.378 182.082 177.522 182.07 177.774 182.052C177.993 182.037 178.245 182.001 178.388 181.949C178.56 181.887 178.693 181.829 178.831 181.805C178.983 181.78 179.106 181.713 179.25 181.685C179.414 181.652 179.565 181.645 179.646 181.662C179.874 181.71 179.279 181.84 179.142 181.863C178.989 181.888 178.866 181.977 178.728 182.023C178.59 182.069 178.453 182.115 178.315 182.161C178.177 182.207 178.04 182.253 177.896 182.299C177.721 182.355 177.557 182.413 177.414 182.477C177.247 182.55 177.087 182.643 176.84 182.775C176.62 182.893 176.455 182.976 175.946 183.199C175.769 183.277 175.563 183.354 175.157 183.486C174.75 183.617 174.148 183.799 173.633 184.007C172.685 184.388 172.23 184.698 172.116 184.755C171.893 184.867 171.544 185.076 171.072 185.272C170.625 185.457 170.428 185.639 169.908 185.954C169.36 186.285 168.89 186.466 168.695 186.603C168.591 186.672 168.478 186.741 168.379 186.799C168.281 186.856 168.202 186.902 168.12 186.949" stroke="white" stroke-width="5" stroke-linecap="round"/>
<path d="M163.091 192.184C163.159 192.116 163.558 191.739 164.166 191.2C164.49 190.913 164.675 190.887 164.744 190.835C164.78 190.808 164.812 190.772 164.767 190.732C164.392 190.395 163.952 190.29 163.901 190.153C163.804 189.894 164.054 189.443 164.57 188.656C164.715 188.435 164.756 188.327 164.739 188.264C164.71 188.158 164.163 188.291 163.355 188.531C162.951 188.651 162.582 188.839 161.991 189.251C161.4 189.663 160.604 190.311 160.03 190.809C159.455 191.308 159.125 191.638 158.774 191.944C158.422 192.25 158.058 192.523 157.712 192.754C156.718 193.418 156.582 193.412 156.547 193.412C156.451 193.413 156.718 193.104 157.112 192.641C157.39 192.315 157.881 191.849 158.303 191.489C158.725 191.13 159.077 190.903 159.446 190.706C160.174 190.318 160.679 190.129 160.868 190.032C161.017 189.955 161.139 189.922 161.196 189.905C161.209 189.901 161.186 189.944 160.543 190.405C159.901 190.866 158.639 191.753 157.972 192.226C157.266 192.728 157.145 192.837 156.984 192.952C156.728 193.136 156.365 193.365 155.953 193.622C155.291 194.036 154.815 194.456 154.625 194.622C154.453 194.774 154.286 194.881 153.708 195.482C153.362 195.841 153.127 195.972 152.623 196.447C152.387 196.669 152.174 196.822 152.036 196.902C151.892 196.985 151.76 197.108 151.622 197.183C151.46 197.272 151.29 197.453 151.14 197.556C150.946 197.691 150.75 197.935 150.584 198.141C150.255 198.55 149.901 198.726 149.694 198.905C149.445 199.12 149.132 199.381 148.616 199.885C148.305 200.189 148.178 200.335 147.897 200.467C147.727 200.546 147.593 200.645 147.455 200.719C147.326 200.789 147.146 201 146.944 201.133C146.762 201.253 146.491 201.334 146.353 201.414C146.209 201.497 146.1 201.62 145.974 201.73C145.905 201.792 145.847 201.862 145.796 201.93C145.767 201.965 145.733 201.999 145.629 202.103" stroke="white" stroke-width="5" stroke-linecap="round"/>
<path d="M228 114L227 153" stroke="white"/>
<path d="M237.033 125.256C237.013 125.256 236.993 125.256 236.953 126.089C236.912 126.922 236.852 128.588 236.831 129.577C236.805 130.826 236.911 131.296 237.052 131.641C237.115 131.793 237.234 131.864 237.326 131.906C237.487 131.978 237.782 131.847 238.306 131.484C239.151 130.9 239.628 130.245 239.86 129.932C240.182 129.499 240.459 128.768 240.682 127.908C240.789 127.496 240.784 127.109 240.744 126.501C240.704 125.893 240.604 125.07 240.492 124.415C240.3 123.291 240.035 122.602 239.853 122.247C239.781 122.108 239.711 122.073 239.62 122.093C238.9 122.246 238.616 123.791 238.404 124.832C238.165 126 238.209 126.715 238.25 126.837C238.27 126.898 238.29 126.958 238.361 126.889C238.597 126.657 238.897 125.81 239.331 124.506C239.564 123.81 239.746 123.021 239.89 121.925C240.033 120.829 240.114 119.444 240.135 118.671C240.156 117.897 240.116 117.776 240.045 117.815C239.974 117.853 239.874 118.054 239.662 119.01C239.449 119.967 239.128 121.673 238.963 122.653C238.797 123.632 238.797 123.833 238.898 123.635C238.998 123.437 239.199 122.835 239.362 122.234C239.526 121.632 239.647 121.05 239.719 120.459C239.953 118.539 239.589 117.959 239.406 117.653C239.369 117.59 239.325 117.532 239.465 117.451C239.894 117.202 240.317 117.126 240.439 117.025C240.582 116.906 240.622 116.6 240.582 116.256C240.553 116.003 240.319 115.909 240.177 115.838C239.578 115.538 238.616 115.807 238.019 115.848C237.432 115.888 236.996 115.989 236.457 116.02C236.262 116.031 235.66 116.071 234.819 116.081C233.913 116.092 232.98 116.051 232.514 115.96C231.498 115.759 231.155 115.808 230.8 115.716C230.121 115.54 229.857 115.605 229.553 115.534C229.473 115.515 229.391 115.523 229.339 115.553C229.288 115.584 229.268 115.644 229.268 115.715C229.266 116.016 229.409 116.252 229.44 116.849C229.469 117.408 229.531 118.138 229.561 118.997C229.587 119.698 229.572 120.51 229.531 120.724C229.303 121.926 229.43 118.077 229.41 118.34C229.364 118.939 229.247 119.334 229.136 119.77C229.031 120.183 228.964 120.59 228.933 121.602C228.918 122.115 228.842 122.396 228.832 122.841C228.824 123.17 228.963 123.651 229.064 124.099C229.227 124.81 229.085 125.923 229.075 126.996C229.07 127.51 229.186 127.951 229.237 128.436C229.373 129.749 229.146 130.121 229.116 130.425C229.099 130.589 229.065 131.292 229.085 132.335C229.097 132.96 229.186 133.645 229.176 134.416C229.167 135.13 229.106 135.738 229.075 136.622C229.047 137.426 229.065 138.952 229.055 139.768C229.041 140.848 228.964 141.333 228.933 142.022C228.902 142.711 228.842 143.726 228.771 144.121C228.607 145.03 228.862 145.429 228.922 146.255C229.039 147.84 228.963 148.918 229.004 149.039C229.102 149.333 229.105 149.708 229.116 150.305C229.122 150.645 229.025 150.924 228.943 151.108C228.835 151.354 228.963 150.44 229.014 149.995C229.026 149.892 229.044 149.832 229.075 149.761C229.14 149.607 229.829 149.246 230.872 148.8C231.405 148.572 231.86 148.413 232.477 148.1C233.578 147.54 233.909 147.277 234.375 147.023C235.301 146.519 236.361 146.406 236.748 146.212C237.231 145.97 238.063 145.575 238.522 145.37C238.737 145.275 238.979 145.127 239.482 144.725C241.339 143.24 241.615 142.958 241.656 142.856C241.735 142.663 241.111 142.835 240.596 143.057C239.752 143.42 239.123 143.868 238.529 144.252C238.102 144.526 237.392 144.916 236.85 145.183C235.526 145.834 234.988 145.876 234.561 146.099C234.287 146.243 233.993 146.343 233.649 146.485C233.156 146.688 232.858 146.849 232.301 147.133C231.822 147.377 231.499 147.316 231.195 147.407C230.833 147.516 230.506 147.963 230.211 148.228C230.15 148.283 230.06 148.289 230.099 148.26C230.28 148.121 230.524 148.006 230.967 147.664C231.342 147.374 232.051 146.881 233.016 146.261C233.98 145.641 235.184 144.918 235.995 144.395C236.806 143.873 237.188 143.571 237.716 143.256C238.874 142.563 239.689 142.208 239.921 142.056C240.45 141.71 241.025 141.599 241.402 141.397C241.474 141.357 241.533 141.335 241.494 141.335C240.912 141.331 240.199 141.72 239.077 142.204C238.017 142.661 237.379 143.099 237.177 143.169C236.53 143.395 236.021 143.646 235.515 143.818C235 143.993 234.643 144.172 234.006 144.446C232.69 145.01 232.392 145.227 232.067 145.4C231.606 145.644 231.116 146.076 230.658 146.635C230.384 146.97 230.06 147.052 229.735 147.114C229.69 147.122 229.713 147.034 230.316 146.451C230.918 145.868 232.103 144.764 232.883 144.075C233.664 143.385 234.005 143.144 234.382 142.91C235.147 142.433 235.654 142.167 236.046 141.905C237.563 140.893 238.086 140.708 238.381 140.565C238.724 140.399 239.16 140.221 239.466 140.048C239.58 139.983 239.709 139.956 239.841 139.916C239.99 139.87 239.633 139.995 238.282 140.6C237.349 141.017 236.007 141.846 235.263 142.28C234.434 142.763 234.176 142.936 233.832 143.138C233.518 143.323 233.062 143.604 232.475 143.878C231.474 144.344 230.367 144.962 229.978 145.147C229.92 145.174 229.857 145.187 229.796 145.187C229.735 145.188 229.674 145.168 229.703 145.087C229.733 145.006 229.853 144.866 230.808 144.231C231.764 143.597 233.55 142.473 234.812 141.623C236.073 140.773 236.756 140.231 237.65 139.63C238.543 139.03 239.627 138.388 240.256 138.027C241.215 137.476 241.412 137.402 241.403 137.431C241.378 137.513 241.133 137.602 240.177 138.065C239.22 138.529 237.514 139.332 236.193 140.036C234.873 140.741 233.989 141.323 233.354 141.713C232.375 142.314 231.663 142.571 231.117 142.733C230.534 142.906 229.84 143.158 229.421 143.342C229.254 143.415 229.126 143.565 229.045 143.686C229.009 143.74 229.044 143.807 229.095 143.839C229.38 144.014 229.854 143.547 231.181 142.44C232.333 141.481 234.436 139.688 235.753 138.617C237.069 137.546 237.531 137.245 238.02 136.98C238.989 136.453 239.688 136.166 239.73 136.094C240.013 135.618 238.476 136.669 237.819 137.164C237.099 137.707 236.589 138.231 236.175 138.494C235.762 138.756 235.111 138.941 234.172 139.184C232.986 139.49 231.947 139.691 231.33 139.974C230.154 140.514 229.492 141.698 229.379 142.094C229.354 142.183 229.369 142.266 229.399 142.328C229.429 142.389 229.489 142.429 230.404 141.567C231.318 140.704 233.084 138.938 234.085 137.957C235.248 136.818 235.552 136.632 235.885 136.46C236.114 136.342 236.479 136.188 237.106 135.955C238.609 135.397 239.588 135.07 239.739 134.979C240.125 134.748 240.317 134.664 240.308 134.644C240.28 134.581 240.038 134.664 239.212 134.975C238.386 135.287 236.941 135.889 235.996 136.33C235.05 136.77 234.649 137.031 234.332 137.266C234.014 137.501 233.794 137.702 233.349 138.056C232.254 138.928 231.438 139.549 231.226 139.772C230.911 140.101 230.425 140.138 229.908 140.129C229.829 140.127 229.875 140.039 230.207 139.656C230.539 139.274 231.161 138.571 231.943 137.768C232.725 136.964 233.649 136.081 234.596 135.285C235.544 134.489 236.487 133.806 237.114 133.394C238.479 132.497 239.342 132.294 239.648 132.069C239.766 131.983 239.892 131.907 239.943 131.876C240.04 131.818 238.867 132.53 237.418 133.391C236.42 133.984 235.661 134.739 235.128 135.271C234.852 135.548 234.541 135.576 234.398 135.597C234.369 135.601 234.457 135.497 235.1 135.215C235.744 134.933 236.948 134.451 237.769 134.162C238.974 133.739 239.546 133.711 239.689 133.721C239.83 133.731 239.325 133.772 238.993 133.802C238.316 133.863 237.363 134.075 236.301 134.368C235.192 134.674 234.48 135.109 234.146 135.342C233.634 135.699 233.384 135.86 233.243 135.881C233.162 135.892 233.061 135.861 232.999 135.79C232.938 135.72 232.918 135.599 232.937 135.457C232.981 135.147 233.421 134.587 234.52 133.457C235.253 132.703 236.442 131.684 237.142 131.016C238.078 130.123 238.35 129.718 238.573 129.455C239.173 128.746 239.303 127.936 239.325 126.721C239.344 125.649 238.799 124.713 238.495 124.154C238.407 123.992 238.19 124.886 238.108 126.429C238.056 127.43 238.108 128.876 238.168 129.842C238.229 130.807 238.329 131.249 238.431 131.366C238.533 131.483 238.633 131.262 238.725 130.787C238.817 130.312 238.897 129.589 238.979 128.183C239.06 126.777 239.14 124.71 239.212 123.514C239.299 122.054 239.506 121.548 239.568 120.922C239.606 120.537 239.348 120.015 239.205 119.254C238.879 117.524 238.838 116.416 238.788 116.335C238.732 116.245 238.575 116.818 238.313 118.338C238.107 119.531 237.93 121.605 237.786 123.533C237.642 125.462 237.582 127.188 237.511 128.057C237.44 128.926 237.359 128.886 237.278 128.735C237.068 128.345 236.973 127.572 236.882 126.752C236.844 126.414 236.851 126.233 236.66 124.875C236.469 123.517 236.088 120.988 235.892 119.595C235.695 118.202 235.695 118.021 235.695 117.978C235.695 117.935 235.695 118.036 235.514 120.988C235.334 123.94 234.972 129.741 234.796 132.891C234.62 136.04 234.64 136.361 234.711 136.426C234.883 136.585 235.207 135.501 235.551 134.107C235.749 133.304 235.854 132.272 235.816 130.711C235.778 129.15 235.558 127.082 235.454 125.846C235.322 124.273 235.451 123.556 235.583 123.039C235.625 122.873 235.734 122.943 235.785 123.687C235.837 124.431 235.857 125.856 236.068 127.774C236.279 129.693 236.681 132.061 236.938 133.402C237.195 134.743 237.295 134.984 237.387 135.168C237.479 135.352 237.559 135.473 237.66 135.324C237.762 135.175 237.883 134.754 237.935 134.125C237.987 133.496 237.966 132.673 237.745 130.212C237.524 127.751 237.103 123.676 236.875 121.546C236.648 119.417 236.628 119.357 236.618 119.366C236.55 119.425 236.628 119.659 236.768 121.206C236.898 122.632 237.11 125.363 237.284 127.01C237.458 128.658 237.578 129.139 237.65 129.327C237.723 129.515 237.743 129.395 237.632 127.376C237.522 125.356 237.282 121.442 237.188 119.546C237.094 117.65 237.154 117.891 237.215 118.286C237.483 120.019 237.621 120.612 237.622 120.694C237.623 120.919 237.117 119.968 236.662 118.968C236.088 117.707 235.858 116.762 235.716 116.448C235.588 116.165 235.453 115.849 235.23 115.586C234.978 115.287 234.561 115.362 234.267 115.462C234.152 115.501 234.055 115.683 233.973 115.866C233.891 116.048 233.851 116.269 233.91 117.587C233.97 118.905 234.131 121.314 234.133 123.79C234.135 126.265 233.975 128.734 233.922 130.237C233.87 131.74 233.93 132.201 233.991 132.55C234.226 133.889 235.066 134.927 235.077 135.332C235.09 135.84 234.642 136.547 234.439 137.126C234.399 137.239 234.378 137.299 234.337 137.32C234.297 137.341 234.236 137.321 234.175 137.27C234.038 137.157 233.932 136.856 233.84 135.869C233.768 135.086 233.809 133.718 233.769 132.754C233.729 131.79 233.649 131.268 233.668 129.203C233.687 127.137 233.807 123.544 233.909 121.392C234.011 119.24 234.092 118.638 234.133 118.287C234.215 117.595 234.235 116.584 234.185 115.86C234.171 115.667 234.154 115.504 234.104 115.352C234.079 115.278 234.033 115.22 233.962 115.23C233.892 115.239 233.791 115.319 233.348 115.782C232.905 116.245 232.122 117.088 231.679 117.592C231.13 118.217 230.992 118.643 230.86 119.119C230.758 119.487 230.768 120.001 230.939 121.451C231.07 122.566 231.45 124.427 231.636 125.55C231.822 126.672 231.842 126.993 231.782 127.721C231.722 128.448 231.582 129.572 231.469 130.322C231.357 131.072 231.277 131.413 231.235 132.02C231.194 132.628 231.194 133.491 231.234 134.217C231.274 134.942 231.354 135.504 231.396 136.015C231.519 137.537 231.236 138.148 231.013 138.726C230.929 138.941 230.91 139.002 230.9 138.591C230.89 138.181 230.89 137.298 230.97 136.542C231.116 135.17 231.376 134.362 231.396 133.887C231.408 133.613 231.457 133.272 231.537 132.815C231.618 132.358 231.739 131.796 231.801 130.794C231.863 129.792 231.863 128.367 231.903 126.639C231.943 124.911 232.023 122.924 232.175 121.318C232.327 119.712 232.548 118.548 232.652 117.898C232.771 117.152 232.674 116.984 232.593 116.852C232.503 116.706 232.411 116.538 232.26 116.416C232.181 116.354 232.048 116.375 231.936 116.415C231.424 116.598 230.813 117.585 230.353 118.128C230.111 118.414 229.958 119.228 229.896 120.482C229.831 121.821 230.22 122.679 230.321 123.003C230.42 123.317 230.403 123.994 230.393 124.824C230.387 125.295 230.302 125.599 230.191 126.113C229.999 127.005 229.836 127.788 229.684 128.183C229.569 128.484 229.41 128.862 229.259 129.469C229.07 130.223 229.165 131.212 229.347 132.123C229.459 132.68 229.672 133.502 229.874 134.535C230.091 135.639 230.402 136.931 230.524 137.41C230.548 137.501 230.565 137.582 230.605 137.614C230.685 137.676 231.19 136.721 231.848 135.322C232.144 134.695 232.207 134.262 232.258 132.832C232.298 131.704 232.249 129.756 232.248 128.552C232.248 126.947 232.269 126.393 232.118 125.718C231.998 125.182 231.746 124.261 231.582 123.875C231.418 123.49 231.337 123.671 231.246 124.075C231.154 124.479 231.054 125.101 230.992 126.034C230.93 126.967 230.91 128.192 230.98 129.696C231.05 131.2 231.211 132.946 231.304 133.886C231.396 134.826 231.416 134.906 231.447 134.987C231.477 135.069 231.517 135.149 231.568 135.09C231.619 135.031 231.679 134.83 231.77 134.195C231.862 133.56 231.982 132.496 232.024 131.466C232.066 130.436 232.026 129.473 231.965 128.886C231.885 128.11 231.661 127.832 231.489 127.67C231.337 127.527 231.073 127.588 230.831 127.648C230.306 127.779 229.94 128.598 229.714 128.986C229.485 129.38 229.268 129.635 229.227 129.766C229.133 130.07 229.59 130.384 229.774 130.709C230.042 131.185 230.179 131.459 230.352 131.713C230.385 131.763 230.463 131.724 231.497 130.118C232.532 128.512 234.539 125.32 235.895 123.315C237.25 121.309 237.892 120.587 238.384 120.094C239.157 119.319 239.567 119.052 239.628 118.881C239.719 118.624 239.629 118.383 239.558 118.231C239.321 117.722 238.317 117.431 237.795 117.187C237.307 116.959 237.217 116.639 236.963 116.568C236.817 116.527 236.348 116.698 235.619 117.001C234.942 117.283 234.34 117.671 233.642 117.914C232.366 118.359 231.946 118.099 231.368 117.897C230.981 117.761 230.689 117.612 230.374 117.511C229.941 117.372 229.674 117.247 229.269 117.247C229.077 117.246 228.944 117.408 228.842 117.53C228.795 117.586 228.781 117.651 228.781 117.732C228.779 118.295 229.388 118.868 229.49 119.121C229.617 119.437 229.592 119.78 229.622 120.347C229.636 120.592 229.673 120.915 229.723 121.55C229.804 122.575 229.977 123.328 229.987 123.622C229.998 123.936 230.038 124.261 230.048 124.574C230.058 124.869 230.099 125.153 230.189 126.751C230.272 128.209 230.46 130.979 230.533 132.627C230.626 134.714 230.485 135.271 230.434 135.484C230.323 135.948 230.645 136.948 230.948 138.364C231.215 139.605 231.194 140.36 231.184 140.633C231.153 141.473 231.093 142.53 231.002 142.894C230.815 143.641 230.667 144.293 230.475 144.901C230.296 145.469 230.1 146.075 229.937 146.645C229.896 147.214 229.856 147.477 229.846 147.72C229.835 147.823 229.815 147.883 229.795 147.945" stroke="white" stroke-width="2" stroke-linecap="round"/>
<path d="M226.753 91.6786C226.934 91.5374 227.339 91.2941 228.697 90.8212C229.886 90.4068 232.122 89.726 233.32 89.354C234.776 88.9019 235.105 88.8403 235.541 88.6481C235.833 88.5194 235.998 88.2527 236.252 87.9793C236.305 87.9221 236.263 87.8476 236.202 87.8065C235.852 87.5692 235.191 87.603 234.683 87.5526C234.117 87.4963 233.751 87.6432 233.425 87.7244C232.931 87.8476 232.19 87.906 231.632 88.2804C230.832 88.8169 230.647 89.1031 230.404 89.2448C230.15 89.392 229.998 89.6092 229.846 89.8428C229.672 90.1097 229.269 90.2783 228.944 90.5219C228.644 90.7467 228.457 91.0082 228.274 91.3023C228.091 91.5962 227.929 91.9207 227.899 92.4167C227.854 93.134 227.888 94.2322 227.969 94.5968C228.063 95.0202 228.131 95.3879 228.273 95.692C228.415 95.9969 228.496 96.2395 228.577 96.4831C228.679 96.787 228.8 97.1921 228.942 97.5975C229.116 98.0952 229.125 98.7104 229.176 99.2298C229.198 99.4613 229.206 99.6465 229.237 100.24C229.315 101.774 229.227 102.89 229.196 103.183C229.097 104.143 229.287 104.391 229.318 104.786C229.33 104.94 229.369 105.381 229.359 105.989C229.343 106.922 229.268 108.303 229.186 108.689C229.114 109.031 229.165 109.439 229.136 109.894C229.08 110.736 229.186 111.222 229.126 111.619C229.085 111.883 228.963 112.116 228.923 112.501C228.863 113.063 228.659 113.534 228.588 113.869C228.485 114.357 228.517 114.75 228.637 114.995C229.08 115.895 229.712 113.883 230.036 113.507C230.371 113.12 230.645 112.747 230.888 112.453C231.185 112.095 231.415 111.734 231.922 111.186C232.381 110.689 232.956 110.09 233.321 109.847C233.834 109.505 234.192 108.835 234.679 108.448C235.201 108.034 235.651 107.679 236.209 107.273C236.722 106.9 237.173 106.441 237.607 106.128C238.454 105.518 238.754 105.204 239.16 104.829C239.661 104.367 240.155 103.846 240.771 103.198C241.086 102.868 241.31 102.528 241.393 102.304C241.575 101.806 240.198 102.95 238.873 103.881C238.051 104.459 237.135 105.12 236.791 105.465C236.23 106.027 235.657 106.661 235.159 107.107C234.726 107.496 234.237 108.058 233.821 108.647C233.144 109.604 232.371 110.068 232.026 110.291C231.591 110.573 231.175 110.919 230.88 111.163C230.576 111.415 230.283 111.81 229.978 112.046C229.873 112.126 229.734 112.157 229.653 112.178C229.262 112.277 229.633 111.206 229.551 110.962C229.511 110.841 229.53 110.678 229.621 110.516C229.796 110.205 230.721 109.748 231.724 109.05C232.178 108.734 232.465 108.413 232.821 107.996C233.604 107.08 234.132 106.38 234.375 106.127C234.857 105.626 235.45 105.041 236.289 104.243C236.817 103.741 237.314 103.482 237.802 103.136C238.269 102.804 238.816 102.386 239.16 102.092C239.512 101.791 240.793 100.872 241.574 100.256C241.698 100.158 241.757 100.013 241.788 99.9114C241.8 99.8711 241.718 99.8503 241.627 99.86C241.193 99.9063 240.686 100.193 239.25 100.961C238.12 101.565 237.44 102.181 237.127 102.433C236.443 102.984 236.203 103.315 235.888 103.641C235.545 103.995 234.967 104.633 234.631 105.069C234.273 105.536 233.651 106.01 233.252 106.368C232.626 106.931 231.803 107.656 231.125 108.131C230.626 108.48 230.364 108.709 230.069 108.853C229.184 109.285 230.18 107.314 230.199 106.897C230.214 106.585 230.726 106.622 231.219 106.381C232.407 105.8 233.22 105.244 233.743 104.781C234.192 104.385 234.989 103.636 235.563 103.133C236.138 102.63 236.459 102.389 236.815 102.064C237.58 101.367 238.246 100.664 238.783 100.208C239.415 99.6713 239.729 99.4658 240.113 99.0914C240.726 98.4936 240.965 98.2091 241.239 97.8439C241.477 97.5275 241.776 97.377 241.91 97.2851C242.083 97.1659 241.334 97.335 240.437 97.8378C239.718 98.2411 238.557 99.1033 237.716 99.6979C236.407 100.624 235.838 101.106 235.656 101.308C235.329 101.671 234.844 102.119 234.298 102.626C234.011 102.892 233.709 103.113 233.345 103.326C232.498 103.82 232.148 104.107 231.843 104.269C231.507 104.449 231.135 104.634 230.809 104.847C230.369 105.135 229.918 105.465 229.613 105.719C229.552 105.77 229.491 105.81 229.46 105.58C229.363 104.854 229.49 104.271 229.631 104.149C230.112 103.737 231.41 103.341 232.255 102.953C232.691 102.754 233.138 102.446 234.044 101.802C234.735 101.312 235.794 100.355 236.373 99.8494C237.187 99.1376 237.559 98.6155 237.843 98.2697C238.255 97.7682 238.613 97.4378 239.573 96.6498C240.391 95.979 240.681 95.3307 240.885 95.015C240.997 94.8409 241.149 94.7206 241.129 94.6695C241.108 94.6132 240.909 94.7589 240.144 95.3122C239.379 95.8654 238.014 96.8891 237.22 97.5169C236.217 98.3103 235.819 98.7529 235.374 99.1173C234.753 99.6251 234.358 99.7882 233.508 100.102C232.933 100.315 232.19 100.821 231.55 101.399C231.234 101.685 230.911 101.796 230.465 102.069C230.345 102.143 230.223 102.201 230.14 102.192C229.99 102.175 229.977 101.437 230.057 100.515C230.087 100.167 230.298 100.095 230.411 100.043C230.768 99.8809 231.353 99.8101 231.699 99.6477C231.879 99.5633 232.446 99.2043 233.326 98.5671C234.132 97.984 234.518 97.5795 234.629 97.4482C234.777 97.2735 235.406 96.7322 236.347 95.8517C237.123 95.1252 237.56 94.7814 237.791 94.5396C238.288 94.0204 238.856 93.6263 239.31 93.3635C240.373 92.7491 241.063 92.3112 241.463 91.8118C241.528 91.7297 241.554 91.6396 241.524 91.5682C241.495 91.4967 241.394 91.4365 241.282 91.4155C240.849 91.3342 240.362 91.6372 239.108 92.3233C237.877 92.9968 237.176 93.6652 236.984 93.7562C236.618 93.9291 236.305 94.4134 235.859 94.8298C235.222 95.4229 234.824 95.9153 234.641 96.0874C234.581 96.1445 234.659 96.1993 234.751 96.2C234.966 96.2014 235.287 96.0789 235.782 95.9478C236.472 95.765 237.111 95.5114 237.878 95.2997C240.037 94.7035 240.317 94.5174 240.328 94.5171C240.553 94.5109 239.852 94.6391 239.64 94.5886C239.404 94.5324 239.203 94.3964 239.031 94.1342C238.512 93.3422 238.675 92.4541 238.635 91.7038C238.622 91.4525 238.515 91.4754 238.393 91.566C238.09 91.7918 237.885 92.063 237.613 92.3754C237.062 93.0085 236.588 93.442 236.265 93.7841C235.57 94.5223 234.947 95.3258 234.471 95.731C234.13 96.0214 233.509 96.3393 232.81 96.8152C232.148 97.2663 231.642 97.7383 231.074 98.2161C230.914 98.3505 230.809 98.4908 230.657 98.5519C230.523 98.6059 230.504 97.4469 230.524 95.8864C230.537 94.9132 230.119 94.6604 229.977 94.4067C229.818 94.1213 229.794 92.7054 229.734 91.8519C229.729 91.7781 229.693 91.7005 229.653 91.7093C229.508 91.7409 229.45 92.2029 229.389 92.9398C229.301 94.0146 229.389 94.8198 229.449 95.2036C229.654 96.5034 230.139 97.658 230.26 98.054C230.311 98.2198 230.301 98.3691 230.362 98.4905C230.394 98.5561 230.462 98.6118 230.503 98.5525C230.852 98.0491 230.625 97.2176 230.656 96.6078C230.67 96.3234 230.847 95.5175 231.08 94.2227C231.414 92.3681 231.315 91.9851 231.406 91.6691C231.422 91.612 231.536 91.6579 231.598 91.7084C231.726 91.8135 231.841 92.2631 232.094 93.4426C232.272 94.2756 232.446 95.6057 232.58 96.3785C232.796 97.6303 232.897 97.9026 232.907 98.0543C232.911 98.1263 232.937 98.186 232.947 98.0564C232.957 97.9269 232.957 97.6057 232.877 97.0287C232.797 96.4518 232.636 95.6288 232.503 95.0342C232.293 94.0929 232.147 93.5661 232.116 93.192C232.041 92.2724 232.268 91.4973 232.369 91.2938C232.389 91.253 232.47 91.2929 232.521 91.3835C232.652 91.6164 232.774 92.6232 233.016 94.0509C233.294 95.686 233.929 96.2395 234.123 96.4932C234.236 96.6426 234.336 96.7876 234.427 96.7885C234.505 96.7893 234.538 96.5485 234.589 95.9335C234.64 95.3185 234.68 94.2747 234.681 93.4961C234.682 92.2351 234.52 91.358 234.388 90.7299C234.315 90.3832 234.276 90.2193 234.245 90.1883C233.678 89.6101 234.882 92.3647 235.065 92.8626C235.353 93.6434 235.471 93.9682 235.593 94.3131C235.629 94.4161 235.694 94.5351 235.755 94.5871C235.816 94.6391 235.876 94.619 235.987 94.3678C236.099 94.1166 236.259 93.6348 236.352 92.8547C236.445 92.0746 236.465 91.0107 236.455 90.4325C236.445 89.8543 236.405 89.7941 236.354 89.733C236.249 89.6065 236.101 89.5295 235.889 89.4991C235.58 89.4547 235.21 89.5289 234.705 89.68C233.081 90.1666 232.471 90.7254 232.45 90.7458C231.771 91.4055 234.861 90.8063 235.358 90.837C235.551 90.8671 235.734 90.9079 236.017 90.9383C236.199 90.9486 236.46 90.9486 236.85 91.0095" stroke="white" stroke-width="2" stroke-linecap="round"/>
<path d="M216.5 94.5C220.446 120.217 221 129.5 216.5 161" stroke="white"/>
<path d="M228.28 99.9287C227.642 97.5392 227.321 95.4054 227.083 94.6822C226.785 93.7788 225.355 96.617 224.42 99.7561C223.703 102.164 225.448 104.602 227.023 106.769C227.293 107.14 227.478 107.278 227.585 107.175C227.946 106.83 227.748 104.371 227.589 101.203C227.505 99.5452 226.686 96.967 225.941 93.5585C225.67 92.3126 225.617 92.0489 225.59 92.0713C225.563 92.0937 225.563 92.4101 225.563 92.7362" stroke="white" stroke-width="2" stroke-linecap="round"/>
<path d="M226.515 97.0289C226.671 96.8238 227.128 96.3429 227.798 95.6368C228.401 95.0022 228.656 94.5616 228.686 94.4347C228.699 94.381 228.633 94.3438 228.59 94.3253C228.516 94.2932 228.367 94.3188 228.138 94.3549C227.881 94.3954 227.341 94.5358 226.701 94.6748C226.173 94.7893 225.729 95.0204 225.361 95.141C224.836 95.3132 224.532 95.3347 224.024 95.4858C223.834 95.5426 223.672 95.5408 223.545 95.5109C223.448 95.488 223.754 95.0958 224.159 94.6786C224.351 94.4801 224.757 94.3442 225.343 94.1689C225.698 94.0628 225.861 94.0527 225.897 94.0467C226.046 94.0224 225.368 94.0041 225.07 94.0946C224.881 94.1522 224.605 94.2698 224.201 94.4146C223.679 94.6019 223.129 94.7173 222.665 94.9102C221.817 95.2621 221.592 95.4922 221.193 95.6551C221.109 95.6897 221.071 95.686 221.041 95.704C220.906 95.7833 220.877 95.9756 220.666 96.1872C220.35 96.504 219.778 96.7131 219.553 96.8411C219.48 96.8827 219.389 96.8957 219.293 96.9378C219.179 96.9874 219.123 97.1131 219.087 97.2216C218.998 97.4859 219.243 97.8136 219.412 98.2011C219.521 98.4478 219.473 98.9729 219.516 99.4111C219.523 99.4861 219.558 99.5442 219.72 100.048C219.882 100.552 220.181 101.498 220.419 102.698C220.657 103.898 220.825 105.324 220.923 106.094C221.031 106.938 221.118 107.297 221.191 107.769C221.219 107.952 221.216 108.025 221.198 108.05C221.18 108.075 221.144 108.051 221.101 107.985C221.059 107.918 221.011 107.811 220.908 107.468C220.806 107.125 220.65 106.55 220.552 106.116C220.393 105.412 220.381 104.943 220.375 104.653C220.37 104.42 220.321 104.18 220.272 103.98C220.215 103.746 220.199 103.455 220.163 103.164C220.138 102.96 220.043 102.537 219.91 102.041C219.779 101.555 219.848 101.204 219.873 100.747C219.893 100.363 219.897 99.6683 219.921 99.3344C219.945 99.0005 219.981 99.0484 220.071 99.1988C220.529 99.9608 220.875 100.27 221.172 100.362C221.373 100.424 221.65 100.296 221.909 100.157C222.118 100.046 222.435 99.7532 222.84 99.3667C223.012 99.2024 223.089 99.0759 223.258 98.8705C223.427 98.6651 223.679 98.3776 224.054 97.8882C224.429 97.3988 224.92 96.7161 225.143 96.3823C225.366 96.0486 225.306 96.0845 224.886 96.654C224.466 97.2235 223.687 98.3254 223.155 99.1685C222.622 100.012 222.358 100.563 222.21 100.894C222.063 101.226 222.039 101.322 222.038 101.395C222.038 101.469 222.062 101.516 222.122 101.517C222.285 101.519 222.629 101.157 223.106 100.62C223.341 100.355 223.523 100.071 223.711 99.7616C223.9 99.452 224.079 99.1166 224.25 98.7342C224.602 97.9438 224.748 97.4409 224.766 97.3741C224.769 97.3651 224.773 97.4151 224.683 98.3081C224.593 99.2012 224.413 100.938 224.321 101.862C224.222 102.846 224.216 102.981 224.234 103.071C224.241 103.106 224.336 103.055 224.57 102.791C224.805 102.527 225.2 102.035 225.667 101.387C226.134 100.739 226.661 99.9485 226.478 100.302C226.294 100.655 225.384 102.176 224.765 103.331C224.146 104.486 223.847 105.229 223.693 105.635C223.539 106.042 223.539 106.09 223.568 106.114C223.598 106.139 223.658 106.139 223.737 106.091C223.816 106.043 223.912 105.947 224.242 105.539C224.573 105.13 225.136 104.411 225.57 103.903C226.261 103.094 226.635 102.812 226.744 102.752C226.805 102.718 226.876 102.668 226.931 102.715C226.986 102.762 227.022 102.906 227.023 103.028C227.023 103.15 226.987 103.246 226.633 103.954C226.279 104.662 225.609 105.979 225.257 106.718C224.894 107.576 224.893 107.783 224.93 107.94C224.954 108.014 224.99 108.073 225.027 108.135" stroke="white" stroke-width="4" stroke-linecap="round"/>
<path d="M221.397 128.751C221.385 128.655 221.361 128.365 221.403 128.003C221.424 127.823 221.445 127.511 221.529 126.967C221.613 126.423 221.757 125.657 221.861 125.022C221.965 124.388 222.025 123.909 222.056 123.602C222.125 122.91 222.159 122.473 222.25 121.972C222.283 121.786 222.304 121.386 222.353 120.734C222.401 120.085 222.281 119.474 222.166 118.997C222.087 118.669 222.002 118.504 221.942 118.324C221.824 117.97 221.676 117.562 221.597 117.247C221.567 117.125 221.555 117.077 221.506 117.262C221.458 117.447 221.375 117.866 221.325 118.285C221.276 118.705 221.264 119.112 221.294 119.705C221.324 120.298 221.396 121.065 221.534 121.873C221.673 122.681 221.877 123.508 222.096 124.34C222.314 125.173 222.542 125.988 222.683 126.641C222.824 127.294 222.872 127.761 222.891 128.313C222.909 128.865 222.897 129.488 222.873 129.917C222.821 130.847 222.752 131.156 222.74 131.466C222.74 131.471 222.74 131.342 222.68 130.819C222.62 130.296 222.5 129.374 222.451 128.678C222.401 127.981 222.425 127.538 222.461 127.202C222.498 126.866 222.545 126.65 222.624 126.162C222.703 125.673 222.81 124.919 222.848 123.853C222.885 122.788 222.85 121.434 222.837 120.755C222.825 120.076 222.836 120.112 222.831 120.951C222.825 121.79 222.801 123.431 222.962 125.342C223.124 127.253 223.471 129.385 223.824 130.974C224.176 132.564 224.523 133.546 224.756 134.142C224.989 134.738 225.097 134.917 225.17 135.034C225.244 135.15 225.28 135.198 225.316 135.091C225.353 134.984 225.389 134.72 225.335 132.441C225.282 130.161 225.138 125.873 224.986 123.335C224.835 120.797 224.679 120.138 224.587 119.769C224.494 119.399 224.47 119.339 224.482 119.362C224.494 119.386 224.542 119.493 224.818 121.579C225.094 123.665 225.597 127.725 225.886 129.936C226.175 132.148 226.235 132.387 226.314 132.631C226.393 132.874 226.488 133.113 226.574 133.231C226.659 133.348 226.731 133.336 226.828 133.222C226.925 133.108 227.045 132.893 227.148 132.62C227.252 132.347 227.336 132.024 227.451 130.174C227.566 128.325 227.709 124.959 227.754 123.04C227.798 121.12 227.738 120.749 227.695 120.528C227.652 120.307 227.628 120.247 227.61 120.192C227.591 120.137 227.58 120.089 227.49 120.586C227.399 121.082 227.232 122.124 227.098 122.763C226.963 123.401 226.867 123.605 226.769 123.815" stroke="white" stroke-width="4" stroke-linecap="round"/>
<path d="M221.869 117.064C221.869 116.98 221.893 116.762 221.941 116.156C221.98 115.67 221.989 114.819 221.996 114.339C222.005 113.652 221.917 113.412 221.869 113.169C221.818 112.912 221.736 112.65 221.663 112.322C221.634 112.192 221.603 111.864 221.501 111.381C221.348 110.662 221.083 110.35 220.95 109.711C220.875 109.352 220.889 108.696 220.847 108.425C220.799 108.115 220.816 109.221 220.894 109.686C220.998 110.301 221.154 110.457 221.251 110.645C221.36 110.854 221.372 111.134 221.403 111.762C221.425 112.223 221.457 112.732 221.464 113.353C221.467 113.68 221.361 113.869 221.331 114.075C221.301 114.279 221.288 115.193 221.324 115.786C221.332 115.915 221.433 116.047 221.559 116.144C221.607 116.18 221.65 116.145 221.687 116.055C221.723 115.964 221.759 115.809 221.778 115.501C221.796 115.193 221.796 114.738 221.73 114.174C221.664 113.61 221.533 112.952 221.459 112.474C221.343 111.726 221.337 111.294 221.3 111.047C221.277 110.884 221.228 110.546 221.113 110.062C221.032 109.717 220.902 109.371 220.793 108.931C220.683 108.484 220.671 108.1 220.683 107.924C220.697 107.725 220.78 108.351 220.726 108.672C220.652 109.111 220.454 109.427 220.381 109.816C220.311 110.185 220.368 110.795 220.435 111.134C220.514 111.543 220.839 112.004 221.152 112.541C221.537 113.2 221.832 113.651 221.905 113.85C222.007 114.131 222.098 114.316 222.153 114.516C222.164 114.558 222.159 114.595 222.195 114.601C222.303 114.621 222.533 114.416 222.846 114.096C223.012 113.927 223.16 113.717 223.498 113.151C223.836 112.585 224.351 111.662 224.939 110.421C225.528 109.179 226.175 107.646 226.592 106.706C227.009 105.767 227.177 105.467 226.88 106.134C226.583 106.8 225.816 108.441 225.415 109.304C225.014 110.167 225.002 110.203 225.002 110.24C225.002 110.276 225.014 110.312 225.038 110.325C225.207 110.412 225.557 109.976 226.105 109.29C226.493 108.804 227.071 108.006 227.386 107.575C227.7 107.144 227.724 107.096 227.179 107.526C226.635 107.957 225.521 108.867 224.785 109.42C223.761 110.189 223.345 110.325 223.243 110.343C223.189 110.353 223.128 110.349 223.073 110.337C223.019 110.325 222.971 110.301 222.934 110.229C222.843 110.049 222.921 109.686 223.119 109.18C223.366 108.55 223.659 108.184 223.821 108.004C224.102 107.691 224.552 107.362 225.023 107.085C225.41 106.856 225.931 106.672 226.456 106.467C226.898 106.295 227.059 106.139 227.107 106.127C227.133 106.12 227.108 106.234 226.88 106.72C226.652 107.207 226.209 108.093 225.933 108.729C225.657 109.366 225.561 109.725 225.493 110.138C225.426 110.55 225.39 111.005 225.384 111.414C225.377 111.822 225.401 112.169 225.509 112.719C225.617 113.269 225.809 114.012 225.926 114.437C226.156 115.276 226.309 115.817 226.327 115.866C226.331 115.878 226.333 115.771 226.561 114.243C226.788 112.714 227.243 109.744 227.484 108.076C227.724 106.408 227.736 106.132 227.73 106.008C227.725 105.885 227.701 105.92 227.545 106.328C227.389 106.736 227.101 107.515 226.875 108.251C226.649 108.987 226.493 109.658 226.401 110.692C226.309 111.727 226.285 113.104 226.345 114.448C226.404 115.793 226.548 117.062 226.616 117.782C226.696 118.632 226.612 118.853 226.491 119.004C226.43 119.082 226.323 119.119 226.232 119.138C226.06 119.173 225.862 119.085 225.669 118.994C225.519 118.924 225.175 118.519 224.715 117.927C224.473 117.614 224.362 117.272 224.217 116.819C224.079 116.389 224.095 115.821 224.173 115.091C224.264 114.238 224.506 113.737 224.482 113.922C224.451 114.169 224.315 114.718 224.259 115.229C224.204 115.74 224.216 116.196 224.282 116.688C224.348 117.18 224.467 117.695 224.625 118.163C224.783 118.632 224.974 119.04 225.115 119.315C225.255 119.591 225.339 119.723 225.406 119.815C225.474 119.906 225.522 119.954 225.607 119.967" stroke="white" stroke-width="4" stroke-linecap="round"/>
<path d="M228.003 150.745C227.691 150.949 227.38 151.153 226.836 151.533C226.292 151.913 225.526 152.464 225.023 152.808C224.318 153.291 223.987 153.431 223.818 153.491C223.448 153.624 222.887 153.83 222.686 153.975C222.568 154.061 222.342 154.204 222.023 154.458C221.378 154.969 221.083 155.076 220.956 155.203C220.784 155.375 220.49 155.536 220.291 155.681C220.142 155.79 220.042 155.935 219.801 156.291C219.682 156.467 219.607 156.624 219.432 156.812C219.233 157.025 219.051 157.157 218.941 157.266C218.89 157.318 218.953 157.026 219.073 156.605C219.312 155.769 219.558 155.138 219.636 154.951C219.688 154.827 219.835 154.379 220.071 153.714C220.276 153.135 220.32 152.948 220.434 152.474C220.528 152.081 220.728 151.389 220.832 150.995C220.956 150.531 221.045 150.192 221.178 149.756C221.252 149.516 221.336 149.163 221.469 148.704C221.522 148.521 221.53 148.436 221.716 147.86C221.901 147.284 222.261 146.218 222.464 145.597C222.713 144.835 222.74 144.636 222.722 144.576C222.716 144.555 222.668 144.587 222.434 144.947C222.2 145.306 221.769 146.001 221.529 146.401C221.242 146.878 221.108 147.378 220.932 148.025C220.85 148.327 220.744 148.638 220.606 149.085C220.501 149.42 220.393 149.584 220.303 149.812C219.918 150.786 219.849 151.095 219.686 151.5C219.6 151.713 219.619 151.942 219.588 152.124C219.565 152.269 219.546 152.941 219.588 153.238C219.629 153.525 219.655 152.694 219.667 152.543C219.687 152.283 219.727 152.041 219.841 151.279C219.943 150.599 220.183 149.331 220.3 148.641C220.417 147.951 220.417 147.88 220.459 147.549C220.501 147.219 220.585 146.632 220.694 146.012C220.803 145.392 220.935 144.758 221.008 144.413C221.12 143.89 221.083 143.596 221.064 143.415C221.059 143.366 221.046 143.318 220.992 144.096C220.938 144.874 220.842 146.479 220.811 147.455C220.78 148.432 220.816 148.731 220.84 148.987C220.909 149.704 220.925 150.017 220.961 150.363C220.999 150.722 221.142 151.396 221.215 151.779C221.263 152.027 221.36 152.389 221.445 152.62C221.46 152.661 221.505 152.681 221.566 152.687C221.626 152.693 221.71 152.681 222.855 151.783C224 150.884 226.204 149.1 227.429 148.121C228.654 147.141 228.834 147.022 228.866 146.972C228.916 146.896 228.584 147.007 227.882 147.271C227.255 147.507 226.067 147.918 225.33 148.194C224.333 148.567 223.975 148.749 223.794 148.803C223.687 148.835 223.563 148.798 223.43 148.738C223.375 148.712 223.369 148.653 223.381 148.575C223.393 148.496 223.429 148.388 223.962 147.668C224.496 146.948 225.526 145.618 226.074 144.916C226.654 144.173 226.72 144.104 226.696 144.127C226.642 144.181 226.529 144.342 225.719 145.117C224.909 145.892 223.411 147.281 222.658 147.967C221.905 148.653 221.941 148.593 222.384 147.928C222.828 147.262 223.678 145.992 224.206 145.254C224.734 144.517 224.914 144.349 225.036 144.244C225.159 144.14 225.219 144.104 225.281 144.067" stroke="white" stroke-width="4" stroke-linecap="round"/>
<path d="M220.925 145.338C221.009 145.098 221.093 144.858 221.34 144.202C221.587 143.546 221.994 142.48 222.335 141.074C222.677 139.669 222.94 137.956 223.076 137.002C223.212 136.047 223.212 135.904 223.224 135.716C223.25 135.3 223.368 134.743 223.513 134.217C223.623 133.82 223.875 133.496 224.088 133.234C224.306 132.966 224.47 132.78 224.518 132.743C224.603 132.876 224.627 133.129 224.597 133.532C224.567 133.804 224.508 134.211 224.446 134.631" stroke="white" stroke-width="4" stroke-linecap="round"/>
<path d="M227.894 134.885C227.475 135.687 227.056 136.49 226.756 137.184C226.456 137.879 226.289 138.442 226.154 139.02C226.02 139.597 225.924 140.172 225.875 140.546C225.805 141.073 225.837 141.272 225.891 141.315C225.925 141.341 226.005 141.297 226.078 141.225C226.151 141.153 226.223 141.033 226.41 140.54C226.597 140.047 226.896 139.185 227.116 138.273C227.336 137.362 227.468 136.428 227.536 135.905C227.604 135.381 227.604 135.298 227.562 135.302C227.52 135.307 227.436 135.403 227.279 135.674C227.122 135.945 226.895 136.388 226.676 136.946C226.457 137.503 226.253 138.162 226.13 138.633C226.007 139.104 225.971 139.368 225.953 139.659C225.915 140.261 225.982 140.894 226.073 141.396C226.107 141.588 226.151 141.646 226.194 141.659C226.236 141.672 226.284 141.636 226.309 141.594C226.334 141.551 226.334 141.503 226.334 141.454" stroke="white" stroke-width="4" stroke-linecap="round"/>
<path d="M224.918 142.18C224.618 142.599 224.319 143.018 224.165 143.21C224.01 143.402 224.01 143.354 224.058 143.198C224.106 143.041 224.202 142.778 224.221 142.624C224.241 142.471 224.181 142.435 224 142.446C223.82 142.458 223.52 142.517 223.073 142.626C222.035 142.878 221.397 143.063 221.325 143.069C221.148 143.084 221.059 142.798 220.914 142.381C220.748 141.906 221.009 141.709 221.076 141.503C221.131 141.335 221.227 141.201 221.288 141.019C221.359 140.808 221.409 140.512 221.53 140.004C221.61 139.668 221.663 139.447 221.717 139.205C221.766 138.991 221.844 138.47 221.971 137.655C222.073 137.002 222.026 136.592 222.056 136.267C222.076 136.049 222.098 135.726 222.141 135.374C222.228 134.648 222.328 134.196 222.365 134.039C222.466 133.603 222.304 132.844 222.335 132.369C222.351 132.115 222.377 131.825 222.407 131.559C222.429 131.365 222.353 131.22 222.305 131.068C222.276 130.979 222.256 130.892 222.226 130.856C222.191 130.814 222.147 130.964 222.111 131.007C222.071 131.054 221.894 130.965 221.719 130.989C221.56 131.01 221.735 131.315 221.79 131.556C221.887 131.982 221.76 132.258 221.724 132.488C221.708 132.587 221.687 132.958 221.693 133.466C221.696 133.687 221.724 134.166 221.712 134.874C221.703 135.361 221.615 135.597 221.579 135.845C221.525 136.211 221.518 136.795 221.5 136.959C221.475 137.185 221.409 137.424 221.385 137.66C221.367 137.837 221.312 138.029 221.294 138.45C221.257 139.325 221.276 139.989 221.258 140.188C221.252 140.399 221.24 140.546 221.216 140.918C221.204 141.254 221.192 141.889 221.179 142.543" stroke="white" stroke-width="4" stroke-linecap="round"/>
</svg>
