<svg width="427" height="287" viewBox="0 0 427 287" fill="none" xmlns="http://www.w3.org/2000/svg">
<rect x="100" y="79" width="129.25" height="100" rx="20" fill="#00FF1E"/>
<path d="M351 99C358.732 99 365 105.268 365 113V147C365 154.732 358.732 161 351 161V99Z" fill="white"/>
<path d="M234.954 110.49L232.498 113.034L236.034 113.031L290.127 112.995L133.9 211.363L210.422 135.958L213.031 133.387L209.368 133.389L155.049 133.43L297.653 45.5234L234.954 110.49Z" fill="black" stroke="white" stroke-width="3"/>
<path d="M188.5 178.5H168.5" stroke="white"/>
<path d="M241.5 105C242.284 96.1834 241.076 91.8359 235 85.5" stroke="white"/>
<path d="M241.5 113V145" stroke="white"/>
<path d="M244.582 128.111C244.327 127.969 244.168 127.854 244.118 127.761C243.983 127.512 244.096 127.026 244.224 126.432C244.282 125.994 244.296 125.751 244.325 125.665C244.339 125.622 244.353 125.579 244.368 125.535" stroke="white" stroke-width="2" stroke-linecap="round"/>
<path d="M245.226 116.521C245.169 116.564 244.969 116.508 244.755 116.436C244.544 116.365 244.411 116.35 244.332 116.328C244.154 116.28 244.139 116.007 244.046 115.899C243.873 115.699 244.124 116.562 244.196 116.821C244.21 116.864 244.224 116.907 244.231 116.985C244.239 117.064 244.239 117.177 244.239 117.294" stroke="white" stroke-width="5" stroke-linecap="round"/>
<path d="M245.527 120.084C245.867 120.027 246.207 119.971 247.961 119.552C249.716 119.133 252.874 118.354 254.771 117.932C256.667 117.509 257.205 117.467 257.582 117.452C257.958 117.437 258.157 117.451 258.485 117.522C258.814 117.593 259.267 117.721 259.685 117.864C260.48 118.138 260.907 118.338 261.064 118.388C261.554 118.544 261.865 118.582 262.286 118.617C262.993 118.677 263.253 118.582 263.361 118.575C263.385 118.573 263.341 118.553 262.802 118.525C262.263 118.496 261.229 118.454 259.776 118.503C258.322 118.552 256.481 118.693 255.49 118.759C254.499 118.825 254.414 118.811 254.349 118.797C254.284 118.782 254.241 118.768 254.283 118.74C254.325 118.711 254.452 118.668 255.828 118.597C257.204 118.526 259.825 118.426 261.515 118.425C263.204 118.423 263.884 118.523 264.277 118.595C264.76 118.684 264.899 118.768 264.964 118.803C264.984 118.814 264.929 118.853 264.865 118.889C264.8 118.925 264.715 118.967 261.966 119.903C259.217 120.838 253.806 122.666 250.678 123.77C247.551 124.874 246.871 125.2 246.492 125.389C246.114 125.578 246.057 125.62 246.07 125.642C246.084 125.664 246.169 125.664 247.905 125.069C249.642 124.474 253.027 123.285 255.125 122.495C257.223 121.705 257.932 121.35 258.431 121.111C259.194 120.746 259.59 120.614 259.783 120.571C259.862 120.553 259.905 120.556 259.899 120.599C259.892 120.641 259.836 120.726 258.737 121.634C257.639 122.542 255.5 124.27 254.355 125.224C253.098 126.273 253.01 126.536 252.967 126.708C252.939 126.82 252.967 126.909 253.009 126.994C253.032 127.041 253.08 127.08 253.159 127.102C253.345 127.154 253.538 127.095 254.333 126.635C255.062 126.212 256.43 125.366 257.598 124.73C258.767 124.095 259.687 123.684 260.268 123.458C261.044 123.156 261.365 123.175 261.409 123.238C261.452 123.301 261.197 123.43 259.537 124.395C257.878 125.36 254.733 127.159 253.085 128.107C251.436 129.055 251.38 129.097 252.625 128.56C253.871 128.022 256.421 126.903 258.152 126.227C259.883 125.552 260.719 125.354 261.221 125.251C261.722 125.149 261.864 125.149 261.887 125.199C262.183 125.827 260.594 126.179 260.308 126.421C260.078 126.617 259.722 127.035 259.266 127.606C258.592 128.449 258.348 128.639 258.168 128.854C257.938 129.13 257.718 129.284 257.525 129.412C257.193 129.634 256.817 129.884 256.559 130.056C256.433 130.14 256.245 130.313 255.86 130.549C254.878 131.149 254.471 131.343 254.177 131.523C253.729 131.796 253.141 132.272 252.768 132.546C252.373 132.835 252.095 133.161 251.909 133.354C251.68 133.592 251.437 133.804 251.129 134.055C250.891 134.249 250.564 134.435 250.364 134.563C250.081 134.744 249.821 135.006 249.598 135.143C249.366 135.285 249.09 135.422 248.89 135.579C248.635 135.779 248.389 136.137 248.096 136.451C247.878 136.686 247.659 136.952 247.145 137.466C246.933 137.679 246.729 137.783 246.557 137.89C246.472 137.926 246.386 137.969 246.3 138.026C246.257 138.055 246.214 138.083 246.128 138.112" stroke="white" stroke-width="5" stroke-linecap="round"/>
<path d="M259.048 130.515C259.061 130.43 259.488 129.945 260.224 129.274C260.555 128.971 261.055 128.436 261.374 128.124C262.063 127.45 262.552 127.025 262.852 126.746C263.272 126.356 263.44 126.18 263.682 125.994C263.835 125.877 263.955 125.765 264.26 125.552C264.97 125.057 265.471 124.634 265.642 124.521C265.879 124.363 266.185 124.064 266.493 123.763C266.664 123.596 267.184 123.093 267.935 122.336C268.522 121.743 268.862 121.687 269.055 121.587C269.107 121.56 269.162 121.53 269.737 121.338C270.311 121.146 271.402 120.792 271.992 120.596C272.642 120.379 272.896 120.285 273.26 120.171C273.962 119.951 274.513 119.37 274.728 119.183C274.963 118.98 275.271 118.783 275.786 118.525C276.067 118.384 276.288 118.353 276.524 118.267C276.813 118.162 277.117 118.025 277.461 117.888C277.78 117.762 277.976 117.667 278.155 117.559C278.353 117.44 278.577 117.437 278.756 117.337C278.963 117.222 279.135 117.165 279.393 117.087C279.69 116.996 280.007 116.922 280.209 116.858C280.395 116.798 280.58 116.623 280.774 116.479C280.964 116.337 281.153 116.25 281.332 116.164C281.58 116.044 281.797 115.907 282.004 115.835C282.182 115.773 282.355 115.72 282.526 115.656C282.71 115.587 282.87 115.506 283.084 115.363C283.306 115.215 283.499 115.091 283.614 115.012C283.706 114.949 283.315 115.019 283.144 115.033C282.913 115.052 282.232 115.119 281.346 115.148C280.667 115.169 280.154 115.219 279.817 115.241C279.652 115.251 279.126 115.277 278.397 115.284C277.791 115.29 277.478 115.348 277.198 115.37C276.943 115.389 276.323 115.533 275.397 115.584C275.145 115.598 274.902 115.62 274.61 115.627C274.359 115.633 273.704 115.663 272.846 115.656C272.441 115.652 272.212 115.62 271.969 115.627C271.81 115.632 271.512 115.705 270.553 115.763C269.835 115.806 268.644 115.763 268.01 115.749C267.175 115.73 266.861 115.677 265.905 115.67C265.559 115.667 264.948 115.706 264.147 115.72C263.593 115.73 263.313 115.82 262.478 115.828C261.867 115.833 261.296 115.82 260.745 115.842C260.494 115.852 259.84 115.878 258.954 115.856C258.204 115.838 257.904 115.592 257.568 115.47C257.465 115.433 257.333 115.448 257.289 115.477C257.244 115.505 257.287 115.562 257.401 115.626C257.515 115.691 257.699 115.762 257.992 115.834C258.285 115.905 258.682 115.976 260.274 116.098C261.867 116.219 264.643 116.389 266.413 116.548C268.184 116.706 268.863 116.848 269.731 116.942C270.598 117.036 271.632 117.079 272.207 117.115C272.869 117.156 272.998 117.208 273.048 117.251C273.081 117.279 273.027 117.378 272.991 117.436C272.93 117.535 272.586 117.679 272.001 117.929C271.701 118.057 271.387 118.165 270.504 118.407C269.622 118.65 268.177 119.018 267.064 119.378C265.952 119.737 265.215 120.077 264.68 120.344C263.821 120.773 263.455 121.028 263.291 121.128C262.766 121.448 262.07 121.656 261.603 122.05C261.231 122.364 261.137 122.915 260.909 123.359C260.866 123.442 260.808 123.432 260.765 123.39C260.656 123.282 260.48 122.976 260.031 122.513C259.757 122.229 259.314 121.922 259.017 121.676C258.551 121.29 258.191 120.817 257.728 120.062C257.455 119.617 257.193 118.995 256.977 118.582C256.431 117.542 255.858 117.209 255.579 117.073C255.33 116.951 255.185 116.709 254.963 116.13C254.917 116.01 254.927 115.964 254.906 115.942C254.859 115.894 254.671 115.949 254.414 115.999C254.159 116.048 253.431 116.049 252.359 116.021C251.14 115.989 250.78 115.778 250.499 115.742C250.249 115.709 249.991 115.677 249.57 115.656C249.433 115.635 249.333 115.606 249.084 115.584C248.892 115.577 248.566 115.577 248.231 115.577" stroke="white" stroke-width="5" stroke-linecap="round"/>
<path d="M244.067 117.036C244.067 117.522 244.096 117.722 244.117 117.93C244.139 118.139 244.21 118.395 244.275 118.581C244.336 118.758 244.353 119.024 244.41 119.232C244.471 119.453 244.582 119.824 244.668 120.155C244.741 120.434 244.739 120.87 244.79 121.106C244.806 121.183 244.797 121.298 244.797 121.151C244.797 120.071 244.726 119.785 244.704 119.662C244.67 119.47 244.64 120.083 244.618 120.255C244.596 120.433 244.511 120.598 244.454 120.77C244.425 120.856 244.397 120.956 244.375 121.063C244.365 121.113 244.368 121.156 244.403 121.065C244.648 120.432 244.625 120.114 244.604 119.978C244.58 119.826 244.283 120.098 244.111 120.205C244.07 120.231 244.025 120.241 243.989 120.291C243.827 120.515 243.967 120.812 244.06 121.071C244.136 121.282 244.181 121.457 244.232 121.806C244.363 122.721 244.282 123.242 244.246 123.738C244.217 124.146 244.139 124.574 244.103 124.969C244.078 125.238 244.024 125.434 243.982 125.699C243.896 126.228 243.967 127.065 243.967 127.7C243.968 128.342 243.867 128.711 243.846 128.926C243.812 129.254 243.781 129.769 243.774 130.213C243.77 130.434 243.853 130.77 243.81 131.029C243.778 131.221 243.724 131.444 243.688 131.644C243.666 131.771 243.667 131.902 243.638 132.03C243.604 132.186 243.595 132.912 243.588 133.899C243.582 134.789 243.581 135.793 243.602 136.001C243.609 136.051 243.623 136.094 243.631 136.151C243.638 136.209 243.638 136.279 243.638 136.352" stroke="white" stroke-width="5" stroke-linecap="round"/>
<path d="M246.9 122.445C246.886 122.899 246.886 123.874 246.907 124.403C246.926 124.863 246.972 125.176 247.15 125.926C247.291 126.521 247.315 126.779 247.337 127.058C247.356 127.31 247.401 127.737 247.422 128.053C247.451 128.468 247.487 128.754 247.487 129.011C247.488 129.735 247.202 130.212 246.937 130.627C246.639 131.096 246.558 131.343 246.464 131.594C246.251 132.166 246.329 133.174 246.335 133.376C246.338 133.496 246.797 132.979 247.262 132.521C247.441 132.344 247.514 132.29 248.138 131.694C248.763 131.098 249.938 129.965 250.629 129.325C251.652 128.376 251.879 128.369 252.022 128.276C252.086 128.234 252.108 128.169 252.108 128.105C252.111 127.715 251.453 127.24 250.88 126.875C250.21 126.446 249.608 126.609 249.098 126.644C248.99 126.652 248.891 126.652 248.861 126.659C248.831 126.666 248.874 126.68 248.918 126.694" stroke="white" stroke-width="5" stroke-linecap="round"/>
<path d="M245.32 138.949C245.298 138.949 245.236 138.954 245.199 138.959C245.134 138.967 245.103 138.966 245.083 138.956C245.055 138.942 245.037 138.941 245.016 138.934C244.988 138.924 244.942 138.9 244.919 138.887C244.902 138.877 244.887 138.863 244.871 138.851C244.854 138.837 244.827 138.818 244.804 138.804C244.784 138.792 244.77 138.783 244.743 138.776C244.701 138.766 244.681 138.759 244.663 138.754C244.645 138.748 244.624 138.741 244.604 138.736C244.576 138.73 244.563 138.714 244.547 138.7C244.529 138.684 244.494 138.668 244.472 138.655C244.45 138.642 244.435 138.628 244.42 138.62C244.409 138.615 244.427 138.648 244.43 138.67C244.437 138.71 244.426 138.789 244.429 138.831C244.431 138.854 244.434 138.883 244.437 138.916C244.445 139.005 244.441 139.036 244.445 139.066C244.447 139.092 244.449 139.183 244.446 139.239C244.444 139.267 244.436 139.295 244.424 139.325C244.408 139.365 244.388 139.396 244.382 139.413C244.364 139.467 244.341 139.536 244.336 139.555C244.331 139.57 244.308 139.619 244.29 139.658C244.278 139.684 244.267 139.708 244.256 139.738C244.236 139.792 244.214 139.833 244.201 139.859C244.171 139.928 244.165 139.949 244.154 139.98C244.152 139.989 244.152 139.999 244.152 140.008" stroke="white" stroke-width="5" stroke-linecap="round"/>
<path d="M244.234 140.496C244.227 140.495 244.206 140.495 244.184 140.505C244.164 140.512 244.147 140.518 244.134 140.525C244.126 140.53 244.116 140.536 244.098 140.543" stroke="white" stroke-width="5" stroke-linecap="round"/>
<path d="M287.689 53.04C287.713 53.04 287.736 53.04 287.725 53.0753C287.636 53.3486 287.263 53.4908 287.036 53.7404C286.821 53.9774 286.621 54.204 286.335 54.3944C286.049 54.5848 285.718 54.7746 285.349 54.9532C285.047 55.0994 284.766 55.3451 284.469 55.6183C284.121 55.9375 283.886 56.2238 283.696 56.5929C283.534 56.907 283.222 57.1752 282.959 57.4609C282.64 57.8084 282.27 58.0083 281.984 58.1744C281.688 58.3471 281.414 58.5546 281.105 58.7803C280.663 59.103 280.44 59.5046 280.071 59.8145C279.767 60.0695 279.489 60.3133 279.191 60.4806C278.797 60.7021 278.255 61.1678 277.729 61.5854C277.417 61.8334 277.135 62.025 276.849 62.1805C276.564 62.3358 276.279 62.4301 275.994 62.5371C275.678 62.6552 275.376 62.8581 275.066 62.9533C274.771 63.0441 274.308 63.3088 273.925 63.5235C273.776 63.6072 273.663 63.7375 273.58 63.8797C273.54 63.949 273.52 64.022 273.591 64.0466C274.11 64.2286 274.659 63.7867 274.993 63.7264C275.137 63.7004 275.279 63.6433 275.362 63.6547C275.704 63.7015 274.853 64.236 274.567 64.3915C274.271 64.5525 273.997 64.8066 273.723 65.033C273.435 65.2709 273.259 65.6624 272.998 65.8771C272.711 66.1129 272.287 66.5882 271.928 66.8873C271.637 67.1306 271.311 67.3741 270.741 67.8013C269.892 68.4379 269.693 68.8718 269.444 69.1575C269.204 69.4318 268.886 69.8218 268.506 70.1674C267.826 70.7844 266.895 71.6947 266.07 72.6023C264.886 73.9052 264.393 74.268 263.941 74.6606C263.414 75.1185 262.919 75.8114 262.55 76.3366C262.265 76.7413 261.825 77.3348 261.563 77.6447C261.258 78.0048 260.827 78.2391 260.529 78.4413C260.22 78.6509 260.018 79.0707 259.78 79.3917C259.447 79.8398 259.328 80.1405 259.102 80.4854C258.905 80.7868 258.71 81.1148 258.389 81.6023C258.314 81.7165 258.235 81.7809 258.246 81.782C258.371 81.7945 258.989 80.9336 259.927 79.7344C260.825 78.5861 261.228 78.3604 261.632 78.0747C262.03 77.793 262.369 77.3148 262.796 76.9814C263.249 76.6285 263.557 76.3634 263.95 76.0778C264.338 75.7952 264.58 75.7443 264.652 75.673C264.889 75.4376 263.751 76.0039 262.591 76.6786C262.023 77.009 261.222 77.6572 260.55 78.2431C259.879 78.829 259.385 79.3703 259.001 79.8963C258.289 80.8702 257.903 81.7082 257.57 82.1949C257.191 82.7511 256.927 83.0647 256.642 83.4331C256.265 83.9201 255.953 84.2301 255.277 85.0702C254.589 85.9264 253.792 86.8426 253.044 87.4481C252.359 88.0027 252.007 88.3653 251.318 89.2557C250.871 89.8336 250.532 90.3865 250.14 90.7556C249.87 91.01 249.558 91.2666 249.307 91.5522C249.035 91.8625 248.796 92.1938 248.547 92.5386C248.336 92.8303 248.154 93.1209 248.094 93.4066C248.033 93.6977 247.916 93.9768 247.798 94.2742C247.642 94.6635 247.37 94.904 247.156 95.2014C246.885 95.5777 246.61 95.7841 246.289 96.14C245.865 96.6103 245.73 96.901 245.575 97.1984C245.365 97.6014 244.969 97.7097 244.814 97.9711C244.648 98.2503 244.517 98.5413 244.279 98.827C244.224 98.8933 244.208 98.9693 244.172 98.9586C244.044 98.9202 244.041 98.5214 244.064 98.2001C244.071 98.1112 244.135 98.1847 244.159 98.2682C244.256 98.6004 243.994 98.8979 243.91 99.0894C243.777 99.394 244.016 98.4258 244.052 97.9975C244.087 97.5906 244.159 97.1178 244.243 96.7615C244.406 96.0644 244.444 95.5259 244.516 95.1917C244.578 94.904 244.35 94.6215 244.184 94.3359C243.995 94.0109 243.733 93.6944 243.519 93.397C243.455 93.3079 243.353 93.2194 243.328 93.2415C242.969 93.5592 244.014 94.5431 244.325 95.1062C244.372 95.1906 244.42 95.2606 244.409 95.3087C244.385 95.4146 244.208 95.4753 244.101 95.5469C243.815 95.7393 243.78 94.9068 243.744 94.5028C243.715 94.1832 243.566 93.9083 243.459 93.6227C243.337 93.2989 243.209 92.887 243.173 92.5529C243.141 92.2571 242.995 91.9827 242.9 91.697C242.805 91.4114 242.663 91.1268 242.236 90.6636C241.973 90.3788 241.831 90.057 241.676 89.7714C241.515 89.4756 241.355 89.2012 241.2 88.9155C241.051 88.6391 240.88 88.3453 240.572 87.9538C239.869 87.0602 239.549 86.8946 239.287 86.5979C238.859 86.1336 238.622 85.8491 238.348 85.6226C238.288 85.5631 238.241 85.4925 238.192 85.3484" stroke="white" stroke-width="5" stroke-linecap="round"/>
<path d="M239.69 84.0647C240.185 83.8992 241.186 83.661 241.685 83.4356C242.541 83.0488 243.634 82.3786 244.229 82.0687C244.683 81.832 245.061 81.6412 245.714 81.3555C246.242 81.1251 246.701 80.7625 247.047 80.5821C247.205 80.4997 247.463 80.4758 247.712 80.3214C247.88 80.2175 248.952 79.672 250.52 78.793C251.667 78.15 252.477 77.506 252.895 77.2186C253.343 76.911 254.47 76.153 255.705 75.2747C256.519 74.6959 257.277 73.9649 258.144 73.3351C258.871 72.8075 259.563 72.3224 259.814 72.0125C260.094 71.6657 260.678 71.0643 261.156 70.6456C261.543 70.3069 261.87 70.0159 262.392 69.6946C262.706 69.5016 263.011 69.3497 263.367 69.0883C263.736 68.8179 264.056 68.5652 264.449 68.3156C264.983 68.0189 265.53 67.638 265.933 67.3424C266.171 67.1409 266.477 66.835 266.792 66.5197" stroke="white" stroke-width="5" stroke-linecap="round"/>
<path d="M269.502 64.808C269.62 64.7374 269.738 64.6668 269.833 64.6069C269.929 64.547 270 64.4999 270.144 64.3801" stroke="white" stroke-width="5" stroke-linecap="round"/>
<path d="M243.542 86.5609C243.589 86.5138 243.895 86.2307 244.664 85.6501C246.451 84.3021 246.986 84.3043 247.439 84.0179C247.745 83.8239 248.105 83.6852 248.39 83.554C248.54 83.4853 248.723 83.3051 249.195 82.9973C250.071 82.4272 251.169 81.9992 251.881 81.536C252.506 81.1298 253.283 80.7867 254.13 80.2155C254.71 79.8244 255.375 79.1007 256.411 78.5152C257.369 77.9736 257.876 77.9082 258.161 77.7296C258.303 77.67 258.659 77.5045 259.122 77.267C259.303 77.1708 259.373 77.1237 259.446 77.0752" stroke="white" stroke-width="5" stroke-linecap="round"/>
<path d="M260.516 76.5046L260.801 76.4333" stroke="white" stroke-width="5" stroke-linecap="round"/>
<path d="M244.183 91.5533C244.513 91.2238 244.842 90.8943 245.353 90.2656C245.864 89.6369 246.547 88.719 246.969 88.1167C247.869 86.8337 248.318 86.1829 249.121 85.4144C249.697 84.8639 250.678 84.0575 251.634 83.3272C252.59 82.5968 253.508 81.9849 254.028 81.6344C254.548 81.2838 254.642 81.2132 254.739 81.0692" stroke="white" stroke-width="5" stroke-linecap="round"/>
<path d="M177.11 181.609C176.95 181.564 176.357 181.358 175.689 181.236C175.411 181.186 175.251 181.161 174.782 181.075C174.215 180.972 174.046 181.092 173.908 181.121C173.748 181.154 173.563 181.196 173.312 181.224C172.558 181.31 172.301 181.173 172.026 181.201C171.609 181.244 171.314 181.242 171.141 181.224C170.81 181.191 170.395 181.173 169.674 181.156C169.453 181.15 169.338 181.127 169.264 181.144C169.214 181.155 169.303 181.264 169.292 181.333C169.249 181.6 168.777 181.745 168.41 182.198C168.139 182.532 168.006 182.78 167.87 183.007C167.751 183.205 167.506 183.554 167.258 183.849C167.01 184.144 166.76 184.371 166.404 184.727C166.048 185.083 165.593 185.56 165.33 185.829C164.92 186.249 164.644 186.407 164.328 186.591C164.139 186.701 164.034 186.844 163.994 186.913C163.974 186.946 163.965 186.981 164.01 186.976C164.165 186.958 164.445 186.844 165.164 186.651C165.705 186.505 166.588 186.207 167.078 186.055C167.635 185.883 167.833 185.834 168.198 185.663C169.225 185.182 169.348 185.019 169.555 184.927C169.706 184.86 169.899 184.824 170.255 184.624C170.5 184.485 170.703 184.41 170.858 184.353C171.123 184.255 171.687 183.942 172.012 183.75C172.139 183.676 172.253 183.561 172.42 183.458C172.574 183.378 172.735 183.286 172.924 183.171C173.044 183.102 173.215 183.011 173.459 182.883" stroke="white" stroke-width="5" stroke-linecap="round"/>
<path d="M179.59 181.127C179.499 181.184 179.247 181.298 179.074 181.368C178.817 181.471 178.385 181.38 177.961 181.362C177.833 181.357 177.754 181.333 177.702 181.322C177.586 181.297 177.982 181.185 178.183 181.133C178.378 181.082 178.522 181.07 178.774 181.052C178.993 181.037 179.245 181.001 179.388 180.949C179.56 180.887 179.693 180.829 179.831 180.805C179.983 180.78 180.106 180.713 180.25 180.685C180.414 180.652 180.565 180.645 180.646 180.662C180.874 180.71 180.279 180.84 180.142 180.863C179.989 180.888 179.866 180.977 179.728 181.023C179.59 181.069 179.453 181.115 179.315 181.161C179.177 181.207 179.04 181.253 178.896 181.299C178.721 181.355 178.557 181.413 178.414 181.477C178.247 181.55 178.087 181.643 177.84 181.775C177.62 181.893 177.455 181.976 176.946 182.199C176.769 182.277 176.563 182.354 176.157 182.486C175.75 182.617 175.148 182.799 174.633 183.007C173.685 183.388 173.23 183.698 173.116 183.755C172.893 183.867 172.544 184.076 172.072 184.272C171.625 184.457 171.428 184.639 170.908 184.954C170.36 185.285 169.89 185.466 169.695 185.603C169.591 185.672 169.478 185.741 169.379 185.799C169.281 185.856 169.202 185.902 169.12 185.949" stroke="white" stroke-width="5" stroke-linecap="round"/>
<path d="M164.091 191.184C164.159 191.116 164.558 190.739 165.166 190.2C165.49 189.913 165.675 189.887 165.744 189.835C165.78 189.808 165.813 189.772 165.768 189.732C165.392 189.395 164.953 189.29 164.901 189.153C164.804 188.894 165.054 188.443 165.57 187.656C165.715 187.435 165.756 187.327 165.739 187.264C165.711 187.158 165.163 187.291 164.356 187.531C163.952 187.651 163.582 187.839 162.991 188.251C162.4 188.663 161.604 189.311 161.03 189.809C160.455 190.308 160.126 190.638 159.774 190.944C159.422 191.25 159.059 191.523 158.712 191.754C157.718 192.418 157.582 192.412 157.547 192.412C157.451 192.413 157.718 192.104 158.112 191.641C158.39 191.315 158.881 190.849 159.303 190.489C159.725 190.13 160.077 189.903 160.446 189.706C161.174 189.318 161.679 189.129 161.868 189.032C162.017 188.955 162.139 188.922 162.197 188.905C162.209 188.901 162.186 188.944 161.543 189.405C160.901 189.866 159.639 190.753 158.972 191.226C158.267 191.728 158.145 191.837 157.985 191.952C157.728 192.136 157.365 192.365 156.954 192.622C156.291 193.036 155.815 193.456 155.626 193.622C155.453 193.774 155.286 193.881 154.708 194.482C154.362 194.841 154.127 194.972 153.623 195.447C153.388 195.669 153.174 195.822 153.036 195.902C152.893 195.985 152.76 196.108 152.623 196.183C152.46 196.272 152.29 196.453 152.14 196.556C151.946 196.691 151.75 196.935 151.584 197.141C151.255 197.55 150.901 197.726 150.694 197.905C150.445 198.12 150.132 198.381 149.616 198.885C149.305 199.189 149.179 199.335 148.898 199.467C148.727 199.546 148.593 199.645 148.455 199.719C148.326 199.789 148.146 200 147.944 200.133C147.762 200.253 147.491 200.334 147.353 200.414C147.21 200.497 147.1 200.62 146.974 200.73C146.905 200.792 146.848 200.862 146.796 200.93C146.767 200.965 146.733 200.999 146.629 201.103" stroke="white" stroke-width="5" stroke-linecap="round"/>
<path d="M229 113L228.5 154.5" stroke="white"/>
<path d="M238.033 124.256C238.013 124.256 237.993 124.256 237.952 125.089C237.912 125.922 237.852 127.588 237.831 128.577C237.804 129.826 237.911 130.296 238.052 130.641C238.115 130.793 238.234 130.864 238.326 130.906C238.487 130.978 238.781 130.847 239.306 130.484C240.151 129.9 240.627 129.245 240.86 128.932C241.182 128.499 241.458 127.768 241.681 126.908C241.788 126.496 241.784 126.109 241.744 125.501C241.704 124.893 241.604 124.07 241.492 123.415C241.3 122.291 241.035 121.602 240.853 121.247C240.781 121.108 240.711 121.073 240.62 121.093C239.9 121.246 239.616 122.791 239.403 123.832C239.165 125 239.209 125.715 239.249 125.837C239.27 125.898 239.29 125.958 239.36 125.889C239.596 125.657 239.896 124.81 240.331 123.506C240.563 122.81 240.746 122.021 240.89 120.925C241.033 119.829 241.113 118.444 241.135 117.671C241.156 116.897 241.116 116.776 241.045 116.815C240.974 116.853 240.874 117.054 240.661 118.01C240.449 118.967 240.128 120.673 239.963 121.653C239.797 122.632 239.797 122.833 239.897 122.635C239.998 122.437 240.199 121.835 240.362 121.234C240.526 120.632 240.646 120.05 240.718 119.459C240.953 117.539 240.589 116.959 240.406 116.653C240.368 116.59 240.325 116.532 240.465 116.451C240.894 116.202 241.317 116.126 241.439 116.025C241.582 115.906 241.622 115.6 241.582 115.256C241.552 115.003 241.318 114.909 241.177 114.838C240.578 114.538 239.616 114.807 239.019 114.848C238.432 114.888 237.995 114.989 237.457 115.02C237.262 115.031 236.66 115.071 235.819 115.081C234.913 115.092 233.979 115.051 233.514 114.96C232.497 114.759 232.155 114.808 231.8 114.716C231.121 114.54 230.857 114.605 230.552 114.534C230.472 114.515 230.391 114.523 230.339 114.553C230.288 114.584 230.268 114.644 230.267 114.715C230.266 115.016 230.409 115.252 230.44 115.849C230.468 116.408 230.53 117.138 230.561 117.997C230.586 118.698 230.572 119.51 230.531 119.724C230.302 120.926 230.43 117.077 230.409 117.34C230.364 117.939 230.247 118.334 230.136 118.77C230.031 119.183 229.964 119.59 229.933 120.602C229.917 121.115 229.842 121.396 229.831 121.841C229.823 122.17 229.962 122.651 230.064 123.099C230.226 123.81 230.085 124.923 230.075 125.996C230.069 126.51 230.186 126.951 230.237 127.436C230.373 128.749 230.146 129.121 230.115 129.425C230.099 129.589 230.065 130.292 230.085 131.335C230.097 131.96 230.186 132.645 230.176 133.416C230.167 134.13 230.105 134.738 230.075 135.622C230.047 136.426 230.065 137.952 230.055 138.768C230.041 139.848 229.964 140.333 229.933 141.022C229.902 141.711 229.842 142.726 229.771 143.121C229.607 144.03 229.861 144.429 229.922 145.255C230.039 146.84 229.963 147.918 230.003 148.039C230.101 148.333 230.105 148.708 230.115 149.305C230.121 149.645 230.024 149.924 229.943 150.108C229.834 150.354 229.962 149.44 230.014 148.995C230.026 148.892 230.044 148.832 230.074 148.761C230.14 148.607 230.829 148.246 231.872 147.8C232.405 147.572 232.86 147.413 233.476 147.1C234.578 146.54 234.909 146.277 235.375 146.023C236.301 145.519 237.36 145.406 237.748 145.212C238.231 144.97 239.062 144.575 239.522 144.37C239.736 144.275 239.978 144.127 240.482 143.725C242.339 142.24 242.615 141.958 242.656 141.856C242.735 141.663 242.11 141.835 241.596 142.057C240.752 142.42 240.123 142.868 239.529 143.252C239.102 143.526 238.392 143.916 237.849 144.183C236.525 144.834 235.988 144.876 235.561 145.099C235.287 145.243 234.993 145.343 234.649 145.485C234.155 145.688 233.858 145.849 233.301 146.133C232.822 146.377 232.499 146.316 232.195 146.407C231.833 146.516 231.506 146.963 231.211 147.228C231.15 147.283 231.06 147.289 231.099 147.26C231.28 147.121 231.524 147.006 231.966 146.664C232.342 146.374 233.051 145.881 234.015 145.261C234.979 144.641 236.184 143.918 236.995 143.395C237.806 142.873 238.188 142.571 238.715 142.256C239.874 141.563 240.688 141.208 240.921 141.056C241.45 140.71 242.025 140.599 242.402 140.397C242.474 140.357 242.533 140.335 242.494 140.335C241.911 140.331 241.199 140.72 240.077 141.204C239.017 141.661 238.379 142.099 238.177 142.169C237.53 142.395 237.021 142.646 236.515 142.818C236 142.993 235.643 143.172 235.005 143.446C233.69 144.01 233.392 144.227 233.067 144.4C232.606 144.644 232.116 145.076 231.658 145.635C231.384 145.97 231.06 146.052 230.735 146.114C230.689 146.122 230.713 146.034 231.315 145.451C231.918 144.868 233.102 143.764 233.883 143.075C234.664 142.385 235.005 142.144 235.382 141.91C236.147 141.433 236.654 141.167 237.046 140.905C238.563 139.893 239.085 139.708 239.38 139.565C239.724 139.399 240.16 139.221 240.465 139.048C240.58 138.983 240.709 138.956 240.84 138.916C240.99 138.87 240.633 138.995 239.281 139.6C238.349 140.017 237.006 140.846 236.263 141.28C235.433 141.763 235.176 141.936 234.832 142.138C234.517 142.323 234.062 142.604 233.475 142.878C232.474 143.344 231.366 143.962 230.978 144.147C230.92 144.174 230.857 144.187 230.795 144.187C230.734 144.188 230.674 144.168 230.703 144.087C230.732 144.006 230.853 143.866 231.808 143.231C232.764 142.597 234.55 141.473 235.812 140.623C237.073 139.773 237.756 139.231 238.649 138.63C239.543 138.03 240.627 137.388 241.255 137.027C242.214 136.476 242.412 136.402 242.403 136.431C242.378 136.513 242.133 136.602 241.176 137.065C240.22 137.529 238.514 138.332 237.193 139.036C235.872 139.741 234.989 140.323 234.354 140.713C233.374 141.314 232.663 141.571 232.116 141.733C231.534 141.906 230.84 142.158 230.42 142.342C230.254 142.415 230.126 142.565 230.045 142.686C230.009 142.74 230.044 142.807 230.094 142.839C230.38 143.014 230.853 142.547 232.181 141.44C233.333 140.481 235.436 138.688 236.752 137.617C238.069 136.546 238.531 136.245 239.019 135.98C239.989 135.453 240.688 135.166 240.73 135.094C241.012 134.618 239.476 135.669 238.819 136.164C238.098 136.707 237.589 137.231 237.174 137.494C236.762 137.756 236.111 137.941 235.171 138.184C233.986 138.49 232.947 138.691 232.33 138.974C231.154 139.514 230.492 140.698 230.379 141.094C230.354 141.183 230.369 141.266 230.399 141.328C230.429 141.389 230.489 141.429 231.403 140.567C232.318 139.704 234.084 137.938 235.084 136.957C236.247 135.818 236.552 135.632 236.885 135.46C237.114 135.342 237.478 135.188 238.106 134.955C239.608 134.397 240.587 134.07 240.739 133.979C241.124 133.748 241.317 133.664 241.308 133.644C241.28 133.581 241.038 133.664 240.212 133.975C239.386 134.287 237.941 134.889 236.995 135.33C236.05 135.77 235.649 136.031 235.331 136.266C235.014 136.501 234.793 136.702 234.348 137.056C233.253 137.928 232.438 138.549 232.225 138.772C231.911 139.101 231.425 139.138 230.908 139.129C230.829 139.127 230.875 139.039 231.207 138.656C231.538 138.274 232.161 137.571 232.943 136.768C233.725 135.964 234.649 135.081 235.596 134.285C236.543 133.489 237.487 132.806 238.113 132.394C239.478 131.497 240.342 131.294 240.648 131.069C240.765 130.983 240.891 130.907 240.943 130.876C241.04 130.818 239.867 131.53 238.418 132.391C237.42 132.984 236.661 133.739 236.128 134.271C235.852 134.548 235.54 134.576 235.398 134.597C235.369 134.601 235.456 134.497 236.1 134.215C236.744 133.933 237.948 133.451 238.769 133.162C239.974 132.739 240.546 132.711 240.689 132.721C240.83 132.731 240.325 132.772 239.993 132.802C239.316 132.863 238.363 133.075 237.301 133.368C236.191 133.674 235.48 134.109 235.146 134.342C234.634 134.699 234.384 134.86 234.243 134.881C234.162 134.892 234.061 134.861 233.999 134.79C233.938 134.72 233.917 134.599 233.937 134.457C233.98 134.147 234.42 133.587 235.52 132.457C236.253 131.703 237.442 130.684 238.142 130.016C239.078 129.123 239.35 128.718 239.572 128.455C240.173 127.746 240.303 126.936 240.325 125.721C240.343 124.649 239.799 123.713 239.495 123.154C239.407 122.992 239.189 123.886 239.108 125.429C239.056 126.43 239.107 127.876 239.168 128.842C239.228 129.807 239.329 130.249 239.431 130.366C239.533 130.483 239.633 130.262 239.725 129.787C239.817 129.312 239.897 128.589 239.978 127.183C240.06 125.777 240.14 123.71 240.212 122.514C240.299 121.054 240.506 120.548 240.568 119.922C240.606 119.537 240.348 119.015 240.205 118.254C239.879 116.524 239.838 115.416 239.787 115.335C239.732 115.245 239.575 115.818 239.313 117.338C239.107 118.531 238.93 120.605 238.786 122.533C238.642 124.462 238.582 126.188 238.511 127.057C238.439 127.926 238.359 127.886 238.278 127.735C238.067 127.345 237.973 126.572 237.882 125.752C237.844 125.414 237.851 125.233 237.66 123.875C237.469 122.517 237.088 119.988 236.891 118.595C236.695 117.202 236.695 117.021 236.695 116.978C236.695 116.935 236.695 117.036 236.514 119.988C236.334 122.94 235.972 128.741 235.796 131.891C235.62 135.04 235.64 135.361 235.711 135.426C235.883 135.585 236.206 134.501 236.55 133.107C236.749 132.304 236.854 131.272 236.816 129.711C236.778 128.15 236.557 126.082 236.454 124.846C236.322 123.273 236.451 122.556 236.582 122.039C236.625 121.873 236.734 121.943 236.785 122.687C236.837 123.431 236.857 124.856 237.068 126.774C237.279 128.693 237.68 131.061 237.937 132.402C238.194 133.743 238.295 133.984 238.387 134.168C238.478 134.352 238.559 134.473 238.66 134.324C238.762 134.175 238.882 133.754 238.934 133.125C238.986 132.496 238.966 131.673 238.745 129.212C238.524 126.751 238.102 122.676 237.875 120.546C237.648 118.417 237.628 118.357 237.618 118.366C237.55 118.425 237.627 118.659 237.768 120.206C237.898 121.632 238.11 124.363 238.284 126.01C238.458 127.658 238.578 128.139 238.65 128.327C238.722 128.515 238.742 128.395 238.632 126.376C238.522 124.356 238.281 120.442 238.187 118.546C238.093 116.65 238.154 116.891 238.215 117.286C238.483 119.019 238.621 119.612 238.621 119.694C238.623 119.919 238.116 118.968 237.661 117.968C237.088 116.707 236.858 115.762 236.716 115.448C236.588 115.165 236.453 114.849 236.23 114.586C235.977 114.287 235.561 114.362 235.267 114.462C235.151 114.501 235.055 114.683 234.973 114.866C234.891 115.048 234.851 115.269 234.91 116.587C234.97 117.905 235.13 120.314 235.133 122.79C235.135 125.265 234.975 127.734 234.922 129.237C234.869 130.74 234.93 131.201 234.991 131.55C235.226 132.889 236.066 133.927 236.077 134.332C236.09 134.84 235.641 135.547 235.438 136.126C235.399 136.239 235.377 136.299 235.337 136.32C235.296 136.341 235.236 136.321 235.175 136.27C235.037 136.157 234.931 135.856 234.84 134.869C234.768 134.086 234.809 132.718 234.769 131.754C234.729 130.79 234.649 130.268 234.667 128.203C234.686 126.137 234.807 122.544 234.909 120.392C235.011 118.24 235.091 117.638 235.133 117.287C235.214 116.595 235.235 115.584 235.184 114.86C235.171 114.667 235.154 114.504 235.104 114.352C235.079 114.278 235.033 114.22 234.962 114.23C234.891 114.239 234.791 114.319 234.348 114.782C233.905 115.245 233.122 116.088 232.678 116.592C232.13 117.217 231.992 117.643 231.86 118.119C231.758 118.487 231.768 119.001 231.938 120.451C232.069 121.566 232.45 123.427 232.636 124.55C232.822 125.672 232.842 125.993 232.782 126.721C232.722 127.448 232.582 128.572 232.469 129.322C232.357 130.072 232.276 130.413 232.235 131.02C232.194 131.628 232.194 132.491 232.234 133.217C232.274 133.942 232.354 134.504 232.395 135.015C232.519 136.537 232.236 137.148 232.013 137.726C231.929 137.941 231.91 138.002 231.9 137.591C231.889 137.181 231.889 136.298 231.97 135.542C232.115 134.17 232.376 133.362 232.396 132.887C232.408 132.613 232.456 132.272 232.537 131.815C232.618 131.358 232.739 130.796 232.801 129.794C232.863 128.792 232.863 127.367 232.903 125.639C232.943 123.911 233.023 121.924 233.175 120.318C233.327 118.712 233.548 117.548 233.651 116.898C233.77 116.152 233.674 115.984 233.593 115.852C233.503 115.706 233.411 115.538 233.259 115.416C233.181 115.354 233.048 115.375 232.935 115.415C232.424 115.598 231.813 116.585 231.353 117.128C231.11 117.414 230.958 118.228 230.896 119.482C230.83 120.821 231.22 121.679 231.321 122.003C231.419 122.317 231.403 122.994 231.393 123.824C231.387 124.295 231.302 124.599 231.191 125.113C230.998 126.005 230.836 126.788 230.684 127.183C230.568 127.484 230.41 127.862 230.258 128.469C230.069 129.223 230.165 130.212 230.347 131.123C230.458 131.68 230.672 132.502 230.874 133.535C231.09 134.639 231.402 135.931 231.524 136.41C231.547 136.501 231.565 136.582 231.605 136.614C231.685 136.676 232.189 135.721 232.848 134.322C233.144 133.695 233.207 133.262 233.258 131.832C233.298 130.704 233.248 128.756 233.248 127.552C233.248 125.947 233.268 125.393 233.118 124.718C232.998 124.182 232.746 123.261 232.582 122.875C232.417 122.49 232.337 122.671 232.246 123.075C232.154 123.479 232.054 124.101 231.992 125.034C231.93 125.967 231.91 127.192 231.98 128.696C232.05 130.2 232.211 131.946 232.303 132.886C232.396 133.826 232.416 133.906 232.447 133.987C232.477 134.069 232.517 134.149 232.568 134.09C232.619 134.031 232.679 133.83 232.77 133.195C232.861 132.56 232.982 131.496 233.024 130.466C233.066 129.436 233.026 128.473 232.965 127.886C232.884 127.11 232.661 126.832 232.489 126.67C232.337 126.527 232.073 126.588 231.83 126.648C231.306 126.779 230.939 127.598 230.714 127.986C230.485 128.38 230.268 128.635 230.227 128.766C230.133 129.07 230.59 129.384 230.774 129.709C231.042 130.185 231.179 130.459 231.351 130.713C231.385 130.763 231.462 130.724 232.497 129.118C233.532 127.512 235.539 124.32 236.894 122.315C238.25 120.309 238.892 119.587 239.383 119.094C240.157 118.319 240.567 118.052 240.628 117.881C240.719 117.624 240.629 117.383 240.558 117.231C240.321 116.722 239.317 116.431 238.795 116.187C238.307 115.959 238.217 115.639 237.963 115.568C237.817 115.527 237.348 115.698 236.619 116.001C235.942 116.283 235.34 116.671 234.642 116.914C233.366 117.359 232.945 117.099 232.368 116.897C231.981 116.761 231.689 116.612 231.374 116.511C230.941 116.372 230.674 116.247 230.269 116.247C230.077 116.246 229.943 116.408 229.842 116.53C229.795 116.586 229.781 116.651 229.781 116.732C229.779 117.295 230.388 117.868 230.49 118.121C230.617 118.437 230.591 118.78 230.622 119.347C230.635 119.592 230.673 119.915 230.723 120.55C230.804 121.575 230.977 122.328 230.987 122.622C230.998 122.936 231.038 123.261 231.048 123.574C231.057 123.869 231.099 124.153 231.189 125.751C231.271 127.209 231.46 129.979 231.533 131.627C231.625 133.714 231.484 134.271 231.433 134.484C231.322 134.948 231.644 135.948 231.948 137.364C232.214 138.605 232.194 139.36 232.184 139.633C232.153 140.473 232.093 141.53 232.001 141.894C231.814 142.641 231.667 143.293 231.475 143.901C231.295 144.469 231.1 145.075 230.937 145.645C230.896 146.214 230.855 146.477 230.845 146.72C230.835 146.823 230.815 146.883 230.794 146.945" stroke="white" stroke-width="2" stroke-linecap="round"/>
<path d="M227.753 90.6786C227.934 90.5374 228.339 90.2941 229.697 89.8212C230.886 89.4068 233.122 88.726 234.32 88.354C235.776 87.9019 236.105 87.8403 236.541 87.6481C236.833 87.5194 236.998 87.2527 237.252 86.9793C237.305 86.9221 237.263 86.8476 237.202 86.8065C236.852 86.5692 236.191 86.603 235.683 86.5526C235.117 86.4963 234.751 86.6432 234.425 86.7244C233.931 86.8476 233.19 86.906 232.632 87.2804C231.832 87.8169 231.647 88.1031 231.404 88.2448C231.15 88.392 230.998 88.6092 230.846 88.8428C230.672 89.1097 230.269 89.2783 229.944 89.5219C229.644 89.7467 229.457 90.0082 229.274 90.3023C229.091 90.5962 228.929 90.9207 228.899 91.4167C228.854 92.134 228.888 93.2322 228.969 93.5968C229.063 94.0202 229.131 94.3879 229.273 94.692C229.415 94.9969 229.496 95.2395 229.577 95.4831C229.679 95.787 229.8 96.1921 229.942 96.5975C230.116 97.0952 230.125 97.7104 230.176 98.2298C230.198 98.4613 230.206 98.6465 230.237 99.2396C230.315 100.774 230.227 101.89 230.196 102.183C230.097 103.143 230.287 103.391 230.318 103.786C230.33 103.94 230.369 104.381 230.359 104.989C230.343 105.922 230.268 107.303 230.186 107.689C230.114 108.031 230.165 108.439 230.136 108.894C230.08 109.736 230.186 110.222 230.126 110.619C230.085 110.883 229.963 111.116 229.923 111.501C229.863 112.063 229.659 112.534 229.588 112.869C229.485 113.357 229.517 113.75 229.637 113.995C230.08 114.895 230.712 112.883 231.036 112.507C231.371 112.12 231.645 111.747 231.888 111.453C232.185 111.095 232.415 110.734 232.922 110.186C233.381 109.689 233.956 109.09 234.321 108.847C234.834 108.505 235.192 107.835 235.679 107.448C236.201 107.034 236.651 106.679 237.209 106.273C237.722 105.9 238.173 105.441 238.607 105.128C239.454 104.518 239.754 104.204 240.16 103.829C240.661 103.367 241.155 102.846 241.771 102.198C242.086 101.868 242.31 101.528 242.393 101.304C242.575 100.806 241.198 101.95 239.873 102.881C239.051 103.459 238.135 104.12 237.791 104.465C237.23 105.027 236.657 105.661 236.159 106.107C235.726 106.496 235.237 107.058 234.821 107.647C234.144 108.604 233.371 109.068 233.026 109.291C232.591 109.573 232.175 109.919 231.88 110.163C231.576 110.415 231.283 110.81 230.978 111.046C230.873 111.126 230.734 111.157 230.653 111.178C230.262 111.277 230.633 110.206 230.551 109.962C230.511 109.841 230.53 109.678 230.621 109.516C230.796 109.205 231.721 108.748 232.724 108.05C233.178 107.734 233.465 107.413 233.821 106.996C234.604 106.08 235.132 105.38 235.375 105.127C235.857 104.626 236.45 104.041 237.289 103.243C237.817 102.741 238.314 102.482 238.802 102.136C239.269 101.804 239.816 101.386 240.16 101.092C240.512 100.791 241.793 99.8722 242.574 99.2563C242.698 99.1583 242.757 99.0127 242.788 98.9114C242.8 98.8711 242.718 98.8503 242.627 98.86C242.193 98.9063 241.686 99.1934 240.25 99.961C239.12 100.565 238.44 101.181 238.127 101.433C237.443 101.984 237.203 102.315 236.888 102.641C236.545 102.995 235.967 103.633 235.631 104.069C235.273 104.536 234.651 105.01 234.252 105.368C233.626 105.931 232.803 106.656 232.125 107.131C231.626 107.48 231.364 107.709 231.069 107.853C230.184 108.285 231.18 106.314 231.199 105.897C231.214 105.585 231.726 105.622 232.219 105.381C233.407 104.8 234.22 104.244 234.743 103.781C235.192 103.385 235.989 102.636 236.563 102.133C237.138 101.63 237.459 101.389 237.815 101.064C238.58 100.367 239.246 99.6636 239.783 99.208C240.415 98.6713 240.729 98.4658 241.113 98.0914C241.726 97.4936 241.965 97.2091 242.239 96.8439C242.477 96.5275 242.776 96.377 242.91 96.2851C243.083 96.1659 242.334 96.335 241.437 96.8378C240.718 97.2411 239.557 98.1033 238.716 98.6979C237.407 99.6239 236.838 100.106 236.656 100.308C236.329 100.671 235.844 101.119 235.298 101.626C235.011 101.892 234.709 102.113 234.345 102.326C233.498 102.82 233.148 103.107 232.843 103.269C232.507 103.449 232.135 103.634 231.809 103.847C231.369 104.135 230.918 104.465 230.613 104.719C230.552 104.77 230.491 104.81 230.46 104.58C230.363 103.854 230.49 103.271 230.631 103.149C231.112 102.737 232.41 102.341 233.255 101.953C233.691 101.754 234.138 101.446 235.044 100.802C235.735 100.312 236.794 99.3552 237.373 98.8494C238.187 98.1376 238.559 97.6155 238.843 97.2697C239.255 96.7682 239.613 96.4378 240.573 95.6498C241.391 94.979 241.681 94.3307 241.885 94.015C241.997 93.8409 242.149 93.7206 242.129 93.6695C242.108 93.6132 241.909 93.7589 241.144 94.3122C240.379 94.8654 239.014 95.8891 238.22 96.5169C237.217 97.3103 236.819 97.7529 236.374 98.1173C235.753 98.6251 235.358 98.7882 234.508 99.1021C233.933 99.3145 233.19 99.8211 232.55 100.399C232.234 100.685 231.911 100.796 231.465 101.069C231.345 101.143 231.223 101.201 231.14 101.192C230.99 101.175 230.977 100.437 231.057 99.5151C231.087 99.1671 231.298 99.0948 231.411 99.0434C231.768 98.8809 232.353 98.8101 232.699 98.6477C232.879 98.5633 233.446 98.2043 234.326 97.5671C235.132 96.984 235.518 96.5795 235.629 96.4482C235.777 96.2735 236.406 95.7322 237.347 94.8517C238.123 94.1252 238.56 93.7814 238.791 93.5396C239.288 93.0204 239.856 92.6263 240.31 92.3635C241.373 91.7491 242.063 91.3112 242.463 90.8118C242.528 90.7297 242.554 90.6396 242.524 90.5682C242.495 90.4967 242.394 90.4365 242.282 90.4155C241.849 90.3342 241.362 90.6372 240.108 91.3233C238.877 91.9968 238.176 92.6652 237.984 92.7562C237.618 92.9291 237.305 93.4134 236.859 93.8298C236.222 94.4229 235.824 94.9153 235.641 95.0874C235.581 95.1445 235.659 95.1993 235.751 95.2C235.966 95.2014 236.287 95.0789 236.782 94.9478C237.472 94.765 238.111 94.5114 238.878 94.2997C241.037 93.7035 241.317 93.5174 241.328 93.5171C241.553 93.5109 240.852 93.6391 240.64 93.5886C240.404 93.5324 240.203 93.3964 240.031 93.1342C239.512 92.3422 239.675 91.4541 239.635 90.7038C239.622 90.4525 239.515 90.4754 239.393 90.566C239.09 90.7918 238.885 91.063 238.613 91.3754C238.062 92.0085 237.588 92.442 237.265 92.7841C236.57 93.5223 235.947 94.3258 235.471 94.731C235.13 95.0214 234.509 95.3393 233.81 95.8152C233.148 96.2663 232.642 96.7383 232.074 97.2161C231.914 97.3505 231.809 97.4908 231.657 97.5519C231.523 97.6059 231.504 96.4469 231.524 94.8864C231.537 93.9132 231.119 93.6604 230.977 93.4067C230.818 93.1213 230.794 91.7054 230.734 90.8519C230.729 90.7781 230.693 90.7005 230.653 90.7093C230.508 90.7409 230.45 91.2029 230.389 91.9398C230.301 93.0146 230.389 93.8198 230.449 94.2036C230.654 95.5034 231.139 96.658 231.26 97.054C231.311 97.2198 231.301 97.3691 231.362 97.4905C231.394 97.5561 231.462 97.6118 231.503 97.5525C231.852 97.0491 231.625 96.2176 231.656 95.6078C231.67 95.3234 231.847 94.5175 232.08 93.2227C232.414 91.3681 232.315 90.9851 232.406 90.6691C232.422 90.612 232.536 90.6579 232.598 90.7084C232.726 90.8135 232.841 91.2631 233.094 92.4426C233.272 93.2756 233.446 94.6057 233.58 95.3785C233.796 96.6303 233.897 96.9026 233.907 97.0543C233.911 97.1263 233.937 97.186 233.947 97.0564C233.957 96.9269 233.957 96.6057 233.877 96.0287C233.797 95.4518 233.636 94.6288 233.503 94.0342C233.293 93.0929 233.147 92.5661 233.116 92.192C233.041 91.2724 233.268 90.4973 233.369 90.2938C233.389 90.253 233.47 90.2929 233.521 90.3835C233.652 90.6164 233.774 91.6232 234.016 93.0509C234.294 94.686 234.929 95.2395 235.123 95.4932C235.236 95.6426 235.336 95.7876 235.427 95.7885C235.505 95.7893 235.538 95.5485 235.589 94.9335C235.64 94.3185 235.68 93.2747 235.681 92.4961C235.682 91.2351 235.52 90.358 235.388 89.7299C235.315 89.3832 235.276 89.2193 235.245 89.1883C234.678 88.6101 235.882 91.3647 236.065 91.8626C236.353 92.6434 236.471 92.9682 236.593 93.3131C236.629 93.4161 236.694 93.5351 236.755 93.5871C236.816 93.6391 236.876 93.619 236.987 93.3678C237.099 93.1166 237.259 92.6348 237.352 91.8547C237.445 91.0746 237.465 90.0107 237.455 89.4325C237.445 88.8543 237.405 88.7941 237.354 88.733C237.249 88.6065 237.101 88.5295 236.889 88.4991C236.58 88.4547 236.21 88.5289 235.705 88.68C234.081 89.1666 233.471 89.7254 233.45 89.7458C232.771 90.4055 235.861 89.8063 236.358 89.837C236.551 89.8671 236.734 89.9079 237.017 89.9383C237.199 89.9486 237.46 89.9486 237.85 90.0095" stroke="white" stroke-width="2" stroke-linecap="round"/>
<path d="M323.026 66.168H112.107C97.173 66.168 85.0664 80.1591 85.0664 97.418V159.918C85.0664 177.177 97.173 191.168 112.107 191.168H323.026C337.96 191.168 350.066 177.177 350.066 159.918V97.418C350.066 80.1591 337.96 66.168 323.026 66.168Z" stroke="white" stroke-width="10" stroke-linecap="round" stroke-linejoin="round"/>
<path d="M229 113.5C229.708 99.0073 228.873 93.8661 226 88" stroke="white"/>
</svg>
