<svg width="427" height="287" viewBox="0 0 427 287" fill="none" xmlns="http://www.w3.org/2000/svg">
<path d="M323.026 66.168H112.107C97.173 66.168 85.0664 80.1591 85.0664 97.418V159.918C85.0664 177.177 97.173 191.168 112.107 191.168H323.026C337.96 191.168 350.066 177.177 350.066 159.918V97.418C350.066 80.1591 337.96 66.168 323.026 66.168Z" stroke="white" stroke-width="10" stroke-linecap="round" stroke-linejoin="round"/>
<g clip-path="url(#clip0_86_178)">
<rect x="100" y="79" width="141" height="100" rx="20" fill="white"/>
<path d="M240.544 111.551L240.523 111.51" stroke="white" stroke-width="2" stroke-linecap="round"/>
</g>
<path d="M351 99C358.732 99 365 105.268 365 113V147C365 154.732 358.732 161 351 161V99Z" fill="white"/>
<path d="M233.954 110.49L231.498 113.034L235.034 113.031L289.127 112.995L132.9 211.363L209.422 135.958L212.031 133.387L208.368 133.389L154.049 133.43L296.653 45.5234L233.954 110.49Z" fill="black" stroke="white" stroke-width="3"/>
<path d="M187.5 178.5H167.5" stroke="white"/>
<path d="M240.5 105C241.284 96.1834 240.076 91.8359 234 85.5" stroke="white"/>
<path d="M240.5 113V145" stroke="white"/>
<path d="M243.582 128.111C243.327 127.969 243.168 127.854 243.118 127.761C242.983 127.512 243.096 127.026 243.224 126.432C243.282 125.994 243.296 125.751 243.325 125.665C243.339 125.622 243.353 125.579 243.368 125.535" stroke="white" stroke-width="2" stroke-linecap="round"/>
<path d="M244.226 116.521C244.169 116.564 243.969 116.508 243.755 116.436C243.544 116.365 243.411 116.35 243.332 116.328C243.154 116.28 243.139 116.007 243.046 115.899C242.873 115.699 243.124 116.562 243.196 116.821C243.21 116.864 243.224 116.907 243.231 116.985C243.239 117.064 243.239 117.177 243.239 117.294" stroke="white" stroke-width="5" stroke-linecap="round"/>
<path d="M244.527 120.084C244.867 120.027 245.207 119.971 246.961 119.552C248.716 119.133 251.874 118.354 253.771 117.932C255.667 117.509 256.205 117.467 256.582 117.452C256.958 117.437 257.157 117.451 257.485 117.522C257.814 117.593 258.267 117.721 258.685 117.864C259.48 118.138 259.907 118.338 260.064 118.388C260.554 118.544 260.865 118.582 261.286 118.617C261.993 118.677 262.253 118.582 262.361 118.575C262.385 118.573 262.341 118.553 261.802 118.525C261.263 118.496 260.229 118.454 258.776 118.503C257.322 118.552 255.481 118.693 254.49 118.759C253.499 118.825 253.414 118.811 253.349 118.797C253.284 118.782 253.241 118.768 253.283 118.74C253.325 118.711 253.452 118.668 254.828 118.597C256.204 118.526 258.825 118.426 260.515 118.425C262.204 118.423 262.884 118.523 263.277 118.595C263.76 118.684 263.899 118.768 263.964 118.803C263.984 118.814 263.929 118.853 263.865 118.889C263.8 118.925 263.715 118.967 260.966 119.903C258.217 120.838 252.806 122.666 249.678 123.77C246.551 124.874 245.871 125.2 245.492 125.389C245.114 125.578 245.057 125.62 245.07 125.642C245.084 125.664 245.169 125.664 246.905 125.069C248.642 124.474 252.027 123.285 254.125 122.495C256.223 121.705 256.932 121.35 257.431 121.111C258.194 120.746 258.59 120.614 258.783 120.571C258.862 120.553 258.905 120.556 258.899 120.599C258.892 120.641 258.836 120.726 257.737 121.634C256.639 122.542 254.5 124.27 253.355 125.224C252.098 126.273 252.01 126.536 251.967 126.708C251.939 126.82 251.967 126.909 252.009 126.994C252.032 127.041 252.08 127.08 252.159 127.102C252.345 127.154 252.538 127.095 253.333 126.635C254.062 126.212 255.43 125.366 256.598 124.73C257.767 124.095 258.687 123.684 259.268 123.458C260.044 123.156 260.365 123.175 260.409 123.238C260.452 123.301 260.197 123.43 258.537 124.395C256.878 125.36 253.733 127.159 252.085 128.107C250.436 129.055 250.38 129.097 251.625 128.56C252.871 128.022 255.421 126.903 257.152 126.227C258.883 125.552 259.719 125.354 260.221 125.251C260.722 125.149 260.864 125.149 260.887 125.199C261.183 125.827 259.594 126.179 259.308 126.421C259.078 126.617 258.722 127.035 258.266 127.606C257.592 128.449 257.348 128.639 257.168 128.854C256.938 129.13 256.718 129.284 256.525 129.412C256.193 129.634 255.817 129.884 255.559 130.056C255.433 130.14 255.245 130.313 254.86 130.549C253.878 131.149 253.471 131.343 253.177 131.523C252.729 131.796 252.141 132.272 251.768 132.546C251.373 132.835 251.095 133.161 250.909 133.354C250.68 133.592 250.437 133.804 250.129 134.055C249.891 134.249 249.564 134.435 249.364 134.563C249.081 134.744 248.821 135.006 248.598 135.143C248.366 135.285 248.09 135.422 247.89 135.579C247.635 135.779 247.389 136.137 247.096 136.451C246.878 136.686 246.659 136.952 246.145 137.466C245.933 137.679 245.729 137.783 245.557 137.89C245.472 137.926 245.386 137.969 245.3 138.026C245.257 138.055 245.214 138.083 245.128 138.112" stroke="white" stroke-width="5" stroke-linecap="round"/>
<path d="M258.048 130.515C258.061 130.43 258.488 129.945 259.224 129.274C259.555 128.971 260.055 128.436 260.374 128.124C261.063 127.45 261.552 127.025 261.852 126.746C262.272 126.356 262.44 126.18 262.682 125.994C262.835 125.877 262.955 125.765 263.26 125.552C263.97 125.057 264.471 124.634 264.642 124.521C264.879 124.363 265.185 124.064 265.493 123.763C265.664 123.596 266.184 123.093 266.935 122.336C267.522 121.743 267.862 121.687 268.055 121.587C268.107 121.56 268.162 121.53 268.737 121.338C269.311 121.146 270.402 120.792 270.992 120.596C271.642 120.379 271.896 120.285 272.26 120.171C272.962 119.951 273.513 119.37 273.728 119.183C273.963 118.98 274.271 118.783 274.786 118.525C275.067 118.384 275.288 118.353 275.524 118.267C275.813 118.162 276.117 118.025 276.461 117.888C276.78 117.762 276.976 117.667 277.155 117.559C277.353 117.44 277.577 117.437 277.756 117.337C277.963 117.222 278.135 117.165 278.393 117.087C278.69 116.996 279.007 116.922 279.209 116.858C279.395 116.798 279.58 116.623 279.774 116.479C279.964 116.337 280.153 116.25 280.332 116.164C280.58 116.044 280.797 115.907 281.004 115.835C281.182 115.773 281.355 115.72 281.526 115.656C281.71 115.587 281.87 115.506 282.084 115.363C282.306 115.215 282.499 115.091 282.614 115.012C282.706 114.949 282.315 115.019 282.144 115.033C281.913 115.052 281.232 115.119 280.346 115.148C279.667 115.169 279.154 115.219 278.817 115.241C278.652 115.251 278.126 115.277 277.397 115.284C276.791 115.29 276.478 115.348 276.198 115.37C275.943 115.389 275.323 115.533 274.397 115.584C274.145 115.598 273.902 115.62 273.61 115.627C273.359 115.633 272.704 115.663 271.846 115.656C271.441 115.652 271.212 115.62 270.969 115.627C270.81 115.632 270.512 115.705 269.553 115.763C268.835 115.806 267.644 115.763 267.01 115.749C266.175 115.73 265.861 115.677 264.905 115.67C264.559 115.667 263.948 115.706 263.147 115.72C262.593 115.73 262.313 115.82 261.478 115.828C260.867 115.833 260.296 115.82 259.745 115.842C259.494 115.852 258.84 115.878 257.954 115.856C257.204 115.838 256.904 115.592 256.568 115.47C256.465 115.433 256.333 115.448 256.289 115.477C256.244 115.505 256.287 115.562 256.401 115.626C256.515 115.691 256.699 115.762 256.992 115.834C257.285 115.905 257.682 115.976 259.274 116.098C260.867 116.219 263.643 116.389 265.413 116.548C267.184 116.706 267.863 116.848 268.731 116.942C269.598 117.036 270.632 117.079 271.207 117.115C271.869 117.156 271.998 117.208 272.048 117.251C272.081 117.279 272.027 117.378 271.991 117.436C271.93 117.535 271.586 117.679 271.001 117.929C270.701 118.057 270.387 118.165 269.504 118.407C268.622 118.65 267.177 119.018 266.064 119.378C264.952 119.737 264.215 120.077 263.68 120.344C262.821 120.773 262.455 121.028 262.291 121.128C261.766 121.448 261.07 121.656 260.603 122.05C260.231 122.364 260.137 122.915 259.909 123.359C259.866 123.442 259.808 123.432 259.765 123.39C259.656 123.282 259.48 122.976 259.031 122.513C258.757 122.229 258.314 121.922 258.017 121.676C257.551 121.29 257.191 120.817 256.728 120.062C256.455 119.617 256.193 118.995 255.977 118.582C255.431 117.542 254.858 117.209 254.579 117.073C254.33 116.951 254.185 116.709 253.963 116.13C253.917 116.01 253.927 115.964 253.906 115.942C253.859 115.894 253.671 115.949 253.414 115.999C253.159 116.048 252.431 116.049 251.359 116.021C250.14 115.989 249.78 115.778 249.499 115.742C249.249 115.709 248.991 115.677 248.57 115.656C248.433 115.635 248.333 115.606 248.084 115.584C247.892 115.577 247.566 115.577 247.231 115.577" stroke="white" stroke-width="5" stroke-linecap="round"/>
<path d="M243.067 117.036C243.067 117.522 243.096 117.722 243.117 117.93C243.139 118.139 243.21 118.395 243.275 118.581C243.336 118.758 243.353 119.024 243.41 119.232C243.471 119.453 243.582 119.824 243.668 120.155C243.741 120.434 243.739 120.87 243.79 121.106C243.806 121.183 243.797 121.298 243.797 121.151C243.797 120.071 243.726 119.785 243.704 119.662C243.67 119.47 243.64 120.083 243.618 120.255C243.596 120.433 243.511 120.598 243.454 120.77C243.425 120.856 243.397 120.956 243.375 121.063C243.365 121.113 243.368 121.156 243.403 121.065C243.648 120.432 243.625 120.114 243.604 119.978C243.58 119.826 243.283 120.098 243.111 120.205C243.07 120.231 243.025 120.241 242.989 120.291C242.827 120.515 242.967 120.812 243.06 121.071C243.136 121.282 243.181 121.457 243.232 121.806C243.363 122.721 243.282 123.242 243.246 123.738C243.217 124.146 243.139 124.574 243.103 124.969C243.078 125.238 243.024 125.434 242.982 125.699C242.896 126.228 242.967 127.065 242.967 127.7C242.968 128.342 242.867 128.711 242.846 128.926C242.812 129.254 242.781 129.769 242.774 130.213C242.77 130.434 242.853 130.77 242.81 131.029C242.778 131.221 242.724 131.444 242.688 131.644C242.666 131.771 242.667 131.902 242.638 132.03C242.604 132.186 242.595 132.912 242.588 133.899C242.582 134.789 242.581 135.793 242.602 136.001C242.609 136.051 242.623 136.094 242.631 136.151C242.638 136.209 242.638 136.279 242.638 136.352" stroke="white" stroke-width="5" stroke-linecap="round"/>
<path d="M245.9 122.445C245.886 122.899 245.886 123.874 245.907 124.403C245.926 124.863 245.972 125.176 246.15 125.926C246.291 126.521 246.315 126.779 246.337 127.058C246.356 127.31 246.401 127.737 246.422 128.053C246.451 128.468 246.487 128.754 246.487 129.011C246.488 129.735 246.202 130.212 245.937 130.627C245.639 131.096 245.558 131.343 245.464 131.594C245.251 132.166 245.329 133.174 245.335 133.376C245.338 133.496 245.797 132.979 246.262 132.521C246.441 132.344 246.514 132.29 247.138 131.694C247.763 131.098 248.938 129.965 249.629 129.325C250.652 128.376 250.879 128.369 251.022 128.276C251.086 128.234 251.108 128.169 251.108 128.105C251.111 127.715 250.453 127.24 249.88 126.875C249.21 126.446 248.608 126.609 248.098 126.644C247.99 126.652 247.891 126.652 247.861 126.659C247.831 126.666 247.874 126.68 247.918 126.694" stroke="white" stroke-width="5" stroke-linecap="round"/>
<path d="M244.32 138.949C244.298 138.949 244.236 138.954 244.199 138.959C244.134 138.967 244.103 138.966 244.083 138.956C244.055 138.942 244.037 138.941 244.016 138.934C243.988 138.924 243.942 138.9 243.919 138.887C243.902 138.877 243.887 138.863 243.871 138.851C243.854 138.837 243.827 138.818 243.804 138.804C243.784 138.792 243.77 138.783 243.743 138.776C243.701 138.766 243.681 138.759 243.663 138.754C243.645 138.748 243.624 138.741 243.604 138.736C243.576 138.73 243.563 138.714 243.547 138.7C243.529 138.684 243.494 138.668 243.472 138.655C243.45 138.642 243.435 138.628 243.42 138.62C243.409 138.615 243.427 138.648 243.43 138.67C243.437 138.71 243.426 138.789 243.429 138.831C243.431 138.854 243.434 138.883 243.437 138.916C243.445 139.005 243.441 139.036 243.445 139.066C243.447 139.092 243.449 139.183 243.446 139.239C243.444 139.267 243.436 139.295 243.424 139.325C243.408 139.365 243.388 139.396 243.382 139.413C243.364 139.467 243.341 139.536 243.336 139.555C243.331 139.57 243.308 139.619 243.29 139.658C243.278 139.684 243.267 139.708 243.256 139.738C243.236 139.792 243.214 139.833 243.201 139.859C243.171 139.928 243.165 139.949 243.154 139.98C243.152 139.989 243.152 139.999 243.152 140.008" stroke="white" stroke-width="5" stroke-linecap="round"/>
<path d="M243.234 140.496C243.227 140.495 243.206 140.495 243.184 140.505C243.164 140.512 243.147 140.518 243.134 140.525C243.126 140.53 243.116 140.536 243.098 140.543" stroke="white" stroke-width="5" stroke-linecap="round"/>
<path d="M286.689 53.04C286.713 53.04 286.736 53.04 286.725 53.0753C286.636 53.3486 286.263 53.4908 286.036 53.7404C285.821 53.9774 285.621 54.204 285.335 54.3944C285.049 54.5848 284.718 54.7746 284.349 54.9532C284.047 55.0994 283.766 55.3451 283.469 55.6183C283.121 55.9375 282.886 56.2238 282.696 56.5929C282.534 56.907 282.222 57.1752 281.959 57.4609C281.64 57.8084 281.27 58.0083 280.984 58.1744C280.688 58.3471 280.414 58.5546 280.105 58.7803C279.663 59.103 279.44 59.5046 279.071 59.8145C278.767 60.0695 278.489 60.3133 278.191 60.4806C277.797 60.7021 277.255 61.1678 276.729 61.5854C276.417 61.8334 276.135 62.025 275.849 62.1805C275.564 62.3358 275.279 62.4301 274.994 62.5371C274.678 62.6552 274.376 62.8581 274.066 62.9533C273.771 63.0441 273.308 63.3088 272.925 63.5235C272.776 63.6072 272.663 63.7375 272.58 63.8797C272.54 63.949 272.52 64.022 272.591 64.0466C273.11 64.2286 273.659 63.7867 273.993 63.7264C274.137 63.7004 274.279 63.6433 274.362 63.6547C274.704 63.7015 273.853 64.236 273.567 64.3915C273.271 64.5525 272.997 64.8066 272.723 65.033C272.435 65.2709 272.259 65.6624 271.998 65.8771C271.711 66.1129 271.287 66.5882 270.928 66.8873C270.637 67.1306 270.311 67.3741 269.741 67.8013C268.892 68.4379 268.693 68.8718 268.444 69.1575C268.204 69.4318 267.886 69.8218 267.506 70.1674C266.826 70.7844 265.895 71.6947 265.07 72.6023C263.886 73.9052 263.393 74.268 262.941 74.6606C262.414 75.1185 261.919 75.8114 261.55 76.3366C261.265 76.7413 260.825 77.3348 260.563 77.6447C260.258 78.0048 259.827 78.2391 259.529 78.4413C259.22 78.6509 259.018 79.0707 258.78 79.3917C258.447 79.8398 258.328 80.1405 258.102 80.4854C257.905 80.7868 257.71 81.1148 257.389 81.6023C257.314 81.7165 257.235 81.7809 257.246 81.782C257.371 81.7945 257.989 80.9336 258.927 79.7344C259.825 78.5861 260.228 78.3604 260.632 78.0747C261.03 77.793 261.369 77.3148 261.796 76.9814C262.249 76.6285 262.557 76.3634 262.95 76.0778C263.338 75.7952 263.58 75.7443 263.652 75.673C263.889 75.4376 262.751 76.0039 261.591 76.6786C261.023 77.009 260.222 77.6572 259.55 78.2431C258.879 78.829 258.385 79.3703 258.001 79.8963C257.289 80.8702 256.903 81.7082 256.57 82.1949C256.191 82.7511 255.927 83.0647 255.642 83.4331C255.265 83.9201 254.953 84.2301 254.277 85.0702C253.589 85.9264 252.792 86.8426 252.044 87.4481C251.359 88.0027 251.007 88.3653 250.318 89.2557C249.871 89.8336 249.532 90.3865 249.14 90.7556C248.87 91.01 248.558 91.2666 248.307 91.5522C248.035 91.8625 247.796 92.1938 247.547 92.5386C247.336 92.8303 247.154 93.1209 247.094 93.4066C247.033 93.6977 246.916 93.9768 246.798 94.2742C246.642 94.6635 246.37 94.904 246.156 95.2014C245.885 95.5777 245.61 95.7841 245.289 96.14C244.865 96.6103 244.73 96.901 244.575 97.1984C244.365 97.6014 243.969 97.7097 243.814 97.9711C243.648 98.2503 243.517 98.5413 243.279 98.827C243.224 98.8933 243.208 98.9693 243.172 98.9586C243.044 98.9202 243.041 98.5214 243.064 98.2001C243.071 98.1112 243.135 98.1847 243.159 98.2682C243.256 98.6004 242.994 98.8979 242.91 99.0894C242.777 99.394 243.016 98.4258 243.052 97.9975C243.087 97.5906 243.159 97.1178 243.243 96.7615C243.406 96.0644 243.444 95.5259 243.516 95.1917C243.578 94.904 243.35 94.6215 243.184 94.3359C242.995 94.0109 242.733 93.6944 242.519 93.397C242.455 93.3079 242.353 93.2194 242.328 93.2415C241.969 93.5592 243.014 94.5431 243.325 95.1062C243.372 95.1906 243.42 95.2606 243.409 95.3087C243.385 95.4146 243.208 95.4753 243.101 95.5469C242.815 95.7393 242.78 94.9068 242.744 94.5028C242.715 94.1832 242.566 93.9083 242.459 93.6227C242.337 93.2989 242.209 92.887 242.173 92.5529C242.141 92.2571 241.995 91.9827 241.9 91.697C241.805 91.4114 241.663 91.1268 241.236 90.6636C240.973 90.3788 240.831 90.057 240.676 89.7714C240.515 89.4756 240.355 89.2012 240.2 88.9155C240.051 88.6391 239.88 88.3453 239.572 87.9538C238.869 87.0602 238.549 86.8946 238.287 86.5979C237.859 86.1336 237.622 85.8491 237.348 85.6226C237.288 85.5631 237.241 85.4925 237.192 85.3484" stroke="white" stroke-width="5" stroke-linecap="round"/>
<path d="M238.69 84.0647C239.185 83.8992 240.186 83.661 240.685 83.4356C241.541 83.0488 242.634 82.3786 243.229 82.0687C243.683 81.832 244.061 81.6412 244.714 81.3555C245.242 81.1251 245.701 80.7625 246.047 80.5821C246.205 80.4997 246.463 80.4758 246.712 80.3214C246.88 80.2175 247.952 79.672 249.52 78.793C250.667 78.15 251.477 77.506 251.895 77.2186C252.343 76.911 253.47 76.153 254.705 75.2747C255.519 74.6959 256.277 73.9649 257.144 73.3351C257.871 72.8075 258.563 72.3224 258.814 72.0125C259.094 71.6657 259.678 71.0643 260.156 70.6456C260.543 70.3069 260.87 70.0159 261.392 69.6946C261.706 69.5016 262.011 69.3497 262.367 69.0883C262.736 68.8179 263.056 68.5652 263.449 68.3156C263.983 68.0189 264.53 67.638 264.933 67.3424C265.171 67.1409 265.477 66.835 265.792 66.5197" stroke="white" stroke-width="5" stroke-linecap="round"/>
<path d="M268.502 64.808C268.62 64.7374 268.738 64.6668 268.833 64.6069C268.929 64.547 269 64.4999 269.144 64.3801" stroke="white" stroke-width="5" stroke-linecap="round"/>
<path d="M242.542 86.5609C242.589 86.5138 242.895 86.2307 243.664 85.6501C245.451 84.3021 245.986 84.3043 246.439 84.0179C246.745 83.8239 247.105 83.6852 247.39 83.554C247.54 83.4853 247.723 83.3051 248.195 82.9973C249.071 82.4272 250.169 81.9992 250.881 81.536C251.506 81.1298 252.283 80.7867 253.13 80.2155C253.71 79.8244 254.375 79.1007 255.411 78.5152C256.369 77.9736 256.876 77.9082 257.161 77.7296C257.303 77.67 257.659 77.5045 258.122 77.267C258.303 77.1708 258.373 77.1237 258.446 77.0752" stroke="white" stroke-width="5" stroke-linecap="round"/>
<path d="M259.516 76.5046L259.801 76.4333" stroke="white" stroke-width="5" stroke-linecap="round"/>
<path d="M243.183 91.5533C243.513 91.2238 243.842 90.8943 244.353 90.2656C244.864 89.6369 245.547 88.719 245.969 88.1167C246.869 86.8337 247.318 86.1829 248.121 85.4144C248.697 84.8639 249.678 84.0575 250.634 83.3272C251.59 82.5968 252.508 81.9849 253.028 81.6344C253.548 81.2838 253.642 81.2132 253.739 81.0692" stroke="white" stroke-width="5" stroke-linecap="round"/>
<path d="M176.11 181.609C175.95 181.564 175.357 181.358 174.689 181.236C174.411 181.186 174.251 181.161 173.782 181.075C173.215 180.972 173.046 181.092 172.908 181.121C172.748 181.154 172.563 181.196 172.312 181.224C171.558 181.31 171.301 181.173 171.026 181.201C170.609 181.244 170.314 181.242 170.141 181.224C169.81 181.191 169.395 181.173 168.674 181.156C168.453 181.15 168.338 181.127 168.264 181.144C168.214 181.155 168.303 181.264 168.292 181.333C168.249 181.6 167.777 181.745 167.41 182.198C167.139 182.532 167.006 182.78 166.87 183.007C166.751 183.205 166.506 183.554 166.258 183.849C166.01 184.144 165.76 184.371 165.404 184.727C165.048 185.083 164.593 185.56 164.33 185.829C163.92 186.249 163.644 186.407 163.328 186.591C163.139 186.701 163.034 186.844 162.994 186.913C162.974 186.946 162.965 186.981 163.01 186.976C163.165 186.958 163.445 186.844 164.164 186.651C164.705 186.505 165.588 186.207 166.078 186.055C166.635 185.883 166.833 185.834 167.198 185.663C168.225 185.182 168.348 185.019 168.555 184.927C168.706 184.86 168.899 184.824 169.255 184.624C169.5 184.485 169.703 184.41 169.858 184.353C170.123 184.255 170.687 183.942 171.012 183.75C171.139 183.676 171.253 183.561 171.42 183.458C171.574 183.378 171.735 183.286 171.924 183.171C172.044 183.102 172.215 183.011 172.459 182.883" stroke="white" stroke-width="5" stroke-linecap="round"/>
<path d="M178.59 181.127C178.499 181.184 178.247 181.298 178.074 181.368C177.817 181.471 177.385 181.38 176.961 181.362C176.833 181.357 176.754 181.333 176.702 181.322C176.586 181.297 176.982 181.185 177.183 181.133C177.378 181.082 177.522 181.07 177.774 181.052C177.993 181.037 178.245 181.001 178.388 180.949C178.56 180.887 178.693 180.829 178.831 180.805C178.983 180.78 179.106 180.713 179.25 180.685C179.414 180.652 179.565 180.645 179.646 180.662C179.874 180.71 179.279 180.84 179.142 180.863C178.989 180.888 178.866 180.977 178.728 181.023C178.59 181.069 178.453 181.115 178.315 181.161C178.177 181.207 178.04 181.253 177.896 181.299C177.721 181.355 177.557 181.413 177.414 181.477C177.247 181.55 177.087 181.643 176.84 181.775C176.62 181.893 176.455 181.976 175.946 182.199C175.769 182.277 175.563 182.354 175.157 182.486C174.75 182.617 174.148 182.799 173.633 183.007C172.685 183.388 172.23 183.698 172.116 183.755C171.893 183.867 171.544 184.076 171.072 184.272C170.625 184.457 170.428 184.639 169.908 184.954C169.36 185.285 168.89 185.466 168.695 185.603C168.591 185.672 168.478 185.741 168.379 185.799C168.281 185.856 168.202 185.902 168.12 185.949" stroke="white" stroke-width="5" stroke-linecap="round"/>
<path d="M163.091 191.184C163.159 191.116 163.558 190.739 164.166 190.2C164.49 189.913 164.675 189.887 164.744 189.835C164.78 189.808 164.813 189.772 164.768 189.732C164.392 189.395 163.953 189.29 163.901 189.153C163.804 188.894 164.054 188.443 164.57 187.656C164.715 187.435 164.756 187.327 164.739 187.264C164.711 187.158 164.163 187.291 163.356 187.531C162.952 187.651 162.582 187.839 161.991 188.251C161.4 188.663 160.604 189.311 160.03 189.809C159.455 190.308 159.126 190.638 158.774 190.944C158.422 191.25 158.059 191.523 157.712 191.754C156.718 192.418 156.582 192.412 156.547 192.412C156.451 192.413 156.718 192.104 157.112 191.641C157.39 191.315 157.881 190.849 158.303 190.489C158.725 190.13 159.077 189.903 159.446 189.706C160.174 189.318 160.679 189.129 160.868 189.032C161.017 188.955 161.139 188.922 161.197 188.905C161.209 188.901 161.186 188.944 160.543 189.405C159.901 189.866 158.639 190.753 157.972 191.226C157.267 191.728 157.145 191.837 156.985 191.952C156.728 192.136 156.365 192.365 155.954 192.622C155.291 193.036 154.815 193.456 154.626 193.622C154.453 193.774 154.286 193.881 153.708 194.482C153.362 194.841 153.127 194.972 152.623 195.447C152.388 195.669 152.174 195.822 152.036 195.902C151.893 195.985 151.76 196.108 151.623 196.183C151.46 196.272 151.29 196.453 151.14 196.556C150.946 196.691 150.75 196.935 150.584 197.141C150.255 197.55 149.901 197.726 149.694 197.905C149.445 198.12 149.132 198.381 148.616 198.885C148.305 199.189 148.179 199.335 147.898 199.467C147.727 199.546 147.593 199.645 147.455 199.719C147.326 199.789 147.146 200 146.944 200.133C146.762 200.253 146.491 200.334 146.353 200.414C146.21 200.497 146.1 200.62 145.974 200.73C145.905 200.792 145.848 200.862 145.796 200.93C145.767 200.965 145.733 200.999 145.629 201.103" stroke="white" stroke-width="5" stroke-linecap="round"/>
<defs>
<clipPath id="clip0_86_178">
<rect x="100" y="79" width="141" height="100" rx="20" fill="white"/>
</clipPath>
</defs>
</svg>
