<svg width="427" height="287" viewBox="0 0 427 287" fill="none" xmlns="http://www.w3.org/2000/svg">
<path d="M323.026 66.168H112.107C97.173 66.168 85.0664 80.1591 85.0664 97.418V159.918C85.0664 177.177 97.173 191.168 112.107 191.168H323.026C337.96 191.168 350.066 177.177 350.066 159.918V97.418C350.066 80.1591 337.96 66.168 323.026 66.168Z" stroke="white" stroke-width="10" stroke-linecap="round" stroke-linejoin="round"/>
<rect x="100" y="79" width="152.75" height="100" rx="20" fill="white"/>
<path d="M351 99C358.732 99 365 105.268 365 113V147C365 154.732 358.732 161 351 161V99Z" fill="white"/>
<path d="M235.954 110.49L233.498 113.034L237.034 113.031L291.127 112.995L134.9 211.363L211.422 135.958L214.031 133.387L210.368 133.389L156.049 133.43L298.653 45.5234L235.954 110.49Z" fill="black" stroke="white" stroke-width="3"/>
<path d="M188.5 178.5H166.5" stroke="white"/>
<path d="M252 95C252 95 250.277 88.5229 247.5 85.5C245.007 82.7871 239.5 80.5 239.5 80.5" stroke="white"/>
<path d="M252.5 114V136" stroke="white"/>
<path d="M253.615 133.214C254.247 132.47 254.879 131.726 256.55 129.887C258.22 128.048 260.91 125.135 262.369 123.572C263.829 122.01 263.978 121.886 264.148 121.766C264.494 121.522 264.769 121.396 264.9 121.377C264.957 121.368 264.994 121.42 264.976 121.488C264.958 121.557 264.884 121.656 264.573 122.048C264.262 122.44 263.717 123.122 263.256 123.764C262.795 124.407 262.436 124.989 262.22 125.357C261.928 125.854 261.89 126.064 261.934 126.165C261.953 126.21 262.015 126.215 262.17 126.203C262.326 126.191 262.586 126.153 264.437 125.533C266.288 124.913 269.721 123.711 271.458 123.129C273.196 122.546 273.134 122.621 272.414 123.18C271.694 123.738 270.319 124.78 269.585 125.341C268.852 125.902 268.802 125.951 268.746 126.002C268.689 126.052 268.627 126.102 269.388 125.638C270.15 125.174 271.736 124.194 272.69 123.628C273.643 123.062 273.916 122.938 274.106 122.861C274.296 122.785 274.395 122.76 274.471 122.741C274.547 122.722 274.597 122.71 274.498 122.772C274.4 122.834 274.152 122.97 273.64 123.288C273.128 123.606 272.36 124.102 271.437 124.599C270.514 125.096 269.461 125.58 268.862 125.847C268.264 126.115 268.152 126.152 267.748 126.345C267.343 126.537 266.649 126.884 266.267 127.082C265.685 127.382 265.447 127.579 264.897 127.96C264.519 128.223 264.282 128.306 263.901 128.443C263.632 128.541 263.469 128.668 262.907 129.062C262.195 129.56 261.654 129.883 261.409 129.983C261.081 130.118 260.802 130.234 260.545 130.377C260.347 130.488 260.113 130.572 259.888 130.691C259.579 130.853 259.126 131.146 258.805 131.435C258.564 131.652 258.41 131.823 258.217 132.017C257.913 132.321 257.572 132.524 257.022 132.868C256.734 133.049 256.372 133.175 256.001 133.301C255.629 133.427 255.469 133.564 255.306 133.695C255.167 133.807 255.03 133.889 254.893 134.008C254.741 134.139 254.592 134.24 254.411 134.303C254.251 134.358 254.104 134.44 253.922 134.584C253.878 134.616 253.841 134.628 253.803 134.628C253.766 134.629 253.728 134.616 253.69 134.566" stroke="white" stroke-width="2" stroke-linecap="round"/>
<path d="M255.681 132.387C255.668 132.375 255.656 132.363 255.656 132.338C255.656 132.313 255.668 132.275 256.585 131.674C257.503 131.072 259.325 129.907 260.79 128.916C262.255 127.926 263.309 127.145 264.087 126.656C264.865 126.167 265.336 125.993 265.703 125.879C266.31 125.69 266.734 125.652 267.096 125.608C267.536 125.555 267.824 125.477 267.856 125.477C267.874 125.477 267.751 125.477 267.421 125.539C267.092 125.601 266.522 125.725 265.856 125.912C265.191 126.1 264.447 126.348 264.008 126.488C263.569 126.628 263.458 126.653 263.14 126.715C262.822 126.778 262.302 126.877 261.903 126.99C260.907 127.272 260.616 127.541 260.308 127.767C260.068 127.943 259.901 128.205 259.763 128.374C259.558 128.625 259.374 128.894 259.243 129.156C259.041 129.56 258.613 130.094 258.305 130.346C258.078 130.531 257.86 130.559 257.647 130.659C257.439 130.757 257.221 130.872 256.928 131.022C256.618 131.18 256.358 131.285 256.008 131.56C255.618 132.011 255.518 132.136 255.419 132.249C255.368 132.312 255.319 132.386 255.268 132.462" stroke="white" stroke-width="2" stroke-linecap="round"/>
<path d="M253.202 132.613C253.177 132.488 253.301 132.04 253.421 131.644C253.493 131.403 253.502 131.174 253.54 130.924C253.578 130.671 253.615 130.274 253.578 129.972C253.513 129.451 253.565 128.621 253.615 128.388C253.709 127.954 253.628 127.393 253.578 127.205C253.524 127.005 253.478 126.78 253.428 126.542C253.391 126.366 253.365 126.191 253.346 125.76C253.334 125.489 253.339 125.214 253.383 125.027C253.426 124.843 253.452 124.689 253.502 124.495C253.559 124.277 253.602 124.051 253.646 123.794C253.688 123.552 253.69 123.101 253.721 122.836C253.749 122.599 253.765 122.298 253.797 121.849C253.853 121.032 253.815 120.444 253.834 120.276C253.873 119.925 253.828 119.655 253.809 119.401C253.73 118.331 253.741 118.079 253.722 117.853C253.705 117.661 253.653 117.094 253.69 116.714C253.712 116.496 253.79 116.301 253.828 116.125C253.867 115.943 253.665 115.75 253.647 115.313C253.615 115.036 253.603 114.848 253.584 114.748C253.578 114.686 253.578 114.599 253.578 114.51" stroke="white" stroke-width="2" stroke-linecap="round"/>
<path d="M254.028 115.449C254.177 115.449 254.34 115.436 255.278 115.393C256.127 115.353 257.739 115.312 258.625 115.293C259.622 115.271 259.898 115.298 260.223 115.286C260.55 115.273 260.776 115.223 261.049 115.205C261.622 115.166 262.251 115.111 262.893 115.123C263.772 115.14 264.381 115.173 264.612 115.136C264.907 115.088 265.504 114.973 266.217 114.861C266.613 114.799 266.773 114.735 266.761 114.747C266.718 114.793 266.526 114.785 265.179 115.25C263.831 115.715 261.315 116.62 259.251 117.458C257.186 118.295 255.649 119.039 254.907 119.379C254.165 119.719 254.264 119.632 254.377 119.507C254.626 119.231 254.903 118.744 255.271 117.928C255.496 117.429 255.726 116.727 255.86 116.339C256.048 115.792 256.081 115.637 256.15 115.536C256.158 115.525 256.144 115.61 255.971 116.014C255.797 116.418 255.462 117.161 255.24 117.743C255.018 118.324 254.919 118.721 254.868 119.037C254.782 119.571 254.879 120.128 254.985 120.634C255.033 120.862 255.105 120.944 255.161 121.032C255.187 121.073 255.229 121.094 255.298 121.064C255.485 120.98 255.717 120.683 256.407 119.782C256.959 119.062 257.878 117.778 258.388 117.058C258.898 116.339 258.96 116.215 258.899 116.2C258.838 116.186 258.652 116.285 258.395 116.535C258.138 116.784 257.816 117.181 257.408 117.782C257 118.383 256.517 119.176 256.094 120.012C255.672 120.848 255.325 121.704 255.115 122.411C254.905 123.118 254.843 123.651 254.811 124.03C254.762 124.62 254.804 125.012 254.898 125.206C254.929 125.271 255.078 125.091 255.557 123.968C256.035 122.844 256.878 120.737 257.381 119.521C257.883 118.306 258.019 118.045 258.114 117.849C258.366 117.329 258.41 117.077 258.392 117.045C258.142 116.607 257.463 117.775 257.14 117.909C257.049 117.946 256.946 117.728 256.858 117.497C256.786 117.307 256.708 116.768 256.614 116.067C256.574 115.764 256.545 115.625 256.464 115.537C256.378 115.443 256.257 116.009 256.207 117.253C256.168 118.199 256.305 119.786 256.244 121.142C256.184 122.499 255.973 123.577 255.815 124.3C255.487 125.799 255.406 126.014 255.368 126.083C255.292 126.224 255.068 125.853 254.768 125.278C254.714 125.174 254.643 125.238 254.586 125.319C254.457 125.505 254.342 125.887 254.242 126.424C254.138 126.978 254.191 127.478 254.235 127.921C254.259 128.166 254.315 128.451 254.428 128.814C254.677 129.624 254.867 130.17 254.817 130.364C254.796 130.447 254.767 130.496 254.773 130.466C254.801 130.32 255.028 129.949 255.39 129.43C255.573 129.168 255.777 128.925 256.294 128.444C256.812 127.963 257.642 127.256 258.157 126.836C258.671 126.417 258.845 126.305 259.3 125.975C259.755 125.645 260.486 125.1 260.937 124.775C261.528 124.351 261.913 124.176 262.468 123.945C262.798 123.808 263.234 123.652 263.68 123.451C264.127 123.251 264.573 123.015 264.983 122.826C265.741 122.475 266.246 122.297 266.452 122.197C266.68 122.087 266.873 121.997 266.886 121.953C266.919 121.842 266.599 121.933 266.257 122.07C265.998 122.174 265.58 122.38 264.303 123.139C263.026 123.898 260.907 125.212 259.66 126.019C258.413 126.826 258.103 127.086 257.876 127.264C257.521 127.54 257.123 127.741 256.723 127.948C256.514 128.055 256.048 128.316 255.379 128.642C255.133 128.761 255.069 128.769 255.012 128.775C254.955 128.782 254.906 128.782 254.868 128.745C254.638 128.52 254.891 128.007 255.004 127.651C255.05 127.506 255.141 127.284 255.353 126.903C255.565 126.521 255.899 125.988 256.14 125.633C256.381 125.278 256.517 125.117 256.903 124.786C257.29 124.455 257.922 123.959 258.34 123.648C258.759 123.337 258.945 123.225 259.158 123.069C259.372 122.912 259.607 122.714 259.964 122.358C260.321 122.001 260.792 121.493 261.109 121.132C261.426 120.771 261.575 120.573 261.788 120.328C262 120.084 262.273 119.799 262.674 119.447C263.075 119.096 263.595 118.687 264.241 118.334C264.888 117.98 265.644 117.695 266.064 117.542C266.543 117.368 266.648 117.352 266.722 117.327C266.76 117.314 266.797 117.302 267.027 116.954C267.257 116.607 267.679 115.926 268.032 115.395C268.635 114.489 269.001 114.084 269.076 114.034C269.087 114.027 269.052 114.083 268.568 114.425C268.085 114.766 267.155 115.398 266.639 115.742C266.054 116.133 265.836 116.249 265.474 116.442C264.96 116.717 264.384 116.85 263.891 116.975C263.35 117.112 262.931 117.326 262.551 117.556C261.979 117.902 261.616 118.277 261.491 118.433C261.403 118.543 261.303 118.703 261.11 118.964C260.843 119.326 260.677 119.754 260.341 120.363C260.096 120.809 259.634 121.494 259.36 121.901C259.014 122.417 258.663 122.72 258.244 123.089C257.971 123.33 257.822 123.56 257.617 123.828C256.99 124.646 256.545 125.138 256.482 125.208C256.37 125.332 256.594 124.603 256.849 123.812C257.006 123.326 257.266 122.685 257.53 122.161C257.794 121.637 258.067 121.253 258.424 120.807C258.781 120.361 259.215 119.865 259.55 119.511C259.885 119.156 260.108 118.958 260.638 118.54C261.169 118.122 261.999 117.489 262.47 117.114C263.043 116.658 263.179 116.451 263.211 116.357C263.221 116.327 263.057 116.424 262.913 116.536C262.769 116.649 262.607 116.798 261.868 117.847C261.128 118.897 259.814 120.843 259.106 121.882C258.344 123.002 258.21 123.098 258.092 123.135C258.036 123.153 257.985 123.148 257.929 123.136C257.808 123.109 257.697 122.577 257.671 121.609C257.659 121.136 257.795 120.703 257.994 120.17C258.194 119.636 258.492 119.017 258.67 118.666C258.883 118.247 258.998 118.141 259.098 118.078C259.142 118.05 259.198 118.09 259.23 118.164C259.261 118.239 259.274 118.363 259.218 118.737C259.163 119.111 259.039 119.73 258.702 121.035C258.366 122.339 257.82 124.31 257.521 125.362C257.199 126.494 257.121 126.603 257.052 126.684C256.88 126.888 256.733 126.916 256.732 126.904C256.724 126.733 257.293 126.543 257.806 126.168C258.024 126.008 258.145 125.892 258.525 125.525C258.905 125.157 259.537 124.538 260.798 123.487C262.059 122.437 263.931 120.974 264.963 120.153C265.996 119.331 266.132 119.195 266.382 119.019C266.972 118.604 267.461 118.379 267.692 118.273C267.826 118.211 267.984 118.105 268.464 117.88C268.944 117.656 269.737 117.308 270.616 116.987C271.496 116.666 272.438 116.381 273.016 116.184C273.594 115.988 273.78 115.889 274.068 115.652C274.356 115.415 274.74 115.043 275.013 114.783C275.431 114.384 275.599 114.21 275.63 114.128C275.667 114.032 275.7 113.909 275.669 113.766C275.635 113.609 275.351 113.521 274.989 113.458C274.791 113.424 274.552 113.47 274.072 113.594C273.591 113.719 272.872 113.942 272.39 114.106C271.678 114.349 271.245 114.596 270.802 114.895C270.56 115.058 270.321 115.294 270.008 115.601C269.694 115.908 269.322 116.292 269.106 116.509C268.889 116.725 268.84 116.762 268.647 116.967C268.454 117.172 268.119 117.544 267.755 117.922C267.39 118.299 267.006 118.671 266.784 118.906C266.494 119.212 266.212 119.602 265.769 120.096C265.454 120.446 265.184 120.68 264.984 120.893C264.615 121.286 264.157 121.708 264.069 121.746C264.047 121.755 264.155 121.61 265.42 120.518C266.686 119.426 269.128 117.356 270.454 116.246C271.78 115.136 271.916 115.05 272.048 114.98C272.298 114.849 272.543 114.748 272.998 114.561C273.889 114.194 274.572 114.047 274.722 114.034C274.797 114.028 274.872 114.046 274.922 114.084C274.973 114.121 274.998 114.183 274.992 114.252C274.98 114.401 274.725 114.67 274.375 115.014C274.219 115.168 274.075 115.247 273.248 115.861C272.422 116.476 270.91 117.616 269.48 118.625C268.051 119.634 266.749 120.477 266.029 120.961C265.195 121.521 265.034 121.757 264.902 121.982C264.661 122.395 264.621 123.255 264.557 123.773C264.491 124.32 264.245 124.623 264.138 124.838C264.102 124.91 264.082 124.988 264.088 125.026C264.09 125.044 264.156 124.989 264.41 124.753C264.665 124.517 265.124 124.083 265.701 123.599C266.278 123.116 266.96 122.595 268.092 122.005C269.224 121.414 270.785 120.77 271.974 120.227C273.163 119.684 273.931 119.263 274.432 118.972C274.934 118.68 275.144 118.531 276.604 117.81C278.063 117.089 280.765 115.8 282.238 115.111C283.71 114.422 283.871 114.373 284.047 114.329C284.407 114.239 284.712 114.172 284.819 114.103C284.937 114.027 284.303 114.009 283.642 114.009C283.241 114.009 282.709 114.058 282.242 114.127C281.775 114.196 281.391 114.295 281.113 114.383C280.834 114.471 280.673 114.546 280.243 114.795C279.813 115.044 279.119 115.465 278.154 115.967C277.189 116.469 275.974 117.04 275.088 117.507C274.202 117.974 273.682 118.321 273.383 118.512C273.084 118.703 273.022 118.728 272.742 118.89C272.462 119.051 271.966 119.349 271.469 119.7C270.972 120.052 270.489 120.448 270.171 120.69C269.514 121.19 269.116 121.22 268.802 121.189C268.736 121.183 268.751 121.059 268.77 120.99C268.804 120.863 268.963 120.72 269.454 120.353C269.834 120.069 270.528 119.651 271.437 119.037C272.346 118.424 273.461 117.643 274.835 116.763C276.209 115.884 277.808 114.93 278.656 114.419C279.558 113.877 279.829 113.71 280.216 113.503C280.379 113.417 280.48 113.384 280.506 113.352C280.533 113.321 280.483 113.296 280.439 113.289C280.395 113.283 280.358 113.295 279.929 113.673C279.501 114.051 278.683 114.795 277.896 115.426C277.109 116.057 276.378 116.553 275.654 116.994C274.93 117.435 274.236 117.807 273.767 118.042C273.298 118.277 273.075 118.364 272.842 118.471C272.61 118.577 272.374 118.701 271.869 119.013C271.363 119.325 270.595 119.82 270.093 120.119C269.398 120.534 268.966 120.656 268.591 120.806C267.977 121.051 267.788 121.32 267.488 121.426C267.236 121.515 267.137 121.583 267.074 121.633C266.903 121.769 267.048 122.12 267.192 122.471C267.427 123.047 268.311 123.36 268.556 123.511C268.633 123.558 268.726 123.561 268.838 123.543C268.903 123.532 268.975 123.487 269.385 123.164C269.795 122.841 270.539 122.234 271.046 121.847C271.553 121.459 271.801 121.311 272.077 121.178C273.064 120.706 273.408 120.569 273.781 120.402C274.083 120.266 274.6 119.998 275.655 119.641C276.71 119.284 278.284 118.838 279.3 118.496C280.315 118.155 280.724 117.932 281.009 117.767C281.689 117.375 281.983 117.19 282.196 117.058C282.415 116.922 282.758 116.665 283.116 116.388C283.387 116.18 283.623 115.938 283.942 115.731C284.462 115.395 285.073 115.188 285.401 115.017C285.679 114.873 285.964 114.698 286.146 114.554C286.312 114.423 286.453 114.323 286.603 114.191C286.653 114.147 286.715 114.085 286.723 114.072C286.746 114.029 286.381 114.27 285.863 114.527C285.598 114.658 285.308 114.745 284.764 115.038C284.221 115.331 283.428 115.814 282.945 116.125C282.3 116.541 282.048 116.762 281.749 116.987C281.557 117.131 281.301 117.36 280.913 117.642C280.525 117.924 280.016 118.259 279.457 118.673C278.898 119.087 278.303 119.57 277.928 119.887C277.407 120.329 277.153 120.581 276.934 120.743C276.79 120.851 276.23 121.092 275.306 121.505C274.507 121.861 273.948 121.971 273.642 122.139C272.937 122.527 272.696 122.709 272.159 122.866C271.861 122.953 271.657 123.01 271.163 123.453C270.705 123.761 270.555 123.799 270.324 123.818C270.168 123.824 269.933 123.824 269.69 123.824" stroke="white" stroke-width="2" stroke-linecap="round"/>
<path d="M253.474 77.762C254.636 77.9893 255.046 77.9896 255.246 77.9443C255.347 77.9212 255.445 77.881 256.302 77.5247C257.159 77.1685 258.771 76.4931 259.818 76.0821C260.864 75.6711 261.297 75.5451 261.537 75.4711C261.778 75.3972 261.814 75.3792 261.851 75.3333" stroke="white" stroke-width="5" stroke-linecap="round"/>
<path d="M254.511 77.1616C254.33 77.1436 254.094 77.1523 253.61 77.2472C253.268 77.3142 252.738 77.4591 252.424 77.5332C252.031 77.6258 251.729 77.6796 251.384 77.7704C251.132 77.8368 250.991 77.8891 250.882 77.9346C250.744 77.9919 250.33 78.2603 249.864 78.4797C249.05 78.8636 248.89 78.9441 248.735 79.0441C248.516 79.1859 248.353 79.2443 248.212 79.3353C248.096 79.4103 247.962 79.4719 247.771 79.5354C247.493 79.6283 247.225 79.772 247.016 79.7903C246.826 79.8069 246.689 79.8992 246.48 80.0309C246.246 80.178 246.116 80.2447 245.965 80.3178C245.723 80.4362 245.408 80.3817 245.206 80.4315C245.176 80.4388 245.151 80.4543 245.151 80.4544C245.053 80.487 245.468 80.409 245.623 80.4361C245.804 80.4678 245.969 80.4815 246.083 80.518C246.213 80.5597 246.341 80.5727 246.46 80.6043C246.6 80.6417 246.678 80.845 246.738 80.9543C246.797 81.0635 246.833 81.1725 246.897 81.2818C246.971 81.4097 247.142 81.4999 247.251 81.5821C247.353 81.6581 247.488 81.7363 247.629 81.8277C247.747 81.9039 247.852 82.0004 247.943 82.1049C248.059 82.2386 248.152 82.3279 248.261 82.4639C248.49 82.7497 248.597 82.9637 248.766 83.2913C248.858 83.4709 248.925 83.6737 249.003 83.8193C249.134 84.0673 249.207 84.2828 249.375 84.4788C249.542 84.6732 249.625 84.8564 249.757 84.9431C249.882 85.0247 249.98 85.1113 250.117 85.1887C250.262 85.271 250.344 85.3749 250.435 85.4615C250.57 85.5902 250.626 85.8661 250.685 85.998C250.767 86.181 251.044 86.3753 251.149 86.5165C251.283 86.6974 251.354 87.0122 251.422 87.126C251.499 87.2543 251.527 87.3943 251.59 87.6077C251.65 87.8082 251.754 87.9127 251.89 87.9994C252.04 88.0947 252.136 88.2582 252.2 88.3768C252.28 88.5256 252.409 88.6768 252.464 88.7861C252.55 88.9579 252.527 89.2499 252.591 89.3772C252.681 89.5571 252.628 89.7946 252.664 90.0041C252.708 90.2618 253.027 89.6969 253.114 89.5558C253.267 89.3069 253.4 89.1964 253.636 88.9557C253.788 88.801 253.964 88.6686 254.128 88.537C254.311 88.3895 254.455 88.1873 254.994 87.5439C255.236 87.2557 255.622 86.8572 255.839 86.6169C256.188 86.2314 256.374 85.9684 256.7 85.6687C256.849 85.5321 256.991 85.459 257.412 85.102C257.833 84.7451 258.535 84.1147 258.924 83.781C259.313 83.4473 259.367 83.4292 259.417 83.3884C259.468 83.3476 259.513 83.2846 260.436 82.2886C261.36 81.2926 263.161 79.3654 264.098 78.3592C265.035 77.3529 265.053 77.3259 265.08 77.294C265.107 77.262 265.143 77.226 265.099 77.2255C265.054 77.2249 264.928 77.261 263.715 78.126C262.502 78.991 260.206 80.684 258.874 81.6957C257.543 82.7075 257.245 82.9866 257.029 83.1755C256.813 83.3643 256.687 83.4543 256.514 83.5998C256.341 83.7452 256.125 83.9434 255.64 84.2976C255.155 84.6518 254.407 85.1561 253.977 85.4339C253.33 85.8517 253.047 85.8574 252.869 85.8893C252.829 85.8966 252.783 85.8939 252.778 85.8669C252.773 85.8399 252.809 85.7859 254.219 84.5829C255.629 83.3798 258.411 81.0295 260.313 79.4945C262.215 77.9595 263.151 77.3112 263.656 76.9546C264.161 76.5981 264.206 76.5531 264.243 76.5209C264.28 76.4887 264.307 76.4707 263.744 76.7135C263.182 76.9564 262.029 77.4607 260.305 78.3779C258.581 79.295 256.321 80.6098 255.039 81.3817C253.758 82.1535 253.524 82.3426 253.385 82.458C253.208 82.606 252.921 82.8177 252.521 83.086C252.341 83.2068 252.237 83.2197 252.133 83.2062C252.089 83.2006 252.073 83.1656 252.064 83.0887C252.055 83.0117 252.055 82.8857 252.122 82.6226C252.294 81.9545 252.482 81.519 252.55 81.4104C252.815 80.9854 253.118 80.7642 253.277 80.6233C253.321 80.5847 253.355 80.5372 253.517 80.3474C253.68 80.1576 253.968 79.8244 254.517 79.2791C255.066 78.7337 255.868 77.9863 256.393 77.5157C256.919 77.0451 257.144 76.874 257.278 76.7679C257.412 76.6617 257.448 76.6257 257.453 76.6116C257.461 76.5904 257.241 76.5888 256.77 76.5389C256.463 76.5063 256.011 76.498 255.73 76.4752C255.347 76.4442 255.184 76.3615 255.084 76.2799C254.999 76.2106 255.029 76.0616 255.047 75.9346C255.066 75.7979 255.291 75.5985 255.609 75.3397C255.764 75.213 255.944 75.1439 256.541 74.8005C257.138 74.4571 258.156 73.8537 259.414 73.1647C260.672 72.4756 262.14 71.7192 263.189 71.2485C264.238 70.7778 264.823 70.6157 265.296 70.5051C265.768 70.3946 266.11 70.3406 266.854 69.813C267.598 69.2854 268.732 68.2858 269.573 67.5997C270.415 66.9137 270.928 66.5715 271.359 66.3187C271.79 66.0659 272.123 65.9128 272.511 65.6853C272.899 65.4579 273.331 65.1607 273.68 64.9446C274.267 64.5803 274.666 64.4365 274.902 64.3819C275.011 64.3568 275.102 64.3633 275.14 64.3768C275.177 64.3903 275.159 64.4174 274.668 64.895C274.177 65.3727 273.214 66.3003 272.051 67.3049C270.888 68.3095 269.555 69.3631 268.792 69.9869C268.029 70.6108 267.876 70.7728 267.707 70.9824C267.538 71.192 267.358 71.4441 267.157 71.7812C266.956 72.1182 266.74 72.5324 266.606 72.7773C266.436 73.0898 266.345 73.2133 266.263 73.3673C266.155 73.5712 265.991 73.8761 265.796 74.167C265.562 74.5142 265.263 74.8776 265.217 75.0054C265.207 75.0312 265.226 75.0599 265.244 75.0783C265.262 75.0967 265.289 75.1057 265.321 75.1058C265.5 75.1066 265.725 74.8432 266.273 74.2675C266.504 74.0257 266.865 73.7205 267.15 73.4951C267.434 73.2697 267.641 73.1437 267.851 73.0292C268.062 72.9147 268.269 72.8157 268.56 72.6566C268.851 72.4975 269.221 72.2814 269.636 72.0755C270.051 71.8696 270.502 71.6805 270.774 71.556C271.047 71.4316 271.128 71.3776 271.3 71.2327C271.741 70.8621 272.047 70.5854 272.147 70.5219C272.424 70.3457 272.575 70.0672 272.662 69.9307C272.762 69.773 272.965 69.5045 273.148 69.3302C273.221 69.2758 273.294 69.2119 273.353 69.1394C273.376 69.1028 273.385 69.0668 273.394 69.0297" stroke="white" stroke-width="5" stroke-linecap="round"/>
<path d="M275.667 63.7353C275.675 63.7044 275.769 63.5951 275.944 63.4507C276.204 63.2363 276.557 62.9163 276.718 62.7357C276.823 62.6179 277.056 62.3697 277.506 61.998C277.712 61.8275 277.979 61.6575 278.159 61.5363C278.436 61.3496 278.527 61.2665 278.784 61.0211C278.959 60.8543 279.105 60.7044 279.362 60.4623C279.488 60.3438 279.667 60.2122 279.831 60.0752C279.932 59.991 280.213 59.7989 280.556 59.5257C280.913 59.2418 281.183 59.0242 281.382 58.8916C281.637 58.7217 281.847 58.5943 281.933 58.5165C282.043 58.4166 282.237 58.2356 282.506 58.0329C282.844 57.7785 283.165 57.5877 283.437 57.399C283.638 57.2595 283.947 57.0102 284.152 56.8362C284.279 56.729 284.418 56.5864 284.559 56.4847C284.735 56.3575 284.933 56.2118 285.366 55.9113C285.727 55.661 285.902 55.4692 286.253 55.1883C286.386 55.0824 286.473 55.039 286.636 54.9459C287.293 54.57 287.449 54.5859 287.551 54.5389C287.598 54.5001 287.645 54.4607 287.696 54.4218C287.723 54.3984 287.754 54.3675 287.81 54.3356" stroke="white" stroke-width="5" stroke-linecap="round"/>
<path d="M180.267 181.47C180.275 181.423 180.306 181.33 180.369 181.216C180.445 181.077 180.867 180.993 181.089 180.93C181.197 180.899 181.332 180.805 181.442 180.761C181.542 180.722 181.63 180.679 181.724 180.648C181.748 180.64 181.771 180.632 181.744 180.628C181.717 180.624 181.64 180.624 181.224 180.686C180.808 180.748 180.055 180.872 179.605 180.94C179.156 181.008 179.032 181.016 178.855 181.031C178.679 181.047 178.454 181.07 178.233 181.082C177.804 181.106 177.541 181.086 177.435 181.075C177.308 181.06 177.188 181.086 176.963 181.145C176.784 181.191 176.473 181.257 176.1 181.301C175.727 181.345 175.3 181.36 175.046 181.364C174.721 181.37 174.541 181.353 174.341 181.345C174.036 181.333 173.618 181.259 173.365 181.231C173.183 181.211 172.887 181.134 172.757 181.114C172.544 181.081 172.183 181.063 171.763 181.043C171.608 181.036 171.407 180.993 171.245 180.957C171.141 180.934 171.03 181.062 170.643 181.433C170.507 181.565 170.32 181.687 169.949 181.941C169.578 182.195 169.019 182.568 168.611 182.872C168.203 183.176 167.963 183.401 167.777 183.563C167.474 183.828 167.277 183.946 167.218 183.985C167.21 183.99 167.29 183.978 167.544 183.888C167.797 183.799 168.231 183.636 169.3 183.428C170.37 183.22 172.061 182.972 172.978 182.844C173.896 182.716 173.989 182.716 174.014 182.743C174.071 182.806 173.843 182.95 173.586 183.114C173.229 183.341 172.926 183.499 172.72 183.62C172.23 183.907 172.08 183.922 171.757 184.152C171.5 184.334 171.1 184.715 170.865 184.914C170.525 185.202 170.333 185.208 170.129 185.227C169.937 185.246 169.69 185.38 169.44 185.571C169.098 185.833 168.844 185.991 168.645 186.123C168.467 186.242 168.145 186.488 167.957 186.635C167.731 186.829 167.653 186.9 167.582 186.947C167.551 186.97 167.527 186.994 167.456 187.041" stroke="white" stroke-width="5" stroke-linecap="round"/>
<path d="M167.973 184.797C167.817 184.758 167.078 185.262 166.477 185.726C166.172 185.961 165.667 186.438 165.042 186.927C164.197 187.587 163.512 188.358 163.228 188.652C162.934 188.956 162.514 189.317 162.25 189.532C162.159 189.607 162.045 189.727 161.966 189.816C161.887 189.905 161.848 189.963 161.925 189.993C162.179 190.091 162.686 189.964 163.62 189.692C164.272 189.503 165.252 189.11 165.868 188.891C167.003 188.488 167.403 188.399 167.708 188.408C167.765 188.409 167.777 188.495 167.758 188.564C167.713 188.723 167.31 188.983 166.444 189.471C165.895 189.779 165.092 190.152 164.586 190.38C163.897 190.692 163.609 190.766 163.25 190.912C161.911 191.455 161.458 191.509 161.067 191.705C160.283 192.096 159.931 192.37 159.667 192.517C159.27 192.738 159.05 192.918 158.766 193.114C158.521 193.283 158.189 193.446 157.973 193.506C157.746 193.568 158.847 192.417 159.844 191.254C160.351 190.663 160.535 190.415 160.556 190.423C160.651 190.463 160.305 190.761 159.741 191.298C159.176 191.834 158.246 192.648 157.728 193.116C156.954 193.815 156.761 194.053 156.428 194.142C156.135 194.219 155.841 194.386 155.537 194.611C155.247 194.825 154.864 195.264 154.578 195.589C154.367 195.829 154.021 196.068 153.766 196.235C153.541 196.383 153.238 196.441 153.003 196.568C152.668 196.749 152.514 197.125 152.308 197.36C152.121 197.575 151.888 197.771 151.662 198.055C151.454 198.317 151.183 198.593 150.948 198.77C150.713 198.946 150.479 199.141 150.234 199.298C149.952 199.478 149.715 199.747 149.519 200.012C149.268 200.351 148.952 200.589 148.756 200.834C148.526 201.121 148.248 201.196 148.013 201.353C147.896 201.431 147.758 201.509 147.612 201.597C147.543 201.646 147.485 201.704 147.366 201.764" stroke="white" stroke-width="5" stroke-linecap="round"/>
</svg>
