<svg width="427" height="287" viewBox="0 0 427 287" fill="none" xmlns="http://www.w3.org/2000/svg">
<path d="M323.026 66.168H112.107C97.173 66.168 85.0664 80.1591 85.0664 97.418V159.918C85.0664 177.177 97.173 191.168 112.107 191.168H323.026C337.96 191.168 350.066 177.177 350.066 159.918V97.418C350.066 80.1591 337.96 66.168 323.026 66.168Z" stroke="white" stroke-width="10" stroke-linecap="round" stroke-linejoin="round"/>
<rect x="100" y="79" width="164.5" height="100" rx="20" fill="#00FF1E"/>
<path d="M182.144 177.244C182.006 177.244 181.868 177.244 181.343 177.29C180.819 177.336 179.913 177.428 177.073 177.56C174.233 177.692 169.487 177.861 166.62 177.895C163.753 177.928 162.908 177.82 162.358 177.773C161.577 177.74 161.017 177.802 160.482 177.864C160.27 177.88 160.178 177.865 159.99 177.803" stroke="white" stroke-linecap="round"/>
<path d="M351 99C358.732 99 365 105.268 365 113V147C365 154.732 358.732 161 351 161V99Z" fill="white"/>
<path d="M225.954 111.49L223.498 114.034L227.034 114.031L281.127 113.995L124.9 212.363L201.422 136.958L204.031 134.387L200.368 134.389L146.049 134.43L288.653 46.5234L225.954 111.49Z" fill="black" stroke="white" stroke-width="3"/>
<path d="M159 178H180.5" stroke="white" stroke-width="2"/>
<line x1="161" y1="176" x2="184" y2="176" stroke="white" stroke-width="2"/>
<path d="M233.5 79.5C246.379 79.2651 251.055 79.8939 254.5 82.5" stroke="white"/>
<path d="M264.5 124.5V114H265.5V122.5H266.5V115L268 114.5L267.878 116.202M268.5 116L276 115.5L267 115L267.5 121.5L267.698 118.73M268.5 116L275 116.5L267.878 116.202M268.5 116L268 115.5L269 119.5L268.5 120.5L267.698 118.73M267.878 116.202L267.698 118.73M267.698 118.73L269.5 119L269 117H273.5M273.5 117L270 117.438M273.5 117L271.345 118.293M270 117.438L269.5 117.5L269.75 118.25M270 117.438L270.5 117.5L271.345 118.293M271.345 118.293L271 118.5L270 119L269.75 118.25M269.75 118.25L271.345 117.721" stroke="white"/>
<path d="M242.026 77.5087C242.119 77.4984 242.347 77.457 242.503 77.4153C242.765 77.3455 243.085 77.3634 243.622 77.3578C244.065 77.3532 244.919 77.4451 245.374 77.4718C245.933 77.5045 246.1 77.3946 246.281 77.3581C246.521 77.31 246.713 77.4046 246.988 77.4772C247.284 77.5552 247.492 77.5917 247.643 77.6282C247.822 77.6712 248.054 77.7164 248.298 77.7632C248.584 77.8181 248.874 77.8412 249.155 77.8879C249.404 77.9293 249.747 78.0283 249.961 78.0699C250.07 78.0909 250.267 78.0909 250.681 78.1268C251.396 78.1888 251.931 78.4231 252.128 78.4906C252.383 78.5778 252.638 78.6208 252.784 78.6675C252.924 78.7124 253.054 78.849 253.189 78.9688C253.22 78.9958 253.251 79.0156 252.814 78.7535C252.378 78.4914 251.472 77.9459 250.98 77.6444C250.432 77.3087 250.198 77.1461 249.891 76.9643C249.724 76.8651 249.285 76.5863 248.677 76.15C248.377 75.9346 248.232 75.7325 248.03 75.4476C247.784 75.1 247.608 74.8275 247.504 74.7494C247.468 74.7223 247.442 74.7639 247.441 74.8107C247.441 74.8575 247.462 74.9192 247.483 74.9665C247.503 75.0137 247.524 75.0446 247.576 75.0502C247.628 75.0558 247.71 75.0352 248.596 74.5512C249.482 74.0673 251.17 73.1205 252.153 72.5505C253.135 71.9804 253.362 71.8158 253.838 71.4943C254.315 71.1727 255.036 70.6994 256.302 69.9821C257.568 69.2649 259.359 68.3181 260.369 67.7996C261.379 67.281 261.554 67.2192 261.67 67.1874C261.785 67.1556 261.837 67.1556 261.858 67.1762C261.903 67.2197 261.787 67.3832 261.647 67.57C261.53 67.7261 261.32 67.8822 260.566 68.6401C259.931 69.2796 258.846 70.4992 258.026 71.4693C257.207 72.4394 256.703 73.1392 256.314 73.6438C255.926 74.1483 255.669 74.4365 255.51 74.6209C255.06 75.1463 254.76 75.7512 254.65 75.9074C254.564 76.031 254.417 76.136 254.323 76.2712C254.22 76.4186 254.209 76.5932 254.12 76.7597C254.073 76.8485 254.001 76.9056 253.918 76.942C253.802 76.9929 253.534 76.9786 253.28 76.9992C253.207 77.005 253.261 77.0609 253.303 77.0873C253.461 77.1861 253.688 77.1863 254.072 77.2538C254.272 77.2892 254.56 77.3216 254.774 77.27C255.128 77.1847 255.351 76.8445 255.683 76.5692C256.082 76.2383 256.317 75.8466 256.463 75.6746C256.523 75.6047 256.66 75.4313 256.935 75.0843C257.316 74.6019 257.617 74.318 257.803 74.127C257.953 73.9725 258.236 73.7199 258.477 73.5204C258.9 73.1703 259.228 72.998 259.415 72.9097C259.636 72.8053 260.048 72.5935 260.628 72.1488C260.984 71.8758 261.372 71.3954 261.615 71.1416C262.027 70.7115 262.336 70.5659 262.466 70.4253C262.627 70.2526 262.804 70.0981 262.934 69.9524C263.022 69.8593 263.116 69.7445 263.225 69.6047C263.292 69.5265 263.385 69.4339 263.543 69.3073" stroke="white" stroke-width="5" stroke-linecap="round"/>
<path d="M262.919 66.7503C262.94 66.7503 263.269 66.5856 263.804 66.3001C264.133 66.1247 264.486 65.9095 264.896 65.707C265.22 65.5471 265.423 65.2958 265.792 65.0258C266.057 64.8317 266.317 64.7033 266.551 64.5522C266.624 64.5055 266.939 64.2271 267.37 63.7907C267.618 63.5398 267.968 63.2289 268.189 63.0294C268.352 62.8811 268.521 62.7175 268.791 62.5773C269.083 62.4257 269.342 62.125 269.586 61.8922C270.214 61.2917 270.361 61.1065 270.512 60.9817C270.691 60.833 270.88 60.7429 271.063 60.5972C271.272 60.4294 271.38 60.2646 271.52 60.1087C271.671 59.9407 271.806 59.7656 272.225 59.496C272.76 59.1524 272.959 58.8825 273.219 58.6277C273.396 58.4548 273.573 58.3 273.765 58.1751C273.962 58.0471 274.186 57.874 274.342 57.6403C274.518 57.3772 274.736 57.2191 275.094 56.8926C275.732 56.3109 275.942 56.1695 276.202 55.9615C276.678 55.5811 276.961 55.4622 277.128 55.3114C277.232 55.1915 277.326 55.1189 277.388 55.0567C277.419 55.0253 277.45 54.9945 277.482 54.9626" stroke="white" stroke-width="5" stroke-linecap="round"/>
<path d="M240.671 79.2406C240.458 79.2155 240.298 79.1901 240.207 79.1618C240.033 79.1081 239.857 78.7559 239.71 78.5394C239.69 78.5094 239.666 78.5075 239.647 78.5105C239.628 78.5135 239.609 78.526 239.618 78.5669C239.683 78.858 239.799 79.082 239.808 79.1551C239.813 79.1923 239.761 79.0576 239.72 79.0008C239.625 78.8694 239.357 78.8488 239.236 78.8235C239.162 78.8078 239.078 78.7982 239.046 78.7981C238.867 78.7975 239.418 78.8928 239.555 78.8742C239.602 78.8492 239.671 78.7991 239.747 78.7514C239.823 78.7037 239.904 78.6599 239.988 78.6148" stroke="white" stroke-linecap="round"/>
<path d="M173.164 179.592C173.184 179.592 173.205 179.592 173.246 179.602C173.893 179.763 171.318 180.925 170.806 181.191C170.643 181.276 170.459 181.355 170.466 181.367C170.741 181.79 171.355 181.05 172.104 180.671C172.733 180.353 173.409 179.982 173.707 179.839C173.972 179.711 174.21 179.491 174.446 179.223C174.499 179.163 174.538 179.1 174.458 179.089C174.377 179.078 174.174 179.119 173.399 179.729C172.623 180.339 171.282 181.518 170.388 182.338C169.494 183.159 169.088 183.585 168.909 183.714C168.73 183.842 168.791 183.659 169.219 183.016C169.646 182.374 170.439 181.276 170.989 180.579C171.778 179.58 172.361 179.203 172.781 178.967C172.956 178.87 173.059 178.833 172.898 179.056C172.737 179.279 172.311 179.767 170.912 181.024C169.514 182.281 167.157 184.292 166.431 184.831C165.704 185.369 166.679 184.373 167.923 183.21C169.167 182.047 170.651 180.747 171.455 180.026C172.26 179.306 172.341 179.204 172.353 179.162C172.364 179.12 172.303 179.14 170.9 180.309C169.497 181.477 166.754 183.793 165.372 184.956C163.989 186.119 164.05 186.058 164.183 185.945C164.316 185.833 164.519 185.67 165.457 184.784C166.395 183.898 168.061 182.292 168.95 181.425C169.839 180.557 169.9 180.476 169.961 180.383C170.023 180.291 170.084 180.189 170.004 180.177C169.924 180.166 169.7 180.247 167.939 181.701C166.178 183.155 162.887 185.979 160.967 187.678C159.048 189.377 158.601 189.864 158.411 190.085C158.222 190.306 158.303 190.245 160.082 188.639C161.861 187.033 165.336 183.883 167.268 182.159C169.2 180.435 169.485 180.232 169.408 180.29C169.331 180.348 168.884 180.673 167.19 182.253C165.497 183.832 162.571 186.657 160.962 188.244C159.354 189.831 159.15 190.095 159.076 190.21C159.002 190.326 159.063 190.286 159.978 189.371C160.893 188.456 162.661 186.668 164.141 185.33C165.62 183.992 166.758 183.159 167.314 182.74C167.87 182.321 167.809 182.342 166.944 182.982C166.08 183.622 164.413 184.882 163.423 185.653C162.433 186.424 162.169 186.668 162.185 186.631C162.201 186.594 162.506 186.269 163.801 185.258C165.096 184.247 167.371 182.561 169.235 181.306C171.098 180.051 172.479 179.279 173.242 178.861C174.005 178.443 174.106 178.402 172.381 179.489C170.655 180.575 167.099 182.79 165.146 184.022C163.192 185.255 162.948 185.437 162.883 185.461C162.819 185.484 162.941 185.341 164.355 184.191C165.769 183.041 168.471 180.887 169.904 179.727C171.337 178.567 171.418 178.465 171.399 178.433C171.38 178.401 171.258 178.442 169.976 179.346C168.694 180.251 166.256 182.019 164.837 183.021C163.418 184.023 163.093 184.206 163.17 184.077C163.246 183.947 163.734 183.5 164.93 182.681C166.126 181.861 168.015 180.683 167.638 180.949C167.26 181.216 164.558 182.963 162.8 184.209C161.042 185.455 160.31 186.146 160.035 186.481C159.76 186.817 159.963 186.776 161.795 185.617C163.627 184.458 167.081 182.183 168.769 181.112C170.457 180.041 170.274 180.244 169.794 180.664C168.563 181.739 167.685 182.383 167.653 182.403C167.629 182.42 167.805 182.383 168.528 181.987C169.251 181.59 170.572 180.818 171.476 180.238C172.38 179.657 172.827 179.291 171.157 180.22C169.488 181.15 165.688 183.385 163.66 184.567C161.631 185.748 161.489 185.809 161.416 185.8C161.342 185.791 161.342 185.71 161.627 185.353C161.911 184.996 162.48 184.366 163.901 183.168C165.322 181.97 167.577 180.222 168.881 179.241C170.185 178.259 170.47 178.097 170.576 178.033C170.682 177.97 170.6 178.011 168.841 179.281C167.083 180.552 163.649 183.051 163.079 183.302C162.508 183.553 164.906 181.481 166.08 180.423C167.254 179.366 167.132 179.386 166.552 179.651C165.971 179.915 164.934 180.423 163.618 181.243C162.302 182.064 160.738 183.181 159.891 183.798C158.953 184.481 158.798 184.64 158.705 184.712C158.693 184.722 158.755 184.683 159.813 183.768C160.87 182.853 162.922 181.065 163.766 180.245C164.61 179.426 164.183 179.629 163.161 180.323C162.138 181.017 160.533 182.195 159.737 182.782C158.94 183.369 159.001 183.328 159.927 182.464C160.852 181.6 162.64 179.913 163.582 179.014C164.523 178.115 164.564 178.054 164.107 178.337C163.651 178.621 162.696 179.251 161.675 180.022C160.655 180.794 159.599 181.688 159.024 182.169C158.449 182.649 158.388 182.69 158.458 182.63C158.528 182.569 158.732 182.407 159.476 181.592C160.221 180.776 161.501 179.314 162.201 178.499C162.901 177.684 162.983 177.562 162.598 177.865C161.33 178.863 160.257 179.897 160.497 179.688C160.986 179.261 162.119 178.076 162.696 177.51C163.272 176.944 163.231 177.005 162.52 177.778C161.808 178.551 160.426 180.034 159.694 180.839C158.962 181.643 158.921 181.725 159.012 181.665C159.103 181.605 159.326 181.402 159.939 180.718C160.552 180.035 161.548 178.876 162.152 178.198C162.919 177.339 163.27 177.109 163.526 176.996C163.634 176.949 163.721 176.985 163.763 177.087C163.805 177.189 163.805 177.372 162.901 178.522C161.997 179.673 160.188 181.786 159.43 182.773C158.671 183.76 159.016 183.557 160.047 182.772C161.079 181.986 162.786 180.625 164.478 179.406C166.17 178.186 167.795 177.15 168.754 176.586C169.714 176.021 169.957 175.96 170.012 176.051C170.066 176.141 169.924 176.385 168.175 177.76C166.425 179.136 163.072 181.635 162.869 181.642C162.666 181.65 165.714 179.089 167.335 177.74C168.956 176.391 169.057 176.33 169.018 176.4C168.979 176.47 168.796 176.673 167.371 177.814C165.946 178.955 163.284 181.028 161.862 182.126C160.44 183.224 160.339 183.285 160.327 183.265C160.315 183.246 160.397 183.145 161.231 182.452C162.065 181.76 163.65 180.48 164.873 179.587C166.096 178.693 166.908 178.226 167.571 177.874C168.233 177.521 168.721 177.298 168.952 177.233C169.183 177.169 169.142 177.271 168.004 178.298C166.865 179.326 164.63 181.276 163.509 182.271C162.388 183.266 162.449 183.245 163.293 182.656C164.138 182.066 165.763 180.908 166.58 180.352C167.397 179.796 167.357 179.878 167.224 180.031C167.091 180.185 166.868 180.408 166.377 180.838C165.886 181.268 165.134 181.898 164.777 182.182C164.42 182.466 164.481 182.385 165.285 181.703C166.088 181.021 167.632 179.741 168.56 179C169.488 178.259 169.752 178.097 169.878 178.044C170.004 177.99 169.983 178.051 168.723 179.251C167.463 180.451 164.964 182.787 163.727 183.92C162.491 185.053 162.592 184.91 163.559 184.055C164.526 183.199 166.354 181.635 167.672 180.575C168.99 179.515 169.742 179.007 170.19 178.715C170.638 178.423 170.76 178.362 170.803 178.371C170.891 178.39 170.519 178.809 169.459 179.738C168.667 180.431 167.261 181.459 167.372 181.485C167.483 181.511 169.129 180.475 170.17 179.849C172.068 178.709 172.588 178.751 172.834 178.74C172.923 178.736 172.918 178.871 172.816 179.046C172.556 179.493 172.16 179.837 171.538 180.276C170.285 181.159 169.307 181.664 169.203 181.706C169.103 181.746 170.343 181.156 171.84 180.418C172.401 180.141 172.566 180.086 172.69 180.044C172.814 180.002 172.896 179.982 172.795 180.094C172.445 180.483 171.589 180.924 170.748 181.272C170.437 181.401 170.354 181.418 170.82 181.012C171.286 180.606 172.302 179.773 172.795 179.323C173.288 178.874 173.227 178.833 173.094 178.812C172.961 178.791 172.758 178.791 172.684 178.781C172.609 178.771 172.67 178.751 173.311 178.588C173.952 178.425 175.171 178.12 175.85 177.963C176.529 177.806 176.631 177.806 176.632 177.827C176.641 177.943 175.574 178.478 174.21 179.38C173.692 179.723 173.557 179.876 173.595 179.878C174.23 179.531 174.742 179.265 175.142 179.019C175.318 178.915 175.44 178.854 175.689 178.73" stroke="white" stroke-linecap="round"/>
<path d="M159.187 184.025C159.146 184.045 159.106 184.066 158.343 184.757C157.581 185.448 156.097 186.809 155.303 187.551C154.244 188.54 153.934 188.888 153.8 189.043C153.7 189.157 154.585 188.687 155.862 187.707C156.664 187.092 157.648 186.077 158.547 185.147C159.446 184.218 160.198 183.365 160.636 182.885C161.348 182.105 161.67 181.81 162.008 181.43C162.105 181.321 162.182 181.195 162.275 181.082C162.367 180.968 162.469 180.866 162.227 181.007C161.984 181.148 161.395 181.534 160.462 182.241C159.528 182.947 158.268 183.963 157.569 184.538C156.532 185.388 156.232 185.585 156.109 185.585C156.044 185.585 155.987 185.504 155.986 185.381C155.983 185.07 156.169 184.806 156.404 184.561C156.828 184.118 157.419 183.739 158.216 183.31C159.508 182.614 160.54 182.179 160.858 181.974C161.067 181.839 161.239 181.747 161.342 181.706C161.368 181.695 161.322 181.827 160.306 183.088C159.289 184.349 157.298 186.767 156.171 188.165C154.814 189.848 154.59 190.284 154.518 190.468C154.486 190.551 154.467 190.612 155.574 189.902C156.681 189.191 158.916 187.708 160.108 186.924C161.376 186.09 161.526 186.037 161.497 186.046C161.406 186.077 161.162 186.158 160.285 186.647C159.408 187.136 157.904 188.03 156.886 188.673C155.867 189.316 155.38 189.682 154.874 190.114C153.834 191.004 153.236 191.659 152.95 191.945C152.502 192.313 152.128 192.624 151.933 192.808C151.84 192.891 151.759 192.952 151.614 193.014" stroke="white" stroke-width="5" stroke-linecap="round"/>
<path d="M134.559 204.405C134.722 204.262 135.659 203.65 136.424 203.226C136.894 202.966 137.368 202.56 137.788 202.191C137.991 202.013 138.147 201.823 138.901 201.089C139.656 200.354 140.997 199.074 141.86 198.222C142.724 197.369 143.069 196.983 143.349 196.642C143.628 196.301 143.831 196.017 144.556 195.271C145.28 194.525 146.52 193.326 147.371 192.566C148.603 191.467 149.211 191.168 149.508 190.994C149.687 190.889 149.906 190.719 150.367 190.442C150.827 190.166 151.518 189.779 152.361 189.245C153.205 188.711 154.18 188.041 154.805 187.594C156.009 186.732 156.169 186.428 156.375 186.303C156.711 186.1 155.639 187.123 154.924 187.612C154.428 187.953 153.682 188.509 153.233 188.852C152.649 189.3 152.233 189.687 151.72 190.087C151.422 190.32 151.083 190.57 150.216 191.477C149.557 192.167 148.516 193.38 147.738 194.343C146.96 195.306 146.492 195.997 146.211 196.414C145.848 196.952 145.724 197.159 145.774 197.171C146.194 197.266 146.786 196.058 147.545 195.114C147.837 194.76 147.938 194.658 148.001 194.576C148.063 194.493 148.083 194.432 148.166 194.369" stroke="white" stroke-width="5" stroke-linecap="round"/>
</svg>
