<svg width="427" height="287" viewBox="0 0 427 287" fill="none" xmlns="http://www.w3.org/2000/svg">
<path d="M323.026 61.168H112.107C97.173 61.168 85.0664 75.1591 85.0664 92.418V154.918C85.0664 172.177 97.173 186.168 112.107 186.168H323.026C337.96 186.168 350.066 172.177 350.066 154.918V92.418C350.066 75.1591 337.96 61.168 323.026 61.168Z" stroke="white" stroke-width="10" stroke-linecap="round" stroke-linejoin="round"/>
<rect x="100" y="74" width="176.25" height="100" rx="20" fill="#00FF1E"/>
<path d="M245.429 74.7161H262.706" stroke="white" stroke-linecap="round"/>
<path d="M351 94C358.732 94 365 100.268 365 108V142C365 149.732 358.732 156 351 156V94Z" fill="white"/>
<path d="M233.954 106.49L231.498 109.034L235.034 109.031L289.127 108.995L132.9 207.363L209.422 131.958L212.031 129.387L208.368 129.389L154.049 129.43L296.653 41.5234L233.954 106.49Z" fill="black" stroke="white" stroke-width="3"/>
<path d="M264.5 76.5C258.454 73.4599 252.348 73.5914 240.5 74.5" stroke="white"/>
<line x1="187" y1="173.5" x2="169" y2="173.5" stroke="white"/>
<path d="M283.052 109.94C283.727 109.999 284.036 110.094 284.155 110.159C284.203 110.185 283.908 110.26 283.16 110.443C282.586 110.583 281.625 110.848 280.958 111.046C279.943 111.347 279.53 111.541 279.406 111.6C279.319 111.642 279.245 111.672 279.174 111.696C279.008 111.751 278.783 111.471 278.605 111.399C278.461 111.342 278.273 111.269 278.077 111.251C277.915 111.236 277.751 111.174 277.608 111.05C277.471 110.93 277.347 110.795 277.258 110.652C277.237 110.618 277.228 110.581 277.234 110.598C277.305 110.812 277.311 111.101 277.317 111.735C277.319 111.972 277.252 112.439 277.281 112.962C277.35 114.173 277.24 114.305 277.222 114.435C277.213 114.506 277.216 114.588 277.345 114.449C277.777 113.982 278.164 113.394 278.442 113.103C278.693 112.841 279.205 112.552 279.93 112.266C280.134 112.185 280.757 111.97 281.611 111.692C282.044 111.55 282.339 111.282 282.542 110.991C282.597 110.912 282.625 110.83 282.696 110.771C282.729 110.743 282.767 110.735 282.703 110.77C282.478 110.893 282.07 111.019 281.65 111.096C281.337 111.153 281.026 111.138 280.571 111.068C279.467 110.896 279.258 110.676 279.038 110.581C278.881 110.514 278.794 110.439 278.759 110.45C278.419 110.557 278.699 110.948 278.664 111.031C278.647 111.07 278.605 111.09 278.563 111.102C278.398 111.15 278.202 111.079 277.929 111.002C277.65 110.924 277.502 110.759 277.359 110.676C277.207 110.587 277.193 110.403 277.139 110.255C277.106 110.163 277.062 110.083 277.033 110.012C277.017 109.975 276.991 109.941 276.979 109.975C276.87 110.289 276.932 110.615 276.89 110.87C276.82 111.305 276.766 111.541 276.748 111.748C276.724 112.027 276.741 112.359 276.789 112.573C276.837 112.787 276.884 112.929 276.931 113.071C276.99 113.246 277.026 113.509 277.103 113.8C277.158 114.008 277.181 114.292 277.21 114.642C277.25 115.11 277.181 115.301 277.151 115.597C277.136 115.749 277.145 116.008 277.127 116.124C277.11 116.239 277.075 116.204 277.051 116.162C276.954 115.995 276.967 115.366 277.003 114.864C277.024 114.566 277.062 114.259 277.08 114.028C277.104 113.71 277.204 113.334 277.246 113.037C277.288 112.734 277.264 112.491 277.281 112.238C277.351 111.248 277.323 110.845 277.288 110.481C277.266 110.257 277.216 110.072 277.187 109.775C277.166 109.564 277.169 109.407 277.133 109.341C277.043 109.175 276.849 109.028 276.689 108.838C276.61 108.744 276.54 108.659 276.469 108.612C276.438 108.591 276.398 108.611 276.386 108.635C276.325 108.753 276.433 109.26 276.475 109.631C276.516 109.761 276.564 109.869 276.599 111.02C276.611 112.136 276.611 114.332 276.611 116.595" stroke="white" stroke-width="2" stroke-linecap="round"/>
<path d="M156.91 181.564H176.99" stroke="white" stroke-linecap="round"/>
<path d="M170.244 182.453C170.088 182.453 169.672 182.522 169.122 182.566C168.506 182.615 167.631 182.488 167.36 182.444C167.229 182.423 167.09 182.383 166.64 182.357C165.571 182.295 164.789 182.331 164.624 182.305C164.202 182.238 163.745 182.348 163.36 182.391C162.909 182.442 162.076 182.348 161.434 182.305C161.146 182.285 160.729 182.243 160.406 182.183C159.838 182.076 159.491 181.965 159.09 181.826C158.943 181.774 158.845 181.703 158.853 181.703C158.915 181.701 159.085 181.772 159.597 181.868C160.108 181.963 160.954 182.101 161.441 182.19C161.929 182.278 162.032 182.312 162.698 182.451C163.364 182.59 164.589 182.831 165.263 182.956C166.365 183.159 167.001 183.185 167.349 183.228C167.886 183.295 168.342 183.289 168.76 183.333C169.276 183.386 169.668 183.324 169.755 183.272C169.798 183.247 169.808 183.186 169.791 183.125C169.706 182.819 169.356 182.732 169.016 182.575C168.743 182.449 168.242 182.453 167.876 182.453C167.652 182.453 168.395 182.383 168.552 182.357C168.622 182.345 168.674 182.348 168.649 182.4C168.561 182.581 168.207 182.8 167.125 183.475C166.254 184.018 164.715 184.944 163.82 185.501C162.706 186.196 162.419 186.426 162.271 186.531C162.204 186.577 162.174 186.635 162.7 186.239C163.226 185.843 164.313 184.997 164.908 184.527C165.502 184.057 165.571 183.988 165.728 183.866C165.884 183.744 166.126 183.572 165.767 183.724C165.408 183.877 164.442 184.36 163.331 185.075C162.221 185.79 160.996 186.722 160.296 187.271C159.595 187.82 159.457 187.958 159.524 187.96C159.591 187.962 159.867 187.824 160.752 187.252C161.636 186.681 163.12 185.68 163.91 185.156C164.701 184.632 164.752 184.614 164.753 184.64C164.754 184.666 164.702 184.735 164.192 185.184C163.682 185.634 162.716 186.462 161.908 187.251C161.099 188.04 160.478 188.765 160.262 189.052C160.045 189.339 160.252 189.167 161.101 188.422C161.95 187.678 163.434 186.366 164.224 185.656C165.014 184.946 165.066 184.877 164.264 185.463C163.463 186.048 161.806 187.291 160.91 187.982C159.559 189.025 159.089 189.598 159.123 189.669C159.167 189.762 159.501 189.532 160.584 188.909C161.667 188.286 163.548 187.164 164.56 186.552C165.572 185.939 165.658 185.87 165.728 185.809C165.799 185.747 165.85 185.696 165.782 185.678C165.533 185.612 164.845 185.85 163.716 186.292C163.058 186.55 162.277 186.994 161.299 187.621C160.32 188.249 159.181 189.077 158.051 190.038C156.921 191 155.834 192.07 155.239 192.638C154.645 193.207 154.575 193.241 153.72 193.57C152.865 193.898 151.226 194.519 150.278 194.891C149.115 195.347 148.719 195.542 148.044 195.862C146.747 196.477 145.912 197.041 145.773 197.137C145.525 197.308 145.268 197.459 144.954 197.79C144.42 198.352 144.256 198.593 143.978 198.819C143.628 199.102 143.419 199.203 143.393 199.177C143.252 199.042 143.8 198.717 144.252 198.231C144.52 197.942 144.91 197.607 145.528 197.118C146.147 196.63 146.992 196.009 147.505 195.62C148.184 195.105 148.438 194.881 149.371 193.991C150.216 193.186 151.754 191.6 152.623 190.74C153.614 189.759 153.893 189.531 154.438 189.045C154.848 188.681 155.588 188.146 156.039 187.818C156.633 187.387 156.96 187.178 157.515 186.753C158.517 185.985 159.314 185.504 159.488 185.347C159.736 185.124 159.994 184.859 160.255 184.632C160.554 184.373 160.726 184.092 161.178 183.475C161.762 182.677 162.033 182.315 162.078 182.096C162.152 181.738 161.373 182.156 160.774 182.416C160.238 182.649 159.633 183.13 159.049 183.47C158.481 183.801 158.2 184.421 158.052 184.648C157.879 184.913 157.643 185.24 157.028 185.916C156.596 186.391 155.707 187.194 155.125 187.716C154.294 188.46 153.861 188.744 153.643 188.944C153.495 189.08 153.182 189.301 152.687 189.744C152.118 190.253 151.595 190.626 151.247 190.87C150.944 191.082 150.551 191.496 149.942 192.07C149.263 192.71 148.823 193.31 148.588 193.649C148.421 193.891 148.352 194.061 148.23 194.312C147.642 195.53 147.497 196.362 147.541 196.431C147.609 196.541 148.156 196.035 148.886 195.296C149.231 194.947 149.479 194.608 150.467 193.516C151.454 192.424 153.163 190.578 154.37 189.316C155.578 188.054 156.234 187.433 156.624 187.052C157.013 186.672 157.117 186.551 157.412 186.178C157.707 185.806 158.19 185.184 158.56 184.744C159.148 184.042 159.679 183.605 160.123 183.266C160.831 182.723 161.945 182.575 162.113 182.557C162.288 182.538 161.636 182.922 160.623 183.744C159.831 184.386 158.557 185.584 157.838 186.214C157.12 186.845 157.016 186.896 156.696 187.13C155.828 187.762 155.116 188.291 154.648 188.594C154.34 188.794 153.938 189.156 153.56 189.524C152.824 190.241 152.345 190.818 152.049 191.096C151.842 191.291 151.354 191.86 150.657 192.635C150.277 193.058 150.13 193.432 149.956 193.901C149.591 194.887 149.641 195.47 149.71 195.863C149.795 196.344 150.492 194.989 151.282 193.973C151.74 193.385 152.331 192.664 152.711 192.222C153.225 191.623 153.648 191.309 154.048 190.987C154.285 190.796 154.486 190.611 155.325 190.109C156.016 189.695 157.285 189.02 158.124 188.518C158.963 188.016 159.342 187.723 159.581 187.546C159.82 187.369 159.906 187.317 160.39 186.988C160.875 186.659 161.755 186.055 162.536 185.434C163.317 184.812 163.973 184.191 164.363 183.836C164.844 183.399 165.014 183.324 165.119 183.281C165.173 183.258 165.223 183.22 164.508 183.858C163.792 184.496 162.308 185.808 161.397 186.647C160.486 187.487 160.193 187.815 159.619 188.337C159.045 188.86 158.199 189.567 157.496 190.096C156.793 190.624 156.258 190.952 155.758 191.276C154.801 191.897 154.227 192.335 154.018 192.509C153.733 192.746 153.391 193.101 152.99 193.372C152.655 193.597 152.413 193.799 152.412 193.869C152.41 194.075 152.969 193.731 153.455 193.358C154.199 192.788 154.626 192.249 154.877 191.981C155.328 191.498 156.052 190.961 156.679 190.517C156.912 190.352 156.961 190.297 157.376 189.986C157.791 189.675 158.567 189.105 159.071 188.717C159.796 188.157 160.185 187.719 160.283 187.552C160.337 187.458 159.811 187.954 158.528 188.83C157.245 189.707 155.071 191.105 153.796 191.937C152.52 192.769 152.21 192.993 151.998 193.144C151.685 193.366 151.524 193.451 151.489 193.46C151.471 193.464 151.592 193.417 151.912 193.158C152.233 192.898 152.785 192.415 153.527 191.657C154.269 190.899 155.183 189.881 155.939 189.106C156.695 188.332 157.264 187.831 158.187 187.22C159.111 186.608 160.37 185.901 161.088 185.484C161.955 184.982 162.207 184.789 162.442 184.641C162.673 184.496 162.922 184.284 163.407 183.877C164.899 182.626 164.962 182.418 165.006 182.366C165.201 182.133 164.215 182.522 163.6 182.799C163.154 183 162.449 183.352 161.93 183.582C160.733 184.11 160.432 184.16 160.075 184.326C159.936 184.39 159.821 184.474 159.768 184.475C159.116 184.481 161.246 183.535 161.815 183.351C162.026 183.282 162.208 183.289 162.312 183.324C162.76 183.471 161.687 184.542 161.65 184.874C161.644 184.937 161.754 184.945 161.815 184.945C162.061 184.946 162.312 184.633 162.46 184.372C162.509 184.286 161.675 184.714 160.474 185.515C159.551 186.13 159.142 186.548 158.968 186.704C158.867 186.796 158.725 186.895 158.223 187.423C157.72 187.951 156.857 188.9 156.378 189.441C155.669 190.242 155.481 190.487 155.402 190.575C155.339 190.645 155.619 190.263 155.836 190.002C156.016 189.786 156.401 189.306 157.295 188.412C157.844 187.863 158.654 187.19 159.348 186.671C160.565 185.759 161.267 185.434 161.406 185.321C161.679 185.099 161.824 184.756 161.921 184.476C161.944 184.409 161.93 184.319 161.895 184.266C161.763 184.063 161.426 184.144 161.112 184.195C160.466 184.301 159.945 185.272 159.795 185.746C159.689 186.078 159.907 186.442 159.951 186.722C160.025 187.189 159.96 187.714 159.83 188.151C159.701 188.582 159.213 188.779 158.369 189.066C157.986 189.197 157.402 189.336 156.438 189.597C155.172 189.94 154.21 189.93 153.871 189.939C153.721 189.948 153.618 189.965 153.487 189.974C153.356 189.983 153.2 189.983 153.04 189.983" stroke="white" stroke-linecap="round"/>
<path d="M263.208 74.7705C262.821 74.5713 262.424 74.285 261.827 73.8811C261.527 73.6782 261.186 73.554 260.907 73.4641C260.418 73.3066 260.105 73.3073 259.923 73.2963C259.684 73.2819 259.462 73.2298 258.989 73.2132C258.604 73.1996 257.923 73.2075 257.271 73.1526C256.619 73.0978 256.015 72.988 255.457 72.926C254.899 72.864 254.405 72.853 254.135 72.8419C253.673 72.8229 253.365 72.7419 253.166 72.6812C252.969 72.6212 252.657 72.565 252.423 72.5148C252.238 72.4751 252.058 72.4759 251.748 72.4483C251.451 72.4219 251.193 72.4317 250.945 72.415C250.207 72.3656 249.788 72.4426 249.447 72.4812C249.198 72.5094 248.756 72.5424 248.296 72.5479C247.905 72.5525 247.645 72.7306 247.556 72.8191C247.4 72.9734 247.975 73.151 248.198 73.3123C248.426 73.477 248.575 73.4955 248.708 73.5675C248.83 73.6335 248.974 73.6285 249.273 73.6343C249.477 73.6383 249.936 73.5733 250.26 73.5457C250.538 73.522 250.692 73.4735 250.891 73.4459C250.979 73.4338 251.122 73.4403 251.179 73.4238C251.236 73.4074 251.204 73.3744 251.165 73.3465C251.017 73.2408 250.256 73.153 249.542 73.1022C249.208 73.0786 248.92 73.0525 248.748 72.975C248.707 72.9566 248.676 72.9308 248.681 72.914C248.697 72.8601 248.808 72.8749 248.94 72.8914C249.207 72.9246 249.78 73.0296 250.417 73.1182C250.882 73.1829 251.235 73.2408 251.534 73.296C251.721 73.3305 251.901 73.3186 252.177 73.2742C252.367 73.2437 252.543 73.2188 253.223 73.213C253.476 73.2108 253.674 73.2847 253.89 73.3128C254.087 73.3382 254.35 73.3738 254.561 73.4345C254.756 73.4906 254.96 73.4955 255.209 73.5344C255.686 73.6091 255.891 73.5733 256.14 73.6009C256.511 73.642 256.822 73.6731 257.094 73.7062C257.421 73.746 257.841 73.7728 258.092 73.795C258.341 73.8169 258.629 73.7948 258.79 73.8116C258.963 73.8296 259.249 73.8833 259.737 73.9114C260.005 73.9268 260.203 73.9611 260.446 73.9943C261.214 74.0992 261.666 74.4147 261.844 74.5319C261.967 74.6123 262.154 74.7033 262.337 74.8255C262.409 74.859 262.487 74.8922 262.57 74.931C262.609 74.9478 262.642 74.9587 262.676 75.0033" stroke="white" stroke-linecap="round"/>
<path d="M265.037 65.9246C264.63 66.1447 263.897 66.5444 263.697 66.6889C263.527 66.8113 263.452 67.0878 263.22 67.221C262.879 67.4171 262.534 67.4204 262.261 67.5039C261.946 67.6006 261.637 67.852 261.369 67.953C261.157 68.0329 260.86 68.1294 260.643 68.219C260.478 68.2866 260.294 68.3076 260.011 68.3244C259.915 68.3301 259.839 68.3632 259.756 68.3853C259.683 68.4047 260.012 68.287 261.049 67.9723C261.718 67.7692 262.701 67.5587 263.22 67.4345C263.86 67.2816 264.193 67.2002 264.405 67.0943C264.536 67.0289 264.671 66.9448 264.865 66.8175C265.068 66.6838 265.257 66.4028 265.408 66.2244C265.532 66.0776 265.768 65.9365 266.249 65.5878C266.536 65.3801 266.699 65.0725 266.921 64.7784C267.207 64.3993 267.508 64.2292 267.669 64.096C267.841 63.9518 267.996 63.8188 268.135 63.7191C268.174 63.6858 268.218 63.6419 268.263 63.5634" stroke="white" stroke-width="9" stroke-linecap="round"/>
<path d="M271.496 63.9071C271.526 63.8772 271.785 63.4658 272.265 62.9088C272.534 62.5966 272.912 62.276 273.335 61.9527C273.757 61.6294 274.226 61.3264 274.612 61.0339C275.706 60.2051 275.812 59.8367 275.866 59.6675C275.892 59.5884 275.524 59.6824 275.036 59.7582C274.337 59.8667 273.627 60.3689 273.046 60.7437C272.475 61.1117 272.109 61.2437 272.017 61.221C271.833 61.1756 272.504 60.8929 273.017 60.6479C273.232 60.5449 273.601 60.4199 274.001 60.2512C274.4 60.0824 274.824 59.8854 275.187 59.693C275.85 59.3412 276.24 59.0405 276.424 58.8724C276.928 58.4106 277.556 57.5104 277.855 57.2728C278.166 57.0252 278.384 56.8051 278.596 56.6152C279.442 55.861 279.698 55.4752 279.945 55.2746C280.11 55.1401 280.312 55.0757 280.549 54.9304C280.873 54.7319 281.047 54.4944 281.452 54.0818C281.567 53.9434 281.629 53.8511 281.697 53.7594C281.736 53.7133 281.781 53.6678 281.828 53.5751" stroke="white" stroke-width="6" stroke-linecap="round"/>
<path d="M283.16 52.3811C283.266 52.2898 283.51 52.1065 283.748 51.9226C283.95 51.7663 284.123 51.6317 284.315 51.5015C284.537 51.3406 284.841 51.0669 285.042 50.8205C285.073 50.7744 285.103 50.7289 285.18 50.6362" stroke="white" stroke-width="6" stroke-linecap="round"/>
<path d="M260.154 67.8102C259.879 68.0394 259.635 68.2226 259.405 68.3227C259.136 68.4396 258.824 68.4531 258.593 68.5064C258.389 68.5534 258.226 68.6974 258.05 68.8276C257.858 68.9692 257.614 69.2475 257.354 69.3789C257.117 69.4979 256.894 69.5396 256.711 69.6009C256.522 69.6639 256.313 69.7692 256.068 69.8305C255.811 69.8946 255.532 69.9373 255.287 70.0142C255.06 70.0854 254.874 70.1366 254.69 70.1979C254.506 70.2592 254.323 70.3202 254.139 70.3815C253.955 70.4428 253.772 70.5342 253.588 70.6568C253.411 70.775 253.221 70.8557 253.022 70.9631C252.966 70.9932 252.885 70.9787 252.884 70.9711C252.853 70.7682 253.416 70.7657 253.755 70.5813C253.96 70.4695 254.183 70.3974 254.367 70.3361C254.556 70.2731 254.825 70.1981 255.139 70.16C255.771 70.0834 256.141 70.1981 256.487 70.2438C256.804 70.2858 256.984 70.3965 257.229 70.5039C257.525 70.6339 258.28 70.5654 258.745 70.5198C259.187 70.4762 259.77 70.4433 260.015 70.4353C260.251 70.4275 260.489 70.5498 260.78 70.6874C260.974 70.7786 261.193 70.8254 261.401 70.9323C261.62 71.0457 261.806 71.1312 262.066 71.17C262.27 71.2005 262.449 71.2846 262.717 71.3002C262.954 71.285 263.092 71.2391 263.191 71.2161C263.245 71.2083 263.306 71.2083 263.368 71.2083" stroke="white" stroke-width="6" stroke-linecap="round"/>
<path d="M179.684 174.201L179.712 174.259" stroke="white" stroke-width="2" stroke-linecap="round"/>
<path d="M177.057 174.836C177.019 174.845 176.981 174.855 176.757 174.893C176.533 174.931 176.123 174.998 175.669 175.032C175.215 175.067 174.73 175.067 174.172 175.038" stroke="white" stroke-width="2" stroke-linecap="round"/>
<path d="M183.002 174.23C182.916 174.268 182.763 174.307 182.623 174.321C182.454 174.339 182.262 174.364 182.084 174.379C181.905 174.394 181.676 174.422 181.244 174.437C180.896 174.448 180.589 174.48 180.377 174.494C180.193 174.507 180.021 174.538 179.266 174.605C178.771 174.649 177.883 174.643 177.399 174.648C176.75 174.655 176.558 174.596 176.107 174.471C175.889 174.41 175.245 174.374 174.855 174.346C174.68 174.333 174.509 174.297 174.235 174.235C173.934 174.166 173.586 174.095 172.919 174.081C172.698 174.076 172.509 174.028 172.254 174.052C171.741 174.1 171.261 174.028 170.835 174.052C170.498 174.071 170.115 174.086 169.867 174.057C169.714 174.039 169.565 173.98 169.43 173.98C169.176 173.979 168.93 174.22 168.78 174.316C168.646 174.403 168.536 174.585 168.453 174.725C168.367 174.871 168.294 175.009 168.131 175.196C168.013 175.332 167.833 175.441 167.679 175.576C167.507 175.727 167.237 175.893 167.078 176.047C166.943 176.178 166.823 176.307 166.391 176.734C166.122 177 165.774 177.307 165.621 177.457C165.448 177.624 165.265 177.721 165.111 177.818C164.942 177.923 164.765 178.077 164.586 178.265C164.357 178.506 164.101 178.827 163.966 178.986C163.84 179.135 163.649 179.308 163.514 179.457C163.246 179.753 163.053 179.828 162.889 179.896C162.701 179.973 162.542 180.097 162.345 180.184C161.976 180.347 161.532 180.598 161.445 180.617C161.323 180.644 161.704 180.723 161.987 180.819C162.275 180.916 162.56 180.964 162.928 180.954C163.192 180.947 163.611 180.888 163.946 180.863C164.828 180.798 165.08 180.867 165.316 180.925C165.557 180.984 165.763 181.079 166.037 181.122C166.184 181.146 166.331 181.137 166.642 181.189C167.306 181.302 167.774 181.387 167.87 181.392C168.005 181.398 168.149 181.416 168.603 181.359C168.99 181.31 169.694 181.187 170.105 181.128C170.733 181.038 170.852 181.098 171.045 181.156C171.214 181.206 171.381 181.281 171.588 181.305C171.661 181.314 171.795 181.329 171.987 181.324C172.141 181.321 172.486 181.196 172.985 180.994C173.38 180.834 173.584 180.685 173.766 180.518C173.903 180.392 174.119 180.17 174.356 179.957C174.592 179.744 174.84 179.544 175.077 179.341C175.539 178.945 175.826 178.694 175.969 178.617C176.128 178.532 176.402 178.444 176.79 178.305C177.237 178.145 177.623 177.963 177.964 177.848C178.59 177.636 178.778 177.463 179.019 177.395C179.235 177.334 179.337 177.203 179.419 177.087C179.496 176.979 179.52 176.809 179.606 176.659C179.701 176.495 179.914 176.472 180.523 176.193C180.728 176.1 180.809 176.039 180.814 176.015C180.82 175.988 180.715 175.981 180.361 175.962C180.007 175.942 179.379 175.923 178.76 175.875C178.141 175.828 177.55 175.751 177.113 175.712C176.675 175.673 176.409 175.673 175.957 175.711C175.506 175.749 174.877 175.825 174.353 175.855C173.829 175.885 173.429 175.866 173.19 175.846C172.687 175.806 172.231 175.673 171.874 175.606C171.662 175.566 171.307 175.386 170.909 175.141C170.665 174.991 170.45 174.846 170.205 174.721C169.866 174.548 169.43 174.672 169.247 174.72C169.067 174.768 168.662 174.854 168.204 175.075C167.813 175.265 167.689 175.413 167.478 175.734C167.074 176.347 166.948 176.537 166.847 176.745C166.744 176.956 166.621 177.268 166.338 177.83C166.26 177.984 166.15 178.296 165.934 178.834C165.708 179.395 165.601 179.827 165.5 180.02C165.371 180.266 165.082 180.434 164.933 180.487C164.791 180.538 164.611 180.521 164.452 180.574C164.417 180.585 164.389 180.598 164.36 180.612C164.301 180.642 164.607 180.513 165.307 180.144C165.684 179.945 166.064 179.651 166.399 179.38C166.733 179.11 167 178.853 167.513 178.263C168.027 177.673 168.779 176.759 169.219 176.245C169.659 175.731 169.764 175.646 169.975 175.544C170.487 175.299 170.862 175.192 170.906 175.173C170.933 175.161 170.663 175.383 169.96 176.137C169.431 176.706 168.619 177.711 168.159 178.284C167.698 178.856 167.632 178.979 167.545 179.219C167.458 179.459 167.354 179.812 167.342 179.974C167.331 180.137 167.417 180.099 167.504 180.05C167.681 179.952 167.87 179.791 168.376 179.271C168.784 178.851 169.473 178.093 170.279 177.367C171.084 176.642 171.98 175.965 172.488 175.589C172.997 175.212 173.092 175.155 172.446 175.954C171.8 176.753 170.41 178.41 169.665 179.325C168.92 180.241 168.863 180.365 168.819 180.476C168.775 180.587 168.747 180.683 168.751 180.722C168.756 180.769 169.08 180.552 169.775 180.04C170.227 179.706 170.859 179.194 171.507 178.768C172.155 178.341 172.793 178.008 173.217 177.802C173.822 177.51 174.132 177.414 174.324 177.309C174.606 177.154 174.633 176.953 174.902 176.679C174.967 176.613 175.017 176.578 175.061 176.549C175.104 176.52 175.143 176.501 174.719 176.862C174.296 177.224 173.41 177.967 172.797 178.53C172.184 179.094 171.869 179.456 171.693 179.666C171.482 179.918 171.411 180.039 171.363 180.136C171.34 180.181 171.849 179.984 172.555 179.672C172.875 179.531 173.099 179.389 173.269 179.282C173.44 179.175 173.544 179.099 173.86 178.917C174.176 178.735 174.7 178.449 175.055 178.273C175.411 178.098 175.582 178.04 175.799 177.992C176.269 177.887 176.729 177.809 177.055 177.703C177.434 177.581 177.71 177.415 178.249 177.15C178.328 177.112 178.252 177.078 178.103 177.073C177.954 177.068 177.726 177.077 177.408 177.125C176.686 177.233 176.183 177.356 175.996 177.38C175.818 177.414 175.663 177.433 175.548 177.428C175.499 177.424 175.471 177.414 175.413 177.376" stroke="white" stroke-width="2" stroke-linecap="round"/>
</svg>
