<svg width="427" height="287" viewBox="0 0 427 287" fill="none" xmlns="http://www.w3.org/2000/svg">
<path d="M323.026 66.168H112.107C97.173 66.168 85.0664 80.1591 85.0664 97.418V159.918C85.0664 177.177 97.173 191.168 112.107 191.168H323.026C337.96 191.168 350.066 177.177 350.066 159.918V97.418C350.066 80.1591 337.96 66.168 323.026 66.168Z" stroke="white" stroke-width="10" stroke-linecap="round" stroke-linejoin="round"/>
<rect x="100" y="79" width="199.75" height="100" rx="20" fill="white"/>
<path d="M187.769 177.958C187.486 177.927 187.106 177.832 186.627 177.738C186.245 177.663 185.57 177.581 184.833 177.517C184.095 177.453 183.313 177.422 182.855 177.398C182.288 177.368 181.8 177.342 181.177 177.35C180.486 177.359 179.917 177.421 179.617 177.484C179.319 177.547 179.127 177.547 178.602 177.571C178.14 177.592 177.279 177.579 176.789 177.587C176.205 177.596 175.498 177.627 174.551 177.619C174.005 177.614 173.504 177.532 173.03 177.492C172.256 177.428 171.532 177.437 170.983 177.398C170.249 177.345 169.995 177.468 169.805 177.5C169.596 177.535 169.426 177.689 169.197 177.808C169.094 177.847 168.983 177.879 168.865 177.911C168.809 177.927 168.762 177.942 168.619 177.958" stroke="white" stroke-width="2" stroke-linecap="round"/>
<path d="M191.12 177.576C191.051 177.576 190.983 177.576 187.957 177.588C184.931 177.599 178.949 177.622 175.822 177.622C172.695 177.623 172.604 177.6 172.371 177.576" stroke="white" stroke-width="2" stroke-linecap="round"/>
<path d="M351 99C358.732 99 365 105.268 365 113V147C365 154.732 358.732 161 351 161V99Z" fill="white"/>
<path d="M235.954 110.49L233.498 113.034L237.034 113.031L291.127 112.995L134.9 211.363L211.422 135.958L214.031 133.387L210.368 133.389L156.049 133.43L298.653 45.5234L235.954 110.49Z" fill="black" stroke="white" stroke-width="3"/>
<path d="M169.946 179.151H184.317" stroke="white" stroke-width="2" stroke-linecap="round"/>
<path d="M167.91 180.678H182.281" stroke="white" stroke-width="2" stroke-linecap="round"/>
<path d="M166.952 181.636H181.323" stroke="white" stroke-width="2" stroke-linecap="round"/>
<path d="M163.12 183.552H177.491" stroke="white" stroke-width="2" stroke-linecap="round"/>
<path d="M167.317 182.192C166.812 182.405 166.15 183.041 165.979 183.219C165.826 183.378 165.744 183.524 165.648 183.676C165.538 183.852 165.338 184.006 165.135 184.082C164.73 184.235 164.4 184.159 164.07 184.247C163.855 184.305 163.739 184.463 163.701 184.52C163.593 184.68 164.067 184.73 164.622 184.78C165.074 184.822 165.879 184.831 166.319 184.85C166.961 184.878 167.315 184.92 167.784 184.964C168.492 185.032 168.826 184.908 169.313 184.832C169.622 184.783 169.93 184.781 170.429 184.749C171.35 184.691 171.704 184.704 172.143 184.673C172.479 184.649 172.733 184.73 172.943 184.78C173.027 184.801 173.102 184.831 173.178 184.857C173.216 184.869 173.254 184.882 173.236 184.945C173.098 185.421 172.672 185.655 172.419 185.947C172.188 186.213 172.012 186.29 171.942 186.366C171.909 186.403 172.514 185.876 173.294 185.191C173.882 184.675 174.206 184.578 174.402 184.489C174.456 184.465 174.522 184.476 174.555 184.501C174.62 184.551 174.06 185.068 173.172 185.784C172.367 186.434 171.785 186.556 171.549 186.671C171.227 186.828 171.086 186.924 170.858 186.944C170.625 186.964 170.351 186.849 170.015 186.786C169.388 186.668 168.831 186.609 168.441 186.563C168.283 186.545 168.054 186.532 167.826 186.525C167.697 186.522 167.182 186.494 166.421 186.5C166.062 186.503 165.884 186.544 165.506 186.563C164.776 186.6 164.146 186.545 163.861 186.494C163.475 186.425 163.181 186.278 162.921 186.158C162.82 186.111 162.737 186.025 162.642 185.967C162.389 185.815 162.103 186.606 161.868 186.873C161.52 187.268 161.278 187.431 161.088 187.653C161.024 187.728 161.073 187.762 161.118 187.781C161.335 187.875 161.656 187.738 162.307 187.617C163.082 187.473 163.674 187.61 163.833 187.629C163.903 187.637 163.953 187.636 164.419 187.692C164.884 187.749 165.764 187.862 166.279 187.939C167.118 188.064 167.492 188.143 167.874 188.175C168.389 188.218 169.067 188.485 169.226 188.524C169.699 188.639 169.955 187.497 170.152 187.23C170.309 187.017 170.387 186.799 170.438 186.646C170.463 186.57 170.489 186.494 170.495 186.418C170.498 186.379 170.464 186.342 170.42 186.323C170.32 186.279 169.682 186.454 168.801 186.689C168.33 186.814 168.142 186.962 167.708 187.535C167.347 188.01 166.758 188.899 166.416 189.377C166.074 189.855 166.011 189.906 165.96 189.938C165.876 189.991 165.33 190.021 164.487 190.046C163.736 190.069 163.36 189.769 163.067 189.521C162.825 189.316 162.269 189.121 161.9 189.044C161.671 188.997 161.091 188.867 160.707 188.778C160.534 188.737 160.239 188.663 160.009 188.644C159.97 188.641 159.933 188.675 159.907 188.707C159.881 188.739 159.869 188.777 159.906 188.809C159.944 188.841 160.032 188.866 160.693 188.916C161.353 188.967 162.584 189.042 163.388 189.113C164.534 189.213 164.981 189.361 165.234 189.468C165.865 189.737 166.174 189.678 166.345 189.704C166.403 189.712 166.478 189.654 166.498 189.615C166.518 189.577 166.48 189.54 166.404 189.514C166.221 189.452 165.935 189.475 165.405 189.614C165.03 189.712 164.473 189.978 164.019 190.22C163.564 190.463 163.238 190.701 162.912 190.981C162.587 191.261 162.273 191.575 161.992 191.888C161.454 192.486 161.138 192.888 160.974 193.021C160.735 193.214 160.529 193.307 159.762 193.766C159.075 194.176 157.813 194.991 157.135 195.418C156.277 195.957 155.95 196.187 155.67 196.377C155.608 196.419 155.543 196.441 155.492 196.466C155.441 196.492 155.403 196.517 155.44 196.461C155.477 196.405 155.59 196.266 156.126 195.85C156.661 195.433 157.616 194.742 158.51 193.972C159.404 193.201 160.208 192.372 160.647 191.908C161.296 191.22 161.505 190.935 161.562 190.796C161.582 190.748 161.531 190.732 161.443 190.757C161.209 190.823 160.798 191.098 160.31 191.446C160.094 191.6 159.96 191.731 159.738 191.953C159.516 192.175 159.215 192.489 158.821 192.858C158.427 193.227 157.95 193.641 157.383 194.188C156.817 194.734 156.176 195.4 155.821 195.781C155.405 196.227 155.301 196.44 155.212 196.612C155.205 196.626 155.375 196.267 155.811 195.54C156.065 195.115 156.46 194.624 157.013 193.976C157.565 193.328 158.281 192.549 158.737 192.016C159.4 191.243 159.589 190.91 159.665 190.808C159.856 190.554 159.868 190.289 159.888 190.154C159.892 190.123 159.781 190.21 159.422 190.55C159.063 190.89 158.422 191.518 158.048 191.898C157.574 192.38 157.307 192.696 156.934 193.095C156.547 193.508 156.153 194.003 155.779 194.383C155.522 194.644 155.076 195.08 154.579 195.514C154.152 195.886 153.793 196.64 153.645 197.081C153.575 197.43 153.55 197.734 153.531 198.026C153.524 198.103 153.512 198.178 153.499 198.256" stroke="white" stroke-width="2" stroke-linecap="round"/>
<path d="M155.516 193.992C155.907 193.489 156.582 192.648 156.595 192.635C156.734 192.494 156.342 192.964 155.813 193.486C155.329 193.964 154.431 194.9 153.77 195.63C153.11 196.36 152.72 196.863 152.45 197.191C151.901 197.859 151.761 197.989 151.358 198.341C151.028 198.631 150.403 199.096 150.035 199.367C149.579 199.704 149.326 199.841 149.028 200.043C148.467 200.426 148.121 200.703 147.847 201.008C147.538 201.353 147.308 201.605 146.89 201.991C146.626 202.235 146.496 202.48 146.387 202.633C146.305 202.773 146.191 202.836 146.115 202.868C146.077 202.887 146.039 202.912 146 202.938" stroke="white" stroke-width="2" stroke-linecap="round"/>
<path d="M247.721 79.2423C247.885 79.0241 248.133 78.8299 248.844 78.5559C250.296 77.997 251.712 77.6454 252.428 77.4528C253.03 77.2908 254.213 76.9031 255.556 76.2965C256.119 76.0424 256.314 75.3608 256.948 74.8359C257.131 74.6847 257.387 74.5342 257.554 74.4226C258.159 74.0193 254.666 75.7427 253.964 76.1683C253.394 76.5147 253.123 76.9808 252.394 77.4636C251.891 77.7967 251.279 77.781 250.726 77.9194C250.615 77.9472 250.533 77.9744 250.532 78.0021C250.531 78.0297 250.612 78.057 250.75 78.0438C251.844 77.9387 252.844 76.6816 253.367 75.9803C253.581 75.6934 253.644 75.441 253.7 75.2624C253.728 75.1701 253.646 75.0566 253.563 74.9731C253.397 74.8052 253.177 74.7516 252.971 74.7512C252.33 74.7499 252.075 75.4385 251.429 76.1398C251.162 76.4301 250.946 76.761 250.835 76.968C250.498 77.5932 252.125 76.4618 253.556 75.5542C254.853 74.7317 255.489 74.5317 255.778 74.4078C255.899 74.3557 255.985 74.3656 255.891 74.4747C255.569 74.8469 254.806 75.2996 253.913 75.8766C252.364 76.8774 251.665 77.2561 251.141 77.5053C251.061 77.5433 251.325 77.2635 252.556 76.4961C253.788 75.7286 255.97 74.4466 257.285 73.6498C259.001 72.6103 259.485 72.1901 259.773 71.9566C260.566 71.3135 261.192 70.9784 262.456 70.0985C263.128 69.6305 263.616 69.4906 265.251 68.7756C265.93 68.4786 266.562 68.0581 267.442 67.6188C268.452 67.1136 269.073 66.7613 270.097 66.1203C271.045 65.5275 272.731 64.1973 273.671 63.4823C274.936 62.5197 275.353 62.1077 276.563 61.1857C277.494 60.4764 278.081 60.1223 278.742 59.5727C279.495 58.9467 280.309 58.2246 281.002 57.753C281.504 57.4118 282.131 56.9269 282.518 56.6095C282.937 56.2658 283.509 55.8523 284.252 55.4114C284.772 55.1024 285.411 54.8323 285.879 54.6117C286.26 54.4319 286.568 54.2257 286.899 53.9781C287.313 53.6686 287.973 53.4818 288.318 53.385C288.705 53.2764 289.102 53.1792 289.626 53.0408C289.762 53.0047 289.9 52.9858 289.971 53.0127C290.041 53.0395 290.041 53.1214 290 53.2317C289.758 53.8843 288.641 54.6059 288.045 55.1328C287.498 55.6174 287.095 56.097 286.558 56.4966C285.717 57.1223 284.48 58.0245 283.857 58.5076C283.272 58.9621 282.251 60.086 281.516 60.753C281.05 61.1751 280.565 61.7986 280.085 62.54C279.068 64.1088 278.636 64.7742 278.223 65.4218C277.801 66.0843 277.533 66.5951 277.464 66.76C277.428 66.8457 277.368 66.9249 278.145 65.8215C278.921 64.718 280.531 62.4268 281.4 61.2055C282.337 59.8913 282.682 59.4636 283.095 58.8854C283.324 58.5646 283.538 58.332 284.071 57.7567C285.952 55.7289 286.622 55.4671 286.939 55.1774C287.029 55.0952 287.011 55.1878 286.901 55.3527C286.792 55.5176 286.601 55.7631 285.057 57.1715C283.513 58.58 280.621 61.144 279.05 62.5194C277.332 64.0233 276.901 64.3345 276.038 65.197C275.407 65.8279 274.439 66.9051 273.633 67.6849C272.284 68.9902 271.281 69.7881 270.744 70.4349C269.916 71.433 269.074 72.6282 269.005 72.8365C268.98 72.9106 269.263 72.6331 270.343 71.3214C271.423 70.0096 273.387 67.5548 274.863 65.8264C276.338 64.0981 277.266 63.1707 277.839 62.5702C278.412 61.9697 278.603 61.7242 279.411 60.834C280.218 59.9438 281.636 58.4163 282.408 57.5885C283.18 56.7607 283.261 56.6789 283.222 56.7595C283.182 56.8401 283.018 57.0856 282.375 57.7303C281.732 58.375 280.613 59.4115 278.987 60.7637C277.361 62.116 275.26 63.7526 273.442 65.4003C271.624 67.0481 270.151 68.6574 269.337 69.5683C268.132 70.9181 267.78 71.3883 266.615 72.4587C265.325 73.6438 264.171 74.1995 263.882 74.3371C263.759 74.3961 263.675 74.4202 263.66 74.3387C263.646 74.2573 263.7 74.0664 264.956 72.3314C266.211 70.5965 268.666 67.3233 270.013 65.5553C271.359 63.7873 271.523 63.6236 271.866 63.3484C272.712 62.6707 273.344 62.216 273.331 62.2557C273.285 62.4024 272.964 62.7045 272.046 63.6232C271.128 64.5419 269.574 66.0422 268.691 66.8695C267.666 67.8299 267.394 68.0003 267.175 68.1652C266.881 68.386 265.613 69.1508 263.879 70.4031C262.83 71.1601 262.435 71.5272 262.079 71.7326C260.589 72.5924 259.627 73.096 259.143 73.5101C258.791 73.8115 258.276 74.2251 257.807 74.4615C257.328 74.7028 256.788 75.1079 256.47 75.4525C256.097 75.8555 255.686 76.2105 255.299 76.294C254.813 76.399 254.582 76.5419 254.417 76.6105C254.332 76.6462 254.253 76.7064 254.306 76.7618C254.359 76.8172 254.55 76.8717 256.844 76.0543C259.138 75.2368 263.53 73.5457 265.997 72.5517C268.464 71.5578 268.873 71.3123 269.165 71.1176C270.427 70.2783 271.964 69.2707 272.598 68.8979C273.18 68.5556 273.726 68.2788 274.471 67.9883C275.065 67.7569 275.464 67.3415 275.658 67.0105C275.703 66.935 275.713 66.8456 275.686 66.9125C275.573 67.1957 275.384 67.6134 275.028 68.1755C274.433 69.1145 273.678 70.0634 273.155 70.7378C272.686 71.342 272.217 71.9107 271.09 73.0799C270.48 73.7581 269.549 74.8533 268.951 75.4802C268.855 75.5765 268.745 75.7129 268.633 75.8534" stroke="white" stroke-width="2" stroke-linecap="round"/>
<path d="M266.567 78.4158L266.153 78.9117" stroke="white" stroke-width="2" stroke-linecap="round"/>
<path d="M262.103 79.4076C261.639 79.4622 260.591 79.5729 259.876 79.6416C257.843 79.8367 257.23 79.7928 256.252 79.8073C254.947 79.8266 252.849 79.6837 252.379 79.6283C251.609 79.5376 250.974 79.1332 250.438 79.0084C249.563 78.805 248.829 78.5298 248.383 78.2781C248.309 78.2364 249.202 78.4149 250.658 78.5526C252.381 78.7154 253.505 78.691 253.931 78.7323C254.544 78.792 255.621 78.5282 256.86 78.1566C258.208 77.752 259.04 77.6719 259.677 77.7405C260.391 77.8175 260.779 77.8917 261.179 78.0021C261.521 78.0965 261.854 78.1397 262.253 78.1814C263.169 78.2771 264.664 78.305 265.077 78.4017C265.482 78.4965 265.821 78.0322 266.179 77.6322C266.633 77.1262 267.195 76.2188 267.9 75.3203C268.665 74.3458 269.483 73.0489 270.308 72.0174C270.972 71.1871 271.579 70.7304 271.814 70.5779C271.831 70.5669 271.64 70.78 270.955 71.3421C270.271 71.9041 269.098 72.8315 268.152 73.6775C266.461 75.1912 265.741 76.1278 265.522 76.3613C264.908 77.0139 264.036 77.4487 263.387 77.8909C262.971 78.1737 262.71 78.5794 262.586 78.9791C262.555 79.0799 262.49 79.158 262.53 79.0911C262.702 78.8033 262.956 78.4447 263.626 77.4607C264.198 76.6205 265.196 75.0583 265.757 74.2164C266.381 73.28 266.839 72.7175 267.43 71.9054C267.666 71.5827 267.777 71.4479 267.042 72.1823C266.307 72.9167 264.725 74.526 263.856 75.3959C262.519 76.7329 261.802 77.3404 261.554 77.4917C261.442 77.56 261.361 77.6157 261.551 77.3437C261.74 77.0718 262.204 76.4717 262.975 75.6034C263.746 74.7351 264.809 73.6168 265.221 73.1088C265.633 72.6009 265.36 72.7373 264.865 73.1485C263.614 74.1877 262.848 75.0533 262.615 75.3277C262.27 75.7336 261.939 75.9906 261.815 75.9778C260.916 75.8849 262.624 73.7639 262.86 73.2923C262.946 73.1218 262.14 73.9432 260.708 75.3889C259.968 76.1364 259.652 76.3485 259.501 76.5407C259.291 76.8075 260.082 76.0278 261.079 75.1141C261.988 74.2801 259.184 77.0643 258.814 77.4756C258.174 78.1874 257.641 78.6356 257.544 78.6637C257.408 78.7031 257.831 78.143 258.447 77.4024C259.444 76.2052 260.53 75.1145 261.039 74.316C261.508 73.5807 261.882 72.8249 262.403 72.0963C262.95 71.3323 264.162 70.4857 265.346 69.7282C265.785 69.4475 265.93 69.4344 266.055 69.393C266.18 69.3517 266.289 69.2972 264.872 70.551C263.456 71.8049 260.51 74.3689 258.801 75.7989C256.198 77.978 255.409 78.057 255.408 78.0306C255.402 77.9164 255.734 77.7314 256.46 77.2235C257.187 76.7155 258.387 75.9245 260.178 74.5214C261.969 73.1183 264.315 71.1272 265.837 69.8832C267.359 68.6392 267.987 68.2028 268.433 67.8552C269.508 67.0171 269.87 66.434 270.449 65.9227C270.971 65.4632 271.305 65.2743 271.511 65.123C271.607 65.0524 271.69 64.999 271.5 65.2846C270.879 66.2198 270.123 67.0894 269.492 67.5705C268.149 68.5945 267.342 68.3036 266.761 68.3045C266.552 68.3048 266.375 68.1119 266.196 67.9883C265.886 67.7743 265.988 67.2043 266.153 66.4199C266.216 66.1163 266.428 65.9355 266.648 65.8388C267.182 65.6037 268.377 66.8671 269.511 67.2291C269.775 67.3135 270.114 67.2572 270.228 67.2572C270.582 67.2572 268.341 67.2837 266.846 67.2853C266.693 67.2855 266.839 67.1217 267.032 67.0245C267.456 66.8116 268.024 66.7067 269.024 66.6104C270.808 66.4386 272.103 66.486 272.665 66.4447C274.414 66.316 274.857 66.348 275.862 66.2108C276.668 66.1007 277.778 66.4306 278.192 66.362C278.329 66.348 278.52 66.348 278.619 66.3071C278.717 66.2662 278.717 66.1843 278.717 66.1" stroke="white" stroke-width="2" stroke-linecap="round"/>
<line x1="189" y1="178.5" x2="165" y2="178.5" stroke="white"/>
<path d="M215.177 80.1365H268.077" stroke="white" stroke-width="2" stroke-linecap="round"/>
</svg>
