<svg width="427" height="287" viewBox="0 0 427 287" fill="none" xmlns="http://www.w3.org/2000/svg">
<path d="M323.026 66.168H112.107C97.173 66.168 85.0664 80.1591 85.0664 97.418V159.918C85.0664 177.177 97.173 191.168 112.107 191.168H323.026C337.96 191.168 350.066 177.177 350.066 159.918V97.418C350.066 80.1591 337.96 66.168 323.026 66.168Z" stroke="white" stroke-width="10" stroke-linecap="round" stroke-linejoin="round"/>
<rect x="100" y="79" width="211.5" height="100" rx="20" fill="#00FF1E"/>
<path d="M351 99C358.732 99 365 105.268 365 113V147C365 154.732 358.732 161 351 161V99Z" fill="white"/>
<path d="M233.954 111.49L231.498 114.034L235.034 114.031L289.127 113.995L132.9 212.363L209.422 136.958L212.031 134.387L208.368 134.389L154.049 134.43L296.653 46.5234L233.954 111.49Z" fill="black" stroke="white" stroke-width="3"/>
<path d="M167.946 180.151H182.317" stroke="white" stroke-width="2" stroke-linecap="round"/>
<path d="M165.91 181.678H180.281" stroke="white" stroke-width="2" stroke-linecap="round"/>
<path d="M164.952 182.636H179.323" stroke="white" stroke-width="2" stroke-linecap="round"/>
<path d="M161.12 184.552H175.491" stroke="white" stroke-width="2" stroke-linecap="round"/>
<path d="M165.317 183.192C164.812 183.405 164.15 184.041 163.979 184.219C163.826 184.378 163.744 184.524 163.648 184.676C163.538 184.852 163.338 185.006 163.135 185.082C162.73 185.235 162.4 185.159 162.07 185.247C161.855 185.305 161.739 185.463 161.701 185.52C161.593 185.68 162.067 185.73 162.622 185.78C163.074 185.822 163.879 185.831 164.319 185.85C164.961 185.878 165.315 185.92 165.784 185.964C166.492 186.032 166.826 185.908 167.313 185.832C167.622 185.783 167.93 185.781 168.429 185.749C169.35 185.691 169.704 185.704 170.143 185.673C170.479 185.649 170.733 185.73 170.943 185.78C171.027 185.801 171.102 185.831 171.178 185.857C171.216 185.869 171.254 185.882 171.236 185.945C171.098 186.421 170.672 186.655 170.419 186.947C170.188 187.213 170.012 187.29 169.942 187.366C169.909 187.403 170.514 186.876 171.294 186.191C171.882 185.675 172.206 185.578 172.402 185.489C172.456 185.465 172.522 185.476 172.555 185.501C172.62 185.551 172.06 186.068 171.172 186.784C170.367 187.434 169.785 187.556 169.549 187.671C169.227 187.828 169.086 187.924 168.858 187.944C168.625 187.964 168.351 187.849 168.015 187.786C167.388 187.668 166.831 187.609 166.441 187.563C166.283 187.545 166.054 187.532 165.826 187.525C165.697 187.522 165.182 187.494 164.421 187.5C164.062 187.503 163.884 187.544 163.506 187.563C162.776 187.6 162.146 187.545 161.861 187.494C161.475 187.425 161.181 187.278 160.921 187.158C160.82 187.111 160.737 187.025 160.642 186.967C160.389 186.815 160.103 187.606 159.868 187.873C159.52 188.268 159.278 188.431 159.088 188.653C159.024 188.728 159.073 188.762 159.118 188.781C159.335 188.875 159.656 188.738 160.307 188.617C161.082 188.473 161.674 188.61 161.833 188.629C161.903 188.637 161.953 188.636 162.419 188.692C162.884 188.749 163.764 188.862 164.279 188.939C165.118 189.064 165.492 189.143 165.874 189.175C166.389 189.218 167.067 189.485 167.226 189.524C167.699 189.639 167.955 188.497 168.152 188.23C168.309 188.017 168.387 187.799 168.438 187.646C168.463 187.57 168.489 187.494 168.495 187.418C168.498 187.379 168.464 187.342 168.42 187.323C168.32 187.279 167.682 187.454 166.801 187.689C166.33 187.814 166.142 187.962 165.708 188.535C165.347 189.01 164.758 189.899 164.416 190.377C164.074 190.855 164.011 190.906 163.96 190.938C163.876 190.991 163.33 191.021 162.487 191.046C161.736 191.069 161.36 190.769 161.067 190.521C160.825 190.316 160.269 190.121 159.9 190.044C159.671 189.997 159.091 189.867 158.707 189.778C158.534 189.737 158.239 189.663 158.009 189.644C157.97 189.641 157.933 189.675 157.907 189.707C157.881 189.739 157.869 189.777 157.906 189.809C157.944 189.841 158.032 189.866 158.693 189.916C159.353 189.967 160.584 190.042 161.388 190.113C162.534 190.213 162.981 190.361 163.234 190.468C163.865 190.737 164.174 190.678 164.345 190.704C164.403 190.712 164.478 190.654 164.498 190.615C164.518 190.577 164.48 190.54 164.404 190.514C164.221 190.452 163.935 190.475 163.405 190.614C163.03 190.712 162.473 190.978 162.019 191.22C161.564 191.463 161.238 191.701 160.912 191.981C160.587 192.261 160.273 192.575 159.992 192.888C159.454 193.486 159.138 193.888 158.974 194.021C158.735 194.214 158.529 194.307 157.762 194.766C157.075 195.176 155.813 195.991 155.135 196.418C154.277 196.957 153.95 197.187 153.67 197.377C153.608 197.419 153.543 197.441 153.492 197.466C153.441 197.492 153.403 197.517 153.44 197.461C153.477 197.405 153.59 197.266 154.126 196.85C154.661 196.433 155.616 195.742 156.51 194.972C157.404 194.201 158.208 193.372 158.647 192.908C159.296 192.22 159.505 191.935 159.562 191.796C159.582 191.748 159.531 191.732 159.443 191.757C159.209 191.823 158.798 192.098 158.31 192.446C158.094 192.6 157.96 192.731 157.738 192.953C157.516 193.175 157.215 193.489 156.821 193.858C156.427 194.227 155.95 194.641 155.383 195.188C154.817 195.734 154.176 196.4 153.821 196.781C153.405 197.227 153.301 197.44 153.212 197.612C153.205 197.626 153.375 197.267 153.811 196.54C154.065 196.115 154.46 195.624 155.013 194.976C155.565 194.328 156.281 193.549 156.737 193.016C157.4 192.243 157.589 191.91 157.665 191.808C157.856 191.554 157.868 191.289 157.888 191.154C157.892 191.123 157.781 191.21 157.422 191.55C157.063 191.89 156.422 192.518 156.048 192.898C155.574 193.38 155.307 193.696 154.934 194.095C154.547 194.508 154.153 195.003 153.779 195.383C153.522 195.644 153.076 196.08 152.579 196.514C152.152 196.886 151.793 197.64 151.645 198.081C151.575 198.43 151.55 198.734 151.531 199.026C151.524 199.103 151.512 199.178 151.499 199.256" stroke="white" stroke-width="2" stroke-linecap="round"/>
<path d="M153.516 194.992C153.907 194.489 154.582 193.648 154.595 193.635C154.734 193.494 154.342 193.964 153.813 194.486C153.329 194.964 152.431 195.9 151.77 196.63C151.11 197.36 150.72 197.863 150.45 198.191C149.901 198.859 149.761 198.989 149.358 199.341C149.028 199.631 148.403 200.096 148.035 200.367C147.579 200.704 147.326 200.841 147.028 201.043C146.467 201.426 146.121 201.703 145.847 202.008C145.538 202.353 145.308 202.605 144.89 202.991C144.626 203.235 144.496 203.48 144.387 203.633C144.305 203.773 144.191 203.836 144.115 203.868C144.077 203.887 144.039 203.912 144 203.938" stroke="white" stroke-width="2" stroke-linecap="round"/>
<path d="M245.721 80.2423C245.885 80.0241 246.133 79.8299 246.844 79.5559C248.296 78.997 249.712 78.6454 250.428 78.4528C251.03 78.2908 252.213 77.9031 253.556 77.2965C254.119 77.0424 254.314 76.3608 254.948 75.8359C255.131 75.6847 255.387 75.5342 255.554 75.4226C256.159 75.0193 252.666 76.7427 251.964 77.1683C251.394 77.5147 251.123 77.9808 250.394 78.4636C249.891 78.7967 249.279 78.781 248.726 78.9194C248.615 78.9472 248.533 78.9744 248.532 79.0021C248.531 79.0297 248.612 79.057 248.75 79.0438C249.844 78.9387 250.844 77.6816 251.367 76.9803C251.581 76.6934 251.644 76.441 251.7 76.2624C251.728 76.1701 251.646 76.0566 251.563 75.9731C251.397 75.8052 251.177 75.7516 250.971 75.7512C250.33 75.7499 250.075 76.4385 249.429 77.1398C249.162 77.4301 248.946 77.761 248.835 77.968C248.498 78.5932 250.125 77.4618 251.556 76.5542C252.853 75.7317 253.489 75.5317 253.778 75.4078C253.899 75.3557 253.985 75.3656 253.891 75.4747C253.569 75.8469 252.806 76.2996 251.913 76.8766C250.364 77.8774 249.665 78.2561 249.141 78.5053C249.061 78.5433 249.325 78.2635 250.556 77.4961C251.788 76.7286 253.97 75.4466 255.285 74.6498C257.001 73.6103 257.485 73.1901 257.773 72.9566C258.566 72.3135 259.192 71.9784 260.456 71.0985C261.128 70.6305 261.616 70.4906 263.251 69.7756C263.93 69.4786 264.562 69.0581 265.442 68.6188C266.452 68.1136 267.073 67.7613 268.097 67.1203C269.045 66.5275 270.731 65.1973 271.671 64.4823C272.936 63.5197 273.353 63.1077 274.563 62.1857C275.494 61.4764 276.081 61.1223 276.742 60.5727C277.495 59.9467 278.309 59.2246 279.002 58.753C279.504 58.4118 280.131 57.9269 280.518 57.6095C280.937 57.2658 281.509 56.8523 282.252 56.4114C282.772 56.1024 283.411 55.8323 283.879 55.6117C284.26 55.4319 284.568 55.2257 284.899 54.9781C285.313 54.6686 285.973 54.4818 286.318 54.385C286.705 54.2764 287.102 54.1792 287.626 54.0408C287.762 54.0047 287.9 53.9858 287.971 54.0127C288.041 54.0395 288.041 54.1214 288 54.2317C287.758 54.8843 286.641 55.6059 286.045 56.1328C285.498 56.6174 285.095 57.097 284.558 57.4966C283.717 58.1223 282.48 59.0245 281.857 59.5076C281.272 59.9621 280.251 61.086 279.516 61.753C279.05 62.1751 278.565 62.7986 278.085 63.54C277.068 65.1088 276.636 65.7742 276.223 66.4218C275.801 67.0843 275.533 67.5951 275.464 67.76C275.428 67.8457 275.368 67.9249 276.145 66.8215C276.921 65.718 278.531 63.4268 279.4 62.2055C280.337 60.8913 280.682 60.4636 281.095 59.8854C281.324 59.5646 281.538 59.332 282.071 58.7567C283.952 56.7289 284.622 56.4671 284.939 56.1774C285.029 56.0952 285.011 56.1878 284.901 56.3527C284.792 56.5176 284.601 56.7631 283.057 58.1715C281.513 59.58 278.621 62.144 277.05 63.5194C275.332 65.0233 274.901 65.3345 274.038 66.197C273.407 66.8279 272.439 67.9051 271.633 68.6849C270.284 69.9902 269.281 70.7881 268.744 71.4349C267.916 72.433 267.074 73.6282 267.005 73.8365C266.98 73.9106 267.263 73.6331 268.343 72.3214C269.423 71.0096 271.387 68.5548 272.863 66.8264C274.338 65.0981 275.266 64.1707 275.839 63.5702C276.412 62.9697 276.603 62.7242 277.411 61.834C278.218 60.9438 279.636 59.4163 280.408 58.5885C281.18 57.7607 281.261 57.6789 281.222 57.7595C281.182 57.8401 281.018 58.0856 280.375 58.7303C279.732 59.375 278.613 60.4115 276.987 61.7637C275.361 63.116 273.26 64.7526 271.442 66.4003C269.624 68.0481 268.151 69.6574 267.337 70.5683C266.132 71.9181 265.78 72.3883 264.615 73.4587C263.325 74.6438 262.171 75.1995 261.882 75.3371C261.759 75.3961 261.675 75.4202 261.66 75.3387C261.646 75.2573 261.7 75.0664 262.956 73.3314C264.211 71.5965 266.666 68.3233 268.013 66.5553C269.359 64.7873 269.523 64.6236 269.866 64.3484C270.712 63.6707 271.344 63.216 271.331 63.2557C271.285 63.4024 270.964 63.7045 270.046 64.6232C269.128 65.5419 267.574 67.0422 266.691 67.8695C265.666 68.8299 265.394 69.0003 265.175 69.1652C264.881 69.386 263.613 70.1508 261.879 71.4031C260.83 72.1601 260.435 72.5272 260.079 72.7326C258.589 73.5924 257.627 74.096 257.143 74.5101C256.791 74.8115 256.276 75.2251 255.807 75.4615C255.328 75.7028 254.788 76.1079 254.47 76.4525C254.097 76.8555 253.686 77.2105 253.299 77.294C252.813 77.399 252.582 77.5419 252.417 77.6105C252.332 77.6462 252.253 77.7064 252.306 77.7618C252.359 77.8172 252.55 77.8717 254.844 77.0543C257.138 76.2368 261.53 74.5457 263.997 73.5517C266.464 72.5578 266.873 72.3123 267.165 72.1176C268.427 71.2783 269.964 70.2707 270.598 69.8979C271.18 69.5556 271.726 69.2788 272.471 68.9883C273.065 68.7569 273.464 68.3415 273.658 68.0105C273.703 67.935 273.713 67.8456 273.686 67.9125C273.573 68.1957 273.384 68.6134 273.028 69.1755C272.433 70.1145 271.678 71.0634 271.155 71.7378C270.686 72.342 270.217 72.9107 269.09 74.0799C268.48 74.7581 267.549 75.8533 266.951 76.4802C266.855 76.5765 266.745 76.7129 266.633 76.8534" stroke="white" stroke-width="2" stroke-linecap="round"/>
<path d="M264.567 79.4158L264.153 79.9117" stroke="white" stroke-width="2" stroke-linecap="round"/>
<path d="M260.103 80.4076C259.639 80.4622 258.591 80.5729 257.876 80.6416C255.843 80.8367 255.23 80.7928 254.252 80.8073C252.947 80.8266 250.849 80.6837 250.379 80.6283C249.609 80.5376 248.974 80.1332 248.438 80.0084C247.563 79.805 246.829 79.5298 246.383 79.2781C246.309 79.2364 247.202 79.4149 248.658 79.5526C250.381 79.7154 251.505 79.691 251.931 79.7323C252.544 79.792 253.621 79.5282 254.86 79.1566C256.208 78.752 257.04 78.6719 257.677 78.7405C258.391 78.8175 258.779 78.8917 259.179 79.0021C259.521 79.0965 259.854 79.1397 260.253 79.1814C261.169 79.2771 262.664 79.305 263.077 79.4017C263.482 79.4965 263.821 79.0322 264.179 78.6322C264.633 78.1262 265.195 77.2188 265.9 76.3203C266.665 75.3458 267.483 74.0489 268.308 73.0174C268.972 72.1871 269.579 71.7304 269.814 71.5779C269.831 71.5669 269.64 71.78 268.955 72.3421C268.271 72.9041 267.098 73.8315 266.152 74.6775C264.461 76.1912 263.741 77.1278 263.522 77.3613C262.908 78.0139 262.036 78.4487 261.387 78.8909C260.971 79.1737 260.71 79.5794 260.586 79.9791C260.555 80.0799 260.49 80.158 260.53 80.0911C260.702 79.8033 260.956 79.4447 261.626 78.4607C262.198 77.6205 263.196 76.0583 263.757 75.2164C264.381 74.28 264.839 73.7175 265.43 72.9054C265.666 72.5827 265.777 72.4479 265.042 73.1823C264.307 73.9167 262.725 75.526 261.856 76.3959C260.519 77.7329 259.802 78.3404 259.554 78.4917C259.442 78.56 259.361 78.6157 259.551 78.3437C259.74 78.0718 260.204 77.4717 260.975 76.6034C261.746 75.7351 262.809 74.6168 263.221 74.1088C263.633 73.6009 263.36 73.7373 262.865 74.1485C261.614 75.1877 260.848 76.0533 260.615 76.3277C260.27 76.7336 259.939 76.9906 259.815 76.9778C258.916 76.8849 260.624 74.7639 260.86 74.2923C260.946 74.1218 260.14 74.9432 258.708 76.3889C257.968 77.1364 257.652 77.3485 257.501 77.5407C257.291 77.8075 258.082 77.0278 259.079 76.1141C259.988 75.2801 257.184 78.0643 256.814 78.4756C256.174 79.1874 255.641 79.6356 255.544 79.6637C255.408 79.7031 255.831 79.143 256.447 78.4024C257.444 77.2052 258.53 76.1145 259.039 75.316C259.508 74.5807 259.882 73.8249 260.403 73.0963C260.95 72.3323 262.162 71.4857 263.346 70.7282C263.785 70.4475 263.93 70.4344 264.055 70.393C264.18 70.3517 264.289 70.2972 262.872 71.551C261.456 72.8049 258.51 75.3689 256.801 76.7989C254.198 78.978 253.409 79.057 253.408 79.0306C253.402 78.9164 253.734 78.7314 254.46 78.2235C255.187 77.7155 256.387 76.9245 258.178 75.5214C259.969 74.1183 262.315 72.1272 263.837 70.8832C265.359 69.6392 265.987 69.2028 266.433 68.8552C267.508 68.0171 267.87 67.434 268.449 66.9227C268.971 66.4632 269.305 66.2743 269.511 66.123C269.607 66.0524 269.69 65.999 269.5 66.2846C268.879 67.2198 268.123 68.0894 267.492 68.5705C266.149 69.5945 265.342 69.3036 264.761 69.3045C264.552 69.3048 264.375 69.1119 264.196 68.9883C263.886 68.7743 263.988 68.2043 264.153 67.4199C264.216 67.1163 264.428 66.9355 264.648 66.8388C265.182 66.6037 266.377 67.8671 267.511 68.2291C267.775 68.3135 268.114 68.2572 268.228 68.2572C268.582 68.2572 266.341 68.2837 264.846 68.2853C264.693 68.2855 264.839 68.1217 265.032 68.0245C265.456 67.8116 266.024 67.7067 267.024 67.6104C268.808 67.4386 270.103 67.486 270.665 67.4447C272.414 67.316 272.857 67.348 273.862 67.2108C274.668 67.1007 275.778 67.4306 276.192 67.362C276.329 67.348 276.52 67.348 276.619 67.3071C276.717 67.2662 276.717 67.1843 276.717 67.1" stroke="white" stroke-width="2" stroke-linecap="round"/>
<path d="M187 179.5L166 179.5" stroke="white"/>
<path d="M241 81L263 81" stroke="white" stroke-width="2" stroke-linecap="round"/>
</svg>
