<svg width="427" height="287" viewBox="0 0 427 287" fill="none" xmlns="http://www.w3.org/2000/svg">
<path d="M323.026 66.168H112.107C97.173 66.168 85.0664 80.1591 85.0664 97.418V159.918C85.0664 177.177 97.173 191.168 112.107 191.168H323.026C337.96 191.168 350.066 177.177 350.066 159.918V97.418C350.066 80.1591 337.96 66.168 323.026 66.168Z" stroke="white" stroke-width="10" stroke-linecap="round" stroke-linejoin="round"/>
<rect x="100" y="79" width="223.25" height="100" rx="20" fill="white"/>
<path d="M351 99C358.732 99 365 105.268 365 113V147C365 154.732 358.732 161 351 161V99Z" fill="white"/>
<path d="M231.954 111.49L229.498 114.034L233.034 114.031L287.127 113.995L130.9 212.363L207.422 136.958L210.031 134.387L206.368 134.389L152.049 134.43L294.653 46.5234L231.954 111.49Z" fill="black" stroke="white" stroke-width="3"/>
<path d="M165.946 180.151H180.317" stroke="white" stroke-width="2" stroke-linecap="round"/>
<path d="M163.91 181.678H178.281" stroke="white" stroke-width="2" stroke-linecap="round"/>
<path d="M162.952 182.636H177.323" stroke="white" stroke-width="2" stroke-linecap="round"/>
<path d="M159.12 184.552H173.491" stroke="white" stroke-width="2" stroke-linecap="round"/>
<path d="M163.317 183.192C162.812 183.405 162.15 184.041 161.979 184.219C161.826 184.378 161.744 184.524 161.648 184.676C161.538 184.852 161.338 185.006 161.135 185.082C160.73 185.235 160.4 185.159 160.07 185.247C159.855 185.305 159.739 185.463 159.701 185.52C159.593 185.68 160.067 185.73 160.622 185.78C161.074 185.822 161.879 185.831 162.319 185.85C162.961 185.878 163.315 185.92 163.784 185.964C164.492 186.032 164.826 185.908 165.313 185.832C165.622 185.783 165.93 185.781 166.429 185.749C167.35 185.691 167.704 185.704 168.143 185.673C168.479 185.649 168.733 185.73 168.943 185.78C169.027 185.801 169.102 185.831 169.178 185.857C169.216 185.869 169.254 185.882 169.236 185.945C169.098 186.421 168.672 186.655 168.419 186.947C168.188 187.213 168.012 187.29 167.942 187.366C167.909 187.403 168.514 186.876 169.294 186.191C169.882 185.675 170.206 185.578 170.402 185.489C170.456 185.465 170.522 185.476 170.555 185.501C170.62 185.551 170.06 186.068 169.172 186.784C168.367 187.434 167.785 187.556 167.549 187.671C167.227 187.828 167.086 187.924 166.858 187.944C166.625 187.964 166.351 187.849 166.015 187.786C165.388 187.668 164.831 187.609 164.441 187.563C164.283 187.545 164.054 187.532 163.826 187.525C163.697 187.522 163.182 187.494 162.421 187.5C162.062 187.503 161.884 187.544 161.506 187.563C160.776 187.6 160.146 187.545 159.861 187.494C159.475 187.425 159.181 187.278 158.921 187.158C158.82 187.111 158.737 187.025 158.642 186.967C158.389 186.815 158.103 187.606 157.868 187.873C157.52 188.268 157.278 188.431 157.088 188.653C157.024 188.728 157.073 188.762 157.118 188.781C157.335 188.875 157.656 188.738 158.307 188.617C159.082 188.473 159.674 188.61 159.833 188.629C159.903 188.637 159.953 188.636 160.419 188.692C160.884 188.749 161.764 188.862 162.279 188.939C163.118 189.064 163.492 189.143 163.874 189.175C164.389 189.218 165.067 189.485 165.226 189.524C165.699 189.639 165.955 188.497 166.152 188.23C166.309 188.017 166.387 187.799 166.438 187.646C166.463 187.57 166.489 187.494 166.495 187.418C166.498 187.379 166.464 187.342 166.42 187.323C166.32 187.279 165.682 187.454 164.801 187.689C164.33 187.814 164.142 187.962 163.708 188.535C163.347 189.01 162.758 189.899 162.416 190.377C162.074 190.855 162.011 190.906 161.96 190.938C161.876 190.991 161.33 191.021 160.487 191.046C159.736 191.069 159.36 190.769 159.067 190.521C158.825 190.316 158.269 190.121 157.9 190.044C157.671 189.997 157.091 189.867 156.707 189.778C156.534 189.737 156.239 189.663 156.009 189.644C155.97 189.641 155.933 189.675 155.907 189.707C155.881 189.739 155.869 189.777 155.906 189.809C155.944 189.841 156.032 189.866 156.693 189.916C157.353 189.967 158.584 190.042 159.388 190.113C160.534 190.213 160.981 190.361 161.234 190.468C161.865 190.737 162.174 190.678 162.345 190.704C162.403 190.712 162.478 190.654 162.498 190.615C162.518 190.577 162.48 190.54 162.404 190.514C162.221 190.452 161.935 190.475 161.405 190.614C161.03 190.712 160.473 190.978 160.019 191.22C159.564 191.463 159.238 191.701 158.912 191.981C158.587 192.261 158.273 192.575 157.992 192.888C157.454 193.486 157.138 193.888 156.974 194.021C156.735 194.214 156.529 194.307 155.762 194.766C155.075 195.176 153.813 195.991 153.135 196.418C152.277 196.957 151.95 197.187 151.67 197.377C151.608 197.419 151.543 197.441 151.492 197.466C151.441 197.492 151.403 197.517 151.44 197.461C151.477 197.405 151.59 197.266 152.126 196.85C152.661 196.433 153.616 195.742 154.51 194.972C155.404 194.201 156.208 193.372 156.647 192.908C157.296 192.22 157.505 191.935 157.562 191.796C157.582 191.748 157.531 191.732 157.443 191.757C157.209 191.823 156.798 192.098 156.31 192.446C156.094 192.6 155.96 192.731 155.738 192.953C155.516 193.175 155.215 193.489 154.821 193.858C154.427 194.227 153.95 194.641 153.383 195.188C152.817 195.734 152.176 196.4 151.821 196.781C151.405 197.227 151.301 197.44 151.212 197.612C151.205 197.626 151.375 197.267 151.811 196.54C152.065 196.115 152.46 195.624 153.013 194.976C153.565 194.328 154.281 193.549 154.737 193.016C155.4 192.243 155.589 191.91 155.665 191.808C155.856 191.554 155.868 191.289 155.888 191.154C155.892 191.123 155.781 191.21 155.422 191.55C155.063 191.89 154.422 192.518 154.048 192.898C153.574 193.38 153.307 193.696 152.934 194.095C152.547 194.508 152.153 195.003 151.779 195.383C151.522 195.644 151.076 196.08 150.579 196.514C150.152 196.886 149.793 197.64 149.645 198.081C149.575 198.43 149.55 198.734 149.531 199.026C149.524 199.103 149.512 199.178 149.499 199.256" stroke="white" stroke-width="2" stroke-linecap="round"/>
<path d="M151.516 194.992C151.907 194.489 152.582 193.648 152.595 193.635C152.734 193.494 152.342 193.964 151.813 194.486C151.329 194.964 150.431 195.9 149.77 196.63C149.11 197.36 148.72 197.863 148.45 198.191C147.901 198.859 147.761 198.989 147.358 199.341C147.028 199.631 146.403 200.096 146.035 200.367C145.579 200.704 145.326 200.841 145.028 201.043C144.467 201.426 144.121 201.703 143.847 202.008C143.538 202.353 143.308 202.605 142.89 202.991C142.626 203.235 142.496 203.48 142.387 203.633C142.305 203.773 142.191 203.836 142.115 203.868C142.077 203.887 142.039 203.912 142 203.938" stroke="white" stroke-width="2" stroke-linecap="round"/>
<path d="M243.721 80.2423C243.885 80.0241 244.133 79.8299 244.844 79.5559C246.296 78.997 247.712 78.6454 248.428 78.4528C249.03 78.2908 250.213 77.9031 251.556 77.2965C252.119 77.0424 252.314 76.3608 252.948 75.8359C253.131 75.6847 253.387 75.5342 253.554 75.4226C254.159 75.0193 250.666 76.7427 249.964 77.1683C249.394 77.5147 249.123 77.9808 248.394 78.4636C247.891 78.7967 247.279 78.781 246.726 78.9194C246.615 78.9472 246.533 78.9744 246.532 79.0021C246.531 79.0297 246.612 79.057 246.75 79.0438C247.844 78.9387 248.844 77.6816 249.367 76.9803C249.581 76.6934 249.644 76.441 249.7 76.2624C249.728 76.1701 249.646 76.0566 249.563 75.9731C249.397 75.8052 249.177 75.7516 248.971 75.7512C248.33 75.7499 248.075 76.4385 247.429 77.1398C247.162 77.4301 246.946 77.761 246.835 77.968C246.498 78.5932 248.125 77.4618 249.556 76.5542C250.853 75.7317 251.489 75.5317 251.778 75.4078C251.899 75.3557 251.985 75.3656 251.891 75.4747C251.569 75.8469 250.806 76.2996 249.913 76.8766C248.364 77.8774 247.665 78.2561 247.141 78.5053C247.061 78.5433 247.325 78.2635 248.556 77.4961C249.788 76.7286 251.97 75.4466 253.285 74.6498C255.001 73.6103 255.485 73.1901 255.773 72.9566C256.566 72.3135 257.192 71.9784 258.456 71.0985C259.128 70.6305 259.616 70.4906 261.251 69.7756C261.93 69.4786 262.562 69.0581 263.442 68.6188C264.452 68.1136 265.073 67.7613 266.097 67.1203C267.045 66.5275 268.731 65.1973 269.671 64.4823C270.936 63.5197 271.353 63.1077 272.563 62.1857C273.494 61.4764 274.081 61.1223 274.742 60.5727C275.495 59.9467 276.309 59.2246 277.002 58.753C277.504 58.4118 278.131 57.9269 278.518 57.6095C278.937 57.2658 279.509 56.8523 280.252 56.4114C280.772 56.1024 281.411 55.8323 281.879 55.6117C282.26 55.4319 282.568 55.2257 282.899 54.9781C283.313 54.6686 283.973 54.4818 284.318 54.385C284.705 54.2764 285.102 54.1792 285.626 54.0408C285.762 54.0047 285.9 53.9858 285.971 54.0127C286.041 54.0395 286.041 54.1214 286 54.2317C285.758 54.8843 284.641 55.6059 284.045 56.1328C283.498 56.6174 283.095 57.097 282.558 57.4966C281.717 58.1223 280.48 59.0245 279.857 59.5076C279.272 59.9621 278.251 61.086 277.516 61.753C277.05 62.1751 276.565 62.7986 276.085 63.54C275.068 65.1088 274.636 65.7742 274.223 66.4218C273.801 67.0843 273.533 67.5951 273.464 67.76C273.428 67.8457 273.368 67.9249 274.145 66.8215C274.921 65.718 276.531 63.4268 277.4 62.2055C278.337 60.8913 278.682 60.4636 279.095 59.8854C279.324 59.5646 279.538 59.332 280.071 58.7567C281.952 56.7289 282.622 56.4671 282.939 56.1774C283.029 56.0952 283.011 56.1878 282.901 56.3527C282.792 56.5176 282.601 56.7631 281.057 58.1715C279.513 59.58 276.621 62.144 275.05 63.5194C273.332 65.0233 272.901 65.3345 272.038 66.197C271.407 66.8279 270.439 67.9051 269.633 68.6849C268.284 69.9902 267.281 70.7881 266.744 71.4349C265.916 72.433 265.074 73.6282 265.005 73.8365C264.98 73.9106 265.263 73.6331 266.343 72.3214C267.423 71.0096 269.387 68.5548 270.863 66.8264C272.338 65.0981 273.266 64.1707 273.839 63.5702C274.412 62.9697 274.603 62.7242 275.411 61.834C276.218 60.9438 277.636 59.4163 278.408 58.5885C279.18 57.7607 279.261 57.6789 279.222 57.7595C279.182 57.8401 279.018 58.0856 278.375 58.7303C277.732 59.375 276.613 60.4115 274.987 61.7637C273.361 63.116 271.26 64.7526 269.442 66.4003C267.624 68.0481 266.151 69.6574 265.337 70.5683C264.132 71.9181 263.78 72.3883 262.615 73.4587C261.325 74.6438 260.171 75.1995 259.882 75.3371C259.759 75.3961 259.675 75.4202 259.66 75.3387C259.646 75.2573 259.7 75.0664 260.956 73.3314C262.211 71.5965 264.666 68.3233 266.013 66.5553C267.359 64.7873 267.523 64.6236 267.866 64.3484C268.712 63.6707 269.344 63.216 269.331 63.2557C269.285 63.4024 268.964 63.7045 268.046 64.6232C267.128 65.5419 265.574 67.0422 264.691 67.8695C263.666 68.8299 263.394 69.0003 263.175 69.1652C262.881 69.386 261.613 70.1508 259.879 71.4031C258.83 72.1601 258.435 72.5272 258.079 72.7326C256.589 73.5924 255.627 74.096 255.143 74.5101C254.791 74.8115 254.276 75.2251 253.807 75.4615C253.328 75.7028 252.788 76.1079 252.47 76.4525C252.097 76.8555 251.686 77.2105 251.299 77.294C250.813 77.399 250.582 77.5419 250.417 77.6105C250.332 77.6462 250.253 77.7064 250.306 77.7618C250.359 77.8172 250.55 77.8717 252.844 77.0543C255.138 76.2368 259.53 74.5457 261.997 73.5517C264.464 72.5578 264.873 72.3123 265.165 72.1176C266.427 71.2783 267.964 70.2707 268.598 69.8979C269.18 69.5556 269.726 69.2788 270.471 68.9883C271.065 68.7569 271.464 68.3415 271.658 68.0105C271.703 67.935 271.713 67.8456 271.686 67.9125C271.573 68.1957 271.384 68.6134 271.028 69.1755C270.433 70.1145 269.678 71.0634 269.155 71.7378C268.686 72.342 268.217 72.9107 267.09 74.0799C266.48 74.7581 265.549 75.8533 264.951 76.4802C264.855 76.5765 264.745 76.7129 264.633 76.8534" stroke="white" stroke-width="2" stroke-linecap="round"/>
<path d="M262.567 79.4158L262.153 79.9117" stroke="white" stroke-width="2" stroke-linecap="round"/>
<path d="M258.103 80.4076C257.639 80.4622 256.591 80.5729 255.876 80.6416C253.843 80.8367 253.23 80.7928 252.252 80.8073C250.947 80.8266 248.849 80.6837 248.379 80.6283C247.609 80.5376 246.974 80.1332 246.438 80.0084C245.563 79.805 244.829 79.5298 244.383 79.2781C244.309 79.2364 245.202 79.4149 246.658 79.5526C248.381 79.7154 249.505 79.691 249.931 79.7323C250.544 79.792 251.621 79.5282 252.86 79.1566C254.208 78.752 255.04 78.6719 255.677 78.7405C256.391 78.8175 256.779 78.8917 257.179 79.0021C257.521 79.0965 257.854 79.1397 258.253 79.1814C259.169 79.2771 260.664 79.305 261.077 79.4017C261.482 79.4965 261.821 79.0322 262.179 78.6322C262.633 78.1262 263.195 77.2188 263.9 76.3203C264.665 75.3458 265.483 74.0489 266.308 73.0174C266.972 72.1871 267.579 71.7304 267.814 71.5779C267.831 71.5669 267.64 71.78 266.955 72.3421C266.271 72.9041 265.098 73.8315 264.152 74.6775C262.461 76.1912 261.741 77.1278 261.522 77.3613C260.908 78.0139 260.036 78.4487 259.387 78.8909C258.971 79.1737 258.71 79.5794 258.586 79.9791C258.555 80.0799 258.49 80.158 258.53 80.0911C258.702 79.8033 258.956 79.4447 259.626 78.4607C260.198 77.6205 261.196 76.0583 261.757 75.2164C262.381 74.28 262.839 73.7175 263.43 72.9054C263.666 72.5827 263.777 72.4479 263.042 73.1823C262.307 73.9167 260.725 75.526 259.856 76.3959C258.519 77.7329 257.802 78.3404 257.554 78.4917C257.442 78.56 257.361 78.6157 257.551 78.3437C257.74 78.0718 258.204 77.4717 258.975 76.6034C259.746 75.7351 260.809 74.6168 261.221 74.1088C261.633 73.6009 261.36 73.7373 260.865 74.1485C259.614 75.1877 258.848 76.0533 258.615 76.3277C258.27 76.7336 257.939 76.9906 257.815 76.9778C256.916 76.8849 258.624 74.7639 258.86 74.2923C258.946 74.1218 258.14 74.9432 256.708 76.3889C255.968 77.1364 255.652 77.3485 255.501 77.5407C255.291 77.8075 256.082 77.0278 257.079 76.1141C257.988 75.2801 255.184 78.0643 254.814 78.4756C254.174 79.1874 253.641 79.6356 253.544 79.6637C253.408 79.7031 253.831 79.143 254.447 78.4024C255.444 77.2052 256.53 76.1145 257.039 75.316C257.508 74.5807 257.882 73.8249 258.403 73.0963C258.95 72.3323 260.162 71.4857 261.346 70.7282C261.785 70.4475 261.93 70.4344 262.055 70.393C262.18 70.3517 262.289 70.2972 260.872 71.551C259.456 72.8049 256.51 75.3689 254.801 76.7989C252.198 78.978 251.409 79.057 251.408 79.0306C251.402 78.9164 251.734 78.7314 252.46 78.2235C253.187 77.7155 254.387 76.9245 256.178 75.5214C257.969 74.1183 260.315 72.1272 261.837 70.8832C263.359 69.6392 263.987 69.2028 264.433 68.8552C265.508 68.0171 265.87 67.434 266.449 66.9227C266.971 66.4632 267.305 66.2743 267.511 66.123C267.607 66.0524 267.69 65.999 267.5 66.2846C266.879 67.2198 266.123 68.0894 265.492 68.5705C264.149 69.5945 263.342 69.3036 262.761 69.3045C262.552 69.3048 262.375 69.1119 262.196 68.9883C261.886 68.7743 261.988 68.2043 262.153 67.4199C262.216 67.1163 262.428 66.9355 262.648 66.8388C263.182 66.6037 264.377 67.8671 265.511 68.2291C265.775 68.3135 266.114 68.2572 266.228 68.2572C266.582 68.2572 264.341 68.2837 262.846 68.2853C262.693 68.2855 262.839 68.1217 263.032 68.0245C263.456 67.8116 264.024 67.7067 265.024 67.6104C266.808 67.4386 268.103 67.486 268.665 67.4447C270.414 67.316 270.857 67.348 271.862 67.2108C272.668 67.1007 273.778 67.4306 274.192 67.362C274.329 67.348 274.52 67.348 274.619 67.3071C274.717 67.2662 274.717 67.1843 274.717 67.1" stroke="white" stroke-width="2" stroke-linecap="round"/>
<line x1="185" y1="179.5" x2="161" y2="179.5" stroke="white"/>
<path d="M211.177 81.1365H264.077" stroke="white" stroke-width="2" stroke-linecap="round"/>
</svg>
