<svg width="427" height="287" viewBox="0 0 427 287" fill="none" xmlns="http://www.w3.org/2000/svg">
<path d="M323.026 66.168H112.107C97.173 66.168 85.0664 80.1591 85.0664 97.418V159.918C85.0664 177.177 97.173 191.168 112.107 191.168H323.026C337.96 191.168 350.066 177.177 350.066 159.918V97.418C350.066 80.1591 337.96 66.168 323.026 66.168Z" stroke="white" stroke-width="10" stroke-linecap="round" stroke-linejoin="round"/>
<rect x="100" y="79" width="70.5" height="100" rx="20" fill="white"/>
<path d="M351 99C358.732 99 365 105.268 365 113V147C365 154.732 358.732 161 351 161V99Z" fill="white"/>
<path d="M227.954 111.49L225.498 114.034L229.034 114.031L283.127 113.995L126.9 212.363L203.422 136.958L206.031 134.387L202.368 134.389L148.049 134.43L290.653 46.5234L227.954 111.49Z" fill="black" stroke="white" stroke-width="3"/>
<path d="M229.954 110.49L227.498 113.034L231.034 113.031L285.127 112.995L128.9 211.363L205.422 135.958L208.031 133.387L204.368 133.389L150.049 133.43L292.653 45.5234L229.954 110.49Z" fill="black" stroke="white" stroke-width="3"/>
<path d="M183.5 178.5H163.5" stroke="white"/>
<path d="M236.5 105C237.284 96.1834 236.076 91.8359 230 85.5" stroke="white"/>
<path d="M236.5 113V145" stroke="white"/>
<path d="M239.582 128.111C239.327 127.969 239.167 127.854 239.117 127.761C238.983 127.512 239.095 127.026 239.224 126.432C239.282 125.994 239.296 125.751 239.324 125.665C239.339 125.622 239.353 125.579 239.367 125.535" stroke="white" stroke-width="2" stroke-linecap="round"/>
<path d="M240.226 116.521C240.17 116.564 239.97 116.508 239.755 116.436C239.544 116.365 239.411 116.35 239.333 116.328C239.154 116.28 239.139 116.007 239.046 115.899C238.873 115.699 239.124 116.562 239.196 116.821C239.21 116.864 239.224 116.907 239.232 116.985C239.239 117.064 239.239 117.177 239.239 117.294" stroke="white" stroke-width="5" stroke-linecap="round"/>
<path d="M240.526 120.084C240.866 120.027 241.206 119.971 242.961 119.552C244.715 119.133 247.874 118.354 249.771 117.932C251.667 117.509 252.205 117.467 252.582 117.452C252.958 117.437 253.156 117.451 253.485 117.522C253.814 117.593 254.267 117.721 254.685 117.864C255.48 118.138 255.907 118.338 256.064 118.388C256.553 118.544 256.865 118.582 257.286 118.617C257.993 118.677 258.253 118.582 258.361 118.575C258.384 118.573 258.341 118.553 257.802 118.525C257.263 118.496 256.229 118.454 254.775 118.503C253.322 118.552 251.481 118.693 250.489 118.759C249.498 118.825 249.413 118.811 249.348 118.797C249.283 118.782 249.241 118.768 249.283 118.74C249.325 118.711 249.452 118.668 250.828 118.597C252.204 118.526 254.824 118.426 256.514 118.425C258.204 118.423 258.884 118.523 259.277 118.595C259.76 118.684 259.899 118.768 259.963 118.803C259.984 118.814 259.929 118.853 259.865 118.889C259.8 118.925 259.715 118.967 256.966 119.903C254.217 120.838 248.806 122.666 245.678 123.77C242.551 124.874 241.871 125.2 241.492 125.389C241.114 125.578 241.057 125.62 241.07 125.642C241.084 125.664 241.169 125.664 242.905 125.069C244.642 124.474 248.027 123.285 250.125 122.495C252.223 121.705 252.931 121.35 253.431 121.111C254.193 120.746 254.59 120.614 254.783 120.571C254.862 120.553 254.905 120.556 254.899 120.599C254.892 120.641 254.836 120.726 253.737 121.634C252.638 122.542 250.499 124.27 249.355 125.224C248.097 126.273 248.01 126.536 247.967 126.708C247.939 126.82 247.966 126.909 248.009 126.994C248.032 127.041 248.08 127.08 248.159 127.102C248.345 127.154 248.538 127.095 249.332 126.635C250.062 126.212 251.43 125.366 252.598 124.73C253.766 124.095 254.687 123.684 255.268 123.458C256.044 123.156 256.365 123.175 256.408 123.238C256.451 123.301 256.197 123.43 254.537 124.395C252.877 125.36 249.733 127.159 248.084 128.107C246.436 129.055 246.38 129.097 247.625 128.56C248.871 128.022 251.421 126.903 253.152 126.227C254.883 125.552 255.719 125.354 256.22 125.251C256.722 125.149 256.863 125.149 256.887 125.199C257.183 125.827 255.594 126.179 255.308 126.421C255.077 126.617 254.722 127.035 254.266 127.606C253.592 128.449 253.348 128.639 253.168 128.854C252.938 129.13 252.718 129.284 252.525 129.412C252.193 129.634 251.817 129.884 251.559 130.056C251.433 130.14 251.245 130.313 250.86 130.549C249.878 131.149 249.471 131.343 249.177 131.523C248.728 131.796 248.141 132.272 247.767 132.546C247.373 132.835 247.095 133.161 246.909 133.354C246.68 133.592 246.437 133.804 246.129 134.055C245.89 134.249 245.564 134.435 245.363 134.563C245.081 134.744 244.82 135.006 244.598 135.143C244.366 135.285 244.09 135.422 243.889 135.579C243.635 135.779 243.389 136.137 243.096 136.451C242.878 136.686 242.659 136.952 242.145 137.466C241.933 137.679 241.729 137.783 241.557 137.89C241.472 137.926 241.385 137.969 241.3 138.026C241.257 138.055 241.214 138.083 241.127 138.112" stroke="white" stroke-width="5" stroke-linecap="round"/>
<path d="M254.047 130.515C254.061 130.43 254.488 129.945 255.224 129.274C255.555 128.971 256.054 128.436 256.374 128.124C257.062 127.45 257.552 127.025 257.852 126.746C258.271 126.356 258.439 126.18 258.682 125.994C258.834 125.877 258.954 125.765 259.26 125.552C259.969 125.057 260.471 124.634 260.642 124.521C260.879 124.363 261.185 124.064 261.493 123.763C261.664 123.596 262.184 123.093 262.935 122.336C263.522 121.743 263.862 121.687 264.055 121.587C264.107 121.56 264.162 121.53 264.737 121.338C265.311 121.146 266.402 120.792 266.992 120.596C267.642 120.379 267.896 120.285 268.26 120.171C268.962 119.951 269.513 119.37 269.728 119.183C269.962 118.98 270.271 118.783 270.786 118.525C271.067 118.384 271.287 118.353 271.524 118.267C271.813 118.162 272.117 118.025 272.461 117.888C272.78 117.762 272.976 117.667 273.155 117.559C273.353 117.44 273.577 117.437 273.756 117.337C273.963 117.222 274.135 117.165 274.392 117.087C274.69 116.996 275.007 116.922 275.208 116.858C275.395 116.798 275.58 116.623 275.773 116.479C275.964 116.337 276.152 116.25 276.331 116.164C276.58 116.044 276.796 115.907 277.004 115.835C277.182 115.773 277.354 115.72 277.526 115.656C277.709 115.587 277.869 115.506 278.084 115.363C278.306 115.215 278.499 115.091 278.614 115.012C278.706 114.949 278.315 115.019 278.143 115.033C277.913 115.052 277.232 115.119 276.345 115.148C275.667 115.169 275.154 115.219 274.817 115.241C274.652 115.251 274.126 115.277 273.397 115.284C272.79 115.29 272.478 115.348 272.198 115.37C271.943 115.389 271.323 115.533 270.397 115.584C270.145 115.598 269.902 115.62 269.609 115.627C269.358 115.633 268.704 115.663 267.846 115.656C267.441 115.652 267.212 115.62 266.969 115.627C266.81 115.632 266.512 115.705 265.552 115.763C264.834 115.806 263.643 115.763 263.009 115.749C262.175 115.73 261.86 115.677 260.905 115.67C260.559 115.667 259.947 115.706 259.147 115.72C258.593 115.73 258.313 115.82 257.477 115.828C256.867 115.833 256.296 115.82 255.745 115.842C255.494 115.852 254.84 115.878 253.953 115.856C253.204 115.838 252.904 115.592 252.568 115.47C252.465 115.433 252.333 115.448 252.289 115.477C252.244 115.505 252.287 115.562 252.401 115.626C252.515 115.691 252.699 115.762 252.992 115.834C253.285 115.905 253.682 115.976 255.274 116.098C256.867 116.219 259.643 116.389 261.413 116.548C263.183 116.706 263.863 116.848 264.731 116.942C265.598 117.036 266.632 117.079 267.207 117.115C267.869 117.156 267.997 117.208 268.047 117.251C268.08 117.279 268.027 117.378 267.991 117.436C267.93 117.535 267.586 117.679 267.001 117.929C266.701 118.057 266.387 118.165 265.504 118.407C264.621 118.65 263.176 119.018 262.064 119.378C260.951 119.737 260.215 120.077 259.679 120.344C258.821 120.773 258.455 121.028 258.291 121.128C257.766 121.448 257.07 121.656 256.603 122.05C256.231 122.364 256.137 122.915 255.908 123.359C255.866 123.442 255.808 123.432 255.765 123.39C255.656 123.282 255.48 122.976 255.031 122.513C254.757 122.229 254.313 121.922 254.017 121.676C253.551 121.29 253.191 120.817 252.727 120.062C252.454 119.617 252.193 118.995 251.976 118.582C251.43 117.542 250.858 117.209 250.579 117.073C250.33 116.951 250.185 116.709 249.963 116.13C249.917 116.01 249.927 115.964 249.905 115.942C249.858 115.894 249.67 115.949 249.413 115.999C249.159 116.048 248.43 116.049 247.359 116.021C246.14 115.989 245.78 115.778 245.499 115.742C245.248 115.709 244.991 115.677 244.57 115.656C244.433 115.635 244.333 115.606 244.084 115.584C243.892 115.577 243.566 115.577 243.23 115.577" stroke="white" stroke-width="5" stroke-linecap="round"/>
<path d="M239.067 117.036C239.067 117.522 239.096 117.722 239.117 117.93C239.139 118.139 239.21 118.395 239.275 118.581C239.336 118.758 239.353 119.024 239.41 119.232C239.471 119.453 239.582 119.824 239.668 120.155C239.741 120.434 239.739 120.87 239.79 121.106C239.806 121.183 239.797 121.298 239.797 121.151C239.797 120.071 239.726 119.785 239.704 119.662C239.67 119.47 239.64 120.083 239.618 120.255C239.596 120.433 239.511 120.598 239.454 120.77C239.425 120.856 239.397 120.956 239.375 121.063C239.365 121.113 239.368 121.156 239.403 121.065C239.648 120.432 239.625 120.114 239.604 119.978C239.58 119.826 239.283 120.098 239.111 120.205C239.07 120.231 239.025 120.241 238.989 120.291C238.827 120.515 238.967 120.812 239.06 121.071C239.136 121.282 239.181 121.457 239.232 121.806C239.363 122.721 239.282 123.242 239.246 123.738C239.217 124.146 239.139 124.574 239.103 124.969C239.078 125.238 239.024 125.434 238.982 125.699C238.896 126.228 238.967 127.065 238.967 127.7C238.968 128.342 238.867 128.711 238.846 128.926C238.812 129.254 238.781 129.769 238.774 130.213C238.77 130.434 238.853 130.77 238.81 131.029C238.778 131.221 238.724 131.444 238.688 131.644C238.666 131.771 238.667 131.902 238.638 132.03C238.604 132.186 238.595 132.912 238.588 133.899C238.582 134.789 238.581 135.793 238.602 136.001C238.609 136.051 238.623 136.094 238.631 136.151C238.638 136.209 238.638 136.279 238.638 136.352" stroke="white" stroke-width="5" stroke-linecap="round"/>
<path d="M241.9 122.445C241.886 122.899 241.886 123.874 241.907 124.403C241.926 124.863 241.972 125.176 242.15 125.926C242.291 126.521 242.315 126.779 242.337 127.058C242.356 127.31 242.401 127.737 242.422 128.053C242.451 128.468 242.487 128.754 242.487 129.011C242.488 129.735 242.202 130.212 241.937 130.627C241.639 131.096 241.558 131.343 241.464 131.594C241.251 132.166 241.329 133.174 241.335 133.376C241.338 133.496 241.797 132.979 242.262 132.521C242.441 132.344 242.514 132.29 243.138 131.694C243.763 131.098 244.938 129.965 245.629 129.325C246.652 128.376 246.879 128.369 247.022 128.276C247.086 128.234 247.108 128.169 247.108 128.105C247.111 127.715 246.453 127.24 245.88 126.875C245.21 126.446 244.608 126.609 244.098 126.644C243.99 126.652 243.891 126.652 243.861 126.659C243.831 126.666 243.874 126.68 243.918 126.694" stroke="white" stroke-width="5" stroke-linecap="round"/>
<path d="M240.32 138.949C240.298 138.949 240.236 138.954 240.199 138.959C240.134 138.967 240.103 138.966 240.083 138.956C240.055 138.942 240.037 138.941 240.016 138.934C239.988 138.924 239.942 138.9 239.919 138.887C239.902 138.877 239.887 138.863 239.871 138.851C239.854 138.837 239.827 138.818 239.804 138.804C239.784 138.792 239.77 138.783 239.743 138.776C239.701 138.766 239.681 138.759 239.663 138.754C239.645 138.748 239.624 138.741 239.604 138.736C239.576 138.73 239.563 138.714 239.547 138.7C239.529 138.684 239.494 138.668 239.472 138.655C239.45 138.642 239.435 138.628 239.42 138.62C239.409 138.615 239.427 138.648 239.43 138.67C239.437 138.71 239.426 138.789 239.429 138.831C239.431 138.854 239.434 138.883 239.437 138.916C239.445 139.005 239.441 139.036 239.445 139.066C239.447 139.092 239.449 139.183 239.446 139.239C239.444 139.267 239.436 139.295 239.424 139.325C239.408 139.365 239.388 139.396 239.382 139.413C239.364 139.467 239.341 139.536 239.336 139.555C239.331 139.57 239.308 139.619 239.29 139.658C239.278 139.684 239.267 139.708 239.256 139.738C239.236 139.792 239.214 139.833 239.201 139.859C239.171 139.928 239.165 139.949 239.154 139.98C239.152 139.989 239.152 139.999 239.152 140.008" stroke="white" stroke-width="5" stroke-linecap="round"/>
<path d="M239.234 140.496C239.227 140.495 239.206 140.495 239.184 140.505C239.164 140.512 239.147 140.518 239.134 140.525C239.126 140.53 239.116 140.536 239.098 140.543" stroke="white" stroke-width="5" stroke-linecap="round"/>
<path d="M282.689 53.04C282.713 53.04 282.736 53.04 282.725 53.0753C282.636 53.3486 282.263 53.4908 282.036 53.7404C281.821 53.9774 281.621 54.204 281.335 54.3944C281.049 54.5848 280.718 54.7746 280.349 54.9532C280.047 55.0994 279.766 55.3451 279.469 55.6183C279.121 55.9375 278.886 56.2238 278.696 56.5929C278.534 56.907 278.222 57.1752 277.959 57.4609C277.64 57.8084 277.27 58.0083 276.984 58.1744C276.688 58.3471 276.414 58.5546 276.105 58.7803C275.663 59.103 275.44 59.5046 275.071 59.8145C274.767 60.0695 274.489 60.3133 274.191 60.4806C273.797 60.7021 273.255 61.1678 272.729 61.5854C272.417 61.8334 272.135 62.025 271.849 62.1805C271.564 62.3358 271.279 62.4301 270.994 62.5371C270.678 62.6552 270.376 62.8581 270.066 62.9533C269.771 63.0441 269.308 63.3088 268.925 63.5235C268.776 63.6072 268.663 63.7375 268.58 63.8797C268.54 63.949 268.52 64.022 268.591 64.0466C269.11 64.2286 269.659 63.7867 269.993 63.7264C270.137 63.7004 270.279 63.6433 270.362 63.6547C270.704 63.7015 269.853 64.236 269.567 64.3915C269.271 64.5525 268.997 64.8066 268.723 65.033C268.435 65.2709 268.259 65.6624 267.998 65.8771C267.711 66.1129 267.287 66.5882 266.928 66.8873C266.637 67.1306 266.311 67.3741 265.741 67.8013C264.892 68.4379 264.693 68.8718 264.444 69.1575C264.204 69.4318 263.886 69.8218 263.506 70.1674C262.826 70.7844 261.895 71.6947 261.07 72.6023C259.886 73.9052 259.393 74.268 258.941 74.6606C258.414 75.1185 257.919 75.8114 257.55 76.3366C257.265 76.7413 256.825 77.3348 256.563 77.6447C256.258 78.0048 255.827 78.2391 255.529 78.4413C255.22 78.6509 255.018 79.0707 254.78 79.3917C254.447 79.8398 254.328 80.1405 254.102 80.4854C253.905 80.7868 253.71 81.1148 253.389 81.6023C253.314 81.7165 253.235 81.7809 253.246 81.782C253.371 81.7945 253.989 80.9336 254.927 79.7344C255.825 78.5861 256.228 78.3604 256.632 78.0747C257.03 77.793 257.369 77.3148 257.796 76.9814C258.249 76.6285 258.557 76.3634 258.95 76.0778C259.338 75.7952 259.58 75.7443 259.652 75.673C259.889 75.4376 258.751 76.0039 257.591 76.6786C257.023 77.009 256.222 77.6572 255.55 78.2431C254.879 78.829 254.385 79.3703 254.001 79.8963C253.289 80.8702 252.903 81.7082 252.57 82.1949C252.191 82.7511 251.927 83.0647 251.642 83.4331C251.265 83.9201 250.953 84.2301 250.277 85.0702C249.589 85.9264 248.792 86.8426 248.044 87.4481C247.359 88.0027 247.007 88.3653 246.318 89.2557C245.871 89.8336 245.532 90.3865 245.14 90.7556C244.87 91.01 244.558 91.2666 244.307 91.5522C244.035 91.8625 243.796 92.1938 243.547 92.5386C243.336 92.8303 243.154 93.1209 243.094 93.4066C243.033 93.6977 242.916 93.9768 242.798 94.2742C242.642 94.6635 242.37 94.904 242.156 95.2014C241.885 95.5777 241.61 95.7841 241.289 96.14C240.865 96.6103 240.73 96.901 240.575 97.1984C240.365 97.6014 239.969 97.7097 239.814 97.9711C239.648 98.2503 239.517 98.5413 239.279 98.827C239.224 98.8933 239.208 98.9693 239.172 98.9586C239.044 98.9202 239.041 98.5214 239.064 98.2001C239.071 98.1112 239.135 98.1847 239.159 98.2682C239.256 98.6004 238.994 98.8979 238.91 99.0894C238.777 99.394 239.016 98.4258 239.052 97.9975C239.087 97.5906 239.159 97.1178 239.243 96.7615C239.406 96.0644 239.444 95.5259 239.516 95.1917C239.578 94.904 239.35 94.6215 239.184 94.3359C238.995 94.0109 238.733 93.6944 238.519 93.397C238.455 93.3079 238.353 93.2194 238.328 93.2415C237.969 93.5592 239.014 94.5431 239.325 95.1062C239.372 95.1906 239.42 95.2606 239.409 95.3087C239.385 95.4146 239.208 95.4753 239.101 95.5469C238.815 95.7393 238.78 94.9068 238.744 94.5028C238.715 94.1832 238.566 93.9083 238.459 93.6227C238.337 93.2989 238.209 92.887 238.173 92.5529C238.141 92.2571 237.995 91.9827 237.9 91.697C237.805 91.4114 237.663 91.1268 237.236 90.6636C236.973 90.3788 236.831 90.057 236.676 89.7714C236.515 89.4756 236.355 89.2012 236.2 88.9155C236.051 88.6391 235.88 88.3453 235.572 87.9538C234.869 87.0602 234.549 86.8946 234.287 86.5979C233.859 86.1336 233.622 85.8491 233.348 85.6226C233.288 85.5631 233.241 85.4925 233.192 85.3484" stroke="white" stroke-width="5" stroke-linecap="round"/>
<path d="M234.69 84.0647C235.185 83.8992 236.187 83.661 236.685 83.4356C237.541 83.0488 238.634 82.3786 239.229 82.0687C239.683 81.832 240.061 81.6412 240.715 81.3555C241.242 81.1251 241.701 80.7625 242.047 80.5821C242.205 80.4997 242.463 80.4758 242.712 80.3214C242.88 80.2175 243.952 79.672 245.521 78.793C246.668 78.15 247.477 77.506 247.895 77.2186C248.343 76.911 249.47 76.153 250.705 75.2747C251.519 74.6959 252.277 73.9649 253.145 73.3351C253.871 72.8075 254.563 72.3224 254.814 72.0125C255.094 71.6657 255.679 71.0643 256.157 70.6456C256.543 70.3069 256.87 70.0159 257.392 69.6946C257.706 69.5016 258.011 69.3497 258.368 69.0883C258.736 68.8179 259.056 68.5652 259.449 68.3156C259.984 68.0189 260.531 67.638 260.933 67.3424C261.171 67.1409 261.477 66.835 261.792 66.5197" stroke="white" stroke-width="5" stroke-linecap="round"/>
<path d="M264.502 64.808C264.62 64.7374 264.737 64.6668 264.833 64.6069C264.929 64.547 265 64.4999 265.144 64.3801" stroke="white" stroke-width="5" stroke-linecap="round"/>
<path d="M238.542 86.5609C238.589 86.5138 238.895 86.2307 239.664 85.6501C241.451 84.3021 241.986 84.3043 242.439 84.0179C242.745 83.8239 243.105 83.6852 243.39 83.554C243.54 83.4853 243.723 83.3051 244.195 82.9973C245.071 82.4272 246.169 81.9992 246.881 81.536C247.506 81.1298 248.283 80.7867 249.13 80.2155C249.71 79.8244 250.375 79.1007 251.411 78.5152C252.369 77.9736 252.876 77.9082 253.161 77.7296C253.303 77.67 253.659 77.5045 254.122 77.267C254.303 77.1708 254.373 77.1237 254.446 77.0752" stroke="white" stroke-width="5" stroke-linecap="round"/>
<path d="M255.516 76.5046L255.801 76.4333" stroke="white" stroke-width="5" stroke-linecap="round"/>
<path d="M239.184 91.5533C239.513 91.2238 239.843 90.8943 240.354 90.2656C240.865 89.6369 241.547 88.719 241.969 88.1167C242.869 86.8337 243.318 86.1829 244.121 85.4144C244.697 84.8639 245.678 84.0575 246.634 83.3272C247.59 82.5968 248.508 81.9849 249.028 81.6344C249.548 81.2838 249.642 81.2132 249.739 81.0692" stroke="white" stroke-width="5" stroke-linecap="round"/>
<path d="M172.11 181.609C171.95 181.564 171.356 181.358 170.688 181.236C170.411 181.186 170.251 181.161 169.782 181.075C169.215 180.972 169.045 181.092 168.907 181.121C168.748 181.154 168.563 181.196 168.312 181.224C167.558 181.31 167.301 181.173 167.025 181.201C166.609 181.244 166.313 181.242 166.141 181.224C165.809 181.191 165.395 181.173 164.673 181.156C164.453 181.15 164.338 181.127 164.263 181.144C164.213 181.155 164.303 181.264 164.292 181.333C164.248 181.6 163.776 181.745 163.409 182.198C163.139 182.532 163.006 182.78 162.869 183.007C162.751 183.205 162.506 183.554 162.258 183.849C162.01 184.144 161.76 184.371 161.403 184.727C161.047 185.083 160.593 185.56 160.33 185.829C159.919 186.249 159.643 186.407 159.327 186.591C159.138 186.701 159.034 186.844 158.994 186.913C158.974 186.946 158.965 186.981 159.01 186.976C159.165 186.958 159.445 186.844 160.164 186.651C160.705 186.505 161.587 186.207 162.078 186.055C162.634 185.883 162.832 185.834 163.198 185.663C164.225 185.182 164.348 185.019 164.555 184.927C164.705 184.86 164.899 184.824 165.255 184.624C165.5 184.485 165.703 184.41 165.858 184.353C166.123 184.255 166.687 183.942 167.012 183.75C167.139 183.676 167.253 183.561 167.419 183.458C167.573 183.378 167.735 183.286 167.924 183.171C168.044 183.102 168.215 183.011 168.459 182.883" stroke="white" stroke-width="5" stroke-linecap="round"/>
<path d="M174.59 181.127C174.499 181.184 174.247 181.298 174.074 181.368C173.817 181.471 173.385 181.38 172.961 181.362C172.833 181.357 172.754 181.333 172.702 181.322C172.586 181.297 172.982 181.185 173.183 181.133C173.378 181.082 173.522 181.07 173.774 181.052C173.993 181.037 174.245 181.001 174.388 180.949C174.56 180.887 174.693 180.829 174.831 180.805C174.983 180.78 175.106 180.713 175.25 180.685C175.414 180.652 175.565 180.645 175.646 180.662C175.874 180.71 175.279 180.84 175.142 180.863C174.989 180.888 174.866 180.977 174.728 181.023C174.59 181.069 174.453 181.115 174.315 181.161C174.177 181.207 174.04 181.253 173.896 181.299C173.721 181.355 173.557 181.413 173.414 181.477C173.247 181.55 173.087 181.643 172.84 181.775C172.62 181.893 172.455 181.976 171.946 182.199C171.769 182.277 171.563 182.354 171.157 182.486C170.75 182.617 170.148 182.799 169.633 183.007C168.685 183.388 168.23 183.698 168.116 183.755C167.893 183.867 167.544 184.076 167.072 184.272C166.625 184.457 166.428 184.639 165.908 184.954C165.36 185.285 164.89 185.466 164.695 185.603C164.591 185.672 164.478 185.741 164.379 185.799C164.281 185.856 164.202 185.902 164.12 185.949" stroke="white" stroke-width="5" stroke-linecap="round"/>
<path d="M159.091 191.184C159.159 191.116 159.558 190.739 160.166 190.2C160.49 189.913 160.675 189.887 160.744 189.835C160.78 189.808 160.812 189.772 160.767 189.732C160.392 189.395 159.952 189.29 159.901 189.153C159.804 188.894 160.054 188.443 160.57 187.656C160.715 187.435 160.756 187.327 160.739 187.264C160.71 187.158 160.163 187.291 159.355 187.531C158.951 187.651 158.582 187.839 157.991 188.251C157.4 188.663 156.604 189.311 156.03 189.809C155.455 190.308 155.125 190.638 154.774 190.944C154.422 191.25 154.058 191.523 153.712 191.754C152.718 192.418 152.582 192.412 152.547 192.412C152.451 192.413 152.718 192.104 153.112 191.641C153.39 191.315 153.881 190.849 154.303 190.489C154.725 190.13 155.077 189.903 155.446 189.706C156.174 189.318 156.679 189.129 156.868 189.032C157.017 188.955 157.139 188.922 157.196 188.905C157.209 188.901 157.186 188.944 156.543 189.405C155.901 189.866 154.639 190.753 153.972 191.226C153.266 191.728 153.145 191.837 152.984 191.952C152.728 192.136 152.365 192.365 151.953 192.622C151.291 193.036 150.815 193.456 150.625 193.622C150.453 193.774 150.286 193.881 149.708 194.482C149.362 194.841 149.127 194.972 148.623 195.447C148.387 195.669 148.174 195.822 148.036 195.902C147.892 195.985 147.76 196.108 147.622 196.183C147.46 196.272 147.29 196.453 147.14 196.556C146.946 196.691 146.75 196.935 146.584 197.141C146.255 197.55 145.901 197.726 145.694 197.905C145.445 198.12 145.132 198.381 144.616 198.885C144.305 199.189 144.178 199.335 143.897 199.467C143.727 199.546 143.593 199.645 143.455 199.719C143.326 199.789 143.146 200 142.944 200.133C142.762 200.253 142.491 200.334 142.353 200.414C142.209 200.497 142.1 200.62 141.974 200.73C141.905 200.792 141.847 200.862 141.796 200.93C141.767 200.965 141.733 200.999 141.629 201.103" stroke="white" stroke-width="5" stroke-linecap="round"/>
<path d="M224 113L223 152" stroke="white"/>
<path d="M233.033 124.256C233.013 124.256 232.993 124.256 232.953 125.089C232.912 125.922 232.852 127.588 232.831 128.577C232.805 129.826 232.911 130.296 233.052 130.641C233.115 130.793 233.234 130.864 233.326 130.906C233.487 130.978 233.782 130.847 234.306 130.484C235.151 129.9 235.628 129.245 235.86 128.932C236.182 128.499 236.459 127.768 236.682 126.908C236.789 126.496 236.784 126.109 236.744 125.501C236.704 124.893 236.604 124.07 236.492 123.415C236.3 122.291 236.035 121.602 235.853 121.247C235.781 121.108 235.711 121.073 235.62 121.093C234.9 121.246 234.616 122.791 234.404 123.832C234.165 125 234.209 125.715 234.25 125.837C234.27 125.898 234.29 125.958 234.361 125.889C234.597 125.657 234.897 124.81 235.331 123.506C235.564 122.81 235.746 122.021 235.89 120.925C236.033 119.829 236.114 118.444 236.135 117.671C236.156 116.897 236.116 116.776 236.045 116.815C235.974 116.853 235.874 117.054 235.662 118.01C235.449 118.967 235.128 120.673 234.963 121.653C234.797 122.632 234.797 122.833 234.898 122.635C234.998 122.437 235.199 121.835 235.362 121.234C235.526 120.632 235.647 120.05 235.719 119.459C235.953 117.539 235.589 116.959 235.406 116.653C235.369 116.59 235.325 116.532 235.465 116.451C235.894 116.202 236.317 116.126 236.439 116.025C236.582 115.906 236.622 115.6 236.582 115.256C236.553 115.003 236.319 114.909 236.177 114.838C235.578 114.538 234.616 114.807 234.019 114.848C233.432 114.888 232.996 114.989 232.457 115.02C232.262 115.031 231.66 115.071 230.819 115.081C229.913 115.092 228.98 115.051 228.514 114.96C227.498 114.759 227.155 114.808 226.8 114.716C226.121 114.54 225.857 114.605 225.553 114.534C225.473 114.515 225.391 114.523 225.339 114.553C225.288 114.584 225.268 114.644 225.268 114.715C225.266 115.016 225.409 115.252 225.44 115.849C225.469 116.408 225.531 117.138 225.561 117.997C225.587 118.698 225.572 119.51 225.531 119.724C225.303 120.926 225.43 117.077 225.41 117.34C225.364 117.939 225.247 118.334 225.136 118.77C225.031 119.183 224.964 119.59 224.933 120.602C224.918 121.115 224.842 121.396 224.832 121.841C224.824 122.17 224.963 122.651 225.064 123.099C225.227 123.81 225.085 124.923 225.075 125.996C225.07 126.51 225.186 126.951 225.237 127.436C225.373 128.749 225.146 129.121 225.116 129.425C225.099 129.589 225.065 130.292 225.085 131.335C225.097 131.96 225.186 132.645 225.176 133.416C225.167 134.13 225.106 134.738 225.075 135.622C225.047 136.426 225.065 137.952 225.055 138.768C225.041 139.848 224.964 140.333 224.933 141.022C224.902 141.711 224.842 142.726 224.771 143.121C224.607 144.03 224.862 144.429 224.922 145.255C225.039 146.84 224.963 147.918 225.004 148.039C225.102 148.333 225.105 148.708 225.116 149.305C225.122 149.645 225.025 149.924 224.943 150.108C224.835 150.354 224.963 149.44 225.014 148.995C225.026 148.892 225.044 148.832 225.075 148.761C225.14 148.607 225.829 148.246 226.872 147.8C227.405 147.572 227.86 147.413 228.477 147.1C229.578 146.54 229.909 146.277 230.375 146.023C231.301 145.519 232.361 145.406 232.748 145.212C233.231 144.97 234.063 144.575 234.522 144.37C234.737 144.275 234.979 144.127 235.482 143.725C237.339 142.24 237.615 141.958 237.656 141.856C237.735 141.663 237.111 141.835 236.596 142.057C235.752 142.42 235.123 142.868 234.529 143.252C234.102 143.526 233.392 143.916 232.85 144.183C231.526 144.834 230.988 144.876 230.561 145.099C230.287 145.243 229.993 145.343 229.649 145.485C229.156 145.688 228.858 145.849 228.301 146.133C227.822 146.377 227.499 146.316 227.195 146.407C226.833 146.516 226.506 146.963 226.211 147.228C226.15 147.283 226.06 147.289 226.099 147.26C226.28 147.121 226.524 147.006 226.967 146.664C227.342 146.374 228.051 145.881 229.016 145.261C229.98 144.641 231.184 143.918 231.995 143.395C232.806 142.873 233.188 142.571 233.716 142.256C234.874 141.563 235.689 141.208 235.921 141.056C236.45 140.71 237.025 140.599 237.402 140.397C237.474 140.357 237.533 140.335 237.494 140.335C236.912 140.331 236.199 140.72 235.077 141.204C234.017 141.661 233.379 142.099 233.177 142.169C232.53 142.395 232.021 142.646 231.515 142.818C231 142.993 230.643 143.172 230.006 143.446C228.69 144.01 228.392 144.227 228.067 144.4C227.606 144.644 227.116 145.076 226.658 145.635C226.384 145.97 226.06 146.052 225.735 146.114C225.69 146.122 225.713 146.034 226.316 145.451C226.918 144.868 228.103 143.764 228.883 143.075C229.664 142.385 230.005 142.144 230.382 141.91C231.147 141.433 231.654 141.167 232.046 140.905C233.563 139.893 234.086 139.708 234.381 139.565C234.724 139.399 235.16 139.221 235.466 139.048C235.58 138.983 235.709 138.956 235.841 138.916C235.99 138.87 235.633 138.995 234.282 139.6C233.349 140.017 232.007 140.846 231.263 141.28C230.434 141.763 230.176 141.936 229.832 142.138C229.518 142.323 229.062 142.604 228.475 142.878C227.474 143.344 226.367 143.962 225.978 144.147C225.92 144.174 225.857 144.187 225.796 144.187C225.735 144.188 225.674 144.168 225.703 144.087C225.733 144.006 225.853 143.866 226.808 143.231C227.764 142.597 229.55 141.473 230.812 140.623C232.073 139.773 232.756 139.231 233.65 138.63C234.543 138.03 235.627 137.388 236.256 137.027C237.215 136.476 237.412 136.402 237.403 136.431C237.378 136.513 237.133 136.602 236.177 137.065C235.22 137.529 233.514 138.332 232.193 139.036C230.873 139.741 229.989 140.323 229.354 140.713C228.375 141.314 227.663 141.571 227.117 141.733C226.534 141.906 225.84 142.158 225.421 142.342C225.254 142.415 225.126 142.565 225.045 142.686C225.009 142.74 225.044 142.807 225.095 142.839C225.38 143.014 225.854 142.547 227.181 141.44C228.333 140.481 230.436 138.688 231.753 137.617C233.069 136.546 233.531 136.245 234.02 135.98C234.989 135.453 235.688 135.166 235.73 135.094C236.013 134.618 234.476 135.669 233.819 136.164C233.099 136.707 232.589 137.231 232.175 137.494C231.762 137.756 231.111 137.941 230.172 138.184C228.986 138.49 227.947 138.691 227.33 138.974C226.154 139.514 225.492 140.698 225.379 141.094C225.354 141.183 225.369 141.266 225.399 141.328C225.429 141.389 225.489 141.429 226.404 140.567C227.318 139.704 229.084 137.938 230.085 136.957C231.248 135.818 231.552 135.632 231.885 135.46C232.114 135.342 232.479 135.188 233.106 134.955C234.609 134.397 235.588 134.07 235.739 133.979C236.125 133.748 236.317 133.664 236.308 133.644C236.28 133.581 236.038 133.664 235.212 133.975C234.386 134.287 232.941 134.889 231.996 135.33C231.05 135.77 230.649 136.031 230.332 136.266C230.014 136.501 229.794 136.702 229.349 137.056C228.254 137.928 227.438 138.549 227.226 138.772C226.911 139.101 226.425 139.138 225.908 139.129C225.829 139.127 225.875 139.039 226.207 138.656C226.539 138.274 227.161 137.571 227.943 136.768C228.725 135.964 229.649 135.081 230.596 134.285C231.544 133.489 232.487 132.806 233.114 132.394C234.479 131.497 235.342 131.294 235.648 131.069C235.766 130.983 235.892 130.907 235.943 130.876C236.04 130.818 234.867 131.53 233.418 132.391C232.42 132.984 231.661 133.739 231.128 134.271C230.852 134.548 230.541 134.576 230.398 134.597C230.369 134.601 230.457 134.497 231.1 134.215C231.744 133.933 232.948 133.451 233.769 133.162C234.974 132.739 235.546 132.711 235.689 132.721C235.83 132.731 235.325 132.772 234.993 132.802C234.316 132.863 233.363 133.075 232.301 133.368C231.192 133.674 230.48 134.109 230.146 134.342C229.634 134.699 229.384 134.86 229.243 134.881C229.162 134.892 229.061 134.861 228.999 134.79C228.938 134.72 228.918 134.599 228.937 134.457C228.981 134.147 229.421 133.587 230.52 132.457C231.253 131.703 232.442 130.684 233.142 130.016C234.078 129.123 234.35 128.718 234.573 128.455C235.173 127.746 235.303 126.936 235.325 125.721C235.344 124.649 234.799 123.713 234.495 123.154C234.407 122.992 234.19 123.886 234.108 125.429C234.056 126.43 234.108 127.876 234.168 128.842C234.229 129.807 234.329 130.249 234.431 130.366C234.533 130.483 234.633 130.262 234.725 129.787C234.817 129.312 234.897 128.589 234.979 127.183C235.06 125.777 235.14 123.71 235.212 122.514C235.299 121.054 235.506 120.548 235.568 119.922C235.606 119.537 235.348 119.015 235.205 118.254C234.879 116.524 234.838 115.416 234.788 115.335C234.732 115.245 234.575 115.818 234.313 117.338C234.107 118.531 233.93 120.605 233.786 122.533C233.642 124.462 233.582 126.188 233.511 127.057C233.44 127.926 233.359 127.886 233.278 127.735C233.068 127.345 232.973 126.572 232.882 125.752C232.844 125.414 232.851 125.233 232.66 123.875C232.469 122.517 232.088 119.988 231.892 118.595C231.695 117.202 231.695 117.021 231.695 116.978C231.695 116.935 231.695 117.036 231.514 119.988C231.334 122.94 230.972 128.741 230.796 131.891C230.62 135.04 230.64 135.361 230.711 135.426C230.883 135.585 231.207 134.501 231.551 133.107C231.749 132.304 231.854 131.272 231.816 129.711C231.778 128.15 231.558 126.082 231.454 124.846C231.322 123.273 231.451 122.556 231.583 122.039C231.625 121.873 231.734 121.943 231.785 122.687C231.837 123.431 231.857 124.856 232.068 126.774C232.279 128.693 232.681 131.061 232.938 132.402C233.195 133.743 233.295 133.984 233.387 134.168C233.479 134.352 233.559 134.473 233.66 134.324C233.762 134.175 233.883 133.754 233.935 133.125C233.987 132.496 233.966 131.673 233.745 129.212C233.524 126.751 233.103 122.676 232.875 120.546C232.648 118.417 232.628 118.357 232.618 118.366C232.55 118.425 232.628 118.659 232.768 120.206C232.898 121.632 233.11 124.363 233.284 126.01C233.458 127.658 233.578 128.139 233.65 128.327C233.723 128.515 233.743 128.395 233.632 126.376C233.522 124.356 233.282 120.442 233.188 118.546C233.094 116.65 233.154 116.891 233.215 117.286C233.483 119.019 233.621 119.612 233.622 119.694C233.623 119.919 233.117 118.968 232.662 117.968C232.088 116.707 231.858 115.762 231.716 115.448C231.588 115.165 231.453 114.849 231.23 114.586C230.978 114.287 230.561 114.362 230.267 114.462C230.152 114.501 230.055 114.683 229.973 114.866C229.891 115.048 229.851 115.269 229.91 116.587C229.97 117.905 230.131 120.314 230.133 122.79C230.135 125.265 229.975 127.734 229.922 129.237C229.87 130.74 229.93 131.201 229.991 131.55C230.226 132.889 231.066 133.927 231.077 134.332C231.09 134.84 230.642 135.547 230.439 136.126C230.399 136.239 230.378 136.299 230.337 136.32C230.297 136.341 230.236 136.321 230.175 136.27C230.038 136.157 229.932 135.856 229.84 134.869C229.768 134.086 229.809 132.718 229.769 131.754C229.729 130.79 229.649 130.268 229.668 128.203C229.687 126.137 229.807 122.544 229.909 120.392C230.011 118.24 230.092 117.638 230.133 117.287C230.215 116.595 230.235 115.584 230.185 114.86C230.171 114.667 230.154 114.504 230.104 114.352C230.079 114.278 230.033 114.22 229.962 114.23C229.892 114.239 229.791 114.319 229.348 114.782C228.905 115.245 228.122 116.088 227.679 116.592C227.13 117.217 226.992 117.643 226.86 118.119C226.758 118.487 226.768 119.001 226.939 120.451C227.07 121.566 227.45 123.427 227.636 124.55C227.822 125.672 227.842 125.993 227.782 126.721C227.722 127.448 227.582 128.572 227.469 129.322C227.357 130.072 227.277 130.413 227.235 131.02C227.194 131.628 227.194 132.491 227.234 133.217C227.274 133.942 227.354 134.504 227.396 135.015C227.519 136.537 227.236 137.148 227.013 137.726C226.929 137.941 226.91 138.002 226.9 137.591C226.89 137.181 226.89 136.298 226.97 135.542C227.116 134.17 227.376 133.362 227.396 132.887C227.408 132.613 227.457 132.272 227.537 131.815C227.618 131.358 227.739 130.796 227.801 129.794C227.863 128.792 227.863 127.367 227.903 125.639C227.943 123.911 228.023 121.924 228.175 120.318C228.327 118.712 228.548 117.548 228.652 116.898C228.771 116.152 228.674 115.984 228.593 115.852C228.503 115.706 228.411 115.538 228.26 115.416C228.181 115.354 228.048 115.375 227.936 115.415C227.424 115.598 226.813 116.585 226.353 117.128C226.111 117.414 225.958 118.228 225.896 119.482C225.831 120.821 226.22 121.679 226.321 122.003C226.42 122.317 226.403 122.994 226.393 123.824C226.387 124.295 226.302 124.599 226.191 125.113C225.999 126.005 225.836 126.788 225.684 127.183C225.569 127.484 225.41 127.862 225.259 128.469C225.07 129.223 225.165 130.212 225.347 131.123C225.459 131.68 225.672 132.502 225.874 133.535C226.091 134.639 226.402 135.931 226.524 136.41C226.548 136.501 226.565 136.582 226.605 136.614C226.685 136.676 227.19 135.721 227.848 134.322C228.144 133.695 228.207 133.262 228.258 131.832C228.298 130.704 228.249 128.756 228.248 127.552C228.248 125.947 228.269 125.393 228.118 124.718C227.998 124.182 227.746 123.261 227.582 122.875C227.418 122.49 227.337 122.671 227.246 123.075C227.154 123.479 227.054 124.101 226.992 125.034C226.93 125.967 226.91 127.192 226.98 128.696C227.05 130.2 227.211 131.946 227.304 132.886C227.396 133.826 227.416 133.906 227.447 133.987C227.477 134.069 227.517 134.149 227.568 134.09C227.619 134.031 227.679 133.83 227.77 133.195C227.862 132.56 227.982 131.496 228.024 130.466C228.066 129.436 228.026 128.473 227.965 127.886C227.885 127.11 227.661 126.832 227.489 126.67C227.337 126.527 227.073 126.588 226.831 126.648C226.306 126.779 225.94 127.598 225.714 127.986C225.485 128.38 225.268 128.635 225.227 128.766C225.133 129.07 225.59 129.384 225.774 129.709C226.042 130.185 226.179 130.459 226.352 130.713C226.385 130.763 226.463 130.724 227.497 129.118C228.532 127.512 230.539 124.32 231.895 122.315C233.25 120.309 233.892 119.587 234.384 119.094C235.157 118.319 235.567 118.052 235.628 117.881C235.719 117.624 235.629 117.383 235.558 117.231C235.321 116.722 234.317 116.431 233.795 116.187C233.307 115.959 233.217 115.639 232.963 115.568C232.817 115.527 232.348 115.698 231.619 116.001C230.942 116.283 230.34 116.671 229.642 116.914C228.366 117.359 227.946 117.099 227.368 116.897C226.981 116.761 226.689 116.612 226.374 116.511C225.941 116.372 225.674 116.247 225.269 116.247C225.077 116.246 224.944 116.408 224.842 116.53C224.795 116.586 224.781 116.651 224.781 116.732C224.779 117.295 225.388 117.868 225.49 118.121C225.617 118.437 225.592 118.78 225.622 119.347C225.636 119.592 225.673 119.915 225.723 120.55C225.804 121.575 225.977 122.328 225.987 122.622C225.998 122.936 226.038 123.261 226.048 123.574C226.058 123.869 226.099 124.153 226.189 125.751C226.272 127.209 226.46 129.979 226.533 131.627C226.626 133.714 226.485 134.271 226.434 134.484C226.323 134.948 226.645 135.948 226.948 137.364C227.215 138.605 227.194 139.36 227.184 139.633C227.153 140.473 227.093 141.53 227.002 141.894C226.815 142.641 226.667 143.293 226.475 143.901C226.296 144.469 226.1 145.075 225.937 145.645C225.896 146.214 225.856 146.477 225.846 146.72C225.835 146.823 225.815 146.883 225.795 146.945" stroke="white" stroke-width="2" stroke-linecap="round"/>
<path d="M222.753 90.6786C222.934 90.5374 223.339 90.2941 224.697 89.8212C225.886 89.4068 228.122 88.726 229.32 88.354C230.776 87.9019 231.105 87.8403 231.541 87.6481C231.833 87.5194 231.998 87.2527 232.252 86.9793C232.305 86.9221 232.263 86.8476 232.202 86.8065C231.852 86.5692 231.191 86.603 230.683 86.5526C230.117 86.4963 229.751 86.6432 229.425 86.7244C228.931 86.8476 228.19 86.906 227.632 87.2804C226.832 87.8169 226.647 88.1031 226.404 88.2448C226.15 88.392 225.998 88.6092 225.846 88.8428C225.672 89.1097 225.269 89.2783 224.944 89.5219C224.644 89.7467 224.457 90.0082 224.274 90.3023C224.091 90.5962 223.929 90.9207 223.899 91.4167C223.854 92.134 223.888 93.2322 223.969 93.5968C224.063 94.0202 224.131 94.3879 224.273 94.692C224.415 94.9969 224.496 95.2395 224.577 95.4831C224.679 95.787 224.8 96.1921 224.942 96.5975C225.116 97.0952 225.125 97.7104 225.176 98.2298C225.198 98.4613 225.206 98.6465 225.237 99.2396C225.315 100.774 225.227 101.89 225.196 102.183C225.097 103.143 225.287 103.391 225.318 103.786C225.33 103.94 225.369 104.381 225.359 104.989C225.343 105.922 225.268 107.303 225.186 107.689C225.114 108.031 225.165 108.439 225.136 108.894C225.08 109.736 225.186 110.222 225.126 110.619C225.085 110.883 224.963 111.116 224.923 111.501C224.863 112.063 224.659 112.534 224.588 112.869C224.485 113.357 224.517 113.75 224.637 113.995C225.08 114.895 225.712 112.883 226.036 112.507C226.371 112.12 226.645 111.747 226.888 111.453C227.185 111.095 227.415 110.734 227.922 110.186C228.381 109.689 228.956 109.09 229.321 108.847C229.834 108.505 230.192 107.835 230.679 107.448C231.201 107.034 231.651 106.679 232.209 106.273C232.722 105.9 233.173 105.441 233.607 105.128C234.454 104.518 234.754 104.204 235.16 103.829C235.661 103.367 236.155 102.846 236.771 102.198C237.086 101.868 237.31 101.528 237.393 101.304C237.575 100.806 236.198 101.95 234.873 102.881C234.051 103.459 233.135 104.12 232.791 104.465C232.23 105.027 231.657 105.661 231.159 106.107C230.726 106.496 230.237 107.058 229.821 107.647C229.144 108.604 228.371 109.068 228.026 109.291C227.591 109.573 227.175 109.919 226.88 110.163C226.576 110.415 226.283 110.81 225.978 111.046C225.873 111.126 225.734 111.157 225.653 111.178C225.262 111.277 225.633 110.206 225.551 109.962C225.511 109.841 225.53 109.678 225.621 109.516C225.796 109.205 226.721 108.748 227.724 108.05C228.178 107.734 228.465 107.413 228.821 106.996C229.604 106.08 230.132 105.38 230.375 105.127C230.857 104.626 231.45 104.041 232.289 103.243C232.817 102.741 233.314 102.482 233.802 102.136C234.269 101.804 234.816 101.386 235.16 101.092C235.512 100.791 236.793 99.8722 237.574 99.2563C237.698 99.1583 237.757 99.0127 237.788 98.9114C237.8 98.8711 237.718 98.8503 237.627 98.86C237.193 98.9063 236.686 99.1934 235.25 99.961C234.12 100.565 233.44 101.181 233.127 101.433C232.443 101.984 232.203 102.315 231.888 102.641C231.545 102.995 230.967 103.633 230.631 104.069C230.273 104.536 229.651 105.01 229.252 105.368C228.626 105.931 227.803 106.656 227.125 107.131C226.626 107.48 226.364 107.709 226.069 107.853C225.184 108.285 226.18 106.314 226.199 105.897C226.214 105.585 226.726 105.622 227.219 105.381C228.407 104.8 229.22 104.244 229.743 103.781C230.192 103.385 230.989 102.636 231.563 102.133C232.138 101.63 232.459 101.389 232.815 101.064C233.58 100.367 234.246 99.6636 234.783 99.208C235.415 98.6713 235.729 98.4658 236.113 98.0914C236.726 97.4936 236.965 97.2091 237.239 96.8439C237.477 96.5275 237.776 96.377 237.91 96.2851C238.083 96.1659 237.334 96.335 236.437 96.8378C235.718 97.2411 234.557 98.1033 233.716 98.6979C232.407 99.6239 231.838 100.106 231.656 100.308C231.329 100.671 230.844 101.119 230.298 101.626C230.011 101.892 229.709 102.113 229.345 102.326C228.498 102.82 228.148 103.107 227.843 103.269C227.507 103.449 227.135 103.634 226.809 103.847C226.369 104.135 225.918 104.465 225.613 104.719C225.552 104.77 225.491 104.81 225.46 104.58C225.363 103.854 225.49 103.271 225.631 103.149C226.112 102.737 227.41 102.341 228.255 101.953C228.691 101.754 229.138 101.446 230.044 100.802C230.735 100.312 231.794 99.3552 232.373 98.8494C233.187 98.1376 233.559 97.6155 233.843 97.2697C234.255 96.7682 234.613 96.4378 235.573 95.6498C236.391 94.979 236.681 94.3307 236.885 94.015C236.997 93.8409 237.149 93.7206 237.129 93.6695C237.108 93.6132 236.909 93.7589 236.144 94.3122C235.379 94.8654 234.014 95.8891 233.22 96.5169C232.217 97.3103 231.819 97.7529 231.374 98.1173C230.753 98.6251 230.358 98.7882 229.508 99.1021C228.933 99.3145 228.19 99.8211 227.55 100.399C227.234 100.685 226.911 100.796 226.465 101.069C226.345 101.143 226.223 101.201 226.14 101.192C225.99 101.175 225.977 100.437 226.057 99.5151C226.087 99.1671 226.298 99.0948 226.411 99.0434C226.768 98.8809 227.353 98.8101 227.699 98.6477C227.879 98.5633 228.446 98.2043 229.326 97.5671C230.132 96.984 230.518 96.5795 230.629 96.4482C230.777 96.2735 231.406 95.7322 232.347 94.8517C233.123 94.1252 233.56 93.7814 233.791 93.5396C234.288 93.0204 234.856 92.6263 235.31 92.3635C236.373 91.7491 237.063 91.3112 237.463 90.8118C237.528 90.7297 237.554 90.6396 237.524 90.5682C237.495 90.4967 237.394 90.4365 237.282 90.4155C236.849 90.3342 236.362 90.6372 235.108 91.3233C233.877 91.9968 233.176 92.6652 232.984 92.7562C232.618 92.9291 232.305 93.4134 231.859 93.8298C231.222 94.4229 230.824 94.9153 230.641 95.0874C230.581 95.1445 230.659 95.1993 230.751 95.2C230.966 95.2014 231.287 95.0789 231.782 94.9478C232.472 94.765 233.111 94.5114 233.878 94.2997C236.037 93.7035 236.317 93.5174 236.328 93.5171C236.553 93.5109 235.852 93.6391 235.64 93.5886C235.404 93.5324 235.203 93.3964 235.031 93.1342C234.512 92.3422 234.675 91.4541 234.635 90.7038C234.622 90.4525 234.515 90.4754 234.393 90.566C234.09 90.7918 233.885 91.063 233.613 91.3754C233.062 92.0085 232.588 92.442 232.265 92.7841C231.57 93.5223 230.947 94.3258 230.471 94.731C230.13 95.0214 229.509 95.3393 228.81 95.8152C228.148 96.2663 227.642 96.7383 227.074 97.2161C226.914 97.3505 226.809 97.4908 226.657 97.5519C226.523 97.6059 226.504 96.4469 226.524 94.8864C226.537 93.9132 226.119 93.6604 225.977 93.4067C225.818 93.1213 225.794 91.7054 225.734 90.8519C225.729 90.7781 225.693 90.7005 225.653 90.7093C225.508 90.7409 225.45 91.2029 225.389 91.9398C225.301 93.0146 225.389 93.8198 225.449 94.2036C225.654 95.5034 226.139 96.658 226.26 97.054C226.311 97.2198 226.301 97.3691 226.362 97.4905C226.394 97.5561 226.462 97.6118 226.503 97.5525C226.852 97.0491 226.625 96.2176 226.656 95.6078C226.67 95.3234 226.847 94.5175 227.08 93.2227C227.414 91.3681 227.315 90.9851 227.406 90.6691C227.422 90.612 227.536 90.6579 227.598 90.7084C227.726 90.8135 227.841 91.2631 228.094 92.4426C228.272 93.2756 228.446 94.6057 228.58 95.3785C228.796 96.6303 228.897 96.9026 228.907 97.0543C228.911 97.1263 228.937 97.186 228.947 97.0564C228.957 96.9269 228.957 96.6057 228.877 96.0287C228.797 95.4518 228.636 94.6288 228.503 94.0342C228.293 93.0929 228.147 92.5661 228.116 92.192C228.041 91.2724 228.268 90.4973 228.369 90.2938C228.389 90.253 228.47 90.2929 228.521 90.3835C228.652 90.6164 228.774 91.6232 229.016 93.0509C229.294 94.686 229.929 95.2395 230.123 95.4932C230.236 95.6426 230.336 95.7876 230.427 95.7885C230.505 95.7893 230.538 95.5485 230.589 94.9335C230.64 94.3185 230.68 93.2747 230.681 92.4961C230.682 91.2351 230.52 90.358 230.388 89.7299C230.315 89.3832 230.276 89.2193 230.245 89.1883C229.678 88.6101 230.882 91.3647 231.065 91.8626C231.353 92.6434 231.471 92.9682 231.593 93.3131C231.629 93.4161 231.694 93.5351 231.755 93.5871C231.816 93.6391 231.876 93.619 231.987 93.3678C232.099 93.1166 232.259 92.6348 232.352 91.8547C232.445 91.0746 232.465 90.0107 232.455 89.4325C232.445 88.8543 232.405 88.7941 232.354 88.733C232.249 88.6065 232.101 88.5295 231.889 88.4991C231.58 88.4547 231.21 88.5289 230.705 88.68C229.081 89.1666 228.471 89.7254 228.45 89.7458C227.771 90.4055 230.861 89.8063 231.358 89.837C231.551 89.8671 231.734 89.9079 232.017 89.9383C232.199 89.9486 232.46 89.9486 232.85 90.0095" stroke="white" stroke-width="2" stroke-linecap="round"/>
<path d="M212.5 93.5C216.446 119.217 217 128.5 212.5 160" stroke="white"/>
<path d="M224.28 98.9287C223.642 96.5392 223.321 94.4054 223.083 93.6822C222.785 92.7788 221.355 95.617 220.42 98.7561C219.703 101.164 221.448 103.602 223.023 105.769C223.293 106.14 223.478 106.278 223.585 106.175C223.946 105.83 223.748 103.371 223.589 100.203C223.505 98.5452 222.686 95.967 221.941 92.5585C221.67 91.3126 221.617 91.0489 221.59 91.0713C221.563 91.0937 221.563 91.4101 221.563 91.7362" stroke="white" stroke-width="2" stroke-linecap="round"/>
<path d="M222.515 96.0289C222.671 95.8238 223.128 95.3429 223.798 94.6368C224.401 94.0022 224.656 93.5616 224.686 93.4347C224.699 93.381 224.633 93.3438 224.59 93.3253C224.516 93.2932 224.367 93.3188 224.138 93.3549C223.881 93.3954 223.341 93.5358 222.701 93.6748C222.173 93.7893 221.729 94.0204 221.361 94.141C220.836 94.3132 220.532 94.3347 220.024 94.4858C219.834 94.5426 219.672 94.5408 219.545 94.5109C219.448 94.488 219.754 94.0958 220.159 93.6786C220.351 93.4801 220.757 93.3442 221.343 93.1689C221.698 93.0628 221.861 93.0527 221.897 93.0467C222.046 93.0224 221.368 93.0041 221.07 93.0946C220.881 93.1522 220.605 93.2698 220.201 93.4146C219.679 93.6019 219.129 93.7173 218.665 93.9102C217.817 94.2621 217.592 94.4922 217.193 94.6551C217.109 94.6897 217.071 94.686 217.041 94.704C216.906 94.7833 216.877 94.9756 216.666 95.1872C216.35 95.504 215.778 95.7131 215.553 95.8411C215.48 95.8827 215.389 95.8957 215.293 95.9378C215.179 95.9874 215.123 96.1131 215.087 96.2216C214.998 96.4859 215.243 96.8136 215.412 97.2011C215.521 97.4478 215.473 97.9729 215.516 98.4111C215.523 98.4861 215.558 98.5442 215.72 99.0481C215.882 99.5521 216.181 100.498 216.419 101.698C216.657 102.898 216.825 104.324 216.923 105.094C217.031 105.938 217.118 106.297 217.191 106.769C217.219 106.952 217.216 107.025 217.198 107.05C217.18 107.075 217.144 107.051 217.101 106.985C217.059 106.918 217.011 106.811 216.908 106.468C216.806 106.125 216.65 105.55 216.552 105.116C216.393 104.412 216.381 103.943 216.375 103.653C216.37 103.42 216.321 103.18 216.272 102.98C216.215 102.746 216.199 102.455 216.163 102.164C216.138 101.96 216.043 101.537 215.91 101.041C215.779 100.555 215.848 100.204 215.873 99.7473C215.893 99.3633 215.897 98.6683 215.921 98.3344C215.945 98.0005 215.981 98.0484 216.071 98.1988C216.529 98.9608 216.875 99.2701 217.172 99.3619C217.373 99.4241 217.65 99.2962 217.909 99.1574C218.118 99.0458 218.435 98.7532 218.84 98.3667C219.012 98.2024 219.089 98.0759 219.258 97.8705C219.427 97.6651 219.679 97.3776 220.054 96.8882C220.429 96.3988 220.92 95.7161 221.143 95.3823C221.366 95.0486 221.306 95.0845 220.886 95.654C220.466 96.2235 219.687 97.3254 219.155 98.1685C218.622 99.0116 218.358 99.5626 218.21 99.8943C218.063 100.226 218.039 100.322 218.038 100.395C218.038 100.469 218.062 100.516 218.122 100.517C218.285 100.519 218.629 100.157 219.106 99.6201C219.341 99.3551 219.523 99.0712 219.711 98.7616C219.9 98.452 220.079 98.1166 220.25 97.7342C220.602 96.9438 220.748 96.4409 220.766 96.3741C220.769 96.3651 220.773 96.4151 220.683 97.3081C220.593 98.2012 220.413 99.9379 220.321 100.862C220.222 101.846 220.216 101.981 220.234 102.071C220.241 102.106 220.336 102.055 220.57 101.791C220.805 101.527 221.2 101.035 221.667 100.387C222.134 99.739 222.661 98.9485 222.478 99.3018C222.294 99.6551 221.384 101.176 220.765 102.331C220.146 103.486 219.847 104.229 219.693 104.635C219.539 105.042 219.539 105.09 219.568 105.114C219.598 105.139 219.658 105.139 219.737 105.091C219.816 105.043 219.912 104.947 220.242 104.539C220.573 104.13 221.136 103.411 221.57 102.903C222.261 102.094 222.635 101.812 222.744 101.752C222.805 101.718 222.876 101.668 222.931 101.715C222.986 101.762 223.022 101.906 223.023 102.028C223.023 102.15 222.987 102.246 222.633 102.954C222.279 103.662 221.609 104.979 221.257 105.718C220.894 106.576 220.893 106.783 220.93 106.94C220.954 107.014 220.99 107.073 221.027 107.135" stroke="white" stroke-width="4" stroke-linecap="round"/>
<path d="M217.397 127.751C217.385 127.655 217.361 127.365 217.403 127.003C217.424 126.823 217.445 126.511 217.529 125.967C217.613 125.423 217.757 124.657 217.861 124.022C217.965 123.388 218.025 122.909 218.056 122.602C218.125 121.91 218.159 121.473 218.25 120.972C218.283 120.786 218.304 120.386 218.353 119.734C218.401 119.085 218.281 118.474 218.166 117.997C218.087 117.669 218.002 117.504 217.942 117.324C217.824 116.97 217.676 116.562 217.597 116.247C217.567 116.125 217.555 116.077 217.506 116.262C217.458 116.447 217.375 116.866 217.325 117.285C217.276 117.705 217.264 118.112 217.294 118.705C217.324 119.298 217.396 120.065 217.534 120.873C217.673 121.681 217.877 122.508 218.096 123.34C218.314 124.173 218.542 124.988 218.683 125.641C218.824 126.294 218.872 126.761 218.891 127.313C218.909 127.865 218.897 128.488 218.873 128.917C218.821 129.847 218.752 130.156 218.74 130.466C218.74 130.471 218.74 130.342 218.68 129.819C218.62 129.296 218.5 128.374 218.451 127.678C218.401 126.981 218.425 126.538 218.461 126.202C218.498 125.866 218.545 125.65 218.624 125.162C218.703 124.673 218.81 123.919 218.848 122.853C218.885 121.788 218.85 120.434 218.837 119.755C218.825 119.076 218.836 119.112 218.831 119.951C218.825 120.79 218.801 122.431 218.962 124.342C219.124 126.253 219.471 128.385 219.824 129.974C220.176 131.564 220.523 132.546 220.756 133.142C220.989 133.738 221.097 133.917 221.17 134.034C221.244 134.15 221.28 134.198 221.316 134.091C221.353 133.984 221.389 133.72 221.335 131.441C221.282 129.161 221.138 124.873 220.986 122.335C220.835 119.797 220.679 119.138 220.587 118.769C220.494 118.399 220.47 118.339 220.482 118.362C220.494 118.386 220.542 118.493 220.818 120.579C221.094 122.665 221.597 126.725 221.886 128.936C222.175 131.148 222.235 131.387 222.314 131.631C222.393 131.874 222.488 132.113 222.574 132.231C222.659 132.348 222.731 132.336 222.828 132.222C222.925 132.108 223.045 131.893 223.148 131.62C223.252 131.347 223.336 131.024 223.451 129.174C223.566 127.325 223.709 123.959 223.754 122.04C223.798 120.12 223.738 119.749 223.695 119.528C223.652 119.307 223.628 119.247 223.61 119.192C223.591 119.137 223.58 119.089 223.49 119.586C223.399 120.082 223.232 121.124 223.098 121.763C222.963 122.401 222.867 122.605 222.769 122.815" stroke="white" stroke-width="4" stroke-linecap="round"/>
<path d="M217.869 116.064C217.869 115.98 217.893 115.762 217.941 115.156C217.98 114.67 217.989 113.819 217.996 113.339C218.005 112.652 217.917 112.412 217.869 112.169C217.818 111.912 217.736 111.65 217.663 111.322C217.634 111.192 217.603 110.864 217.501 110.381C217.348 109.662 217.083 109.35 216.95 108.711C216.875 108.352 216.889 107.696 216.847 107.425C216.799 107.115 216.816 108.221 216.894 108.686C216.998 109.301 217.154 109.457 217.251 109.645C217.36 109.854 217.372 110.134 217.403 110.762C217.425 111.223 217.457 111.732 217.464 112.353C217.467 112.68 217.361 112.869 217.331 113.075C217.301 113.279 217.288 114.193 217.324 114.786C217.332 114.915 217.433 115.047 217.559 115.144C217.607 115.18 217.65 115.145 217.687 115.055C217.723 114.964 217.759 114.809 217.778 114.501C217.796 114.193 217.796 113.738 217.73 113.174C217.664 112.61 217.533 111.952 217.459 111.474C217.343 110.726 217.337 110.294 217.3 110.047C217.277 109.884 217.228 109.546 217.113 109.062C217.032 108.717 216.902 108.371 216.793 107.931C216.683 107.484 216.671 107.1 216.683 106.924C216.697 106.725 216.78 107.351 216.726 107.672C216.652 108.111 216.454 108.427 216.381 108.816C216.311 109.185 216.368 109.795 216.435 110.134C216.514 110.543 216.839 111.004 217.152 111.541C217.537 112.2 217.832 112.651 217.905 112.85C218.007 113.131 218.098 113.316 218.153 113.516C218.164 113.558 218.159 113.595 218.195 113.601C218.303 113.621 218.533 113.416 218.846 113.096C219.012 112.927 219.16 112.717 219.498 112.151C219.836 111.585 220.351 110.662 220.939 109.421C221.528 108.179 222.175 106.646 222.592 105.706C223.009 104.767 223.177 104.467 222.88 105.134C222.583 105.8 221.816 107.441 221.415 108.304C221.014 109.167 221.002 109.203 221.002 109.24C221.002 109.276 221.014 109.312 221.038 109.325C221.207 109.412 221.557 108.976 222.105 108.29C222.493 107.804 223.071 107.006 223.386 106.575C223.7 106.144 223.724 106.096 223.179 106.526C222.635 106.957 221.521 107.867 220.785 108.42C219.761 109.189 219.345 109.325 219.243 109.343C219.189 109.353 219.128 109.349 219.073 109.337C219.019 109.325 218.971 109.301 218.934 109.229C218.843 109.049 218.921 108.686 219.119 108.18C219.366 107.55 219.659 107.184 219.821 107.004C220.102 106.691 220.552 106.362 221.023 106.085C221.41 105.856 221.931 105.672 222.456 105.467C222.898 105.295 223.059 105.139 223.107 105.127C223.133 105.12 223.108 105.234 222.88 105.72C222.652 106.207 222.209 107.093 221.933 107.729C221.657 108.366 221.561 108.725 221.493 109.138C221.426 109.55 221.39 110.005 221.384 110.414C221.377 110.822 221.401 111.169 221.509 111.719C221.617 112.269 221.809 113.012 221.926 113.437C222.156 114.276 222.309 114.817 222.327 114.866C222.331 114.878 222.333 114.771 222.561 113.243C222.788 111.714 223.243 108.744 223.484 107.076C223.724 105.408 223.736 105.132 223.73 105.008C223.725 104.885 223.701 104.92 223.545 105.328C223.389 105.736 223.101 106.515 222.875 107.251C222.649 107.987 222.493 108.658 222.401 109.692C222.309 110.727 222.285 112.104 222.345 113.448C222.404 114.793 222.548 116.062 222.616 116.782C222.696 117.632 222.612 117.853 222.491 118.004C222.43 118.082 222.323 118.119 222.232 118.138C222.06 118.173 221.862 118.085 221.669 117.994C221.519 117.924 221.175 117.519 220.715 116.927C220.473 116.614 220.362 116.272 220.217 115.819C220.079 115.389 220.095 114.821 220.173 114.091C220.264 113.238 220.506 112.737 220.482 112.922C220.451 113.169 220.315 113.718 220.259 114.229C220.204 114.74 220.216 115.196 220.282 115.688C220.348 116.18 220.467 116.695 220.625 117.163C220.783 117.632 220.974 118.04 221.115 118.315C221.255 118.591 221.339 118.723 221.406 118.815C221.474 118.906 221.522 118.954 221.607 118.967" stroke="white" stroke-width="4" stroke-linecap="round"/>
<path d="M224.003 149.745C223.691 149.949 223.38 150.153 222.836 150.533C222.292 150.913 221.526 151.464 221.023 151.808C220.318 152.291 219.987 152.431 219.818 152.491C219.448 152.624 218.887 152.83 218.686 152.975C218.568 153.061 218.342 153.204 218.023 153.458C217.378 153.969 217.083 154.076 216.956 154.203C216.784 154.375 216.49 154.536 216.291 154.681C216.142 154.79 216.042 154.935 215.801 155.291C215.682 155.467 215.607 155.624 215.432 155.812C215.233 156.025 215.051 156.157 214.941 156.266C214.89 156.318 214.953 156.026 215.073 155.605C215.312 154.769 215.558 154.138 215.636 153.951C215.688 153.827 215.835 153.379 216.071 152.714C216.276 152.135 216.32 151.948 216.434 151.474C216.528 151.081 216.728 150.389 216.832 149.995C216.956 149.531 217.045 149.192 217.178 148.756C217.252 148.516 217.336 148.163 217.469 147.704C217.522 147.521 217.53 147.436 217.716 146.86C217.901 146.284 218.261 145.218 218.464 144.597C218.713 143.835 218.74 143.636 218.722 143.576C218.716 143.555 218.668 143.587 218.434 143.947C218.2 144.306 217.769 145.001 217.529 145.401C217.242 145.878 217.108 146.378 216.932 147.025C216.85 147.327 216.744 147.638 216.606 148.085C216.501 148.42 216.393 148.584 216.303 148.812C215.918 149.786 215.849 150.095 215.686 150.5C215.6 150.713 215.619 150.942 215.588 151.124C215.565 151.269 215.546 151.941 215.588 152.238C215.629 152.525 215.655 151.694 215.667 151.543C215.687 151.283 215.727 151.041 215.841 150.279C215.943 149.599 216.183 148.331 216.3 147.641C216.417 146.951 216.417 146.88 216.459 146.549C216.501 146.219 216.585 145.632 216.694 145.012C216.803 144.392 216.935 143.758 217.008 143.413C217.12 142.89 217.083 142.596 217.064 142.415C217.059 142.366 217.046 142.318 216.992 143.096C216.938 143.874 216.842 145.479 216.811 146.455C216.78 147.432 216.816 147.731 216.84 147.987C216.909 148.704 216.925 149.017 216.961 149.363C216.999 149.722 217.142 150.396 217.215 150.779C217.263 151.027 217.36 151.389 217.445 151.62C217.46 151.661 217.505 151.681 217.566 151.687C217.626 151.693 217.71 151.681 218.855 150.783C220 149.884 222.204 148.1 223.429 147.121C224.654 146.141 224.834 146.022 224.866 145.972C224.916 145.896 224.584 146.007 223.882 146.271C223.255 146.507 222.067 146.918 221.33 147.194C220.333 147.567 219.975 147.749 219.794 147.803C219.687 147.835 219.563 147.798 219.43 147.738C219.375 147.712 219.369 147.653 219.381 147.575C219.393 147.496 219.429 147.388 219.962 146.668C220.496 145.948 221.526 144.618 222.074 143.916C222.654 143.173 222.72 143.104 222.696 143.127C222.642 143.181 222.529 143.342 221.719 144.117C220.909 144.892 219.411 146.281 218.658 146.967C217.905 147.653 217.941 147.593 218.384 146.928C218.828 146.262 219.678 144.992 220.206 144.254C220.734 143.517 220.914 143.349 221.036 143.244C221.159 143.14 221.219 143.104 221.281 143.067" stroke="white" stroke-width="4" stroke-linecap="round"/>
<path d="M216.925 144.338C217.009 144.098 217.093 143.858 217.34 143.202C217.587 142.546 217.994 141.48 218.335 140.074C218.677 138.669 218.94 136.956 219.076 136.002C219.212 135.047 219.212 134.904 219.224 134.716C219.25 134.3 219.368 133.743 219.513 133.217C219.623 132.82 219.875 132.496 220.088 132.234C220.306 131.966 220.47 131.78 220.518 131.743C220.603 131.876 220.627 132.129 220.597 132.532C220.567 132.804 220.508 133.211 220.446 133.631" stroke="white" stroke-width="4" stroke-linecap="round"/>
<path d="M223.894 133.885C223.475 134.687 223.056 135.49 222.756 136.184C222.456 136.879 222.289 137.442 222.154 138.02C222.02 138.597 221.924 139.172 221.875 139.546C221.805 140.073 221.837 140.272 221.891 140.315C221.925 140.341 222.005 140.297 222.078 140.225C222.151 140.153 222.223 140.033 222.41 139.54C222.597 139.047 222.896 138.185 223.116 137.273C223.336 136.362 223.468 135.428 223.536 134.905C223.604 134.381 223.604 134.298 223.562 134.302C223.52 134.307 223.436 134.403 223.279 134.674C223.122 134.945 222.895 135.388 222.676 135.946C222.457 136.503 222.253 137.162 222.13 137.633C222.007 138.104 221.971 138.368 221.953 138.659C221.915 139.261 221.982 139.894 222.073 140.396C222.107 140.588 222.151 140.646 222.194 140.659C222.236 140.672 222.284 140.636 222.309 140.594C222.334 140.551 222.334 140.503 222.334 140.454" stroke="white" stroke-width="4" stroke-linecap="round"/>
<path d="M220.918 141.18C220.618 141.599 220.319 142.018 220.165 142.21C220.01 142.402 220.01 142.354 220.058 142.198C220.106 142.041 220.202 141.778 220.221 141.624C220.241 141.471 220.181 141.435 220 141.446C219.82 141.458 219.52 141.517 219.073 141.626C218.035 141.878 217.397 142.063 217.325 142.069C217.148 142.084 217.059 141.798 216.914 141.381C216.748 140.906 217.009 140.709 217.076 140.503C217.131 140.335 217.227 140.201 217.288 140.019C217.359 139.808 217.409 139.512 217.53 139.004C217.61 138.668 217.663 138.447 217.717 138.205C217.766 137.991 217.844 137.47 217.971 136.655C218.073 136.002 218.026 135.592 218.056 135.267C218.076 135.049 218.098 134.726 218.141 134.374C218.228 133.648 218.328 133.196 218.365 133.039C218.466 132.603 218.304 131.844 218.335 131.369C218.351 131.115 218.377 130.825 218.407 130.559C218.429 130.365 218.353 130.22 218.305 130.068C218.276 129.979 218.256 129.892 218.226 129.856C218.191 129.814 218.147 129.964 218.111 130.007C218.071 130.054 217.894 129.965 217.719 129.989C217.56 130.01 217.735 130.315 217.79 130.556C217.887 130.982 217.76 131.258 217.724 131.488C217.708 131.587 217.687 131.958 217.693 132.466C217.696 132.687 217.724 133.166 217.712 133.874C217.703 134.361 217.615 134.597 217.579 134.845C217.525 135.211 217.518 135.795 217.5 135.959C217.475 136.185 217.409 136.424 217.385 136.66C217.367 136.837 217.312 137.029 217.294 137.45C217.257 138.325 217.276 138.989 217.258 139.188C217.252 139.399 217.24 139.546 217.216 139.918C217.204 140.254 217.192 140.889 217.179 141.543" stroke="white" stroke-width="4" stroke-linecap="round"/>
<path d="M203.466 103.225C203.466 103.146 203.466 103.067 203.483 103.037C203.5 103.008 203.534 103.03 203.557 103.093C203.68 103.426 203.739 104.213 203.814 104.76C203.907 105.439 203.923 105.681 203.985 106.158C204.031 106.511 204.127 107.087 204.173 107.418C204.229 107.816 204.265 108.272 204.334 108.973C204.388 109.526 204.346 109.829 204.346 110.034C204.345 110.182 204.391 110.419 204.499 110.954C204.607 111.49 204.788 112.315 204.898 112.78C205.028 113.328 205.145 113.519 205.316 113.866C205.594 114.432 205.705 114.868 205.705 114.926C205.706 115.208 205.249 114.458 205.066 114.372C204.744 114.221 204.357 114.287 204.3 114.19C204.157 113.946 204.367 113.318 204.494 112.99C204.571 112.788 204.62 112.608 204.688 112.128C204.727 111.855 204.734 111.285 204.694 110.757C204.643 110.079 204.574 109.899 204.483 109.727C204.438 109.641 204.312 110.09 204.243 110.637C204.113 111.673 204.163 111.953 204.123 112.308C204.073 112.752 204.174 112.914 204.26 113.069C204.283 113.112 204.322 113.154 204.357 113.183C204.391 113.212 204.425 113.223 204.493 113.218C204.562 113.212 204.664 113.19 205.236 112.85C205.809 112.51 206.85 111.854 208.376 110.996C209.902 110.137 211.882 109.097 213.195 108.476C214.509 107.855 215.098 107.685 215.418 107.592C215.738 107.499 215.772 107.487 215.009 107.736C214.245 107.985 212.684 108.494 211.79 108.807C210.895 109.12 210.714 109.222 210.434 109.41C210.154 109.598 209.781 109.87 209.509 110.055C208.862 110.496 208.608 110.572 208.318 110.698C207.94 110.861 207.672 110.835 207.449 110.864C207.375 110.873 207.273 110.87 207.204 110.853C207.134 110.836 207.1 110.802 207.094 110.722C207.078 110.518 207.202 110.254 207.401 109.935C207.52 109.744 207.724 109.526 207.981 109.273C208.239 109.021 208.556 108.75 209.85 107.92C211.144 107.09 213.407 105.71 214.533 105.01C215.659 104.31 215.58 104.333 214.526 104.712C213.473 105.092 211.448 105.827 210.264 106.279C209.079 106.732 208.796 106.879 208.538 107.039C208.039 107.349 207.785 107.578 207.598 107.732C206.852 108.343 206.598 108.424 206.42 108.487C206.382 108.501 206.346 108.482 206.34 108.447C206.334 108.413 206.356 108.357 206.787 107.79C207.217 107.224 208.054 106.149 208.615 105.477C209.176 104.804 209.437 104.567 210.131 104.06C210.825 103.553 211.945 102.784 212.538 102.37C213.171 101.93 213.461 101.73 213.873 101.473C214.026 101.377 214.058 101.34 214.019 101.323C213.979 101.305 213.866 101.305 213.129 101.617C212.392 101.928 211.035 102.55 210.29 102.899C209.546 103.247 209.455 103.304 209.25 103.401C208.734 103.645 208.323 103.796 208.073 103.887C207.633 104.047 207.159 104.309 206.788 104.532C206.533 104.685 206.369 104.79 206.226 104.825C206.164 104.84 206.118 104.836 206.1 104.814C206.082 104.791 206.094 104.746 206.235 104.474C206.377 104.201 206.648 103.704 206.924 103.295C207.427 102.548 207.819 102.209 208.006 102.066C208.286 101.854 208.561 101.706 209.089 101.411C209.528 101.166 210.306 100.709 210.77 100.431C211.235 100.152 211.359 100.062 211.604 99.8511C212.22 99.3221 212.675 98.9179 212.829 98.8152C213.191 98.5742 213.749 98.3121 214.046 98.1353C214.308 97.9794 213.408 98.1284 213.054 98.2199C212.753 98.2978 212.12 98.5158 211.74 98.6428C211.437 98.7437 211.214 98.9162 210.382 99.4807C210.206 99.6 210.163 99.6477 209.924 99.835C209.686 100.022 209.256 100.35 208.956 100.57C208.503 100.901 208.254 101.065 208.106 101.185C207.786 101.444 207.069 101.864 206.683 102.019C206.311 102.231 206.061 102.39 205.866 102.528C205.831 102.551 205.798 102.562 205.728 102.574" stroke="white" stroke-width="4" stroke-linecap="round"/>
<path d="M205.557 118.103C205.545 118.023 205.534 117.944 205.506 117.355C205.477 116.765 205.432 115.668 205.392 115.108C205.351 114.549 205.318 114.56 205.232 114.617C204.756 114.933 204.563 115.302 204.46 115.519C204.245 115.972 204.118 116.216 204.02 116.479C203.954 116.658 203.946 116.912 203.985 117.108C204.025 117.301 204.287 117.937 204.363 118.49C204.374 118.57 204.38 118.627 204.385 118.979C204.391 119.33 204.391 119.975 204.386 120.335C204.379 120.753 204.357 121.014 204.351 121.351C204.348 121.542 204.311 121.69 204.294 122.081C204.259 122.891 204.277 123.495 204.26 123.638C204.231 123.882 204.288 124.158 204.317 124.443C204.365 124.921 204.38 125.311 204.397 125.632C204.411 125.897 204.482 126.214 204.534 126.568C204.551 126.66 204.574 126.751 204.585 126.826C204.597 126.9 204.597 126.957 204.631 127.084" stroke="white" stroke-width="4" stroke-linecap="round"/>
<path d="M205.385 125.576C205.453 125.496 205.521 125.417 205.856 124.867C206.19 124.317 206.79 123.299 207.133 122.679C207.476 122.058 207.544 121.866 207.646 121.416C207.749 120.966 207.885 120.265 207.966 119.87C208.047 119.474 208.07 119.407 208.144 119.117C208.347 118.32 208.504 117.704 208.573 117.482C208.664 117.186 208.699 116.938 208.756 116.654C208.87 116.082 208.882 115.59 208.876 115.384C208.866 115.004 208.711 114.528 208.557 114.304C208.477 114.188 208.334 114.172 208.265 114.132C208.232 114.113 208.197 114.103 208.162 114.137C208.068 114.23 208.059 114.388 208.048 114.542C208.041 114.639 208.014 114.775 207.968 116.366C207.923 117.958 207.855 121.001 207.808 122.647C207.762 124.294 207.74 124.453 207.728 124.568C207.689 124.957 207.648 125.346 207.591 125.671C207.562 125.835 207.568 125.952 207.556 126.021C207.551 126.055 207.568 126.089 207.596 126.101C207.757 126.168 207.899 125.896 208.476 125.064C209.013 124.291 210.027 122.795 210.642 121.856C211.257 120.917 211.438 120.578 211.672 119.984C211.907 119.391 212.19 118.554 212.369 117.823C212.549 117.092 212.617 116.492 212.635 115.855C212.653 115.218 212.619 114.562 212.579 114.105C212.518 113.408 212.368 112.94 212.191 112.49C212.102 112.262 211.981 112.051 211.877 112.087C211.774 112.123 211.683 112.418 211.354 113.955C211.024 115.492 210.459 118.264 210.162 119.799C209.865 121.334 209.853 121.549 209.853 121.688C209.853 121.884 209.899 121.987 209.967 122.078C210.148 122.32 210.526 122.25 210.772 122.279C211.255 122.335 211.804 122.069 212.143 121.857C212.252 121.789 212.376 121.636 212.53 121.425C212.685 121.213 212.855 120.931 213.118 120.208C213.38 119.485 213.731 118.332 213.957 117.132C214.183 115.932 214.273 114.722 214.292 113.94C214.31 113.158 214.253 112.841 214.202 112.616C214.053 111.969 213.75 111.624 213.619 111.402C213.588 111.351 213.567 111.316 213.544 111.315C213.521 111.315 213.499 111.349 213.232 112.497C212.966 113.646 212.457 115.909 212.02 118.234C211.582 120.559 211.231 122.878 211.051 124.185C210.87 125.493 210.87 125.72 210.876 125.876C210.888 126.229 210.984 126.567 211.047 126.804C211.052 126.821 211.087 126.776 211.155 126.493C211.223 126.209 211.336 125.678 211.649 124.606C211.962 123.535 212.471 121.94 212.824 120.626C213.176 119.312 213.357 118.328 213.417 117.923C213.476 117.518 213.408 117.721 213.322 118.115C213.236 118.508 213.135 119.085 213.037 120.429C212.939 121.772 212.849 123.865 212.819 125.022C212.789 126.18 212.823 126.338 212.863 126.482C212.991 126.939 213.098 127.231 213.195 127.488C213.257 127.652 213.098 126.834 213.195 126.372C213.232 126.192 213.325 125.957 213.496 125.569C213.667 125.181 213.927 124.649 214.146 124.121C214.365 123.592 214.535 123.083 214.628 122.793C214.721 122.502 214.732 122.446 214.726 122.451C214.668 122.502 214.664 122.661 214.613 123.403C214.566 124.077 214.505 125.355 214.459 126.059C214.39 126.853 214.355 127.003 214.327 127.106C214.31 127.152 214.287 127.186 214.195 127.221" stroke="white" stroke-width="4" stroke-linecap="round"/>
<path d="M215.464 129.004C215.339 128.981 215.099 128.912 214.634 128.816C214.228 128.732 213.468 128.618 212.976 128.548C212.282 128.449 211.889 128.432 211.535 128.381C211.202 128.333 210.974 128.284 210.554 128.329C210.201 128.367 209.569 128.465 208.971 128.494C208.373 128.524 207.83 128.49 207.534 128.467C207.109 128.434 206.838 128.341 206.558 128.261C206.331 128.196 206.14 128.192 205.918 128.107C205.599 127.985 205.398 127.861 205.22 127.804C205.077 127.758 204.827 127.735 204.586 127.707C204.529 127.7 204.461 127.701 204.415 127.718C204.369 127.735 204.346 127.769 204.334 127.809C204.285 127.979 204.459 128.282 204.562 128.534C204.669 128.796 204.757 129.003 204.774 129.26C204.795 129.574 204.78 129.963 204.729 130.1C204.673 130.249 204.427 130.408 204.345 130.478C204.001 130.776 204.482 129.85 204.551 129.553C204.569 129.474 204.563 129.394 204.546 129.375C204.447 129.269 204.403 129.665 204.397 129.922C204.391 130.183 204.505 130.454 204.579 130.592C204.594 130.619 204.653 130.592 204.637 130.598C204.543 130.629 204.426 130.66 204.363 130.694C204.296 130.731 204.277 130.82 204.26 130.917C204.249 130.979 204.254 131.07 204.294 131.117C204.519 131.381 205.03 130.981 205.703 130.815C205.906 130.765 206.047 130.763 206.337 130.729C206.883 130.665 207.27 130.729 207.729 130.746C208.154 130.762 208.968 130.752 209.433 130.757C209.989 130.764 210.319 130.786 210.696 130.78C211.11 130.774 211.635 130.695 211.943 130.689C212.32 130.682 212.789 130.706 212.858 130.695C212.926 130.683 212.961 131.147 212.956 131.816C212.952 132.273 212.836 132.727 212.796 133.013C212.761 133.263 212.744 133.391 212.772 133.392C212.96 133.395 213.154 132.823 213.399 132.304C213.612 131.854 213.761 131.404 213.846 131.21C213.864 131.164 213.875 131.13 213.87 131.135C213.864 131.14 213.841 131.185 213.818 131.232" stroke="white" stroke-width="4" stroke-linecap="round"/>
<path d="M203.054 141.961C203.054 141.882 203.077 141.654 203.179 141.266C203.221 141.107 203.248 140.968 203.266 140.91C203.379 140.534 203.214 141.8 203.243 141.995C203.247 142.024 203.293 142.007 203.78 141.487C204.267 140.966 205.206 139.937 205.894 139.22C206.581 138.503 206.988 138.13 207.3 137.824C207.611 137.519 207.815 137.292 208.435 136.757C209.054 136.222 210.084 135.385 210.885 134.795C211.687 134.206 212.23 133.889 212.533 133.709C212.998 133.432 213.178 133.289 213.281 133.146C213.42 132.953 213.578 132.889 213.646 132.877C213.733 132.862 213.851 133.138 214.051 133.514C214.296 133.977 214.355 134.441 214.378 134.856C214.392 135.113 214.356 135.464 214.327 135.729C214.298 135.995 214.264 136.165 213.941 137.134C213.619 138.104 213.008 139.869 212.659 140.942C212.31 142.015 212.243 142.343 212.196 142.812C212.15 143.281 212.127 143.88 212.104 144.263C212.058 145.027 211.876 145.387 211.671 145.815C211.563 146.041 211.421 146.276 211.323 145.465C211.225 144.654 211.168 142.787 211.167 141.622C211.167 140.457 211.223 140.05 211.28 139.75C211.429 138.972 211.647 138.74 211.801 138.466C211.998 138.114 212.275 137.872 212.418 137.694C212.594 137.475 212.709 137.243 212.852 137.038C212.907 136.959 212.915 136.923 212.83 137.024C212.746 137.125 212.565 137.363 211.996 137.881C211.428 138.4 210.478 139.191 209.428 140.029C208.379 140.867 207.259 141.727 206.648 142.204C205.853 142.825 205.706 142.955 205.529 143.098C205.288 143.292 205.112 143.686 204.946 143.835C204.652 144.099 204.403 144.257 204.226 144.304C204.011 144.36 203.957 143.916 203.837 143.722C203.743 143.568 203.672 143.447 203.603 143.424C203.453 143.374 203.374 143.663 203.295 143.891C203.112 144.412 203.248 144.92 203.288 145.177C203.321 145.387 203.328 145.752 203.357 146.034C203.363 146.187 203.374 146.337 203.391 146.638C203.397 146.882 203.397 147.312 203.431 147.789" stroke="white" stroke-width="4" stroke-linecap="round"/>
<path d="M215.566 146.418C215.077 146.463 214.642 146.577 214.288 146.618C213.719 146.682 213.397 146.737 213.054 146.914C212.752 147.07 212.414 147.444 212.156 147.998C212.02 148.293 211.99 148.576 211.848 148.861C211.622 149.313 211.306 149.752 211.066 150.044C210.867 150.286 210.677 150.53 210.477 151.021C210.355 151.318 210.106 151.865 209.848 152.278C209.662 152.576 209.591 152.861 209.539 153.141C209.545 153.41 209.568 153.57 209.596 153.827C209.602 153.924 209.602 154.059 209.602 154.199" stroke="white" stroke-width="4" stroke-linecap="round"/>
<path d="M209.225 142.544C209.202 142.499 209.123 142.34 208.98 142.179C208.928 142.121 208.826 142.245 208.593 142.659C208.36 143.074 207.976 143.809 207.715 144.363C207.455 144.917 207.33 145.268 207.232 145.601C206.923 146.652 206.917 146.988 206.82 147.251C206.7 147.576 206.438 148.161 206.231 148.855C206.187 149.005 206.208 149.168 206.202 149.233C206.199 149.268 206.151 149.104 206.032 148.701C205.818 147.974 205.58 147.492 205.551 147.384C205.525 147.283 206.02 147.116 206.916 146.888C207.283 146.794 207.461 146.705 207.724 146.545C207.987 146.386 208.327 146.148 208.575 145.958C208.982 145.646 209.314 145.266 209.64 144.866C209.86 144.595 209.922 144.43 209.922 144.384C209.922 144.265 209.603 144.622 209.124 145.375C208.991 145.583 208.929 145.796 208.855 146.037C208.78 146.278 208.712 146.549 208.609 147.017C208.506 147.485 208.37 148.141 208.284 148.53C208.139 149.179 207.969 149.693 207.888 150.033C207.877 150.085 207.865 150.153 207.859 150.233C207.854 150.313 207.854 150.404 207.854 150.497" stroke="white" stroke-width="4" stroke-linecap="round"/>
<path d="M213.03 150.394C213.03 150.519 212.951 151.166 212.797 151.988C212.684 152.59 212.494 153.088 212.323 153.55C212.126 154.08 211.9 154.266 211.671 154.427C211.524 154.53 211.124 154.78 210.558 155.384C209.596 156.412 209.705 156.713 209.648 156.798C209.622 156.837 209.613 156.872 209.664 156.856C209.839 156.799 210.012 156.645 210.421 156.373C210.756 156.149 211.372 155.784 211.704 155.586C212.035 155.388 212.069 155.376 212.081 155.399C212.162 155.553 211.662 155.956 211.015 156.426C210.687 156.665 210.403 156.724 210.151 156.827C209.655 157.03 208.976 157.34 208.62 157.575C208.282 157.798 207.889 158.06 207.587 158.294C207.094 158.675 206.849 159.214 206.717 159.369C206.578 159.532 206.312 159.604 206.078 159.768C205.697 160.037 205.341 160.38 204.937 160.721C204.296 161.263 203.866 161.694 203.684 161.842C203.257 162.189 203.18 162.391 203.06 162.563C202.95 162.72 202.906 162.871 202.815 163.014C202.701 163.192 202.563 163.351 202.415 163.54C202.197 163.816 202.061 163.911 201.918 164.037C201.696 164.232 201.489 164.482 201.409 164.648C201.335 164.801 201.249 164.951 201.175 165.1C201.158 165.134 201.146 165.168 201.152 165.129C201.173 164.976 201.237 164.77 201.322 164.548C201.439 164.245 201.602 163.8 201.751 163.338C201.898 162.879 201.946 162.622 201.991 162.461C202.034 162.312 202.105 162.13 202.282 161.526C202.39 161.158 202.505 160.92 202.568 160.821C203.044 160.079 202.312 162.116 202.266 162.294C202.22 162.472 202.175 162.631 202.1 162.797C202.037 162.94 201.946 163.077 201.787 163.22C201.75 163.253 201.695 163.226 201.661 163.204C201.531 163.118 201.501 162.919 201.449 162.559C201.393 162.168 201.477 161.619 201.506 161.29C201.521 161.111 201.603 160.862 201.677 160.628C201.76 160.366 201.774 160.176 201.849 159.936C201.905 159.754 201.923 159.458 201.952 159.165C201.988 158.794 201.992 158.634 202.026 158.439C202.081 158.123 202.083 157.799 202.1 157.622C202.127 157.343 202.174 156.841 202.203 156.48C202.232 156.121 202.277 155.436 202.306 155.108C202.323 154.918 202.357 154.691 202.374 154.36C202.389 154.073 202.426 153.8 202.443 153.287C202.45 153.08 202.494 152.818 202.551 152.188C202.592 151.739 202.631 151.026 202.648 150.624C202.669 150.156 202.643 149.916 202.688 149.653C202.744 149.33 203.236 149.446 203.402 149.372C203.442 149.354 203.488 149.343 203.534 149.354C203.786 149.416 203.763 149.97 203.842 150.267C203.949 150.666 204.059 151.078 204.174 151.319C204.288 151.56 204.242 151.878 204.294 152.238C204.372 152.781 204.346 153.215 204.277 153.637C204.168 154.31 204.048 154.793 204.043 154.907C204.026 155.242 203.9 155.603 203.843 156.242C203.79 156.834 203.831 157.706 203.848 157.929C203.865 158.149 204.025 158.346 204.094 158.484C204.134 158.563 204.208 158.621 204.276 158.655C204.317 158.676 204.39 158.622 204.442 158.588C204.533 158.527 204.766 158.088 205.109 157.392C205.344 156.913 205.498 156.498 205.743 156.093C205.993 155.681 206.208 155.468 206.321 155.309C206.751 154.709 206.802 154.44 207.013 153.899C207.135 153.586 207.134 153.151 207.122 152.66C207.107 151.992 207.02 151.721 206.894 151.412C206.869 151.35 206.826 151.32 206.786 151.297C206.746 151.274 206.7 151.263 206.654 151.263C206.608 151.262 206.563 151.274 206.517 151.285" stroke="white" stroke-width="4" stroke-linecap="round"/>
<path d="M188.357 173.303C188.48 173.204 188.998 172.416 189.778 171.203C190.547 170.007 190.861 169.112 191.096 168.754C191.611 167.969 191.729 166.76 191.866 165.95C191.967 165.353 192.127 164.97 192.189 164.388C192.326 163.104 192.326 162.416 192.289 161.907C192.249 161.367 192.152 160.436 192.078 159.834C191.987 159.096 192.052 157.9 192.065 156.922C192.072 156.408 191.954 155.916 191.917 155.222C191.895 154.819 191.805 154.477 191.768 153.499C191.76 153.285 191.731 153.212 191.718 153.235C191.494 153.652 191.978 154.3 192.065 154.93C192.322 156.788 191.905 157.398 191.842 158.194C191.77 159.107 191.829 160.502 191.867 160.923C191.883 161.1 191.929 161.811 191.917 162.816C191.903 163.946 191.805 165.339 191.706 165.637C191.599 165.957 191.557 166.503 191.421 166.914C191.303 167.272 191.21 167.571 191.049 167.869C190.893 168.158 190.764 168.464 190.677 168.811C190.543 169.343 190.491 169.655 190.354 169.953C190.208 170.272 189.921 170.548 189.709 170.846C189.661 170.914 189.647 170.994 189.672 170.909C189.883 170.167 190.216 169.585 190.428 169.211C190.589 168.926 190.762 168.419 190.899 168.02C191.013 167.688 191.234 167.425 191.407 167.065C191.588 166.69 192.198 165.892 192.573 165.057C192.852 164.437 192.945 163.755 193.107 163.32C193.263 162.899 193.416 162.244 193.677 161.56C194.171 160.262 194.656 159.315 195.077 158.486C195.675 157.309 196.293 156.117 196.603 155.398C196.937 154.622 197.187 153.758 197.508 153.077C197.627 152.825 197.878 152.546 197.93 152.395C197.983 152.243 197.86 152.243 197.748 152.231C196.825 152.13 195.379 152.217 194.994 152.317C194.831 152.359 194.536 152.392 194.164 152.355C193.703 152.309 193.37 151.872 193.108 151.55C192.966 151.375 193.44 151.004 194.143 150.351C194.617 149.91 195.264 149.181 195.643 148.753C196.021 148.325 196.095 148.202 197.078 147.046C198.062 145.89 199.953 143.704 201.111 142.431C202.583 140.812 203.066 140.486 203.079 140.534C203.112 140.656 202.92 140.975 202.476 141.692C202.032 142.409 201.271 143.514 200.842 144.157C200.322 144.936 200.092 145.344 199.672 145.987C198.617 147.6 198.306 148.345 198.007 148.929C197.642 149.641 197.585 150.207 197.498 150.604C197.403 151.044 197.04 151.348 196.779 151.708C196.562 152.008 196.296 152.34 196.159 152.787C195.992 153.331 195.849 154.073 195.651 154.956C195.476 155.733 195.154 156.384 195.153 156.423C195.152 156.52 195.349 156.044 196.002 155.119C196.655 154.193 197.809 152.646 198.441 151.788C199.157 150.814 199.394 150.459 199.74 150.038C200.063 149.646 200.337 149.367 200.842 148.8C202.834 146.562 203.24 146.389 203.339 146.364C203.373 146.355 203.34 146.486 202.947 147.101C202.553 147.717 201.792 148.846 201.339 149.502C200.776 150.315 200.488 150.727 199.884 151.713C199.441 152.438 198.667 153.584 198.238 154.277C197.488 155.487 197.041 156.306 196.717 156.843C196.476 157.243 196.247 157.872 196.097 158.22C195.925 158.618 195.947 159.086 195.873 159.546C195.78 160.126 195.774 160.651 195.786 160.738C195.805 160.876 196.145 160.529 196.417 160.233C196.761 159.857 197.701 158.8 198.928 157.523C199.458 156.971 199.888 156.562 200.753 155.919C202.602 154.544 203.165 154.426 203.289 154.389C203.338 154.374 203.364 154.474 202.885 155.04C202.407 155.606 201.424 156.662 200.648 157.623C199.872 158.585 199.332 159.42 198.955 160.022C198.088 161.409 197.858 161.816 197.61 162.201C197.406 162.518 197.14 163.128 196.941 163.738C196.595 164.796 196.025 165.51 195.219 166.403C194.342 167.375 193.965 168.265 193.58 168.601C193.432 168.73 193.196 168.911 193.107 169.072C192.941 169.377 194.083 168.543 194.887 167.937C196.508 166.714 197.482 166.285 197.992 165.974C198.3 165.764 199.165 165.024 200.465 163.799C201.077 163.188 201.593 162.599 202.124 161.917" stroke="white" stroke-width="4" stroke-linecap="round"/>
<path d="M190.18 158.401C190.853 157.672 191.526 156.943 191.956 156.427C192.387 155.911 192.555 155.631 190.679 157.561C188.803 159.492 184.878 163.642 182.659 166.06C179.186 169.845 178.4 170.973 177.973 171.345C177.868 171.437 178.223 170.759 180.414 167.92C182.604 165.081 186.754 159.866 189.172 156.899C192.827 152.414 194.251 151.44 194.937 150.839C195.063 150.729 194.037 151.316 191.589 153.397C189.66 155.037 186.506 158.057 183.766 160.85C181.025 163.643 178.838 166.167 177.627 167.523C176.417 168.879 176.248 168.991 176.638 168.348C177.028 167.705 177.982 166.303 179.23 164.627C180.478 162.952 181.992 161.045 183.585 159.25C186.704 155.735 188.705 154.04 189.353 153.59C189.798 153.28 190.394 152.691 188.665 154.477C186.936 156.263 182.842 160.413 180.284 163.111C177.727 165.81 176.83 166.932 176.199 167.818C174.717 170.181 174.039 171.421 172.85 173.461C172.62 173.863 172.564 174.032 172.336 174.375" stroke="white" stroke-linecap="round"/>
<path d="M184.912 164.009C185.473 163.672 187.332 162.602 189.374 161.382C189.865 161.089 189.174 161.341 187.229 162.466C185.284 163.592 182.087 165.555 180.16 166.791C176.256 169.294 175.057 171.144 174.999 171.175C174.314 171.532 176.073 169.846 178.852 167.15C181.404 164.673 186.509 160.192 189.025 158.048C191.541 155.904 191.373 156.297 188.847 158.602C186.321 160.907 181.442 165.113 178.844 167.336C176.247 169.559 176.078 169.671 176.104 169.448C176.198 168.631 177.65 167.078 179.433 165.324C181.204 163.582 182.186 162.092 183.745 160.53C185.41 158.862 187.685 156.929 188.109 156.703C188.312 156.595 188.477 156.477 186.489 158.298C184.501 160.119 180.351 163.876 178.465 165.671C176.58 167.467 177.085 167.186 177.569 166.958C179.292 166.145 180.657 165.484 182.241 164.187C183.013 163.555 183.984 162.221 185.206 160.968C189.154 156.921 189.894 156.535 190.32 155.854C190.515 155.543 190.576 155.174 190.521 154.919C190.491 154.781 190.129 154.832 188.751 156.262C187.372 157.692 184.905 160.552 183.185 162.334C179.632 166.015 177.836 166.102 176.308 166.809C174.686 167.56 174.209 169.158 173.783 170.038C173.223 171.194 172.68 172.383 172.027 173.606C171.168 175.216 170.753 176.92 169.989 177.742C169.332 178.448 168.601 178.735 167.921 179.075C167.759 179.156 167.582 179.133 167.551 179.049C167.46 178.8 168.533 178.175 169.639 177.495C170.669 176.861 165.881 178.509 165.71 178.454C165.305 178.323 167.283 176.484 169.348 174.389C171.122 172.591 172.275 171.717 173.154 171.036C174.615 169.903 176.123 168.944 178.105 167.78C179.831 166.768 182.405 165.547 184.726 164.132C186.739 162.905 188.188 161.752 189.158 160.923C189.326 160.779 189.497 160.613 189.191 160.947C188.108 162.13 186.674 163.55 185.038 165.185C183.991 166.231 182.618 167.829 181.279 169.17C177.353 173.104 176.418 173.862 175.851 174.57C175.086 175.525 174.039 175.846 172.625 176.553C171.539 177.095 170.586 177.994 169.986 178.312C169.636 178.498 170.804 177.605 172.379 176.621C173.637 175.836 175.749 174.348 177.127 173.456C178.505 172.565 179.066 172.285 180.701 171.215C182.336 170.145 185.027 168.294 187.031 167.005C191.754 163.964 192.838 163.275 193.632 162.821C194.114 162.545 194.596 162.311 194.683 162.14C195.22 161.081 192.171 164.168 188.356 167.703C184.601 171.181 184.181 172.444 182.738 173.717C181.325 174.964 179.651 176.237 178.463 177.537C177.477 178.616 176.816 179.752 176.22 180.319C175.714 180.802 179.562 177.733 183.033 175.739C184.052 175.154 184.626 174.718 185.277 174.32C185.71 174.054 186.1 173.809 186.13 173.696C186.286 173.12 182.502 174.142 178.369 175.161C176.367 175.731 175.064 176.297 173.677 176.948C173.132 177.206 172.907 177.318 172.336 177.604" stroke="white" stroke-width="4" stroke-linecap="round"/>
<path d="M202.241 129.475C202.395 129.599 202.55 129.723 202.676 129.802C202.801 129.881 202.894 129.912 203.083 130.037" stroke="white" stroke-width="4" stroke-linecap="round"/>
<path d="M203.738 130.505C202.742 130.754 202.055 130.88 201.385 130.957C200.623 131.046 199.936 131.067 199.325 131.144C198.349 131.269 197.719 131.067 197.265 130.989C196.816 130.912 196.006 130.88 194.914 130.802C192.045 130.598 191.757 130.91 191.585 130.911C191.213 130.912 191.32 130.164 191.272 127.893C191.254 127.009 191.132 126.388 191.085 125.935C191.04 125.502 190.913 125.077 190.82 124.703C190.727 124.327 190.664 123.831 190.477 122.554C190.232 120.883 190.539 119.5 190.617 118.54C190.658 118.024 190.85 117.403 191.1 116.342C191.204 115.9 191.288 115.56 191.303 115.264C191.401 113.39 191.32 110.471 191.195 110.72C190.872 111.365 190.851 111.842 190.804 112.653C190.759 113.435 190.664 114.37 190.648 115.865C190.635 117.052 190.788 118.614 190.835 119.098C190.864 119.395 190.913 120.294 190.898 121.463C190.891 121.986 190.82 123.625 190.804 126.011C190.793 127.815 190.664 129.629 190.555 130.252C190.41 131.075 190.631 131.69 190.849 131.815C191.389 132.124 192.065 131.941 192.782 131.878C194.468 131.731 195.776 131.784 197.286 131.956C197.951 132.031 199.005 131.941 200.612 131.724C202.219 131.508 204.35 131.106 205.526 130.868C206.862 130.598 207.385 130.505 207.901 130.474C208.007 130.468 207.517 130.225 206.91 130.085C206.466 129.982 205.401 129.944 202.916 129.835C201.298 129.764 198.949 129.88 197.616 129.896C195.626 129.921 194.942 129.788 193.881 129.725C193.788 129.72 194.281 129.476 195.49 129.166C196.416 128.928 197.996 128.609 198.885 128.433C200.321 128.151 201.083 128.165 203.134 127.731C205.264 127.28 206.762 126.667 206.967 126.682C207.596 126.73 205.149 126.884 203.224 127.118C201.952 127.272 200.063 127.32 198.984 127.337C197.275 127.364 196.472 127.073 195.193 127.057C194.223 127.044 193.067 127.104 193.004 126.996C192.602 126.305 194.965 126.481 196.501 126.093C197.552 125.828 199.119 125.304 200.472 124.941C202.888 124.293 204.143 124.139 204.484 124.109C205.017 124.06 205.422 123.921 205.532 123.828C205.581 123.786 205.487 123.673 205.347 123.61C205.011 123.458 203.872 123.515 201.712 123.67C200.444 123.761 198.84 124.01 197.395 124.122C194.72 124.328 193.286 124.202 192.991 124.155C192.85 124.133 192.726 124.139 192.616 124.124C192.506 124.109 192.413 124.078 192.473 123.984C192.675 123.673 194.178 123.145 196.482 122.397C198.496 121.744 199.835 121.613 200.426 121.457C201.317 121.222 202.018 121.176 203.39 120.755C203.673 120.669 203.798 120.676 203.846 120.629C203.895 120.583 203.864 120.49 203.74 120.396C202.82 119.699 200.997 120.176 200.215 120.239C198.893 120.345 196.729 120.582 195.69 120.504C194.844 120.441 193.849 120.208 193.334 120.13C193.134 120.1 192.823 120.114 192.787 120.068C192.752 120.021 192.999 119.929 194.038 119.634C195.076 119.339 196.899 118.845 198.039 118.513C199.59 118.061 200.797 117.435 202.184 116.656C202.776 116.324 203.107 116.063 203.329 115.92C203.63 115.725 202.225 116.209 199.452 117.05C197.271 117.712 195.94 117.774 195.395 117.758C194.64 117.737 194.036 117.338 193.691 117.104C193.621 117.057 193.69 116.933 193.798 116.839C194.062 116.611 194.716 116.402 196.113 115.967C197.071 115.669 198.56 115.286 199.493 115.001C201.45 114.406 202.269 113.812 202.692 113.624C203.088 113.448 203.176 113 203.254 112.86C203.58 112.278 201.587 112.999 200.746 113.124C199.614 113.291 198.593 113.84 197.812 114.122C197.309 114.303 196.813 114.372 195.521 114.435C194.646 114.477 194.378 114.622 194.299 114.591C193.75 114.379 195.092 113.688 196.493 112.769C197.809 111.905 198.897 111.629 199.85 111.082C200.535 110.689 201.115 110.287 201.863 109.741C202.606 109.198 203.236 108.944 203.658 108.772C204.169 108.565 201.873 109.438 199.643 110.033C198.521 110.333 197.135 110.47 195.707 110.721C195.224 110.806 194.723 110.908 194.192 111.018C193.737 111.112 193.348 111.095 193.161 111.158C192.975 111.221 192.817 110.941 192.724 110.754C192.639 110.585 192.692 110.317 192.754 110.037C192.951 109.144 194.748 108.821 195.544 108.336C195.851 108.149 196.123 107.945 197.145 107.45C198.005 107.032 199.587 106.336 200.445 105.955C201.396 105.542 201.677 105.418 201.989 105.231C202.115 105.137 202.177 105.044 202.334 104.855" stroke="white" stroke-width="4" stroke-linecap="round"/>
<path d="M179.176 116.861C179.15 116.759 179.124 116.656 179.111 117.514C179.098 118.372 179.098 120.194 179.111 121.184C179.125 122.277 179.176 123.305 179.163 124.756C179.155 125.648 179.047 126.318 179.033 127.16C179.027 127.512 179.098 128.593 179.111 130.044C179.176 130.882 179.201 131.167 179.24 131.451C179.253 131.657 179.253 131.991 179.253 132.334" stroke="white" stroke-width="4" stroke-linecap="round"/>
<path d="M181.119 131.557C182.3 131.326 183.48 131.095 184.884 130.86C186.287 130.626 187.878 130.395 188.774 130.276C190.571 130.038 191.951 129.846 192.185 129.846C192.494 129.846 190.794 129.924 189.023 130.014C188.007 130.066 186.184 130.104 184.938 130.079C182.298 130.027 181.796 129.537 181.432 129.315C181.357 129.27 181.277 129.251 182.828 128.75C184.379 128.249 187.561 127.274 189.123 126.72C190.685 126.167 190.531 126.064 190.349 125.973C189.972 125.783 188.826 125.623 187.234 125.467C186.567 125.402 186.181 125.414 185.521 125.465C183.935 125.589 182.601 125.725 181.953 125.7C181.149 125.668 180.654 125.026 180.627 124.858C180.58 124.562 181.273 124.508 182.2 124.186C182.906 123.941 184.051 123.428 185.21 123.01C186.369 122.592 187.498 122.259 188.157 122.049C189.264 121.695 189.798 121.243 190.357 120.841C190.478 120.754 190.577 120.673 190.63 120.595C190.683 120.516 190.683 120.439 190.581 120.349C189.97 119.807 188.977 119.765 187.476 119.892C186.361 119.988 185.656 120.437 185.193 120.656C183.71 121.357 183.093 121.345 182.327 121.345C181.747 121.346 181.354 121.035 181.158 120.815C180.671 120.267 182.826 120.077 183.948 119.317C184.712 118.8 185.763 117.864 186.395 117.312C187.662 116.205 188.375 115.619 188.557 115.114C188.782 114.49 188.377 114.09 188.106 113.701C187.972 113.509 187.704 113.492 187.471 113.453C187.191 113.406 186.516 113.594 185.584 113.904C184.151 114.381 183.248 115.508 182.858 116.018C182.247 116.813 181.432 116.86 181.275 117.184C181.106 117.535 181.119 118.076 180.939 118.519C180.525 119.114 180.187 119.814 180.071 120.382C180.031 120.719 180.031 121.155 180.109 121.76" stroke="white" stroke-width="4" stroke-linecap="round"/>
<path d="M171.598 121.648C171.556 122.072 171.47 124.45 171.576 125.812C171.648 126.731 171.726 127.415 171.833 128.332C171.949 129.335 171.983 130.105 172.11 130.749C172.163 131.013 172.239 131.262 172.197 131.518C172.15 131.8 171.856 131.989 171.6 132.096C171.479 132.147 171.344 132.077 171.279 131.737C170.931 129.931 171.342 129.13 171.554 127.894C171.875 126.034 171.726 125.243 171.833 124.45C171.938 123.663 172.067 122.976 172.132 122.249C172.174 121.779 172.239 121.35 172.345 121.051C172.734 119.951 175.437 120.666 176.403 120.558C177.771 120.407 179.115 119.599 179.418 119.468C181.625 118.516 176.052 122.066 175.19 123.055C175.049 123.217 174.934 123.396 174.805 123.547C174.676 123.698 174.55 123.825 174.632 123.594C175.226 121.937 175.698 121.055 175.893 120.239C176.07 119.499 175.488 121.645 175.317 122.584C175.263 122.882 175.232 123.222 175.21 124.645C175.188 126.067 175.188 128.564 175.252 129.85C175.315 131.136 175.442 131.136 175.677 131.093C176.961 130.862 178.132 130.241 178.756 130.046C179.309 129.873 177.37 130.451 176.325 130.622C175.272 130.794 173.655 131.092 172.883 131.242C172.547 131.307 172.24 131.306 171.985 131.455C171.333 131.833 171.385 132.841 171.235 133.463C171.2 133.61 171.213 133.782 171.086 133.869C170.96 133.956 170.706 133.956 170.575 133.893C169.866 133.549 169.89 131.951 169.782 131.394C169.642 130.674 169.759 129.728 169.909 129.214C170.055 128.718 170.144 128.105 170.209 127.42C170.27 126.772 170.401 126.012 170.465 124.581C170.486 124.257 170.529 124.045 170.551 123.429C170.572 122.812 170.572 121.796 170.572 120.75" stroke="white" stroke-width="4" stroke-linecap="round"/>
</svg>
