<svg width="427" height="287" viewBox="0 0 427 287" fill="none" xmlns="http://www.w3.org/2000/svg">
<path d="M323.026 66.168H112.107C97.173 66.168 85.0664 80.1591 85.0664 97.418V159.918C85.0664 177.177 97.173 191.168 112.107 191.168H323.026C337.96 191.168 350.066 177.177 350.066 159.918V97.418C350.066 80.1591 337.96 66.168 323.026 66.168Z" stroke="white" stroke-width="10" stroke-linecap="round" stroke-linejoin="round"/>
<rect x="100" y="79" width="188" height="100" rx="20" fill="white"/>
<path d="M351 99C358.732 99 365 105.268 365 113V147C365 154.732 358.732 161 351 161V99Z" fill="white"/>
<path d="M233.954 110.49L231.498 113.034L235.034 113.031L289.127 112.995L132.9 211.363L209.422 135.958L212.031 133.387L208.368 133.389L154.049 133.43L296.653 45.5234L233.954 110.49Z" fill="black" stroke="white" stroke-width="3"/>
<path d="M262.5 79.5H239.729" stroke="white"/>
<path d="M251.45 76.3554C251.583 76.3314 251.875 76.2343 252.07 76.1551C252.422 76.0119 252.641 75.9423 252.903 75.8509C253.194 75.7491 253.541 75.6744 253.712 75.6136C253.802 75.5819 253.859 75.5039 253.998 75.4676C254.267 75.3973 254.551 75.358 255.516 75.3156C256.373 75.278 257.975 75.2371 258.824 75.2184C259.674 75.1996 259.722 75.2116 259.488 75.278C259.254 75.3445 258.736 75.4649 258.318 75.5269C257.227 75.6892 256.95 75.6255 256.61 75.6678C256.332 75.7024 256.196 75.8197 255.88 75.9049C255.292 76.0639 255.101 76.124 254.924 76.1425C254.755 76.1601 254.626 76.2215 254.625 76.2217C254.301 76.3298 255.268 76.0759 255.525 76.0332C255.692 76.0053 255.829 76.039 255.866 76.0633C256.12 76.231 254.883 76.124 254.36 76.2454C253.89 76.3542 253.568 76.5861 253.355 76.7018C253.304 76.7296 253.252 76.7204 253.263 76.7024C253.385 76.5068 253.687 76.5262 253.913 76.4651C254.061 76.425 254.223 76.4164 254.375 76.3861C254.541 76.353 255.119 76.3189 255.904 76.3069C256.488 76.2979 256.875 76.27 257.306 76.2885C257.524 76.2978 257.715 76.3795 257.934 76.398C258.097 76.4117 258.599 76.4649 258.938 76.4952C259.126 76.5121 259.369 76.562 260.63 76.5865C261.113 76.5958 261.689 76.4788 262.125 76.2647C262.215 76.2202 262.482 76.0529 262.937 75.7072C263.416 75.3438 263.797 74.9455 264.137 74.7207C264.371 74.5655 264.66 74.3981 265.043 74.101C265.477 73.7633 265.781 73.4367 265.957 73.2484C266.192 72.9962 266.714 72.4786 267.179 72.0323C267.971 71.2709 268.129 71.0399 268.33 70.845C268.485 70.6941 268.567 70.4924 269.172 70.0627C269.555 69.7903 270.197 69.261 270.586 68.9641C271.073 68.5926 271.352 68.4727 271.764 68.2788C272.371 67.9933 272.776 67.7788 272.88 67.694C272.936 67.6473 272.995 67.585 272.953 67.542C272.668 67.244 272.219 67.5591 271.608 67.7102C271.176 67.8171 270.503 68.0179 269.927 68.1533C268.9 68.3945 268.373 68.4595 268.204 68.5201C267.898 68.6296 267.655 68.6665 267.607 68.6666C267.589 68.6667 267.606 68.6186 267.649 68.5759C267.751 68.4721 268.139 68.315 268.739 68.0482C269.35 67.7772 269.638 67.5233 269.614 67.4686C269.565 67.3571 269.262 67.5102 268.718 67.7821C268.314 67.9843 267.668 68.3551 267.303 68.5654C266.872 68.8137 266.551 69.042 266.083 69.3276C265.883 69.4496 265.748 69.5048 265.228 69.8189C264.708 70.1329 263.805 70.699 263.297 71.0087C262.595 71.4372 262.316 71.537 261.738 71.8407C261.457 71.9888 261.318 72.1816 261.117 72.4186C260.884 72.6942 260.37 72.9232 259.915 73.1783C259.516 73.4012 259.444 73.5933 259.298 73.721C259.139 73.8126 258.849 73.8371 258.641 73.8734C258.604 73.8856 258.568 73.8977 258.494 73.9101" stroke="white" stroke-width="6" stroke-linecap="round"/>
<path d="M269.699 65.7346C269.82 65.7225 270.111 65.6258 270.379 65.5342C270.702 65.4243 271.36 65.02 271.863 64.7256C272.345 64.4443 272.582 64.2148 272.728 64.0865C272.918 63.9193 273.249 63.6433 273.53 63.5206C273.736 63.4307 273.992 63.2783 274.291 63.0104C274.551 62.7771 274.916 62.4637 275.469 62.0742C275.785 61.8523 276.193 61.4669 276.751 60.9693C277.354 60.4316 277.837 60.1997 277.965 60.0964C278.053 60.025 278.154 59.9442 278.275 59.8289C278.391 59.7191 278.928 59.3749 279.73 58.8644C280.239 58.5405 280.477 58.3989 280.647 58.29C280.952 58.0939 281.412 57.7803 281.946 57.3615C282.839 56.661 283.165 56.5744 283.409 56.4282C283.653 56.2824 283.859 56.0145 284.193 55.699C284.424 55.481 284.831 55.213 285.07 55.0048C285.271 54.8586 285.562 54.6166 285.763 54.4451C285.806 54.4086 285.854 54.3604 285.94 54.3108" stroke="white" stroke-width="6" stroke-linecap="round"/>
<path d="M249.954 78.2533C249.263 78.3018 248.629 78.3504 248.325 78.3688C248.079 78.3837 247.911 78.4234 247.734 78.4238C247.454 78.4243 246.951 78.411 246.676 78.5024C246.485 78.5657 246.341 78.6424 246.05 78.6427C245.876 78.643 245.757 78.5697 245.732 78.5334C245.679 78.4558 246.42 78.2672 247.386 77.9515C248.067 77.7288 248.359 77.5478 248.535 77.4814C248.867 77.3306 249.126 77.2193 249.319 77.1409C249.465 77.0744 249.705 76.954 250.027 76.8299" stroke="white" stroke-width="2" stroke-linecap="round"/>
<path d="M166.495 177.799H187.824" stroke="white" stroke-width="2" stroke-linecap="round"/>
<path d="M182.408 178.906C182.12 179.061 181.832 179.216 181.219 179.512C180.605 179.808 179.675 180.239 178.847 180.578C178.019 180.917 177.322 181.149 176.929 181.291C176.463 181.46 176.346 181.545 175.504 182.044C174.712 182.512 173.2 183.45 172.374 183.946C171.469 184.49 171.324 184.531 171.268 184.548C171.256 184.552 171.279 184.51 171.489 184.343C171.7 184.177 172.099 183.878 173.074 183.358C174.049 182.839 175.588 182.108 176.458 181.704C177.328 181.3 177.483 181.245 177.669 181.172C178.066 181.015 178.358 180.897 178.608 180.803C179.473 180.476 179.701 180.115 179.89 179.947C179.997 179.852 180.103 179.79 180.148 179.734C180.272 179.58 179.836 179.521 179.651 179.465C179.548 179.434 179.256 179.665 178.66 180.027C178.303 180.244 177.81 180.489 177.525 180.631C177.241 180.774 177.175 180.796 176.222 181.422C175.268 182.048 173.43 183.277 172.45 183.937C171.399 184.646 171.291 184.733 171.213 184.739C171.175 184.741 171.157 184.667 171.217 184.544C171.382 184.211 171.692 183.918 172.02 183.617C172.222 183.432 172.515 183.205 173.383 182.654C174.251 182.102 175.69 181.239 176.493 180.738C177.433 180.152 177.609 179.98 177.793 179.874C178.085 179.706 178.48 179.455 178.793 179.271C178.882 179.219 178.797 179.208 178.696 179.23C178.469 179.28 178.281 179.386 177.455 179.896C176.697 180.365 175.245 181.248 174.183 181.92C173.12 182.592 172.489 183.024 172.097 183.28C171.354 183.765 171.067 183.938 170.849 184.062C170.801 184.089 170.765 184.095 170.737 184.079C170.709 184.062 170.687 184.018 170.692 183.951C170.716 183.646 170.898 183.47 171.176 183.137C171.378 182.894 171.742 182.537 172.068 182.233C172.395 181.928 172.683 181.696 173.374 181.221C174.064 180.747 175.149 180.039 175.731 179.663C176.353 179.26 176.546 179.142 176.797 178.969C177.088 178.768 177.207 178.638 177.218 178.615C177.229 178.594 177.119 178.681 176.586 178.959C176.054 179.236 175.068 179.735 174.107 180.296C173.145 180.857 172.237 181.466 171.36 182.167C170.482 182.869 169.663 183.644 169.224 184.054C168.785 184.464 168.752 184.487 168.719 184.503C168.685 184.52 168.652 184.531 168.657 184.476C168.673 184.293 168.995 183.886 169.514 183.317C169.779 183.026 170.088 182.77 170.48 182.456C170.872 182.142 171.348 181.787 171.87 181.428C172.392 181.068 172.946 180.714 173.275 180.493C173.835 180.116 173.996 179.936 174.192 179.712C174.368 179.512 174.433 179.376 174.584 179.131C174.644 179.032 174.724 178.962 174.724 178.934C174.725 178.898 174.592 179.027 173.815 179.494C173.039 179.96 171.588 180.812 170.664 181.396C169.739 181.979 169.385 182.267 169.025 182.598C168.666 182.929 168.311 183.294 168.112 183.504C167.782 183.853 167.589 184.083 167.399 184.23C167.372 184.25 167.354 184.186 167.403 184.069C167.453 183.952 167.564 183.764 168.075 183.163C168.586 182.562 169.494 181.555 170.067 180.881C170.64 180.206 170.85 179.896 171.047 179.587C171.431 178.985 171.681 178.594 171.782 178.504C171.815 178.474 171.35 178.925 170.641 179.55C170.309 179.842 170.076 180.131 169.901 180.351C169.432 180.94 169.323 181.265 169.239 181.421C169.225 181.447 169.51 181.234 170.382 180.628C171.018 180.186 172.108 179.568 172.677 179.231C173.277 178.877 173.348 178.85 173.354 178.828C173.361 178.802 173.238 178.85 172.827 179.005C172.416 179.16 171.685 179.448 170.988 179.68C170.29 179.911 169.648 180.077 169.207 180.168C168.55 180.304 168.171 180.271 167.854 180.209C167.083 180.061 166.706 179.689 166.516 179.578C166.447 179.537 166.481 179.466 166.52 179.421C166.787 179.112 167.397 179.052 167.939 179.046C168.203 179.043 168.382 179.018 168.572 178.973C168.617 178.963 168.65 178.951 168.667 178.962C168.684 178.973 168.684 179.006 168.668 179.04C168.651 179.073 168.618 179.107 168.302 179.373C167.986 179.639 167.388 180.137 167.041 180.422C166.694 180.706 166.617 180.761 166.594 180.79C166.57 180.818 166.603 180.818 167.246 180.392C167.889 179.966 169.14 179.113 169.231 179.167C169.322 179.22 168.215 180.206 167.312 181.101C166.41 181.996 165.745 182.771 165.392 183.193C165.008 183.651 164.96 183.748 164.871 183.849C164.819 183.908 164.738 183.971 163.69 184.686C162.643 185.402 160.628 186.763 159.318 187.753C158.009 188.742 157.466 189.318 157.159 189.659C156.852 190 156.797 190.089 156.746 190.19C156.695 190.291 156.651 190.401 157.088 190.06C157.524 189.718 158.443 188.921 159.731 187.851C161.018 186.782 162.646 185.464 163.722 184.547C164.799 183.631 165.275 183.154 165.581 182.87C166.173 182.321 166.47 182.328 166.465 182.312C166.369 181.997 165.879 182.261 165.179 182.516C164.626 182.718 163.704 183.148 163.164 183.398C162.494 183.708 162.266 183.927 162.07 184.161C161.907 184.356 161.762 184.753 161.545 185.266C161.252 185.958 161.124 186.119 160.912 186.554C160.667 187.058 160.398 187.627 160.241 188.057C160.182 188.221 160.173 188.277 160.184 188.306C160.195 188.334 160.228 188.334 160.937 187.316C161.647 186.297 163.031 184.26 163.782 183.171C164.596 181.994 164.725 181.904 164.792 181.87C164.932 181.8 165.216 181.948 165.807 181.937C166.01 181.933 166.253 181.871 166.256 181.925C166.26 181.98 166.016 182.135 165.592 182.475C165.167 182.815 164.569 183.336 163.614 184.329C162.658 185.322 161.362 186.773 160.38 187.941C159.397 189.109 158.765 189.95 158.413 190.412C157.93 191.042 157.78 191.164 157.64 191.214C157.603 191.228 157.557 191.22 157.517 191.209C157.478 191.198 157.445 191.176 157.428 191.148C157.395 191.093 157.444 190.986 157.555 190.797C157.738 190.486 157.991 190.203 158.585 189.814C159.052 189.508 159.921 189.093 160.925 188.665C161.929 188.238 163.058 187.839 163.745 187.578C164.432 187.318 164.643 187.207 165.011 186.962C165.38 186.716 165.9 186.34 166.478 185.886C167.056 185.432 167.677 184.911 168.096 184.588C168.92 183.951 169.142 183.995 169.21 183.984C169.233 183.98 168.866 184.006 168.336 184.017C167.904 184.026 167.623 184.073 167.389 184.09C167.042 184.114 166.629 184.24 166.039 184.49C165.65 184.655 165.116 184.973 164.532 185.365C163.948 185.757 163.339 186.233 163.004 186.506C162.668 186.779 162.623 186.835 162.65 186.846C162.768 186.898 162.924 186.758 163.871 186.165C164.772 185.601 166.535 184.52 167.47 183.933C168.404 183.347 168.46 183.291 168.405 183.307C168.351 183.323 168.185 183.411 166.521 184.603C164.858 185.795 161.702 188.087 159.949 189.395C158.196 190.703 157.941 190.958 157.777 191.133C157.613 191.309 157.546 191.397 157.528 191.443C157.511 191.488 157.544 191.488 159.416 190.525C161.288 189.562 164.997 187.635 166.935 186.637C168.874 185.639 168.929 185.628 169.202 185.622C169.961 185.606 170.496 185.606 170.524 185.622C170.616 185.675 170.23 185.917 169.142 186.495C168.264 186.961 166.681 187.693 165.633 188.247C164.585 188.801 164.108 189.133 163.819 189.343C163.434 189.622 163.15 189.92 162.743 190.317C162.543 190.511 162.325 190.658 162.089 190.793C161.853 190.928 161.599 191.039 161.257 191.168C160.916 191.297 160.495 191.441 160.167 191.576C159.84 191.711 159.618 191.833 159.266 192.073C158.914 192.312 158.438 192.667 158.093 192.943C157.748 193.22 157.549 193.408 157.352 193.605C156.751 194.239 156.639 194.351 156.538 194.474C156.516 194.508 156.494 194.541 156.438 194.609" stroke="white" stroke-width="2" stroke-linecap="round"/>
<path d="M155.834 195.079C155.811 195.09 155.789 195.101 155.241 195.483C154.692 195.865 153.618 196.618 152.827 197.139C152.036 197.66 151.56 197.925 151.276 198.079C150.918 198.272 150.679 198.399 150.428 198.556C150.303 198.633 150.064 198.746 149.696 198.964C149.381 199.15 149.18 199.35 148.924 199.584C148.482 199.988 148.139 200.234 148.033 200.296C147.688 200.495 147.269 200.893 147.004 201.151C146.808 201.342 146.508 201.73 146.238 201.995C146.073 202.158 145.725 202.392 145.234 202.626C144.488 202.983 144.292 202.974 144.196 203.103C144.144 203.174 144.157 203.276 144.151 203.36C144.149 203.4 144.135 203.433 144.257 203.14C144.378 202.847 144.633 202.227 144.902 201.675C145.172 201.123 145.449 200.658 145.614 200.396C145.811 200.083 146.068 199.79 146.386 199.376C146.547 199.168 146.706 198.983 147.034 198.71C147.463 198.354 147.935 198.022 148.337 197.665C148.545 197.48 148.783 197.308 149.218 196.918C149.653 196.527 150.285 195.93 150.632 195.594C150.979 195.258 151.023 195.203 151.306 194.925C151.589 194.647 152.11 194.149 152.411 193.876C152.766 193.554 152.958 193.458 153.297 193.229C153.525 193.077 153.869 192.857 154.467 192.428C155.065 191.998 155.906 191.367 156.389 191.014C157.086 190.506 157.264 190.471 157.383 190.409C157.41 190.394 157.289 190.525 156.369 191.345C155.449 192.166 153.688 193.716 152.621 194.692C151.553 195.668 151.232 196.022 150.895 196.343C150.239 196.968 149.817 197.281 149.678 197.432C149.173 197.977 148.788 198.355 148.709 198.467C148.687 198.5 148.876 198.301 149.121 198.083C149.249 197.97 149.367 197.833 150.631 196.845C151.895 195.858 154.297 194.02 155.718 192.846C157.138 191.672 157.504 191.218 157.914 190.683" stroke="white" stroke-width="2" stroke-linecap="round"/>
</svg>
