<svg width="542" height="542" viewBox="0 0 542 542" fill="none" xmlns="http://www.w3.org/2000/svg">
<g filter="url(#filter0_d_13_10)">
<g clip-path="url(#clip0_13_10)">
<rect x="15" y="11" width="512" height="512" rx="80" fill="#181825"/>
<g clip-path="url(#clip1_13_10)">
<g filter="url(#filter1_d_13_10)">
<path d="M269.461 427.996C356.996 427.996 427.957 357.035 427.957 269.5C427.957 181.965 356.996 111.004 269.461 111.004C181.926 111.004 110.965 181.965 110.965 269.5C110.965 357.035 181.926 427.996 269.461 427.996Z" fill="#B4BEFE" shape-rendering="crispEdges"/>
<path d="M269.461 427.996C356.996 427.996 427.957 357.035 427.957 269.5C427.957 181.965 356.996 111.004 269.461 111.004C181.926 111.004 110.965 181.965 110.965 269.5C110.965 357.035 181.926 427.996 269.461 427.996Z" stroke="#B4BEFE" stroke-opacity="0.4" stroke-width="3" shape-rendering="crispEdges"/>
</g>
<path d="M269.461 449.129C368.667 449.129 449.09 368.706 449.09 269.5C449.09 170.294 368.667 89.8711 269.461 89.8711C170.255 89.8711 89.832 170.294 89.832 269.5C89.832 368.706 170.255 449.129 269.461 449.129Z" fill="url(#paint0_radial_13_10)"/>
<mask id="mask0_13_10" style="mask-type:luminance" maskUnits="userSpaceOnUse" x="37" y="-1" width="541" height="541">
<path d="M578 -1H37V540H578V-1Z" fill="black"/>
<path d="M269.461 427.996C356.996 427.996 427.957 357.035 427.957 269.5C427.957 181.965 356.996 111.004 269.461 111.004C181.926 111.004 110.965 181.965 110.965 269.5C110.965 357.035 181.926 427.996 269.461 427.996Z" fill="white"/>
<path d="M322.293 375.164C398.157 375.164 459.656 313.664 459.656 237.801C459.656 161.937 398.157 100.438 322.293 100.438C246.429 100.438 184.93 161.937 184.93 237.801C184.93 313.664 246.429 375.164 322.293 375.164Z" fill="black"/>
</mask>
<g mask="url(#mask0_13_10)">
<g filter="url(#filter2_d_13_10)">
<path d="M269.461 427.996C356.996 427.996 427.957 357.035 427.957 269.5C427.957 181.965 356.996 111.004 269.461 111.004C181.926 111.004 110.965 181.965 110.965 269.5C110.965 357.035 181.926 427.996 269.461 427.996Z" fill="url(#paint1_linear_13_10)"/>
</g>
</g>
<g opacity="0.9" filter="url(#filter3_d_13_10)">
<path d="M133.203 125.742C134.2 125.742 135.008 124.934 135.008 123.938C135.008 122.941 134.2 122.133 133.203 122.133C132.206 122.133 131.398 122.941 131.398 123.938C131.398 124.934 132.206 125.742 133.203 125.742Z" fill="#F5E0DC"/>
<path d="M125 123.938H141.406ZM133.203 115.734V132.141Z" fill="black"/>
<path d="M125 123.938H141.406M133.203 115.734V132.141" stroke="#F2CDCD" stroke-width="1.4" stroke-linecap="round"/>
<path d="M154.531 86.0063C155.329 86.0063 155.975 85.3599 155.975 84.5625C155.975 83.7652 155.329 83.1188 154.531 83.1188C153.734 83.1188 153.087 83.7652 153.087 84.5625C153.087 85.3599 153.734 86.0063 154.531 86.0063Z" fill="#F5E0DC"/>
<path d="M147.969 84.5625H161.094ZM154.531 78V91.125Z" fill="black"/>
<path d="M147.969 84.5625H161.094M154.531 78V91.125" stroke="#F2CDCD" stroke-width="1.12" stroke-linecap="round"/>
<path d="M288.242 108.335C289.139 108.335 289.866 107.608 289.866 106.711C289.866 105.814 289.139 105.087 288.242 105.087C287.345 105.087 286.618 105.814 286.618 106.711C286.618 107.608 287.345 108.335 288.242 108.335Z" fill="#F5E0DC"/>
<path d="M280.859 106.711H295.625ZM288.242 99.3281V114.094Z" fill="black"/>
<path d="M280.859 106.711H295.625M288.242 99.3281V114.094" stroke="#F2CDCD" stroke-width="1.26" stroke-linecap="round"/>
<path d="M254.609 135.865C255.307 135.865 255.873 135.299 255.873 134.602C255.873 133.904 255.307 133.338 254.609 133.338C253.912 133.338 253.346 133.904 253.346 134.602C253.346 135.299 253.912 135.865 254.609 135.865Z" fill="#F5E0DC"/>
<path d="M248.867 134.602H260.352ZM254.609 128.859V140.344Z" fill="black"/>
<path d="M248.867 134.602H260.352M254.609 128.859V140.344" stroke="#F2CDCD" stroke-width="0.98" stroke-linecap="round"/>
<path d="M143.047 264.104C143.894 264.104 144.581 263.418 144.581 262.57C144.581 261.723 143.894 261.036 143.047 261.036C142.2 261.036 141.513 261.723 141.513 262.57C141.513 263.418 142.2 264.104 143.047 264.104Z" fill="#F5E0DC"/>
<path d="M136.074 262.57H150.02ZM143.047 255.598V269.543Z" fill="black"/>
<path d="M136.074 262.57H150.02M143.047 255.598V269.543" stroke="#F2CDCD" stroke-width="1.19" stroke-linecap="round"/>
</g>
<g opacity="0.35" filter="url(#filter4_d_13_10)">
<path d="M245.203 254.406C249.734 254.406 253.406 250.734 253.406 246.203C253.406 241.673 249.734 238 245.203 238C240.673 238 237 241.673 237 246.203C237 250.734 240.673 254.406 245.203 254.406Z" fill="#181825"/>
<path d="M286.219 316.75C288.937 316.75 291.141 314.546 291.141 311.828C291.141 309.11 288.937 306.906 286.219 306.906C283.5 306.906 281.297 309.11 281.297 311.828C281.297 314.546 283.5 316.75 286.219 316.75Z" fill="#181825"/>
<path d="M265.711 293.781C269.335 293.781 272.273 290.843 272.273 287.219C272.273 283.594 269.335 280.656 265.711 280.656C262.087 280.656 259.148 283.594 259.148 287.219C259.148 290.843 262.087 293.781 265.711 293.781Z" fill="#181825"/>
<path d="M302.625 263.02C305.117 263.02 307.137 261 307.137 258.508C307.137 256.016 305.117 253.996 302.625 253.996C300.133 253.996 298.113 256.016 298.113 258.508C298.113 261 300.133 263.02 302.625 263.02Z" fill="#181825"/>
<path d="M257.508 333.977C260.679 333.977 263.25 331.406 263.25 328.234C263.25 325.063 260.679 322.492 257.508 322.492C254.336 322.492 251.766 325.063 251.766 328.234C251.766 331.406 254.336 333.977 257.508 333.977Z" fill="#181825"/>
</g>
</g>
</g>
</g>
<defs>
<filter id="filter0_d_13_10" x="0.6" y="0.6" width="540.8" height="540.8" filterUnits="userSpaceOnUse" color-interpolation-filters="sRGB">
<feFlood flood-opacity="0" result="BackgroundImageFix"/>
<feColorMatrix in="SourceAlpha" type="matrix" values="0 0 0 0 0 0 0 0 0 0 0 0 0 0 0 0 0 0 127 0" result="hardAlpha"/>
<feOffset dy="4"/>
<feGaussianBlur stdDeviation="7.2"/>
<feComposite in2="hardAlpha" operator="out"/>
<feColorMatrix type="matrix" values="0 0 0 0 0 0 0 0 0 0 0 0 0 0 0 0 0 0 1 0"/>
<feBlend mode="normal" in2="BackgroundImageFix" result="effect1_dropShadow_13_10"/>
<feBlend mode="normal" in="SourceGraphic" in2="effect1_dropShadow_13_10" result="shape"/>
</filter>
<filter id="filter1_d_13_10" x="101.065" y="105.104" width="336.792" height="336.792" filterUnits="userSpaceOnUse" color-interpolation-filters="sRGB">
<feFlood flood-opacity="0" result="BackgroundImageFix"/>
<feColorMatrix in="SourceAlpha" type="matrix" values="0 0 0 0 0 0 0 0 0 0 0 0 0 0 0 0 0 0 127 0" result="hardAlpha"/>
<feOffset dy="4"/>
<feGaussianBlur stdDeviation="4.2"/>
<feComposite in2="hardAlpha" operator="out"/>
<feColorMatrix type="matrix" values="0 0 0 0 0 0 0 0 0 0 0 0 0 0 0 0 0 0 0.89 0"/>
<feBlend mode="normal" in2="BackgroundImageFix" result="effect1_dropShadow_13_10"/>
<feBlend mode="normal" in="SourceGraphic" in2="effect1_dropShadow_13_10" result="shape"/>
</filter>
<filter id="filter2_d_13_10" x="106.965" y="111.004" width="324.992" height="324.992" filterUnits="userSpaceOnUse" color-interpolation-filters="sRGB">
<feFlood flood-opacity="0" result="BackgroundImageFix"/>
<feColorMatrix in="SourceAlpha" type="matrix" values="0 0 0 0 0 0 0 0 0 0 0 0 0 0 0 0 0 0 127 0" result="hardAlpha"/>
<feOffset dy="4"/>
<feGaussianBlur stdDeviation="2"/>
<feComposite in2="hardAlpha" operator="out"/>
<feColorMatrix type="matrix" values="0 0 0 0 0 0 0 0 0 0 0 0 0 0 0 0 0 0 1 0"/>
<feBlend mode="normal" in2="BackgroundImageFix" result="effect1_dropShadow_13_10"/>
<feBlend mode="normal" in="SourceGraphic" in2="effect1_dropShadow_13_10" result="shape"/>
</filter>
<filter id="filter3_d_13_10" x="120.3" y="77.4399" width="179.955" height="200.698" filterUnits="userSpaceOnUse" color-interpolation-filters="sRGB">
<feFlood flood-opacity="0" result="BackgroundImageFix"/>
<feColorMatrix in="SourceAlpha" type="matrix" values="0 0 0 0 0 0 0 0 0 0 0 0 0 0 0 0 0 0 127 0" result="hardAlpha"/>
<feOffset dy="4"/>
<feGaussianBlur stdDeviation="2"/>
<feComposite in2="hardAlpha" operator="out"/>
<feColorMatrix type="matrix" values="0 0 0 0 0 0 0 0 0 0 0 0 0 0 0 0 0 0 0.95 0"/>
<feBlend mode="normal" in2="BackgroundImageFix" result="effect1_dropShadow_13_10"/>
<feBlend mode="normal" in="SourceGraphic" in2="effect1_dropShadow_13_10" result="shape"/>
</filter>
<filter id="filter4_d_13_10" x="233" y="238" width="78.1367" height="103.977" filterUnits="userSpaceOnUse" color-interpolation-filters="sRGB">
<feFlood flood-opacity="0" result="BackgroundImageFix"/>
<feColorMatrix in="SourceAlpha" type="matrix" values="0 0 0 0 0 0 0 0 0 0 0 0 0 0 0 0 0 0 127 0" result="hardAlpha"/>
<feOffset dy="4"/>
<feGaussianBlur stdDeviation="2"/>
<feComposite in2="hardAlpha" operator="out"/>
<feColorMatrix type="matrix" values="0 0 0 0 0 0 0 0 0 0 0 0 0 0 0 0 0 0 1 0"/>
<feBlend mode="normal" in2="BackgroundImageFix" result="effect1_dropShadow_13_10"/>
<feBlend mode="normal" in="SourceGraphic" in2="effect1_dropShadow_13_10" result="shape"/>
</filter>
<radialGradient id="paint0_radial_13_10" cx="0" cy="0" r="1" gradientUnits="userSpaceOnUse" gradientTransform="translate(18052.7 16256.5) scale(21555.5)">
<stop stop-color="#F2CDCD" stop-opacity="0.35"/>
<stop offset="1" stop-color="#F2CDCD" stop-opacity="0"/>
</radialGradient>
<linearGradient id="paint1_linear_13_10" x1="110.965" y1="111.004" x2="427.957" y2="427.996" gradientUnits="userSpaceOnUse">
<stop stop-color="#F9E2AF"/>
<stop offset="0.6" stop-color="#FAB387"/>
<stop offset="1" stop-color="#F5E0DC"/>
</linearGradient>
<clipPath id="clip0_13_10">
<rect x="15" y="11" width="512" height="512" rx="80" fill="white"/>
</clipPath>
<clipPath id="clip1_13_10">
<rect width="541" height="541" fill="white" transform="translate(37 -1)"/>
</clipPath>
</defs>
</svg>
