<svg width="512" height="512" viewBox="0 0 512 512" fill="none" xmlns="http://www.w3.org/2000/svg">
<g clip-path="url(#clip0_29_9)">
<g filter="url(#filter0_d_29_9)">
<rect width="512" height="512" rx="80" fill="url(#paint0_linear_29_9)"/>
</g>
<g filter="url(#filter1_d_29_9)">
<path d="M158.875 84.375V141.75M350.125 84.375V141.75M120.625 160.875H388.375M139.75 122.625H369.25C379.395 122.625 389.124 126.655 396.297 133.828C403.47 141.001 407.5 150.73 407.5 160.875V371.25C407.5 381.395 403.47 391.124 396.297 398.297C389.124 405.47 379.395 409.5 369.25 409.5H139.75C129.605 409.5 119.876 405.47 112.703 398.297C105.53 391.124 101.5 381.395 101.5 371.25V160.875C101.5 150.73 105.53 141.001 112.703 133.828C119.876 126.655 129.605 122.625 139.75 122.625Z" stroke="white" stroke-width="24" stroke-linecap="round" stroke-linejoin="round" shape-rendering="crispEdges"/>
</g>
<g filter="url(#filter2_d_29_9)">
<path d="M302.5 379C344.75 379 379 344.75 379 302.5C379 260.25 344.75 226 302.5 226C260.25 226 226 260.25 226 302.5C226 344.75 260.25 379 302.5 379Z" stroke="white" stroke-width="24" stroke-linecap="round" stroke-linejoin="round" shape-rendering="crispEdges"/>
</g>
<g filter="url(#filter3_d_29_9)">
<path d="M296 273V311.25L324.688 330.375" stroke="white" stroke-width="24" stroke-linecap="round" stroke-linejoin="round" shape-rendering="crispEdges"/>
</g>
</g>
<defs>
<filter id="filter0_d_29_9" x="-14.4" y="-10.4" width="540.8" height="540.8" filterUnits="userSpaceOnUse" color-interpolation-filters="sRGB">
<feFlood flood-opacity="0" result="BackgroundImageFix"/>
<feColorMatrix in="SourceAlpha" type="matrix" values="0 0 0 0 0 0 0 0 0 0 0 0 0 0 0 0 0 0 127 0" result="hardAlpha"/>
<feOffset dy="4"/>
<feGaussianBlur stdDeviation="7.2"/>
<feComposite in2="hardAlpha" operator="out"/>
<feColorMatrix type="matrix" values="0 0 0 0 0 0 0 0 0 0 0 0 0 0 0 0 0 0 1 0"/>
<feBlend mode="normal" in2="BackgroundImageFix" result="effect1_dropShadow_29_9"/>
<feBlend mode="normal" in="SourceGraphic" in2="effect1_dropShadow_29_9" result="shape"/>
</filter>
<filter id="filter1_d_29_9" x="45.3" y="32.175" width="418.4" height="437.525" filterUnits="userSpaceOnUse" color-interpolation-filters="sRGB">
<feFlood flood-opacity="0" result="BackgroundImageFix"/>
<feColorMatrix in="SourceAlpha" type="matrix" values="0 0 0 0 0 0 0 0 0 0 0 0 0 0 0 0 0 0 127 0" result="hardAlpha"/>
<feOffset dy="4"/>
<feGaussianBlur stdDeviation="22.1"/>
<feComposite in2="hardAlpha" operator="out"/>
<feColorMatrix type="matrix" values="0 0 0 0 0 0 0 0 0 0 0 0 0 0 0 0 0 0 1 0"/>
<feBlend mode="normal" in2="BackgroundImageFix" result="effect1_dropShadow_29_9"/>
<feBlend mode="normal" in="SourceGraphic" in2="effect1_dropShadow_29_9" result="shape"/>
</filter>
<filter id="filter2_d_29_9" x="169.8" y="173.8" width="265.4" height="265.4" filterUnits="userSpaceOnUse" color-interpolation-filters="sRGB">
<feFlood flood-opacity="0" result="BackgroundImageFix"/>
<feColorMatrix in="SourceAlpha" type="matrix" values="0 0 0 0 0 0 0 0 0 0 0 0 0 0 0 0 0 0 127 0" result="hardAlpha"/>
<feOffset dy="4"/>
<feGaussianBlur stdDeviation="22.1"/>
<feComposite in2="hardAlpha" operator="out"/>
<feColorMatrix type="matrix" values="0 0 0 0 0 0 0 0 0 0 0 0 0 0 0 0 0 0 1 0"/>
<feBlend mode="normal" in2="BackgroundImageFix" result="effect1_dropShadow_29_9"/>
<feBlend mode="normal" in="SourceGraphic" in2="effect1_dropShadow_29_9" result="shape"/>
</filter>
<filter id="filter3_d_29_9" x="239.8" y="220.8" width="141.089" height="169.776" filterUnits="userSpaceOnUse" color-interpolation-filters="sRGB">
<feFlood flood-opacity="0" result="BackgroundImageFix"/>
<feColorMatrix in="SourceAlpha" type="matrix" values="0 0 0 0 0 0 0 0 0 0 0 0 0 0 0 0 0 0 127 0" result="hardAlpha"/>
<feOffset dy="4"/>
<feGaussianBlur stdDeviation="22.1"/>
<feComposite in2="hardAlpha" operator="out"/>
<feColorMatrix type="matrix" values="0 0 0 0 0 0 0 0 0 0 0 0 0 0 0 0 0 0 1 0"/>
<feBlend mode="normal" in2="BackgroundImageFix" result="effect1_dropShadow_29_9"/>
<feBlend mode="normal" in="SourceGraphic" in2="effect1_dropShadow_29_9" result="shape"/>
</filter>
<linearGradient id="paint0_linear_29_9" x1="486.5" y1="23" x2="59" y2="491" gradientUnits="userSpaceOnUse">
<stop stop-color="#CD0408"/>
<stop offset="1" stop-color="#FF00A2"/>
</linearGradient>
<clipPath id="clip0_29_9">
<rect width="512" height="512" fill="white"/>
</clipPath>
</defs>
</svg>
