<svg width="542" height="542" viewBox="0 0 542 542" fill="none" xmlns="http://www.w3.org/2000/svg">
<g filter="url(#filter0_d_12_182)">
<rect x="15" y="11" width="512" height="512" rx="80" fill="#1B1B1B"/>
<g clip-path="url(#clip0_12_182)">
<g style="mix-blend-mode:difference">
<g filter="url(#filter1_d_12_182)">
<path d="M287.417 86.0142C288.444 87.0135 289.099 87.4966 289.553 88.1075C297.792 99.2983 305.906 110.574 314.269 121.689C319.082 128.088 324.205 134.291 329.343 140.477C334.311 146.467 339.557 152.259 344.53 158.25C350.282 165.179 356.112 172.069 361.456 179.258C368.302 188.47 375.199 197.7 381.121 207.408C386.156 215.663 390.18 224.481 394.029 233.285C396.752 239.517 398.579 246.1 400.529 252.598C401.431 255.61 401.684 258.788 402.21 261.89C402.86 265.688 403.964 269.486 404.031 273.293C404.212 283.21 405.151 293.16 403.268 303.035C401.194 313.922 397.722 324.346 392.558 334.4C387.338 344.559 381.013 353.94 373.27 362.621C366.254 370.487 358.015 376.985 349.106 382.943C342.565 387.314 335.647 391.027 328.285 393.977C321.661 396.629 314.836 398.756 307.81 400.555C291.947 404.609 275.862 405.499 259.663 404.453C249.898 403.823 240.019 402.724 230.717 399.499C223.072 396.847 215.37 394.228 208.06 390.913C202.287 388.299 196.757 385.022 191.691 381.37C185.047 376.582 178.526 371.515 172.774 365.865C167.62 360.807 163.158 355.034 159.155 349.143C154.935 342.925 151.216 336.351 148.022 329.631C144.571 322.376 142.342 314.737 140.527 306.913C137.7 294.737 138.613 282.552 139.19 270.405C139.521 263.429 141.527 256.448 143.452 249.633C145.479 242.444 147.929 235.302 150.901 228.398C153.877 221.483 157.334 214.683 161.291 208.199C166.259 200.063 171.737 192.168 177.386 184.411C182.514 177.364 188.054 170.563 193.621 163.801C198.104 158.354 202.994 153.188 207.534 147.779C212.125 142.309 216.541 136.716 220.983 131.142C225.682 125.241 230.418 119.364 234.958 113.359C240.715 105.749 246.261 98.0007 251.966 90.357C252.781 89.263 253.968 88.3964 254.979 87.4255C255.18 87.5297 255.381 87.6339 255.588 87.7381C255.629 88.5763 255.706 89.4146 255.706 90.2528C255.712 102.722 255.784 115.192 255.619 127.661C255.593 129.489 254.783 131.521 253.7 133.089C249.315 139.458 244.832 145.781 240.091 151.933C235.598 157.762 230.743 163.36 226.049 169.057C222.18 173.751 218.326 178.449 214.431 183.123C211.728 186.367 208.891 189.516 206.249 192.803C202.556 197.406 198.846 202.014 195.4 206.774C191.242 212.514 187.152 218.31 183.417 224.282C180.744 228.554 178.64 233.133 176.406 237.623C175.168 240.114 174.028 242.662 173.125 245.267C171.526 249.889 170.246 254.601 168.647 259.223C164.149 272.209 165.103 285.569 166.109 298.768C166.62 305.469 169.261 312.099 171.474 318.606C174.574 327.718 179.893 335.797 185.893 343.583C189.989 348.901 194.637 353.708 199.894 357.961C204.222 361.456 208.922 364.672 213.859 367.395C219.476 370.492 225.326 373.442 231.46 375.479C238.007 377.653 244.925 379.263 251.827 380.063C260.045 381.015 268.418 380.811 276.718 381.171C284.425 381.503 291.9 380.087 299.381 378.737C308.878 377.023 317.555 373.263 325.99 369.142C336.075 364.217 344.551 357.241 351.974 349.38C359.563 341.343 365.934 332.307 369.989 322.385C374.265 311.919 377.83 301.088 377.288 289.585C376.994 283.367 377.366 277.111 376.742 270.93C376.282 266.379 374.874 261.88 373.564 257.433C372.026 252.209 370.453 246.967 368.322 241.933C366.202 236.917 363.494 232.106 360.832 227.299C358.474 223.041 356.024 218.812 353.269 214.768C349.916 209.847 346.367 205.017 342.601 200.357C336.9 193.3 330.87 186.471 325.107 179.462C318.36 171.255 311.628 163.038 305.107 154.679C299.479 147.471 294.113 140.088 288.748 132.71C287.887 131.526 287.201 129.968 287.185 128.58C287.067 115.088 287.108 101.595 287.118 88.1027C287.118 87.6528 287.242 87.1982 287.417 86V86.0142Z" fill="url(#paint0_linear_12_182)"/>
</g>
</g>
</g>
</g>
<defs>
<filter id="filter0_d_12_182" x="0.6" y="0.6" width="540.8" height="540.8" filterUnits="userSpaceOnUse" color-interpolation-filters="sRGB">
<feFlood flood-opacity="0" result="BackgroundImageFix"/>
<feColorMatrix in="SourceAlpha" type="matrix" values="0 0 0 0 0 0 0 0 0 0 0 0 0 0 0 0 0 0 127 0" result="hardAlpha"/>
<feOffset dy="4"/>
<feGaussianBlur stdDeviation="7.2"/>
<feComposite in2="hardAlpha" operator="out"/>
<feColorMatrix type="matrix" values="0 0 0 0 0 0 0 0 0 0 0 0 0 0 0 0 0 0 1 0"/>
<feBlend mode="normal" in2="BackgroundImageFix" result="effect1_dropShadow_12_182"/>
<feBlend mode="normal" in="SourceGraphic" in2="effect1_dropShadow_12_182" result="shape"/>
</filter>
<filter id="filter1_d_12_182" x="130.977" y="82.4" width="281.048" height="334.055" filterUnits="userSpaceOnUse" color-interpolation-filters="sRGB">
<feFlood flood-opacity="0" result="BackgroundImageFix"/>
<feColorMatrix in="SourceAlpha" type="matrix" values="0 0 0 0 0 0 0 0 0 0 0 0 0 0 0 0 0 0 127 0" result="hardAlpha"/>
<feOffset dy="4"/>
<feGaussianBlur stdDeviation="3.8"/>
<feComposite in2="hardAlpha" operator="out"/>
<feColorMatrix type="matrix" values="0 0 0 0 0 0 0 0 0 0.635294 0 0 0 0 0.972549 0 0 0 1 0"/>
<feBlend mode="normal" in2="BackgroundImageFix" result="effect1_dropShadow_12_182"/>
<feBlend mode="normal" in="SourceGraphic" in2="effect1_dropShadow_12_182" result="shape"/>
</filter>
<linearGradient id="paint0_linear_12_182" x1="143.178" y1="357.085" x2="413.321" y2="111.597" gradientUnits="userSpaceOnUse">
<stop stop-color="#00A2F8"/>
<stop offset="1" stop-color="#00E5CF"/>
</linearGradient>
<clipPath id="clip0_12_182">
<rect width="301" height="361" fill="white" transform="translate(121 86)"/>
</clipPath>
</defs>
</svg>
