<svg width="512" height="512" viewBox="0 0 512 512" fill="none" xmlns="http://www.w3.org/2000/svg">
<g clip-path="url(#clip0_25_29)">
<g filter="url(#filter0_d_25_29)">
<rect width="512" height="512" rx="80" fill="url(#paint0_linear_25_29)"/>
<g filter="url(#filter1_d_25_29)">
<path d="M156.271 190.396C156.271 164.079 166.725 138.839 185.334 120.23C203.943 101.621 229.183 91.1666 255.5 91.1666C281.817 91.1666 307.057 101.621 325.666 120.23C344.275 138.839 354.729 164.079 354.729 190.396C354.729 248.129 378.183 273.387 390.812 293.233C396.225 302.254 390.812 316.687 378.183 316.687H132.817C120.188 316.687 114.775 302.254 120.188 293.233C132.817 273.387 156.271 248.129 156.271 190.396Z" stroke="white" stroke-width="38" stroke-linecap="round" stroke-linejoin="round" shape-rendering="crispEdges"/>
</g>
<g filter="url(#filter2_d_25_29)">
<path d="M214.906 367.688C214.906 378.454 219.183 388.779 226.796 396.392C234.409 404.004 244.734 408.281 255.5 408.281C266.266 408.281 276.591 404.004 284.204 396.392C291.817 388.779 296.094 378.454 296.094 367.688" stroke="white" stroke-width="38" stroke-linecap="round" stroke-linejoin="round"/>
</g>
<g filter="url(#filter3_d_25_29)">
<path d="M383 191C418.899 191 448 161.899 448 126C448 90.1015 418.899 61 383 61C347.101 61 318 90.1015 318 126C318 161.899 347.101 191 383 191Z" fill="#FF0004"/>
</g>
</g>
</g>
<defs>
<filter id="filter0_d_25_29" x="-14.4" y="-10.4" width="540.8" height="540.8" filterUnits="userSpaceOnUse" color-interpolation-filters="sRGB">
<feFlood flood-opacity="0" result="BackgroundImageFix"/>
<feColorMatrix in="SourceAlpha" type="matrix" values="0 0 0 0 0 0 0 0 0 0 0 0 0 0 0 0 0 0 127 0" result="hardAlpha"/>
<feOffset dy="4"/>
<feGaussianBlur stdDeviation="7.2"/>
<feComposite in2="hardAlpha" operator="out"/>
<feColorMatrix type="matrix" values="0 0 0 0 0 0 0 0 0 0 0 0 0 0 0 0 0 0 1 0"/>
<feBlend mode="normal" in2="BackgroundImageFix" result="effect1_dropShadow_25_29"/>
<feBlend mode="normal" in="SourceGraphic" in2="effect1_dropShadow_25_29" result="shape"/>
</filter>
<filter id="filter1_d_25_29" x="83.1986" y="60.2666" width="344.603" height="295.321" filterUnits="userSpaceOnUse" color-interpolation-filters="sRGB">
<feFlood flood-opacity="0" result="BackgroundImageFix"/>
<feColorMatrix in="SourceAlpha" type="matrix" values="0 0 0 0 0 0 0 0 0 0 0 0 0 0 0 0 0 0 127 0" result="hardAlpha"/>
<feOffset dy="4"/>
<feGaussianBlur stdDeviation="7.95"/>
<feComposite in2="hardAlpha" operator="out"/>
<feColorMatrix type="matrix" values="0 0 0 0 0 0 0 0 0 0 0 0 0 0 0 0 0 0 1 0"/>
<feBlend mode="normal" in2="BackgroundImageFix" result="effect1_dropShadow_25_29"/>
<feBlend mode="normal" in="SourceGraphic" in2="effect1_dropShadow_25_29" result="shape"/>
</filter>
<filter id="filter2_d_25_29" x="180.006" y="336.788" width="150.987" height="110.394" filterUnits="userSpaceOnUse" color-interpolation-filters="sRGB">
<feFlood flood-opacity="0" result="BackgroundImageFix"/>
<feColorMatrix in="SourceAlpha" type="matrix" values="0 0 0 0 0 0 0 0 0 0 0 0 0 0 0 0 0 0 127 0" result="hardAlpha"/>
<feOffset dy="4"/>
<feGaussianBlur stdDeviation="7.95"/>
<feComposite in2="hardAlpha" operator="out"/>
<feColorMatrix type="matrix" values="0 0 0 0 0 0 0 0 0 0 0 0 0 0 0 0 0 0 1 0"/>
<feBlend mode="normal" in2="BackgroundImageFix" result="effect1_dropShadow_25_29"/>
<feBlend mode="normal" in="SourceGraphic" in2="effect1_dropShadow_25_29" result="shape"/>
</filter>
<filter id="filter3_d_25_29" x="312.7" y="59.7" width="140.6" height="140.6" filterUnits="userSpaceOnUse" color-interpolation-filters="sRGB">
<feFlood flood-opacity="0" result="BackgroundImageFix"/>
<feColorMatrix in="SourceAlpha" type="matrix" values="0 0 0 0 0 0 0 0 0 0 0 0 0 0 0 0 0 0 127 0" result="hardAlpha"/>
<feOffset dy="4"/>
<feGaussianBlur stdDeviation="2.65"/>
<feComposite in2="hardAlpha" operator="out"/>
<feColorMatrix type="matrix" values="0 0 0 0 0 0 0 0 0 0 0 0 0 0 0 0 0 0 1 0"/>
<feBlend mode="normal" in2="BackgroundImageFix" result="effect1_dropShadow_25_29"/>
<feBlend mode="normal" in="SourceGraphic" in2="effect1_dropShadow_25_29" result="shape"/>
</filter>
<linearGradient id="paint0_linear_25_29" x1="486.5" y1="23" x2="59" y2="491" gradientUnits="userSpaceOnUse">
<stop stop-color="#FF8000"/>
<stop offset="1" stop-color="#C4FF00"/>
</linearGradient>
<clipPath id="clip0_25_29">
<rect width="512" height="512" fill="white"/>
</clipPath>
</defs>
</svg>
