<svg width="512" height="512" viewBox="0 0 512 512" fill="none" xmlns="http://www.w3.org/2000/svg">
<g clip-path="url(#clip0_22_81)">
<g filter="url(#filter0_d_22_81)">
<rect width="512" height="512" rx="80" fill="url(#paint0_linear_22_81)"/>
<g filter="url(#filter1_d_22_81)">
<path d="M224.942 140.063L163.067 193.063H132.774H112.149V299.063H163.067L226.231 352.615L235.899 352.064V140.064L224.942 140.063Z" fill="white"/>
</g>
<g filter="url(#filter2_d_22_81)">
<path d="M262.969 199.136C255.591 200.761 253.149 210.522 259.102 214.594C279.355 232.086 279.295 259.992 259.102 277.531C258.937 277.673 259.184 278.019 259.102 278.083C253.801 280.86 252.797 288.102 257.19 291.865C261.584 295.629 270.039 294.769 273.282 290.228C273.447 290.087 273.843 290.299 273.925 290.228C301.953 265.884 302.036 226.174 273.925 201.895C271.549 199.632 267.743 198.545 264.257 199.135C263.828 199.112 263.398 199.113 262.969 199.136Z" fill="white"/>
</g>
<g filter="url(#filter3_d_22_81)">
<path d="M291.973 159.938C284.167 161.525 282.016 172.212 288.75 175.948C333.617 207.586 340.132 264.6 303.574 303.479C298.892 308.459 295.113 312.094 289.395 316.177C283.927 318.591 282.26 325.636 286.198 329.684C290.136 333.733 298.526 333.598 302.285 329.427C308.894 324.708 314.283 320.269 319.688 314.521C363.229 268.214 355.141 199.872 301.641 162.146C299.407 160.408 296.251 159.575 293.262 159.938C292.833 159.915 292.402 159.915 291.973 159.938Z" fill="white"/>
</g>
<g filter="url(#filter4_d_22_81)">
<path d="M322.266 122.396C314.633 124.268 312.931 134.834 319.688 138.407C388.479 184.714 400.903 270.376 347.403 329.979C338.809 339.553 330.741 346.283 319.688 353.719C315.301 356.465 314.226 362.383 317.431 366.14C320.638 369.899 327.547 370.819 331.934 368.073C344.139 359.862 354.035 351.032 363.516 340.469C423.799 273.308 409.523 176.281 331.934 124.052C329.592 122.507 326.451 121.886 323.555 122.397C323.126 122.374 322.695 122.373 322.266 122.396Z" fill="white"/>
</g>
</g>
</g>
<defs>
<filter id="filter0_d_22_81" x="-14.4" y="-10.4" width="540.8" height="540.8" filterUnits="userSpaceOnUse" color-interpolation-filters="sRGB">
<feFlood flood-opacity="0" result="BackgroundImageFix"/>
<feColorMatrix in="SourceAlpha" type="matrix" values="0 0 0 0 0 0 0 0 0 0 0 0 0 0 0 0 0 0 127 0" result="hardAlpha"/>
<feOffset dy="4"/>
<feGaussianBlur stdDeviation="7.2"/>
<feComposite in2="hardAlpha" operator="out"/>
<feColorMatrix type="matrix" values="0 0 0 0 0 0 0 0 0 0 0 0 0 0 0 0 0 0 1 0"/>
<feBlend mode="normal" in2="BackgroundImageFix" result="effect1_dropShadow_22_81"/>
<feBlend mode="normal" in="SourceGraphic" in2="effect1_dropShadow_22_81" result="shape"/>
</filter>
<filter id="filter1_d_22_81" x="103.549" y="135.463" width="140.95" height="229.752" filterUnits="userSpaceOnUse" color-interpolation-filters="sRGB">
<feFlood flood-opacity="0" result="BackgroundImageFix"/>
<feColorMatrix in="SourceAlpha" type="matrix" values="0 0 0 0 0 0 0 0 0 0 0 0 0 0 0 0 0 0 127 0" result="hardAlpha"/>
<feOffset dy="4"/>
<feGaussianBlur stdDeviation="4.3"/>
<feComposite in2="hardAlpha" operator="out"/>
<feColorMatrix type="matrix" values="0 0 0 0 0 0 0 0 0 0 0 0 0 0 0 0 0 0 1 0"/>
<feBlend mode="normal" in2="BackgroundImageFix" result="effect1_dropShadow_22_81"/>
<feBlend mode="normal" in="SourceGraphic" in2="effect1_dropShadow_22_81" result="shape"/>
</filter>
<filter id="filter2_d_22_81" x="245.829" y="194.376" width="57.7483" height="112.455" filterUnits="userSpaceOnUse" color-interpolation-filters="sRGB">
<feFlood flood-opacity="0" result="BackgroundImageFix"/>
<feColorMatrix in="SourceAlpha" type="matrix" values="0 0 0 0 0 0 0 0 0 0 0 0 0 0 0 0 0 0 127 0" result="hardAlpha"/>
<feOffset dy="4"/>
<feGaussianBlur stdDeviation="4.3"/>
<feComposite in2="hardAlpha" operator="out"/>
<feColorMatrix type="matrix" values="0 0 0 0 0 0 0 0 0 0 0 0 0 0 0 0 0 0 1 0"/>
<feBlend mode="normal" in2="BackgroundImageFix" result="effect1_dropShadow_22_81"/>
<feBlend mode="normal" in="SourceGraphic" in2="effect1_dropShadow_22_81" result="shape"/>
</filter>
<filter id="filter3_d_22_81" x="275.437" y="155.254" width="80.8759" height="189.986" filterUnits="userSpaceOnUse" color-interpolation-filters="sRGB">
<feFlood flood-opacity="0" result="BackgroundImageFix"/>
<feColorMatrix in="SourceAlpha" type="matrix" values="0 0 0 0 0 0 0 0 0 0 0 0 0 0 0 0 0 0 127 0" result="hardAlpha"/>
<feOffset dy="4"/>
<feGaussianBlur stdDeviation="4.3"/>
<feComposite in2="hardAlpha" operator="out"/>
<feColorMatrix type="matrix" values="0 0 0 0 0 0 0 0 0 0 0 0 0 0 0 0 0 0 1 0"/>
<feBlend mode="normal" in2="BackgroundImageFix" result="effect1_dropShadow_22_81"/>
<feBlend mode="normal" in="SourceGraphic" in2="effect1_dropShadow_22_81" result="shape"/>
</filter>
<filter id="filter4_d_22_81" x="306.862" y="117.621" width="102.588" height="264.641" filterUnits="userSpaceOnUse" color-interpolation-filters="sRGB">
<feFlood flood-opacity="0" result="BackgroundImageFix"/>
<feColorMatrix in="SourceAlpha" type="matrix" values="0 0 0 0 0 0 0 0 0 0 0 0 0 0 0 0 0 0 127 0" result="hardAlpha"/>
<feOffset dy="4"/>
<feGaussianBlur stdDeviation="4.3"/>
<feComposite in2="hardAlpha" operator="out"/>
<feColorMatrix type="matrix" values="0 0 0 0 0 0 0 0 0 0 0 0 0 0 0 0 0 0 1 0"/>
<feBlend mode="normal" in2="BackgroundImageFix" result="effect1_dropShadow_22_81"/>
<feBlend mode="normal" in="SourceGraphic" in2="effect1_dropShadow_22_81" result="shape"/>
</filter>
<linearGradient id="paint0_linear_22_81" x1="486.5" y1="23" x2="59" y2="491" gradientUnits="userSpaceOnUse">
<stop stop-color="#CD0408"/>
<stop offset="1" stop-color="#FF00A2"/>
</linearGradient>
<clipPath id="clip0_22_81">
<rect width="512" height="512" fill="white"/>
</clipPath>
</defs>
</svg>
