<svg width="512" height="512" viewBox="0 0 512 512" fill="none" xmlns="http://www.w3.org/2000/svg">
<g clip-path="url(#clip0_24_8)">
<g filter="url(#filter0_d_24_8)">
<rect width="512" height="512" rx="80" fill="url(#paint0_linear_24_8)"/>
<g filter="url(#filter1_d_24_8)">
<path d="M396 96H116C93.9086 96 76 113.853 76 135.875V375.125C76 397.147 93.9086 415 116 415H396C418.091 415 436 397.147 436 375.125V135.875C436 113.853 418.091 96 396 96Z" stroke="white" stroke-width="25" stroke-linecap="round" stroke-linejoin="round" shape-rendering="crispEdges"/>
</g>
<g filter="url(#filter2_d_24_8)">
<path d="M336 235C358.091 235 376 217.091 376 195C376 172.909 358.091 155 336 155C313.909 155 296 172.909 296 195C296 217.091 313.909 235 336 235Z" stroke="white" stroke-width="25" stroke-linecap="round" stroke-linejoin="round" shape-rendering="crispEdges"/>
</g>
<g filter="url(#filter3_d_24_8)">
<path d="M106 355L190 271.241C192.157 268.966 194.822 267.229 197.778 266.172C200.733 265.114 203.897 264.766 207.013 265.154C210.129 265.542 213.11 266.657 215.713 268.407C218.317 270.158 220.471 272.495 222 275.23L276 355" stroke="white" stroke-width="25" stroke-linecap="round" stroke-linejoin="round"/>
</g>
<g filter="url(#filter4_d_24_8)">
<path d="M246 315.115L290 271.241C292.157 268.966 294.822 267.229 297.778 266.172C300.733 265.114 303.897 264.766 307.013 265.154C310.129 265.542 313.11 266.657 315.713 268.407C318.317 270.158 320.471 272.495 322 275.23L406 355" stroke="white" stroke-width="25" stroke-linecap="round" stroke-linejoin="round"/>
</g>
</g>
</g>
<defs>
<filter id="filter0_d_24_8" x="-14.4" y="-10.4" width="540.8" height="540.8" filterUnits="userSpaceOnUse" color-interpolation-filters="sRGB">
<feFlood flood-opacity="0" result="BackgroundImageFix"/>
<feColorMatrix in="SourceAlpha" type="matrix" values="0 0 0 0 0 0 0 0 0 0 0 0 0 0 0 0 0 0 127 0" result="hardAlpha"/>
<feOffset dy="4"/>
<feGaussianBlur stdDeviation="7.2"/>
<feComposite in2="hardAlpha" operator="out"/>
<feColorMatrix type="matrix" values="0 0 0 0 0 0 0 0 0 0 0 0 0 0 0 0 0 0 1 0"/>
<feBlend mode="normal" in2="BackgroundImageFix" result="effect1_dropShadow_24_8"/>
<feBlend mode="normal" in="SourceGraphic" in2="effect1_dropShadow_24_8" result="shape"/>
</filter>
<filter id="filter1_d_24_8" x="55.1" y="79.1" width="401.8" height="360.8" filterUnits="userSpaceOnUse" color-interpolation-filters="sRGB">
<feFlood flood-opacity="0" result="BackgroundImageFix"/>
<feColorMatrix in="SourceAlpha" type="matrix" values="0 0 0 0 0 0 0 0 0 0 0 0 0 0 0 0 0 0 127 0" result="hardAlpha"/>
<feOffset dy="4"/>
<feGaussianBlur stdDeviation="4.2"/>
<feComposite in2="hardAlpha" operator="out"/>
<feColorMatrix type="matrix" values="0 0 0 0 0 0 0 0 0 0 0 0 0 0 0 0 0 0 1 0"/>
<feBlend mode="normal" in2="BackgroundImageFix" result="effect1_dropShadow_24_8"/>
<feBlend mode="normal" in="SourceGraphic" in2="effect1_dropShadow_24_8" result="shape"/>
</filter>
<filter id="filter2_d_24_8" x="275.1" y="138.1" width="121.8" height="121.8" filterUnits="userSpaceOnUse" color-interpolation-filters="sRGB">
<feFlood flood-opacity="0" result="BackgroundImageFix"/>
<feColorMatrix in="SourceAlpha" type="matrix" values="0 0 0 0 0 0 0 0 0 0 0 0 0 0 0 0 0 0 127 0" result="hardAlpha"/>
<feOffset dy="4"/>
<feGaussianBlur stdDeviation="4.2"/>
<feComposite in2="hardAlpha" operator="out"/>
<feColorMatrix type="matrix" values="0 0 0 0 0 0 0 0 0 0 0 0 0 0 0 0 0 0 1 0"/>
<feBlend mode="normal" in2="BackgroundImageFix" result="effect1_dropShadow_24_8"/>
<feBlend mode="normal" in="SourceGraphic" in2="effect1_dropShadow_24_8" result="shape"/>
</filter>
<filter id="filter3_d_24_8" x="85.1" y="248.1" width="211.801" height="131.801" filterUnits="userSpaceOnUse" color-interpolation-filters="sRGB">
<feFlood flood-opacity="0" result="BackgroundImageFix"/>
<feColorMatrix in="SourceAlpha" type="matrix" values="0 0 0 0 0 0 0 0 0 0 0 0 0 0 0 0 0 0 127 0" result="hardAlpha"/>
<feOffset dy="4"/>
<feGaussianBlur stdDeviation="4.2"/>
<feComposite in2="hardAlpha" operator="out"/>
<feColorMatrix type="matrix" values="0 0 0 0 0 0 0 0 0 0 0 0 0 0 0 0 0 0 1 0"/>
<feBlend mode="normal" in2="BackgroundImageFix" result="effect1_dropShadow_24_8"/>
<feBlend mode="normal" in="SourceGraphic" in2="effect1_dropShadow_24_8" result="shape"/>
</filter>
<filter id="filter4_d_24_8" x="225.1" y="248.1" width="201.8" height="131.8" filterUnits="userSpaceOnUse" color-interpolation-filters="sRGB">
<feFlood flood-opacity="0" result="BackgroundImageFix"/>
<feColorMatrix in="SourceAlpha" type="matrix" values="0 0 0 0 0 0 0 0 0 0 0 0 0 0 0 0 0 0 127 0" result="hardAlpha"/>
<feOffset dy="4"/>
<feGaussianBlur stdDeviation="4.2"/>
<feComposite in2="hardAlpha" operator="out"/>
<feColorMatrix type="matrix" values="0 0 0 0 0 0 0 0 0 0 0 0 0 0 0 0 0 0 1 0"/>
<feBlend mode="normal" in2="BackgroundImageFix" result="effect1_dropShadow_24_8"/>
<feBlend mode="normal" in="SourceGraphic" in2="effect1_dropShadow_24_8" result="shape"/>
</filter>
<linearGradient id="paint0_linear_24_8" x1="486.5" y1="23" x2="59" y2="491" gradientUnits="userSpaceOnUse">
<stop stop-color="#0072AF"/>
<stop offset="1" stop-color="#B4BEFE"/>
</linearGradient>
<clipPath id="clip0_24_8">
<rect width="512" height="512" fill="white"/>
</clipPath>
</defs>
</svg>
