<svg width="427" height="442" viewBox="0 0 427 442" fill="none" xmlns="http://www.w3.org/2000/svg">
<path d="M323.026 144.168H112.107C97.173 144.168 85.0664 158.159 85.0664 175.418V237.918C85.0664 255.177 97.173 269.168 112.107 269.168H323.026C337.96 269.168 350.066 255.177 350.066 237.918V175.418C350.066 158.159 337.96 144.168 323.026 144.168Z" stroke="black" stroke-width="10" stroke-linecap="round" stroke-linejoin="round"/>
<path d="M351 177V177C358.732 177 365 183.268 365 191V225C365 232.732 358.732 239 351 239V239V177Z" fill="black"/>
<path d="M234.954 188.49L232.498 191.034L236.034 191.031L290.127 190.995L133.9 289.363L210.422 213.958L213.031 211.387L209.368 211.389L155.049 211.43L297.653 123.523L234.954 188.49Z" fill="white" stroke="black" stroke-width="3"/>
<path d="M188.5 256.5H168.5" stroke="black"/>
<path d="M241.5 183C242.284 174.183 241.076 169.836 235 163.5" stroke="black"/>
<path d="M241.5 191V223" stroke="black"/>
<path d="M244.582 206.111C244.327 205.969 244.167 205.854 244.117 205.761C243.983 205.512 244.095 205.026 244.224 204.432C244.282 203.994 244.296 203.751 244.324 203.665C244.339 203.622 244.353 203.579 244.367 203.535" stroke="black" stroke-width="2" stroke-linecap="round"/>
<path d="M245.226 194.521C245.17 194.564 244.97 194.508 244.755 194.436C244.544 194.365 244.411 194.35 244.333 194.328C244.154 194.28 244.139 194.007 244.046 193.899C243.873 193.699 244.124 194.562 244.196 194.821C244.21 194.864 244.224 194.907 244.232 194.985C244.239 195.064 244.239 195.177 244.239 195.294" stroke="black" stroke-width="5" stroke-linecap="round"/>
<path d="M245.526 198.084C245.866 198.027 246.206 197.971 247.961 197.552C249.715 197.133 252.874 196.354 254.771 195.932C256.667 195.509 257.205 195.467 257.582 195.452C257.958 195.437 258.156 195.451 258.485 195.522C258.814 195.593 259.267 195.721 259.685 195.864C260.48 196.138 260.907 196.338 261.064 196.388C261.553 196.544 261.865 196.582 262.286 196.617C262.993 196.677 263.253 196.582 263.361 196.575C263.384 196.573 263.341 196.553 262.802 196.525C262.263 196.496 261.229 196.454 259.775 196.503C258.322 196.552 256.481 196.693 255.489 196.759C254.498 196.825 254.413 196.811 254.348 196.797C254.283 196.782 254.241 196.768 254.283 196.74C254.325 196.711 254.452 196.668 255.828 196.597C257.204 196.526 259.824 196.426 261.514 196.425C263.204 196.423 263.884 196.523 264.277 196.595C264.76 196.684 264.899 196.768 264.963 196.803C264.984 196.814 264.929 196.853 264.865 196.889C264.8 196.925 264.715 196.967 261.966 197.903C259.217 198.838 253.806 200.666 250.678 201.77C247.551 202.874 246.871 203.2 246.492 203.389C246.114 203.578 246.057 203.62 246.07 203.642C246.084 203.664 246.169 203.664 247.905 203.069C249.642 202.474 253.027 201.285 255.125 200.495C257.223 199.705 257.931 199.35 258.431 199.111C259.193 198.746 259.59 198.614 259.783 198.571C259.862 198.553 259.905 198.556 259.899 198.599C259.892 198.641 259.836 198.726 258.737 199.634C257.638 200.542 255.499 202.27 254.355 203.224C253.097 204.273 253.01 204.536 252.967 204.708C252.939 204.82 252.966 204.909 253.009 204.994C253.032 205.041 253.08 205.08 253.159 205.102C253.345 205.154 253.538 205.095 254.332 204.635C255.062 204.212 256.43 203.366 257.598 202.73C258.766 202.095 259.687 201.684 260.268 201.458C261.044 201.156 261.365 201.175 261.408 201.238C261.451 201.301 261.197 201.43 259.537 202.395C257.877 203.36 254.733 205.159 253.084 206.107C251.436 207.055 251.38 207.097 252.625 206.56C253.871 206.022 256.421 204.903 258.152 204.227C259.883 203.552 260.719 203.354 261.22 203.251C261.722 203.149 261.863 203.149 261.887 203.199C262.183 203.827 260.594 204.179 260.308 204.421C260.077 204.617 259.722 205.035 259.266 205.606C258.592 206.449 258.348 206.639 258.168 206.854C257.938 207.13 257.718 207.284 257.525 207.412C257.193 207.634 256.817 207.884 256.559 208.056C256.433 208.14 256.245 208.313 255.86 208.549C254.878 209.149 254.471 209.343 254.177 209.523C253.728 209.796 253.141 210.272 252.767 210.546C252.373 210.835 252.095 211.161 251.909 211.354C251.68 211.592 251.437 211.804 251.129 212.055C250.89 212.249 250.564 212.435 250.363 212.563C250.081 212.744 249.82 213.006 249.598 213.143C249.366 213.285 249.09 213.422 248.889 213.579C248.635 213.779 248.389 214.137 248.096 214.451C247.878 214.686 247.659 214.952 247.145 215.466C246.933 215.679 246.729 215.783 246.557 215.89C246.472 215.926 246.385 215.969 246.3 216.026C246.257 216.055 246.214 216.083 246.127 216.112" stroke="black" stroke-width="5" stroke-linecap="round"/>
<path d="M259.047 208.515C259.061 208.43 259.488 207.945 260.224 207.274C260.555 206.971 261.054 206.436 261.374 206.124C262.062 205.45 262.552 205.025 262.852 204.746C263.271 204.356 263.439 204.18 263.682 203.994C263.834 203.877 263.954 203.765 264.26 203.552C264.969 203.057 265.471 202.634 265.642 202.521C265.879 202.363 266.185 202.064 266.493 201.763C266.664 201.596 267.184 201.093 267.935 200.336C268.522 199.743 268.862 199.687 269.055 199.587C269.107 199.56 269.162 199.53 269.737 199.338C270.311 199.146 271.402 198.792 271.992 198.596C272.642 198.379 272.896 198.285 273.26 198.171C273.962 197.951 274.513 197.37 274.728 197.183C274.962 196.98 275.271 196.783 275.786 196.525C276.067 196.384 276.287 196.353 276.524 196.267C276.813 196.162 277.117 196.025 277.461 195.888C277.78 195.762 277.976 195.667 278.155 195.559C278.353 195.44 278.577 195.437 278.756 195.337C278.963 195.222 279.135 195.165 279.392 195.087C279.69 194.996 280.007 194.922 280.208 194.858C280.395 194.798 280.58 194.623 280.773 194.479C280.964 194.337 281.152 194.25 281.331 194.164C281.58 194.044 281.796 193.907 282.004 193.835C282.182 193.773 282.354 193.72 282.526 193.656C282.709 193.587 282.869 193.506 283.084 193.363C283.306 193.215 283.499 193.091 283.614 193.012C283.706 192.949 283.315 193.019 283.143 193.033C282.913 193.052 282.232 193.119 281.345 193.148C280.667 193.169 280.154 193.219 279.817 193.241C279.652 193.251 279.126 193.277 278.397 193.284C277.79 193.29 277.478 193.348 277.198 193.37C276.943 193.389 276.323 193.533 275.397 193.584C275.145 193.598 274.902 193.62 274.609 193.627C274.358 193.633 273.704 193.663 272.846 193.656C272.441 193.652 272.212 193.62 271.969 193.627C271.81 193.632 271.512 193.705 270.552 193.763C269.834 193.806 268.643 193.763 268.009 193.749C267.175 193.73 266.86 193.677 265.905 193.67C265.559 193.667 264.947 193.706 264.147 193.72C263.593 193.73 263.313 193.82 262.477 193.828C261.867 193.833 261.296 193.82 260.745 193.842C260.494 193.852 259.84 193.878 258.953 193.856C258.204 193.838 257.904 193.592 257.568 193.47C257.465 193.433 257.333 193.448 257.289 193.477C257.244 193.505 257.287 193.562 257.401 193.626C257.515 193.691 257.699 193.762 257.992 193.834C258.285 193.905 258.682 193.976 260.274 194.098C261.867 194.219 264.643 194.389 266.413 194.548C268.183 194.706 268.863 194.848 269.731 194.942C270.598 195.036 271.632 195.079 272.207 195.115C272.869 195.156 272.997 195.208 273.047 195.251C273.08 195.279 273.027 195.378 272.991 195.436C272.93 195.535 272.586 195.679 272.001 195.929C271.701 196.057 271.387 196.165 270.504 196.407C269.621 196.65 268.176 197.018 267.064 197.378C265.951 197.737 265.215 198.077 264.679 198.344C263.821 198.773 263.455 199.028 263.291 199.128C262.766 199.448 262.07 199.656 261.603 200.05C261.231 200.364 261.137 200.915 260.908 201.359C260.866 201.442 260.808 201.432 260.765 201.39C260.656 201.282 260.48 200.976 260.031 200.513C259.757 200.229 259.313 199.922 259.017 199.676C258.551 199.29 258.191 198.817 257.727 198.062C257.454 197.617 257.193 196.995 256.976 196.582C256.43 195.542 255.858 195.209 255.579 195.073C255.33 194.951 255.185 194.709 254.963 194.13C254.917 194.01 254.927 193.964 254.905 193.942C254.858 193.894 254.67 193.949 254.413 193.999C254.159 194.048 253.43 194.049 252.359 194.021C251.14 193.989 250.78 193.778 250.499 193.742C250.248 193.709 249.991 193.677 249.57 193.656C249.433 193.635 249.333 193.606 249.084 193.584C248.892 193.577 248.566 193.577 248.23 193.577" stroke="black" stroke-width="5" stroke-linecap="round"/>
<path d="M244.067 195.036C244.067 195.522 244.096 195.722 244.117 195.93C244.139 196.139 244.21 196.395 244.275 196.581C244.336 196.758 244.353 197.024 244.41 197.232C244.471 197.453 244.582 197.824 244.668 198.155C244.741 198.434 244.739 198.87 244.79 199.106C244.806 199.183 244.797 199.298 244.797 199.151C244.797 198.071 244.726 197.785 244.704 197.662C244.67 197.47 244.64 198.083 244.618 198.255C244.596 198.433 244.511 198.598 244.454 198.77C244.425 198.856 244.397 198.956 244.375 199.063C244.365 199.113 244.368 199.156 244.403 199.065C244.648 198.432 244.625 198.114 244.604 197.978C244.58 197.826 244.283 198.098 244.111 198.205C244.07 198.231 244.025 198.241 243.989 198.291C243.827 198.515 243.967 198.812 244.06 199.071C244.136 199.282 244.181 199.457 244.232 199.806C244.363 200.721 244.282 201.242 244.246 201.738C244.217 202.146 244.139 202.574 244.103 202.969C244.078 203.238 244.024 203.434 243.982 203.699C243.896 204.228 243.967 205.065 243.967 205.7C243.968 206.342 243.867 206.711 243.846 206.926C243.812 207.254 243.781 207.769 243.774 208.213C243.77 208.434 243.853 208.77 243.81 209.029C243.778 209.221 243.724 209.444 243.688 209.644C243.666 209.771 243.667 209.902 243.638 210.03C243.604 210.186 243.595 210.912 243.588 211.899C243.582 212.789 243.581 213.793 243.602 214.001C243.609 214.051 243.623 214.094 243.631 214.151C243.638 214.209 243.638 214.279 243.638 214.352" stroke="black" stroke-width="5" stroke-linecap="round"/>
<path d="M246.901 200.445C246.887 200.899 246.886 201.874 246.908 202.403C246.927 202.863 246.972 203.176 247.15 203.926C247.292 204.521 247.315 204.779 247.337 205.058C247.357 205.31 247.401 205.737 247.423 206.053C247.451 206.468 247.487 206.754 247.488 207.011C247.489 207.735 247.202 208.212 246.938 208.627C246.639 209.096 246.558 209.343 246.465 209.594C246.251 210.166 246.329 211.174 246.335 211.376C246.339 211.496 246.798 210.979 247.262 210.521C247.442 210.344 247.515 210.29 248.139 209.694C248.763 209.098 249.939 207.965 250.63 207.325C251.652 206.376 251.879 206.369 252.022 206.276C252.086 206.234 252.108 206.169 252.109 206.105C252.111 205.715 251.453 205.24 250.881 204.875C250.21 204.446 249.608 204.609 249.099 204.644C248.991 204.652 248.892 204.652 248.862 204.659C248.832 204.666 248.874 204.68 248.918 204.694" stroke="black" stroke-width="5" stroke-linecap="round"/>
<path d="M245.32 216.949C245.298 216.949 245.236 216.954 245.199 216.959C245.134 216.967 245.103 216.966 245.083 216.956C245.055 216.942 245.037 216.941 245.016 216.934C244.988 216.924 244.942 216.9 244.919 216.887C244.902 216.877 244.887 216.863 244.871 216.851C244.854 216.837 244.827 216.818 244.804 216.804C244.784 216.792 244.77 216.783 244.743 216.776C244.701 216.766 244.681 216.759 244.663 216.754C244.645 216.748 244.624 216.741 244.604 216.736C244.576 216.73 244.563 216.714 244.547 216.7C244.529 216.684 244.494 216.668 244.472 216.655C244.45 216.642 244.435 216.628 244.42 216.62C244.409 216.615 244.427 216.648 244.43 216.67C244.437 216.71 244.426 216.789 244.429 216.831C244.431 216.854 244.434 216.883 244.437 216.916C244.445 217.005 244.441 217.036 244.445 217.066C244.447 217.092 244.449 217.183 244.446 217.239C244.444 217.267 244.436 217.295 244.424 217.325C244.408 217.365 244.388 217.396 244.382 217.413C244.364 217.467 244.341 217.536 244.336 217.555C244.331 217.57 244.308 217.619 244.29 217.658C244.278 217.684 244.267 217.708 244.256 217.738C244.236 217.792 244.214 217.833 244.201 217.859C244.171 217.928 244.165 217.949 244.154 217.98C244.152 217.989 244.152 217.999 244.152 218.008" stroke="black" stroke-width="5" stroke-linecap="round"/>
<path d="M244.234 218.496C244.227 218.495 244.206 218.495 244.184 218.505C244.164 218.512 244.147 218.518 244.134 218.525C244.126 218.53 244.116 218.536 244.098 218.543" stroke="black" stroke-width="5" stroke-linecap="round"/>
<path d="M287.689 131.04C287.713 131.04 287.736 131.04 287.725 131.075C287.636 131.349 287.263 131.491 287.036 131.74C286.821 131.977 286.621 132.204 286.335 132.394C286.049 132.585 285.718 132.775 285.349 132.953C285.047 133.099 284.766 133.345 284.469 133.618C284.121 133.937 283.886 134.224 283.696 134.593C283.534 134.907 283.222 135.175 282.959 135.461C282.64 135.808 282.27 136.008 281.984 136.174C281.688 136.347 281.414 136.555 281.105 136.78C280.663 137.103 280.44 137.505 280.071 137.814C279.767 138.07 279.489 138.313 279.191 138.481C278.797 138.702 278.255 139.168 277.729 139.585C277.417 139.833 277.135 140.025 276.849 140.181C276.564 140.336 276.279 140.43 275.994 140.537C275.678 140.655 275.376 140.858 275.066 140.953C274.771 141.044 274.308 141.309 273.925 141.523C273.776 141.607 273.663 141.737 273.58 141.88C273.54 141.949 273.52 142.022 273.591 142.047C274.11 142.229 274.659 141.787 274.993 141.726C275.137 141.7 275.279 141.643 275.362 141.655C275.704 141.702 274.853 142.236 274.567 142.391C274.271 142.552 273.997 142.807 273.723 143.033C273.435 143.271 273.259 143.662 272.998 143.877C272.711 144.113 272.287 144.588 271.928 144.887C271.637 145.131 271.311 145.374 270.741 145.801C269.892 146.438 269.693 146.872 269.444 147.157C269.204 147.432 268.886 147.822 268.506 148.167C267.826 148.784 266.895 149.695 266.07 150.602C264.886 151.905 264.393 152.268 263.941 152.661C263.414 153.118 262.919 153.811 262.55 154.337C262.265 154.741 261.825 155.335 261.563 155.645C261.258 156.005 260.827 156.239 260.529 156.441C260.22 156.651 260.018 157.071 259.78 157.392C259.447 157.84 259.328 158.141 259.102 158.485C258.905 158.787 258.71 159.115 258.389 159.602C258.314 159.717 258.235 159.781 258.246 159.782C258.371 159.795 258.989 158.934 259.927 157.734C260.825 156.586 261.228 156.36 261.632 156.075C262.03 155.793 262.369 155.315 262.796 154.981C263.249 154.628 263.557 154.363 263.95 154.078C264.338 153.795 264.58 153.744 264.652 153.673C264.889 153.438 263.751 154.004 262.591 154.679C262.023 155.009 261.222 155.657 260.55 156.243C259.879 156.829 259.385 157.37 259.001 157.896C258.289 158.87 257.903 159.708 257.57 160.195C257.191 160.751 256.927 161.065 256.642 161.433C256.265 161.92 255.953 162.23 255.277 163.07C254.589 163.926 253.792 164.843 253.044 165.448C252.359 166.003 252.007 166.365 251.318 167.256C250.871 167.834 250.532 168.387 250.14 168.756C249.87 169.01 249.558 169.267 249.307 169.552C249.035 169.862 248.796 170.194 248.547 170.539C248.336 170.83 248.154 171.121 248.094 171.407C248.033 171.698 247.916 171.977 247.798 172.274C247.642 172.664 247.37 172.904 247.156 173.201C246.885 173.578 246.61 173.784 246.289 174.14C245.865 174.61 245.73 174.901 245.575 175.198C245.365 175.601 244.969 175.71 244.814 175.971C244.648 176.25 244.517 176.541 244.279 176.827C244.224 176.893 244.208 176.969 244.172 176.959C244.044 176.92 244.041 176.521 244.064 176.2C244.071 176.111 244.135 176.185 244.159 176.268C244.256 176.6 243.994 176.898 243.91 177.089C243.777 177.394 244.016 176.426 244.052 175.998C244.087 175.591 244.159 175.118 244.243 174.762C244.406 174.064 244.444 173.526 244.516 173.192C244.578 172.904 244.35 172.622 244.184 172.336C243.995 172.011 243.733 171.694 243.519 171.397C243.455 171.308 243.353 171.219 243.328 171.241C242.969 171.559 244.014 172.543 244.325 173.106C244.372 173.191 244.42 173.261 244.409 173.309C244.385 173.415 244.208 173.475 244.101 173.547C243.815 173.739 243.78 172.907 243.744 172.503C243.715 172.183 243.566 171.908 243.459 171.623C243.337 171.299 243.209 170.887 243.173 170.553C243.141 170.257 242.995 169.983 242.9 169.697C242.805 169.411 242.663 169.127 242.236 168.664C241.973 168.379 241.831 168.057 241.676 167.771C241.515 167.476 241.355 167.201 241.2 166.916C241.051 166.639 240.88 166.345 240.572 165.954C239.869 165.06 239.549 164.895 239.287 164.598C238.859 164.134 238.622 163.849 238.348 163.623C238.288 163.563 238.241 163.492 238.192 163.348" stroke="black" stroke-width="5" stroke-linecap="round"/>
<path d="M239.69 162.065C240.185 161.899 241.187 161.661 241.685 161.436C242.541 161.049 243.634 160.379 244.229 160.069C244.683 159.832 245.061 159.641 245.715 159.356C246.242 159.125 246.701 158.762 247.047 158.582C247.205 158.5 247.463 158.476 247.712 158.321C247.88 158.217 248.952 157.672 250.521 156.793C251.668 156.15 252.477 155.506 252.895 155.219C253.343 154.911 254.47 154.153 255.705 153.275C256.519 152.696 257.277 151.965 258.145 151.335C258.871 150.808 259.563 150.322 259.814 150.012C260.094 149.666 260.679 149.064 261.157 148.646C261.543 148.307 261.87 148.016 262.392 147.695C262.706 147.502 263.011 147.35 263.368 147.088C263.736 146.818 264.056 146.565 264.449 146.316C264.984 146.019 265.531 145.638 265.933 145.342C266.171 145.141 266.477 144.835 266.792 144.52" stroke="black" stroke-width="5" stroke-linecap="round"/>
<path d="M269.502 142.808C269.62 142.737 269.737 142.667 269.833 142.607C269.929 142.547 270 142.5 270.144 142.38" stroke="black" stroke-width="5" stroke-linecap="round"/>
<path d="M243.541 164.561C243.588 164.514 243.895 164.231 244.664 163.65C246.45 162.302 246.986 162.304 247.438 162.018C247.745 161.824 248.104 161.685 248.39 161.554C248.539 161.485 248.722 161.305 249.195 160.997C250.07 160.427 251.168 159.999 251.881 159.536C252.505 159.13 253.282 158.787 254.13 158.215C254.71 157.824 255.375 157.101 256.411 156.515C257.369 155.974 257.875 155.908 258.161 155.73C258.303 155.67 258.658 155.505 259.121 155.267C259.302 155.171 259.373 155.124 259.446 155.075" stroke="black" stroke-width="5" stroke-linecap="round"/>
<path d="M260.516 154.505L260.801 154.433" stroke="black" stroke-width="5" stroke-linecap="round"/>
<path d="M244.184 169.553C244.513 169.224 244.843 168.894 245.354 168.266C245.865 167.637 246.547 166.719 246.969 166.117C247.869 164.834 248.318 164.183 249.121 163.414C249.697 162.864 250.678 162.057 251.634 161.327C252.59 160.597 253.508 159.985 254.028 159.634C254.548 159.284 254.642 159.213 254.739 159.069" stroke="black" stroke-width="5" stroke-linecap="round"/>
<path d="M177.11 259.609C176.95 259.564 176.356 259.358 175.688 259.236C175.411 259.186 175.251 259.161 174.782 259.075C174.215 258.972 174.045 259.092 173.907 259.121C173.748 259.154 173.563 259.196 173.312 259.224C172.558 259.31 172.301 259.173 172.025 259.201C171.609 259.244 171.313 259.242 171.141 259.224C170.809 259.191 170.395 259.173 169.673 259.156C169.453 259.15 169.338 259.127 169.263 259.144C169.213 259.155 169.303 259.264 169.292 259.333C169.248 259.6 168.776 259.745 168.409 260.198C168.139 260.532 168.006 260.78 167.869 261.007C167.751 261.205 167.506 261.554 167.258 261.849C167.01 262.144 166.76 262.371 166.403 262.727C166.047 263.083 165.593 263.56 165.33 263.829C164.919 264.249 164.643 264.407 164.327 264.591C164.138 264.701 164.034 264.844 163.994 264.913C163.974 264.946 163.965 264.981 164.01 264.976C164.165 264.958 164.445 264.844 165.164 264.651C165.705 264.505 166.587 264.207 167.078 264.055C167.634 263.883 167.832 263.834 168.198 263.663C169.225 263.182 169.348 263.019 169.555 262.927C169.705 262.86 169.899 262.824 170.255 262.624C170.5 262.485 170.703 262.41 170.858 262.353C171.123 262.255 171.687 261.942 172.012 261.75C172.139 261.676 172.253 261.561 172.419 261.458C172.573 261.378 172.735 261.286 172.924 261.171C173.044 261.102 173.215 261.011 173.459 260.883" stroke="black" stroke-width="5" stroke-linecap="round"/>
<path d="M179.589 259.127C179.498 259.184 179.246 259.298 179.073 259.368C178.817 259.471 178.385 259.38 177.961 259.362C177.833 259.357 177.753 259.333 177.701 259.322C177.585 259.297 177.981 259.185 178.182 259.133C178.378 259.082 178.521 259.07 178.773 259.052C178.993 259.037 179.244 259.001 179.388 258.949C179.56 258.887 179.692 258.829 179.83 258.805C179.982 258.78 180.105 258.713 180.249 258.685C180.413 258.652 180.565 258.645 180.645 258.662C180.873 258.71 180.279 258.84 180.141 258.863C179.989 258.888 179.866 258.977 179.728 259.023C179.59 259.069 179.452 259.115 179.314 259.161C179.177 259.207 179.039 259.253 178.895 259.299C178.72 259.355 178.557 259.413 178.413 259.477C178.246 259.55 178.086 259.643 177.84 259.775C177.62 259.893 177.455 259.976 176.946 260.199C176.768 260.277 176.563 260.354 176.156 260.486C175.75 260.617 175.147 260.799 174.632 261.007C173.685 261.388 173.23 261.698 173.115 261.755C172.892 261.867 172.543 262.076 172.071 262.272C171.625 262.457 171.427 262.639 170.907 262.954C170.36 263.285 169.889 263.466 169.695 263.603C169.591 263.672 169.477 263.741 169.379 263.799C169.281 263.856 169.201 263.902 169.119 263.949" stroke="black" stroke-width="5" stroke-linecap="round"/>
<path d="M164.091 269.184C164.159 269.116 164.558 268.739 165.166 268.2C165.49 267.913 165.675 267.887 165.744 267.835C165.78 267.808 165.812 267.772 165.767 267.732C165.392 267.395 164.952 267.29 164.901 267.153C164.804 266.894 165.054 266.443 165.57 265.656C165.715 265.435 165.756 265.327 165.739 265.264C165.71 265.158 165.163 265.291 164.355 265.531C163.951 265.651 163.582 265.839 162.991 266.251C162.4 266.663 161.604 267.311 161.03 267.809C160.455 268.308 160.125 268.638 159.774 268.944C159.422 269.25 159.058 269.523 158.712 269.754C157.718 270.418 157.582 270.412 157.547 270.412C157.451 270.413 157.718 270.104 158.112 269.641C158.39 269.315 158.881 268.849 159.303 268.489C159.725 268.13 160.077 267.903 160.446 267.706C161.174 267.318 161.679 267.129 161.868 267.032C162.017 266.955 162.139 266.922 162.196 266.905C162.209 266.901 162.186 266.944 161.543 267.405C160.901 267.866 159.639 268.753 158.972 269.226C158.266 269.728 158.145 269.837 157.984 269.952C157.728 270.136 157.365 270.365 156.953 270.622C156.291 271.036 155.815 271.456 155.625 271.622C155.453 271.774 155.286 271.881 154.708 272.482C154.362 272.841 154.127 272.972 153.623 273.447C153.387 273.669 153.174 273.822 153.036 273.902C152.892 273.985 152.76 274.108 152.622 274.183C152.46 274.272 152.29 274.453 152.14 274.556C151.946 274.691 151.75 274.935 151.584 275.141C151.255 275.55 150.901 275.726 150.694 275.905C150.445 276.12 150.132 276.381 149.616 276.885C149.305 277.189 149.178 277.335 148.897 277.467C148.727 277.546 148.593 277.645 148.455 277.719C148.326 277.789 148.146 278 147.944 278.133C147.762 278.253 147.491 278.334 147.353 278.414C147.209 278.497 147.1 278.62 146.974 278.73C146.905 278.792 146.847 278.862 146.796 278.93C146.767 278.965 146.733 278.999 146.629 279.103" stroke="black" stroke-width="5" stroke-linecap="round"/>
<path d="M229 191L228 230" stroke="black"/>
<path d="M238.033 202.256C238.013 202.256 237.993 202.256 237.953 203.089C237.912 203.922 237.852 205.588 237.831 206.577C237.805 207.826 237.911 208.296 238.052 208.641C238.115 208.793 238.234 208.864 238.326 208.906C238.487 208.978 238.782 208.847 239.306 208.484C240.151 207.9 240.628 207.245 240.86 206.932C241.182 206.499 241.459 205.768 241.682 204.908C241.789 204.496 241.784 204.109 241.744 203.501C241.704 202.893 241.604 202.07 241.492 201.415C241.3 200.291 241.035 199.602 240.853 199.247C240.781 199.108 240.711 199.073 240.62 199.093C239.9 199.246 239.616 200.791 239.404 201.832C239.165 203 239.209 203.715 239.25 203.837C239.27 203.898 239.29 203.958 239.361 203.889C239.597 203.657 239.897 202.81 240.331 201.506C240.564 200.81 240.746 200.021 240.89 198.925C241.033 197.829 241.114 196.444 241.135 195.671C241.156 194.897 241.116 194.776 241.045 194.815C240.974 194.853 240.874 195.054 240.662 196.01C240.449 196.967 240.128 198.673 239.963 199.653C239.797 200.632 239.797 200.833 239.898 200.635C239.998 200.437 240.199 199.835 240.362 199.234C240.526 198.632 240.647 198.05 240.719 197.459C240.953 195.539 240.589 194.959 240.406 194.653C240.369 194.59 240.325 194.532 240.465 194.451C240.894 194.202 241.317 194.126 241.439 194.025C241.582 193.906 241.622 193.6 241.582 193.256C241.553 193.003 241.319 192.909 241.177 192.838C240.578 192.538 239.616 192.807 239.019 192.848C238.432 192.888 237.996 192.989 237.457 193.02C237.262 193.031 236.66 193.071 235.819 193.081C234.913 193.092 233.98 193.051 233.514 192.96C232.498 192.759 232.155 192.808 231.8 192.716C231.121 192.54 230.857 192.605 230.553 192.534C230.473 192.515 230.391 192.523 230.339 192.553C230.288 192.584 230.268 192.644 230.268 192.715C230.266 193.016 230.409 193.252 230.44 193.849C230.469 194.408 230.531 195.138 230.561 195.997C230.587 196.698 230.572 197.51 230.531 197.724C230.303 198.926 230.43 195.077 230.41 195.34C230.364 195.939 230.247 196.334 230.136 196.77C230.031 197.183 229.964 197.59 229.933 198.602C229.918 199.115 229.842 199.396 229.832 199.841C229.824 200.17 229.963 200.651 230.064 201.099C230.227 201.81 230.085 202.923 230.075 203.996C230.07 204.51 230.186 204.951 230.237 205.436C230.373 206.749 230.146 207.121 230.116 207.425C230.099 207.589 230.065 208.292 230.085 209.335C230.097 209.96 230.186 210.645 230.176 211.416C230.167 212.13 230.106 212.738 230.075 213.622C230.047 214.426 230.065 215.952 230.055 216.768C230.041 217.848 229.964 218.333 229.933 219.022C229.902 219.711 229.842 220.726 229.771 221.121C229.607 222.03 229.862 222.429 229.922 223.255C230.039 224.84 229.963 225.918 230.004 226.039C230.102 226.333 230.105 226.708 230.116 227.305C230.122 227.645 230.025 227.924 229.943 228.108C229.835 228.354 229.963 227.44 230.014 226.995C230.026 226.892 230.044 226.832 230.075 226.761C230.14 226.607 230.829 226.246 231.872 225.8C232.405 225.572 232.86 225.413 233.477 225.1C234.578 224.54 234.909 224.277 235.375 224.023C236.301 223.519 237.361 223.406 237.748 223.212C238.231 222.97 239.063 222.575 239.522 222.37C239.737 222.275 239.979 222.127 240.482 221.725C242.339 220.24 242.615 219.958 242.656 219.856C242.735 219.663 242.111 219.835 241.596 220.057C240.752 220.42 240.123 220.868 239.529 221.252C239.102 221.526 238.392 221.916 237.85 222.183C236.526 222.834 235.988 222.876 235.561 223.099C235.287 223.243 234.993 223.343 234.649 223.485C234.156 223.688 233.858 223.849 233.301 224.133C232.822 224.377 232.499 224.316 232.195 224.407C231.833 224.516 231.506 224.963 231.211 225.228C231.15 225.283 231.06 225.289 231.099 225.26C231.28 225.121 231.524 225.006 231.967 224.664C232.342 224.374 233.051 223.881 234.016 223.261C234.98 222.641 236.184 221.918 236.995 221.395C237.806 220.873 238.188 220.571 238.716 220.256C239.874 219.563 240.689 219.208 240.921 219.056C241.45 218.71 242.025 218.599 242.402 218.397C242.474 218.357 242.533 218.335 242.494 218.335C241.912 218.331 241.199 218.72 240.077 219.204C239.017 219.661 238.379 220.099 238.177 220.169C237.53 220.395 237.021 220.646 236.515 220.818C236 220.993 235.643 221.172 235.006 221.446C233.69 222.01 233.392 222.227 233.067 222.4C232.606 222.644 232.116 223.076 231.658 223.635C231.384 223.97 231.06 224.052 230.735 224.114C230.69 224.122 230.713 224.034 231.316 223.451C231.918 222.868 233.103 221.764 233.883 221.075C234.664 220.385 235.005 220.144 235.382 219.91C236.147 219.433 236.654 219.167 237.046 218.905C238.563 217.893 239.086 217.708 239.381 217.565C239.724 217.399 240.16 217.221 240.466 217.048C240.58 216.983 240.709 216.956 240.841 216.916C240.99 216.87 240.633 216.995 239.282 217.6C238.349 218.017 237.007 218.846 236.263 219.28C235.434 219.763 235.176 219.936 234.832 220.138C234.518 220.323 234.062 220.604 233.475 220.878C232.474 221.344 231.367 221.962 230.978 222.147C230.92 222.174 230.857 222.187 230.796 222.187C230.735 222.188 230.674 222.168 230.703 222.087C230.733 222.006 230.853 221.866 231.808 221.231C232.764 220.597 234.55 219.473 235.812 218.623C237.073 217.773 237.756 217.231 238.65 216.63C239.543 216.03 240.627 215.388 241.256 215.027C242.215 214.476 242.412 214.402 242.403 214.431C242.378 214.513 242.133 214.602 241.177 215.065C240.22 215.529 238.514 216.332 237.193 217.036C235.873 217.741 234.989 218.323 234.354 218.713C233.375 219.314 232.663 219.571 232.117 219.733C231.534 219.906 230.84 220.158 230.421 220.342C230.254 220.415 230.126 220.565 230.045 220.686C230.009 220.74 230.044 220.807 230.095 220.839C230.38 221.014 230.854 220.547 232.181 219.44C233.333 218.481 235.436 216.688 236.753 215.617C238.069 214.546 238.531 214.245 239.02 213.98C239.989 213.453 240.688 213.166 240.73 213.094C241.013 212.618 239.476 213.669 238.819 214.164C238.099 214.707 237.589 215.231 237.175 215.494C236.762 215.756 236.111 215.941 235.172 216.184C233.986 216.49 232.947 216.691 232.33 216.974C231.154 217.514 230.492 218.698 230.379 219.094C230.354 219.183 230.369 219.266 230.399 219.328C230.429 219.389 230.489 219.429 231.404 218.567C232.318 217.704 234.084 215.938 235.085 214.957C236.248 213.818 236.552 213.632 236.885 213.46C237.114 213.342 237.479 213.188 238.106 212.955C239.609 212.397 240.588 212.07 240.739 211.979C241.125 211.748 241.317 211.664 241.308 211.644C241.28 211.581 241.038 211.664 240.212 211.975C239.386 212.287 237.941 212.889 236.996 213.33C236.05 213.77 235.649 214.031 235.332 214.266C235.014 214.501 234.794 214.702 234.349 215.056C233.254 215.928 232.438 216.549 232.226 216.772C231.911 217.101 231.425 217.138 230.908 217.129C230.829 217.127 230.875 217.039 231.207 216.656C231.539 216.274 232.161 215.571 232.943 214.768C233.725 213.964 234.649 213.081 235.596 212.285C236.544 211.489 237.487 210.806 238.114 210.394C239.479 209.497 240.342 209.294 240.648 209.069C240.766 208.983 240.892 208.907 240.943 208.876C241.04 208.818 239.867 209.53 238.418 210.391C237.42 210.984 236.661 211.739 236.128 212.271C235.852 212.548 235.541 212.576 235.398 212.597C235.369 212.601 235.457 212.497 236.1 212.215C236.744 211.933 237.948 211.451 238.769 211.162C239.974 210.739 240.546 210.711 240.689 210.721C240.83 210.731 240.325 210.772 239.993 210.802C239.316 210.863 238.363 211.075 237.301 211.368C236.192 211.674 235.48 212.109 235.146 212.342C234.634 212.699 234.384 212.86 234.243 212.881C234.162 212.892 234.061 212.861 233.999 212.79C233.938 212.72 233.918 212.599 233.937 212.457C233.981 212.147 234.421 211.587 235.52 210.457C236.253 209.703 237.442 208.684 238.142 208.016C239.078 207.123 239.35 206.718 239.573 206.455C240.173 205.746 240.303 204.936 240.325 203.721C240.344 202.649 239.799 201.713 239.495 201.154C239.407 200.992 239.19 201.886 239.108 203.429C239.056 204.43 239.108 205.876 239.168 206.842C239.229 207.807 239.329 208.249 239.431 208.366C239.533 208.483 239.633 208.262 239.725 207.787C239.817 207.312 239.897 206.589 239.979 205.183C240.06 203.777 240.14 201.71 240.212 200.514C240.299 199.054 240.506 198.548 240.568 197.922C240.606 197.537 240.348 197.015 240.205 196.254C239.879 194.524 239.838 193.416 239.788 193.335C239.732 193.245 239.575 193.818 239.313 195.338C239.107 196.531 238.93 198.605 238.786 200.533C238.642 202.462 238.582 204.188 238.511 205.057C238.44 205.926 238.359 205.886 238.278 205.735C238.068 205.345 237.973 204.572 237.882 203.752C237.844 203.414 237.851 203.233 237.66 201.875C237.469 200.517 237.088 197.988 236.892 196.595C236.695 195.202 236.695 195.021 236.695 194.978C236.695 194.935 236.695 195.036 236.514 197.988C236.334 200.94 235.972 206.741 235.796 209.891C235.62 213.04 235.64 213.361 235.711 213.426C235.883 213.585 236.207 212.501 236.551 211.107C236.749 210.304 236.854 209.272 236.816 207.711C236.778 206.15 236.558 204.082 236.454 202.846C236.322 201.273 236.451 200.556 236.583 200.039C236.625 199.873 236.734 199.943 236.785 200.687C236.837 201.431 236.857 202.856 237.068 204.774C237.279 206.693 237.681 209.061 237.938 210.402C238.195 211.743 238.295 211.984 238.387 212.168C238.479 212.352 238.559 212.473 238.66 212.324C238.762 212.175 238.883 211.754 238.935 211.125C238.987 210.496 238.966 209.673 238.745 207.212C238.524 204.751 238.103 200.676 237.875 198.546C237.648 196.417 237.628 196.357 237.618 196.366C237.55 196.425 237.628 196.659 237.768 198.206C237.898 199.632 238.11 202.363 238.284 204.01C238.458 205.658 238.578 206.139 238.65 206.327C238.723 206.515 238.743 206.395 238.632 204.376C238.522 202.356 238.282 198.442 238.188 196.546C238.094 194.65 238.154 194.891 238.215 195.286C238.483 197.019 238.621 197.612 238.622 197.694C238.623 197.919 238.117 196.968 237.662 195.968C237.088 194.707 236.858 193.762 236.716 193.448C236.588 193.165 236.453 192.849 236.23 192.586C235.978 192.287 235.561 192.362 235.267 192.462C235.152 192.501 235.055 192.683 234.973 192.866C234.891 193.048 234.851 193.269 234.91 194.587C234.97 195.905 235.131 198.314 235.133 200.79C235.135 203.265 234.975 205.734 234.922 207.237C234.87 208.74 234.93 209.201 234.991 209.55C235.226 210.889 236.066 211.927 236.077 212.332C236.09 212.84 235.642 213.547 235.439 214.126C235.399 214.239 235.378 214.299 235.337 214.32C235.297 214.341 235.236 214.321 235.175 214.27C235.038 214.157 234.932 213.856 234.84 212.869C234.768 212.086 234.809 210.718 234.769 209.754C234.729 208.79 234.649 208.268 234.668 206.203C234.687 204.137 234.807 200.544 234.909 198.392C235.011 196.24 235.092 195.638 235.133 195.287C235.215 194.595 235.235 193.584 235.185 192.86C235.171 192.667 235.154 192.504 235.104 192.352C235.079 192.278 235.033 192.22 234.962 192.23C234.892 192.239 234.791 192.319 234.348 192.782C233.905 193.245 233.122 194.088 232.679 194.592C232.13 195.217 231.992 195.643 231.86 196.119C231.758 196.487 231.768 197.001 231.939 198.451C232.07 199.566 232.45 201.427 232.636 202.55C232.822 203.672 232.842 203.993 232.782 204.721C232.722 205.448 232.582 206.572 232.469 207.322C232.357 208.072 232.277 208.413 232.235 209.02C232.194 209.628 232.194 210.491 232.234 211.217C232.274 211.942 232.354 212.504 232.396 213.015C232.519 214.537 232.236 215.148 232.013 215.726C231.929 215.941 231.91 216.002 231.9 215.591C231.89 215.181 231.89 214.298 231.97 213.542C232.116 212.17 232.376 211.362 232.396 210.887C232.408 210.613 232.457 210.272 232.537 209.815C232.618 209.358 232.739 208.796 232.801 207.794C232.863 206.792 232.863 205.367 232.903 203.639C232.943 201.911 233.023 199.924 233.175 198.318C233.327 196.712 233.548 195.548 233.652 194.898C233.771 194.152 233.674 193.984 233.593 193.852C233.503 193.706 233.411 193.538 233.26 193.416C233.181 193.354 233.048 193.375 232.936 193.415C232.424 193.598 231.813 194.585 231.353 195.128C231.111 195.414 230.958 196.228 230.896 197.482C230.831 198.821 231.22 199.679 231.321 200.003C231.42 200.317 231.403 200.994 231.393 201.824C231.387 202.295 231.302 202.599 231.191 203.113C230.999 204.005 230.836 204.788 230.684 205.183C230.569 205.484 230.41 205.862 230.259 206.469C230.07 207.223 230.165 208.212 230.347 209.123C230.459 209.68 230.672 210.502 230.874 211.535C231.091 212.639 231.402 213.931 231.524 214.41C231.548 214.501 231.565 214.582 231.605 214.614C231.685 214.676 232.19 213.721 232.848 212.322C233.144 211.695 233.207 211.262 233.258 209.832C233.298 208.704 233.249 206.756 233.248 205.552C233.248 203.947 233.269 203.393 233.118 202.718C232.998 202.182 232.746 201.261 232.582 200.875C232.418 200.49 232.337 200.671 232.246 201.075C232.154 201.479 232.054 202.101 231.992 203.034C231.93 203.967 231.91 205.192 231.98 206.696C232.05 208.2 232.211 209.946 232.304 210.886C232.396 211.826 232.416 211.906 232.447 211.987C232.477 212.069 232.517 212.149 232.568 212.09C232.619 212.031 232.679 211.83 232.77 211.195C232.862 210.56 232.982 209.496 233.024 208.466C233.066 207.436 233.026 206.473 232.965 205.886C232.885 205.11 232.661 204.832 232.489 204.67C232.337 204.527 232.073 204.588 231.831 204.648C231.306 204.779 230.94 205.598 230.714 205.986C230.485 206.38 230.268 206.635 230.227 206.766C230.133 207.07 230.59 207.384 230.774 207.709C231.042 208.185 231.179 208.459 231.352 208.713C231.385 208.763 231.463 208.724 232.497 207.118C233.532 205.512 235.539 202.32 236.895 200.315C238.25 198.309 238.892 197.587 239.384 197.094C240.157 196.319 240.567 196.052 240.628 195.881C240.719 195.624 240.629 195.383 240.558 195.231C240.321 194.722 239.317 194.431 238.795 194.187C238.307 193.959 238.217 193.639 237.963 193.568C237.817 193.527 237.348 193.698 236.619 194.001C235.942 194.283 235.34 194.671 234.642 194.914C233.366 195.359 232.946 195.099 232.368 194.897C231.981 194.761 231.689 194.612 231.374 194.511C230.941 194.372 230.674 194.247 230.269 194.247C230.077 194.246 229.944 194.408 229.842 194.53C229.795 194.586 229.781 194.651 229.781 194.732C229.779 195.295 230.388 195.868 230.49 196.121C230.617 196.437 230.592 196.78 230.622 197.347C230.636 197.592 230.673 197.915 230.723 198.55C230.804 199.575 230.977 200.328 230.987 200.622C230.998 200.936 231.038 201.261 231.048 201.574C231.058 201.869 231.099 202.153 231.189 203.751C231.272 205.209 231.46 207.979 231.533 209.627C231.626 211.714 231.485 212.271 231.434 212.484C231.323 212.948 231.645 213.948 231.948 215.364C232.215 216.605 232.194 217.36 232.184 217.633C232.153 218.473 232.093 219.53 232.002 219.894C231.815 220.641 231.667 221.293 231.475 221.901C231.296 222.469 231.1 223.075 230.937 223.645C230.896 224.214 230.856 224.477 230.846 224.72C230.835 224.823 230.815 224.883 230.795 224.945" stroke="black" stroke-width="2" stroke-linecap="round"/>
<path d="M227.753 168.679C227.934 168.537 228.339 168.294 229.697 167.821C230.886 167.407 233.122 166.726 234.32 166.354C235.776 165.902 236.105 165.84 236.541 165.648C236.833 165.519 236.998 165.253 237.252 164.979C237.305 164.922 237.263 164.848 237.202 164.807C236.852 164.569 236.191 164.603 235.683 164.553C235.117 164.496 234.751 164.643 234.425 164.724C233.931 164.848 233.19 164.906 232.632 165.28C231.832 165.817 231.647 166.103 231.404 166.245C231.15 166.392 230.998 166.609 230.846 166.843C230.672 167.11 230.269 167.278 229.944 167.522C229.644 167.747 229.457 168.008 229.274 168.302C229.091 168.596 228.929 168.921 228.899 169.417C228.854 170.134 228.888 171.232 228.969 171.597C229.063 172.02 229.131 172.388 229.273 172.692C229.415 172.997 229.496 173.239 229.577 173.483C229.679 173.787 229.8 174.192 229.942 174.597C230.116 175.095 230.125 175.71 230.176 176.23C230.198 176.461 230.206 176.647 230.237 177.24C230.315 178.774 230.227 179.89 230.196 180.183C230.097 181.143 230.287 181.391 230.318 181.786C230.33 181.94 230.369 182.381 230.359 182.989C230.343 183.922 230.268 185.303 230.186 185.689C230.114 186.031 230.165 186.439 230.136 186.894C230.08 187.736 230.186 188.222 230.126 188.619C230.085 188.883 229.963 189.116 229.923 189.501C229.863 190.063 229.659 190.534 229.588 190.869C229.485 191.357 229.517 191.75 229.637 191.995C230.08 192.895 230.712 190.883 231.036 190.507C231.371 190.12 231.645 189.747 231.888 189.453C232.185 189.095 232.415 188.734 232.922 188.186C233.381 187.689 233.956 187.09 234.321 186.847C234.834 186.505 235.192 185.835 235.679 185.448C236.201 185.034 236.651 184.679 237.209 184.273C237.722 183.9 238.173 183.441 238.607 183.128C239.454 182.518 239.754 182.204 240.16 181.829C240.661 181.367 241.155 180.846 241.771 180.198C242.086 179.868 242.31 179.528 242.393 179.304C242.575 178.806 241.198 179.95 239.873 180.881C239.051 181.459 238.135 182.12 237.791 182.465C237.23 183.027 236.657 183.661 236.159 184.107C235.726 184.496 235.237 185.058 234.821 185.647C234.144 186.604 233.371 187.068 233.026 187.291C232.591 187.573 232.175 187.919 231.88 188.163C231.576 188.415 231.283 188.81 230.978 189.046C230.873 189.126 230.734 189.157 230.653 189.178C230.262 189.277 230.633 188.206 230.551 187.962C230.511 187.841 230.53 187.678 230.621 187.516C230.796 187.205 231.721 186.748 232.724 186.05C233.178 185.734 233.465 185.413 233.821 184.996C234.604 184.08 235.132 183.38 235.375 183.127C235.857 182.626 236.45 182.041 237.289 181.243C237.817 180.741 238.314 180.482 238.802 180.136C239.269 179.804 239.816 179.386 240.16 179.092C240.512 178.791 241.793 177.872 242.574 177.256C242.698 177.158 242.757 177.013 242.788 176.911C242.8 176.871 242.718 176.85 242.627 176.86C242.193 176.906 241.686 177.193 240.25 177.961C239.12 178.565 238.44 179.181 238.127 179.433C237.443 179.984 237.203 180.315 236.888 180.641C236.545 180.995 235.967 181.633 235.631 182.069C235.273 182.536 234.651 183.01 234.252 183.368C233.626 183.931 232.803 184.656 232.125 185.131C231.626 185.48 231.364 185.709 231.069 185.853C230.184 186.285 231.18 184.314 231.199 183.897C231.214 183.585 231.726 183.622 232.219 183.381C233.407 182.8 234.22 182.244 234.743 181.781C235.192 181.385 235.989 180.636 236.563 180.133C237.138 179.63 237.459 179.389 237.815 179.064C238.58 178.367 239.246 177.664 239.783 177.208C240.415 176.671 240.729 176.466 241.113 176.091C241.726 175.494 241.965 175.209 242.239 174.844C242.477 174.527 242.776 174.377 242.91 174.285C243.083 174.166 242.334 174.335 241.437 174.838C240.718 175.241 239.557 176.103 238.716 176.698C237.407 177.624 236.838 178.106 236.656 178.308C236.329 178.671 235.844 179.119 235.298 179.626C235.011 179.892 234.709 180.113 234.345 180.326C233.498 180.82 233.148 181.107 232.843 181.269C232.507 181.449 232.135 181.634 231.809 181.847C231.369 182.135 230.918 182.465 230.613 182.719C230.552 182.77 230.491 182.81 230.46 182.58C230.363 181.854 230.49 181.271 230.631 181.149C231.112 180.737 232.41 180.341 233.255 179.953C233.691 179.754 234.138 179.446 235.044 178.802C235.735 178.312 236.794 177.355 237.373 176.849C238.187 176.138 238.559 175.615 238.843 175.27C239.255 174.768 239.613 174.438 240.573 173.65C241.391 172.979 241.681 172.331 241.885 172.015C241.997 171.841 242.149 171.721 242.129 171.67C242.108 171.613 241.909 171.759 241.144 172.312C240.379 172.865 239.014 173.889 238.22 174.517C237.217 175.31 236.819 175.753 236.374 176.117C235.753 176.625 235.358 176.788 234.508 177.102C233.933 177.315 233.19 177.821 232.55 178.399C232.234 178.685 231.911 178.796 231.465 179.069C231.345 179.143 231.223 179.201 231.14 179.192C230.99 179.175 230.977 178.437 231.057 177.515C231.087 177.167 231.298 177.095 231.411 177.043C231.768 176.881 232.353 176.81 232.699 176.648C232.879 176.563 233.446 176.204 234.326 175.567C235.132 174.984 235.518 174.58 235.629 174.448C235.777 174.274 236.406 173.732 237.347 172.852C238.123 172.125 238.56 171.781 238.791 171.54C239.288 171.02 239.856 170.626 240.31 170.364C241.373 169.749 242.063 169.311 242.463 168.812C242.528 168.73 242.554 168.64 242.524 168.568C242.495 168.497 242.394 168.436 242.282 168.415C241.849 168.334 241.362 168.637 240.108 169.323C238.877 169.997 238.176 170.665 237.984 170.756C237.618 170.929 237.305 171.413 236.859 171.83C236.222 172.423 235.824 172.915 235.641 173.087C235.581 173.145 235.659 173.199 235.751 173.2C235.966 173.201 236.287 173.079 236.782 172.948C237.472 172.765 238.111 172.511 238.878 172.3C241.037 171.704 241.317 171.517 241.328 171.517C241.553 171.511 240.852 171.639 240.64 171.589C240.404 171.532 240.203 171.396 240.031 171.134C239.512 170.342 239.675 169.454 239.635 168.704C239.622 168.452 239.515 168.475 239.393 168.566C239.09 168.792 238.885 169.063 238.613 169.375C238.062 170.009 237.588 170.442 237.265 170.784C236.57 171.522 235.947 172.326 235.471 172.731C235.13 173.021 234.509 173.339 233.81 173.815C233.148 174.266 232.642 174.738 232.074 175.216C231.914 175.351 231.809 175.491 231.657 175.552C231.523 175.606 231.504 174.447 231.524 172.886C231.537 171.913 231.119 171.66 230.977 171.407C230.818 171.121 230.794 169.705 230.734 168.852C230.729 168.778 230.693 168.7 230.653 168.709C230.508 168.741 230.45 169.203 230.389 169.94C230.301 171.015 230.389 171.82 230.449 172.204C230.654 173.503 231.139 174.658 231.26 175.054C231.311 175.22 231.301 175.369 231.362 175.49C231.394 175.556 231.462 175.612 231.503 175.553C231.852 175.049 231.625 174.218 231.656 173.608C231.67 173.323 231.847 172.517 232.08 171.223C232.414 169.368 232.315 168.985 232.406 168.669C232.422 168.612 232.536 168.658 232.598 168.708C232.726 168.814 232.841 169.263 233.094 170.443C233.272 171.276 233.446 172.606 233.58 173.378C233.796 174.63 233.897 174.903 233.907 175.054C233.911 175.126 233.937 175.186 233.947 175.056C233.957 174.927 233.957 174.606 233.877 174.029C233.797 173.452 233.636 172.629 233.503 172.034C233.293 171.093 233.147 170.566 233.116 170.192C233.041 169.272 233.268 168.497 233.369 168.294C233.389 168.253 233.47 168.293 233.521 168.384C233.652 168.616 233.774 169.623 234.016 171.051C234.294 172.686 234.929 173.239 235.123 173.493C235.236 173.643 235.336 173.788 235.427 173.788C235.505 173.789 235.538 173.549 235.589 172.934C235.64 172.319 235.68 171.275 235.681 170.496C235.682 169.235 235.52 168.358 235.388 167.73C235.315 167.383 235.276 167.219 235.245 167.188C234.678 166.61 235.882 169.365 236.065 169.863C236.353 170.643 236.471 170.968 236.593 171.313C236.629 171.416 236.694 171.535 236.755 171.587C236.816 171.639 236.876 171.619 236.987 171.368C237.099 171.117 237.259 170.635 237.352 169.855C237.445 169.075 237.465 168.011 237.455 167.432C237.445 166.854 237.405 166.794 237.354 166.733C237.249 166.606 237.101 166.529 236.889 166.499C236.58 166.455 236.21 166.529 235.705 166.68C234.081 167.167 233.471 167.725 233.45 167.746C232.771 168.405 235.861 167.806 236.358 167.837C236.551 167.867 236.734 167.908 237.017 167.938C237.199 167.949 237.46 167.949 237.85 168.009" stroke="black" stroke-width="2" stroke-linecap="round"/>
<path d="M217.5 171.5C221.446 197.217 222 206.5 217.5 238" stroke="black"/>
<path d="M229.28 176.929C228.642 174.539 228.321 172.405 228.083 171.682C227.785 170.779 226.355 173.617 225.42 176.756C224.703 179.164 226.448 181.602 228.023 183.769C228.293 184.14 228.478 184.278 228.585 184.175C228.946 183.83 228.748 181.371 228.589 178.203C228.505 176.545 227.686 173.967 226.941 170.559C226.67 169.313 226.617 169.049 226.59 169.071C226.563 169.094 226.563 169.41 226.563 169.736" stroke="black" stroke-width="2" stroke-linecap="round"/>
<path d="M227.515 174.029C227.672 173.824 228.129 173.343 228.799 172.637C229.401 172.002 229.656 171.562 229.687 171.435C229.7 171.381 229.633 171.344 229.591 171.325C229.517 171.293 229.367 171.319 229.138 171.355C228.881 171.395 228.342 171.536 227.701 171.675C227.173 171.789 226.73 172.02 226.362 172.141C225.836 172.313 225.532 172.335 225.025 172.486C224.834 172.543 224.673 172.541 224.546 172.511C224.449 172.488 224.754 172.096 225.159 171.679C225.352 171.48 225.757 171.344 226.344 171.169C226.698 171.063 226.862 171.053 226.898 171.047C227.046 171.022 226.368 171.004 226.07 171.095C225.881 171.152 225.605 171.27 225.202 171.415C224.679 171.602 224.13 171.717 223.665 171.91C222.818 172.262 222.592 172.492 222.193 172.655C222.109 172.69 222.072 172.686 222.041 172.704C221.907 172.783 221.878 172.976 221.667 173.187C221.35 173.504 220.778 173.713 220.553 173.841C220.48 173.883 220.39 173.896 220.293 173.938C220.179 173.987 220.123 174.113 220.087 174.222C219.999 174.486 220.243 174.814 220.413 175.201C220.521 175.448 220.474 175.973 220.516 176.411C220.523 176.486 220.558 176.544 220.72 177.048C220.882 177.552 221.182 178.498 221.42 179.698C221.658 180.898 221.826 182.324 221.924 183.094C222.032 183.938 222.119 184.297 222.191 184.769C222.22 184.952 222.216 185.025 222.198 185.05C222.18 185.075 222.144 185.051 222.102 184.985C222.059 184.918 222.011 184.811 221.909 184.468C221.806 184.125 221.651 183.55 221.552 183.116C221.393 182.412 221.381 181.943 221.375 181.653C221.371 181.42 221.321 181.18 221.273 180.98C221.216 180.746 221.2 180.455 221.164 180.164C221.138 179.96 221.043 179.537 220.91 179.041C220.78 178.555 220.849 178.204 220.873 177.747C220.893 177.363 220.897 176.668 220.921 176.334C220.945 176 220.981 176.048 221.072 176.199C221.529 176.961 221.876 177.27 222.173 177.362C222.374 177.424 222.65 177.296 222.91 177.157C223.119 177.046 223.436 176.753 223.84 176.367C224.013 176.202 224.09 176.076 224.259 175.871C224.428 175.665 224.679 175.378 225.054 174.888C225.429 174.399 225.92 173.716 226.143 173.382C226.366 173.049 226.307 173.085 225.886 173.654C225.466 174.223 224.688 175.325 224.155 176.168C223.622 177.012 223.359 177.563 223.211 177.894C223.063 178.226 223.039 178.322 223.039 178.395C223.039 178.469 223.063 178.516 223.123 178.517C223.286 178.519 223.629 178.157 224.106 177.62C224.341 177.355 224.523 177.071 224.712 176.762C224.9 176.452 225.08 176.117 225.25 175.734C225.602 174.944 225.749 174.441 225.767 174.374C225.769 174.365 225.773 174.415 225.683 175.308C225.593 176.201 225.414 177.938 225.321 178.862C225.223 179.846 225.217 179.981 225.234 180.071C225.241 180.106 225.336 180.055 225.571 179.791C225.805 179.527 226.201 179.035 226.668 178.387C227.135 177.739 227.662 176.948 227.478 177.302C227.295 177.655 226.384 179.176 225.766 180.331C225.147 181.486 224.847 182.229 224.693 182.635C224.539 183.042 224.539 183.09 224.569 183.114C224.599 183.139 224.659 183.139 224.738 183.091C224.816 183.043 224.912 182.947 225.243 182.539C225.574 182.13 226.137 181.411 226.57 180.903C227.262 180.094 227.636 179.812 227.744 179.752C227.806 179.718 227.877 179.668 227.932 179.715C227.987 179.762 228.023 179.906 228.023 180.028C228.024 180.15 227.988 180.246 227.634 180.954C227.28 181.662 226.609 182.979 226.258 183.718C225.894 184.576 225.894 184.783 225.93 184.94C225.954 185.014 225.99 185.073 226.027 185.135" stroke="black" stroke-width="4" stroke-linecap="round"/>
<path d="M222.397 205.751C222.385 205.655 222.36 205.365 222.402 205.003C222.423 204.823 222.444 204.511 222.529 203.967C222.613 203.423 222.757 202.657 222.861 202.022C222.965 201.388 223.024 200.909 223.055 200.602C223.125 199.91 223.159 199.473 223.249 198.972C223.283 198.786 223.304 198.386 223.352 197.734C223.4 197.085 223.28 196.474 223.166 195.997C223.087 195.669 223.002 195.504 222.942 195.324C222.824 194.97 222.675 194.562 222.597 194.247C222.566 194.125 222.554 194.077 222.506 194.262C222.458 194.447 222.374 194.866 222.325 195.285C222.276 195.705 222.264 196.112 222.293 196.705C222.323 197.298 222.395 198.065 222.534 198.873C222.673 199.681 222.876 200.508 223.095 201.34C223.314 202.173 223.541 202.988 223.682 203.641C223.824 204.294 223.872 204.761 223.89 205.313C223.909 205.865 223.897 206.488 223.873 206.917C223.82 207.847 223.752 208.156 223.739 208.466C223.739 208.471 223.739 208.342 223.68 207.819C223.62 207.296 223.5 206.374 223.45 205.678C223.4 204.981 223.424 204.538 223.461 204.202C223.497 203.866 223.545 203.65 223.623 203.162C223.702 202.673 223.81 201.919 223.847 200.853C223.885 199.788 223.849 198.434 223.837 197.755C223.824 197.076 223.836 197.112 223.83 197.951C223.824 198.79 223.8 200.431 223.962 202.342C224.123 204.253 224.47 206.385 224.823 207.974C225.176 209.564 225.523 210.546 225.756 211.142C225.989 211.738 226.096 211.917 226.17 212.034C226.243 212.15 226.279 212.198 226.316 212.091C226.352 211.984 226.388 211.72 226.335 209.441C226.282 207.161 226.138 202.873 225.986 200.335C225.834 197.797 225.678 197.138 225.586 196.769C225.494 196.399 225.47 196.339 225.482 196.362C225.493 196.386 225.541 196.493 225.817 198.579C226.094 200.665 226.597 204.725 226.886 206.936C227.175 209.148 227.235 209.387 227.313 209.631C227.392 209.874 227.488 210.113 227.573 210.231C227.659 210.348 227.73 210.336 227.827 210.222C227.924 210.108 228.044 209.893 228.148 209.62C228.251 209.347 228.335 209.024 228.45 207.174C228.565 205.325 228.709 201.959 228.753 200.04C228.797 198.12 228.737 197.749 228.694 197.528C228.652 197.307 228.628 197.247 228.609 197.192C228.591 197.137 228.579 197.089 228.489 197.586C228.399 198.082 228.231 199.124 228.097 199.763C227.963 200.401 227.867 200.605 227.768 200.815" stroke="black" stroke-width="4" stroke-linecap="round"/>
<path d="M222.869 194.064C222.869 193.98 222.893 193.762 222.941 193.156C222.98 192.67 222.99 191.819 222.996 191.339C223.005 190.652 222.918 190.412 222.869 190.169C222.818 189.912 222.736 189.65 222.664 189.322C222.635 189.192 222.604 188.864 222.501 188.381C222.348 187.662 222.083 187.35 221.95 186.711C221.876 186.352 221.889 185.696 221.847 185.425C221.799 185.115 221.816 186.221 221.895 186.686C221.998 187.301 222.155 187.457 222.252 187.645C222.36 187.854 222.373 188.134 222.403 188.762C222.426 189.223 222.458 189.732 222.464 190.353C222.467 190.68 222.361 190.869 222.331 191.075C222.301 191.279 222.289 192.193 222.325 192.786C222.333 192.915 222.433 193.047 222.56 193.144C222.608 193.18 222.651 193.145 222.687 193.055C222.724 192.964 222.76 192.809 222.778 192.501C222.797 192.193 222.797 191.738 222.731 191.174C222.665 190.61 222.533 189.952 222.459 189.474C222.343 188.726 222.337 188.294 222.301 188.047C222.277 187.884 222.229 187.546 222.114 187.062C222.032 186.717 221.902 186.371 221.793 185.931C221.683 185.484 221.672 185.1 221.684 184.924C221.697 184.725 221.78 185.351 221.726 185.672C221.652 186.111 221.454 186.427 221.381 186.816C221.312 187.185 221.369 187.795 221.435 188.134C221.515 188.543 221.84 189.004 222.153 189.541C222.538 190.2 222.833 190.651 222.905 190.85C223.007 191.131 223.099 191.316 223.153 191.516C223.165 191.558 223.16 191.595 223.196 191.601C223.303 191.621 223.533 191.416 223.847 191.096C224.013 190.927 224.161 190.717 224.498 190.151C224.836 189.585 225.351 188.662 225.94 187.421C226.529 186.179 227.175 184.646 227.592 183.706C228.009 182.767 228.177 182.467 227.88 183.134C227.583 183.8 226.817 185.441 226.416 186.304C226.015 187.167 226.003 187.203 226.003 187.24C226.003 187.276 226.015 187.312 226.039 187.325C226.208 187.412 226.558 186.976 227.105 186.29C227.494 185.804 228.072 185.006 228.386 184.575C228.7 184.144 228.724 184.096 228.18 184.526C227.635 184.957 226.521 185.867 225.786 186.42C224.762 187.189 224.346 187.325 224.243 187.343C224.189 187.353 224.129 187.349 224.074 187.337C224.019 187.325 223.971 187.301 223.935 187.229C223.843 187.049 223.921 186.686 224.12 186.18C224.367 185.55 224.659 185.184 224.822 185.004C225.103 184.691 225.553 184.362 226.023 184.085C226.41 183.856 226.931 183.672 227.457 183.467C227.898 183.295 228.059 183.139 228.108 183.127C228.133 183.12 228.108 183.234 227.88 183.72C227.653 184.207 227.209 185.093 226.933 185.729C226.657 186.366 226.561 186.725 226.494 187.138C226.427 187.55 226.391 188.005 226.384 188.414C226.378 188.822 226.401 189.169 226.51 189.719C226.618 190.269 226.809 191.012 226.926 191.437C227.157 192.276 227.309 192.817 227.327 192.866C227.332 192.878 227.334 192.771 227.561 191.243C227.789 189.714 228.244 186.744 228.484 185.076C228.725 183.408 228.737 183.132 228.731 183.008C228.725 182.885 228.701 182.92 228.545 183.328C228.389 183.736 228.102 184.515 227.876 185.251C227.65 185.987 227.494 186.658 227.402 187.692C227.31 188.727 227.286 190.104 227.345 191.448C227.405 192.793 227.548 194.062 227.616 194.782C227.697 195.632 227.612 195.853 227.492 196.004C227.43 196.082 227.323 196.119 227.232 196.138C227.06 196.173 226.863 196.085 226.67 195.994C226.52 195.924 226.175 195.519 225.716 194.927C225.473 194.614 225.362 194.272 225.217 193.819C225.08 193.389 225.095 192.821 225.173 192.091C225.264 191.238 225.506 190.737 225.483 190.922C225.451 191.169 225.316 191.718 225.26 192.229C225.204 192.74 225.216 193.196 225.282 193.688C225.348 194.18 225.468 194.695 225.626 195.163C225.783 195.632 225.975 196.04 226.115 196.315C226.256 196.591 226.34 196.723 226.407 196.815C226.474 196.906 226.522 196.954 226.608 196.967" stroke="black" stroke-width="4" stroke-linecap="round"/>
<path d="M229.003 227.745C228.692 227.949 228.38 228.153 227.837 228.533C227.293 228.913 226.526 229.464 226.024 229.808C225.318 230.291 224.987 230.431 224.818 230.491C224.448 230.624 223.887 230.83 223.687 230.975C223.569 231.061 223.343 231.204 223.023 231.458C222.378 231.969 222.084 232.076 221.956 232.203C221.784 232.375 221.491 232.536 221.291 232.681C221.142 232.79 221.043 232.935 220.801 233.291C220.682 233.467 220.607 233.624 220.432 233.812C220.233 234.025 220.051 234.157 219.942 234.266C219.891 234.318 219.953 234.026 220.073 233.605C220.312 232.769 220.558 232.138 220.637 231.951C220.689 231.827 220.835 231.379 221.071 230.714C221.277 230.135 221.321 229.948 221.435 229.474C221.529 229.081 221.728 228.389 221.833 227.995C221.956 227.531 222.046 227.192 222.179 226.756C222.252 226.516 222.336 226.163 222.469 225.704C222.522 225.521 222.53 225.436 222.716 224.86C222.902 224.284 223.261 223.218 223.464 222.597C223.713 221.835 223.74 221.636 223.722 221.576C223.716 221.555 223.669 221.587 223.434 221.947C223.2 222.306 222.769 223.001 222.529 223.401C222.242 223.878 222.108 224.378 221.933 225.025C221.851 225.327 221.745 225.638 221.606 226.085C221.502 226.42 221.394 226.584 221.303 226.812C220.918 227.786 220.849 228.095 220.686 228.5C220.601 228.713 220.619 228.942 220.589 229.124C220.565 229.269 220.546 229.941 220.589 230.238C220.629 230.525 220.655 229.694 220.667 229.543C220.688 229.283 220.728 229.041 220.842 228.279C220.943 227.599 221.183 226.331 221.3 225.641C221.418 224.951 221.418 224.88 221.459 224.549C221.501 224.219 221.585 223.632 221.694 223.012C221.803 222.392 221.935 221.758 222.009 221.413C222.121 220.89 222.083 220.596 222.065 220.415C222.06 220.366 222.047 220.318 221.993 221.096C221.939 221.874 221.843 223.479 221.811 224.455C221.78 225.432 221.816 225.731 221.841 225.987C221.909 226.704 221.926 227.017 221.962 227.363C221.999 227.722 222.143 228.396 222.216 228.779C222.263 229.027 222.36 229.389 222.446 229.62C222.461 229.661 222.506 229.681 222.566 229.687C222.626 229.693 222.71 229.681 223.855 228.783C225.001 227.884 227.204 226.1 228.43 225.121C229.655 224.141 229.834 224.022 229.867 223.972C229.917 223.896 229.585 224.007 228.883 224.271C228.256 224.507 227.067 224.918 226.331 225.194C225.334 225.567 224.975 225.749 224.794 225.803C224.688 225.835 224.564 225.798 224.431 225.738C224.375 225.712 224.37 225.653 224.382 225.575C224.393 225.496 224.429 225.388 224.963 224.668C225.496 223.948 226.526 222.618 227.075 221.916C227.655 221.173 227.72 221.104 227.697 221.127C227.643 221.181 227.53 221.342 226.719 222.117C225.909 222.892 224.412 224.281 223.659 224.967C222.905 225.653 222.941 225.593 223.385 224.928C223.829 224.262 224.679 222.992 225.207 222.254C225.735 221.517 225.914 221.349 226.037 221.244C226.159 221.14 226.219 221.104 226.281 221.067" stroke="black" stroke-width="4" stroke-linecap="round"/>
<path d="M221.926 222.338C222.01 222.098 222.093 221.858 222.34 221.202C222.587 220.546 222.994 219.48 223.336 218.074C223.677 216.669 223.941 214.956 224.077 214.002C224.212 213.047 224.212 212.904 224.224 212.716C224.251 212.3 224.369 211.743 224.514 211.217C224.623 210.82 224.876 210.496 225.089 210.234C225.306 209.966 225.47 209.78 225.519 209.743C225.604 209.876 225.628 210.129 225.598 210.532C225.568 210.804 225.508 211.211 225.446 211.631" stroke="black" stroke-width="4" stroke-linecap="round"/>
<path d="M228.894 211.885C228.475 212.687 228.056 213.49 227.756 214.184C227.456 214.879 227.289 215.442 227.154 216.02C227.02 216.597 226.924 217.172 226.875 217.546C226.805 218.073 226.837 218.272 226.891 218.315C226.925 218.341 227.005 218.297 227.078 218.225C227.151 218.153 227.223 218.033 227.41 217.54C227.597 217.047 227.896 216.185 228.116 215.273C228.336 214.362 228.468 213.428 228.536 212.905C228.604 212.381 228.604 212.298 228.562 212.302C228.52 212.307 228.436 212.403 228.279 212.674C228.122 212.945 227.895 213.388 227.676 213.946C227.457 214.503 227.253 215.162 227.13 215.633C227.007 216.104 226.971 216.368 226.953 216.659C226.915 217.261 226.982 217.894 227.073 218.396C227.107 218.588 227.151 218.646 227.194 218.659C227.236 218.672 227.284 218.636 227.309 218.594C227.334 218.551 227.334 218.503 227.334 218.454" stroke="black" stroke-width="4" stroke-linecap="round"/>
<path d="M225.918 219.18C225.618 219.599 225.319 220.018 225.165 220.21C225.01 220.402 225.01 220.354 225.058 220.198C225.106 220.041 225.202 219.778 225.221 219.624C225.241 219.471 225.181 219.435 225 219.446C224.82 219.458 224.52 219.517 224.073 219.626C223.035 219.878 222.397 220.063 222.325 220.069C222.148 220.084 222.059 219.798 221.914 219.381C221.748 218.906 222.009 218.709 222.076 218.503C222.131 218.335 222.227 218.201 222.288 218.019C222.359 217.808 222.409 217.512 222.53 217.004C222.61 216.668 222.663 216.447 222.717 216.205C222.766 215.991 222.844 215.47 222.971 214.655C223.073 214.002 223.026 213.592 223.056 213.267C223.076 213.049 223.098 212.726 223.141 212.374C223.228 211.648 223.328 211.196 223.365 211.039C223.466 210.603 223.304 209.844 223.335 209.369C223.351 209.115 223.377 208.825 223.407 208.559C223.429 208.365 223.353 208.22 223.305 208.068C223.276 207.979 223.256 207.892 223.226 207.856C223.191 207.814 223.147 207.964 223.111 208.007C223.071 208.054 222.894 207.965 222.719 207.989C222.56 208.01 222.735 208.315 222.79 208.556C222.887 208.982 222.76 209.258 222.724 209.488C222.708 209.587 222.687 209.958 222.693 210.466C222.696 210.687 222.724 211.166 222.712 211.874C222.703 212.361 222.615 212.597 222.579 212.845C222.525 213.211 222.518 213.795 222.5 213.959C222.475 214.185 222.409 214.424 222.385 214.66C222.367 214.837 222.312 215.029 222.294 215.45C222.257 216.325 222.276 216.989 222.258 217.188C222.252 217.399 222.24 217.546 222.216 217.918C222.204 218.254 222.192 218.889 222.179 219.543" stroke="black" stroke-width="4" stroke-linecap="round"/>
<path d="M209.023 211.457C208.909 211.915 208.841 212.208 208.829 212.409C208.79 213.041 208.85 213.207 208.899 213.43C208.959 213.701 208.981 213.884 209.068 214.124C209.107 214.231 209.13 214.315 209.135 214.344C209.114 214.299 209.032 213.84 208.933 213.175C208.899 212.928 208.899 212.863 208.899 212.795" stroke="white" stroke-width="4" stroke-linecap="round"/>
<path d="M209.322 213C209.322 213.008 209.322 213.016 209.273 213.16C209.224 213.303 209.126 213.581 209.071 213.736C209.017 213.892 209.008 213.916 209 213.991" stroke="white" stroke-width="4" stroke-linecap="round"/>
<path d="M192.818 201.378C193.042 201.378 193.604 201.266 194.951 200.818C197.192 199.922 201.478 198.453 206.606 196.987C208.828 196.415 210.281 196.191 211.777 195.961" stroke="white" stroke-width="4" stroke-linecap="round"/>
<path d="M208.466 181.225C208.466 181.146 208.466 181.067 208.483 181.037C208.5 181.008 208.534 181.03 208.557 181.093C208.68 181.426 208.739 182.213 208.814 182.76C208.907 183.439 208.923 183.681 208.985 184.158C209.031 184.511 209.127 185.087 209.173 185.418C209.229 185.816 209.265 186.272 209.334 186.973C209.388 187.526 209.346 187.829 209.346 188.034C209.345 188.182 209.391 188.419 209.499 188.954C209.607 189.49 209.788 190.315 209.898 190.78C210.028 191.328 210.145 191.519 210.316 191.866C210.594 192.432 210.705 192.868 210.705 192.926C210.706 193.208 210.249 192.458 210.066 192.372C209.744 192.221 209.357 192.287 209.3 192.19C209.157 191.946 209.367 191.318 209.494 190.99C209.571 190.788 209.62 190.608 209.688 190.128C209.727 189.855 209.734 189.285 209.694 188.757C209.643 188.079 209.574 187.899 209.483 187.727C209.438 187.641 209.312 188.09 209.243 188.637C209.113 189.673 209.163 189.953 209.123 190.308C209.073 190.752 209.174 190.914 209.26 191.069C209.283 191.112 209.322 191.154 209.357 191.183C209.391 191.212 209.425 191.223 209.493 191.218C209.562 191.212 209.664 191.19 210.236 190.85C210.809 190.51 211.85 189.854 213.376 188.996C214.902 188.137 216.882 187.097 218.195 186.476C219.509 185.855 220.098 185.685 220.418 185.592C220.738 185.499 220.772 185.487 220.009 185.736C219.245 185.985 217.684 186.494 216.79 186.807C215.895 187.12 215.714 187.222 215.434 187.41C215.154 187.598 214.781 187.87 214.509 188.055C213.862 188.496 213.608 188.572 213.318 188.698C212.94 188.861 212.672 188.835 212.449 188.864C212.375 188.873 212.273 188.87 212.204 188.853C212.134 188.836 212.1 188.802 212.094 188.722C212.078 188.518 212.202 188.254 212.401 187.935C212.52 187.744 212.724 187.526 212.981 187.273C213.239 187.021 213.556 186.75 214.85 185.92C216.144 185.09 218.407 183.71 219.533 183.01C220.659 182.31 220.58 182.333 219.526 182.712C218.473 183.092 216.448 183.827 215.264 184.279C214.079 184.732 213.796 184.879 213.538 185.039C213.039 185.349 212.785 185.578 212.598 185.732C211.852 186.343 211.598 186.424 211.42 186.487C211.382 186.501 211.346 186.482 211.34 186.447C211.334 186.413 211.356 186.357 211.787 185.79C212.217 185.224 213.054 184.149 213.615 183.477C214.176 182.804 214.437 182.567 215.131 182.06C215.825 181.553 216.945 180.784 217.538 180.37C218.171 179.93 218.461 179.73 218.873 179.473C219.026 179.377 219.058 179.34 219.019 179.323C218.979 179.305 218.866 179.305 218.129 179.617C217.392 179.928 216.035 180.55 215.29 180.899C214.546 181.247 214.455 181.304 214.25 181.401C213.734 181.645 213.323 181.796 213.073 181.887C212.633 182.047 212.159 182.309 211.788 182.532C211.533 182.685 211.369 182.79 211.226 182.825C211.164 182.84 211.118 182.836 211.1 182.814C211.082 182.791 211.094 182.746 211.235 182.474C211.377 182.201 211.648 181.704 211.924 181.295C212.427 180.548 212.819 180.209 213.006 180.066C213.286 179.854 213.561 179.706 214.089 179.411C214.528 179.166 215.306 178.709 215.77 178.431C216.235 178.152 216.359 178.062 216.604 177.851C217.22 177.322 217.675 176.918 217.829 176.815C218.191 176.574 218.749 176.312 219.046 176.135C219.308 175.979 218.408 176.128 218.054 176.22C217.753 176.298 217.12 176.516 216.74 176.643C216.437 176.744 216.214 176.916 215.382 177.481C215.206 177.6 215.163 177.648 214.924 177.835C214.686 178.022 214.256 178.35 213.956 178.57C213.503 178.901 213.254 179.065 213.106 179.185C212.786 179.444 212.069 179.864 211.683 180.019C211.311 180.231 211.061 180.39 210.866 180.528C210.831 180.551 210.798 180.562 210.728 180.574" stroke="black" stroke-width="4" stroke-linecap="round"/>
<path d="M210.556 196.103C210.545 196.023 210.534 195.944 210.505 195.355C210.477 194.765 210.432 193.668 210.391 193.108C210.351 192.549 210.317 192.56 210.232 192.617C209.755 192.933 209.563 193.302 209.46 193.519C209.245 193.972 209.117 194.216 209.02 194.479C208.954 194.658 208.945 194.912 208.985 195.108C209.024 195.301 209.287 195.937 209.362 196.49C209.373 196.57 209.379 196.627 209.385 196.979C209.391 197.33 209.391 197.975 209.385 198.335C209.379 198.753 209.357 199.014 209.351 199.351C209.348 199.542 209.311 199.69 209.294 200.081C209.258 200.891 209.277 201.495 209.26 201.638C209.23 201.882 209.288 202.158 209.316 202.443C209.364 202.921 209.379 203.311 209.396 203.632C209.411 203.897 209.482 204.214 209.533 204.568C209.551 204.66 209.573 204.751 209.585 204.826C209.596 204.9 209.596 204.957 209.631 205.084" stroke="black" stroke-width="4" stroke-linecap="round"/>
<path d="M210.385 203.576C210.453 203.496 210.521 203.417 210.855 202.867C211.19 202.317 211.79 201.299 212.132 200.679C212.475 200.058 212.543 199.866 212.646 199.416C212.749 198.966 212.884 198.265 212.966 197.87C213.047 197.474 213.07 197.407 213.143 197.117C213.347 196.32 213.504 195.704 213.572 195.482C213.663 195.186 213.698 194.938 213.755 194.654C213.87 194.082 213.881 193.59 213.876 193.384C213.865 193.004 213.711 192.528 213.556 192.304C213.477 192.188 213.333 192.172 213.265 192.132C213.231 192.113 213.196 192.103 213.162 192.137C213.068 192.23 213.059 192.388 213.047 192.542C213.04 192.639 213.013 192.775 212.968 194.366C212.922 195.958 212.854 199.001 212.808 200.647C212.762 202.294 212.739 202.453 212.727 202.568C212.688 202.957 212.647 203.346 212.59 203.671C212.562 203.835 212.567 203.952 212.556 204.021C212.55 204.055 212.567 204.089 212.595 204.101C212.757 204.168 212.898 203.896 213.476 203.064C214.012 202.291 215.026 200.795 215.641 199.856C216.256 198.917 216.437 198.578 216.672 197.984C216.906 197.391 217.189 196.554 217.369 195.823C217.549 195.092 217.616 194.492 217.634 193.855C217.652 193.218 217.618 192.562 217.578 192.105C217.517 191.408 217.367 190.94 217.191 190.49C217.102 190.262 216.98 190.051 216.877 190.087C216.773 190.123 216.683 190.418 216.353 191.955C216.024 193.492 215.458 196.264 215.161 197.799C214.864 199.334 214.853 199.549 214.853 199.688C214.852 199.884 214.898 199.987 214.966 200.078C215.147 200.32 215.525 200.25 215.771 200.279C216.254 200.335 216.804 200.069 217.142 199.857C217.252 199.789 217.375 199.636 217.53 199.425C217.685 199.213 217.854 198.931 218.117 198.208C218.38 197.485 218.731 196.332 218.956 195.132C219.182 193.932 219.273 192.722 219.291 191.94C219.31 191.158 219.253 190.841 219.201 190.616C219.053 189.969 218.75 189.624 218.618 189.402C218.588 189.351 218.567 189.316 218.544 189.315C218.521 189.315 218.498 189.349 218.232 190.497C217.966 191.646 217.457 193.909 217.019 196.234C216.582 198.559 216.231 200.878 216.05 202.185C215.87 203.493 215.87 203.72 215.875 203.876C215.888 204.229 215.983 204.567 216.046 204.804C216.051 204.821 216.086 204.776 216.154 204.493C216.223 204.209 216.336 203.678 216.649 202.606C216.961 201.535 217.47 199.94 217.823 198.626C218.176 197.312 218.357 196.328 218.416 195.923C218.475 195.518 218.408 195.721 218.322 196.115C218.236 196.508 218.134 197.085 218.036 198.429C217.939 199.772 217.848 201.865 217.819 203.022C217.789 204.18 217.823 204.338 217.863 204.482C217.991 204.939 218.097 205.231 218.194 205.488C218.256 205.652 218.098 204.834 218.194 204.372C218.232 204.192 218.325 203.957 218.496 203.569C218.666 203.181 218.927 202.649 219.145 202.121C219.364 201.592 219.534 201.083 219.627 200.793C219.72 200.502 219.731 200.446 219.726 200.451C219.667 200.502 219.663 200.661 219.612 201.403C219.566 202.077 219.505 203.355 219.458 204.059C219.389 204.853 219.355 205.003 219.326 205.106C219.309 205.152 219.287 205.186 219.195 205.221" stroke="black" stroke-width="4" stroke-linecap="round"/>
<path d="M220.464 207.004C220.339 206.981 220.099 206.912 219.634 206.816C219.228 206.732 218.468 206.618 217.976 206.548C217.282 206.449 216.889 206.432 216.535 206.381C216.202 206.333 215.974 206.284 215.554 206.329C215.201 206.367 214.569 206.465 213.971 206.494C213.373 206.524 212.83 206.49 212.534 206.467C212.109 206.434 211.838 206.341 211.558 206.261C211.331 206.196 211.14 206.192 210.918 206.107C210.599 205.985 210.398 205.861 210.22 205.804C210.077 205.758 209.827 205.735 209.586 205.707C209.529 205.7 209.461 205.701 209.415 205.718C209.369 205.735 209.346 205.769 209.334 205.809C209.285 205.979 209.459 206.282 209.562 206.534C209.669 206.796 209.757 207.003 209.774 207.26C209.795 207.574 209.78 207.963 209.729 208.1C209.673 208.249 209.427 208.408 209.345 208.478C209.001 208.776 209.482 207.85 209.551 207.553C209.569 207.474 209.563 207.394 209.546 207.375C209.447 207.269 209.403 207.665 209.397 207.922C209.391 208.183 209.505 208.454 209.579 208.592C209.594 208.619 209.653 208.592 209.637 208.598C209.543 208.629 209.426 208.66 209.363 208.694C209.296 208.731 209.277 208.82 209.26 208.917C209.249 208.979 209.254 209.07 209.294 209.117C209.519 209.381 210.03 208.981 210.703 208.815C210.906 208.765 211.047 208.763 211.337 208.729C211.883 208.665 212.27 208.729 212.729 208.746C213.154 208.762 213.968 208.752 214.433 208.757C214.989 208.764 215.319 208.786 215.696 208.78C216.11 208.774 216.635 208.695 216.943 208.689C217.32 208.682 217.789 208.706 217.858 208.695C217.926 208.683 217.961 209.147 217.956 209.816C217.952 210.273 217.836 210.727 217.796 211.013C217.761 211.263 217.744 211.391 217.772 211.392C217.96 211.395 218.154 210.823 218.399 210.304C218.612 209.854 218.761 209.404 218.846 209.21C218.864 209.164 218.875 209.13 218.87 209.135C218.864 209.14 218.841 209.185 218.818 209.232" stroke="black" stroke-width="4" stroke-linecap="round"/>
<path d="M208.055 219.961C208.055 219.882 208.077 219.654 208.18 219.266C208.222 219.107 208.249 218.968 208.266 218.91C208.379 218.534 208.214 219.8 208.243 219.995C208.247 220.024 208.294 220.007 208.781 219.487C209.268 218.966 210.207 217.937 210.894 217.22C211.581 216.503 211.989 216.13 212.3 215.824C212.612 215.519 212.815 215.292 213.435 214.757C214.055 214.222 215.084 213.385 215.886 212.795C216.688 212.206 217.231 211.889 217.533 211.709C217.999 211.432 218.178 211.289 218.281 211.146C218.42 210.953 218.578 210.889 218.647 210.877C218.734 210.862 218.852 211.138 219.051 211.514C219.297 211.977 219.355 212.441 219.378 212.856C219.393 213.113 219.356 213.464 219.327 213.729C219.299 213.995 219.265 214.165 218.942 215.134C218.619 216.104 218.008 217.869 217.66 218.942C217.311 220.015 217.243 220.343 217.197 220.812C217.15 221.281 217.128 221.88 217.105 222.263C217.059 223.027 216.877 223.387 216.672 223.815C216.563 224.041 216.422 224.276 216.323 223.465C216.225 222.654 216.169 220.787 216.168 219.622C216.167 218.457 216.224 218.05 216.281 217.75C216.43 216.972 216.647 216.74 216.801 216.466C216.999 216.114 217.275 215.872 217.418 215.694C217.594 215.475 217.709 215.243 217.852 215.038C217.907 214.959 217.916 214.923 217.831 215.024C217.746 215.125 217.565 215.363 216.997 215.881C216.429 216.4 215.478 217.191 214.429 218.029C213.379 218.867 212.259 219.727 211.649 220.204C210.853 220.825 210.707 220.955 210.529 221.098C210.288 221.292 210.112 221.686 209.947 221.835C209.653 222.099 209.404 222.257 209.227 222.304C209.012 222.36 208.958 221.916 208.838 221.722C208.743 221.568 208.672 221.447 208.604 221.424C208.453 221.374 208.375 221.663 208.295 221.891C208.113 222.412 208.249 222.92 208.289 223.177C208.322 223.387 208.329 223.752 208.357 224.034C208.363 224.187 208.375 224.337 208.392 224.638C208.397 224.882 208.397 225.312 208.432 225.789" stroke="black" stroke-width="4" stroke-linecap="round"/>
<path d="M220.566 224.418C220.077 224.463 219.642 224.577 219.288 224.618C218.719 224.682 218.397 224.737 218.054 224.914C217.752 225.07 217.414 225.444 217.156 225.998C217.02 226.293 216.99 226.576 216.848 226.861C216.622 227.313 216.306 227.752 216.066 228.044C215.867 228.286 215.677 228.53 215.477 229.021C215.355 229.318 215.106 229.865 214.848 230.278C214.662 230.576 214.591 230.861 214.539 231.141C214.545 231.41 214.568 231.57 214.596 231.827C214.602 231.924 214.602 232.059 214.602 232.199" stroke="black" stroke-width="4" stroke-linecap="round"/>
<path d="M214.225 220.544C214.203 220.499 214.123 220.34 213.981 220.179C213.928 220.121 213.827 220.245 213.594 220.659C213.361 221.074 212.976 221.809 212.716 222.363C212.455 222.917 212.331 223.268 212.233 223.601C211.924 224.652 211.918 224.988 211.82 225.251C211.7 225.576 211.439 226.161 211.232 226.855C211.187 227.005 211.209 227.168 211.203 227.233C211.2 227.268 211.152 227.104 211.033 226.701C210.818 225.974 210.58 225.492 210.552 225.384C210.525 225.283 211.02 225.116 211.916 224.888C212.284 224.794 212.462 224.705 212.725 224.545C212.988 224.386 213.327 224.148 213.575 223.958C213.982 223.646 214.315 223.266 214.64 222.866C214.861 222.595 214.922 222.43 214.922 222.384C214.923 222.265 214.604 222.622 214.124 223.375C213.992 223.583 213.93 223.796 213.855 224.037C213.78 224.278 213.712 224.549 213.61 225.017C213.507 225.485 213.371 226.141 213.284 226.53C213.139 227.179 212.969 227.693 212.888 228.033C212.877 228.085 212.866 228.153 212.86 228.233C212.854 228.313 212.854 228.404 212.854 228.497" stroke="black" stroke-width="4" stroke-linecap="round"/>
<path d="M218.03 228.394C218.03 228.519 217.951 229.166 217.797 229.988C217.684 230.59 217.494 231.088 217.323 231.55C217.126 232.08 216.9 232.266 216.671 232.427C216.524 232.53 216.124 232.78 215.558 233.384C214.596 234.412 214.705 234.713 214.648 234.798C214.622 234.837 214.613 234.872 214.664 234.856C214.839 234.799 215.012 234.645 215.421 234.373C215.756 234.149 216.372 233.784 216.704 233.586C217.035 233.388 217.069 233.376 217.081 233.399C217.162 233.553 216.662 233.956 216.015 234.426C215.687 234.665 215.403 234.724 215.151 234.827C214.655 235.03 213.976 235.34 213.62 235.575C213.282 235.798 212.889 236.06 212.587 236.294C212.094 236.675 211.849 237.214 211.717 237.369C211.578 237.532 211.312 237.604 211.078 237.768C210.697 238.037 210.341 238.38 209.937 238.721C209.296 239.263 208.866 239.694 208.684 239.842C208.257 240.189 208.18 240.391 208.06 240.563C207.95 240.72 207.906 240.871 207.815 241.014C207.701 241.192 207.563 241.351 207.415 241.54C207.197 241.816 207.061 241.911 206.918 242.037C206.696 242.232 206.489 242.482 206.409 242.648C206.335 242.801 206.249 242.951 206.175 243.1C206.158 243.134 206.146 243.168 206.152 243.129C206.173 242.976 206.237 242.77 206.322 242.548C206.439 242.245 206.602 241.8 206.751 241.338C206.898 240.879 206.946 240.622 206.991 240.461C207.034 240.312 207.105 240.13 207.282 239.526C207.39 239.158 207.505 238.92 207.568 238.821C208.044 238.079 207.312 240.116 207.266 240.294C207.22 240.472 207.175 240.631 207.1 240.797C207.037 240.94 206.946 241.077 206.787 241.22C206.75 241.253 206.695 241.226 206.661 241.204C206.531 241.118 206.501 240.919 206.449 240.559C206.393 240.168 206.477 239.619 206.506 239.29C206.521 239.111 206.603 238.862 206.677 238.628C206.76 238.366 206.774 238.176 206.849 237.936C206.905 237.754 206.923 237.458 206.952 237.165C206.988 236.794 206.992 236.634 207.026 236.439C207.081 236.123 207.083 235.799 207.1 235.622C207.127 235.343 207.174 234.841 207.203 234.48C207.232 234.121 207.277 233.436 207.306 233.108C207.323 232.918 207.357 232.691 207.374 232.36C207.389 232.073 207.426 231.8 207.443 231.287C207.45 231.08 207.494 230.818 207.551 230.188C207.592 229.739 207.631 229.026 207.648 228.624C207.669 228.156 207.643 227.916 207.688 227.653C207.744 227.33 208.236 227.446 208.402 227.372C208.442 227.354 208.488 227.343 208.534 227.354C208.786 227.416 208.763 227.97 208.842 228.267C208.949 228.666 209.059 229.078 209.174 229.319C209.288 229.56 209.242 229.878 209.294 230.238C209.372 230.781 209.346 231.215 209.277 231.637C209.168 232.31 209.048 232.793 209.043 232.907C209.026 233.242 208.9 233.603 208.843 234.242C208.79 234.834 208.831 235.706 208.848 235.929C208.865 236.149 209.025 236.346 209.094 236.484C209.134 236.563 209.208 236.621 209.276 236.655C209.317 236.676 209.39 236.622 209.442 236.588C209.533 236.527 209.766 236.088 210.109 235.392C210.344 234.913 210.498 234.498 210.743 234.093C210.993 233.681 211.208 233.468 211.321 233.309C211.751 232.709 211.802 232.44 212.013 231.899C212.135 231.586 212.134 231.151 212.122 230.66C212.107 229.992 212.02 229.721 211.894 229.412C211.869 229.35 211.826 229.32 211.786 229.297C211.746 229.274 211.7 229.263 211.654 229.263C211.608 229.262 211.563 229.274 211.517 229.285" stroke="black" stroke-width="4" stroke-linecap="round"/>
<path d="M193.357 251.303C193.481 251.204 193.998 250.416 194.778 249.203C195.548 248.007 195.862 247.112 196.097 246.754C196.611 245.969 196.73 244.76 196.867 243.95C196.968 243.353 197.127 242.97 197.19 242.388C197.327 241.104 197.327 240.416 197.289 239.907C197.249 239.367 197.153 238.436 197.079 237.834C196.988 237.096 197.053 235.9 197.066 234.922C197.073 234.408 196.955 233.916 196.917 233.222C196.895 232.819 196.806 232.477 196.768 231.499C196.76 231.285 196.731 231.212 196.719 231.235C196.494 231.652 196.979 232.3 197.066 232.93C197.322 234.788 196.906 235.398 196.843 236.194C196.77 237.107 196.83 238.502 196.867 238.923C196.883 239.1 196.929 239.811 196.917 240.816C196.903 241.946 196.806 243.339 196.707 243.637C196.6 243.957 196.557 244.503 196.422 244.914C196.303 245.272 196.211 245.571 196.049 245.869C195.894 246.158 195.764 246.464 195.677 246.811C195.544 247.343 195.492 247.655 195.355 247.953C195.208 248.272 194.922 248.548 194.71 248.846C194.661 248.914 194.648 248.994 194.672 248.909C194.884 248.167 195.216 247.585 195.428 247.211C195.59 246.926 195.763 246.419 195.899 246.02C196.013 245.688 196.234 245.425 196.408 245.065C196.589 244.69 197.199 243.892 197.573 243.057C197.852 242.437 197.946 241.755 198.107 241.32C198.263 240.899 198.416 240.244 198.677 239.56C199.172 238.262 199.656 237.315 200.077 236.486C200.675 235.309 201.293 234.117 201.603 233.398C201.938 232.622 202.188 231.758 202.509 231.077C202.628 230.825 202.878 230.546 202.931 230.395C202.983 230.243 202.86 230.243 202.748 230.231C201.826 230.13 200.379 230.217 199.994 230.317C199.831 230.359 199.536 230.392 199.165 230.355C198.704 230.309 198.37 229.872 198.108 229.55C197.966 229.375 198.44 229.004 199.144 228.351C199.618 227.91 200.265 227.181 200.643 226.753C201.022 226.325 201.095 226.202 202.079 225.046C203.062 223.89 204.953 221.704 206.111 220.431C207.584 218.812 208.067 218.486 208.08 218.534C208.113 218.656 207.921 218.975 207.477 219.692C207.033 220.409 206.272 221.514 205.843 222.157C205.323 222.936 205.092 223.344 204.672 223.987C203.617 225.6 203.307 226.345 203.008 226.929C202.643 227.641 202.585 228.207 202.499 228.604C202.403 229.044 202.04 229.348 201.78 229.708C201.562 230.008 201.296 230.34 201.159 230.787C200.993 231.331 200.85 232.073 200.651 232.956C200.476 233.733 200.155 234.384 200.154 234.423C200.152 234.52 200.35 234.044 201.003 233.119C201.656 232.193 202.81 230.646 203.441 229.788C204.157 228.814 204.394 228.459 204.741 228.038C205.063 227.646 205.338 227.367 205.842 226.8C207.835 224.562 208.24 224.389 208.339 224.364C208.373 224.355 208.34 224.486 207.947 225.101C207.554 225.717 206.793 226.846 206.339 227.502C205.777 228.315 205.489 228.727 204.885 229.713C204.441 230.438 203.667 231.584 203.238 232.277C202.489 233.487 202.042 234.306 201.718 234.843C201.476 235.243 201.247 235.872 201.097 236.22C200.925 236.618 200.948 237.086 200.874 237.546C200.781 238.126 200.775 238.651 200.786 238.738C200.805 238.876 201.145 238.529 201.417 238.233C201.761 237.857 202.701 236.8 203.929 235.523C204.459 234.971 204.888 234.562 205.753 233.919C207.603 232.544 208.166 232.426 208.289 232.389C208.339 232.374 208.364 232.474 207.886 233.04C207.407 233.606 206.425 234.662 205.649 235.623C204.873 236.585 204.332 237.42 203.956 238.022C203.088 239.409 202.859 239.816 202.611 240.201C202.406 240.518 202.14 241.128 201.941 241.738C201.595 242.796 201.025 243.51 200.219 244.403C199.342 245.375 198.965 246.265 198.58 246.601C198.433 246.73 198.196 246.911 198.108 247.072C197.942 247.377 199.084 246.543 199.887 245.937C201.509 244.714 202.482 244.285 202.993 243.974C203.301 243.764 204.166 243.024 205.465 241.799C206.077 241.188 206.593 240.599 207.125 239.917" stroke="black" stroke-width="4" stroke-linecap="round"/>
<path d="M195.179 236.401C195.852 235.672 196.525 234.943 196.956 234.427C197.387 233.911 197.555 233.631 195.679 235.561C193.803 237.492 189.877 241.642 187.659 244.06C184.186 247.845 183.399 248.973 182.973 249.345C182.867 249.437 183.223 248.759 185.413 245.92C187.604 243.081 191.753 237.866 194.172 234.899C197.827 230.414 199.251 229.44 199.937 228.839C200.063 228.729 199.037 229.316 196.589 231.397C194.66 233.037 191.505 236.057 188.765 238.85C186.025 241.643 183.838 244.167 182.627 245.523C181.416 246.879 181.248 246.991 181.638 246.348C182.028 245.705 182.981 244.303 184.229 242.627C185.478 240.952 186.992 239.045 188.585 237.25C191.703 233.735 193.704 232.04 194.353 231.59C194.798 231.28 195.393 230.691 193.664 232.477C191.935 234.263 187.841 238.413 185.284 241.111C182.726 243.81 181.829 244.932 181.199 245.818C179.717 248.181 179.039 249.421 177.85 251.461C177.62 251.863 177.564 252.032 177.336 252.375" stroke="black" stroke-linecap="round"/>
<path d="M189.911 242.009C190.472 241.672 192.331 240.602 194.374 239.382C194.865 239.089 194.173 239.341 192.228 240.466C190.283 241.592 187.087 243.555 185.16 244.791C181.256 247.294 180.057 249.144 179.998 249.175C179.314 249.532 181.073 247.846 183.851 245.15C186.404 242.673 191.509 238.192 194.025 236.048C196.541 233.904 196.372 234.297 193.846 236.602C191.32 238.907 186.441 243.113 183.844 245.336C181.246 247.559 181.078 247.671 181.103 247.448C181.197 246.631 182.65 245.078 184.433 243.324C186.204 241.582 187.186 240.092 188.745 238.53C190.41 236.862 192.685 234.929 193.109 234.703C193.312 234.595 193.477 234.477 191.488 236.298C189.5 238.119 185.35 241.876 183.465 243.671C181.579 245.467 182.084 245.186 182.568 244.958C184.291 244.145 185.656 243.484 187.241 242.187C188.013 241.555 188.983 240.221 190.205 238.968C194.154 234.921 194.894 234.535 195.32 233.854C195.514 233.543 195.575 233.174 195.52 232.919C195.49 232.781 195.128 232.832 193.75 234.262C192.372 235.692 189.905 238.552 188.185 240.334C184.632 244.015 182.835 244.102 181.307 244.809C179.686 245.56 179.209 247.158 178.782 248.038C178.222 249.194 177.679 250.383 177.027 251.606C176.167 253.216 175.752 254.92 174.988 255.742C174.332 256.448 173.601 256.735 172.92 257.075C172.759 257.156 172.581 257.133 172.551 257.049C172.46 256.8 173.533 256.175 174.638 255.495C175.669 254.861 170.88 256.509 170.709 256.454C170.305 256.323 172.282 254.484 174.348 252.389C176.122 250.591 177.275 249.717 178.153 249.036C179.614 247.903 181.122 246.944 183.104 245.78C184.83 244.768 187.405 243.547 189.725 242.132C191.738 240.905 193.188 239.752 194.157 238.923C194.326 238.779 194.496 238.613 194.19 238.947C193.107 240.13 191.674 241.55 190.038 243.185C188.991 244.231 187.617 245.829 186.278 247.17C182.352 251.104 181.418 251.862 180.85 252.57C180.085 253.525 179.039 253.846 177.625 254.553C176.539 255.095 175.586 255.994 174.986 256.312C174.636 256.498 175.803 255.605 177.378 254.621C178.637 253.836 180.748 252.348 182.127 251.456C183.505 250.565 184.065 250.285 185.7 249.215C187.335 248.145 190.027 246.294 192.03 245.005C196.754 241.964 197.837 241.275 198.632 240.821C199.114 240.545 199.596 240.311 199.683 240.14C200.22 239.081 197.171 242.168 193.355 245.703C189.601 249.181 189.181 250.444 187.738 251.717C186.324 252.964 184.65 254.237 183.462 255.537C182.476 256.616 181.816 257.752 181.22 258.319C180.713 258.802 184.562 255.733 188.033 253.739C189.052 253.154 189.626 252.718 190.277 252.32C190.71 252.054 191.099 251.809 191.13 251.696C191.286 251.12 187.502 252.142 183.369 253.161C181.367 253.731 180.063 254.297 178.677 254.948C178.131 255.206 177.907 255.318 177.336 255.604" stroke="black" stroke-width="4" stroke-linecap="round"/>
<path d="M207.24 207.475C207.395 207.599 207.549 207.723 207.675 207.802C207.801 207.881 207.894 207.912 208.083 208.037" stroke="black" stroke-width="4" stroke-linecap="round"/>
<path d="M208.738 208.505C207.742 208.754 207.055 208.88 206.385 208.957C205.623 209.046 204.936 209.067 204.325 209.144C203.349 209.269 202.719 209.067 202.265 208.989C201.816 208.912 201.006 208.88 199.914 208.802C197.045 208.598 196.757 208.91 196.585 208.911C196.213 208.912 196.32 208.164 196.272 205.893C196.254 205.009 196.132 204.388 196.085 203.935C196.04 203.502 195.913 203.077 195.82 202.703C195.727 202.327 195.664 201.831 195.477 200.554C195.232 198.883 195.539 197.5 195.617 196.54C195.658 196.024 195.85 195.403 196.1 194.342C196.204 193.9 196.288 193.56 196.303 193.264C196.401 191.39 196.32 188.471 196.195 188.72C195.872 189.365 195.851 189.842 195.804 190.653C195.759 191.435 195.664 192.37 195.648 193.865C195.635 195.052 195.788 196.614 195.835 197.098C195.864 197.395 195.913 198.294 195.898 199.463C195.891 199.986 195.82 201.625 195.804 204.011C195.793 205.815 195.664 207.629 195.555 208.252C195.41 209.075 195.631 209.69 195.849 209.815C196.389 210.124 197.065 209.941 197.782 209.878C199.468 209.731 200.776 209.784 202.286 209.956C202.951 210.031 204.005 209.941 205.612 209.724C207.219 209.508 209.35 209.106 210.526 208.868C211.862 208.598 212.385 208.505 212.901 208.474C213.007 208.468 212.517 208.225 211.91 208.085C211.466 207.982 210.401 207.944 207.916 207.835C206.298 207.764 203.949 207.88 202.616 207.896C200.626 207.921 199.942 207.788 198.881 207.725C198.788 207.72 199.281 207.476 200.49 207.166C201.416 206.928 202.996 206.609 203.885 206.433C205.321 206.151 206.083 206.165 208.134 205.731C210.264 205.28 211.762 204.667 211.967 204.682C212.596 204.73 210.149 204.884 208.224 205.118C206.952 205.272 205.063 205.32 203.984 205.337C202.275 205.364 201.472 205.073 200.193 205.057C199.223 205.044 198.067 205.104 198.004 204.996C197.602 204.305 199.965 204.481 201.501 204.093C202.552 203.828 204.119 203.304 205.472 202.941C207.888 202.293 209.143 202.139 209.484 202.109C210.017 202.06 210.422 201.921 210.532 201.828C210.581 201.786 210.487 201.673 210.347 201.61C210.011 201.458 208.872 201.515 206.712 201.67C205.444 201.761 203.84 202.01 202.395 202.122C199.72 202.328 198.286 202.202 197.991 202.155C197.85 202.133 197.726 202.139 197.616 202.124C197.506 202.109 197.413 202.078 197.473 201.984C197.675 201.673 199.178 201.145 201.482 200.397C203.496 199.744 204.835 199.613 205.426 199.457C206.317 199.222 207.018 199.176 208.39 198.755C208.673 198.669 208.798 198.676 208.846 198.629C208.895 198.583 208.864 198.49 208.74 198.396C207.82 197.699 205.997 198.176 205.215 198.239C203.893 198.345 201.729 198.582 200.69 198.504C199.844 198.441 198.849 198.208 198.334 198.13C198.134 198.1 197.823 198.114 197.787 198.068C197.752 198.021 197.999 197.929 199.038 197.634C200.076 197.339 201.899 196.845 203.039 196.513C204.59 196.061 205.797 195.435 207.184 194.656C207.776 194.324 208.107 194.063 208.329 193.92C208.63 193.725 207.225 194.209 204.452 195.05C202.271 195.712 200.94 195.774 200.395 195.758C199.64 195.737 199.036 195.338 198.691 195.104C198.621 195.057 198.69 194.933 198.798 194.839C199.062 194.611 199.716 194.402 201.113 193.967C202.071 193.669 203.56 193.286 204.493 193.001C206.45 192.406 207.269 191.812 207.692 191.624C208.088 191.448 208.176 191 208.254 190.86C208.58 190.278 206.587 190.999 205.746 191.124C204.614 191.291 203.593 191.84 202.812 192.122C202.309 192.303 201.813 192.372 200.521 192.435C199.646 192.477 199.378 192.622 199.299 192.591C198.75 192.379 200.092 191.688 201.493 190.769C202.809 189.905 203.897 189.629 204.85 189.082C205.535 188.689 206.115 188.287 206.863 187.741C207.606 187.198 208.236 186.944 208.658 186.772C209.169 186.565 206.873 187.438 204.643 188.033C203.521 188.333 202.135 188.47 200.707 188.721C200.224 188.806 199.723 188.908 199.192 189.018C198.737 189.112 198.348 189.095 198.161 189.158C197.975 189.221 197.817 188.941 197.724 188.754C197.639 188.585 197.692 188.317 197.754 188.037C197.951 187.144 199.748 186.821 200.544 186.336C200.851 186.149 201.123 185.945 202.145 185.45C203.005 185.032 204.587 184.336 205.445 183.955C206.396 183.542 206.677 183.418 206.989 183.231C207.115 183.137 207.177 183.044 207.334 182.855" stroke="black" stroke-width="4" stroke-linecap="round"/>
<path d="M184.176 194.861C184.151 194.759 184.125 194.656 184.112 195.514C184.098 196.372 184.098 198.194 184.111 199.184C184.125 200.277 184.176 201.305 184.163 202.756C184.155 203.648 184.047 204.318 184.034 205.16C184.028 205.512 184.098 206.593 184.111 208.044C184.176 208.882 184.202 209.167 184.241 209.451C184.254 209.657 184.254 209.991 184.254 210.334" stroke="black" stroke-width="4" stroke-linecap="round"/>
<path d="M186.12 209.557C187.3 209.326 188.481 209.095 189.884 208.86C191.287 208.626 192.878 208.395 193.775 208.276C195.572 208.038 196.952 207.846 197.186 207.846C197.494 207.846 195.794 207.924 194.023 208.014C193.007 208.066 191.185 208.104 189.938 208.079C187.299 208.027 186.796 207.537 186.432 207.315C186.357 207.27 186.277 207.251 187.828 206.75C189.379 206.249 192.561 205.274 194.123 204.72C195.685 204.167 195.531 204.064 195.349 203.973C194.972 203.783 193.827 203.623 192.235 203.467C191.568 203.402 191.182 203.414 190.522 203.465C188.935 203.589 187.601 203.725 186.954 203.7C186.149 203.668 185.654 203.026 185.627 202.858C185.58 202.562 186.273 202.508 187.2 202.186C187.906 201.941 189.051 201.428 190.211 201.01C191.37 200.592 192.499 200.259 193.157 200.049C194.264 199.695 194.799 199.243 195.358 198.841C195.479 198.754 195.578 198.673 195.631 198.595C195.684 198.516 195.684 198.439 195.581 198.349C194.97 197.807 193.978 197.765 192.477 197.892C191.361 197.988 190.657 198.437 190.193 198.656C188.711 199.357 188.093 199.345 187.328 199.345C186.748 199.346 186.355 199.035 186.159 198.815C185.672 198.267 187.827 198.077 188.949 197.317C189.712 196.8 190.763 195.864 191.396 195.312C192.662 194.205 193.376 193.619 193.558 193.114C193.783 192.49 193.378 192.09 193.106 191.701C192.973 191.509 192.704 191.492 192.472 191.453C192.191 191.406 191.516 191.594 190.585 191.904C189.152 192.381 188.249 193.508 187.858 194.018C187.248 194.813 186.433 194.86 186.276 195.184C186.106 195.535 186.12 196.076 185.94 196.519C185.525 197.114 185.188 197.814 185.071 198.382C185.031 198.719 185.031 199.155 185.109 199.76" stroke="black" stroke-width="4" stroke-linecap="round"/>
<path d="M176.84 201.44C176.798 201.701 176.714 203.164 176.818 204.001C176.889 204.567 176.965 204.987 177.069 205.552C177.183 206.168 177.216 206.642 177.341 207.038C177.393 207.201 177.467 207.354 177.426 207.512C177.38 207.685 177.092 207.801 176.842 207.867C176.723 207.898 176.591 207.855 176.527 207.646C176.186 206.535 176.589 206.043 176.797 205.282C177.111 204.138 176.965 203.651 177.069 203.163C177.173 202.679 177.299 202.257 177.363 201.809C177.404 201.52 177.467 201.257 177.571 201.073C177.953 200.396 180.599 200.835 181.545 200.77C182.885 200.676 184.201 200.179 184.498 200.099C186.658 199.513 181.201 201.697 180.357 202.306C180.219 202.405 180.107 202.515 179.98 202.608C179.854 202.701 179.73 202.779 179.811 202.637C180.392 201.618 180.855 201.075 181.046 200.573C181.218 200.118 180.649 201.438 180.481 202.015C180.428 202.199 180.398 202.408 180.376 203.283C180.355 204.158 180.355 205.694 180.417 206.485C180.479 207.276 180.604 207.276 180.833 207.25C182.092 207.108 183.238 206.726 183.849 206.606C184.39 206.499 182.492 206.855 181.468 206.96C180.437 207.066 178.854 207.249 178.098 207.342C177.769 207.382 177.469 207.381 177.218 207.473C176.581 207.705 176.631 208.325 176.484 208.708C176.45 208.798 176.463 208.904 176.339 208.958C176.215 209.011 175.966 209.011 175.838 208.972C175.144 208.761 175.167 207.778 175.061 207.435C174.924 206.993 175.039 206.41 175.186 206.094C175.328 205.789 175.416 205.412 175.479 204.99C175.539 204.592 175.667 204.124 175.731 203.244C175.751 203.045 175.793 202.914 175.814 202.535C175.835 202.156 175.835 201.531 175.835 200.887" stroke="black" stroke-width="4" stroke-linecap="round"/>
<path d="M182.679 198.256C182.444 198.021 182.158 197.9 181.732 197.971C181.091 198.077 180.002 198.798 178.815 199.558C178.264 199.91 178.118 200.085 178.047 200.121C177.696 200.297 178.899 199.422 179.563 199.019C180.479 198.463 181.416 197.854 182.022 197.558C182.526 197.31 183.08 197.117 183.437 197.069C183.537 197.055 183.464 197.209 182.911 197.751C182.357 198.294 181.322 199.258 180.413 200.273C179.503 201.287 178.751 202.322 178.245 203.125C177.428 204.425 177.262 205.356 177.286 205.914C177.296 206.143 177.357 206.26 177.428 206.356C177.754 206.795 178.495 206.856 179.113 206.857C179.754 206.857 180.253 206.548 180.93 206.536C181.614 206.523 182.297 207.164 182.678 207.437C182.854 207.564 183.058 207.663 183.212 207.829C183.368 207.996 183.32 208.304 183.285 208.565C183.211 209.113 181.879 209.68 180.841 210.004C180.434 210.13 180.043 210.134 179.569 210.147C179.352 210.152 178.811 210.017 177.722 209.91C176.264 209.767 175.268 209.897 174.949 209.921C174.559 209.95 173.447 209.897 172.01 209.944C171.302 209.968 170.192 210.016 168.685 210.004C167.616 209.996 167.096 209.873 166.681 209.803C165.733 209.641 164.578 209.778 163.334 209.826C162.754 209.848 162.44 210.063 162.142 210.158C161.741 210.287 161.299 210.277 160.99 210.254C160.254 210.2 162.507 209.139 163.969 208.466C165.136 207.929 167.219 207.111 168.321 206.64C169.422 206.168 169.493 206.098 170.164 205.697C170.835 205.296 172.105 204.567 172.877 204.132C173.878 203.569 174.221 203.436 174.41 203.4C174.597 203.365 173.827 204.305 172.238 205.907C170.486 207.672 170.041 207.687 169.864 207.841C169.709 207.925 170.577 207.737 172.214 207.417C172.911 207.308 173.334 207.308 173.841 207.379" stroke="black" stroke-width="4" stroke-linecap="round"/>
<path d="M204.668 208.602C204.737 208.74 204.805 208.877 205.838 210.392C206.87 211.907 208.864 214.795 209.943 216.403C211.166 218.225 211.3 218.809 211.404 219.364C211.482 219.775 211.371 220.371 211.232 221.047C211.178 221.315 211.094 221.415 210.99 221.107C210.651 220.105 210.331 218.577 209.794 217.242C209.391 216.239 209.044 215.792 209.026 215.55C209.004 215.235 209.008 214.787 209.525 213.596C209.931 212.662 210.798 211.134 211.429 209.684C213.238 205.529 213.002 204.957 212.968 204.904C212.935 204.853 212.865 205.16 212.744 206.092C212.622 207.023 212.45 208.673 212.207 210.108C211.964 211.542 211.654 212.711 211.254 213.915C209.843 217.768 209.773 218.29 209.807 218.498C209.842 218.603 209.91 218.706 210.085 219.021" stroke="black" stroke-width="4" stroke-linecap="round"/>
<path d="M196.437 189.121C194.168 189.464 192.312 189.813 191.184 190.108C190.744 190.231 190.572 190.3 190.432 190.387C190.291 190.474 190.188 190.577 190.082 190.683" stroke="black" stroke-width="4" stroke-linecap="round"/>
</svg>
