<svg width="427" height="442" viewBox="0 0 427 442" fill="none" xmlns="http://www.w3.org/2000/svg">
<path d="M323.026 144.168H112.107C97.173 144.168 85.0664 158.159 85.0664 175.418V237.918C85.0664 255.177 97.173 269.168 112.107 269.168H323.026C337.96 269.168 350.066 255.177 350.066 237.918V175.418C350.066 158.159 337.96 144.168 323.026 144.168Z" stroke="black" stroke-width="10" stroke-linecap="round" stroke-linejoin="round"/>
<rect x="100" y="157" width="47" height="100" rx="20" fill="black"/>
<path d="M351 177V177C358.732 177 365 183.268 365 191V225C365 232.732 358.732 239 351 239V239V177Z" fill="black"/>
<path d="M237.954 188.49L235.498 191.034L239.034 191.031L293.127 190.995L136.9 289.363L213.422 213.958L216.031 211.387L212.368 211.389L158.049 211.43L300.653 123.523L237.954 188.49Z" fill="white" stroke="black" stroke-width="3"/>
<path d="M191.5 256.5H171.5" stroke="black"/>
<path d="M244.5 183C245.284 174.183 244.076 169.836 238 163.5" stroke="black"/>
<path d="M244.5 191V223" stroke="black"/>
<path d="M247.582 206.111C247.327 205.969 247.167 205.854 247.117 205.761C246.983 205.512 247.095 205.026 247.224 204.432C247.282 203.994 247.296 203.751 247.324 203.665C247.339 203.622 247.353 203.579 247.367 203.535" stroke="black" stroke-width="2" stroke-linecap="round"/>
<path d="M248.226 194.521C248.17 194.564 247.97 194.508 247.755 194.436C247.544 194.365 247.411 194.35 247.333 194.328C247.154 194.28 247.139 194.007 247.046 193.899C246.873 193.699 247.124 194.562 247.196 194.821C247.21 194.864 247.224 194.907 247.232 194.985C247.239 195.064 247.239 195.177 247.239 195.294" stroke="black" stroke-width="5" stroke-linecap="round"/>
<path d="M248.526 198.084C248.866 198.027 249.206 197.971 250.961 197.552C252.715 197.133 255.874 196.354 257.771 195.932C259.667 195.509 260.205 195.467 260.582 195.452C260.958 195.437 261.156 195.451 261.485 195.522C261.814 195.593 262.267 195.721 262.685 195.864C263.48 196.138 263.907 196.338 264.064 196.388C264.553 196.544 264.865 196.582 265.286 196.617C265.993 196.677 266.253 196.582 266.361 196.575C266.384 196.573 266.341 196.553 265.802 196.525C265.263 196.496 264.229 196.454 262.775 196.503C261.322 196.552 259.481 196.693 258.489 196.759C257.498 196.825 257.413 196.811 257.348 196.797C257.283 196.782 257.241 196.768 257.283 196.74C257.325 196.711 257.452 196.668 258.828 196.597C260.204 196.526 262.824 196.426 264.514 196.425C266.204 196.423 266.884 196.523 267.277 196.595C267.76 196.684 267.899 196.768 267.963 196.803C267.984 196.814 267.929 196.853 267.865 196.889C267.8 196.925 267.715 196.967 264.966 197.903C262.217 198.838 256.806 200.666 253.678 201.77C250.551 202.874 249.871 203.2 249.492 203.389C249.114 203.578 249.057 203.62 249.07 203.642C249.084 203.664 249.169 203.664 250.905 203.069C252.642 202.474 256.027 201.285 258.125 200.495C260.223 199.705 260.931 199.35 261.431 199.111C262.193 198.746 262.59 198.614 262.783 198.571C262.862 198.553 262.905 198.556 262.899 198.599C262.892 198.641 262.836 198.726 261.737 199.634C260.638 200.542 258.499 202.27 257.355 203.224C256.097 204.273 256.01 204.536 255.967 204.708C255.939 204.82 255.966 204.909 256.009 204.994C256.032 205.041 256.08 205.08 256.159 205.102C256.345 205.154 256.538 205.095 257.332 204.635C258.062 204.212 259.43 203.366 260.598 202.73C261.766 202.095 262.687 201.684 263.268 201.458C264.044 201.156 264.365 201.175 264.408 201.238C264.451 201.301 264.197 201.43 262.537 202.395C260.877 203.36 257.733 205.159 256.084 206.107C254.436 207.055 254.38 207.097 255.625 206.56C256.871 206.022 259.421 204.903 261.152 204.227C262.883 203.552 263.719 203.354 264.22 203.251C264.722 203.149 264.863 203.149 264.887 203.199C265.183 203.827 263.594 204.179 263.308 204.421C263.077 204.617 262.722 205.035 262.266 205.606C261.592 206.449 261.348 206.639 261.168 206.854C260.938 207.13 260.718 207.284 260.525 207.412C260.193 207.634 259.817 207.884 259.559 208.056C259.433 208.14 259.245 208.313 258.86 208.549C257.878 209.149 257.471 209.343 257.177 209.523C256.728 209.796 256.141 210.272 255.767 210.546C255.373 210.835 255.095 211.161 254.909 211.354C254.68 211.592 254.437 211.804 254.129 212.055C253.89 212.249 253.564 212.435 253.363 212.563C253.081 212.744 252.82 213.006 252.598 213.143C252.366 213.285 252.09 213.422 251.889 213.579C251.635 213.779 251.389 214.137 251.096 214.451C250.878 214.686 250.659 214.952 250.145 215.466C249.933 215.679 249.729 215.783 249.557 215.89C249.472 215.926 249.385 215.969 249.3 216.026C249.257 216.055 249.214 216.083 249.127 216.112" stroke="black" stroke-width="5" stroke-linecap="round"/>
<path d="M262.047 208.515C262.061 208.43 262.488 207.945 263.224 207.274C263.555 206.971 264.054 206.436 264.374 206.124C265.062 205.45 265.552 205.025 265.852 204.746C266.271 204.356 266.439 204.18 266.682 203.994C266.834 203.877 266.954 203.765 267.26 203.552C267.969 203.057 268.471 202.634 268.642 202.521C268.879 202.363 269.185 202.064 269.493 201.763C269.664 201.596 270.184 201.093 270.935 200.336C271.522 199.743 271.862 199.687 272.055 199.587C272.107 199.56 272.162 199.53 272.737 199.338C273.311 199.146 274.402 198.792 274.992 198.596C275.642 198.379 275.896 198.285 276.26 198.171C276.962 197.951 277.513 197.37 277.728 197.183C277.962 196.98 278.271 196.783 278.786 196.525C279.067 196.384 279.287 196.353 279.524 196.267C279.813 196.162 280.117 196.025 280.461 195.888C280.78 195.762 280.976 195.667 281.155 195.559C281.353 195.44 281.577 195.437 281.756 195.337C281.963 195.222 282.135 195.165 282.392 195.087C282.69 194.996 283.007 194.922 283.208 194.858C283.395 194.798 283.58 194.623 283.773 194.479C283.964 194.337 284.152 194.25 284.331 194.164C284.58 194.044 284.796 193.907 285.004 193.835C285.182 193.773 285.354 193.72 285.526 193.656C285.709 193.587 285.869 193.506 286.084 193.363C286.306 193.215 286.499 193.091 286.614 193.012C286.706 192.949 286.315 193.019 286.143 193.033C285.913 193.052 285.232 193.119 284.345 193.148C283.667 193.169 283.154 193.219 282.817 193.241C282.652 193.251 282.126 193.277 281.397 193.284C280.79 193.29 280.478 193.348 280.198 193.37C279.943 193.389 279.323 193.533 278.397 193.584C278.145 193.598 277.902 193.62 277.609 193.627C277.358 193.633 276.704 193.663 275.846 193.656C275.441 193.652 275.212 193.62 274.969 193.627C274.81 193.632 274.512 193.705 273.552 193.763C272.834 193.806 271.643 193.763 271.009 193.749C270.175 193.73 269.86 193.677 268.905 193.67C268.559 193.667 267.947 193.706 267.147 193.72C266.593 193.73 266.313 193.82 265.477 193.828C264.867 193.833 264.296 193.82 263.745 193.842C263.494 193.852 262.84 193.878 261.953 193.856C261.204 193.838 260.904 193.592 260.568 193.47C260.465 193.433 260.333 193.448 260.289 193.477C260.244 193.505 260.287 193.562 260.401 193.626C260.515 193.691 260.699 193.762 260.992 193.834C261.285 193.905 261.682 193.976 263.274 194.098C264.867 194.219 267.643 194.389 269.413 194.548C271.183 194.706 271.863 194.848 272.731 194.942C273.598 195.036 274.632 195.079 275.207 195.115C275.869 195.156 275.997 195.208 276.047 195.251C276.08 195.279 276.027 195.378 275.991 195.436C275.93 195.535 275.586 195.679 275.001 195.929C274.701 196.057 274.387 196.165 273.504 196.407C272.621 196.65 271.176 197.018 270.064 197.378C268.951 197.737 268.215 198.077 267.679 198.344C266.821 198.773 266.455 199.028 266.291 199.128C265.766 199.448 265.07 199.656 264.603 200.05C264.231 200.364 264.137 200.915 263.908 201.359C263.866 201.442 263.808 201.432 263.765 201.39C263.656 201.282 263.48 200.976 263.031 200.513C262.757 200.229 262.313 199.922 262.017 199.676C261.551 199.29 261.191 198.817 260.727 198.062C260.454 197.617 260.193 196.995 259.976 196.582C259.43 195.542 258.858 195.209 258.579 195.073C258.33 194.951 258.185 194.709 257.963 194.13C257.917 194.01 257.927 193.964 257.905 193.942C257.858 193.894 257.67 193.949 257.413 193.999C257.159 194.048 256.43 194.049 255.359 194.021C254.14 193.989 253.78 193.778 253.499 193.742C253.248 193.709 252.991 193.677 252.57 193.656C252.433 193.635 252.333 193.606 252.084 193.584C251.892 193.577 251.566 193.577 251.23 193.577" stroke="black" stroke-width="5" stroke-linecap="round"/>
<path d="M247.067 195.036C247.067 195.522 247.096 195.722 247.117 195.93C247.139 196.139 247.21 196.395 247.275 196.581C247.336 196.758 247.353 197.024 247.41 197.232C247.471 197.453 247.582 197.824 247.668 198.155C247.741 198.434 247.739 198.87 247.79 199.106C247.806 199.183 247.797 199.298 247.797 199.151C247.797 198.071 247.726 197.785 247.704 197.662C247.67 197.47 247.64 198.083 247.618 198.255C247.596 198.433 247.511 198.598 247.454 198.77C247.425 198.856 247.397 198.956 247.375 199.063C247.365 199.113 247.368 199.156 247.403 199.065C247.648 198.432 247.625 198.114 247.604 197.978C247.58 197.826 247.283 198.098 247.111 198.205C247.07 198.231 247.025 198.241 246.989 198.291C246.827 198.515 246.967 198.812 247.06 199.071C247.136 199.282 247.181 199.457 247.232 199.806C247.363 200.721 247.282 201.242 247.246 201.738C247.217 202.146 247.139 202.574 247.103 202.969C247.078 203.238 247.024 203.434 246.982 203.699C246.896 204.228 246.967 205.065 246.967 205.7C246.968 206.342 246.867 206.711 246.846 206.926C246.812 207.254 246.781 207.769 246.774 208.213C246.77 208.434 246.853 208.77 246.81 209.029C246.778 209.221 246.724 209.444 246.688 209.644C246.666 209.771 246.667 209.902 246.638 210.03C246.604 210.186 246.595 210.912 246.588 211.899C246.582 212.789 246.581 213.793 246.602 214.001C246.609 214.051 246.623 214.094 246.631 214.151C246.638 214.209 246.638 214.279 246.638 214.352" stroke="black" stroke-width="5" stroke-linecap="round"/>
<path d="M249.9 200.445C249.886 200.899 249.886 201.874 249.907 202.403C249.926 202.863 249.972 203.176 250.15 203.926C250.291 204.521 250.315 204.779 250.337 205.058C250.356 205.31 250.401 205.737 250.422 206.053C250.451 206.468 250.487 206.754 250.487 207.011C250.488 207.735 250.202 208.212 249.937 208.627C249.639 209.096 249.558 209.343 249.464 209.594C249.251 210.166 249.329 211.174 249.335 211.376C249.338 211.496 249.797 210.979 250.262 210.521C250.441 210.344 250.514 210.29 251.138 209.694C251.763 209.098 252.938 207.965 253.629 207.325C254.652 206.376 254.879 206.369 255.022 206.276C255.086 206.234 255.108 206.169 255.108 206.105C255.111 205.715 254.453 205.24 253.88 204.875C253.21 204.446 252.608 204.609 252.098 204.644C251.99 204.652 251.891 204.652 251.861 204.659C251.831 204.666 251.874 204.68 251.918 204.694" stroke="black" stroke-width="5" stroke-linecap="round"/>
<path d="M248.32 216.949C248.298 216.949 248.236 216.954 248.199 216.959C248.134 216.967 248.103 216.966 248.083 216.956C248.055 216.942 248.037 216.941 248.016 216.934C247.988 216.924 247.942 216.9 247.919 216.887C247.902 216.877 247.887 216.863 247.871 216.851C247.854 216.837 247.827 216.818 247.804 216.804C247.784 216.792 247.77 216.783 247.743 216.776C247.701 216.766 247.681 216.759 247.663 216.754C247.645 216.748 247.624 216.741 247.604 216.736C247.576 216.73 247.563 216.714 247.547 216.7C247.529 216.684 247.494 216.668 247.472 216.655C247.45 216.642 247.435 216.628 247.42 216.62C247.409 216.615 247.427 216.648 247.43 216.67C247.437 216.71 247.426 216.789 247.429 216.831C247.431 216.854 247.434 216.883 247.437 216.916C247.445 217.005 247.441 217.036 247.445 217.066C247.447 217.092 247.449 217.183 247.446 217.239C247.444 217.267 247.436 217.295 247.424 217.325C247.408 217.365 247.388 217.396 247.382 217.413C247.364 217.467 247.341 217.536 247.336 217.555C247.331 217.57 247.308 217.619 247.29 217.658C247.278 217.684 247.267 217.708 247.256 217.738C247.236 217.792 247.214 217.833 247.201 217.859C247.171 217.928 247.165 217.949 247.154 217.98C247.152 217.989 247.152 217.999 247.152 218.008" stroke="black" stroke-width="5" stroke-linecap="round"/>
<path d="M247.234 218.496C247.227 218.495 247.206 218.495 247.184 218.505C247.164 218.512 247.147 218.518 247.134 218.525C247.126 218.53 247.116 218.536 247.098 218.543" stroke="black" stroke-width="5" stroke-linecap="round"/>
<path d="M290.689 131.04C290.713 131.04 290.736 131.04 290.725 131.075C290.636 131.349 290.263 131.491 290.036 131.74C289.821 131.977 289.621 132.204 289.335 132.394C289.049 132.585 288.718 132.775 288.349 132.953C288.047 133.099 287.766 133.345 287.469 133.618C287.121 133.937 286.886 134.224 286.696 134.593C286.534 134.907 286.222 135.175 285.959 135.461C285.64 135.808 285.27 136.008 284.984 136.174C284.688 136.347 284.414 136.555 284.105 136.78C283.663 137.103 283.44 137.505 283.071 137.814C282.767 138.07 282.489 138.313 282.191 138.481C281.797 138.702 281.255 139.168 280.729 139.585C280.417 139.833 280.135 140.025 279.849 140.181C279.564 140.336 279.279 140.43 278.994 140.537C278.678 140.655 278.376 140.858 278.066 140.953C277.771 141.044 277.308 141.309 276.925 141.523C276.776 141.607 276.663 141.737 276.58 141.88C276.54 141.949 276.52 142.022 276.591 142.047C277.11 142.229 277.659 141.787 277.993 141.726C278.137 141.7 278.279 141.643 278.362 141.655C278.704 141.702 277.853 142.236 277.567 142.391C277.271 142.552 276.997 142.807 276.723 143.033C276.435 143.271 276.259 143.662 275.998 143.877C275.711 144.113 275.287 144.588 274.928 144.887C274.637 145.131 274.311 145.374 273.741 145.801C272.892 146.438 272.693 146.872 272.444 147.157C272.204 147.432 271.886 147.822 271.506 148.167C270.826 148.784 269.895 149.695 269.07 150.602C267.886 151.905 267.393 152.268 266.941 152.661C266.414 153.118 265.919 153.811 265.55 154.337C265.265 154.741 264.825 155.335 264.563 155.645C264.258 156.005 263.827 156.239 263.529 156.441C263.22 156.651 263.018 157.071 262.78 157.392C262.447 157.84 262.328 158.141 262.102 158.485C261.905 158.787 261.71 159.115 261.389 159.602C261.314 159.717 261.235 159.781 261.246 159.782C261.371 159.795 261.989 158.934 262.927 157.734C263.825 156.586 264.228 156.36 264.632 156.075C265.03 155.793 265.369 155.315 265.796 154.981C266.249 154.628 266.557 154.363 266.95 154.078C267.338 153.795 267.58 153.744 267.652 153.673C267.889 153.438 266.751 154.004 265.591 154.679C265.023 155.009 264.222 155.657 263.55 156.243C262.879 156.829 262.385 157.37 262.001 157.896C261.289 158.87 260.903 159.708 260.57 160.195C260.191 160.751 259.927 161.065 259.642 161.433C259.265 161.92 258.953 162.23 258.277 163.07C257.589 163.926 256.792 164.843 256.044 165.448C255.359 166.003 255.007 166.365 254.318 167.256C253.871 167.834 253.532 168.387 253.14 168.756C252.87 169.01 252.558 169.267 252.307 169.552C252.035 169.862 251.796 170.194 251.547 170.539C251.336 170.83 251.154 171.121 251.094 171.407C251.033 171.698 250.916 171.977 250.798 172.274C250.642 172.664 250.37 172.904 250.156 173.201C249.885 173.578 249.61 173.784 249.289 174.14C248.865 174.61 248.73 174.901 248.575 175.198C248.365 175.601 247.969 175.71 247.814 175.971C247.648 176.25 247.517 176.541 247.279 176.827C247.224 176.893 247.208 176.969 247.172 176.959C247.044 176.92 247.041 176.521 247.064 176.2C247.071 176.111 247.135 176.185 247.159 176.268C247.256 176.6 246.994 176.898 246.91 177.089C246.777 177.394 247.016 176.426 247.052 175.998C247.087 175.591 247.159 175.118 247.243 174.762C247.406 174.064 247.444 173.526 247.516 173.192C247.578 172.904 247.35 172.622 247.184 172.336C246.995 172.011 246.733 171.694 246.519 171.397C246.455 171.308 246.353 171.219 246.328 171.241C245.969 171.559 247.014 172.543 247.325 173.106C247.372 173.191 247.42 173.261 247.409 173.309C247.385 173.415 247.208 173.475 247.101 173.547C246.815 173.739 246.78 172.907 246.744 172.503C246.715 172.183 246.566 171.908 246.459 171.623C246.337 171.299 246.209 170.887 246.173 170.553C246.141 170.257 245.995 169.983 245.9 169.697C245.805 169.411 245.663 169.127 245.236 168.664C244.973 168.379 244.831 168.057 244.676 167.771C244.515 167.476 244.355 167.201 244.2 166.916C244.051 166.639 243.88 166.345 243.572 165.954C242.869 165.06 242.549 164.895 242.287 164.598C241.859 164.134 241.622 163.849 241.348 163.623C241.288 163.563 241.241 163.492 241.192 163.348" stroke="black" stroke-width="5" stroke-linecap="round"/>
<path d="M242.69 162.065C243.185 161.899 244.187 161.661 244.685 161.436C245.541 161.049 246.634 160.379 247.229 160.069C247.683 159.832 248.061 159.641 248.715 159.356C249.242 159.125 249.701 158.762 250.047 158.582C250.205 158.5 250.463 158.476 250.712 158.321C250.88 158.217 251.952 157.672 253.521 156.793C254.668 156.15 255.477 155.506 255.895 155.219C256.343 154.911 257.47 154.153 258.705 153.275C259.519 152.696 260.277 151.965 261.145 151.335C261.871 150.808 262.563 150.322 262.814 150.012C263.094 149.666 263.679 149.064 264.157 148.646C264.543 148.307 264.87 148.016 265.392 147.695C265.706 147.502 266.011 147.35 266.368 147.088C266.736 146.818 267.056 146.565 267.449 146.316C267.984 146.019 268.531 145.638 268.933 145.342C269.171 145.141 269.477 144.835 269.792 144.52" stroke="black" stroke-width="5" stroke-linecap="round"/>
<path d="M272.502 142.808C272.62 142.737 272.737 142.667 272.833 142.607C272.929 142.547 273 142.5 273.144 142.38" stroke="black" stroke-width="5" stroke-linecap="round"/>
<path d="M246.542 164.561C246.589 164.514 246.895 164.231 247.664 163.65C249.451 162.302 249.986 162.304 250.439 162.018C250.745 161.824 251.105 161.685 251.39 161.554C251.54 161.485 251.723 161.305 252.195 160.997C253.071 160.427 254.169 159.999 254.881 159.536C255.506 159.13 256.283 158.787 257.13 158.215C257.71 157.824 258.375 157.101 259.411 156.515C260.369 155.974 260.876 155.908 261.161 155.73C261.303 155.67 261.659 155.505 262.122 155.267C262.303 155.171 262.373 155.124 262.446 155.075" stroke="black" stroke-width="5" stroke-linecap="round"/>
<path d="M263.516 154.505L263.801 154.433" stroke="black" stroke-width="5" stroke-linecap="round"/>
<path d="M247.184 169.553C247.513 169.224 247.843 168.894 248.354 168.266C248.865 167.637 249.547 166.719 249.969 166.117C250.869 164.834 251.318 164.183 252.121 163.414C252.697 162.864 253.678 162.057 254.634 161.327C255.59 160.597 256.508 159.985 257.028 159.634C257.548 159.284 257.642 159.213 257.739 159.069" stroke="black" stroke-width="5" stroke-linecap="round"/>
<path d="M180.11 259.609C179.95 259.564 179.356 259.358 178.688 259.236C178.411 259.186 178.251 259.161 177.782 259.075C177.215 258.972 177.045 259.092 176.907 259.121C176.748 259.154 176.563 259.196 176.312 259.224C175.558 259.31 175.301 259.173 175.025 259.201C174.609 259.244 174.313 259.242 174.141 259.224C173.809 259.191 173.395 259.173 172.673 259.156C172.453 259.15 172.338 259.127 172.263 259.144C172.213 259.155 172.303 259.264 172.292 259.333C172.248 259.6 171.776 259.745 171.409 260.198C171.139 260.532 171.006 260.78 170.869 261.007C170.751 261.205 170.506 261.554 170.258 261.849C170.01 262.144 169.76 262.371 169.403 262.727C169.047 263.083 168.593 263.56 168.33 263.829C167.919 264.249 167.643 264.407 167.327 264.591C167.138 264.701 167.034 264.844 166.994 264.913C166.974 264.946 166.965 264.981 167.01 264.976C167.165 264.958 167.445 264.844 168.164 264.651C168.705 264.505 169.587 264.207 170.078 264.055C170.634 263.883 170.832 263.834 171.198 263.663C172.225 263.182 172.348 263.019 172.555 262.927C172.705 262.86 172.899 262.824 173.255 262.624C173.5 262.485 173.703 262.41 173.858 262.353C174.123 262.255 174.687 261.942 175.012 261.75C175.139 261.676 175.253 261.561 175.419 261.458C175.573 261.378 175.735 261.286 175.924 261.171C176.044 261.102 176.215 261.011 176.459 260.883" stroke="black" stroke-width="5" stroke-linecap="round"/>
<path d="M182.59 259.127C182.499 259.184 182.247 259.298 182.074 259.368C181.817 259.471 181.385 259.38 180.961 259.362C180.833 259.357 180.754 259.333 180.702 259.322C180.586 259.297 180.982 259.185 181.183 259.133C181.378 259.082 181.522 259.07 181.774 259.052C181.993 259.037 182.245 259.001 182.388 258.949C182.56 258.887 182.693 258.829 182.831 258.805C182.983 258.78 183.106 258.713 183.25 258.685C183.414 258.652 183.565 258.645 183.646 258.662C183.874 258.71 183.279 258.84 183.142 258.863C182.989 258.888 182.866 258.977 182.728 259.023C182.59 259.069 182.453 259.115 182.315 259.161C182.177 259.207 182.04 259.253 181.896 259.299C181.721 259.355 181.557 259.413 181.414 259.477C181.247 259.55 181.087 259.643 180.84 259.775C180.62 259.893 180.455 259.976 179.946 260.199C179.769 260.277 179.563 260.354 179.157 260.486C178.75 260.617 178.148 260.799 177.633 261.007C176.685 261.388 176.23 261.698 176.116 261.755C175.893 261.867 175.544 262.076 175.072 262.272C174.625 262.457 174.428 262.639 173.908 262.954C173.36 263.285 172.89 263.466 172.695 263.603C172.591 263.672 172.478 263.741 172.379 263.799C172.281 263.856 172.202 263.902 172.12 263.949" stroke="black" stroke-width="5" stroke-linecap="round"/>
<path d="M167.091 269.184C167.159 269.116 167.558 268.739 168.166 268.2C168.49 267.913 168.675 267.887 168.744 267.835C168.78 267.808 168.812 267.772 168.767 267.732C168.392 267.395 167.952 267.29 167.901 267.153C167.804 266.894 168.054 266.443 168.57 265.656C168.715 265.435 168.756 265.327 168.739 265.264C168.71 265.158 168.163 265.291 167.355 265.531C166.951 265.651 166.582 265.839 165.991 266.251C165.4 266.663 164.604 267.311 164.03 267.809C163.455 268.308 163.125 268.638 162.774 268.944C162.422 269.25 162.058 269.523 161.712 269.754C160.718 270.418 160.582 270.412 160.547 270.412C160.451 270.413 160.718 270.104 161.112 269.641C161.39 269.315 161.881 268.849 162.303 268.489C162.725 268.13 163.077 267.903 163.446 267.706C164.174 267.318 164.679 267.129 164.868 267.032C165.017 266.955 165.139 266.922 165.196 266.905C165.209 266.901 165.186 266.944 164.543 267.405C163.901 267.866 162.639 268.753 161.972 269.226C161.266 269.728 161.145 269.837 160.984 269.952C160.728 270.136 160.365 270.365 159.953 270.622C159.291 271.036 158.815 271.456 158.625 271.622C158.453 271.774 158.286 271.881 157.708 272.482C157.362 272.841 157.127 272.972 156.623 273.447C156.387 273.669 156.174 273.822 156.036 273.902C155.892 273.985 155.76 274.108 155.622 274.183C155.46 274.272 155.29 274.453 155.14 274.556C154.946 274.691 154.75 274.935 154.584 275.141C154.255 275.55 153.901 275.726 153.694 275.905C153.445 276.12 153.132 276.381 152.616 276.885C152.305 277.189 152.178 277.335 151.897 277.467C151.727 277.546 151.593 277.645 151.455 277.719C151.326 277.789 151.146 278 150.944 278.133C150.762 278.253 150.491 278.334 150.353 278.414C150.209 278.497 150.1 278.62 149.974 278.73C149.905 278.792 149.847 278.862 149.796 278.93C149.767 278.965 149.733 278.999 149.629 279.103" stroke="black" stroke-width="5" stroke-linecap="round"/>
<path d="M232 191L231 230" stroke="black"/>
<path d="M241.033 202.256C241.013 202.256 240.993 202.256 240.953 203.089C240.912 203.922 240.852 205.588 240.831 206.577C240.805 207.826 240.911 208.296 241.052 208.641C241.115 208.793 241.234 208.864 241.326 208.906C241.487 208.978 241.782 208.847 242.306 208.484C243.151 207.9 243.628 207.245 243.86 206.932C244.182 206.499 244.459 205.768 244.682 204.908C244.789 204.496 244.784 204.109 244.744 203.501C244.704 202.893 244.604 202.07 244.492 201.415C244.3 200.291 244.035 199.602 243.853 199.247C243.781 199.108 243.711 199.073 243.62 199.093C242.9 199.246 242.616 200.791 242.404 201.832C242.165 203 242.209 203.715 242.25 203.837C242.27 203.898 242.29 203.958 242.361 203.889C242.597 203.657 242.897 202.81 243.331 201.506C243.564 200.81 243.746 200.021 243.89 198.925C244.033 197.829 244.114 196.444 244.135 195.671C244.156 194.897 244.116 194.776 244.045 194.815C243.974 194.853 243.874 195.054 243.662 196.01C243.449 196.967 243.128 198.673 242.963 199.653C242.797 200.632 242.797 200.833 242.898 200.635C242.998 200.437 243.199 199.835 243.362 199.234C243.526 198.632 243.647 198.05 243.719 197.459C243.953 195.539 243.589 194.959 243.406 194.653C243.369 194.59 243.325 194.532 243.465 194.451C243.894 194.202 244.317 194.126 244.439 194.025C244.582 193.906 244.622 193.6 244.582 193.256C244.553 193.003 244.319 192.909 244.177 192.838C243.578 192.538 242.616 192.807 242.019 192.848C241.432 192.888 240.996 192.989 240.457 193.02C240.262 193.031 239.66 193.071 238.819 193.081C237.913 193.092 236.98 193.051 236.514 192.96C235.498 192.759 235.155 192.808 234.8 192.716C234.121 192.54 233.857 192.605 233.553 192.534C233.473 192.515 233.391 192.523 233.339 192.553C233.288 192.584 233.268 192.644 233.268 192.715C233.266 193.016 233.409 193.252 233.44 193.849C233.469 194.408 233.531 195.138 233.561 195.997C233.587 196.698 233.572 197.51 233.531 197.724C233.303 198.926 233.43 195.077 233.41 195.34C233.364 195.939 233.247 196.334 233.136 196.77C233.031 197.183 232.964 197.59 232.933 198.602C232.918 199.115 232.842 199.396 232.832 199.841C232.824 200.17 232.963 200.651 233.064 201.099C233.227 201.81 233.085 202.923 233.075 203.996C233.07 204.51 233.186 204.951 233.237 205.436C233.373 206.749 233.146 207.121 233.116 207.425C233.099 207.589 233.065 208.292 233.085 209.335C233.097 209.96 233.186 210.645 233.176 211.416C233.167 212.13 233.106 212.738 233.075 213.622C233.047 214.426 233.065 215.952 233.055 216.768C233.041 217.848 232.964 218.333 232.933 219.022C232.902 219.711 232.842 220.726 232.771 221.121C232.607 222.03 232.862 222.429 232.922 223.255C233.039 224.84 232.963 225.918 233.004 226.039C233.102 226.333 233.105 226.708 233.116 227.305C233.122 227.645 233.025 227.924 232.943 228.108C232.835 228.354 232.963 227.44 233.014 226.995C233.026 226.892 233.044 226.832 233.075 226.761C233.14 226.607 233.829 226.246 234.872 225.8C235.405 225.572 235.86 225.413 236.477 225.1C237.578 224.54 237.909 224.277 238.375 224.023C239.301 223.519 240.361 223.406 240.748 223.212C241.231 222.97 242.063 222.575 242.522 222.37C242.737 222.275 242.979 222.127 243.482 221.725C245.339 220.24 245.615 219.958 245.656 219.856C245.735 219.663 245.111 219.835 244.596 220.057C243.752 220.42 243.123 220.868 242.529 221.252C242.102 221.526 241.392 221.916 240.85 222.183C239.526 222.834 238.988 222.876 238.561 223.099C238.287 223.243 237.993 223.343 237.649 223.485C237.156 223.688 236.858 223.849 236.301 224.133C235.822 224.377 235.499 224.316 235.195 224.407C234.833 224.516 234.506 224.963 234.211 225.228C234.15 225.283 234.06 225.289 234.099 225.26C234.28 225.121 234.524 225.006 234.967 224.664C235.342 224.374 236.051 223.881 237.016 223.261C237.98 222.641 239.184 221.918 239.995 221.395C240.806 220.873 241.188 220.571 241.716 220.256C242.874 219.563 243.689 219.208 243.921 219.056C244.45 218.71 245.025 218.599 245.402 218.397C245.474 218.357 245.533 218.335 245.494 218.335C244.912 218.331 244.199 218.72 243.077 219.204C242.017 219.661 241.379 220.099 241.177 220.169C240.53 220.395 240.021 220.646 239.515 220.818C239 220.993 238.643 221.172 238.006 221.446C236.69 222.01 236.392 222.227 236.067 222.4C235.606 222.644 235.116 223.076 234.658 223.635C234.384 223.97 234.06 224.052 233.735 224.114C233.69 224.122 233.713 224.034 234.316 223.451C234.918 222.868 236.103 221.764 236.883 221.075C237.664 220.385 238.005 220.144 238.382 219.91C239.147 219.433 239.654 219.167 240.046 218.905C241.563 217.893 242.086 217.708 242.381 217.565C242.724 217.399 243.16 217.221 243.466 217.048C243.58 216.983 243.709 216.956 243.841 216.916C243.99 216.87 243.633 216.995 242.282 217.6C241.349 218.017 240.007 218.846 239.263 219.28C238.434 219.763 238.176 219.936 237.832 220.138C237.518 220.323 237.062 220.604 236.475 220.878C235.474 221.344 234.367 221.962 233.978 222.147C233.92 222.174 233.857 222.187 233.796 222.187C233.735 222.188 233.674 222.168 233.703 222.087C233.733 222.006 233.853 221.866 234.808 221.231C235.764 220.597 237.55 219.473 238.812 218.623C240.073 217.773 240.756 217.231 241.65 216.63C242.543 216.03 243.627 215.388 244.256 215.027C245.215 214.476 245.412 214.402 245.403 214.431C245.378 214.513 245.133 214.602 244.177 215.065C243.22 215.529 241.514 216.332 240.193 217.036C238.873 217.741 237.989 218.323 237.354 218.713C236.375 219.314 235.663 219.571 235.117 219.733C234.534 219.906 233.84 220.158 233.421 220.342C233.254 220.415 233.126 220.565 233.045 220.686C233.009 220.74 233.044 220.807 233.095 220.839C233.38 221.014 233.854 220.547 235.181 219.44C236.333 218.481 238.436 216.688 239.753 215.617C241.069 214.546 241.531 214.245 242.02 213.98C242.989 213.453 243.688 213.166 243.73 213.094C244.013 212.618 242.476 213.669 241.819 214.164C241.099 214.707 240.589 215.231 240.175 215.494C239.762 215.756 239.111 215.941 238.172 216.184C236.986 216.49 235.947 216.691 235.33 216.974C234.154 217.514 233.492 218.698 233.379 219.094C233.354 219.183 233.369 219.266 233.399 219.328C233.429 219.389 233.489 219.429 234.404 218.567C235.318 217.704 237.084 215.938 238.085 214.957C239.248 213.818 239.552 213.632 239.885 213.46C240.114 213.342 240.479 213.188 241.106 212.955C242.609 212.397 243.588 212.07 243.739 211.979C244.125 211.748 244.317 211.664 244.308 211.644C244.28 211.581 244.038 211.664 243.212 211.975C242.386 212.287 240.941 212.889 239.996 213.33C239.05 213.77 238.649 214.031 238.332 214.266C238.014 214.501 237.794 214.702 237.349 215.056C236.254 215.928 235.438 216.549 235.226 216.772C234.911 217.101 234.425 217.138 233.908 217.129C233.829 217.127 233.875 217.039 234.207 216.656C234.539 216.274 235.161 215.571 235.943 214.768C236.725 213.964 237.649 213.081 238.596 212.285C239.544 211.489 240.487 210.806 241.114 210.394C242.479 209.497 243.342 209.294 243.648 209.069C243.766 208.983 243.892 208.907 243.943 208.876C244.04 208.818 242.867 209.53 241.418 210.391C240.42 210.984 239.661 211.739 239.128 212.271C238.852 212.548 238.541 212.576 238.398 212.597C238.369 212.601 238.457 212.497 239.1 212.215C239.744 211.933 240.948 211.451 241.769 211.162C242.974 210.739 243.546 210.711 243.689 210.721C243.83 210.731 243.325 210.772 242.993 210.802C242.316 210.863 241.363 211.075 240.301 211.368C239.192 211.674 238.48 212.109 238.146 212.342C237.634 212.699 237.384 212.86 237.243 212.881C237.162 212.892 237.061 212.861 236.999 212.79C236.938 212.72 236.918 212.599 236.937 212.457C236.981 212.147 237.421 211.587 238.52 210.457C239.253 209.703 240.442 208.684 241.142 208.016C242.078 207.123 242.35 206.718 242.573 206.455C243.173 205.746 243.303 204.936 243.325 203.721C243.344 202.649 242.799 201.713 242.495 201.154C242.407 200.992 242.19 201.886 242.108 203.429C242.056 204.43 242.108 205.876 242.168 206.842C242.229 207.807 242.329 208.249 242.431 208.366C242.533 208.483 242.633 208.262 242.725 207.787C242.817 207.312 242.897 206.589 242.979 205.183C243.06 203.777 243.14 201.71 243.212 200.514C243.299 199.054 243.506 198.548 243.568 197.922C243.606 197.537 243.348 197.015 243.205 196.254C242.879 194.524 242.838 193.416 242.788 193.335C242.732 193.245 242.575 193.818 242.313 195.338C242.107 196.531 241.93 198.605 241.786 200.533C241.642 202.462 241.582 204.188 241.511 205.057C241.44 205.926 241.359 205.886 241.278 205.735C241.068 205.345 240.973 204.572 240.882 203.752C240.844 203.414 240.851 203.233 240.66 201.875C240.469 200.517 240.088 197.988 239.892 196.595C239.695 195.202 239.695 195.021 239.695 194.978C239.695 194.935 239.695 195.036 239.514 197.988C239.334 200.94 238.972 206.741 238.796 209.891C238.62 213.04 238.64 213.361 238.711 213.426C238.883 213.585 239.207 212.501 239.551 211.107C239.749 210.304 239.854 209.272 239.816 207.711C239.778 206.15 239.558 204.082 239.454 202.846C239.322 201.273 239.451 200.556 239.583 200.039C239.625 199.873 239.734 199.943 239.785 200.687C239.837 201.431 239.857 202.856 240.068 204.774C240.279 206.693 240.681 209.061 240.938 210.402C241.195 211.743 241.295 211.984 241.387 212.168C241.479 212.352 241.559 212.473 241.66 212.324C241.762 212.175 241.883 211.754 241.935 211.125C241.987 210.496 241.966 209.673 241.745 207.212C241.524 204.751 241.103 200.676 240.875 198.546C240.648 196.417 240.628 196.357 240.618 196.366C240.55 196.425 240.628 196.659 240.768 198.206C240.898 199.632 241.11 202.363 241.284 204.01C241.458 205.658 241.578 206.139 241.65 206.327C241.723 206.515 241.743 206.395 241.632 204.376C241.522 202.356 241.282 198.442 241.188 196.546C241.094 194.65 241.154 194.891 241.215 195.286C241.483 197.019 241.621 197.612 241.622 197.694C241.623 197.919 241.117 196.968 240.662 195.968C240.088 194.707 239.858 193.762 239.716 193.448C239.588 193.165 239.453 192.849 239.23 192.586C238.978 192.287 238.561 192.362 238.267 192.462C238.152 192.501 238.055 192.683 237.973 192.866C237.891 193.048 237.851 193.269 237.91 194.587C237.97 195.905 238.131 198.314 238.133 200.79C238.135 203.265 237.975 205.734 237.922 207.237C237.87 208.74 237.93 209.201 237.991 209.55C238.226 210.889 239.066 211.927 239.077 212.332C239.09 212.84 238.642 213.547 238.439 214.126C238.399 214.239 238.378 214.299 238.337 214.32C238.297 214.341 238.236 214.321 238.175 214.27C238.038 214.157 237.932 213.856 237.84 212.869C237.768 212.086 237.809 210.718 237.769 209.754C237.729 208.79 237.649 208.268 237.668 206.203C237.687 204.137 237.807 200.544 237.909 198.392C238.011 196.24 238.092 195.638 238.133 195.287C238.215 194.595 238.235 193.584 238.185 192.86C238.171 192.667 238.154 192.504 238.104 192.352C238.079 192.278 238.033 192.22 237.962 192.23C237.892 192.239 237.791 192.319 237.348 192.782C236.905 193.245 236.122 194.088 235.679 194.592C235.13 195.217 234.992 195.643 234.86 196.119C234.758 196.487 234.768 197.001 234.939 198.451C235.07 199.566 235.45 201.427 235.636 202.55C235.822 203.672 235.842 203.993 235.782 204.721C235.722 205.448 235.582 206.572 235.469 207.322C235.357 208.072 235.277 208.413 235.235 209.02C235.194 209.628 235.194 210.491 235.234 211.217C235.274 211.942 235.354 212.504 235.396 213.015C235.519 214.537 235.236 215.148 235.013 215.726C234.929 215.941 234.91 216.002 234.9 215.591C234.89 215.181 234.89 214.298 234.97 213.542C235.116 212.17 235.376 211.362 235.396 210.887C235.408 210.613 235.457 210.272 235.537 209.815C235.618 209.358 235.739 208.796 235.801 207.794C235.863 206.792 235.863 205.367 235.903 203.639C235.943 201.911 236.023 199.924 236.175 198.318C236.327 196.712 236.548 195.548 236.652 194.898C236.771 194.152 236.674 193.984 236.593 193.852C236.503 193.706 236.411 193.538 236.26 193.416C236.181 193.354 236.048 193.375 235.936 193.415C235.424 193.598 234.813 194.585 234.353 195.128C234.111 195.414 233.958 196.228 233.896 197.482C233.831 198.821 234.22 199.679 234.321 200.003C234.42 200.317 234.403 200.994 234.393 201.824C234.387 202.295 234.302 202.599 234.191 203.113C233.999 204.005 233.836 204.788 233.684 205.183C233.569 205.484 233.41 205.862 233.259 206.469C233.07 207.223 233.165 208.212 233.347 209.123C233.459 209.68 233.672 210.502 233.874 211.535C234.091 212.639 234.402 213.931 234.524 214.41C234.548 214.501 234.565 214.582 234.605 214.614C234.685 214.676 235.19 213.721 235.848 212.322C236.144 211.695 236.207 211.262 236.258 209.832C236.298 208.704 236.249 206.756 236.248 205.552C236.248 203.947 236.269 203.393 236.118 202.718C235.998 202.182 235.746 201.261 235.582 200.875C235.418 200.49 235.337 200.671 235.246 201.075C235.154 201.479 235.054 202.101 234.992 203.034C234.93 203.967 234.91 205.192 234.98 206.696C235.05 208.2 235.211 209.946 235.304 210.886C235.396 211.826 235.416 211.906 235.447 211.987C235.477 212.069 235.517 212.149 235.568 212.09C235.619 212.031 235.679 211.83 235.77 211.195C235.862 210.56 235.982 209.496 236.024 208.466C236.066 207.436 236.026 206.473 235.965 205.886C235.885 205.11 235.661 204.832 235.489 204.67C235.337 204.527 235.073 204.588 234.831 204.648C234.306 204.779 233.94 205.598 233.714 205.986C233.485 206.38 233.268 206.635 233.227 206.766C233.133 207.07 233.59 207.384 233.774 207.709C234.042 208.185 234.179 208.459 234.352 208.713C234.385 208.763 234.463 208.724 235.497 207.118C236.532 205.512 238.539 202.32 239.895 200.315C241.25 198.309 241.892 197.587 242.384 197.094C243.157 196.319 243.567 196.052 243.628 195.881C243.719 195.624 243.629 195.383 243.558 195.231C243.321 194.722 242.317 194.431 241.795 194.187C241.307 193.959 241.217 193.639 240.963 193.568C240.817 193.527 240.348 193.698 239.619 194.001C238.942 194.283 238.34 194.671 237.642 194.914C236.366 195.359 235.946 195.099 235.368 194.897C234.981 194.761 234.689 194.612 234.374 194.511C233.941 194.372 233.674 194.247 233.269 194.247C233.077 194.246 232.944 194.408 232.842 194.53C232.795 194.586 232.781 194.651 232.781 194.732C232.779 195.295 233.388 195.868 233.49 196.121C233.617 196.437 233.592 196.78 233.622 197.347C233.636 197.592 233.673 197.915 233.723 198.55C233.804 199.575 233.977 200.328 233.987 200.622C233.998 200.936 234.038 201.261 234.048 201.574C234.058 201.869 234.099 202.153 234.189 203.751C234.272 205.209 234.46 207.979 234.533 209.627C234.626 211.714 234.485 212.271 234.434 212.484C234.323 212.948 234.645 213.948 234.948 215.364C235.215 216.605 235.194 217.36 235.184 217.633C235.153 218.473 235.093 219.53 235.002 219.894C234.815 220.641 234.667 221.293 234.475 221.901C234.296 222.469 234.1 223.075 233.937 223.645C233.896 224.214 233.856 224.477 233.846 224.72C233.835 224.823 233.815 224.883 233.795 224.945" stroke="black" stroke-width="2" stroke-linecap="round"/>
<path d="M230.753 168.679C230.934 168.537 231.339 168.294 232.697 167.821C233.886 167.407 236.122 166.726 237.32 166.354C238.776 165.902 239.105 165.84 239.541 165.648C239.833 165.519 239.998 165.253 240.252 164.979C240.305 164.922 240.263 164.848 240.202 164.807C239.852 164.569 239.191 164.603 238.683 164.553C238.117 164.496 237.751 164.643 237.425 164.724C236.931 164.848 236.19 164.906 235.632 165.28C234.832 165.817 234.647 166.103 234.404 166.245C234.15 166.392 233.998 166.609 233.846 166.843C233.672 167.11 233.269 167.278 232.944 167.522C232.644 167.747 232.457 168.008 232.274 168.302C232.091 168.596 231.929 168.921 231.899 169.417C231.854 170.134 231.888 171.232 231.969 171.597C232.063 172.02 232.131 172.388 232.273 172.692C232.415 172.997 232.496 173.239 232.577 173.483C232.679 173.787 232.8 174.192 232.942 174.597C233.116 175.095 233.125 175.71 233.176 176.23C233.198 176.461 233.206 176.647 233.237 177.24C233.315 178.774 233.227 179.89 233.196 180.183C233.097 181.143 233.287 181.391 233.318 181.786C233.33 181.94 233.369 182.381 233.359 182.989C233.343 183.922 233.268 185.303 233.186 185.689C233.114 186.031 233.165 186.439 233.136 186.894C233.08 187.736 233.186 188.222 233.126 188.619C233.085 188.883 232.963 189.116 232.923 189.501C232.863 190.063 232.659 190.534 232.588 190.869C232.485 191.357 232.517 191.75 232.637 191.995C233.08 192.895 233.712 190.883 234.036 190.507C234.371 190.12 234.645 189.747 234.888 189.453C235.185 189.095 235.415 188.734 235.922 188.186C236.381 187.689 236.956 187.09 237.321 186.847C237.834 186.505 238.192 185.835 238.679 185.448C239.201 185.034 239.651 184.679 240.209 184.273C240.722 183.9 241.173 183.441 241.607 183.128C242.454 182.518 242.754 182.204 243.16 181.829C243.661 181.367 244.155 180.846 244.771 180.198C245.086 179.868 245.31 179.528 245.393 179.304C245.575 178.806 244.198 179.95 242.873 180.881C242.051 181.459 241.135 182.12 240.791 182.465C240.23 183.027 239.657 183.661 239.159 184.107C238.726 184.496 238.237 185.058 237.821 185.647C237.144 186.604 236.371 187.068 236.026 187.291C235.591 187.573 235.175 187.919 234.88 188.163C234.576 188.415 234.283 188.81 233.978 189.046C233.873 189.126 233.734 189.157 233.653 189.178C233.262 189.277 233.633 188.206 233.551 187.962C233.511 187.841 233.53 187.678 233.621 187.516C233.796 187.205 234.721 186.748 235.724 186.05C236.178 185.734 236.465 185.413 236.821 184.996C237.604 184.08 238.132 183.38 238.375 183.127C238.857 182.626 239.45 182.041 240.289 181.243C240.817 180.741 241.314 180.482 241.802 180.136C242.269 179.804 242.816 179.386 243.16 179.092C243.512 178.791 244.793 177.872 245.574 177.256C245.698 177.158 245.757 177.013 245.788 176.911C245.8 176.871 245.718 176.85 245.627 176.86C245.193 176.906 244.686 177.193 243.25 177.961C242.12 178.565 241.44 179.181 241.127 179.433C240.443 179.984 240.203 180.315 239.888 180.641C239.545 180.995 238.967 181.633 238.631 182.069C238.273 182.536 237.651 183.01 237.252 183.368C236.626 183.931 235.803 184.656 235.125 185.131C234.626 185.48 234.364 185.709 234.069 185.853C233.184 186.285 234.18 184.314 234.199 183.897C234.214 183.585 234.726 183.622 235.219 183.381C236.407 182.8 237.22 182.244 237.743 181.781C238.192 181.385 238.989 180.636 239.563 180.133C240.138 179.63 240.459 179.389 240.815 179.064C241.58 178.367 242.246 177.664 242.783 177.208C243.415 176.671 243.729 176.466 244.113 176.091C244.726 175.494 244.965 175.209 245.239 174.844C245.477 174.527 245.776 174.377 245.91 174.285C246.083 174.166 245.334 174.335 244.437 174.838C243.718 175.241 242.557 176.103 241.716 176.698C240.407 177.624 239.838 178.106 239.656 178.308C239.329 178.671 238.844 179.119 238.298 179.626C238.011 179.892 237.709 180.113 237.345 180.326C236.498 180.82 236.148 181.107 235.843 181.269C235.507 181.449 235.135 181.634 234.809 181.847C234.369 182.135 233.918 182.465 233.613 182.719C233.552 182.77 233.491 182.81 233.46 182.58C233.363 181.854 233.49 181.271 233.631 181.149C234.112 180.737 235.41 180.341 236.255 179.953C236.691 179.754 237.138 179.446 238.044 178.802C238.735 178.312 239.794 177.355 240.373 176.849C241.187 176.138 241.559 175.615 241.843 175.27C242.255 174.768 242.613 174.438 243.573 173.65C244.391 172.979 244.681 172.331 244.885 172.015C244.997 171.841 245.149 171.721 245.129 171.67C245.108 171.613 244.909 171.759 244.144 172.312C243.379 172.865 242.014 173.889 241.22 174.517C240.217 175.31 239.819 175.753 239.374 176.117C238.753 176.625 238.358 176.788 237.508 177.102C236.933 177.315 236.19 177.821 235.55 178.399C235.234 178.685 234.911 178.796 234.465 179.069C234.345 179.143 234.223 179.201 234.14 179.192C233.99 179.175 233.977 178.437 234.057 177.515C234.087 177.167 234.298 177.095 234.411 177.043C234.768 176.881 235.353 176.81 235.699 176.648C235.879 176.563 236.446 176.204 237.326 175.567C238.132 174.984 238.518 174.58 238.629 174.448C238.777 174.274 239.406 173.732 240.347 172.852C241.123 172.125 241.56 171.781 241.791 171.54C242.288 171.02 242.856 170.626 243.31 170.364C244.373 169.749 245.063 169.311 245.463 168.812C245.528 168.73 245.554 168.64 245.524 168.568C245.495 168.497 245.394 168.436 245.282 168.415C244.849 168.334 244.362 168.637 243.108 169.323C241.877 169.997 241.176 170.665 240.984 170.756C240.618 170.929 240.305 171.413 239.859 171.83C239.222 172.423 238.824 172.915 238.641 173.087C238.581 173.145 238.659 173.199 238.751 173.2C238.966 173.201 239.287 173.079 239.782 172.948C240.472 172.765 241.111 172.511 241.878 172.3C244.037 171.704 244.317 171.517 244.328 171.517C244.553 171.511 243.852 171.639 243.64 171.589C243.404 171.532 243.203 171.396 243.031 171.134C242.512 170.342 242.675 169.454 242.635 168.704C242.622 168.452 242.515 168.475 242.393 168.566C242.09 168.792 241.885 169.063 241.613 169.375C241.062 170.009 240.588 170.442 240.265 170.784C239.57 171.522 238.947 172.326 238.471 172.731C238.13 173.021 237.509 173.339 236.81 173.815C236.148 174.266 235.642 174.738 235.074 175.216C234.914 175.351 234.809 175.491 234.657 175.552C234.523 175.606 234.504 174.447 234.524 172.886C234.537 171.913 234.119 171.66 233.977 171.407C233.818 171.121 233.794 169.705 233.734 168.852C233.729 168.778 233.693 168.7 233.653 168.709C233.508 168.741 233.45 169.203 233.389 169.94C233.301 171.015 233.389 171.82 233.449 172.204C233.654 173.503 234.139 174.658 234.26 175.054C234.311 175.22 234.301 175.369 234.362 175.49C234.394 175.556 234.462 175.612 234.503 175.553C234.852 175.049 234.625 174.218 234.656 173.608C234.67 173.323 234.847 172.517 235.08 171.223C235.414 169.368 235.315 168.985 235.406 168.669C235.422 168.612 235.536 168.658 235.598 168.708C235.726 168.814 235.841 169.263 236.094 170.443C236.272 171.276 236.446 172.606 236.58 173.378C236.796 174.63 236.897 174.903 236.907 175.054C236.911 175.126 236.937 175.186 236.947 175.056C236.957 174.927 236.957 174.606 236.877 174.029C236.797 173.452 236.636 172.629 236.503 172.034C236.293 171.093 236.147 170.566 236.116 170.192C236.041 169.272 236.268 168.497 236.369 168.294C236.389 168.253 236.47 168.293 236.521 168.384C236.652 168.616 236.774 169.623 237.016 171.051C237.294 172.686 237.929 173.239 238.123 173.493C238.236 173.643 238.336 173.788 238.427 173.788C238.505 173.789 238.538 173.549 238.589 172.934C238.64 172.319 238.68 171.275 238.681 170.496C238.682 169.235 238.52 168.358 238.388 167.73C238.315 167.383 238.276 167.219 238.245 167.188C237.678 166.61 238.882 169.365 239.065 169.863C239.353 170.643 239.471 170.968 239.593 171.313C239.629 171.416 239.694 171.535 239.755 171.587C239.816 171.639 239.876 171.619 239.987 171.368C240.099 171.117 240.259 170.635 240.352 169.855C240.445 169.075 240.465 168.011 240.455 167.432C240.445 166.854 240.405 166.794 240.354 166.733C240.249 166.606 240.101 166.529 239.889 166.499C239.58 166.455 239.21 166.529 238.705 166.68C237.081 167.167 236.471 167.725 236.45 167.746C235.771 168.405 238.861 167.806 239.358 167.837C239.551 167.867 239.734 167.908 240.017 167.938C240.199 167.949 240.46 167.949 240.85 168.009" stroke="black" stroke-width="2" stroke-linecap="round"/>
<path d="M220.5 171.5C224.446 197.217 225 206.5 220.5 238" stroke="black"/>
<path d="M232.28 176.929C231.642 174.539 231.321 172.405 231.083 171.682C230.785 170.779 229.355 173.617 228.42 176.756C227.703 179.164 229.448 181.602 231.023 183.769C231.293 184.14 231.478 184.278 231.585 184.175C231.946 183.83 231.748 181.371 231.589 178.203C231.505 176.545 230.686 173.967 229.941 170.559C229.67 169.313 229.617 169.049 229.59 169.071C229.563 169.094 229.563 169.41 229.563 169.736" stroke="black" stroke-width="2" stroke-linecap="round"/>
<path d="M230.515 174.029C230.671 173.824 231.128 173.343 231.798 172.637C232.401 172.002 232.656 171.562 232.686 171.435C232.699 171.381 232.633 171.344 232.59 171.325C232.516 171.293 232.367 171.319 232.138 171.355C231.881 171.395 231.341 171.536 230.701 171.675C230.173 171.789 229.729 172.02 229.361 172.141C228.836 172.313 228.532 172.335 228.024 172.486C227.834 172.543 227.672 172.541 227.545 172.511C227.448 172.488 227.754 172.096 228.159 171.679C228.351 171.48 228.757 171.344 229.343 171.169C229.698 171.063 229.861 171.053 229.897 171.047C230.046 171.022 229.368 171.004 229.07 171.095C228.881 171.152 228.605 171.27 228.201 171.415C227.679 171.602 227.129 171.717 226.665 171.91C225.817 172.262 225.592 172.492 225.193 172.655C225.109 172.69 225.071 172.686 225.041 172.704C224.906 172.783 224.877 172.976 224.666 173.187C224.35 173.504 223.778 173.713 223.553 173.841C223.48 173.883 223.389 173.896 223.293 173.938C223.179 173.987 223.123 174.113 223.087 174.222C222.998 174.486 223.243 174.814 223.412 175.201C223.521 175.448 223.473 175.973 223.516 176.411C223.523 176.486 223.558 176.544 223.72 177.048C223.882 177.552 224.181 178.498 224.419 179.698C224.657 180.898 224.825 182.324 224.923 183.094C225.031 183.938 225.118 184.297 225.191 184.769C225.219 184.952 225.216 185.025 225.198 185.05C225.18 185.075 225.144 185.051 225.101 184.985C225.059 184.918 225.011 184.811 224.908 184.468C224.806 184.125 224.65 183.55 224.552 183.116C224.393 182.412 224.381 181.943 224.375 181.653C224.37 181.42 224.321 181.18 224.272 180.98C224.215 180.746 224.199 180.455 224.163 180.164C224.138 179.96 224.043 179.537 223.91 179.041C223.779 178.555 223.848 178.204 223.873 177.747C223.893 177.363 223.897 176.668 223.921 176.334C223.945 176 223.981 176.048 224.071 176.199C224.529 176.961 224.875 177.27 225.172 177.362C225.373 177.424 225.65 177.296 225.909 177.157C226.118 177.046 226.435 176.753 226.84 176.367C227.012 176.202 227.089 176.076 227.258 175.871C227.427 175.665 227.679 175.378 228.054 174.888C228.429 174.399 228.92 173.716 229.143 173.382C229.366 173.049 229.306 173.085 228.886 173.654C228.466 174.223 227.687 175.325 227.155 176.168C226.622 177.012 226.358 177.563 226.21 177.894C226.063 178.226 226.039 178.322 226.038 178.395C226.038 178.469 226.062 178.516 226.122 178.517C226.285 178.519 226.629 178.157 227.106 177.62C227.341 177.355 227.523 177.071 227.711 176.762C227.9 176.452 228.079 176.117 228.25 175.734C228.602 174.944 228.748 174.441 228.766 174.374C228.769 174.365 228.773 174.415 228.683 175.308C228.593 176.201 228.413 177.938 228.321 178.862C228.222 179.846 228.216 179.981 228.234 180.071C228.241 180.106 228.336 180.055 228.57 179.791C228.805 179.527 229.2 179.035 229.667 178.387C230.134 177.739 230.661 176.948 230.478 177.302C230.294 177.655 229.384 179.176 228.765 180.331C228.146 181.486 227.847 182.229 227.693 182.635C227.539 183.042 227.539 183.09 227.568 183.114C227.598 183.139 227.658 183.139 227.737 183.091C227.816 183.043 227.912 182.947 228.242 182.539C228.573 182.13 229.136 181.411 229.57 180.903C230.261 180.094 230.635 179.812 230.744 179.752C230.805 179.718 230.876 179.668 230.931 179.715C230.986 179.762 231.022 179.906 231.023 180.028C231.023 180.15 230.987 180.246 230.633 180.954C230.279 181.662 229.609 182.979 229.257 183.718C228.894 184.576 228.893 184.783 228.93 184.94C228.954 185.014 228.99 185.073 229.027 185.135" stroke="black" stroke-width="4" stroke-linecap="round"/>
<path d="M225.397 205.751C225.385 205.655 225.361 205.365 225.403 205.003C225.424 204.823 225.445 204.511 225.529 203.967C225.613 203.423 225.757 202.657 225.861 202.022C225.965 201.388 226.025 200.909 226.056 200.602C226.125 199.91 226.159 199.473 226.25 198.972C226.283 198.786 226.304 198.386 226.353 197.734C226.401 197.085 226.281 196.474 226.166 195.997C226.087 195.669 226.002 195.504 225.942 195.324C225.824 194.97 225.676 194.562 225.597 194.247C225.567 194.125 225.555 194.077 225.506 194.262C225.458 194.447 225.375 194.866 225.325 195.285C225.276 195.705 225.264 196.112 225.294 196.705C225.324 197.298 225.396 198.065 225.534 198.873C225.673 199.681 225.877 200.508 226.096 201.34C226.314 202.173 226.542 202.988 226.683 203.641C226.824 204.294 226.872 204.761 226.891 205.313C226.909 205.865 226.897 206.488 226.873 206.917C226.821 207.847 226.752 208.156 226.74 208.466C226.74 208.471 226.74 208.342 226.68 207.819C226.62 207.296 226.5 206.374 226.451 205.678C226.401 204.981 226.425 204.538 226.461 204.202C226.498 203.866 226.545 203.65 226.624 203.162C226.703 202.673 226.81 201.919 226.848 200.853C226.885 199.788 226.85 198.434 226.837 197.755C226.825 197.076 226.836 197.112 226.831 197.951C226.825 198.79 226.801 200.431 226.962 202.342C227.124 204.253 227.471 206.385 227.824 207.974C228.176 209.564 228.523 210.546 228.756 211.142C228.989 211.738 229.097 211.917 229.17 212.034C229.244 212.15 229.28 212.198 229.316 212.091C229.353 211.984 229.389 211.72 229.335 209.441C229.282 207.161 229.138 202.873 228.986 200.335C228.835 197.797 228.679 197.138 228.587 196.769C228.494 196.399 228.47 196.339 228.482 196.362C228.494 196.386 228.542 196.493 228.818 198.579C229.094 200.665 229.597 204.725 229.886 206.936C230.175 209.148 230.235 209.387 230.314 209.631C230.393 209.874 230.488 210.113 230.574 210.231C230.659 210.348 230.731 210.336 230.828 210.222C230.925 210.108 231.045 209.893 231.148 209.62C231.252 209.347 231.336 209.024 231.451 207.174C231.566 205.325 231.709 201.959 231.754 200.04C231.798 198.12 231.738 197.749 231.695 197.528C231.652 197.307 231.628 197.247 231.61 197.192C231.591 197.137 231.58 197.089 231.49 197.586C231.399 198.082 231.232 199.124 231.098 199.763C230.963 200.401 230.867 200.605 230.769 200.815" stroke="black" stroke-width="4" stroke-linecap="round"/>
<path d="M225.869 194.064C225.869 193.98 225.893 193.762 225.941 193.156C225.98 192.67 225.989 191.819 225.996 191.339C226.005 190.652 225.917 190.412 225.869 190.169C225.818 189.912 225.736 189.65 225.663 189.322C225.634 189.192 225.603 188.864 225.501 188.381C225.348 187.662 225.083 187.35 224.95 186.711C224.875 186.352 224.889 185.696 224.847 185.425C224.799 185.115 224.816 186.221 224.894 186.686C224.998 187.301 225.154 187.457 225.251 187.645C225.36 187.854 225.372 188.134 225.403 188.762C225.425 189.223 225.457 189.732 225.464 190.353C225.467 190.68 225.361 190.869 225.331 191.075C225.301 191.279 225.288 192.193 225.324 192.786C225.332 192.915 225.433 193.047 225.559 193.144C225.607 193.18 225.65 193.145 225.687 193.055C225.723 192.964 225.759 192.809 225.778 192.501C225.796 192.193 225.796 191.738 225.73 191.174C225.664 190.61 225.533 189.952 225.459 189.474C225.343 188.726 225.337 188.294 225.3 188.047C225.277 187.884 225.228 187.546 225.113 187.062C225.032 186.717 224.902 186.371 224.793 185.931C224.683 185.484 224.671 185.1 224.683 184.924C224.697 184.725 224.78 185.351 224.726 185.672C224.652 186.111 224.454 186.427 224.381 186.816C224.311 187.185 224.368 187.795 224.435 188.134C224.514 188.543 224.839 189.004 225.152 189.541C225.537 190.2 225.832 190.651 225.905 190.85C226.007 191.131 226.098 191.316 226.153 191.516C226.164 191.558 226.159 191.595 226.195 191.601C226.303 191.621 226.533 191.416 226.846 191.096C227.012 190.927 227.16 190.717 227.498 190.151C227.836 189.585 228.351 188.662 228.939 187.421C229.528 186.179 230.175 184.646 230.592 183.706C231.009 182.767 231.177 182.467 230.88 183.134C230.583 183.8 229.816 185.441 229.415 186.304C229.014 187.167 229.002 187.203 229.002 187.24C229.002 187.276 229.014 187.312 229.038 187.325C229.207 187.412 229.557 186.976 230.105 186.29C230.493 185.804 231.071 185.006 231.386 184.575C231.7 184.144 231.724 184.096 231.179 184.526C230.635 184.957 229.521 185.867 228.785 186.42C227.761 187.189 227.345 187.325 227.243 187.343C227.189 187.353 227.128 187.349 227.073 187.337C227.019 187.325 226.971 187.301 226.934 187.229C226.843 187.049 226.921 186.686 227.119 186.18C227.366 185.55 227.659 185.184 227.821 185.004C228.102 184.691 228.552 184.362 229.023 184.085C229.41 183.856 229.931 183.672 230.456 183.467C230.898 183.295 231.059 183.139 231.107 183.127C231.133 183.12 231.108 183.234 230.88 183.72C230.652 184.207 230.209 185.093 229.933 185.729C229.657 186.366 229.561 186.725 229.493 187.138C229.426 187.55 229.39 188.005 229.384 188.414C229.377 188.822 229.401 189.169 229.509 189.719C229.617 190.269 229.809 191.012 229.926 191.437C230.156 192.276 230.309 192.817 230.327 192.866C230.331 192.878 230.333 192.771 230.561 191.243C230.788 189.714 231.243 186.744 231.484 185.076C231.724 183.408 231.736 183.132 231.73 183.008C231.725 182.885 231.701 182.92 231.545 183.328C231.389 183.736 231.101 184.515 230.875 185.251C230.649 185.987 230.493 186.658 230.401 187.692C230.309 188.727 230.285 190.104 230.345 191.448C230.404 192.793 230.548 194.062 230.616 194.782C230.696 195.632 230.612 195.853 230.491 196.004C230.43 196.082 230.323 196.119 230.232 196.138C230.06 196.173 229.862 196.085 229.669 195.994C229.519 195.924 229.175 195.519 228.715 194.927C228.473 194.614 228.362 194.272 228.217 193.819C228.079 193.389 228.095 192.821 228.173 192.091C228.264 191.238 228.506 190.737 228.482 190.922C228.451 191.169 228.315 191.718 228.259 192.229C228.204 192.74 228.216 193.196 228.282 193.688C228.348 194.18 228.467 194.695 228.625 195.163C228.783 195.632 228.974 196.04 229.115 196.315C229.255 196.591 229.339 196.723 229.406 196.815C229.474 196.906 229.522 196.954 229.607 196.967" stroke="black" stroke-width="4" stroke-linecap="round"/>
<path d="M232.003 227.745C231.691 227.949 231.38 228.153 230.836 228.533C230.292 228.913 229.526 229.464 229.023 229.808C228.318 230.291 227.987 230.431 227.818 230.491C227.448 230.624 226.887 230.83 226.686 230.975C226.568 231.061 226.342 231.204 226.023 231.458C225.378 231.969 225.083 232.076 224.956 232.203C224.784 232.375 224.49 232.536 224.291 232.681C224.142 232.79 224.042 232.935 223.801 233.291C223.682 233.467 223.607 233.624 223.432 233.812C223.233 234.025 223.051 234.157 222.941 234.266C222.89 234.318 222.953 234.026 223.073 233.605C223.312 232.769 223.558 232.138 223.636 231.951C223.688 231.827 223.835 231.379 224.071 230.714C224.276 230.135 224.32 229.948 224.434 229.474C224.528 229.081 224.728 228.389 224.832 227.995C224.956 227.531 225.045 227.192 225.178 226.756C225.252 226.516 225.336 226.163 225.469 225.704C225.522 225.521 225.53 225.436 225.716 224.86C225.901 224.284 226.261 223.218 226.464 222.597C226.713 221.835 226.74 221.636 226.722 221.576C226.716 221.555 226.668 221.587 226.434 221.947C226.2 222.306 225.769 223.001 225.529 223.401C225.242 223.878 225.108 224.378 224.932 225.025C224.85 225.327 224.744 225.638 224.606 226.085C224.501 226.42 224.393 226.584 224.303 226.812C223.918 227.786 223.849 228.095 223.686 228.5C223.6 228.713 223.619 228.942 223.588 229.124C223.565 229.269 223.546 229.941 223.588 230.238C223.629 230.525 223.655 229.694 223.667 229.543C223.687 229.283 223.727 229.041 223.841 228.279C223.943 227.599 224.183 226.331 224.3 225.641C224.417 224.951 224.417 224.88 224.459 224.549C224.501 224.219 224.585 223.632 224.694 223.012C224.803 222.392 224.935 221.758 225.008 221.413C225.12 220.89 225.083 220.596 225.064 220.415C225.059 220.366 225.046 220.318 224.992 221.096C224.938 221.874 224.842 223.479 224.811 224.455C224.78 225.432 224.816 225.731 224.84 225.987C224.909 226.704 224.925 227.017 224.961 227.363C224.999 227.722 225.142 228.396 225.215 228.779C225.263 229.027 225.36 229.389 225.445 229.62C225.46 229.661 225.505 229.681 225.566 229.687C225.626 229.693 225.71 229.681 226.855 228.783C228 227.884 230.204 226.1 231.429 225.121C232.654 224.141 232.834 224.022 232.866 223.972C232.916 223.896 232.584 224.007 231.882 224.271C231.255 224.507 230.067 224.918 229.33 225.194C228.333 225.567 227.975 225.749 227.794 225.803C227.687 225.835 227.563 225.798 227.43 225.738C227.375 225.712 227.369 225.653 227.381 225.575C227.393 225.496 227.429 225.388 227.962 224.668C228.496 223.948 229.526 222.618 230.074 221.916C230.654 221.173 230.72 221.104 230.696 221.127C230.642 221.181 230.529 221.342 229.719 222.117C228.909 222.892 227.411 224.281 226.658 224.967C225.905 225.653 225.941 225.593 226.384 224.928C226.828 224.262 227.678 222.992 228.206 222.254C228.734 221.517 228.914 221.349 229.036 221.244C229.159 221.14 229.219 221.104 229.281 221.067" stroke="black" stroke-width="4" stroke-linecap="round"/>
<path d="M224.925 222.338C225.009 222.098 225.093 221.858 225.34 221.202C225.587 220.546 225.994 219.48 226.335 218.074C226.677 216.669 226.94 214.956 227.076 214.002C227.212 213.047 227.212 212.904 227.224 212.716C227.25 212.3 227.368 211.743 227.513 211.217C227.623 210.82 227.875 210.496 228.088 210.234C228.306 209.966 228.47 209.78 228.518 209.743C228.603 209.876 228.627 210.129 228.597 210.532C228.567 210.804 228.508 211.211 228.446 211.631" stroke="black" stroke-width="4" stroke-linecap="round"/>
<path d="M231.894 211.885C231.475 212.687 231.056 213.49 230.756 214.184C230.456 214.879 230.289 215.442 230.154 216.02C230.02 216.597 229.924 217.172 229.875 217.546C229.805 218.073 229.837 218.272 229.891 218.315C229.925 218.341 230.005 218.297 230.078 218.225C230.151 218.153 230.223 218.033 230.41 217.54C230.597 217.047 230.896 216.185 231.116 215.273C231.336 214.362 231.468 213.428 231.536 212.905C231.604 212.381 231.604 212.298 231.562 212.302C231.52 212.307 231.436 212.403 231.279 212.674C231.122 212.945 230.895 213.388 230.676 213.946C230.457 214.503 230.253 215.162 230.13 215.633C230.007 216.104 229.971 216.368 229.953 216.659C229.915 217.261 229.982 217.894 230.073 218.396C230.107 218.588 230.151 218.646 230.194 218.659C230.236 218.672 230.284 218.636 230.309 218.594C230.334 218.551 230.334 218.503 230.334 218.454" stroke="black" stroke-width="4" stroke-linecap="round"/>
<path d="M228.918 219.18C228.618 219.599 228.319 220.018 228.165 220.21C228.01 220.402 228.01 220.354 228.058 220.198C228.106 220.041 228.202 219.778 228.221 219.624C228.241 219.471 228.181 219.435 228 219.446C227.82 219.458 227.52 219.517 227.073 219.626C226.035 219.878 225.397 220.063 225.325 220.069C225.148 220.084 225.059 219.798 224.914 219.381C224.748 218.906 225.009 218.709 225.076 218.503C225.131 218.335 225.227 218.201 225.288 218.019C225.359 217.808 225.409 217.512 225.53 217.004C225.61 216.668 225.663 216.447 225.717 216.205C225.766 215.991 225.844 215.47 225.971 214.655C226.073 214.002 226.026 213.592 226.056 213.267C226.076 213.049 226.098 212.726 226.141 212.374C226.228 211.648 226.328 211.196 226.365 211.039C226.466 210.603 226.304 209.844 226.335 209.369C226.351 209.115 226.377 208.825 226.407 208.559C226.429 208.365 226.353 208.22 226.305 208.068C226.276 207.979 226.256 207.892 226.226 207.856C226.191 207.814 226.147 207.964 226.111 208.007C226.071 208.054 225.894 207.965 225.719 207.989C225.56 208.01 225.735 208.315 225.79 208.556C225.887 208.982 225.76 209.258 225.724 209.488C225.708 209.587 225.687 209.958 225.693 210.466C225.696 210.687 225.724 211.166 225.712 211.874C225.703 212.361 225.615 212.597 225.579 212.845C225.525 213.211 225.518 213.795 225.5 213.959C225.475 214.185 225.409 214.424 225.385 214.66C225.367 214.837 225.312 215.029 225.294 215.45C225.257 216.325 225.276 216.989 225.258 217.188C225.252 217.399 225.24 217.546 225.216 217.918C225.204 218.254 225.192 218.889 225.179 219.543" stroke="black" stroke-width="4" stroke-linecap="round"/>
<path d="M212.023 211.457C211.909 211.915 211.842 212.208 211.829 212.409C211.791 213.041 211.85 213.207 211.899 213.43C211.959 213.701 211.982 213.884 212.069 214.124C212.107 214.231 212.131 214.315 212.135 214.344C212.115 214.299 212.032 213.84 211.933 213.175C211.9 212.928 211.9 212.863 211.9 212.795" stroke="white" stroke-width="4" stroke-linecap="round"/>
<path d="M212.322 213C212.322 213.008 212.322 213.016 212.273 213.16C212.224 213.303 212.126 213.581 212.071 213.736C212.017 213.892 212.008 213.916 212 213.991" stroke="white" stroke-width="4" stroke-linecap="round"/>
<path d="M195.819 201.378C196.042 201.378 196.604 201.266 197.952 200.818C200.193 199.922 204.479 198.453 209.606 196.987C211.829 196.415 213.281 196.191 214.777 195.961" stroke="white" stroke-width="4" stroke-linecap="round"/>
<path d="M211.466 181.225C211.466 181.146 211.466 181.067 211.483 181.037C211.5 181.008 211.534 181.03 211.557 181.093C211.68 181.426 211.739 182.213 211.814 182.76C211.907 183.439 211.923 183.681 211.985 184.158C212.031 184.511 212.127 185.087 212.173 185.418C212.229 185.816 212.265 186.272 212.334 186.973C212.388 187.526 212.346 187.829 212.346 188.034C212.345 188.182 212.391 188.419 212.499 188.954C212.607 189.49 212.788 190.315 212.898 190.78C213.028 191.328 213.145 191.519 213.316 191.866C213.594 192.432 213.705 192.868 213.705 192.926C213.706 193.208 213.249 192.458 213.066 192.372C212.744 192.221 212.357 192.287 212.3 192.19C212.157 191.946 212.367 191.318 212.494 190.99C212.571 190.788 212.62 190.608 212.688 190.128C212.727 189.855 212.734 189.285 212.694 188.757C212.643 188.079 212.574 187.899 212.483 187.727C212.438 187.641 212.312 188.09 212.243 188.637C212.113 189.673 212.163 189.953 212.123 190.308C212.073 190.752 212.174 190.914 212.26 191.069C212.283 191.112 212.322 191.154 212.357 191.183C212.391 191.212 212.425 191.223 212.493 191.218C212.562 191.212 212.664 191.19 213.236 190.85C213.809 190.51 214.85 189.854 216.376 188.996C217.902 188.137 219.882 187.097 221.195 186.476C222.509 185.855 223.098 185.685 223.418 185.592C223.738 185.499 223.772 185.487 223.009 185.736C222.245 185.985 220.684 186.494 219.79 186.807C218.895 187.12 218.714 187.222 218.434 187.41C218.154 187.598 217.781 187.87 217.509 188.055C216.862 188.496 216.608 188.572 216.318 188.698C215.94 188.861 215.672 188.835 215.449 188.864C215.375 188.873 215.273 188.87 215.204 188.853C215.134 188.836 215.1 188.802 215.094 188.722C215.078 188.518 215.202 188.254 215.401 187.935C215.52 187.744 215.724 187.526 215.981 187.273C216.239 187.021 216.556 186.75 217.85 185.92C219.144 185.09 221.407 183.71 222.533 183.01C223.659 182.31 223.58 182.333 222.526 182.712C221.473 183.092 219.448 183.827 218.264 184.279C217.079 184.732 216.796 184.879 216.538 185.039C216.039 185.349 215.785 185.578 215.598 185.732C214.852 186.343 214.598 186.424 214.42 186.487C214.382 186.501 214.346 186.482 214.34 186.447C214.334 186.413 214.356 186.357 214.787 185.79C215.217 185.224 216.054 184.149 216.615 183.477C217.176 182.804 217.437 182.567 218.131 182.06C218.825 181.553 219.945 180.784 220.538 180.37C221.171 179.93 221.461 179.73 221.873 179.473C222.026 179.377 222.058 179.34 222.019 179.323C221.979 179.305 221.866 179.305 221.129 179.617C220.392 179.928 219.035 180.55 218.29 180.899C217.546 181.247 217.455 181.304 217.25 181.401C216.734 181.645 216.323 181.796 216.073 181.887C215.633 182.047 215.159 182.309 214.788 182.532C214.533 182.685 214.369 182.79 214.226 182.825C214.164 182.84 214.118 182.836 214.1 182.814C214.082 182.791 214.094 182.746 214.235 182.474C214.377 182.201 214.648 181.704 214.924 181.295C215.427 180.548 215.819 180.209 216.006 180.066C216.286 179.854 216.561 179.706 217.089 179.411C217.528 179.166 218.306 178.709 218.77 178.431C219.235 178.152 219.359 178.062 219.604 177.851C220.22 177.322 220.675 176.918 220.829 176.815C221.191 176.574 221.749 176.312 222.046 176.135C222.308 175.979 221.408 176.128 221.054 176.22C220.753 176.298 220.12 176.516 219.74 176.643C219.437 176.744 219.214 176.916 218.382 177.481C218.206 177.6 218.163 177.648 217.924 177.835C217.686 178.022 217.256 178.35 216.956 178.57C216.503 178.901 216.254 179.065 216.106 179.185C215.786 179.444 215.069 179.864 214.683 180.019C214.311 180.231 214.061 180.39 213.866 180.528C213.831 180.551 213.798 180.562 213.728 180.574" stroke="black" stroke-width="4" stroke-linecap="round"/>
<path d="M213.557 196.103C213.545 196.023 213.534 195.944 213.506 195.355C213.477 194.765 213.432 193.668 213.392 193.108C213.351 192.549 213.318 192.56 213.232 192.617C212.756 192.933 212.563 193.302 212.46 193.519C212.245 193.972 212.118 194.216 212.02 194.479C211.954 194.658 211.946 194.912 211.985 195.108C212.025 195.301 212.287 195.937 212.363 196.49C212.374 196.57 212.38 196.627 212.385 196.979C212.391 197.33 212.391 197.975 212.386 198.335C212.379 198.753 212.357 199.014 212.351 199.351C212.348 199.542 212.311 199.69 212.294 200.081C212.259 200.891 212.277 201.495 212.26 201.638C212.231 201.882 212.288 202.158 212.317 202.443C212.365 202.921 212.38 203.311 212.397 203.632C212.411 203.897 212.482 204.214 212.534 204.568C212.551 204.66 212.574 204.751 212.585 204.826C212.597 204.9 212.597 204.957 212.631 205.084" stroke="black" stroke-width="4" stroke-linecap="round"/>
<path d="M213.385 203.576C213.453 203.496 213.521 203.417 213.856 202.867C214.19 202.317 214.79 201.299 215.133 200.679C215.476 200.058 215.544 199.866 215.646 199.416C215.749 198.966 215.885 198.265 215.966 197.87C216.047 197.474 216.07 197.407 216.144 197.117C216.347 196.32 216.504 195.704 216.573 195.482C216.664 195.186 216.699 194.938 216.756 194.654C216.87 194.082 216.882 193.59 216.876 193.384C216.866 193.004 216.711 192.528 216.557 192.304C216.477 192.188 216.334 192.172 216.265 192.132C216.232 192.113 216.197 192.103 216.162 192.137C216.068 192.23 216.059 192.388 216.048 192.542C216.041 192.639 216.014 192.775 215.968 194.366C215.923 195.958 215.855 199.001 215.808 200.647C215.762 202.294 215.74 202.453 215.728 202.568C215.689 202.957 215.648 203.346 215.591 203.671C215.562 203.835 215.568 203.952 215.556 204.021C215.551 204.055 215.568 204.089 215.596 204.101C215.757 204.168 215.899 203.896 216.476 203.064C217.013 202.291 218.027 200.795 218.642 199.856C219.257 198.917 219.438 198.578 219.672 197.984C219.907 197.391 220.19 196.554 220.369 195.823C220.549 195.092 220.617 194.492 220.635 193.855C220.653 193.218 220.619 192.562 220.579 192.105C220.518 191.408 220.368 190.94 220.191 190.49C220.102 190.262 219.981 190.051 219.877 190.087C219.774 190.123 219.683 190.418 219.354 191.955C219.024 193.492 218.459 196.264 218.162 197.799C217.865 199.334 217.853 199.549 217.853 199.688C217.853 199.884 217.899 199.987 217.967 200.078C218.148 200.32 218.526 200.25 218.772 200.279C219.255 200.335 219.804 200.069 220.143 199.857C220.252 199.789 220.376 199.636 220.53 199.425C220.685 199.213 220.855 198.931 221.118 198.208C221.38 197.485 221.731 196.332 221.957 195.132C222.183 193.932 222.273 192.722 222.292 191.94C222.31 191.158 222.253 190.841 222.202 190.616C222.053 189.969 221.75 189.624 221.619 189.402C221.588 189.351 221.567 189.316 221.544 189.315C221.521 189.315 221.499 189.349 221.232 190.497C220.966 191.646 220.457 193.909 220.02 196.234C219.582 198.559 219.231 200.878 219.051 202.185C218.87 203.493 218.87 203.72 218.876 203.876C218.888 204.229 218.984 204.567 219.047 204.804C219.052 204.821 219.087 204.776 219.155 204.493C219.223 204.209 219.336 203.678 219.649 202.606C219.962 201.535 220.471 199.94 220.824 198.626C221.176 197.312 221.357 196.328 221.417 195.923C221.476 195.518 221.408 195.721 221.322 196.115C221.236 196.508 221.135 197.085 221.037 198.429C220.939 199.772 220.849 201.865 220.819 203.022C220.789 204.18 220.823 204.338 220.863 204.482C220.991 204.939 221.098 205.231 221.195 205.488C221.257 205.652 221.098 204.834 221.195 204.372C221.232 204.192 221.325 203.957 221.496 203.569C221.667 203.181 221.927 202.649 222.146 202.121C222.365 201.592 222.535 201.083 222.628 200.793C222.721 200.502 222.732 200.446 222.726 200.451C222.668 200.502 222.664 200.661 222.613 201.403C222.566 202.077 222.505 203.355 222.459 204.059C222.39 204.853 222.355 205.003 222.327 205.106C222.31 205.152 222.287 205.186 222.195 205.221" stroke="black" stroke-width="4" stroke-linecap="round"/>
<path d="M223.464 207.004C223.339 206.981 223.099 206.912 222.634 206.816C222.228 206.732 221.468 206.618 220.976 206.548C220.282 206.449 219.889 206.432 219.535 206.381C219.202 206.333 218.974 206.284 218.554 206.329C218.201 206.367 217.569 206.465 216.971 206.494C216.373 206.524 215.83 206.49 215.534 206.467C215.109 206.434 214.838 206.341 214.558 206.261C214.331 206.196 214.14 206.192 213.918 206.107C213.599 205.985 213.398 205.861 213.22 205.804C213.077 205.758 212.827 205.735 212.586 205.707C212.529 205.7 212.461 205.701 212.415 205.718C212.369 205.735 212.346 205.769 212.334 205.809C212.285 205.979 212.459 206.282 212.562 206.534C212.669 206.796 212.757 207.003 212.774 207.26C212.795 207.574 212.78 207.963 212.729 208.1C212.673 208.249 212.427 208.408 212.345 208.478C212.001 208.776 212.482 207.85 212.551 207.553C212.569 207.474 212.563 207.394 212.546 207.375C212.447 207.269 212.403 207.665 212.397 207.922C212.391 208.183 212.505 208.454 212.579 208.592C212.594 208.619 212.653 208.592 212.637 208.598C212.543 208.629 212.426 208.66 212.363 208.694C212.296 208.731 212.277 208.82 212.26 208.917C212.249 208.979 212.254 209.07 212.294 209.117C212.519 209.381 213.03 208.981 213.703 208.815C213.906 208.765 214.047 208.763 214.337 208.729C214.883 208.665 215.27 208.729 215.729 208.746C216.154 208.762 216.968 208.752 217.433 208.757C217.989 208.764 218.319 208.786 218.696 208.78C219.11 208.774 219.635 208.695 219.943 208.689C220.32 208.682 220.789 208.706 220.858 208.695C220.926 208.683 220.961 209.147 220.956 209.816C220.952 210.273 220.836 210.727 220.796 211.013C220.761 211.263 220.744 211.391 220.772 211.392C220.96 211.395 221.154 210.823 221.399 210.304C221.612 209.854 221.761 209.404 221.846 209.21C221.864 209.164 221.875 209.13 221.87 209.135C221.864 209.14 221.841 209.185 221.818 209.232" stroke="black" stroke-width="4" stroke-linecap="round"/>
<path d="M211.054 219.961C211.054 219.882 211.077 219.654 211.179 219.266C211.221 219.107 211.248 218.968 211.266 218.91C211.379 218.534 211.214 219.8 211.243 219.995C211.247 220.024 211.293 220.007 211.78 219.487C212.267 218.966 213.206 217.937 213.894 217.22C214.581 216.503 214.988 216.13 215.3 215.824C215.611 215.519 215.815 215.292 216.435 214.757C217.054 214.222 218.084 213.385 218.885 212.795C219.687 212.206 220.23 211.889 220.533 211.709C220.998 211.432 221.178 211.289 221.281 211.146C221.42 210.953 221.578 210.889 221.646 210.877C221.733 210.862 221.851 211.138 222.051 211.514C222.296 211.977 222.355 212.441 222.378 212.856C222.392 213.113 222.356 213.464 222.327 213.729C222.298 213.995 222.264 214.165 221.941 215.134C221.619 216.104 221.008 217.869 220.659 218.942C220.31 220.015 220.243 220.343 220.196 220.812C220.15 221.281 220.127 221.88 220.104 222.263C220.058 223.027 219.876 223.387 219.671 223.815C219.563 224.041 219.421 224.276 219.323 223.465C219.225 222.654 219.168 220.787 219.167 219.622C219.167 218.457 219.223 218.05 219.28 217.75C219.429 216.972 219.647 216.74 219.801 216.466C219.998 216.114 220.275 215.872 220.418 215.694C220.594 215.475 220.709 215.243 220.852 215.038C220.907 214.959 220.915 214.923 220.83 215.024C220.746 215.125 220.565 215.363 219.996 215.881C219.428 216.4 218.478 217.191 217.428 218.029C216.379 218.867 215.259 219.727 214.648 220.204C213.853 220.825 213.706 220.955 213.529 221.098C213.288 221.292 213.112 221.686 212.946 221.835C212.652 222.099 212.403 222.257 212.226 222.304C212.011 222.36 211.957 221.916 211.837 221.722C211.743 221.568 211.672 221.447 211.603 221.424C211.453 221.374 211.374 221.663 211.295 221.891C211.112 222.412 211.248 222.92 211.288 223.177C211.321 223.387 211.328 223.752 211.357 224.034C211.363 224.187 211.374 224.337 211.391 224.638C211.397 224.882 211.397 225.312 211.431 225.789" stroke="black" stroke-width="4" stroke-linecap="round"/>
<path d="M223.566 224.418C223.077 224.463 222.642 224.577 222.288 224.618C221.719 224.682 221.397 224.737 221.054 224.914C220.752 225.07 220.414 225.444 220.156 225.998C220.02 226.293 219.99 226.576 219.848 226.861C219.622 227.313 219.306 227.752 219.066 228.044C218.867 228.286 218.677 228.53 218.477 229.021C218.355 229.318 218.106 229.865 217.848 230.278C217.662 230.576 217.591 230.861 217.539 231.141C217.545 231.41 217.568 231.57 217.596 231.827C217.602 231.924 217.602 232.059 217.602 232.199" stroke="black" stroke-width="4" stroke-linecap="round"/>
<path d="M217.225 220.544C217.202 220.499 217.123 220.34 216.98 220.179C216.928 220.121 216.826 220.245 216.593 220.659C216.36 221.074 215.976 221.809 215.715 222.363C215.455 222.917 215.33 223.268 215.232 223.601C214.923 224.652 214.917 224.988 214.82 225.251C214.7 225.576 214.438 226.161 214.231 226.855C214.187 227.005 214.208 227.168 214.202 227.233C214.199 227.268 214.151 227.104 214.032 226.701C213.818 225.974 213.58 225.492 213.551 225.384C213.525 225.283 214.02 225.116 214.916 224.888C215.283 224.794 215.461 224.705 215.724 224.545C215.987 224.386 216.327 224.148 216.575 223.958C216.982 223.646 217.314 223.266 217.64 222.866C217.86 222.595 217.922 222.43 217.922 222.384C217.922 222.265 217.603 222.622 217.124 223.375C216.991 223.583 216.929 223.796 216.855 224.037C216.78 224.278 216.712 224.549 216.609 225.017C216.506 225.485 216.37 226.141 216.284 226.53C216.139 227.179 215.969 227.693 215.888 228.033C215.877 228.085 215.865 228.153 215.859 228.233C215.854 228.313 215.854 228.404 215.854 228.497" stroke="black" stroke-width="4" stroke-linecap="round"/>
<path d="M221.03 228.394C221.03 228.519 220.951 229.166 220.797 229.988C220.684 230.59 220.494 231.088 220.323 231.55C220.126 232.08 219.9 232.266 219.671 232.427C219.524 232.53 219.124 232.78 218.558 233.384C217.596 234.412 217.705 234.713 217.648 234.798C217.622 234.837 217.613 234.872 217.664 234.856C217.839 234.799 218.012 234.645 218.421 234.373C218.756 234.149 219.372 233.784 219.704 233.586C220.035 233.388 220.069 233.376 220.081 233.399C220.162 233.553 219.662 233.956 219.015 234.426C218.687 234.665 218.403 234.724 218.151 234.827C217.655 235.03 216.976 235.34 216.62 235.575C216.282 235.798 215.889 236.06 215.587 236.294C215.094 236.675 214.849 237.214 214.717 237.369C214.578 237.532 214.312 237.604 214.078 237.768C213.697 238.037 213.341 238.38 212.937 238.721C212.296 239.263 211.866 239.694 211.684 239.842C211.257 240.189 211.18 240.391 211.06 240.563C210.95 240.72 210.906 240.871 210.815 241.014C210.701 241.192 210.563 241.351 210.415 241.54C210.197 241.816 210.061 241.911 209.918 242.037C209.696 242.232 209.489 242.482 209.409 242.648C209.335 242.801 209.249 242.951 209.175 243.1C209.158 243.134 209.146 243.168 209.152 243.129C209.173 242.976 209.237 242.77 209.322 242.548C209.439 242.245 209.602 241.8 209.751 241.338C209.898 240.879 209.946 240.622 209.991 240.461C210.034 240.312 210.105 240.13 210.282 239.526C210.39 239.158 210.505 238.92 210.568 238.821C211.044 238.079 210.312 240.116 210.266 240.294C210.22 240.472 210.175 240.631 210.1 240.797C210.037 240.94 209.946 241.077 209.787 241.22C209.75 241.253 209.695 241.226 209.661 241.204C209.531 241.118 209.501 240.919 209.449 240.559C209.393 240.168 209.477 239.619 209.506 239.29C209.521 239.111 209.603 238.862 209.677 238.628C209.76 238.366 209.774 238.176 209.849 237.936C209.905 237.754 209.923 237.458 209.952 237.165C209.988 236.794 209.992 236.634 210.026 236.439C210.081 236.123 210.083 235.799 210.1 235.622C210.127 235.343 210.174 234.841 210.203 234.48C210.232 234.121 210.277 233.436 210.306 233.108C210.323 232.918 210.357 232.691 210.374 232.36C210.389 232.073 210.426 231.8 210.443 231.287C210.45 231.08 210.494 230.818 210.551 230.188C210.592 229.739 210.631 229.026 210.648 228.624C210.669 228.156 210.643 227.916 210.688 227.653C210.744 227.33 211.236 227.446 211.402 227.372C211.442 227.354 211.488 227.343 211.534 227.354C211.786 227.416 211.763 227.97 211.842 228.267C211.949 228.666 212.059 229.078 212.174 229.319C212.288 229.56 212.242 229.878 212.294 230.238C212.372 230.781 212.346 231.215 212.277 231.637C212.168 232.31 212.048 232.793 212.043 232.907C212.026 233.242 211.9 233.603 211.843 234.242C211.79 234.834 211.831 235.706 211.848 235.929C211.865 236.149 212.025 236.346 212.094 236.484C212.134 236.563 212.208 236.621 212.276 236.655C212.317 236.676 212.39 236.622 212.442 236.588C212.533 236.527 212.766 236.088 213.109 235.392C213.344 234.913 213.498 234.498 213.743 234.093C213.993 233.681 214.208 233.468 214.321 233.309C214.751 232.709 214.802 232.44 215.013 231.899C215.135 231.586 215.134 231.151 215.122 230.66C215.107 229.992 215.02 229.721 214.894 229.412C214.869 229.35 214.826 229.32 214.786 229.297C214.746 229.274 214.7 229.263 214.654 229.263C214.608 229.262 214.563 229.274 214.517 229.285" stroke="black" stroke-width="4" stroke-linecap="round"/>
<path d="M196.357 251.303C196.48 251.204 196.998 250.416 197.778 249.203C198.547 248.007 198.861 247.112 199.096 246.754C199.611 245.969 199.729 244.76 199.866 243.95C199.967 243.353 200.127 242.97 200.189 242.388C200.326 241.104 200.326 240.416 200.289 239.907C200.249 239.367 200.152 238.436 200.078 237.834C199.987 237.096 200.052 235.9 200.065 234.922C200.072 234.408 199.954 233.916 199.917 233.222C199.895 232.819 199.805 232.477 199.768 231.499C199.76 231.285 199.731 231.212 199.718 231.235C199.494 231.652 199.978 232.3 200.065 232.93C200.322 234.788 199.905 235.398 199.842 236.194C199.77 237.107 199.829 238.502 199.867 238.923C199.883 239.1 199.929 239.811 199.917 240.816C199.903 241.946 199.805 243.339 199.706 243.637C199.599 243.957 199.557 244.503 199.421 244.914C199.303 245.272 199.21 245.571 199.049 245.869C198.893 246.158 198.764 246.464 198.677 246.811C198.543 247.343 198.491 247.655 198.354 247.953C198.208 248.272 197.921 248.548 197.709 248.846C197.661 248.914 197.647 248.994 197.672 248.909C197.883 248.167 198.216 247.585 198.428 247.211C198.589 246.926 198.762 246.419 198.899 246.02C199.013 245.688 199.234 245.425 199.407 245.065C199.588 244.69 200.198 243.892 200.573 243.057C200.852 242.437 200.945 241.755 201.107 241.32C201.263 240.899 201.416 240.244 201.677 239.56C202.171 238.262 202.656 237.315 203.077 236.486C203.675 235.309 204.293 234.117 204.603 233.398C204.937 232.622 205.187 231.758 205.508 231.077C205.627 230.825 205.878 230.546 205.93 230.395C205.983 230.243 205.86 230.243 205.748 230.231C204.825 230.13 203.379 230.217 202.994 230.317C202.831 230.359 202.536 230.392 202.164 230.355C201.703 230.309 201.37 229.872 201.108 229.55C200.966 229.375 201.44 229.004 202.143 228.351C202.617 227.91 203.264 227.181 203.643 226.753C204.021 226.325 204.095 226.202 205.078 225.046C206.062 223.89 207.953 221.704 209.111 220.431C210.583 218.812 211.066 218.486 211.079 218.534C211.112 218.656 210.92 218.975 210.476 219.692C210.032 220.409 209.271 221.514 208.842 222.157C208.322 222.936 208.092 223.344 207.672 223.987C206.617 225.6 206.306 226.345 206.007 226.929C205.642 227.641 205.585 228.207 205.498 228.604C205.403 229.044 205.04 229.348 204.779 229.708C204.562 230.008 204.296 230.34 204.159 230.787C203.992 231.331 203.849 232.073 203.651 232.956C203.476 233.733 203.154 234.384 203.153 234.423C203.152 234.52 203.349 234.044 204.002 233.119C204.655 232.193 205.809 230.646 206.441 229.788C207.157 228.814 207.394 228.459 207.74 228.038C208.063 227.646 208.337 227.367 208.842 226.8C210.834 224.562 211.24 224.389 211.339 224.364C211.373 224.355 211.34 224.486 210.947 225.101C210.553 225.717 209.792 226.846 209.339 227.502C208.776 228.315 208.488 228.727 207.884 229.713C207.441 230.438 206.667 231.584 206.238 232.277C205.488 233.487 205.041 234.306 204.717 234.843C204.476 235.243 204.247 235.872 204.097 236.22C203.925 236.618 203.947 237.086 203.873 237.546C203.78 238.126 203.774 238.651 203.786 238.738C203.805 238.876 204.145 238.529 204.417 238.233C204.761 237.857 205.701 236.8 206.928 235.523C207.458 234.971 207.888 234.562 208.753 233.919C210.602 232.544 211.165 232.426 211.289 232.389C211.338 232.374 211.364 232.474 210.885 233.04C210.407 233.606 209.424 234.662 208.648 235.623C207.872 236.585 207.332 237.42 206.955 238.022C206.088 239.409 205.858 239.816 205.61 240.201C205.406 240.518 205.14 241.128 204.941 241.738C204.595 242.796 204.025 243.51 203.219 244.403C202.342 245.375 201.965 246.265 201.58 246.601C201.432 246.73 201.196 246.911 201.107 247.072C200.941 247.377 202.083 246.543 202.887 245.937C204.508 244.714 205.482 244.285 205.992 243.974C206.3 243.764 207.165 243.024 208.465 241.799C209.077 241.188 209.593 240.599 210.124 239.917" stroke="black" stroke-width="4" stroke-linecap="round"/>
<path d="M198.18 236.401C198.853 235.672 199.526 234.943 199.956 234.427C200.387 233.911 200.555 233.631 198.679 235.561C196.803 237.492 192.878 241.642 190.659 244.06C187.186 247.845 186.4 248.973 185.973 249.345C185.868 249.437 186.223 248.759 188.414 245.92C190.604 243.081 194.754 237.866 197.172 234.899C200.827 230.414 202.251 229.44 202.937 228.839C203.063 228.729 202.037 229.316 199.589 231.397C197.66 233.037 194.506 236.057 191.766 238.85C189.025 241.643 186.838 244.167 185.627 245.523C184.417 246.879 184.248 246.991 184.638 246.348C185.028 245.705 185.982 244.303 187.23 242.627C188.478 240.952 189.992 239.045 191.585 237.25C194.704 233.735 196.705 232.04 197.353 231.59C197.798 231.28 198.394 230.691 196.665 232.477C194.936 234.263 190.842 238.413 188.284 241.111C185.727 243.81 184.83 244.932 184.199 245.818C182.717 248.181 182.039 249.421 180.85 251.461C180.62 251.863 180.564 252.032 180.336 252.375" stroke="black" stroke-linecap="round"/>
<path d="M192.912 242.009C193.473 241.672 195.332 240.602 197.374 239.382C197.865 239.089 197.174 239.341 195.229 240.466C193.284 241.592 190.087 243.555 188.16 244.791C184.256 247.294 183.057 249.144 182.999 249.175C182.314 249.532 184.073 247.846 186.852 245.15C189.404 242.673 194.509 238.192 197.025 236.048C199.541 233.904 199.373 234.297 196.847 236.602C194.321 238.907 189.442 243.113 186.844 245.336C184.247 247.559 184.078 247.671 184.104 247.448C184.198 246.631 185.65 245.078 187.433 243.324C189.204 241.582 190.186 240.092 191.745 238.53C193.41 236.862 195.685 234.929 196.109 234.703C196.312 234.595 196.477 234.477 194.489 236.298C192.501 238.119 188.351 241.876 186.465 243.671C184.58 245.467 185.085 245.186 185.569 244.958C187.292 244.145 188.657 243.484 190.241 242.187C191.013 241.555 191.984 240.221 193.206 238.968C197.154 234.921 197.894 234.535 198.32 233.854C198.515 233.543 198.576 233.174 198.521 232.919C198.491 232.781 198.129 232.832 196.751 234.262C195.372 235.692 192.905 238.552 191.185 240.334C187.632 244.015 185.836 244.102 184.308 244.809C182.686 245.56 182.209 247.158 181.783 248.038C181.223 249.194 180.68 250.383 180.027 251.606C179.168 253.216 178.753 254.92 177.989 255.742C177.332 256.448 176.601 256.735 175.921 257.075C175.759 257.156 175.582 257.133 175.551 257.049C175.46 256.8 176.533 256.175 177.639 255.495C178.669 254.861 173.881 256.509 173.71 256.454C173.305 256.323 175.283 254.484 177.348 252.389C179.122 250.591 180.275 249.717 181.154 249.036C182.615 247.903 184.123 246.944 186.105 245.78C187.831 244.768 190.405 243.547 192.726 242.132C194.739 240.905 196.188 239.752 197.158 238.923C197.326 238.779 197.497 238.613 197.191 238.947C196.108 240.13 194.674 241.55 193.038 243.185C191.991 244.231 190.618 245.829 189.279 247.17C185.353 251.104 184.418 251.862 183.851 252.57C183.086 253.525 182.039 253.846 180.625 254.553C179.539 255.095 178.586 255.994 177.986 256.312C177.636 256.498 178.804 255.605 180.379 254.621C181.637 253.836 183.749 252.348 185.127 251.456C186.505 250.565 187.066 250.285 188.701 249.215C190.336 248.145 193.027 246.294 195.031 245.005C199.754 241.964 200.838 241.275 201.632 240.821C202.114 240.545 202.596 240.311 202.683 240.14C203.22 239.081 200.171 242.168 196.356 245.703C192.601 249.181 192.181 250.444 190.738 251.717C189.325 252.964 187.651 254.237 186.463 255.537C185.477 256.616 184.816 257.752 184.22 258.319C183.714 258.802 187.562 255.733 191.033 253.739C192.052 253.154 192.626 252.718 193.277 252.32C193.71 252.054 194.1 251.809 194.13 251.696C194.286 251.12 190.502 252.142 186.369 253.161C184.367 253.731 183.064 254.297 181.677 254.948C181.132 255.206 180.907 255.318 180.336 255.604" stroke="black" stroke-width="4" stroke-linecap="round"/>
<path d="M210.241 207.475C210.395 207.599 210.55 207.723 210.676 207.802C210.801 207.881 210.894 207.912 211.083 208.037" stroke="black" stroke-width="4" stroke-linecap="round"/>
<path d="M211.738 208.505C210.742 208.754 210.055 208.88 209.385 208.957C208.623 209.046 207.936 209.067 207.325 209.144C206.349 209.269 205.719 209.067 205.265 208.989C204.816 208.912 204.006 208.88 202.914 208.802C200.045 208.598 199.757 208.91 199.585 208.911C199.213 208.912 199.32 208.164 199.272 205.893C199.254 205.009 199.132 204.388 199.085 203.935C199.04 203.502 198.913 203.077 198.82 202.703C198.727 202.327 198.664 201.831 198.477 200.554C198.232 198.883 198.539 197.5 198.617 196.54C198.658 196.024 198.85 195.403 199.1 194.342C199.204 193.9 199.288 193.56 199.303 193.264C199.401 191.39 199.32 188.471 199.195 188.72C198.872 189.365 198.851 189.842 198.804 190.653C198.759 191.435 198.664 192.37 198.648 193.865C198.635 195.052 198.788 196.614 198.835 197.098C198.864 197.395 198.913 198.294 198.898 199.463C198.891 199.986 198.82 201.625 198.804 204.011C198.793 205.815 198.664 207.629 198.555 208.252C198.41 209.075 198.631 209.69 198.849 209.815C199.389 210.124 200.065 209.941 200.782 209.878C202.468 209.731 203.776 209.784 205.286 209.956C205.951 210.031 207.005 209.941 208.612 209.724C210.219 209.508 212.35 209.106 213.526 208.868C214.862 208.598 215.385 208.505 215.901 208.474C216.007 208.468 215.517 208.225 214.91 208.085C214.466 207.982 213.401 207.944 210.916 207.835C209.298 207.764 206.949 207.88 205.616 207.896C203.626 207.921 202.942 207.788 201.881 207.725C201.788 207.72 202.281 207.476 203.49 207.166C204.416 206.928 205.996 206.609 206.885 206.433C208.321 206.151 209.083 206.165 211.134 205.731C213.264 205.28 214.762 204.667 214.967 204.682C215.596 204.73 213.149 204.884 211.224 205.118C209.952 205.272 208.063 205.32 206.984 205.337C205.275 205.364 204.472 205.073 203.193 205.057C202.223 205.044 201.067 205.104 201.004 204.996C200.602 204.305 202.965 204.481 204.501 204.093C205.552 203.828 207.119 203.304 208.472 202.941C210.888 202.293 212.143 202.139 212.484 202.109C213.017 202.06 213.422 201.921 213.532 201.828C213.581 201.786 213.487 201.673 213.347 201.61C213.011 201.458 211.872 201.515 209.712 201.67C208.444 201.761 206.84 202.01 205.395 202.122C202.72 202.328 201.286 202.202 200.991 202.155C200.85 202.133 200.726 202.139 200.616 202.124C200.506 202.109 200.413 202.078 200.473 201.984C200.675 201.673 202.178 201.145 204.482 200.397C206.496 199.744 207.835 199.613 208.426 199.457C209.317 199.222 210.018 199.176 211.39 198.755C211.673 198.669 211.798 198.676 211.846 198.629C211.895 198.583 211.864 198.49 211.74 198.396C210.82 197.699 208.997 198.176 208.215 198.239C206.893 198.345 204.729 198.582 203.69 198.504C202.844 198.441 201.849 198.208 201.334 198.13C201.134 198.1 200.823 198.114 200.787 198.068C200.752 198.021 200.999 197.929 202.038 197.634C203.076 197.339 204.899 196.845 206.039 196.513C207.59 196.061 208.797 195.435 210.184 194.656C210.776 194.324 211.107 194.063 211.329 193.92C211.63 193.725 210.225 194.209 207.452 195.05C205.271 195.712 203.94 195.774 203.395 195.758C202.64 195.737 202.036 195.338 201.691 195.104C201.621 195.057 201.69 194.933 201.798 194.839C202.062 194.611 202.716 194.402 204.113 193.967C205.071 193.669 206.56 193.286 207.493 193.001C209.45 192.406 210.269 191.812 210.692 191.624C211.088 191.448 211.176 191 211.254 190.86C211.58 190.278 209.587 190.999 208.746 191.124C207.614 191.291 206.593 191.84 205.812 192.122C205.309 192.303 204.813 192.372 203.521 192.435C202.646 192.477 202.378 192.622 202.299 192.591C201.75 192.379 203.092 191.688 204.493 190.769C205.809 189.905 206.897 189.629 207.85 189.082C208.535 188.689 209.115 188.287 209.863 187.741C210.606 187.198 211.236 186.944 211.658 186.772C212.169 186.565 209.873 187.438 207.643 188.033C206.521 188.333 205.135 188.47 203.707 188.721C203.224 188.806 202.723 188.908 202.192 189.018C201.737 189.112 201.348 189.095 201.161 189.158C200.975 189.221 200.817 188.941 200.724 188.754C200.639 188.585 200.692 188.317 200.754 188.037C200.951 187.144 202.748 186.821 203.544 186.336C203.851 186.149 204.123 185.945 205.145 185.45C206.005 185.032 207.587 184.336 208.445 183.955C209.396 183.542 209.677 183.418 209.989 183.231C210.115 183.137 210.177 183.044 210.334 182.855" stroke="black" stroke-width="4" stroke-linecap="round"/>
<path d="M187.176 194.861C187.15 194.759 187.124 194.656 187.111 195.514C187.098 196.372 187.098 198.194 187.111 199.184C187.125 200.277 187.176 201.305 187.163 202.756C187.155 203.648 187.047 204.318 187.033 205.16C187.027 205.512 187.098 206.593 187.111 208.044C187.176 208.882 187.201 209.167 187.24 209.451C187.253 209.657 187.253 209.991 187.253 210.334" stroke="black" stroke-width="4" stroke-linecap="round"/>
<path d="M189.119 209.557C190.3 209.326 191.48 209.095 192.884 208.86C194.287 208.626 195.878 208.395 196.774 208.276C198.571 208.038 199.951 207.846 200.185 207.846C200.494 207.846 198.794 207.924 197.023 208.014C196.007 208.066 194.184 208.104 192.938 208.079C190.298 208.027 189.796 207.537 189.432 207.315C189.357 207.27 189.277 207.251 190.828 206.75C192.379 206.249 195.561 205.274 197.123 204.72C198.685 204.167 198.531 204.064 198.349 203.973C197.972 203.783 196.826 203.623 195.234 203.467C194.567 203.402 194.181 203.414 193.521 203.465C191.935 203.589 190.601 203.725 189.953 203.7C189.149 203.668 188.654 203.026 188.627 202.858C188.58 202.562 189.273 202.508 190.2 202.186C190.906 201.941 192.051 201.428 193.21 201.01C194.369 200.592 195.498 200.259 196.157 200.049C197.264 199.695 197.798 199.243 198.357 198.841C198.478 198.754 198.577 198.673 198.63 198.595C198.683 198.516 198.683 198.439 198.581 198.349C197.97 197.807 196.977 197.765 195.476 197.892C194.361 197.988 193.656 198.437 193.193 198.656C191.71 199.357 191.093 199.345 190.327 199.345C189.747 199.346 189.354 199.035 189.158 198.815C188.671 198.267 190.826 198.077 191.948 197.317C192.712 196.8 193.763 195.864 194.395 195.312C195.662 194.205 196.375 193.619 196.557 193.114C196.782 192.49 196.377 192.09 196.106 191.701C195.972 191.509 195.704 191.492 195.471 191.453C195.191 191.406 194.516 191.594 193.584 191.904C192.151 192.381 191.248 193.508 190.858 194.018C190.247 194.813 189.432 194.86 189.275 195.184C189.106 195.535 189.119 196.076 188.939 196.519C188.525 197.114 188.187 197.814 188.071 198.382C188.031 198.719 188.031 199.155 188.109 199.76" stroke="black" stroke-width="4" stroke-linecap="round"/>
<path d="M179.84 201.44C179.798 201.701 179.714 203.164 179.818 204.001C179.889 204.567 179.965 204.987 180.069 205.552C180.183 206.168 180.216 206.642 180.341 207.038C180.393 207.201 180.467 207.354 180.426 207.512C180.38 207.685 180.092 207.801 179.842 207.867C179.723 207.898 179.591 207.855 179.527 207.646C179.186 206.535 179.589 206.043 179.797 205.282C180.111 204.138 179.965 203.651 180.069 203.163C180.173 202.679 180.299 202.257 180.363 201.809C180.404 201.52 180.467 201.257 180.571 201.073C180.953 200.396 183.599 200.835 184.545 200.77C185.885 200.676 187.201 200.179 187.498 200.099C189.658 199.513 184.201 201.697 183.357 202.306C183.219 202.405 183.107 202.515 182.98 202.608C182.854 202.701 182.73 202.779 182.811 202.637C183.392 201.618 183.855 201.075 184.046 200.573C184.218 200.118 183.649 201.438 183.481 202.015C183.428 202.199 183.398 202.408 183.376 203.283C183.355 204.158 183.355 205.694 183.417 206.485C183.479 207.276 183.604 207.276 183.833 207.25C185.092 207.108 186.238 206.726 186.849 206.606C187.39 206.499 185.492 206.855 184.468 206.96C183.437 207.066 181.854 207.249 181.098 207.342C180.769 207.382 180.469 207.381 180.218 207.473C179.581 207.705 179.631 208.325 179.484 208.708C179.45 208.798 179.463 208.904 179.339 208.958C179.215 209.011 178.966 209.011 178.838 208.972C178.144 208.761 178.167 207.778 178.061 207.435C177.924 206.993 178.039 206.41 178.186 206.094C178.328 205.789 178.416 205.412 178.479 204.99C178.539 204.592 178.667 204.124 178.731 203.244C178.751 203.045 178.793 202.914 178.814 202.535C178.835 202.156 178.835 201.531 178.835 200.887" stroke="black" stroke-width="4" stroke-linecap="round"/>
<path d="M185.679 198.256C185.444 198.021 185.158 197.9 184.733 197.971C184.092 198.077 183.003 198.798 181.815 199.558C181.265 199.91 181.119 200.085 181.047 200.121C180.696 200.297 181.899 199.422 182.564 199.019C183.479 198.463 184.417 197.854 185.022 197.558C185.526 197.31 186.081 197.117 186.437 197.069C186.537 197.055 186.465 197.209 185.911 197.751C185.357 198.294 184.322 199.258 183.413 200.273C182.504 201.287 181.751 202.322 181.246 203.125C180.429 204.425 180.263 205.356 180.286 205.914C180.296 206.143 180.357 206.26 180.428 206.356C180.754 206.795 181.496 206.856 182.113 206.857C182.754 206.857 183.253 206.548 183.931 206.536C184.614 206.523 185.297 207.164 185.678 207.437C185.855 207.564 186.059 207.663 186.213 207.829C186.369 207.996 186.321 208.304 186.286 208.565C186.211 209.113 184.88 209.68 183.841 210.004C183.435 210.13 183.044 210.134 182.569 210.147C182.353 210.152 181.812 210.017 180.723 209.91C179.265 209.767 178.269 209.897 177.949 209.921C177.559 209.95 176.447 209.897 175.011 209.944C174.302 209.968 173.193 210.016 171.685 210.004C170.616 209.996 170.097 209.873 169.681 209.803C168.733 209.641 167.578 209.778 166.335 209.826C165.755 209.848 165.44 210.063 165.143 210.158C164.741 210.287 164.3 210.277 163.99 210.254C163.254 210.2 165.507 209.139 166.97 208.466C168.137 207.929 170.22 207.111 171.321 206.64C172.422 206.168 172.493 206.098 173.164 205.697C173.836 205.296 175.106 204.567 175.878 204.132C176.878 203.569 177.221 203.436 177.411 203.4C177.597 203.365 176.827 204.305 175.238 205.907C173.487 207.672 173.042 207.687 172.864 207.841C172.71 207.925 173.578 207.737 175.215 207.417C175.911 207.308 176.335 207.308 176.842 207.379" stroke="black" stroke-width="4" stroke-linecap="round"/>
<path d="M198.457 189.269C197.389 189.64 196.63 189.948 196.151 190.182C195.881 190.3 195.556 190.416 195.551 190.476C195.546 190.535 195.871 190.535 196.206 190.535" stroke="black" stroke-width="4" stroke-linecap="round"/>
<path d="M208.307 211.08C208.493 211.08 208.821 211.08 209.637 211.138C210.222 211.179 211.15 211.312 212.208 211.511C213.267 211.71 214.428 211.989 215.305 212.237C216.739 212.694 217.499 212.955 217.815 213.049C217.945 213.096 218.015 213.142 218.087 213.12" stroke="black" stroke-width="4" stroke-linecap="round"/>
<path d="M214.217 210.446C214.217 210.563 214.217 210.679 214.101 211.621C213.985 212.563 213.753 214.327 213.343 216.455C212.933 218.583 212.353 221.021 212.042 222.405C211.676 224.037 211.638 224.469 211.544 224.75C211.478 224.95 211.31 225.08 211.123 225.162C211.036 225.201 210.936 225.129 210.888 224.942C210.84 224.756 210.84 224.431 211.072 223.079C211.305 221.728 211.769 219.359 212.507 216.491C213.246 213.622 214.244 210.325 214.805 208.522C215.366 206.72 215.458 206.511 215.471 206.496C215.484 206.481 215.415 206.667 214.984 207.424C214.554 208.182 213.764 209.505 213.172 210.651C212.579 211.797 212.208 212.726 211.912 213.715C211.616 214.704 211.407 215.726 211.265 216.543C211.022 217.934 210.981 218.909 210.969 219.542C210.964 219.803 210.934 219.942 210.922 220.095C210.911 220.248 210.911 220.41 210.969 218.869C211.027 217.327 211.143 214.077 211.262 210.728" stroke="black" stroke-width="4" stroke-linecap="round"/>
</svg>
