<svg width="427" height="442" viewBox="0 0 427 442" fill="none" xmlns="http://www.w3.org/2000/svg">
<path d="M323.026 144.168H112.107C97.173 144.168 85.0664 158.159 85.0664 175.418V237.918C85.0664 255.177 97.173 269.168 112.107 269.168H323.026C337.96 269.168 350.066 255.177 350.066 237.918V175.418C350.066 158.159 337.96 144.168 323.026 144.168Z" stroke="black" stroke-width="10" stroke-linecap="round" stroke-linejoin="round"/>
<rect x="100" y="157" width="58.75" height="100" rx="20" fill="#00C317"/>
<path d="M351 177V177C358.732 177 365 183.268 365 191V225C365 232.732 358.732 239 351 239V239V177Z" fill="black"/>
<path d="M233.954 188.49L231.498 191.034L235.034 191.031L289.127 190.995L132.9 289.363L209.422 213.958L212.031 211.387L208.368 211.389L154.049 211.43L296.653 123.523L233.954 188.49Z" fill="white" stroke="black" stroke-width="3"/>
<path d="M187.5 256.5H167.5" stroke="black"/>
<path d="M240.5 183C241.284 174.183 240.076 169.836 234 163.5" stroke="black"/>
<path d="M240.5 191V223" stroke="black"/>
<path d="M243.582 206.111C243.327 205.969 243.167 205.854 243.117 205.761C242.983 205.512 243.095 205.026 243.224 204.432C243.282 203.994 243.296 203.751 243.324 203.665C243.339 203.622 243.353 203.579 243.367 203.535" stroke="black" stroke-width="2" stroke-linecap="round"/>
<path d="M244.226 194.521C244.17 194.564 243.97 194.508 243.755 194.436C243.544 194.365 243.411 194.35 243.333 194.328C243.154 194.28 243.139 194.007 243.046 193.899C242.873 193.699 243.124 194.562 243.196 194.821C243.21 194.864 243.224 194.907 243.232 194.985C243.239 195.064 243.239 195.177 243.239 195.294" stroke="black" stroke-width="5" stroke-linecap="round"/>
<path d="M244.526 198.084C244.866 198.027 245.206 197.971 246.961 197.552C248.715 197.133 251.874 196.354 253.771 195.932C255.667 195.509 256.205 195.467 256.582 195.452C256.958 195.437 257.156 195.451 257.485 195.522C257.814 195.593 258.267 195.721 258.685 195.864C259.48 196.138 259.907 196.338 260.064 196.388C260.553 196.544 260.865 196.582 261.286 196.617C261.993 196.677 262.253 196.582 262.361 196.575C262.384 196.573 262.341 196.553 261.802 196.525C261.263 196.496 260.229 196.454 258.775 196.503C257.322 196.552 255.481 196.693 254.489 196.759C253.498 196.825 253.413 196.811 253.348 196.797C253.283 196.782 253.241 196.768 253.283 196.74C253.325 196.711 253.452 196.668 254.828 196.597C256.204 196.526 258.824 196.426 260.514 196.425C262.204 196.423 262.884 196.523 263.277 196.595C263.76 196.684 263.899 196.768 263.963 196.803C263.984 196.814 263.929 196.853 263.865 196.889C263.8 196.925 263.715 196.967 260.966 197.903C258.217 198.838 252.806 200.666 249.678 201.77C246.551 202.874 245.871 203.2 245.492 203.389C245.114 203.578 245.057 203.62 245.07 203.642C245.084 203.664 245.169 203.664 246.905 203.069C248.642 202.474 252.027 201.285 254.125 200.495C256.223 199.705 256.931 199.35 257.431 199.111C258.193 198.746 258.59 198.614 258.783 198.571C258.862 198.553 258.905 198.556 258.899 198.599C258.892 198.641 258.836 198.726 257.737 199.634C256.638 200.542 254.499 202.27 253.355 203.224C252.097 204.273 252.01 204.536 251.967 204.708C251.939 204.82 251.966 204.909 252.009 204.994C252.032 205.041 252.08 205.08 252.159 205.102C252.345 205.154 252.538 205.095 253.332 204.635C254.062 204.212 255.43 203.366 256.598 202.73C257.766 202.095 258.687 201.684 259.268 201.458C260.044 201.156 260.365 201.175 260.408 201.238C260.451 201.301 260.197 201.43 258.537 202.395C256.877 203.36 253.733 205.159 252.084 206.107C250.436 207.055 250.38 207.097 251.625 206.56C252.871 206.022 255.421 204.903 257.152 204.227C258.883 203.552 259.719 203.354 260.22 203.251C260.722 203.149 260.863 203.149 260.887 203.199C261.183 203.827 259.594 204.179 259.308 204.421C259.077 204.617 258.722 205.035 258.266 205.606C257.592 206.449 257.348 206.639 257.168 206.854C256.938 207.13 256.718 207.284 256.525 207.412C256.193 207.634 255.817 207.884 255.559 208.056C255.433 208.14 255.245 208.313 254.86 208.549C253.878 209.149 253.471 209.343 253.177 209.523C252.728 209.796 252.141 210.272 251.767 210.546C251.373 210.835 251.095 211.161 250.909 211.354C250.68 211.592 250.437 211.804 250.129 212.055C249.89 212.249 249.564 212.435 249.363 212.563C249.081 212.744 248.82 213.006 248.598 213.143C248.366 213.285 248.09 213.422 247.889 213.579C247.635 213.779 247.389 214.137 247.096 214.451C246.878 214.686 246.659 214.952 246.145 215.466C245.933 215.679 245.729 215.783 245.557 215.89C245.472 215.926 245.385 215.969 245.3 216.026C245.257 216.055 245.214 216.083 245.127 216.112" stroke="black" stroke-width="5" stroke-linecap="round"/>
<path d="M258.047 208.515C258.061 208.43 258.488 207.945 259.224 207.274C259.555 206.971 260.054 206.436 260.374 206.124C261.062 205.45 261.552 205.025 261.852 204.746C262.271 204.356 262.439 204.18 262.682 203.994C262.834 203.877 262.954 203.765 263.26 203.552C263.969 203.057 264.471 202.634 264.642 202.521C264.879 202.363 265.185 202.064 265.493 201.763C265.664 201.596 266.184 201.093 266.935 200.336C267.522 199.743 267.862 199.687 268.055 199.587C268.107 199.56 268.162 199.53 268.737 199.338C269.311 199.146 270.402 198.792 270.992 198.596C271.642 198.379 271.896 198.285 272.26 198.171C272.962 197.951 273.513 197.37 273.728 197.183C273.962 196.98 274.271 196.783 274.786 196.525C275.067 196.384 275.287 196.353 275.524 196.267C275.813 196.162 276.117 196.025 276.461 195.888C276.78 195.762 276.976 195.667 277.155 195.559C277.353 195.44 277.577 195.437 277.756 195.337C277.963 195.222 278.135 195.165 278.392 195.087C278.69 194.996 279.007 194.922 279.208 194.858C279.395 194.798 279.58 194.623 279.773 194.479C279.964 194.337 280.152 194.25 280.331 194.164C280.58 194.044 280.796 193.907 281.004 193.835C281.182 193.773 281.354 193.72 281.526 193.656C281.709 193.587 281.869 193.506 282.084 193.363C282.306 193.215 282.499 193.091 282.614 193.012C282.706 192.949 282.315 193.019 282.143 193.033C281.913 193.052 281.232 193.119 280.345 193.148C279.667 193.169 279.154 193.219 278.817 193.241C278.652 193.251 278.126 193.277 277.397 193.284C276.79 193.29 276.478 193.348 276.198 193.37C275.943 193.389 275.323 193.533 274.397 193.584C274.145 193.598 273.902 193.62 273.609 193.627C273.358 193.633 272.704 193.663 271.846 193.656C271.441 193.652 271.212 193.62 270.969 193.627C270.81 193.632 270.512 193.705 269.552 193.763C268.834 193.806 267.643 193.763 267.009 193.749C266.175 193.73 265.86 193.677 264.905 193.67C264.559 193.667 263.947 193.706 263.147 193.72C262.593 193.73 262.313 193.82 261.477 193.828C260.867 193.833 260.296 193.82 259.745 193.842C259.494 193.852 258.84 193.878 257.953 193.856C257.204 193.838 256.904 193.592 256.568 193.47C256.465 193.433 256.333 193.448 256.289 193.477C256.244 193.505 256.287 193.562 256.401 193.626C256.515 193.691 256.699 193.762 256.992 193.834C257.285 193.905 257.682 193.976 259.274 194.098C260.867 194.219 263.643 194.389 265.413 194.548C267.183 194.706 267.863 194.848 268.731 194.942C269.598 195.036 270.632 195.079 271.207 195.115C271.869 195.156 271.997 195.208 272.047 195.251C272.08 195.279 272.027 195.378 271.991 195.436C271.93 195.535 271.586 195.679 271.001 195.929C270.701 196.057 270.387 196.165 269.504 196.407C268.621 196.65 267.176 197.018 266.064 197.378C264.951 197.737 264.215 198.077 263.679 198.344C262.821 198.773 262.455 199.028 262.291 199.128C261.766 199.448 261.07 199.656 260.603 200.05C260.231 200.364 260.137 200.915 259.908 201.359C259.866 201.442 259.808 201.432 259.765 201.39C259.656 201.282 259.48 200.976 259.031 200.513C258.757 200.229 258.313 199.922 258.017 199.676C257.551 199.29 257.191 198.817 256.727 198.062C256.454 197.617 256.193 196.995 255.976 196.582C255.43 195.542 254.858 195.209 254.579 195.073C254.33 194.951 254.185 194.709 253.963 194.13C253.917 194.01 253.927 193.964 253.905 193.942C253.858 193.894 253.67 193.949 253.413 193.999C253.159 194.048 252.43 194.049 251.359 194.021C250.14 193.989 249.78 193.778 249.499 193.742C249.248 193.709 248.991 193.677 248.57 193.656C248.433 193.635 248.333 193.606 248.084 193.584C247.892 193.577 247.566 193.577 247.23 193.577" stroke="black" stroke-width="5" stroke-linecap="round"/>
<path d="M243.067 195.036C243.067 195.522 243.096 195.722 243.117 195.93C243.139 196.139 243.21 196.395 243.275 196.581C243.336 196.758 243.353 197.024 243.41 197.232C243.471 197.453 243.582 197.824 243.668 198.155C243.741 198.434 243.739 198.87 243.79 199.106C243.806 199.183 243.797 199.298 243.797 199.151C243.797 198.071 243.726 197.785 243.704 197.662C243.67 197.47 243.64 198.083 243.618 198.255C243.596 198.433 243.511 198.598 243.454 198.77C243.425 198.856 243.397 198.956 243.375 199.063C243.365 199.113 243.368 199.156 243.403 199.065C243.648 198.432 243.625 198.114 243.604 197.978C243.58 197.826 243.283 198.098 243.111 198.205C243.07 198.231 243.025 198.241 242.989 198.291C242.827 198.515 242.967 198.812 243.06 199.071C243.136 199.282 243.181 199.457 243.232 199.806C243.363 200.721 243.282 201.242 243.246 201.738C243.217 202.146 243.139 202.574 243.103 202.969C243.078 203.238 243.024 203.434 242.982 203.699C242.896 204.228 242.967 205.065 242.967 205.7C242.968 206.342 242.867 206.711 242.846 206.926C242.812 207.254 242.781 207.769 242.774 208.213C242.77 208.434 242.853 208.77 242.81 209.029C242.778 209.221 242.724 209.444 242.688 209.644C242.666 209.771 242.667 209.902 242.638 210.03C242.604 210.186 242.595 210.912 242.588 211.899C242.582 212.789 242.581 213.793 242.602 214.001C242.609 214.051 242.623 214.094 242.631 214.151C242.638 214.209 242.638 214.279 242.638 214.352" stroke="black" stroke-width="5" stroke-linecap="round"/>
<path d="M245.9 200.445C245.886 200.899 245.886 201.874 245.907 202.403C245.926 202.863 245.972 203.176 246.15 203.926C246.291 204.521 246.315 204.779 246.337 205.058C246.356 205.31 246.401 205.737 246.422 206.053C246.451 206.468 246.487 206.754 246.487 207.011C246.488 207.735 246.202 208.212 245.937 208.627C245.639 209.096 245.558 209.343 245.464 209.594C245.251 210.166 245.329 211.174 245.335 211.376C245.338 211.496 245.797 210.979 246.262 210.521C246.441 210.344 246.514 210.29 247.138 209.694C247.763 209.098 248.938 207.965 249.629 207.325C250.652 206.376 250.879 206.369 251.022 206.276C251.086 206.234 251.108 206.169 251.108 206.105C251.111 205.715 250.453 205.24 249.88 204.875C249.21 204.446 248.608 204.609 248.098 204.644C247.99 204.652 247.891 204.652 247.861 204.659C247.831 204.666 247.874 204.68 247.918 204.694" stroke="black" stroke-width="5" stroke-linecap="round"/>
<path d="M244.32 216.949C244.298 216.949 244.236 216.954 244.199 216.959C244.134 216.967 244.103 216.966 244.083 216.956C244.055 216.942 244.037 216.941 244.016 216.934C243.988 216.924 243.942 216.9 243.919 216.887C243.902 216.877 243.887 216.863 243.871 216.851C243.854 216.837 243.827 216.818 243.804 216.804C243.784 216.792 243.77 216.783 243.743 216.776C243.701 216.766 243.681 216.759 243.663 216.754C243.645 216.748 243.624 216.741 243.604 216.736C243.576 216.73 243.563 216.714 243.547 216.7C243.529 216.684 243.494 216.668 243.472 216.655C243.45 216.642 243.435 216.628 243.42 216.62C243.409 216.615 243.427 216.648 243.43 216.67C243.437 216.71 243.426 216.789 243.429 216.831C243.431 216.854 243.434 216.883 243.437 216.916C243.445 217.005 243.441 217.036 243.445 217.066C243.447 217.092 243.449 217.183 243.446 217.239C243.444 217.267 243.436 217.295 243.424 217.325C243.408 217.365 243.388 217.396 243.382 217.413C243.364 217.467 243.341 217.536 243.336 217.555C243.331 217.57 243.308 217.619 243.29 217.658C243.278 217.684 243.267 217.708 243.256 217.738C243.236 217.792 243.214 217.833 243.201 217.859C243.171 217.928 243.165 217.949 243.154 217.98C243.152 217.989 243.152 217.999 243.152 218.008" stroke="black" stroke-width="5" stroke-linecap="round"/>
<path d="M243.234 218.496C243.227 218.495 243.206 218.495 243.184 218.505C243.164 218.512 243.147 218.518 243.134 218.525C243.126 218.53 243.116 218.536 243.098 218.543" stroke="black" stroke-width="5" stroke-linecap="round"/>
<path d="M286.689 131.04C286.713 131.04 286.736 131.04 286.725 131.075C286.636 131.349 286.263 131.491 286.036 131.74C285.821 131.977 285.621 132.204 285.335 132.394C285.049 132.585 284.718 132.775 284.349 132.953C284.047 133.099 283.766 133.345 283.469 133.618C283.121 133.937 282.886 134.224 282.696 134.593C282.534 134.907 282.222 135.175 281.959 135.461C281.64 135.808 281.27 136.008 280.984 136.174C280.688 136.347 280.414 136.555 280.105 136.78C279.663 137.103 279.44 137.505 279.071 137.814C278.767 138.07 278.489 138.313 278.191 138.481C277.797 138.702 277.255 139.168 276.729 139.585C276.417 139.833 276.135 140.025 275.849 140.181C275.564 140.336 275.279 140.43 274.994 140.537C274.678 140.655 274.376 140.858 274.066 140.953C273.771 141.044 273.308 141.309 272.925 141.523C272.776 141.607 272.663 141.737 272.58 141.88C272.54 141.949 272.52 142.022 272.591 142.047C273.11 142.229 273.659 141.787 273.993 141.726C274.137 141.7 274.279 141.643 274.362 141.655C274.704 141.702 273.853 142.236 273.567 142.391C273.271 142.552 272.997 142.807 272.723 143.033C272.435 143.271 272.259 143.662 271.998 143.877C271.711 144.113 271.287 144.588 270.928 144.887C270.637 145.131 270.311 145.374 269.741 145.801C268.892 146.438 268.693 146.872 268.444 147.157C268.204 147.432 267.886 147.822 267.506 148.167C266.826 148.784 265.895 149.695 265.07 150.602C263.886 151.905 263.393 152.268 262.941 152.661C262.414 153.118 261.919 153.811 261.55 154.337C261.265 154.741 260.825 155.335 260.563 155.645C260.258 156.005 259.827 156.239 259.529 156.441C259.22 156.651 259.018 157.071 258.78 157.392C258.447 157.84 258.328 158.141 258.102 158.485C257.905 158.787 257.71 159.115 257.389 159.602C257.314 159.717 257.235 159.781 257.246 159.782C257.371 159.795 257.989 158.934 258.927 157.734C259.825 156.586 260.228 156.36 260.632 156.075C261.03 155.793 261.369 155.315 261.796 154.981C262.249 154.628 262.557 154.363 262.95 154.078C263.338 153.795 263.58 153.744 263.652 153.673C263.889 153.438 262.751 154.004 261.591 154.679C261.023 155.009 260.222 155.657 259.55 156.243C258.879 156.829 258.385 157.37 258.001 157.896C257.289 158.87 256.903 159.708 256.57 160.195C256.191 160.751 255.927 161.065 255.642 161.433C255.265 161.92 254.953 162.23 254.277 163.07C253.589 163.926 252.792 164.843 252.044 165.448C251.359 166.003 251.007 166.365 250.318 167.256C249.871 167.834 249.532 168.387 249.14 168.756C248.87 169.01 248.558 169.267 248.307 169.552C248.035 169.862 247.796 170.194 247.547 170.539C247.336 170.83 247.154 171.121 247.094 171.407C247.033 171.698 246.916 171.977 246.798 172.274C246.642 172.664 246.37 172.904 246.156 173.201C245.885 173.578 245.61 173.784 245.289 174.14C244.865 174.61 244.73 174.901 244.575 175.198C244.365 175.601 243.969 175.71 243.814 175.971C243.648 176.25 243.517 176.541 243.279 176.827C243.224 176.893 243.208 176.969 243.172 176.959C243.044 176.92 243.041 176.521 243.064 176.2C243.071 176.111 243.135 176.185 243.159 176.268C243.256 176.6 242.994 176.898 242.91 177.089C242.777 177.394 243.016 176.426 243.052 175.998C243.087 175.591 243.159 175.118 243.243 174.762C243.406 174.064 243.444 173.526 243.516 173.192C243.578 172.904 243.35 172.622 243.184 172.336C242.995 172.011 242.733 171.694 242.519 171.397C242.455 171.308 242.353 171.219 242.328 171.241C241.969 171.559 243.014 172.543 243.325 173.106C243.372 173.191 243.42 173.261 243.409 173.309C243.385 173.415 243.208 173.475 243.101 173.547C242.815 173.739 242.78 172.907 242.744 172.503C242.715 172.183 242.566 171.908 242.459 171.623C242.337 171.299 242.209 170.887 242.173 170.553C242.141 170.257 241.995 169.983 241.9 169.697C241.805 169.411 241.663 169.127 241.236 168.664C240.973 168.379 240.831 168.057 240.676 167.771C240.515 167.476 240.355 167.201 240.2 166.916C240.051 166.639 239.88 166.345 239.572 165.954C238.869 165.06 238.549 164.895 238.287 164.598C237.859 164.134 237.622 163.849 237.348 163.623C237.288 163.563 237.241 163.492 237.192 163.348" stroke="black" stroke-width="5" stroke-linecap="round"/>
<path d="M238.69 162.065C239.185 161.899 240.187 161.661 240.685 161.436C241.541 161.049 242.634 160.379 243.229 160.069C243.683 159.832 244.061 159.641 244.715 159.356C245.242 159.125 245.701 158.762 246.047 158.582C246.205 158.5 246.463 158.476 246.712 158.321C246.88 158.217 247.952 157.672 249.521 156.793C250.668 156.15 251.477 155.506 251.895 155.219C252.343 154.911 253.47 154.153 254.705 153.275C255.519 152.696 256.277 151.965 257.145 151.335C257.871 150.808 258.563 150.322 258.814 150.012C259.094 149.666 259.679 149.064 260.157 148.646C260.543 148.307 260.87 148.016 261.392 147.695C261.706 147.502 262.011 147.35 262.368 147.088C262.736 146.818 263.056 146.565 263.449 146.316C263.984 146.019 264.531 145.638 264.933 145.342C265.171 145.141 265.477 144.835 265.792 144.52" stroke="black" stroke-width="5" stroke-linecap="round"/>
<path d="M268.502 142.808C268.62 142.737 268.737 142.667 268.833 142.607C268.929 142.547 269 142.5 269.144 142.38" stroke="black" stroke-width="5" stroke-linecap="round"/>
<path d="M242.542 164.561C242.589 164.514 242.895 164.231 243.664 163.65C245.451 162.302 245.986 162.304 246.439 162.018C246.745 161.824 247.105 161.685 247.39 161.554C247.54 161.485 247.723 161.305 248.195 160.997C249.071 160.427 250.169 159.999 250.881 159.536C251.506 159.13 252.283 158.787 253.13 158.215C253.71 157.824 254.375 157.101 255.411 156.515C256.369 155.974 256.876 155.908 257.161 155.73C257.303 155.67 257.659 155.505 258.122 155.267C258.303 155.171 258.373 155.124 258.446 155.075" stroke="black" stroke-width="5" stroke-linecap="round"/>
<path d="M259.516 154.505L259.801 154.433" stroke="black" stroke-width="5" stroke-linecap="round"/>
<path d="M243.184 169.553C243.513 169.224 243.843 168.894 244.354 168.266C244.865 167.637 245.547 166.719 245.969 166.117C246.869 164.834 247.318 164.183 248.121 163.414C248.697 162.864 249.678 162.057 250.634 161.327C251.59 160.597 252.508 159.985 253.028 159.634C253.548 159.284 253.642 159.213 253.739 159.069" stroke="black" stroke-width="5" stroke-linecap="round"/>
<path d="M176.11 259.609C175.95 259.564 175.356 259.358 174.688 259.236C174.411 259.186 174.251 259.161 173.782 259.075C173.215 258.972 173.045 259.092 172.907 259.121C172.748 259.154 172.563 259.196 172.312 259.224C171.558 259.31 171.301 259.173 171.025 259.201C170.609 259.244 170.313 259.242 170.141 259.224C169.809 259.191 169.395 259.173 168.673 259.156C168.453 259.15 168.338 259.127 168.263 259.144C168.213 259.155 168.303 259.264 168.292 259.333C168.248 259.6 167.776 259.745 167.409 260.198C167.139 260.532 167.006 260.78 166.869 261.007C166.751 261.205 166.506 261.554 166.258 261.849C166.01 262.144 165.76 262.371 165.403 262.727C165.047 263.083 164.593 263.56 164.33 263.829C163.919 264.249 163.643 264.407 163.327 264.591C163.138 264.701 163.034 264.844 162.994 264.913C162.974 264.946 162.965 264.981 163.01 264.976C163.165 264.958 163.445 264.844 164.164 264.651C164.705 264.505 165.587 264.207 166.078 264.055C166.634 263.883 166.832 263.834 167.198 263.663C168.225 263.182 168.348 263.019 168.555 262.927C168.705 262.86 168.899 262.824 169.255 262.624C169.5 262.485 169.703 262.41 169.858 262.353C170.123 262.255 170.687 261.942 171.012 261.75C171.139 261.676 171.253 261.561 171.419 261.458C171.573 261.378 171.735 261.286 171.924 261.171C172.044 261.102 172.215 261.011 172.459 260.883" stroke="black" stroke-width="5" stroke-linecap="round"/>
<path d="M178.59 259.127C178.499 259.184 178.247 259.298 178.074 259.368C177.817 259.471 177.385 259.38 176.961 259.362C176.833 259.357 176.754 259.333 176.702 259.322C176.586 259.297 176.982 259.185 177.183 259.133C177.378 259.082 177.522 259.07 177.774 259.052C177.993 259.037 178.245 259.001 178.388 258.949C178.56 258.887 178.693 258.829 178.831 258.805C178.983 258.78 179.106 258.713 179.25 258.685C179.414 258.652 179.565 258.645 179.646 258.662C179.874 258.71 179.279 258.84 179.142 258.863C178.989 258.888 178.866 258.977 178.728 259.023C178.59 259.069 178.453 259.115 178.315 259.161C178.177 259.207 178.04 259.253 177.896 259.299C177.721 259.355 177.557 259.413 177.414 259.477C177.247 259.55 177.087 259.643 176.84 259.775C176.62 259.893 176.455 259.976 175.946 260.199C175.769 260.277 175.563 260.354 175.157 260.486C174.75 260.617 174.148 260.799 173.633 261.007C172.685 261.388 172.23 261.698 172.116 261.755C171.893 261.867 171.544 262.076 171.072 262.272C170.625 262.457 170.428 262.639 169.908 262.954C169.36 263.285 168.89 263.466 168.695 263.603C168.591 263.672 168.478 263.741 168.379 263.799C168.281 263.856 168.202 263.902 168.12 263.949" stroke="black" stroke-width="5" stroke-linecap="round"/>
<path d="M163.091 269.184C163.159 269.116 163.558 268.739 164.166 268.2C164.49 267.913 164.675 267.887 164.744 267.835C164.78 267.808 164.812 267.772 164.767 267.732C164.392 267.395 163.952 267.29 163.901 267.153C163.804 266.894 164.054 266.443 164.57 265.656C164.715 265.435 164.756 265.327 164.739 265.264C164.71 265.158 164.163 265.291 163.355 265.531C162.951 265.651 162.582 265.839 161.991 266.251C161.4 266.663 160.604 267.311 160.03 267.809C159.455 268.308 159.125 268.638 158.774 268.944C158.422 269.25 158.058 269.523 157.712 269.754C156.718 270.418 156.582 270.412 156.547 270.412C156.451 270.413 156.718 270.104 157.112 269.641C157.39 269.315 157.881 268.849 158.303 268.489C158.725 268.13 159.077 267.903 159.446 267.706C160.174 267.318 160.679 267.129 160.868 267.032C161.017 266.955 161.139 266.922 161.196 266.905C161.209 266.901 161.186 266.944 160.543 267.405C159.901 267.866 158.639 268.753 157.972 269.226C157.266 269.728 157.145 269.837 156.984 269.952C156.728 270.136 156.365 270.365 155.953 270.622C155.291 271.036 154.815 271.456 154.625 271.622C154.453 271.774 154.286 271.881 153.708 272.482C153.362 272.841 153.127 272.972 152.623 273.447C152.387 273.669 152.174 273.822 152.036 273.902C151.892 273.985 151.76 274.108 151.622 274.183C151.46 274.272 151.29 274.453 151.14 274.556C150.946 274.691 150.75 274.935 150.584 275.141C150.255 275.55 149.901 275.726 149.694 275.905C149.445 276.12 149.132 276.381 148.616 276.885C148.305 277.189 148.178 277.335 147.897 277.467C147.727 277.546 147.593 277.645 147.455 277.719C147.326 277.789 147.146 278 146.944 278.133C146.762 278.253 146.491 278.334 146.353 278.414C146.209 278.497 146.1 278.62 145.974 278.73C145.905 278.792 145.847 278.862 145.796 278.93C145.767 278.965 145.733 278.999 145.629 279.103" stroke="black" stroke-width="5" stroke-linecap="round"/>
<path d="M228 191L227 230" stroke="black"/>
<path d="M237.033 202.256C237.013 202.256 236.993 202.256 236.953 203.089C236.912 203.922 236.852 205.588 236.831 206.577C236.805 207.826 236.911 208.296 237.052 208.641C237.115 208.793 237.234 208.864 237.326 208.906C237.487 208.978 237.782 208.847 238.306 208.484C239.151 207.9 239.628 207.245 239.86 206.932C240.182 206.499 240.459 205.768 240.682 204.908C240.789 204.496 240.784 204.109 240.744 203.501C240.704 202.893 240.604 202.07 240.492 201.415C240.3 200.291 240.035 199.602 239.853 199.247C239.781 199.108 239.711 199.073 239.62 199.093C238.9 199.246 238.616 200.791 238.404 201.832C238.165 203 238.209 203.715 238.25 203.837C238.27 203.898 238.29 203.958 238.361 203.889C238.597 203.657 238.897 202.81 239.331 201.506C239.564 200.81 239.746 200.021 239.89 198.925C240.033 197.829 240.114 196.444 240.135 195.671C240.156 194.897 240.116 194.776 240.045 194.815C239.974 194.853 239.874 195.054 239.662 196.01C239.449 196.967 239.128 198.673 238.963 199.653C238.797 200.632 238.797 200.833 238.898 200.635C238.998 200.437 239.199 199.835 239.362 199.234C239.526 198.632 239.647 198.05 239.719 197.459C239.953 195.539 239.589 194.959 239.406 194.653C239.369 194.59 239.325 194.532 239.465 194.451C239.894 194.202 240.317 194.126 240.439 194.025C240.582 193.906 240.622 193.6 240.582 193.256C240.553 193.003 240.319 192.909 240.177 192.838C239.578 192.538 238.616 192.807 238.019 192.848C237.432 192.888 236.996 192.989 236.457 193.02C236.262 193.031 235.66 193.071 234.819 193.081C233.913 193.092 232.98 193.051 232.514 192.96C231.498 192.759 231.155 192.808 230.8 192.716C230.121 192.54 229.857 192.605 229.553 192.534C229.473 192.515 229.391 192.523 229.339 192.553C229.288 192.584 229.268 192.644 229.268 192.715C229.266 193.016 229.409 193.252 229.44 193.849C229.469 194.408 229.531 195.138 229.561 195.997C229.587 196.698 229.572 197.51 229.531 197.724C229.303 198.926 229.43 195.077 229.41 195.34C229.364 195.939 229.247 196.334 229.136 196.77C229.031 197.183 228.964 197.59 228.933 198.602C228.918 199.115 228.842 199.396 228.832 199.841C228.824 200.17 228.963 200.651 229.064 201.099C229.227 201.81 229.085 202.923 229.075 203.996C229.07 204.51 229.186 204.951 229.237 205.436C229.373 206.749 229.146 207.121 229.116 207.425C229.099 207.589 229.065 208.292 229.085 209.335C229.097 209.96 229.186 210.645 229.176 211.416C229.167 212.13 229.106 212.738 229.075 213.622C229.047 214.426 229.065 215.952 229.055 216.768C229.041 217.848 228.964 218.333 228.933 219.022C228.902 219.711 228.842 220.726 228.771 221.121C228.607 222.03 228.862 222.429 228.922 223.255C229.039 224.84 228.963 225.918 229.004 226.039C229.102 226.333 229.105 226.708 229.116 227.305C229.122 227.645 229.025 227.924 228.943 228.108C228.835 228.354 228.963 227.44 229.014 226.995C229.026 226.892 229.044 226.832 229.075 226.761C229.14 226.607 229.829 226.246 230.872 225.8C231.405 225.572 231.86 225.413 232.477 225.1C233.578 224.54 233.909 224.277 234.375 224.023C235.301 223.519 236.361 223.406 236.748 223.212C237.231 222.97 238.063 222.575 238.522 222.37C238.737 222.275 238.979 222.127 239.482 221.725C241.339 220.24 241.615 219.958 241.656 219.856C241.735 219.663 241.111 219.835 240.596 220.057C239.752 220.42 239.123 220.868 238.529 221.252C238.102 221.526 237.392 221.916 236.85 222.183C235.526 222.834 234.988 222.876 234.561 223.099C234.287 223.243 233.993 223.343 233.649 223.485C233.156 223.688 232.858 223.849 232.301 224.133C231.822 224.377 231.499 224.316 231.195 224.407C230.833 224.516 230.506 224.963 230.211 225.228C230.15 225.283 230.06 225.289 230.099 225.26C230.28 225.121 230.524 225.006 230.967 224.664C231.342 224.374 232.051 223.881 233.016 223.261C233.98 222.641 235.184 221.918 235.995 221.395C236.806 220.873 237.188 220.571 237.716 220.256C238.874 219.563 239.689 219.208 239.921 219.056C240.45 218.71 241.025 218.599 241.402 218.397C241.474 218.357 241.533 218.335 241.494 218.335C240.912 218.331 240.199 218.72 239.077 219.204C238.017 219.661 237.379 220.099 237.177 220.169C236.53 220.395 236.021 220.646 235.515 220.818C235 220.993 234.643 221.172 234.006 221.446C232.69 222.01 232.392 222.227 232.067 222.4C231.606 222.644 231.116 223.076 230.658 223.635C230.384 223.97 230.06 224.052 229.735 224.114C229.69 224.122 229.713 224.034 230.316 223.451C230.918 222.868 232.103 221.764 232.883 221.075C233.664 220.385 234.005 220.144 234.382 219.91C235.147 219.433 235.654 219.167 236.046 218.905C237.563 217.893 238.086 217.708 238.381 217.565C238.724 217.399 239.16 217.221 239.466 217.048C239.58 216.983 239.709 216.956 239.841 216.916C239.99 216.87 239.633 216.995 238.282 217.6C237.349 218.017 236.007 218.846 235.263 219.28C234.434 219.763 234.176 219.936 233.832 220.138C233.518 220.323 233.062 220.604 232.475 220.878C231.474 221.344 230.367 221.962 229.978 222.147C229.92 222.174 229.857 222.187 229.796 222.187C229.735 222.188 229.674 222.168 229.703 222.087C229.733 222.006 229.853 221.866 230.808 221.231C231.764 220.597 233.55 219.473 234.812 218.623C236.073 217.773 236.756 217.231 237.65 216.63C238.543 216.03 239.627 215.388 240.256 215.027C241.215 214.476 241.412 214.402 241.403 214.431C241.378 214.513 241.133 214.602 240.177 215.065C239.22 215.529 237.514 216.332 236.193 217.036C234.873 217.741 233.989 218.323 233.354 218.713C232.375 219.314 231.663 219.571 231.117 219.733C230.534 219.906 229.84 220.158 229.421 220.342C229.254 220.415 229.126 220.565 229.045 220.686C229.009 220.74 229.044 220.807 229.095 220.839C229.38 221.014 229.854 220.547 231.181 219.44C232.333 218.481 234.436 216.688 235.753 215.617C237.069 214.546 237.531 214.245 238.02 213.98C238.989 213.453 239.688 213.166 239.73 213.094C240.013 212.618 238.476 213.669 237.819 214.164C237.099 214.707 236.589 215.231 236.175 215.494C235.762 215.756 235.111 215.941 234.172 216.184C232.986 216.49 231.947 216.691 231.33 216.974C230.154 217.514 229.492 218.698 229.379 219.094C229.354 219.183 229.369 219.266 229.399 219.328C229.429 219.389 229.489 219.429 230.404 218.567C231.318 217.704 233.084 215.938 234.085 214.957C235.248 213.818 235.552 213.632 235.885 213.46C236.114 213.342 236.479 213.188 237.106 212.955C238.609 212.397 239.588 212.07 239.739 211.979C240.125 211.748 240.317 211.664 240.308 211.644C240.28 211.581 240.038 211.664 239.212 211.975C238.386 212.287 236.941 212.889 235.996 213.33C235.05 213.77 234.649 214.031 234.332 214.266C234.014 214.501 233.794 214.702 233.349 215.056C232.254 215.928 231.438 216.549 231.226 216.772C230.911 217.101 230.425 217.138 229.908 217.129C229.829 217.127 229.875 217.039 230.207 216.656C230.539 216.274 231.161 215.571 231.943 214.768C232.725 213.964 233.649 213.081 234.596 212.285C235.544 211.489 236.487 210.806 237.114 210.394C238.479 209.497 239.342 209.294 239.648 209.069C239.766 208.983 239.892 208.907 239.943 208.876C240.04 208.818 238.867 209.53 237.418 210.391C236.42 210.984 235.661 211.739 235.128 212.271C234.852 212.548 234.541 212.576 234.398 212.597C234.369 212.601 234.457 212.497 235.1 212.215C235.744 211.933 236.948 211.451 237.769 211.162C238.974 210.739 239.546 210.711 239.689 210.721C239.83 210.731 239.325 210.772 238.993 210.802C238.316 210.863 237.363 211.075 236.301 211.368C235.192 211.674 234.48 212.109 234.146 212.342C233.634 212.699 233.384 212.86 233.243 212.881C233.162 212.892 233.061 212.861 232.999 212.79C232.938 212.72 232.918 212.599 232.937 212.457C232.981 212.147 233.421 211.587 234.52 210.457C235.253 209.703 236.442 208.684 237.142 208.016C238.078 207.123 238.35 206.718 238.573 206.455C239.173 205.746 239.303 204.936 239.325 203.721C239.344 202.649 238.799 201.713 238.495 201.154C238.407 200.992 238.19 201.886 238.108 203.429C238.056 204.43 238.108 205.876 238.168 206.842C238.229 207.807 238.329 208.249 238.431 208.366C238.533 208.483 238.633 208.262 238.725 207.787C238.817 207.312 238.897 206.589 238.979 205.183C239.06 203.777 239.14 201.71 239.212 200.514C239.299 199.054 239.506 198.548 239.568 197.922C239.606 197.537 239.348 197.015 239.205 196.254C238.879 194.524 238.838 193.416 238.788 193.335C238.732 193.245 238.575 193.818 238.313 195.338C238.107 196.531 237.93 198.605 237.786 200.533C237.642 202.462 237.582 204.188 237.511 205.057C237.44 205.926 237.359 205.886 237.278 205.735C237.068 205.345 236.973 204.572 236.882 203.752C236.844 203.414 236.851 203.233 236.66 201.875C236.469 200.517 236.088 197.988 235.892 196.595C235.695 195.202 235.695 195.021 235.695 194.978C235.695 194.935 235.695 195.036 235.514 197.988C235.334 200.94 234.972 206.741 234.796 209.891C234.62 213.04 234.64 213.361 234.711 213.426C234.883 213.585 235.207 212.501 235.551 211.107C235.749 210.304 235.854 209.272 235.816 207.711C235.778 206.15 235.558 204.082 235.454 202.846C235.322 201.273 235.451 200.556 235.583 200.039C235.625 199.873 235.734 199.943 235.785 200.687C235.837 201.431 235.857 202.856 236.068 204.774C236.279 206.693 236.681 209.061 236.938 210.402C237.195 211.743 237.295 211.984 237.387 212.168C237.479 212.352 237.559 212.473 237.66 212.324C237.762 212.175 237.883 211.754 237.935 211.125C237.987 210.496 237.966 209.673 237.745 207.212C237.524 204.751 237.103 200.676 236.875 198.546C236.648 196.417 236.628 196.357 236.618 196.366C236.55 196.425 236.628 196.659 236.768 198.206C236.898 199.632 237.11 202.363 237.284 204.01C237.458 205.658 237.578 206.139 237.65 206.327C237.723 206.515 237.743 206.395 237.632 204.376C237.522 202.356 237.282 198.442 237.188 196.546C237.094 194.65 237.154 194.891 237.215 195.286C237.483 197.019 237.621 197.612 237.622 197.694C237.623 197.919 237.117 196.968 236.662 195.968C236.088 194.707 235.858 193.762 235.716 193.448C235.588 193.165 235.453 192.849 235.23 192.586C234.978 192.287 234.561 192.362 234.267 192.462C234.152 192.501 234.055 192.683 233.973 192.866C233.891 193.048 233.851 193.269 233.91 194.587C233.97 195.905 234.131 198.314 234.133 200.79C234.135 203.265 233.975 205.734 233.922 207.237C233.87 208.74 233.93 209.201 233.991 209.55C234.226 210.889 235.066 211.927 235.077 212.332C235.09 212.84 234.642 213.547 234.439 214.126C234.399 214.239 234.378 214.299 234.337 214.32C234.297 214.341 234.236 214.321 234.175 214.27C234.038 214.157 233.932 213.856 233.84 212.869C233.768 212.086 233.809 210.718 233.769 209.754C233.729 208.79 233.649 208.268 233.668 206.203C233.687 204.137 233.807 200.544 233.909 198.392C234.011 196.24 234.092 195.638 234.133 195.287C234.215 194.595 234.235 193.584 234.185 192.86C234.171 192.667 234.154 192.504 234.104 192.352C234.079 192.278 234.033 192.22 233.962 192.23C233.892 192.239 233.791 192.319 233.348 192.782C232.905 193.245 232.122 194.088 231.679 194.592C231.13 195.217 230.992 195.643 230.86 196.119C230.758 196.487 230.768 197.001 230.939 198.451C231.07 199.566 231.45 201.427 231.636 202.55C231.822 203.672 231.842 203.993 231.782 204.721C231.722 205.448 231.582 206.572 231.469 207.322C231.357 208.072 231.277 208.413 231.235 209.02C231.194 209.628 231.194 210.491 231.234 211.217C231.274 211.942 231.354 212.504 231.396 213.015C231.519 214.537 231.236 215.148 231.013 215.726C230.929 215.941 230.91 216.002 230.9 215.591C230.89 215.181 230.89 214.298 230.97 213.542C231.116 212.17 231.376 211.362 231.396 210.887C231.408 210.613 231.457 210.272 231.537 209.815C231.618 209.358 231.739 208.796 231.801 207.794C231.863 206.792 231.863 205.367 231.903 203.639C231.943 201.911 232.023 199.924 232.175 198.318C232.327 196.712 232.548 195.548 232.652 194.898C232.771 194.152 232.674 193.984 232.593 193.852C232.503 193.706 232.411 193.538 232.26 193.416C232.181 193.354 232.048 193.375 231.936 193.415C231.424 193.598 230.813 194.585 230.353 195.128C230.111 195.414 229.958 196.228 229.896 197.482C229.831 198.821 230.22 199.679 230.321 200.003C230.42 200.317 230.403 200.994 230.393 201.824C230.387 202.295 230.302 202.599 230.191 203.113C229.999 204.005 229.836 204.788 229.684 205.183C229.569 205.484 229.41 205.862 229.259 206.469C229.07 207.223 229.165 208.212 229.347 209.123C229.459 209.68 229.672 210.502 229.874 211.535C230.091 212.639 230.402 213.931 230.524 214.41C230.548 214.501 230.565 214.582 230.605 214.614C230.685 214.676 231.19 213.721 231.848 212.322C232.144 211.695 232.207 211.262 232.258 209.832C232.298 208.704 232.249 206.756 232.248 205.552C232.248 203.947 232.269 203.393 232.118 202.718C231.998 202.182 231.746 201.261 231.582 200.875C231.418 200.49 231.337 200.671 231.246 201.075C231.154 201.479 231.054 202.101 230.992 203.034C230.93 203.967 230.91 205.192 230.98 206.696C231.05 208.2 231.211 209.946 231.304 210.886C231.396 211.826 231.416 211.906 231.447 211.987C231.477 212.069 231.517 212.149 231.568 212.09C231.619 212.031 231.679 211.83 231.77 211.195C231.862 210.56 231.982 209.496 232.024 208.466C232.066 207.436 232.026 206.473 231.965 205.886C231.885 205.11 231.661 204.832 231.489 204.67C231.337 204.527 231.073 204.588 230.831 204.648C230.306 204.779 229.94 205.598 229.714 205.986C229.485 206.38 229.268 206.635 229.227 206.766C229.133 207.07 229.59 207.384 229.774 207.709C230.042 208.185 230.179 208.459 230.352 208.713C230.385 208.763 230.463 208.724 231.497 207.118C232.532 205.512 234.539 202.32 235.895 200.315C237.25 198.309 237.892 197.587 238.384 197.094C239.157 196.319 239.567 196.052 239.628 195.881C239.719 195.624 239.629 195.383 239.558 195.231C239.321 194.722 238.317 194.431 237.795 194.187C237.307 193.959 237.217 193.639 236.963 193.568C236.817 193.527 236.348 193.698 235.619 194.001C234.942 194.283 234.34 194.671 233.642 194.914C232.366 195.359 231.946 195.099 231.368 194.897C230.981 194.761 230.689 194.612 230.374 194.511C229.941 194.372 229.674 194.247 229.269 194.247C229.077 194.246 228.944 194.408 228.842 194.53C228.795 194.586 228.781 194.651 228.781 194.732C228.779 195.295 229.388 195.868 229.49 196.121C229.617 196.437 229.592 196.78 229.622 197.347C229.636 197.592 229.673 197.915 229.723 198.55C229.804 199.575 229.977 200.328 229.987 200.622C229.998 200.936 230.038 201.261 230.048 201.574C230.058 201.869 230.099 202.153 230.189 203.751C230.272 205.209 230.46 207.979 230.533 209.627C230.626 211.714 230.485 212.271 230.434 212.484C230.323 212.948 230.645 213.948 230.948 215.364C231.215 216.605 231.194 217.36 231.184 217.633C231.153 218.473 231.093 219.53 231.002 219.894C230.815 220.641 230.667 221.293 230.475 221.901C230.296 222.469 230.1 223.075 229.937 223.645C229.896 224.214 229.856 224.477 229.846 224.72C229.835 224.823 229.815 224.883 229.795 224.945" stroke="black" stroke-width="2" stroke-linecap="round"/>
<path d="M226.753 168.679C226.934 168.537 227.339 168.294 228.697 167.821C229.886 167.407 232.122 166.726 233.32 166.354C234.776 165.902 235.105 165.84 235.541 165.648C235.833 165.519 235.998 165.253 236.252 164.979C236.305 164.922 236.263 164.848 236.202 164.807C235.852 164.569 235.191 164.603 234.683 164.553C234.117 164.496 233.751 164.643 233.425 164.724C232.931 164.848 232.19 164.906 231.632 165.28C230.832 165.817 230.647 166.103 230.404 166.245C230.15 166.392 229.998 166.609 229.846 166.843C229.672 167.11 229.269 167.278 228.944 167.522C228.644 167.747 228.457 168.008 228.274 168.302C228.091 168.596 227.929 168.921 227.899 169.417C227.854 170.134 227.888 171.232 227.969 171.597C228.063 172.02 228.131 172.388 228.273 172.692C228.415 172.997 228.496 173.239 228.577 173.483C228.679 173.787 228.8 174.192 228.942 174.597C229.116 175.095 229.125 175.71 229.176 176.23C229.198 176.461 229.206 176.647 229.237 177.24C229.315 178.774 229.227 179.89 229.196 180.183C229.097 181.143 229.287 181.391 229.318 181.786C229.33 181.94 229.369 182.381 229.359 182.989C229.343 183.922 229.268 185.303 229.186 185.689C229.114 186.031 229.165 186.439 229.136 186.894C229.08 187.736 229.186 188.222 229.126 188.619C229.085 188.883 228.963 189.116 228.923 189.501C228.863 190.063 228.659 190.534 228.588 190.869C228.485 191.357 228.517 191.75 228.637 191.995C229.08 192.895 229.712 190.883 230.036 190.507C230.371 190.12 230.645 189.747 230.888 189.453C231.185 189.095 231.415 188.734 231.922 188.186C232.381 187.689 232.956 187.09 233.321 186.847C233.834 186.505 234.192 185.835 234.679 185.448C235.201 185.034 235.651 184.679 236.209 184.273C236.722 183.9 237.173 183.441 237.607 183.128C238.454 182.518 238.754 182.204 239.16 181.829C239.661 181.367 240.155 180.846 240.771 180.198C241.086 179.868 241.31 179.528 241.393 179.304C241.575 178.806 240.198 179.95 238.873 180.881C238.051 181.459 237.135 182.12 236.791 182.465C236.23 183.027 235.657 183.661 235.159 184.107C234.726 184.496 234.237 185.058 233.821 185.647C233.144 186.604 232.371 187.068 232.026 187.291C231.591 187.573 231.175 187.919 230.88 188.163C230.576 188.415 230.283 188.81 229.978 189.046C229.873 189.126 229.734 189.157 229.653 189.178C229.262 189.277 229.633 188.206 229.551 187.962C229.511 187.841 229.53 187.678 229.621 187.516C229.796 187.205 230.721 186.748 231.724 186.05C232.178 185.734 232.465 185.413 232.821 184.996C233.604 184.08 234.132 183.38 234.375 183.127C234.857 182.626 235.45 182.041 236.289 181.243C236.817 180.741 237.314 180.482 237.802 180.136C238.269 179.804 238.816 179.386 239.16 179.092C239.512 178.791 240.793 177.872 241.574 177.256C241.698 177.158 241.757 177.013 241.788 176.911C241.8 176.871 241.718 176.85 241.627 176.86C241.193 176.906 240.686 177.193 239.25 177.961C238.12 178.565 237.44 179.181 237.127 179.433C236.443 179.984 236.203 180.315 235.888 180.641C235.545 180.995 234.967 181.633 234.631 182.069C234.273 182.536 233.651 183.01 233.252 183.368C232.626 183.931 231.803 184.656 231.125 185.131C230.626 185.48 230.364 185.709 230.069 185.853C229.184 186.285 230.18 184.314 230.199 183.897C230.214 183.585 230.726 183.622 231.219 183.381C232.407 182.8 233.22 182.244 233.743 181.781C234.192 181.385 234.989 180.636 235.563 180.133C236.138 179.63 236.459 179.389 236.815 179.064C237.58 178.367 238.246 177.664 238.783 177.208C239.415 176.671 239.729 176.466 240.113 176.091C240.726 175.494 240.965 175.209 241.239 174.844C241.477 174.527 241.776 174.377 241.91 174.285C242.083 174.166 241.334 174.335 240.437 174.838C239.718 175.241 238.557 176.103 237.716 176.698C236.407 177.624 235.838 178.106 235.656 178.308C235.329 178.671 234.844 179.119 234.298 179.626C234.011 179.892 233.709 180.113 233.345 180.326C232.498 180.82 232.148 181.107 231.843 181.269C231.507 181.449 231.135 181.634 230.809 181.847C230.369 182.135 229.918 182.465 229.613 182.719C229.552 182.77 229.491 182.81 229.46 182.58C229.363 181.854 229.49 181.271 229.631 181.149C230.112 180.737 231.41 180.341 232.255 179.953C232.691 179.754 233.138 179.446 234.044 178.802C234.735 178.312 235.794 177.355 236.373 176.849C237.187 176.138 237.559 175.615 237.843 175.27C238.255 174.768 238.613 174.438 239.573 173.65C240.391 172.979 240.681 172.331 240.885 172.015C240.997 171.841 241.149 171.721 241.129 171.67C241.108 171.613 240.909 171.759 240.144 172.312C239.379 172.865 238.014 173.889 237.22 174.517C236.217 175.31 235.819 175.753 235.374 176.117C234.753 176.625 234.358 176.788 233.508 177.102C232.933 177.315 232.19 177.821 231.55 178.399C231.234 178.685 230.911 178.796 230.465 179.069C230.345 179.143 230.223 179.201 230.14 179.192C229.99 179.175 229.977 178.437 230.057 177.515C230.087 177.167 230.298 177.095 230.411 177.043C230.768 176.881 231.353 176.81 231.699 176.648C231.879 176.563 232.446 176.204 233.326 175.567C234.132 174.984 234.518 174.58 234.629 174.448C234.777 174.274 235.406 173.732 236.347 172.852C237.123 172.125 237.56 171.781 237.791 171.54C238.288 171.02 238.856 170.626 239.31 170.364C240.373 169.749 241.063 169.311 241.463 168.812C241.528 168.73 241.554 168.64 241.524 168.568C241.495 168.497 241.394 168.436 241.282 168.415C240.849 168.334 240.362 168.637 239.108 169.323C237.877 169.997 237.176 170.665 236.984 170.756C236.618 170.929 236.305 171.413 235.859 171.83C235.222 172.423 234.824 172.915 234.641 173.087C234.581 173.145 234.659 173.199 234.751 173.2C234.966 173.201 235.287 173.079 235.782 172.948C236.472 172.765 237.111 172.511 237.878 172.3C240.037 171.704 240.317 171.517 240.328 171.517C240.553 171.511 239.852 171.639 239.64 171.589C239.404 171.532 239.203 171.396 239.031 171.134C238.512 170.342 238.675 169.454 238.635 168.704C238.622 168.452 238.515 168.475 238.393 168.566C238.09 168.792 237.885 169.063 237.613 169.375C237.062 170.009 236.588 170.442 236.265 170.784C235.57 171.522 234.947 172.326 234.471 172.731C234.13 173.021 233.509 173.339 232.81 173.815C232.148 174.266 231.642 174.738 231.074 175.216C230.914 175.351 230.809 175.491 230.657 175.552C230.523 175.606 230.504 174.447 230.524 172.886C230.537 171.913 230.119 171.66 229.977 171.407C229.818 171.121 229.794 169.705 229.734 168.852C229.729 168.778 229.693 168.7 229.653 168.709C229.508 168.741 229.45 169.203 229.389 169.94C229.301 171.015 229.389 171.82 229.449 172.204C229.654 173.503 230.139 174.658 230.26 175.054C230.311 175.22 230.301 175.369 230.362 175.49C230.394 175.556 230.462 175.612 230.503 175.553C230.852 175.049 230.625 174.218 230.656 173.608C230.67 173.323 230.847 172.517 231.08 171.223C231.414 169.368 231.315 168.985 231.406 168.669C231.422 168.612 231.536 168.658 231.598 168.708C231.726 168.814 231.841 169.263 232.094 170.443C232.272 171.276 232.446 172.606 232.58 173.378C232.796 174.63 232.897 174.903 232.907 175.054C232.911 175.126 232.937 175.186 232.947 175.056C232.957 174.927 232.957 174.606 232.877 174.029C232.797 173.452 232.636 172.629 232.503 172.034C232.293 171.093 232.147 170.566 232.116 170.192C232.041 169.272 232.268 168.497 232.369 168.294C232.389 168.253 232.47 168.293 232.521 168.384C232.652 168.616 232.774 169.623 233.016 171.051C233.294 172.686 233.929 173.239 234.123 173.493C234.236 173.643 234.336 173.788 234.427 173.788C234.505 173.789 234.538 173.549 234.589 172.934C234.64 172.319 234.68 171.275 234.681 170.496C234.682 169.235 234.52 168.358 234.388 167.73C234.315 167.383 234.276 167.219 234.245 167.188C233.678 166.61 234.882 169.365 235.065 169.863C235.353 170.643 235.471 170.968 235.593 171.313C235.629 171.416 235.694 171.535 235.755 171.587C235.816 171.639 235.876 171.619 235.987 171.368C236.099 171.117 236.259 170.635 236.352 169.855C236.445 169.075 236.465 168.011 236.455 167.432C236.445 166.854 236.405 166.794 236.354 166.733C236.249 166.606 236.101 166.529 235.889 166.499C235.58 166.455 235.21 166.529 234.705 166.68C233.081 167.167 232.471 167.725 232.45 167.746C231.771 168.405 234.861 167.806 235.358 167.837C235.551 167.867 235.734 167.908 236.017 167.938C236.199 167.949 236.46 167.949 236.85 168.009" stroke="black" stroke-width="2" stroke-linecap="round"/>
<path d="M216.5 171.5C220.446 197.217 221 206.5 216.5 238" stroke="black"/>
<path d="M228.28 176.929C227.642 174.539 227.321 172.405 227.083 171.682C226.785 170.779 225.355 173.617 224.42 176.756C223.703 179.164 225.448 181.602 227.023 183.769C227.293 184.14 227.478 184.278 227.585 184.175C227.946 183.83 227.748 181.371 227.589 178.203C227.505 176.545 226.686 173.967 225.941 170.559C225.67 169.313 225.617 169.049 225.59 169.071C225.563 169.094 225.563 169.41 225.563 169.736" stroke="black" stroke-width="2" stroke-linecap="round"/>
<path d="M226.515 174.029C226.671 173.824 227.128 173.343 227.798 172.637C228.401 172.002 228.656 171.562 228.686 171.435C228.699 171.381 228.633 171.344 228.59 171.325C228.516 171.293 228.367 171.319 228.138 171.355C227.881 171.395 227.341 171.536 226.701 171.675C226.173 171.789 225.729 172.02 225.361 172.141C224.836 172.313 224.532 172.335 224.024 172.486C223.834 172.543 223.672 172.541 223.545 172.511C223.448 172.488 223.754 172.096 224.159 171.679C224.351 171.48 224.757 171.344 225.343 171.169C225.698 171.063 225.861 171.053 225.897 171.047C226.046 171.022 225.368 171.004 225.07 171.095C224.881 171.152 224.605 171.27 224.201 171.415C223.679 171.602 223.129 171.717 222.665 171.91C221.817 172.262 221.592 172.492 221.193 172.655C221.109 172.69 221.071 172.686 221.041 172.704C220.906 172.783 220.877 172.976 220.666 173.187C220.35 173.504 219.778 173.713 219.553 173.841C219.48 173.883 219.389 173.896 219.293 173.938C219.179 173.987 219.123 174.113 219.087 174.222C218.998 174.486 219.243 174.814 219.412 175.201C219.521 175.448 219.473 175.973 219.516 176.411C219.523 176.486 219.558 176.544 219.72 177.048C219.882 177.552 220.181 178.498 220.419 179.698C220.657 180.898 220.825 182.324 220.923 183.094C221.031 183.938 221.118 184.297 221.191 184.769C221.219 184.952 221.216 185.025 221.198 185.05C221.18 185.075 221.144 185.051 221.101 184.985C221.059 184.918 221.011 184.811 220.908 184.468C220.806 184.125 220.65 183.55 220.552 183.116C220.393 182.412 220.381 181.943 220.375 181.653C220.37 181.42 220.321 181.18 220.272 180.98C220.215 180.746 220.199 180.455 220.163 180.164C220.138 179.96 220.043 179.537 219.91 179.041C219.779 178.555 219.848 178.204 219.873 177.747C219.893 177.363 219.897 176.668 219.921 176.334C219.945 176 219.981 176.048 220.071 176.199C220.529 176.961 220.875 177.27 221.172 177.362C221.373 177.424 221.65 177.296 221.909 177.157C222.118 177.046 222.435 176.753 222.84 176.367C223.012 176.202 223.089 176.076 223.258 175.871C223.427 175.665 223.679 175.378 224.054 174.888C224.429 174.399 224.92 173.716 225.143 173.382C225.366 173.049 225.306 173.085 224.886 173.654C224.466 174.223 223.687 175.325 223.155 176.168C222.622 177.012 222.358 177.563 222.21 177.894C222.063 178.226 222.039 178.322 222.038 178.395C222.038 178.469 222.062 178.516 222.122 178.517C222.285 178.519 222.629 178.157 223.106 177.62C223.341 177.355 223.523 177.071 223.711 176.762C223.9 176.452 224.079 176.117 224.25 175.734C224.602 174.944 224.748 174.441 224.766 174.374C224.769 174.365 224.773 174.415 224.683 175.308C224.593 176.201 224.413 177.938 224.321 178.862C224.222 179.846 224.216 179.981 224.234 180.071C224.241 180.106 224.336 180.055 224.57 179.791C224.805 179.527 225.2 179.035 225.667 178.387C226.134 177.739 226.661 176.948 226.478 177.302C226.294 177.655 225.384 179.176 224.765 180.331C224.146 181.486 223.847 182.229 223.693 182.635C223.539 183.042 223.539 183.09 223.568 183.114C223.598 183.139 223.658 183.139 223.737 183.091C223.816 183.043 223.912 182.947 224.242 182.539C224.573 182.13 225.136 181.411 225.57 180.903C226.261 180.094 226.635 179.812 226.744 179.752C226.805 179.718 226.876 179.668 226.931 179.715C226.986 179.762 227.022 179.906 227.023 180.028C227.023 180.15 226.987 180.246 226.633 180.954C226.279 181.662 225.609 182.979 225.257 183.718C224.894 184.576 224.893 184.783 224.93 184.94C224.954 185.014 224.99 185.073 225.027 185.135" stroke="black" stroke-width="4" stroke-linecap="round"/>
<path d="M221.397 205.751C221.385 205.655 221.361 205.365 221.403 205.003C221.424 204.823 221.445 204.511 221.529 203.967C221.613 203.423 221.757 202.657 221.861 202.022C221.965 201.388 222.025 200.909 222.056 200.602C222.125 199.91 222.159 199.473 222.25 198.972C222.283 198.786 222.304 198.386 222.353 197.734C222.401 197.085 222.281 196.474 222.166 195.997C222.087 195.669 222.002 195.504 221.942 195.324C221.824 194.97 221.676 194.562 221.597 194.247C221.567 194.125 221.555 194.077 221.506 194.262C221.458 194.447 221.375 194.866 221.325 195.285C221.276 195.705 221.264 196.112 221.294 196.705C221.324 197.298 221.396 198.065 221.534 198.873C221.673 199.681 221.877 200.508 222.096 201.34C222.314 202.173 222.542 202.988 222.683 203.641C222.824 204.294 222.872 204.761 222.891 205.313C222.909 205.865 222.897 206.488 222.873 206.917C222.821 207.847 222.752 208.156 222.74 208.466C222.74 208.471 222.74 208.342 222.68 207.819C222.62 207.296 222.5 206.374 222.451 205.678C222.401 204.981 222.425 204.538 222.461 204.202C222.498 203.866 222.545 203.65 222.624 203.162C222.703 202.673 222.81 201.919 222.848 200.853C222.885 199.788 222.85 198.434 222.837 197.755C222.825 197.076 222.836 197.112 222.831 197.951C222.825 198.79 222.801 200.431 222.962 202.342C223.124 204.253 223.471 206.385 223.824 207.974C224.176 209.564 224.523 210.546 224.756 211.142C224.989 211.738 225.097 211.917 225.17 212.034C225.244 212.15 225.28 212.198 225.316 212.091C225.353 211.984 225.389 211.72 225.335 209.441C225.282 207.161 225.138 202.873 224.986 200.335C224.835 197.797 224.679 197.138 224.587 196.769C224.494 196.399 224.47 196.339 224.482 196.362C224.494 196.386 224.542 196.493 224.818 198.579C225.094 200.665 225.597 204.725 225.886 206.936C226.175 209.148 226.235 209.387 226.314 209.631C226.393 209.874 226.488 210.113 226.574 210.231C226.659 210.348 226.731 210.336 226.828 210.222C226.925 210.108 227.045 209.893 227.148 209.62C227.252 209.347 227.336 209.024 227.451 207.174C227.566 205.325 227.709 201.959 227.754 200.04C227.798 198.12 227.738 197.749 227.695 197.528C227.652 197.307 227.628 197.247 227.61 197.192C227.591 197.137 227.58 197.089 227.49 197.586C227.399 198.082 227.232 199.124 227.098 199.763C226.963 200.401 226.867 200.605 226.769 200.815" stroke="black" stroke-width="4" stroke-linecap="round"/>
<path d="M221.869 194.064C221.869 193.98 221.893 193.762 221.941 193.156C221.98 192.67 221.989 191.819 221.996 191.339C222.005 190.652 221.917 190.412 221.869 190.169C221.818 189.912 221.736 189.65 221.663 189.322C221.634 189.192 221.603 188.864 221.501 188.381C221.348 187.662 221.083 187.35 220.95 186.711C220.875 186.352 220.889 185.696 220.847 185.425C220.799 185.115 220.816 186.221 220.894 186.686C220.998 187.301 221.154 187.457 221.251 187.645C221.36 187.854 221.372 188.134 221.403 188.762C221.425 189.223 221.457 189.732 221.464 190.353C221.467 190.68 221.361 190.869 221.331 191.075C221.301 191.279 221.288 192.193 221.324 192.786C221.332 192.915 221.433 193.047 221.559 193.144C221.607 193.18 221.65 193.145 221.687 193.055C221.723 192.964 221.759 192.809 221.778 192.501C221.796 192.193 221.796 191.738 221.73 191.174C221.664 190.61 221.533 189.952 221.459 189.474C221.343 188.726 221.337 188.294 221.3 188.047C221.277 187.884 221.228 187.546 221.113 187.062C221.032 186.717 220.902 186.371 220.793 185.931C220.683 185.484 220.671 185.1 220.683 184.924C220.697 184.725 220.78 185.351 220.726 185.672C220.652 186.111 220.454 186.427 220.381 186.816C220.311 187.185 220.368 187.795 220.435 188.134C220.514 188.543 220.839 189.004 221.152 189.541C221.537 190.2 221.832 190.651 221.905 190.85C222.007 191.131 222.098 191.316 222.153 191.516C222.164 191.558 222.159 191.595 222.195 191.601C222.303 191.621 222.533 191.416 222.846 191.096C223.012 190.927 223.16 190.717 223.498 190.151C223.836 189.585 224.351 188.662 224.939 187.421C225.528 186.179 226.175 184.646 226.592 183.706C227.009 182.767 227.177 182.467 226.88 183.134C226.583 183.8 225.816 185.441 225.415 186.304C225.014 187.167 225.002 187.203 225.002 187.24C225.002 187.276 225.014 187.312 225.038 187.325C225.207 187.412 225.557 186.976 226.105 186.29C226.493 185.804 227.071 185.006 227.386 184.575C227.7 184.144 227.724 184.096 227.179 184.526C226.635 184.957 225.521 185.867 224.785 186.42C223.761 187.189 223.345 187.325 223.243 187.343C223.189 187.353 223.128 187.349 223.073 187.337C223.019 187.325 222.971 187.301 222.934 187.229C222.843 187.049 222.921 186.686 223.119 186.18C223.366 185.55 223.659 185.184 223.821 185.004C224.102 184.691 224.552 184.362 225.023 184.085C225.41 183.856 225.931 183.672 226.456 183.467C226.898 183.295 227.059 183.139 227.107 183.127C227.133 183.12 227.108 183.234 226.88 183.72C226.652 184.207 226.209 185.093 225.933 185.729C225.657 186.366 225.561 186.725 225.493 187.138C225.426 187.55 225.39 188.005 225.384 188.414C225.377 188.822 225.401 189.169 225.509 189.719C225.617 190.269 225.809 191.012 225.926 191.437C226.156 192.276 226.309 192.817 226.327 192.866C226.331 192.878 226.333 192.771 226.561 191.243C226.788 189.714 227.243 186.744 227.484 185.076C227.724 183.408 227.736 183.132 227.73 183.008C227.725 182.885 227.701 182.92 227.545 183.328C227.389 183.736 227.101 184.515 226.875 185.251C226.649 185.987 226.493 186.658 226.401 187.692C226.309 188.727 226.285 190.104 226.345 191.448C226.404 192.793 226.548 194.062 226.616 194.782C226.696 195.632 226.612 195.853 226.491 196.004C226.43 196.082 226.323 196.119 226.232 196.138C226.06 196.173 225.862 196.085 225.669 195.994C225.519 195.924 225.175 195.519 224.715 194.927C224.473 194.614 224.362 194.272 224.217 193.819C224.079 193.389 224.095 192.821 224.173 192.091C224.264 191.238 224.506 190.737 224.482 190.922C224.451 191.169 224.315 191.718 224.259 192.229C224.204 192.74 224.216 193.196 224.282 193.688C224.348 194.18 224.467 194.695 224.625 195.163C224.783 195.632 224.974 196.04 225.115 196.315C225.255 196.591 225.339 196.723 225.406 196.815C225.474 196.906 225.522 196.954 225.607 196.967" stroke="black" stroke-width="4" stroke-linecap="round"/>
<path d="M228.003 227.745C227.691 227.949 227.38 228.153 226.836 228.533C226.292 228.913 225.526 229.464 225.023 229.808C224.318 230.291 223.987 230.431 223.818 230.491C223.448 230.624 222.887 230.83 222.686 230.975C222.568 231.061 222.342 231.204 222.023 231.458C221.378 231.969 221.083 232.076 220.956 232.203C220.784 232.375 220.49 232.536 220.291 232.681C220.142 232.79 220.042 232.935 219.801 233.291C219.682 233.467 219.607 233.624 219.432 233.812C219.233 234.025 219.051 234.157 218.941 234.266C218.89 234.318 218.953 234.026 219.073 233.605C219.312 232.769 219.558 232.138 219.636 231.951C219.688 231.827 219.835 231.379 220.071 230.714C220.276 230.135 220.32 229.948 220.434 229.474C220.528 229.081 220.728 228.389 220.832 227.995C220.956 227.531 221.045 227.192 221.178 226.756C221.252 226.516 221.336 226.163 221.469 225.704C221.522 225.521 221.53 225.436 221.716 224.86C221.901 224.284 222.261 223.218 222.464 222.597C222.713 221.835 222.74 221.636 222.722 221.576C222.716 221.555 222.668 221.587 222.434 221.947C222.2 222.306 221.769 223.001 221.529 223.401C221.242 223.878 221.108 224.378 220.932 225.025C220.85 225.327 220.744 225.638 220.606 226.085C220.501 226.42 220.393 226.584 220.303 226.812C219.918 227.786 219.849 228.095 219.686 228.5C219.6 228.713 219.619 228.942 219.588 229.124C219.565 229.269 219.546 229.941 219.588 230.238C219.629 230.525 219.655 229.694 219.667 229.543C219.687 229.283 219.727 229.041 219.841 228.279C219.943 227.599 220.183 226.331 220.3 225.641C220.417 224.951 220.417 224.88 220.459 224.549C220.501 224.219 220.585 223.632 220.694 223.012C220.803 222.392 220.935 221.758 221.008 221.413C221.12 220.89 221.083 220.596 221.064 220.415C221.059 220.366 221.046 220.318 220.992 221.096C220.938 221.874 220.842 223.479 220.811 224.455C220.78 225.432 220.816 225.731 220.84 225.987C220.909 226.704 220.925 227.017 220.961 227.363C220.999 227.722 221.142 228.396 221.215 228.779C221.263 229.027 221.36 229.389 221.445 229.62C221.46 229.661 221.505 229.681 221.566 229.687C221.626 229.693 221.71 229.681 222.855 228.783C224 227.884 226.204 226.1 227.429 225.121C228.654 224.141 228.834 224.022 228.866 223.972C228.916 223.896 228.584 224.007 227.882 224.271C227.255 224.507 226.067 224.918 225.33 225.194C224.333 225.567 223.975 225.749 223.794 225.803C223.687 225.835 223.563 225.798 223.43 225.738C223.375 225.712 223.369 225.653 223.381 225.575C223.393 225.496 223.429 225.388 223.962 224.668C224.496 223.948 225.526 222.618 226.074 221.916C226.654 221.173 226.72 221.104 226.696 221.127C226.642 221.181 226.529 221.342 225.719 222.117C224.909 222.892 223.411 224.281 222.658 224.967C221.905 225.653 221.941 225.593 222.384 224.928C222.828 224.262 223.678 222.992 224.206 222.254C224.734 221.517 224.914 221.349 225.036 221.244C225.159 221.14 225.219 221.104 225.281 221.067" stroke="black" stroke-width="4" stroke-linecap="round"/>
<path d="M220.925 222.338C221.009 222.098 221.093 221.858 221.34 221.202C221.587 220.546 221.994 219.48 222.335 218.074C222.677 216.669 222.94 214.956 223.076 214.002C223.212 213.047 223.212 212.904 223.224 212.716C223.25 212.3 223.368 211.743 223.513 211.217C223.623 210.82 223.875 210.496 224.088 210.234C224.306 209.966 224.47 209.78 224.518 209.743C224.603 209.876 224.627 210.129 224.597 210.532C224.567 210.804 224.508 211.211 224.446 211.631" stroke="black" stroke-width="4" stroke-linecap="round"/>
<path d="M227.894 211.885C227.475 212.687 227.056 213.49 226.756 214.184C226.456 214.879 226.289 215.442 226.154 216.02C226.02 216.597 225.924 217.172 225.875 217.546C225.805 218.073 225.837 218.272 225.891 218.315C225.925 218.341 226.005 218.297 226.078 218.225C226.151 218.153 226.223 218.033 226.41 217.54C226.597 217.047 226.896 216.185 227.116 215.273C227.336 214.362 227.468 213.428 227.536 212.905C227.604 212.381 227.604 212.298 227.562 212.302C227.52 212.307 227.436 212.403 227.279 212.674C227.122 212.945 226.895 213.388 226.676 213.946C226.457 214.503 226.253 215.162 226.13 215.633C226.007 216.104 225.971 216.368 225.953 216.659C225.915 217.261 225.982 217.894 226.073 218.396C226.107 218.588 226.151 218.646 226.194 218.659C226.236 218.672 226.284 218.636 226.309 218.594C226.334 218.551 226.334 218.503 226.334 218.454" stroke="black" stroke-width="4" stroke-linecap="round"/>
<path d="M224.918 219.18C224.618 219.599 224.319 220.018 224.165 220.21C224.01 220.402 224.01 220.354 224.058 220.198C224.106 220.041 224.202 219.778 224.221 219.624C224.241 219.471 224.181 219.435 224 219.446C223.82 219.458 223.52 219.517 223.073 219.626C222.035 219.878 221.397 220.063 221.325 220.069C221.148 220.084 221.059 219.798 220.914 219.381C220.748 218.906 221.009 218.709 221.076 218.503C221.131 218.335 221.227 218.201 221.288 218.019C221.359 217.808 221.409 217.512 221.53 217.004C221.61 216.668 221.663 216.447 221.717 216.205C221.766 215.991 221.844 215.47 221.971 214.655C222.073 214.002 222.026 213.592 222.056 213.267C222.076 213.049 222.098 212.726 222.141 212.374C222.228 211.648 222.328 211.196 222.365 211.039C222.466 210.603 222.304 209.844 222.335 209.369C222.351 209.115 222.377 208.825 222.407 208.559C222.429 208.365 222.353 208.22 222.305 208.068C222.276 207.979 222.256 207.892 222.226 207.856C222.191 207.814 222.147 207.964 222.111 208.007C222.071 208.054 221.894 207.965 221.719 207.989C221.56 208.01 221.735 208.315 221.79 208.556C221.887 208.982 221.76 209.258 221.724 209.488C221.708 209.587 221.687 209.958 221.693 210.466C221.696 210.687 221.724 211.166 221.712 211.874C221.703 212.361 221.615 212.597 221.579 212.845C221.525 213.211 221.518 213.795 221.5 213.959C221.475 214.185 221.409 214.424 221.385 214.66C221.367 214.837 221.312 215.029 221.294 215.45C221.257 216.325 221.276 216.989 221.258 217.188C221.252 217.399 221.24 217.546 221.216 217.918C221.204 218.254 221.192 218.889 221.179 219.543" stroke="black" stroke-width="4" stroke-linecap="round"/>
<path d="M207.466 181.225C207.466 181.146 207.466 181.067 207.483 181.037C207.5 181.008 207.534 181.03 207.557 181.093C207.68 181.426 207.739 182.213 207.814 182.76C207.907 183.439 207.923 183.681 207.985 184.158C208.031 184.511 208.127 185.087 208.173 185.418C208.229 185.816 208.265 186.272 208.334 186.973C208.388 187.526 208.346 187.829 208.346 188.034C208.345 188.182 208.391 188.419 208.499 188.954C208.607 189.49 208.788 190.315 208.898 190.78C209.028 191.328 209.145 191.519 209.316 191.866C209.594 192.432 209.705 192.868 209.705 192.926C209.706 193.208 209.249 192.458 209.066 192.372C208.744 192.221 208.357 192.287 208.3 192.19C208.157 191.946 208.367 191.318 208.494 190.99C208.571 190.788 208.62 190.608 208.688 190.128C208.727 189.855 208.734 189.285 208.694 188.757C208.643 188.079 208.574 187.899 208.483 187.727C208.438 187.641 208.312 188.09 208.243 188.637C208.113 189.673 208.163 189.953 208.123 190.308C208.073 190.752 208.174 190.914 208.26 191.069C208.283 191.112 208.322 191.154 208.357 191.183C208.391 191.212 208.425 191.223 208.493 191.218C208.562 191.212 208.664 191.19 209.236 190.85C209.809 190.51 210.85 189.854 212.376 188.996C213.902 188.137 215.882 187.097 217.195 186.476C218.509 185.855 219.098 185.685 219.418 185.592C219.738 185.499 219.772 185.487 219.009 185.736C218.245 185.985 216.684 186.494 215.79 186.807C214.895 187.12 214.714 187.222 214.434 187.41C214.154 187.598 213.781 187.87 213.509 188.055C212.862 188.496 212.608 188.572 212.318 188.698C211.94 188.861 211.672 188.835 211.449 188.864C211.375 188.873 211.273 188.87 211.204 188.853C211.134 188.836 211.1 188.802 211.094 188.722C211.078 188.518 211.202 188.254 211.401 187.935C211.52 187.744 211.724 187.526 211.981 187.273C212.239 187.021 212.556 186.75 213.85 185.92C215.144 185.09 217.407 183.71 218.533 183.01C219.659 182.31 219.58 182.333 218.526 182.712C217.473 183.092 215.448 183.827 214.264 184.279C213.079 184.732 212.796 184.879 212.538 185.039C212.039 185.349 211.785 185.578 211.598 185.732C210.852 186.343 210.598 186.424 210.42 186.487C210.382 186.501 210.346 186.482 210.34 186.447C210.334 186.413 210.356 186.357 210.787 185.79C211.217 185.224 212.054 184.149 212.615 183.477C213.176 182.804 213.437 182.567 214.131 182.06C214.825 181.553 215.945 180.784 216.538 180.37C217.171 179.93 217.461 179.73 217.873 179.473C218.026 179.377 218.058 179.34 218.019 179.323C217.979 179.305 217.866 179.305 217.129 179.617C216.392 179.928 215.035 180.55 214.29 180.899C213.546 181.247 213.455 181.304 213.25 181.401C212.734 181.645 212.323 181.796 212.073 181.887C211.633 182.047 211.159 182.309 210.788 182.532C210.533 182.685 210.369 182.79 210.226 182.825C210.164 182.84 210.118 182.836 210.1 182.814C210.082 182.791 210.094 182.746 210.235 182.474C210.377 182.201 210.648 181.704 210.924 181.295C211.427 180.548 211.819 180.209 212.006 180.066C212.286 179.854 212.561 179.706 213.089 179.411C213.528 179.166 214.306 178.709 214.77 178.431C215.235 178.152 215.359 178.062 215.604 177.851C216.22 177.322 216.675 176.918 216.829 176.815C217.191 176.574 217.749 176.312 218.046 176.135C218.308 175.979 217.408 176.128 217.054 176.22C216.753 176.298 216.12 176.516 215.74 176.643C215.437 176.744 215.214 176.916 214.382 177.481C214.206 177.6 214.163 177.648 213.924 177.835C213.686 178.022 213.256 178.35 212.956 178.57C212.503 178.901 212.254 179.065 212.106 179.185C211.786 179.444 211.069 179.864 210.683 180.019C210.311 180.231 210.061 180.39 209.866 180.528C209.831 180.551 209.798 180.562 209.728 180.574" stroke="black" stroke-width="4" stroke-linecap="round"/>
<path d="M209.557 196.103C209.545 196.023 209.534 195.944 209.506 195.355C209.477 194.765 209.432 193.668 209.392 193.108C209.351 192.549 209.318 192.56 209.232 192.617C208.756 192.933 208.563 193.302 208.46 193.519C208.245 193.972 208.118 194.216 208.02 194.479C207.954 194.658 207.946 194.912 207.985 195.108C208.025 195.301 208.287 195.937 208.363 196.49C208.374 196.57 208.38 196.627 208.385 196.979C208.391 197.33 208.391 197.975 208.386 198.335C208.379 198.753 208.357 199.014 208.351 199.351C208.348 199.542 208.311 199.69 208.294 200.081C208.259 200.891 208.277 201.495 208.26 201.638C208.231 201.882 208.288 202.158 208.317 202.443C208.365 202.921 208.38 203.311 208.397 203.632C208.411 203.897 208.482 204.214 208.534 204.568C208.551 204.66 208.574 204.751 208.585 204.826C208.597 204.9 208.597 204.957 208.631 205.084" stroke="black" stroke-width="4" stroke-linecap="round"/>
<path d="M209.385 203.576C209.453 203.496 209.521 203.417 209.856 202.867C210.19 202.317 210.79 201.299 211.133 200.679C211.476 200.058 211.544 199.866 211.646 199.416C211.749 198.966 211.885 198.265 211.966 197.87C212.047 197.474 212.07 197.407 212.144 197.117C212.347 196.32 212.504 195.704 212.573 195.482C212.664 195.186 212.699 194.938 212.756 194.654C212.87 194.082 212.882 193.59 212.876 193.384C212.866 193.004 212.711 192.528 212.557 192.304C212.477 192.188 212.334 192.172 212.265 192.132C212.232 192.113 212.197 192.103 212.162 192.137C212.068 192.23 212.059 192.388 212.048 192.542C212.041 192.639 212.014 192.775 211.968 194.366C211.923 195.958 211.855 199.001 211.808 200.647C211.762 202.294 211.74 202.453 211.728 202.568C211.689 202.957 211.648 203.346 211.591 203.671C211.562 203.835 211.568 203.952 211.556 204.021C211.551 204.055 211.568 204.089 211.596 204.101C211.757 204.168 211.899 203.896 212.476 203.064C213.013 202.291 214.027 200.795 214.642 199.856C215.257 198.917 215.438 198.578 215.672 197.984C215.907 197.391 216.19 196.554 216.369 195.823C216.549 195.092 216.617 194.492 216.635 193.855C216.653 193.218 216.619 192.562 216.579 192.105C216.518 191.408 216.368 190.94 216.191 190.49C216.102 190.262 215.981 190.051 215.877 190.087C215.774 190.123 215.683 190.418 215.354 191.955C215.024 193.492 214.459 196.264 214.162 197.799C213.865 199.334 213.853 199.549 213.853 199.688C213.853 199.884 213.899 199.987 213.967 200.078C214.148 200.32 214.526 200.25 214.772 200.279C215.255 200.335 215.804 200.069 216.143 199.857C216.252 199.789 216.376 199.636 216.53 199.425C216.685 199.213 216.855 198.931 217.118 198.208C217.38 197.485 217.731 196.332 217.957 195.132C218.183 193.932 218.273 192.722 218.292 191.94C218.31 191.158 218.253 190.841 218.202 190.616C218.053 189.969 217.75 189.624 217.619 189.402C217.588 189.351 217.567 189.316 217.544 189.315C217.521 189.315 217.499 189.349 217.232 190.497C216.966 191.646 216.457 193.909 216.02 196.234C215.582 198.559 215.231 200.878 215.051 202.185C214.87 203.493 214.87 203.72 214.876 203.876C214.888 204.229 214.984 204.567 215.047 204.804C215.052 204.821 215.087 204.776 215.155 204.493C215.223 204.209 215.336 203.678 215.649 202.606C215.962 201.535 216.471 199.94 216.824 198.626C217.176 197.312 217.357 196.328 217.417 195.923C217.476 195.518 217.408 195.721 217.322 196.115C217.236 196.508 217.135 197.085 217.037 198.429C216.939 199.772 216.849 201.865 216.819 203.022C216.789 204.18 216.823 204.338 216.863 204.482C216.991 204.939 217.098 205.231 217.195 205.488C217.257 205.652 217.098 204.834 217.195 204.372C217.232 204.192 217.325 203.957 217.496 203.569C217.667 203.181 217.927 202.649 218.146 202.121C218.365 201.592 218.535 201.083 218.628 200.793C218.721 200.502 218.732 200.446 218.726 200.451C218.668 200.502 218.664 200.661 218.613 201.403C218.566 202.077 218.505 203.355 218.459 204.059C218.39 204.853 218.355 205.003 218.327 205.106C218.31 205.152 218.287 205.186 218.195 205.221" stroke="black" stroke-width="4" stroke-linecap="round"/>
<path d="M219.464 207.004C219.339 206.981 219.099 206.912 218.634 206.816C218.228 206.732 217.468 206.618 216.976 206.548C216.282 206.449 215.889 206.432 215.535 206.381C215.202 206.333 214.974 206.284 214.554 206.329C214.201 206.367 213.569 206.465 212.971 206.494C212.373 206.524 211.83 206.49 211.534 206.467C211.109 206.434 210.838 206.341 210.558 206.261C210.331 206.196 210.14 206.192 209.918 206.107C209.599 205.985 209.398 205.861 209.22 205.804C209.077 205.758 208.827 205.735 208.586 205.707C208.529 205.7 208.461 205.701 208.415 205.718C208.369 205.735 208.346 205.769 208.334 205.809C208.285 205.979 208.459 206.282 208.562 206.534C208.669 206.796 208.757 207.003 208.774 207.26C208.795 207.574 208.78 207.963 208.729 208.1C208.673 208.249 208.427 208.408 208.345 208.478C208.001 208.776 208.482 207.85 208.551 207.553C208.569 207.474 208.563 207.394 208.546 207.375C208.447 207.269 208.403 207.665 208.397 207.922C208.391 208.183 208.505 208.454 208.579 208.592C208.594 208.619 208.653 208.592 208.637 208.598C208.543 208.629 208.426 208.66 208.363 208.694C208.296 208.731 208.277 208.82 208.26 208.917C208.249 208.979 208.254 209.07 208.294 209.117C208.519 209.381 209.03 208.981 209.703 208.815C209.906 208.765 210.047 208.763 210.337 208.729C210.883 208.665 211.27 208.729 211.729 208.746C212.154 208.762 212.968 208.752 213.433 208.757C213.989 208.764 214.319 208.786 214.696 208.78C215.11 208.774 215.635 208.695 215.943 208.689C216.32 208.682 216.789 208.706 216.858 208.695C216.926 208.683 216.961 209.147 216.956 209.816C216.952 210.273 216.836 210.727 216.796 211.013C216.761 211.263 216.744 211.391 216.772 211.392C216.96 211.395 217.154 210.823 217.399 210.304C217.612 209.854 217.761 209.404 217.846 209.21C217.864 209.164 217.875 209.13 217.87 209.135C217.864 209.14 217.841 209.185 217.818 209.232" stroke="black" stroke-width="4" stroke-linecap="round"/>
<path d="M207.054 219.961C207.054 219.882 207.077 219.654 207.179 219.266C207.221 219.107 207.248 218.968 207.266 218.91C207.379 218.534 207.214 219.8 207.243 219.995C207.247 220.024 207.293 220.007 207.78 219.487C208.267 218.966 209.206 217.937 209.894 217.22C210.581 216.503 210.988 216.13 211.3 215.824C211.611 215.519 211.815 215.292 212.435 214.757C213.054 214.222 214.084 213.385 214.885 212.795C215.687 212.206 216.23 211.889 216.533 211.709C216.998 211.432 217.178 211.289 217.281 211.146C217.42 210.953 217.578 210.889 217.646 210.877C217.733 210.862 217.851 211.138 218.051 211.514C218.296 211.977 218.355 212.441 218.378 212.856C218.392 213.113 218.356 213.464 218.327 213.729C218.298 213.995 218.264 214.165 217.941 215.134C217.619 216.104 217.008 217.869 216.659 218.942C216.31 220.015 216.243 220.343 216.196 220.812C216.15 221.281 216.127 221.88 216.104 222.263C216.058 223.027 215.876 223.387 215.671 223.815C215.563 224.041 215.421 224.276 215.323 223.465C215.225 222.654 215.168 220.787 215.167 219.622C215.167 218.457 215.223 218.05 215.28 217.75C215.429 216.972 215.647 216.74 215.801 216.466C215.998 216.114 216.275 215.872 216.418 215.694C216.594 215.475 216.709 215.243 216.852 215.038C216.907 214.959 216.915 214.923 216.83 215.024C216.746 215.125 216.565 215.363 215.996 215.881C215.428 216.4 214.478 217.191 213.428 218.029C212.379 218.867 211.259 219.727 210.648 220.204C209.853 220.825 209.706 220.955 209.529 221.098C209.288 221.292 209.112 221.686 208.946 221.835C208.652 222.099 208.403 222.257 208.226 222.304C208.011 222.36 207.957 221.916 207.837 221.722C207.743 221.568 207.672 221.447 207.603 221.424C207.453 221.374 207.374 221.663 207.295 221.891C207.112 222.412 207.248 222.92 207.288 223.177C207.321 223.387 207.328 223.752 207.357 224.034C207.363 224.187 207.374 224.337 207.391 224.638C207.397 224.882 207.397 225.312 207.431 225.789" stroke="black" stroke-width="4" stroke-linecap="round"/>
<path d="M219.566 224.418C219.077 224.463 218.642 224.577 218.288 224.618C217.719 224.682 217.397 224.737 217.054 224.914C216.752 225.07 216.414 225.444 216.156 225.998C216.02 226.293 215.99 226.576 215.848 226.861C215.622 227.313 215.306 227.752 215.066 228.044C214.867 228.286 214.677 228.53 214.477 229.021C214.355 229.318 214.106 229.865 213.848 230.278C213.662 230.576 213.591 230.861 213.539 231.141C213.545 231.41 213.568 231.57 213.596 231.827C213.602 231.924 213.602 232.059 213.602 232.199" stroke="black" stroke-width="4" stroke-linecap="round"/>
<path d="M213.225 220.544C213.202 220.499 213.123 220.34 212.98 220.179C212.928 220.121 212.826 220.245 212.593 220.659C212.36 221.074 211.976 221.809 211.715 222.363C211.455 222.917 211.33 223.268 211.232 223.601C210.923 224.652 210.917 224.988 210.82 225.251C210.7 225.576 210.438 226.161 210.231 226.855C210.187 227.005 210.208 227.168 210.202 227.233C210.199 227.268 210.151 227.104 210.032 226.701C209.818 225.974 209.58 225.492 209.551 225.384C209.525 225.283 210.02 225.116 210.916 224.888C211.283 224.794 211.461 224.705 211.724 224.545C211.987 224.386 212.327 224.148 212.575 223.958C212.982 223.646 213.314 223.266 213.64 222.866C213.86 222.595 213.922 222.43 213.922 222.384C213.922 222.265 213.603 222.622 213.124 223.375C212.991 223.583 212.929 223.796 212.855 224.037C212.78 224.278 212.712 224.549 212.609 225.017C212.506 225.485 212.37 226.141 212.284 226.53C212.139 227.179 211.969 227.693 211.888 228.033C211.877 228.085 211.865 228.153 211.859 228.233C211.854 228.313 211.854 228.404 211.854 228.497" stroke="black" stroke-width="4" stroke-linecap="round"/>
<path d="M217.03 228.394C217.03 228.519 216.951 229.166 216.797 229.988C216.684 230.59 216.494 231.088 216.323 231.55C216.126 232.08 215.9 232.266 215.671 232.427C215.524 232.53 215.124 232.78 214.558 233.384C213.596 234.412 213.705 234.713 213.648 234.798C213.622 234.837 213.613 234.872 213.664 234.856C213.839 234.799 214.012 234.645 214.421 234.373C214.756 234.149 215.372 233.784 215.704 233.586C216.035 233.388 216.069 233.376 216.081 233.399C216.162 233.553 215.662 233.956 215.015 234.426C214.687 234.665 214.403 234.724 214.151 234.827C213.655 235.03 212.976 235.34 212.62 235.575C212.282 235.798 211.889 236.06 211.587 236.294C211.094 236.675 210.849 237.214 210.717 237.369C210.578 237.532 210.312 237.604 210.078 237.768C209.697 238.037 209.341 238.38 208.937 238.721C208.296 239.263 207.866 239.694 207.684 239.842C207.257 240.189 207.18 240.391 207.06 240.563C206.95 240.72 206.906 240.871 206.815 241.014C206.701 241.192 206.563 241.351 206.415 241.54C206.197 241.816 206.061 241.911 205.918 242.037C205.696 242.232 205.489 242.482 205.409 242.648C205.335 242.801 205.249 242.951 205.175 243.1C205.158 243.134 205.146 243.168 205.152 243.129C205.173 242.976 205.237 242.77 205.322 242.548C205.439 242.245 205.602 241.8 205.751 241.338C205.898 240.879 205.946 240.622 205.991 240.461C206.034 240.312 206.105 240.13 206.282 239.526C206.39 239.158 206.505 238.92 206.568 238.821C207.044 238.079 206.312 240.116 206.266 240.294C206.22 240.472 206.175 240.631 206.1 240.797C206.037 240.94 205.946 241.077 205.787 241.22C205.75 241.253 205.695 241.226 205.661 241.204C205.531 241.118 205.501 240.919 205.449 240.559C205.393 240.168 205.477 239.619 205.506 239.29C205.521 239.111 205.603 238.862 205.677 238.628C205.76 238.366 205.774 238.176 205.849 237.936C205.905 237.754 205.923 237.458 205.952 237.165C205.988 236.794 205.992 236.634 206.026 236.439C206.081 236.123 206.083 235.799 206.1 235.622C206.127 235.343 206.174 234.841 206.203 234.48C206.232 234.121 206.277 233.436 206.306 233.108C206.323 232.918 206.357 232.691 206.374 232.36C206.389 232.073 206.426 231.8 206.443 231.287C206.45 231.08 206.494 230.818 206.551 230.188C206.592 229.739 206.631 229.026 206.648 228.624C206.669 228.156 206.643 227.916 206.688 227.653C206.744 227.33 207.236 227.446 207.402 227.372C207.442 227.354 207.488 227.343 207.534 227.354C207.786 227.416 207.763 227.97 207.842 228.267C207.949 228.666 208.059 229.078 208.174 229.319C208.288 229.56 208.242 229.878 208.294 230.238C208.372 230.781 208.346 231.215 208.277 231.637C208.168 232.31 208.048 232.793 208.043 232.907C208.026 233.242 207.9 233.603 207.843 234.242C207.79 234.834 207.831 235.706 207.848 235.929C207.865 236.149 208.025 236.346 208.094 236.484C208.134 236.563 208.208 236.621 208.276 236.655C208.317 236.676 208.39 236.622 208.442 236.588C208.533 236.527 208.766 236.088 209.109 235.392C209.344 234.913 209.498 234.498 209.743 234.093C209.993 233.681 210.208 233.468 210.321 233.309C210.751 232.709 210.802 232.44 211.013 231.899C211.135 231.586 211.134 231.151 211.122 230.66C211.107 229.992 211.02 229.721 210.894 229.412C210.869 229.35 210.826 229.32 210.786 229.297C210.746 229.274 210.7 229.263 210.654 229.263C210.608 229.262 210.563 229.274 210.517 229.285" stroke="black" stroke-width="4" stroke-linecap="round"/>
<path d="M192.357 251.303C192.48 251.204 192.998 250.416 193.778 249.203C194.547 248.007 194.861 247.112 195.096 246.754C195.611 245.969 195.729 244.76 195.866 243.95C195.967 243.353 196.127 242.97 196.189 242.388C196.326 241.104 196.326 240.416 196.289 239.907C196.249 239.367 196.152 238.436 196.078 237.834C195.987 237.096 196.052 235.9 196.065 234.922C196.072 234.408 195.954 233.916 195.917 233.222C195.895 232.819 195.805 232.477 195.768 231.499C195.76 231.285 195.731 231.212 195.718 231.235C195.494 231.652 195.978 232.3 196.065 232.93C196.322 234.788 195.905 235.398 195.842 236.194C195.77 237.107 195.829 238.502 195.867 238.923C195.883 239.1 195.929 239.811 195.917 240.816C195.903 241.946 195.805 243.339 195.706 243.637C195.599 243.957 195.557 244.503 195.421 244.914C195.303 245.272 195.21 245.571 195.049 245.869C194.893 246.158 194.764 246.464 194.677 246.811C194.543 247.343 194.491 247.655 194.354 247.953C194.208 248.272 193.921 248.548 193.709 248.846C193.661 248.914 193.647 248.994 193.672 248.909C193.883 248.167 194.216 247.585 194.428 247.211C194.589 246.926 194.762 246.419 194.899 246.02C195.013 245.688 195.234 245.425 195.407 245.065C195.588 244.69 196.198 243.892 196.573 243.057C196.852 242.437 196.945 241.755 197.107 241.32C197.263 240.899 197.416 240.244 197.677 239.56C198.171 238.262 198.656 237.315 199.077 236.486C199.675 235.309 200.293 234.117 200.603 233.398C200.937 232.622 201.187 231.758 201.508 231.077C201.627 230.825 201.878 230.546 201.93 230.395C201.983 230.243 201.86 230.243 201.748 230.231C200.825 230.13 199.379 230.217 198.994 230.317C198.831 230.359 198.536 230.392 198.164 230.355C197.703 230.309 197.37 229.872 197.108 229.55C196.966 229.375 197.44 229.004 198.143 228.351C198.617 227.91 199.264 227.181 199.643 226.753C200.021 226.325 200.095 226.202 201.078 225.046C202.062 223.89 203.953 221.704 205.111 220.431C206.583 218.812 207.066 218.486 207.079 218.534C207.112 218.656 206.92 218.975 206.476 219.692C206.032 220.409 205.271 221.514 204.842 222.157C204.322 222.936 204.092 223.344 203.672 223.987C202.617 225.6 202.306 226.345 202.007 226.929C201.642 227.641 201.585 228.207 201.498 228.604C201.403 229.044 201.04 229.348 200.779 229.708C200.562 230.008 200.296 230.34 200.159 230.787C199.992 231.331 199.849 232.073 199.651 232.956C199.476 233.733 199.154 234.384 199.153 234.423C199.152 234.52 199.349 234.044 200.002 233.119C200.655 232.193 201.809 230.646 202.441 229.788C203.157 228.814 203.394 228.459 203.74 228.038C204.063 227.646 204.337 227.367 204.842 226.8C206.834 224.562 207.24 224.389 207.339 224.364C207.373 224.355 207.34 224.486 206.947 225.101C206.553 225.717 205.792 226.846 205.339 227.502C204.776 228.315 204.488 228.727 203.884 229.713C203.441 230.438 202.667 231.584 202.238 232.277C201.488 233.487 201.041 234.306 200.717 234.843C200.476 235.243 200.247 235.872 200.097 236.22C199.925 236.618 199.947 237.086 199.873 237.546C199.78 238.126 199.774 238.651 199.786 238.738C199.805 238.876 200.145 238.529 200.417 238.233C200.761 237.857 201.701 236.8 202.928 235.523C203.458 234.971 203.888 234.562 204.753 233.919C206.602 232.544 207.165 232.426 207.289 232.389C207.338 232.374 207.364 232.474 206.885 233.04C206.407 233.606 205.424 234.662 204.648 235.623C203.872 236.585 203.332 237.42 202.955 238.022C202.088 239.409 201.858 239.816 201.61 240.201C201.406 240.518 201.14 241.128 200.941 241.738C200.595 242.796 200.025 243.51 199.219 244.403C198.342 245.375 197.965 246.265 197.58 246.601C197.432 246.73 197.196 246.911 197.107 247.072C196.941 247.377 198.083 246.543 198.887 245.937C200.508 244.714 201.482 244.285 201.992 243.974C202.3 243.764 203.165 243.024 204.465 241.799C205.077 241.188 205.593 240.599 206.124 239.917" stroke="black" stroke-width="4" stroke-linecap="round"/>
<path d="M194.18 236.401C194.853 235.672 195.526 234.943 195.956 234.427C196.387 233.911 196.555 233.631 194.679 235.561C192.803 237.492 188.878 241.642 186.659 244.06C183.186 247.845 182.4 248.973 181.973 249.345C181.868 249.437 182.223 248.759 184.414 245.92C186.604 243.081 190.754 237.866 193.172 234.899C196.827 230.414 198.251 229.44 198.937 228.839C199.063 228.729 198.037 229.316 195.589 231.397C193.66 233.037 190.506 236.057 187.766 238.85C185.025 241.643 182.838 244.167 181.627 245.523C180.417 246.879 180.248 246.991 180.638 246.348C181.028 245.705 181.982 244.303 183.23 242.627C184.478 240.952 185.992 239.045 187.585 237.25C190.704 233.735 192.705 232.04 193.353 231.59C193.798 231.28 194.394 230.691 192.665 232.477C190.936 234.263 186.842 238.413 184.284 241.111C181.727 243.81 180.83 244.932 180.199 245.818C178.717 248.181 178.039 249.421 176.85 251.461C176.62 251.863 176.564 252.032 176.336 252.375" stroke="black" stroke-linecap="round"/>
<path d="M188.912 242.009C189.473 241.672 191.332 240.602 193.374 239.382C193.865 239.089 193.174 239.341 191.229 240.466C189.284 241.592 186.087 243.555 184.16 244.791C180.256 247.294 179.057 249.144 178.999 249.175C178.314 249.532 180.073 247.846 182.852 245.15C185.404 242.673 190.509 238.192 193.025 236.048C195.541 233.904 195.373 234.297 192.847 236.602C190.321 238.907 185.442 243.113 182.844 245.336C180.247 247.559 180.078 247.671 180.104 247.448C180.198 246.631 181.65 245.078 183.433 243.324C185.204 241.582 186.186 240.092 187.745 238.53C189.41 236.862 191.685 234.929 192.109 234.703C192.312 234.595 192.477 234.477 190.489 236.298C188.501 238.119 184.351 241.876 182.465 243.671C180.58 245.467 181.085 245.186 181.569 244.958C183.292 244.145 184.657 243.484 186.241 242.187C187.013 241.555 187.984 240.221 189.206 238.968C193.154 234.921 193.894 234.535 194.32 233.854C194.515 233.543 194.576 233.174 194.521 232.919C194.491 232.781 194.129 232.832 192.751 234.262C191.372 235.692 188.905 238.552 187.185 240.334C183.632 244.015 181.836 244.102 180.308 244.809C178.686 245.56 178.209 247.158 177.783 248.038C177.223 249.194 176.68 250.383 176.027 251.606C175.168 253.216 174.753 254.92 173.989 255.742C173.332 256.448 172.601 256.735 171.921 257.075C171.759 257.156 171.582 257.133 171.551 257.049C171.46 256.8 172.533 256.175 173.639 255.495C174.669 254.861 169.881 256.509 169.71 256.454C169.305 256.323 171.283 254.484 173.348 252.389C175.122 250.591 176.275 249.717 177.154 249.036C178.615 247.903 180.123 246.944 182.105 245.78C183.831 244.768 186.405 243.547 188.726 242.132C190.739 240.905 192.188 239.752 193.158 238.923C193.326 238.779 193.497 238.613 193.191 238.947C192.108 240.13 190.674 241.55 189.038 243.185C187.991 244.231 186.618 245.829 185.279 247.17C181.353 251.104 180.418 251.862 179.851 252.57C179.086 253.525 178.039 253.846 176.625 254.553C175.539 255.095 174.586 255.994 173.986 256.312C173.636 256.498 174.804 255.605 176.379 254.621C177.637 253.836 179.749 252.348 181.127 251.456C182.505 250.565 183.066 250.285 184.701 249.215C186.336 248.145 189.027 246.294 191.031 245.005C195.754 241.964 196.838 241.275 197.632 240.821C198.114 240.545 198.596 240.311 198.683 240.14C199.22 239.081 196.171 242.168 192.356 245.703C188.601 249.181 188.181 250.444 186.738 251.717C185.325 252.964 183.651 254.237 182.463 255.537C181.477 256.616 180.816 257.752 180.22 258.319C179.714 258.802 183.562 255.733 187.033 253.739C188.052 253.154 188.626 252.718 189.277 252.32C189.71 252.054 190.1 251.809 190.13 251.696C190.286 251.12 186.502 252.142 182.369 253.161C180.367 253.731 179.064 254.297 177.677 254.948C177.132 255.206 176.907 255.318 176.336 255.604" stroke="black" stroke-width="4" stroke-linecap="round"/>
<path d="M206.241 207.475C206.395 207.599 206.55 207.723 206.676 207.802C206.801 207.881 206.894 207.912 207.083 208.037" stroke="black" stroke-width="4" stroke-linecap="round"/>
<path d="M207.738 208.505C206.742 208.754 206.055 208.88 205.385 208.957C204.623 209.046 203.936 209.067 203.325 209.144C202.349 209.269 201.719 209.067 201.265 208.989C200.816 208.912 200.006 208.88 198.914 208.802C196.045 208.598 195.757 208.91 195.585 208.911C195.213 208.912 195.32 208.164 195.272 205.893C195.254 205.009 195.132 204.388 195.085 203.935C195.04 203.502 194.913 203.077 194.82 202.703C194.727 202.327 194.664 201.831 194.477 200.554C194.232 198.883 194.539 197.5 194.617 196.54C194.658 196.024 194.85 195.403 195.1 194.342C195.204 193.9 195.288 193.56 195.303 193.264C195.401 191.39 195.32 188.471 195.195 188.72C194.872 189.365 194.851 189.842 194.804 190.653C194.759 191.435 194.664 192.37 194.648 193.865C194.635 195.052 194.788 196.614 194.835 197.098C194.864 197.395 194.913 198.294 194.898 199.463C194.891 199.986 194.82 201.625 194.804 204.011C194.793 205.815 194.664 207.629 194.555 208.252C194.41 209.075 194.631 209.69 194.849 209.815C195.389 210.124 196.065 209.941 196.782 209.878C198.468 209.731 199.776 209.784 201.286 209.956C201.951 210.031 203.005 209.941 204.612 209.724C206.219 209.508 208.35 209.106 209.526 208.868C210.862 208.598 211.385 208.505 211.901 208.474C212.007 208.468 211.517 208.225 210.91 208.085C210.466 207.982 209.401 207.944 206.916 207.835C205.298 207.764 202.949 207.88 201.616 207.896C199.626 207.921 198.942 207.788 197.881 207.725C197.788 207.72 198.281 207.476 199.49 207.166C200.416 206.928 201.996 206.609 202.885 206.433C204.321 206.151 205.083 206.165 207.134 205.731C209.264 205.28 210.762 204.667 210.967 204.682C211.596 204.73 209.149 204.884 207.224 205.118C205.952 205.272 204.063 205.32 202.984 205.337C201.275 205.364 200.472 205.073 199.193 205.057C198.223 205.044 197.067 205.104 197.004 204.996C196.602 204.305 198.965 204.481 200.501 204.093C201.552 203.828 203.119 203.304 204.472 202.941C206.888 202.293 208.143 202.139 208.484 202.109C209.017 202.06 209.422 201.921 209.532 201.828C209.581 201.786 209.487 201.673 209.347 201.61C209.011 201.458 207.872 201.515 205.712 201.67C204.444 201.761 202.84 202.01 201.395 202.122C198.72 202.328 197.286 202.202 196.991 202.155C196.85 202.133 196.726 202.139 196.616 202.124C196.506 202.109 196.413 202.078 196.473 201.984C196.675 201.673 198.178 201.145 200.482 200.397C202.496 199.744 203.835 199.613 204.426 199.457C205.317 199.222 206.018 199.176 207.39 198.755C207.673 198.669 207.798 198.676 207.846 198.629C207.895 198.583 207.864 198.49 207.74 198.396C206.82 197.699 204.997 198.176 204.215 198.239C202.893 198.345 200.729 198.582 199.69 198.504C198.844 198.441 197.849 198.208 197.334 198.13C197.134 198.1 196.823 198.114 196.787 198.068C196.752 198.021 196.999 197.929 198.038 197.634C199.076 197.339 200.899 196.845 202.039 196.513C203.59 196.061 204.797 195.435 206.184 194.656C206.776 194.324 207.107 194.063 207.329 193.92C207.63 193.725 206.225 194.209 203.452 195.05C201.271 195.712 199.94 195.774 199.395 195.758C198.64 195.737 198.036 195.338 197.691 195.104C197.621 195.057 197.69 194.933 197.798 194.839C198.062 194.611 198.716 194.402 200.113 193.967C201.071 193.669 202.56 193.286 203.493 193.001C205.45 192.406 206.269 191.812 206.692 191.624C207.088 191.448 207.176 191 207.254 190.86C207.58 190.278 205.587 190.999 204.746 191.124C203.614 191.291 202.593 191.84 201.812 192.122C201.309 192.303 200.813 192.372 199.521 192.435C198.646 192.477 198.378 192.622 198.299 192.591C197.75 192.379 199.092 191.688 200.493 190.769C201.809 189.905 202.897 189.629 203.85 189.082C204.535 188.689 205.115 188.287 205.863 187.741C206.606 187.198 207.236 186.944 207.658 186.772C208.169 186.565 205.873 187.438 203.643 188.033C202.521 188.333 201.135 188.47 199.707 188.721C199.224 188.806 198.723 188.908 198.192 189.018C197.737 189.112 197.348 189.095 197.161 189.158C196.975 189.221 196.817 188.941 196.724 188.754C196.639 188.585 196.692 188.317 196.754 188.037C196.951 187.144 198.748 186.821 199.544 186.336C199.851 186.149 200.123 185.945 201.145 185.45C202.005 185.032 203.587 184.336 204.445 183.955C205.396 183.542 205.677 183.418 205.989 183.231C206.115 183.137 206.177 183.044 206.334 182.855" stroke="black" stroke-width="4" stroke-linecap="round"/>
<path d="M183.176 194.861C183.15 194.759 183.124 194.656 183.111 195.514C183.098 196.372 183.098 198.194 183.111 199.184C183.125 200.277 183.176 201.305 183.163 202.756C183.155 203.648 183.047 204.318 183.033 205.16C183.027 205.512 183.098 206.593 183.111 208.044C183.176 208.882 183.201 209.167 183.24 209.451C183.253 209.657 183.253 209.991 183.253 210.334" stroke="black" stroke-width="4" stroke-linecap="round"/>
<path d="M185.119 209.557C186.3 209.326 187.48 209.095 188.884 208.86C190.287 208.626 191.878 208.395 192.774 208.276C194.571 208.038 195.951 207.846 196.185 207.846C196.494 207.846 194.794 207.924 193.023 208.014C192.007 208.066 190.184 208.104 188.938 208.079C186.298 208.027 185.796 207.537 185.432 207.315C185.357 207.27 185.277 207.251 186.828 206.75C188.379 206.249 191.561 205.274 193.123 204.72C194.685 204.167 194.531 204.064 194.349 203.973C193.972 203.783 192.826 203.623 191.234 203.467C190.567 203.402 190.181 203.414 189.521 203.465C187.935 203.589 186.601 203.725 185.953 203.7C185.149 203.668 184.654 203.026 184.627 202.858C184.58 202.562 185.273 202.508 186.2 202.186C186.906 201.941 188.051 201.428 189.21 201.01C190.369 200.592 191.498 200.259 192.157 200.049C193.264 199.695 193.798 199.243 194.357 198.841C194.478 198.754 194.577 198.673 194.63 198.595C194.683 198.516 194.683 198.439 194.581 198.349C193.97 197.807 192.977 197.765 191.476 197.892C190.361 197.988 189.656 198.437 189.193 198.656C187.71 199.357 187.093 199.345 186.327 199.345C185.747 199.346 185.354 199.035 185.158 198.815C184.671 198.267 186.826 198.077 187.948 197.317C188.712 196.8 189.763 195.864 190.395 195.312C191.662 194.205 192.375 193.619 192.557 193.114C192.782 192.49 192.377 192.09 192.106 191.701C191.972 191.509 191.704 191.492 191.471 191.453C191.191 191.406 190.516 191.594 189.584 191.904C188.151 192.381 187.248 193.508 186.858 194.018C186.247 194.813 185.432 194.86 185.275 195.184C185.106 195.535 185.119 196.076 184.939 196.519C184.525 197.114 184.187 197.814 184.071 198.382C184.031 198.719 184.031 199.155 184.109 199.76" stroke="black" stroke-width="4" stroke-linecap="round"/>
<path d="M175.84 201.44C175.798 201.701 175.714 203.164 175.818 204.001C175.889 204.567 175.965 204.987 176.069 205.552C176.183 206.168 176.216 206.642 176.341 207.038C176.393 207.201 176.467 207.354 176.426 207.512C176.38 207.685 176.092 207.801 175.842 207.867C175.723 207.898 175.591 207.855 175.527 207.646C175.186 206.535 175.589 206.043 175.797 205.282C176.111 204.138 175.965 203.651 176.069 203.163C176.173 202.679 176.299 202.257 176.363 201.809C176.404 201.52 176.467 201.257 176.571 201.073C176.953 200.396 179.599 200.835 180.545 200.77C181.885 200.676 183.201 200.179 183.498 200.099C185.658 199.513 180.201 201.697 179.357 202.306C179.219 202.405 179.107 202.515 178.98 202.608C178.854 202.701 178.73 202.779 178.811 202.637C179.392 201.618 179.855 201.075 180.046 200.573C180.218 200.118 179.649 201.438 179.481 202.015C179.428 202.199 179.398 202.408 179.376 203.283C179.355 204.158 179.355 205.694 179.417 206.485C179.479 207.276 179.604 207.276 179.833 207.25C181.092 207.108 182.238 206.726 182.849 206.606C183.39 206.499 181.492 206.855 180.468 206.96C179.437 207.066 177.854 207.249 177.098 207.342C176.769 207.382 176.469 207.381 176.218 207.473C175.581 207.705 175.631 208.325 175.484 208.708C175.45 208.798 175.463 208.904 175.339 208.958C175.215 209.011 174.966 209.011 174.838 208.972C174.144 208.761 174.167 207.778 174.061 207.435C173.924 206.993 174.039 206.41 174.186 206.094C174.328 205.789 174.416 205.412 174.479 204.99C174.539 204.592 174.667 204.124 174.731 203.244C174.751 203.045 174.793 202.914 174.814 202.535C174.835 202.156 174.835 201.531 174.835 200.887" stroke="black" stroke-width="4" stroke-linecap="round"/>
<path d="M181.679 198.256C181.444 198.021 181.158 197.9 180.733 197.971C180.092 198.077 179.003 198.798 177.815 199.558C177.265 199.91 177.119 200.085 177.047 200.121C176.696 200.297 177.899 199.422 178.564 199.019C179.479 198.463 180.417 197.854 181.022 197.558C181.526 197.31 182.081 197.117 182.437 197.069C182.537 197.055 182.465 197.209 181.911 197.751C181.357 198.294 180.322 199.258 179.413 200.273C178.504 201.287 177.751 202.322 177.246 203.125C176.429 204.425 176.263 205.356 176.286 205.914C176.296 206.143 176.357 206.26 176.428 206.356C176.754 206.795 177.496 206.856 178.113 206.857C178.754 206.857 179.253 206.548 179.931 206.536C180.614 206.523 181.297 207.164 181.678 207.437C181.855 207.564 182.059 207.663 182.213 207.829C182.369 207.996 182.321 208.304 182.286 208.565C182.211 209.113 180.88 209.68 179.841 210.004C179.435 210.13 179.044 210.134 178.569 210.147C178.353 210.152 177.812 210.017 176.723 209.91C175.265 209.767 174.269 209.897 173.949 209.921C173.559 209.95 172.447 209.897 171.011 209.944C170.302 209.968 169.193 210.016 167.685 210.004C166.616 209.996 166.097 209.873 165.681 209.803C164.733 209.641 163.578 209.778 162.335 209.826C161.755 209.848 161.44 210.063 161.143 210.158C160.741 210.287 160.3 210.277 159.99 210.254C159.254 210.2 161.507 209.139 162.97 208.466C164.137 207.929 166.22 207.111 167.321 206.64C168.422 206.168 168.493 206.098 169.164 205.697C169.836 205.296 171.106 204.567 171.878 204.132C172.878 203.569 173.221 203.436 173.411 203.4C173.597 203.365 172.827 204.305 171.238 205.907C169.487 207.672 169.042 207.687 168.864 207.841C168.71 207.925 169.578 207.737 171.215 207.417C171.911 207.308 172.335 207.308 172.842 207.379" stroke="black" stroke-width="4" stroke-linecap="round"/>
</svg>
