<svg width="427" height="442" viewBox="0 0 427 442" fill="none" xmlns="http://www.w3.org/2000/svg">
<path d="M323.026 144.168H112.107C97.173 144.168 85.0664 158.159 85.0664 175.418V237.918C85.0664 255.177 97.173 269.168 112.107 269.168H323.026C337.96 269.168 350.066 255.177 350.066 237.918V175.418C350.066 158.159 337.96 144.168 323.026 144.168Z" stroke="black" stroke-width="10" stroke-linecap="round" stroke-linejoin="round"/>
<g clip-path="url(#clip0_118_148)">
<rect x="100" y="157" width="141" height="100" rx="20" fill="#00C317"/>
<path d="M240.544 189.551L240.523 189.51" stroke="black" stroke-width="2" stroke-linecap="round"/>
</g>
<path d="M351 177V177C358.732 177 365 183.268 365 191V225C365 232.732 358.732 239 351 239V239V177Z" fill="black"/>
<path d="M233.954 188.49L231.498 191.034L235.034 191.031L289.127 190.995L132.9 289.363L209.422 213.958L212.031 211.387L208.368 211.389L154.049 211.43L296.653 123.523L233.954 188.49Z" fill="white" stroke="black" stroke-width="3"/>
<path d="M187.5 256.5H167.5" stroke="black"/>
<path d="M240.5 183C241.284 174.183 240.076 169.836 234 163.5" stroke="black"/>
<path d="M240.5 191V223" stroke="black"/>
<path d="M243.582 206.111C243.327 205.969 243.168 205.854 243.118 205.761C242.983 205.512 243.096 205.026 243.224 204.432C243.282 203.994 243.296 203.751 243.325 203.665C243.339 203.622 243.353 203.579 243.368 203.535" stroke="black" stroke-width="2" stroke-linecap="round"/>
<path d="M244.226 194.521C244.169 194.564 243.969 194.508 243.755 194.436C243.544 194.365 243.411 194.35 243.332 194.328C243.154 194.28 243.139 194.007 243.046 193.899C242.873 193.699 243.124 194.562 243.196 194.821C243.21 194.864 243.224 194.907 243.231 194.985C243.239 195.064 243.239 195.177 243.239 195.294" stroke="black" stroke-width="5" stroke-linecap="round"/>
<path d="M244.527 198.084C244.867 198.027 245.207 197.971 246.961 197.552C248.716 197.133 251.874 196.354 253.771 195.932C255.667 195.509 256.205 195.467 256.582 195.452C256.958 195.437 257.157 195.451 257.485 195.522C257.814 195.593 258.267 195.721 258.685 195.864C259.48 196.138 259.907 196.338 260.064 196.388C260.554 196.544 260.865 196.582 261.286 196.617C261.993 196.677 262.253 196.582 262.361 196.575C262.385 196.573 262.341 196.553 261.802 196.525C261.263 196.496 260.229 196.454 258.776 196.503C257.322 196.552 255.481 196.693 254.49 196.759C253.499 196.825 253.414 196.811 253.349 196.797C253.284 196.782 253.241 196.768 253.283 196.74C253.325 196.711 253.452 196.668 254.828 196.597C256.204 196.526 258.825 196.426 260.515 196.425C262.204 196.423 262.884 196.523 263.277 196.595C263.76 196.684 263.899 196.768 263.964 196.803C263.984 196.814 263.929 196.853 263.865 196.889C263.8 196.925 263.715 196.967 260.966 197.903C258.217 198.838 252.806 200.666 249.678 201.77C246.551 202.874 245.871 203.2 245.492 203.389C245.114 203.578 245.057 203.62 245.07 203.642C245.084 203.664 245.169 203.664 246.905 203.069C248.642 202.474 252.027 201.285 254.125 200.495C256.223 199.705 256.932 199.35 257.431 199.111C258.194 198.746 258.59 198.614 258.783 198.571C258.862 198.553 258.905 198.556 258.899 198.599C258.892 198.641 258.836 198.726 257.737 199.634C256.639 200.542 254.5 202.27 253.355 203.224C252.098 204.273 252.01 204.536 251.967 204.708C251.939 204.82 251.967 204.909 252.009 204.994C252.032 205.041 252.08 205.08 252.159 205.102C252.345 205.154 252.538 205.095 253.333 204.635C254.062 204.212 255.43 203.366 256.598 202.73C257.767 202.095 258.687 201.684 259.268 201.458C260.044 201.156 260.365 201.175 260.409 201.238C260.452 201.301 260.197 201.43 258.537 202.395C256.878 203.36 253.733 205.159 252.085 206.107C250.436 207.055 250.38 207.097 251.625 206.56C252.871 206.022 255.421 204.903 257.152 204.227C258.883 203.552 259.719 203.354 260.221 203.251C260.722 203.149 260.864 203.149 260.887 203.199C261.183 203.827 259.594 204.179 259.308 204.421C259.078 204.617 258.722 205.035 258.266 205.606C257.592 206.449 257.348 206.639 257.168 206.854C256.938 207.13 256.718 207.284 256.525 207.412C256.193 207.634 255.817 207.884 255.559 208.056C255.433 208.14 255.245 208.313 254.86 208.549C253.878 209.149 253.471 209.343 253.177 209.523C252.729 209.796 252.141 210.272 251.768 210.546C251.373 210.835 251.095 211.161 250.909 211.354C250.68 211.592 250.437 211.804 250.129 212.055C249.891 212.249 249.564 212.435 249.364 212.563C249.081 212.744 248.821 213.006 248.598 213.143C248.366 213.285 248.09 213.422 247.89 213.579C247.635 213.779 247.389 214.137 247.096 214.451C246.878 214.686 246.659 214.952 246.145 215.466C245.933 215.679 245.729 215.783 245.557 215.89C245.472 215.926 245.386 215.969 245.3 216.026C245.257 216.055 245.214 216.083 245.128 216.112" stroke="black" stroke-width="5" stroke-linecap="round"/>
<path d="M258.048 208.515C258.061 208.43 258.488 207.945 259.224 207.274C259.555 206.971 260.055 206.436 260.374 206.124C261.063 205.45 261.552 205.025 261.852 204.746C262.272 204.356 262.44 204.18 262.682 203.994C262.835 203.877 262.955 203.765 263.26 203.552C263.97 203.057 264.471 202.634 264.642 202.521C264.879 202.363 265.185 202.064 265.493 201.763C265.664 201.596 266.184 201.093 266.935 200.336C267.522 199.743 267.862 199.687 268.055 199.587C268.107 199.56 268.162 199.53 268.737 199.338C269.311 199.146 270.402 198.792 270.992 198.596C271.642 198.379 271.896 198.285 272.26 198.171C272.962 197.951 273.513 197.37 273.728 197.183C273.963 196.98 274.271 196.783 274.786 196.525C275.067 196.384 275.288 196.353 275.524 196.267C275.813 196.162 276.117 196.025 276.461 195.888C276.78 195.762 276.976 195.667 277.155 195.559C277.353 195.44 277.577 195.437 277.756 195.337C277.963 195.222 278.135 195.165 278.393 195.087C278.69 194.996 279.007 194.922 279.209 194.858C279.395 194.798 279.58 194.623 279.774 194.479C279.964 194.337 280.153 194.25 280.332 194.164C280.58 194.044 280.797 193.907 281.004 193.835C281.182 193.773 281.355 193.72 281.526 193.656C281.71 193.587 281.87 193.506 282.084 193.363C282.306 193.215 282.499 193.091 282.614 193.012C282.706 192.949 282.315 193.019 282.144 193.033C281.913 193.052 281.232 193.119 280.346 193.148C279.667 193.169 279.154 193.219 278.817 193.241C278.652 193.251 278.126 193.277 277.397 193.284C276.791 193.29 276.478 193.348 276.198 193.37C275.943 193.389 275.323 193.533 274.397 193.584C274.145 193.598 273.902 193.62 273.61 193.627C273.359 193.633 272.704 193.663 271.846 193.656C271.441 193.652 271.212 193.62 270.969 193.627C270.81 193.632 270.512 193.705 269.553 193.763C268.835 193.806 267.644 193.763 267.01 193.749C266.175 193.73 265.861 193.677 264.905 193.67C264.559 193.667 263.948 193.706 263.147 193.72C262.593 193.73 262.313 193.82 261.478 193.828C260.867 193.833 260.296 193.82 259.745 193.842C259.494 193.852 258.84 193.878 257.954 193.856C257.204 193.838 256.904 193.592 256.568 193.47C256.465 193.433 256.333 193.448 256.289 193.477C256.244 193.505 256.287 193.562 256.401 193.626C256.515 193.691 256.699 193.762 256.992 193.834C257.285 193.905 257.682 193.976 259.274 194.098C260.867 194.219 263.643 194.389 265.413 194.548C267.184 194.706 267.863 194.848 268.731 194.942C269.598 195.036 270.632 195.079 271.207 195.115C271.869 195.156 271.998 195.208 272.048 195.251C272.081 195.279 272.027 195.378 271.991 195.436C271.93 195.535 271.586 195.679 271.001 195.929C270.701 196.057 270.387 196.165 269.504 196.407C268.622 196.65 267.177 197.018 266.064 197.378C264.952 197.737 264.215 198.077 263.68 198.344C262.821 198.773 262.455 199.028 262.291 199.128C261.766 199.448 261.07 199.656 260.603 200.05C260.231 200.364 260.137 200.915 259.909 201.359C259.866 201.442 259.808 201.432 259.765 201.39C259.656 201.282 259.48 200.976 259.031 200.513C258.757 200.229 258.314 199.922 258.017 199.676C257.551 199.29 257.191 198.817 256.728 198.062C256.455 197.617 256.193 196.995 255.977 196.582C255.431 195.542 254.858 195.209 254.579 195.073C254.33 194.951 254.185 194.709 253.963 194.13C253.917 194.01 253.927 193.964 253.906 193.942C253.859 193.894 253.671 193.949 253.414 193.999C253.159 194.048 252.431 194.049 251.359 194.021C250.14 193.989 249.78 193.778 249.499 193.742C249.249 193.709 248.991 193.677 248.57 193.656C248.433 193.635 248.333 193.606 248.084 193.584C247.892 193.577 247.566 193.577 247.231 193.577" stroke="black" stroke-width="5" stroke-linecap="round"/>
<path d="M243.067 195.036C243.067 195.522 243.096 195.722 243.117 195.93C243.139 196.139 243.21 196.395 243.275 196.581C243.336 196.758 243.353 197.024 243.41 197.232C243.471 197.453 243.582 197.824 243.668 198.155C243.741 198.434 243.739 198.87 243.79 199.106C243.806 199.183 243.797 199.298 243.797 199.151C243.797 198.071 243.726 197.785 243.704 197.662C243.67 197.47 243.64 198.083 243.618 198.255C243.596 198.433 243.511 198.598 243.454 198.77C243.425 198.856 243.397 198.956 243.375 199.063C243.365 199.113 243.368 199.156 243.403 199.065C243.648 198.432 243.625 198.114 243.604 197.978C243.58 197.826 243.283 198.098 243.111 198.205C243.07 198.231 243.025 198.241 242.989 198.291C242.827 198.515 242.967 198.812 243.06 199.071C243.136 199.282 243.181 199.457 243.232 199.806C243.363 200.721 243.282 201.242 243.246 201.738C243.217 202.146 243.139 202.574 243.103 202.969C243.078 203.238 243.024 203.434 242.982 203.699C242.896 204.228 242.967 205.065 242.967 205.7C242.968 206.342 242.867 206.711 242.846 206.926C242.812 207.254 242.781 207.769 242.774 208.213C242.77 208.434 242.853 208.77 242.81 209.029C242.778 209.221 242.724 209.444 242.688 209.644C242.666 209.771 242.667 209.902 242.638 210.03C242.604 210.186 242.595 210.912 242.588 211.899C242.582 212.789 242.581 213.793 242.602 214.001C242.609 214.051 242.623 214.094 242.631 214.151C242.638 214.209 242.638 214.279 242.638 214.352" stroke="black" stroke-width="5" stroke-linecap="round"/>
<path d="M245.9 200.445C245.886 200.899 245.886 201.874 245.907 202.403C245.926 202.863 245.972 203.176 246.15 203.926C246.291 204.521 246.315 204.779 246.337 205.058C246.356 205.31 246.401 205.737 246.422 206.053C246.451 206.468 246.487 206.754 246.487 207.011C246.488 207.735 246.202 208.212 245.937 208.627C245.639 209.096 245.558 209.343 245.464 209.594C245.251 210.166 245.329 211.174 245.335 211.376C245.338 211.496 245.797 210.979 246.262 210.521C246.441 210.344 246.514 210.29 247.138 209.694C247.763 209.098 248.938 207.965 249.629 207.325C250.652 206.376 250.879 206.369 251.022 206.276C251.086 206.234 251.108 206.169 251.108 206.105C251.111 205.715 250.453 205.24 249.88 204.875C249.21 204.446 248.608 204.609 248.098 204.644C247.99 204.652 247.891 204.652 247.861 204.659C247.831 204.666 247.874 204.68 247.918 204.694" stroke="black" stroke-width="5" stroke-linecap="round"/>
<path d="M244.32 216.949C244.298 216.949 244.236 216.954 244.199 216.959C244.134 216.967 244.103 216.966 244.083 216.956C244.055 216.942 244.037 216.941 244.016 216.934C243.988 216.924 243.942 216.9 243.919 216.887C243.902 216.877 243.887 216.863 243.871 216.851C243.854 216.837 243.827 216.818 243.804 216.804C243.784 216.792 243.77 216.783 243.743 216.776C243.701 216.766 243.681 216.759 243.663 216.754C243.645 216.748 243.624 216.741 243.604 216.736C243.576 216.73 243.563 216.714 243.547 216.7C243.529 216.684 243.494 216.668 243.472 216.655C243.45 216.642 243.435 216.628 243.42 216.62C243.409 216.615 243.427 216.648 243.43 216.67C243.437 216.71 243.426 216.789 243.429 216.831C243.431 216.854 243.434 216.883 243.437 216.916C243.445 217.005 243.441 217.036 243.445 217.066C243.447 217.092 243.449 217.183 243.446 217.239C243.444 217.267 243.436 217.295 243.424 217.325C243.408 217.365 243.388 217.396 243.382 217.413C243.364 217.467 243.341 217.536 243.336 217.555C243.331 217.57 243.308 217.619 243.29 217.658C243.278 217.684 243.267 217.708 243.256 217.738C243.236 217.792 243.214 217.833 243.201 217.859C243.171 217.928 243.165 217.949 243.154 217.98C243.152 217.989 243.152 217.999 243.152 218.008" stroke="black" stroke-width="5" stroke-linecap="round"/>
<path d="M243.234 218.496C243.227 218.495 243.206 218.495 243.184 218.505C243.164 218.512 243.147 218.518 243.134 218.525C243.126 218.53 243.116 218.536 243.098 218.543" stroke="black" stroke-width="5" stroke-linecap="round"/>
<path d="M286.689 131.04C286.713 131.04 286.736 131.04 286.725 131.075C286.636 131.349 286.263 131.491 286.036 131.74C285.821 131.977 285.621 132.204 285.335 132.394C285.049 132.585 284.718 132.775 284.349 132.953C284.047 133.099 283.766 133.345 283.469 133.618C283.121 133.937 282.886 134.224 282.696 134.593C282.534 134.907 282.222 135.175 281.959 135.461C281.64 135.808 281.27 136.008 280.984 136.174C280.688 136.347 280.414 136.555 280.105 136.78C279.663 137.103 279.44 137.505 279.071 137.814C278.767 138.07 278.489 138.313 278.191 138.481C277.797 138.702 277.255 139.168 276.729 139.585C276.417 139.833 276.135 140.025 275.849 140.181C275.564 140.336 275.279 140.43 274.994 140.537C274.678 140.655 274.376 140.858 274.066 140.953C273.771 141.044 273.308 141.309 272.925 141.523C272.776 141.607 272.663 141.737 272.58 141.88C272.54 141.949 272.52 142.022 272.591 142.047C273.11 142.229 273.659 141.787 273.993 141.726C274.137 141.7 274.279 141.643 274.362 141.655C274.704 141.702 273.853 142.236 273.567 142.391C273.271 142.552 272.997 142.807 272.723 143.033C272.435 143.271 272.259 143.662 271.998 143.877C271.711 144.113 271.287 144.588 270.928 144.887C270.637 145.131 270.311 145.374 269.741 145.801C268.892 146.438 268.693 146.872 268.444 147.157C268.204 147.432 267.886 147.822 267.506 148.167C266.826 148.784 265.895 149.695 265.07 150.602C263.886 151.905 263.393 152.268 262.941 152.661C262.414 153.118 261.919 153.811 261.55 154.337C261.265 154.741 260.825 155.335 260.563 155.645C260.258 156.005 259.827 156.239 259.529 156.441C259.22 156.651 259.018 157.071 258.78 157.392C258.447 157.84 258.328 158.141 258.102 158.485C257.905 158.787 257.71 159.115 257.389 159.602C257.314 159.717 257.235 159.781 257.246 159.782C257.371 159.795 257.989 158.934 258.927 157.734C259.825 156.586 260.228 156.36 260.632 156.075C261.03 155.793 261.369 155.315 261.796 154.981C262.249 154.628 262.557 154.363 262.95 154.078C263.338 153.795 263.58 153.744 263.652 153.673C263.889 153.438 262.751 154.004 261.591 154.679C261.023 155.009 260.222 155.657 259.55 156.243C258.879 156.829 258.385 157.37 258.001 157.896C257.289 158.87 256.903 159.708 256.57 160.195C256.191 160.751 255.927 161.065 255.642 161.433C255.265 161.92 254.953 162.23 254.277 163.07C253.589 163.926 252.792 164.843 252.044 165.448C251.359 166.003 251.007 166.365 250.318 167.256C249.871 167.834 249.532 168.387 249.14 168.756C248.87 169.01 248.558 169.267 248.307 169.552C248.035 169.862 247.796 170.194 247.547 170.539C247.336 170.83 247.154 171.121 247.094 171.407C247.033 171.698 246.916 171.977 246.798 172.274C246.642 172.664 246.37 172.904 246.156 173.201C245.885 173.578 245.61 173.784 245.289 174.14C244.865 174.61 244.73 174.901 244.575 175.198C244.365 175.601 243.969 175.71 243.814 175.971C243.648 176.25 243.517 176.541 243.279 176.827C243.224 176.893 243.208 176.969 243.172 176.959C243.044 176.92 243.041 176.521 243.064 176.2C243.071 176.111 243.135 176.185 243.159 176.268C243.256 176.6 242.994 176.898 242.91 177.089C242.777 177.394 243.016 176.426 243.052 175.998C243.087 175.591 243.159 175.118 243.243 174.762C243.406 174.064 243.444 173.526 243.516 173.192C243.578 172.904 243.35 172.622 243.184 172.336C242.995 172.011 242.733 171.694 242.519 171.397C242.455 171.308 242.353 171.219 242.328 171.241C241.969 171.559 243.014 172.543 243.325 173.106C243.372 173.191 243.42 173.261 243.409 173.309C243.385 173.415 243.208 173.475 243.101 173.547C242.815 173.739 242.78 172.907 242.744 172.503C242.715 172.183 242.566 171.908 242.459 171.623C242.337 171.299 242.209 170.887 242.173 170.553C242.141 170.257 241.995 169.983 241.9 169.697C241.805 169.411 241.663 169.127 241.236 168.664C240.973 168.379 240.831 168.057 240.676 167.771C240.515 167.476 240.355 167.201 240.2 166.916C240.051 166.639 239.88 166.345 239.572 165.954C238.869 165.06 238.549 164.895 238.287 164.598C237.859 164.134 237.622 163.849 237.348 163.623C237.288 163.563 237.241 163.492 237.192 163.348" stroke="black" stroke-width="5" stroke-linecap="round"/>
<path d="M238.69 162.065C239.185 161.899 240.186 161.661 240.685 161.436C241.541 161.049 242.634 160.379 243.229 160.069C243.683 159.832 244.061 159.641 244.714 159.356C245.242 159.125 245.701 158.762 246.047 158.582C246.205 158.5 246.463 158.476 246.712 158.321C246.88 158.217 247.952 157.672 249.52 156.793C250.667 156.15 251.477 155.506 251.895 155.219C252.343 154.911 253.47 154.153 254.705 153.275C255.519 152.696 256.277 151.965 257.144 151.335C257.871 150.808 258.563 150.322 258.814 150.012C259.094 149.666 259.678 149.064 260.156 148.646C260.543 148.307 260.87 148.016 261.392 147.695C261.706 147.502 262.011 147.35 262.367 147.088C262.736 146.818 263.056 146.565 263.449 146.316C263.983 146.019 264.53 145.638 264.933 145.342C265.171 145.141 265.477 144.835 265.792 144.52" stroke="black" stroke-width="5" stroke-linecap="round"/>
<path d="M268.502 142.808C268.62 142.737 268.738 142.667 268.833 142.607C268.929 142.547 269 142.5 269.144 142.38" stroke="black" stroke-width="5" stroke-linecap="round"/>
<path d="M242.542 164.561C242.589 164.514 242.895 164.231 243.664 163.65C245.451 162.302 245.986 162.304 246.439 162.018C246.745 161.824 247.105 161.685 247.39 161.554C247.54 161.485 247.723 161.305 248.195 160.997C249.071 160.427 250.169 159.999 250.881 159.536C251.506 159.13 252.283 158.787 253.13 158.215C253.71 157.824 254.375 157.101 255.411 156.515C256.369 155.974 256.876 155.908 257.161 155.73C257.303 155.67 257.659 155.505 258.122 155.267C258.303 155.171 258.373 155.124 258.446 155.075" stroke="black" stroke-width="5" stroke-linecap="round"/>
<path d="M259.516 154.505L259.801 154.433" stroke="black" stroke-width="5" stroke-linecap="round"/>
<path d="M243.183 169.553C243.513 169.224 243.842 168.894 244.353 168.266C244.864 167.637 245.547 166.719 245.969 166.117C246.869 164.834 247.318 164.183 248.121 163.414C248.697 162.864 249.678 162.057 250.634 161.327C251.59 160.597 252.508 159.985 253.028 159.634C253.548 159.284 253.642 159.213 253.739 159.069" stroke="black" stroke-width="5" stroke-linecap="round"/>
<path d="M176.11 259.609C175.95 259.564 175.357 259.358 174.689 259.236C174.411 259.186 174.251 259.161 173.782 259.075C173.215 258.972 173.046 259.092 172.908 259.121C172.748 259.154 172.563 259.196 172.312 259.224C171.558 259.31 171.301 259.173 171.026 259.201C170.609 259.244 170.314 259.242 170.141 259.224C169.81 259.191 169.395 259.173 168.674 259.156C168.453 259.15 168.338 259.127 168.264 259.144C168.214 259.155 168.303 259.264 168.292 259.333C168.249 259.6 167.777 259.745 167.41 260.198C167.139 260.532 167.006 260.78 166.87 261.007C166.751 261.205 166.506 261.554 166.258 261.849C166.01 262.144 165.76 262.371 165.404 262.727C165.048 263.083 164.593 263.56 164.33 263.829C163.92 264.249 163.644 264.407 163.328 264.591C163.139 264.701 163.034 264.844 162.994 264.913C162.974 264.946 162.965 264.981 163.01 264.976C163.165 264.958 163.445 264.844 164.164 264.651C164.705 264.505 165.588 264.207 166.078 264.055C166.635 263.883 166.833 263.834 167.198 263.663C168.225 263.182 168.348 263.019 168.555 262.927C168.706 262.86 168.899 262.824 169.255 262.624C169.5 262.485 169.703 262.41 169.858 262.353C170.123 262.255 170.687 261.942 171.012 261.75C171.139 261.676 171.253 261.561 171.42 261.458C171.574 261.378 171.735 261.286 171.924 261.171C172.044 261.102 172.215 261.011 172.459 260.883" stroke="black" stroke-width="5" stroke-linecap="round"/>
<path d="M178.59 259.127C178.499 259.184 178.247 259.298 178.074 259.368C177.817 259.471 177.385 259.38 176.961 259.362C176.833 259.357 176.754 259.333 176.702 259.322C176.586 259.297 176.982 259.185 177.183 259.133C177.378 259.082 177.522 259.07 177.774 259.052C177.993 259.037 178.245 259.001 178.388 258.949C178.56 258.887 178.693 258.829 178.831 258.805C178.983 258.78 179.106 258.713 179.25 258.685C179.414 258.652 179.565 258.645 179.646 258.662C179.874 258.71 179.279 258.84 179.142 258.863C178.989 258.888 178.866 258.977 178.728 259.023C178.59 259.069 178.453 259.115 178.315 259.161C178.177 259.207 178.04 259.253 177.896 259.299C177.721 259.355 177.557 259.413 177.414 259.477C177.247 259.55 177.087 259.643 176.84 259.775C176.62 259.893 176.455 259.976 175.946 260.199C175.769 260.277 175.563 260.354 175.157 260.486C174.75 260.617 174.148 260.799 173.633 261.007C172.685 261.388 172.23 261.698 172.116 261.755C171.893 261.867 171.544 262.076 171.072 262.272C170.625 262.457 170.428 262.639 169.908 262.954C169.36 263.285 168.89 263.466 168.695 263.603C168.591 263.672 168.478 263.741 168.379 263.799C168.281 263.856 168.202 263.902 168.12 263.949" stroke="black" stroke-width="5" stroke-linecap="round"/>
<path d="M163.091 269.184C163.159 269.116 163.558 268.739 164.166 268.2C164.49 267.913 164.675 267.887 164.744 267.835C164.78 267.808 164.813 267.772 164.768 267.732C164.392 267.395 163.953 267.29 163.901 267.153C163.804 266.894 164.054 266.443 164.57 265.656C164.715 265.435 164.756 265.327 164.739 265.264C164.711 265.158 164.163 265.291 163.356 265.531C162.952 265.651 162.582 265.839 161.991 266.251C161.4 266.663 160.604 267.311 160.03 267.809C159.455 268.308 159.126 268.638 158.774 268.944C158.422 269.25 158.059 269.523 157.712 269.754C156.718 270.418 156.582 270.412 156.547 270.412C156.451 270.413 156.718 270.104 157.112 269.641C157.39 269.315 157.881 268.849 158.303 268.489C158.725 268.13 159.077 267.903 159.446 267.706C160.174 267.318 160.679 267.129 160.868 267.032C161.017 266.955 161.139 266.922 161.197 266.905C161.209 266.901 161.186 266.944 160.543 267.405C159.901 267.866 158.639 268.753 157.972 269.226C157.267 269.728 157.145 269.837 156.985 269.952C156.728 270.136 156.365 270.365 155.954 270.622C155.291 271.036 154.815 271.456 154.626 271.622C154.453 271.774 154.286 271.881 153.708 272.482C153.362 272.841 153.127 272.972 152.623 273.447C152.388 273.669 152.174 273.822 152.036 273.902C151.893 273.985 151.76 274.108 151.623 274.183C151.46 274.272 151.29 274.453 151.14 274.556C150.946 274.691 150.75 274.935 150.584 275.141C150.255 275.55 149.901 275.726 149.694 275.905C149.445 276.12 149.132 276.381 148.616 276.885C148.305 277.189 148.179 277.335 147.898 277.467C147.727 277.546 147.593 277.645 147.455 277.719C147.326 277.789 147.146 278 146.944 278.133C146.762 278.253 146.491 278.334 146.353 278.414C146.21 278.497 146.1 278.62 145.974 278.73C145.905 278.792 145.848 278.862 145.796 278.93C145.767 278.965 145.733 278.999 145.629 279.103" stroke="black" stroke-width="5" stroke-linecap="round"/>
<defs>
<clipPath id="clip0_118_148">
<rect x="100" y="157" width="141" height="100" rx="20" fill="white"/>
</clipPath>
</defs>
</svg>
