<svg width="427" height="442" viewBox="0 0 427 442" fill="none" xmlns="http://www.w3.org/2000/svg">
<path d="M323.026 144.168H112.107C97.173 144.168 85.0664 158.159 85.0664 175.418V237.918C85.0664 255.177 97.173 269.168 112.107 269.168H323.026C337.96 269.168 350.066 255.177 350.066 237.918V175.418C350.066 158.159 337.96 144.168 323.026 144.168Z" stroke="black" stroke-width="10" stroke-linecap="round" stroke-linejoin="round"/>
<rect x="100" y="157" width="152.75" height="100" rx="20" fill="#00C317"/>
<path d="M351 177V177C358.732 177 365 183.268 365 191V225C365 232.732 358.732 239 351 239V239V177Z" fill="black"/>
<path d="M235.954 188.49L233.498 191.034L237.034 191.031L291.127 190.995L134.9 289.363L211.422 213.958L214.031 211.387L210.368 211.389L156.049 211.43L298.653 123.523L235.954 188.49Z" fill="white" stroke="black" stroke-width="3"/>
<path d="M188.5 256.5H166.5" stroke="black"/>
<path d="M252 173C252 173 250.277 166.523 247.5 163.5C245.007 160.787 239.5 158.5 239.5 158.5" stroke="black"/>
<path d="M252.5 192V214" stroke="black"/>
<path d="M253.615 211.214C254.247 210.47 254.879 209.726 256.55 207.887C258.22 206.048 260.91 203.135 262.369 201.572C263.829 200.01 263.978 199.886 264.148 199.766C264.494 199.522 264.769 199.396 264.9 199.377C264.957 199.368 264.994 199.42 264.976 199.488C264.958 199.557 264.884 199.656 264.573 200.048C264.262 200.44 263.717 201.122 263.256 201.764C262.795 202.407 262.436 202.989 262.22 203.357C261.928 203.854 261.89 204.064 261.934 204.165C261.953 204.21 262.015 204.215 262.17 204.203C262.326 204.191 262.586 204.153 264.437 203.533C266.288 202.913 269.721 201.711 271.458 201.129C273.196 200.546 273.134 200.621 272.414 201.18C271.694 201.738 270.319 202.78 269.585 203.341C268.852 203.902 268.802 203.951 268.746 204.002C268.689 204.052 268.627 204.102 269.388 203.638C270.15 203.174 271.736 202.194 272.69 201.628C273.643 201.062 273.916 200.938 274.106 200.861C274.296 200.785 274.395 200.76 274.471 200.741C274.547 200.722 274.597 200.71 274.498 200.772C274.4 200.834 274.152 200.97 273.64 201.288C273.128 201.606 272.36 202.102 271.437 202.599C270.514 203.096 269.461 203.58 268.862 203.847C268.264 204.115 268.152 204.152 267.748 204.345C267.343 204.537 266.649 204.884 266.267 205.082C265.685 205.382 265.447 205.579 264.897 205.96C264.519 206.223 264.282 206.306 263.901 206.443C263.632 206.541 263.469 206.668 262.907 207.062C262.195 207.56 261.654 207.883 261.409 207.983C261.081 208.118 260.802 208.234 260.545 208.377C260.347 208.488 260.113 208.572 259.888 208.691C259.579 208.853 259.126 209.146 258.805 209.435C258.564 209.652 258.41 209.823 258.217 210.017C257.913 210.321 257.572 210.524 257.022 210.868C256.734 211.049 256.372 211.175 256.001 211.301C255.629 211.427 255.469 211.564 255.306 211.695C255.167 211.807 255.03 211.889 254.893 212.008C254.741 212.139 254.592 212.24 254.411 212.303C254.251 212.358 254.104 212.44 253.922 212.584C253.878 212.616 253.841 212.628 253.803 212.628C253.766 212.629 253.728 212.616 253.69 212.566" stroke="black" stroke-width="2" stroke-linecap="round"/>
<path d="M255.681 210.387C255.668 210.375 255.656 210.363 255.656 210.338C255.656 210.313 255.668 210.275 256.585 209.674C257.503 209.072 259.325 207.907 260.79 206.916C262.255 205.926 263.309 205.145 264.087 204.656C264.865 204.167 265.336 203.993 265.703 203.879C266.31 203.69 266.734 203.652 267.096 203.608C267.536 203.555 267.824 203.477 267.856 203.477C267.874 203.477 267.751 203.477 267.421 203.539C267.092 203.601 266.522 203.725 265.856 203.912C265.191 204.1 264.447 204.348 264.008 204.488C263.569 204.628 263.458 204.653 263.14 204.715C262.822 204.778 262.302 204.877 261.903 204.99C260.907 205.272 260.616 205.541 260.308 205.767C260.068 205.943 259.901 206.205 259.763 206.374C259.558 206.625 259.374 206.894 259.243 207.156C259.041 207.56 258.613 208.094 258.305 208.346C258.078 208.531 257.86 208.559 257.647 208.659C257.439 208.757 257.221 208.872 256.928 209.022C256.618 209.18 256.358 209.285 256.008 209.56C255.618 210.011 255.518 210.136 255.419 210.249C255.368 210.312 255.319 210.386 255.268 210.462" stroke="black" stroke-width="2" stroke-linecap="round"/>
<path d="M253.202 210.613C253.177 210.488 253.301 210.04 253.421 209.644C253.493 209.403 253.502 209.174 253.54 208.924C253.578 208.671 253.615 208.274 253.578 207.972C253.513 207.451 253.565 206.621 253.615 206.388C253.709 205.954 253.628 205.393 253.578 205.205C253.524 205.005 253.478 204.78 253.428 204.542C253.391 204.366 253.365 204.191 253.346 203.76C253.334 203.489 253.339 203.214 253.383 203.027C253.426 202.843 253.452 202.689 253.502 202.495C253.559 202.277 253.602 202.051 253.646 201.794C253.688 201.552 253.69 201.101 253.721 200.836C253.749 200.599 253.765 200.298 253.797 199.849C253.853 199.032 253.815 198.444 253.834 198.276C253.873 197.925 253.828 197.655 253.809 197.401C253.73 196.331 253.741 196.079 253.722 195.853C253.705 195.661 253.653 195.094 253.69 194.714C253.712 194.496 253.79 194.301 253.828 194.125C253.867 193.943 253.665 193.75 253.647 193.313C253.615 193.036 253.603 192.848 253.584 192.748C253.578 192.686 253.578 192.599 253.578 192.51" stroke="black" stroke-width="2" stroke-linecap="round"/>
<path d="M254.028 193.449C254.177 193.449 254.34 193.436 255.278 193.393C256.127 193.353 257.739 193.312 258.625 193.292C259.622 193.271 259.898 193.298 260.223 193.286C260.55 193.273 260.776 193.223 261.049 193.205C261.622 193.166 262.251 193.111 262.893 193.123C263.772 193.14 264.381 193.173 264.612 193.136C264.907 193.088 265.504 192.973 266.217 192.861C266.613 192.799 266.773 192.735 266.761 192.747C266.718 192.793 266.526 192.785 265.179 193.25C263.831 193.715 261.315 194.62 259.251 195.458C257.186 196.295 255.649 197.039 254.907 197.379C254.165 197.719 254.264 197.632 254.377 197.507C254.626 197.231 254.903 196.744 255.271 195.928C255.496 195.429 255.726 194.727 255.86 194.338C256.048 193.792 256.081 193.637 256.15 193.536C256.158 193.525 256.144 193.61 255.971 194.014C255.797 194.418 255.462 195.161 255.24 195.743C255.018 196.324 254.919 196.721 254.868 197.036C254.782 197.571 254.879 198.128 254.985 198.634C255.033 198.862 255.105 198.944 255.161 199.032C255.187 199.073 255.229 199.094 255.298 199.064C255.485 198.98 255.717 198.683 256.407 197.782C256.959 197.062 257.878 195.778 258.388 195.058C258.898 194.339 258.96 194.215 258.899 194.2C258.838 194.186 258.652 194.285 258.395 194.535C258.138 194.784 257.816 195.181 257.408 195.782C257 196.383 256.517 197.176 256.094 198.012C255.672 198.848 255.325 199.704 255.115 200.411C254.905 201.118 254.843 201.651 254.811 202.03C254.762 202.62 254.804 203.012 254.898 203.206C254.929 203.271 255.078 203.091 255.557 201.968C256.035 200.844 256.878 198.737 257.381 197.521C257.883 196.306 258.019 196.045 258.114 195.849C258.366 195.329 258.41 195.077 258.392 195.045C258.142 194.607 257.463 195.775 257.14 195.909C257.049 195.946 256.946 195.728 256.858 195.497C256.786 195.306 256.708 194.768 256.614 194.067C256.574 193.764 256.545 193.625 256.464 193.537C256.378 193.443 256.257 194.009 256.207 195.253C256.168 196.199 256.305 197.786 256.244 199.142C256.184 200.499 255.973 201.577 255.815 202.3C255.487 203.799 255.406 204.014 255.368 204.083C255.292 204.224 255.068 203.853 254.768 203.278C254.714 203.174 254.643 203.238 254.586 203.319C254.457 203.505 254.342 203.887 254.242 204.424C254.138 204.978 254.191 205.478 254.235 205.921C254.259 206.166 254.315 206.451 254.428 206.814C254.677 207.624 254.867 208.17 254.817 208.364C254.796 208.447 254.767 208.496 254.773 208.466C254.801 208.32 255.028 207.949 255.39 207.43C255.573 207.168 255.777 206.924 256.294 206.444C256.812 205.963 257.642 205.256 258.157 204.836C258.671 204.417 258.845 204.305 259.3 203.975C259.755 203.645 260.486 203.1 260.937 202.775C261.528 202.351 261.913 202.176 262.468 201.945C262.798 201.808 263.234 201.652 263.68 201.451C264.127 201.251 264.573 201.015 264.983 200.826C265.741 200.475 266.246 200.297 266.452 200.197C266.68 200.087 266.873 199.996 266.886 199.953C266.919 199.842 266.599 199.933 266.257 200.07C265.998 200.174 265.58 200.38 264.303 201.139C263.026 201.898 260.907 203.212 259.66 204.019C258.413 204.826 258.103 205.086 257.876 205.264C257.521 205.54 257.123 205.741 256.723 205.948C256.514 206.055 256.048 206.316 255.379 206.642C255.133 206.761 255.069 206.769 255.012 206.775C254.955 206.782 254.906 206.782 254.868 206.745C254.638 206.52 254.891 206.007 255.004 205.651C255.05 205.506 255.141 205.284 255.353 204.903C255.565 204.521 255.899 203.988 256.14 203.633C256.381 203.278 256.517 203.117 256.903 202.786C257.29 202.455 257.922 201.959 258.34 201.648C258.759 201.337 258.945 201.225 259.158 201.069C259.372 200.912 259.607 200.714 259.964 200.358C260.321 200.001 260.792 199.493 261.109 199.132C261.426 198.771 261.575 198.573 261.788 198.328C262 198.084 262.273 197.799 262.674 197.447C263.075 197.096 263.595 196.687 264.241 196.334C264.888 195.98 265.644 195.695 266.064 195.542C266.543 195.368 266.648 195.352 266.722 195.327C266.76 195.314 266.797 195.302 267.027 194.954C267.257 194.607 267.679 193.926 268.032 193.395C268.635 192.489 269.001 192.084 269.076 192.034C269.087 192.027 269.052 192.083 268.568 192.425C268.085 192.766 267.155 193.398 266.639 193.742C266.054 194.132 265.836 194.249 265.474 194.442C264.96 194.717 264.384 194.85 263.891 194.975C263.35 195.112 262.931 195.326 262.551 195.556C261.979 195.902 261.616 196.277 261.491 196.433C261.403 196.543 261.303 196.703 261.11 196.964C260.843 197.326 260.677 197.753 260.341 198.363C260.096 198.809 259.634 199.494 259.36 199.901C259.014 200.417 258.663 200.72 258.244 201.089C257.971 201.33 257.822 201.56 257.617 201.828C256.99 202.646 256.545 203.138 256.482 203.208C256.37 203.332 256.594 202.603 256.849 201.812C257.006 201.326 257.266 200.685 257.53 200.161C257.794 199.637 258.067 199.253 258.424 198.807C258.781 198.361 259.215 197.865 259.55 197.511C259.885 197.156 260.108 196.958 260.638 196.54C261.169 196.122 261.999 195.489 262.47 195.114C263.043 194.658 263.179 194.451 263.211 194.357C263.221 194.327 263.057 194.424 262.913 194.536C262.769 194.649 262.607 194.798 261.868 195.847C261.128 196.897 259.814 198.843 259.106 199.882C258.344 201.002 258.21 201.098 258.092 201.135C258.036 201.153 257.985 201.148 257.929 201.136C257.808 201.109 257.697 200.577 257.671 199.609C257.659 199.136 257.795 198.703 257.994 198.17C258.194 197.636 258.492 197.017 258.67 196.666C258.883 196.247 258.998 196.141 259.098 196.078C259.142 196.05 259.198 196.09 259.23 196.164C259.261 196.239 259.274 196.363 259.218 196.737C259.163 197.11 259.039 197.73 258.702 199.035C258.366 200.339 257.82 202.31 257.521 203.362C257.199 204.494 257.121 204.603 257.052 204.684C256.88 204.888 256.733 204.916 256.732 204.904C256.724 204.733 257.293 204.543 257.806 204.168C258.024 204.008 258.145 203.892 258.525 203.525C258.905 203.157 259.537 202.538 260.798 201.487C262.059 200.437 263.931 198.974 264.963 198.153C265.996 197.331 266.132 197.195 266.382 197.019C266.972 196.604 267.461 196.378 267.692 196.273C267.826 196.211 267.984 196.105 268.464 195.88C268.944 195.655 269.737 195.308 270.616 194.987C271.496 194.666 272.438 194.381 273.016 194.184C273.594 193.988 273.78 193.889 274.068 193.652C274.356 193.415 274.74 193.043 275.013 192.783C275.431 192.384 275.599 192.209 275.63 192.128C275.667 192.032 275.7 191.909 275.669 191.766C275.635 191.609 275.351 191.521 274.989 191.458C274.791 191.424 274.552 191.47 274.072 191.594C273.591 191.719 272.872 191.942 272.39 192.106C271.678 192.349 271.245 192.596 270.802 192.895C270.56 193.058 270.321 193.294 270.008 193.601C269.694 193.908 269.322 194.292 269.106 194.509C268.889 194.725 268.84 194.762 268.647 194.967C268.454 195.172 268.119 195.544 267.755 195.922C267.39 196.299 267.006 196.671 266.784 196.906C266.494 197.212 266.212 197.602 265.769 198.096C265.454 198.446 265.184 198.68 264.984 198.893C264.615 199.286 264.157 199.708 264.069 199.746C264.047 199.755 264.155 199.61 265.42 198.518C266.686 197.426 269.128 195.356 270.454 194.246C271.78 193.136 271.916 193.05 272.048 192.98C272.298 192.849 272.543 192.748 272.998 192.561C273.889 192.194 274.572 192.046 274.722 192.034C274.797 192.028 274.872 192.046 274.922 192.083C274.973 192.121 274.998 192.183 274.992 192.252C274.98 192.401 274.725 192.67 274.375 193.014C274.219 193.168 274.075 193.246 273.248 193.861C272.422 194.476 270.91 195.616 269.48 196.625C268.051 197.634 266.749 198.477 266.029 198.961C265.195 199.521 265.034 199.757 264.902 199.982C264.661 200.395 264.621 201.255 264.557 201.773C264.491 202.32 264.245 202.623 264.138 202.838C264.102 202.91 264.082 202.988 264.088 203.026C264.09 203.044 264.156 202.989 264.41 202.753C264.665 202.517 265.124 202.083 265.701 201.599C266.278 201.116 266.96 200.595 268.092 200.005C269.224 199.414 270.785 198.77 271.974 198.227C273.163 197.684 273.931 197.263 274.432 196.972C274.934 196.68 275.144 196.531 276.604 195.81C278.063 195.089 280.765 193.8 282.238 193.111C283.71 192.422 283.871 192.373 284.047 192.329C284.407 192.239 284.712 192.172 284.819 192.103C284.937 192.027 284.303 192.009 283.642 192.009C283.241 192.009 282.709 192.058 282.242 192.127C281.775 192.196 281.391 192.295 281.113 192.383C280.834 192.471 280.673 192.546 280.243 192.795C279.813 193.044 279.119 193.465 278.154 193.967C277.189 194.469 275.974 195.04 275.088 195.507C274.202 195.974 273.682 196.321 273.383 196.512C273.084 196.703 273.022 196.728 272.742 196.89C272.462 197.051 271.966 197.349 271.469 197.7C270.972 198.052 270.489 198.448 270.171 198.69C269.514 199.19 269.116 199.22 268.802 199.189C268.736 199.183 268.751 199.059 268.77 198.99C268.804 198.863 268.963 198.72 269.454 198.353C269.834 198.069 270.528 197.651 271.437 197.037C272.346 196.424 273.461 195.643 274.835 194.763C276.209 193.884 277.808 192.929 278.656 192.419C279.558 191.877 279.829 191.71 280.216 191.503C280.379 191.417 280.48 191.384 280.506 191.352C280.533 191.32 280.483 191.296 280.439 191.289C280.395 191.283 280.358 191.295 279.929 191.673C279.501 192.051 278.683 192.795 277.896 193.426C277.109 194.057 276.378 194.553 275.654 194.994C274.93 195.435 274.236 195.807 273.767 196.042C273.298 196.277 273.075 196.364 272.842 196.47C272.61 196.577 272.374 196.701 271.869 197.013C271.363 197.325 270.595 197.82 270.093 198.119C269.398 198.534 268.966 198.656 268.591 198.806C267.977 199.051 267.788 199.32 267.488 199.426C267.236 199.515 267.137 199.583 267.074 199.633C266.903 199.769 267.048 200.12 267.192 200.471C267.427 201.047 268.311 201.36 268.556 201.511C268.633 201.558 268.726 201.561 268.838 201.543C268.903 201.532 268.975 201.487 269.385 201.164C269.795 200.841 270.539 200.234 271.046 199.847C271.553 199.459 271.801 199.311 272.077 199.178C273.064 198.706 273.408 198.569 273.781 198.402C274.083 198.266 274.6 197.998 275.655 197.641C276.71 197.284 278.284 196.838 279.3 196.496C280.315 196.155 280.724 195.932 281.009 195.767C281.689 195.375 281.983 195.19 282.196 195.058C282.415 194.922 282.758 194.665 283.116 194.388C283.387 194.18 283.623 193.938 283.942 193.731C284.462 193.395 285.073 193.188 285.401 193.017C285.679 192.873 285.964 192.698 286.146 192.554C286.312 192.423 286.453 192.323 286.603 192.191C286.653 192.147 286.715 192.085 286.723 192.072C286.746 192.029 286.381 192.27 285.863 192.526C285.598 192.657 285.308 192.745 284.764 193.038C284.221 193.331 283.428 193.814 282.945 194.125C282.3 194.541 282.048 194.762 281.749 194.987C281.557 195.131 281.301 195.36 280.913 195.642C280.525 195.924 280.016 196.259 279.457 196.673C278.898 197.087 278.303 197.57 277.928 197.887C277.407 198.329 277.153 198.581 276.934 198.743C276.79 198.85 276.23 199.092 275.306 199.505C274.507 199.861 273.948 199.971 273.642 200.139C272.937 200.527 272.696 200.709 272.159 200.866C271.861 200.952 271.657 201.01 271.163 201.453C270.705 201.761 270.555 201.799 270.324 201.818C270.168 201.824 269.933 201.824 269.69 201.824" stroke="black" stroke-width="2" stroke-linecap="round"/>
<path d="M253.474 155.762C254.636 155.989 255.046 155.99 255.246 155.944C255.347 155.921 255.445 155.881 256.302 155.525C257.159 155.168 258.771 154.493 259.818 154.082C260.864 153.671 261.297 153.545 261.537 153.471C261.778 153.397 261.814 153.379 261.851 153.333" stroke="black" stroke-width="5" stroke-linecap="round"/>
<path d="M254.511 155.162C254.33 155.144 254.094 155.152 253.61 155.247C253.268 155.314 252.738 155.459 252.424 155.533C252.031 155.626 251.729 155.68 251.384 155.77C251.132 155.837 250.991 155.889 250.882 155.935C250.744 155.992 250.33 156.26 249.864 156.48C249.05 156.864 248.89 156.944 248.735 157.044C248.516 157.186 248.353 157.244 248.212 157.335C248.096 157.41 247.962 157.472 247.771 157.535C247.493 157.628 247.225 157.772 247.016 157.79C246.826 157.807 246.689 157.899 246.48 158.031C246.246 158.178 246.116 158.245 245.965 158.318C245.723 158.436 245.408 158.382 245.206 158.431C245.176 158.439 245.151 158.454 245.151 158.454C245.053 158.487 245.468 158.409 245.623 158.436C245.804 158.468 245.969 158.482 246.083 158.518C246.213 158.56 246.341 158.573 246.46 158.604C246.6 158.642 246.678 158.845 246.738 158.954C246.797 159.063 246.833 159.172 246.897 159.282C246.971 159.41 247.142 159.5 247.251 159.582C247.353 159.658 247.488 159.736 247.629 159.828C247.747 159.904 247.852 160 247.943 160.105C248.059 160.239 248.152 160.328 248.261 160.464C248.49 160.75 248.597 160.964 248.766 161.291C248.858 161.471 248.925 161.674 249.003 161.819C249.134 162.067 249.207 162.283 249.375 162.479C249.542 162.673 249.625 162.856 249.757 162.943C249.882 163.025 249.98 163.111 250.117 163.189C250.262 163.271 250.344 163.375 250.435 163.462C250.57 163.59 250.626 163.866 250.685 163.998C250.767 164.181 251.044 164.375 251.149 164.517C251.283 164.697 251.354 165.012 251.422 165.126C251.499 165.254 251.527 165.394 251.59 165.608C251.65 165.808 251.754 165.913 251.89 165.999C252.04 166.095 252.136 166.258 252.2 166.377C252.28 166.526 252.409 166.677 252.464 166.786C252.55 166.958 252.527 167.25 252.591 167.377C252.681 167.557 252.628 167.795 252.664 168.004C252.708 168.262 253.027 167.697 253.114 167.556C253.267 167.307 253.4 167.196 253.636 166.956C253.788 166.801 253.964 166.669 254.128 166.537C254.311 166.389 254.455 166.187 254.994 165.544C255.236 165.256 255.622 164.857 255.839 164.617C256.188 164.231 256.374 163.968 256.7 163.669C256.849 163.532 256.991 163.459 257.412 163.102C257.833 162.745 258.535 162.115 258.924 161.781C259.313 161.447 259.367 161.429 259.417 161.388C259.468 161.348 259.513 161.285 260.436 160.289C261.36 159.293 263.161 157.365 264.098 156.359C265.035 155.353 265.053 155.326 265.08 155.294C265.107 155.262 265.143 155.226 265.099 155.225C265.054 155.225 264.928 155.261 263.715 156.126C262.502 156.991 260.206 158.684 258.874 159.696C257.543 160.707 257.245 160.987 257.029 161.175C256.813 161.364 256.687 161.454 256.514 161.6C256.341 161.745 256.125 161.943 255.64 162.298C255.155 162.652 254.407 163.156 253.977 163.434C253.33 163.852 253.047 163.857 252.869 163.889C252.829 163.897 252.783 163.894 252.778 163.867C252.773 163.84 252.809 163.786 254.219 162.583C255.629 161.38 258.411 159.029 260.313 157.495C262.215 155.96 263.151 155.311 263.656 154.955C264.161 154.598 264.206 154.553 264.243 154.521C264.28 154.489 264.307 154.471 263.744 154.714C263.182 154.956 262.029 155.461 260.305 156.378C258.581 157.295 256.321 158.61 255.039 159.382C253.758 160.154 253.524 160.343 253.385 160.458C253.208 160.606 252.921 160.818 252.521 161.086C252.341 161.207 252.237 161.22 252.133 161.206C252.089 161.201 252.073 161.166 252.064 161.089C252.055 161.012 252.055 160.886 252.122 160.623C252.294 159.955 252.482 159.519 252.55 159.41C252.815 158.985 253.118 158.764 253.277 158.623C253.321 158.585 253.355 158.537 253.517 158.347C253.68 158.158 253.968 157.824 254.517 157.279C255.066 156.734 255.868 155.986 256.393 155.516C256.919 155.045 257.144 154.874 257.278 154.768C257.412 154.662 257.448 154.626 257.453 154.612C257.461 154.59 257.241 154.589 256.77 154.539C256.463 154.506 256.011 154.498 255.73 154.475C255.347 154.444 255.184 154.362 255.084 154.28C254.999 154.211 255.029 154.062 255.047 153.935C255.066 153.798 255.291 153.599 255.609 153.34C255.764 153.213 255.944 153.144 256.541 152.8C257.138 152.457 258.156 151.854 259.414 151.165C260.672 150.476 262.14 149.719 263.189 149.248C264.238 148.778 264.823 148.616 265.296 148.505C265.768 148.395 266.11 148.341 266.854 147.813C267.598 147.285 268.732 146.286 269.573 145.6C270.415 144.914 270.928 144.572 271.359 144.319C271.79 144.066 272.123 143.913 272.511 143.685C272.899 143.458 273.331 143.161 273.68 142.945C274.267 142.58 274.666 142.436 274.902 142.382C275.011 142.357 275.102 142.363 275.14 142.377C275.177 142.39 275.159 142.417 274.668 142.895C274.177 143.373 273.214 144.3 272.051 145.305C270.888 146.31 269.555 147.363 268.792 147.987C268.029 148.611 267.876 148.773 267.707 148.982C267.538 149.192 267.358 149.444 267.157 149.781C266.956 150.118 266.74 150.532 266.606 150.777C266.436 151.09 266.345 151.213 266.263 151.367C266.155 151.571 265.991 151.876 265.796 152.167C265.562 152.514 265.263 152.878 265.217 153.005C265.207 153.031 265.226 153.06 265.244 153.078C265.262 153.097 265.289 153.106 265.321 153.106C265.5 153.107 265.725 152.843 266.273 152.268C266.504 152.026 266.865 151.721 267.15 151.495C267.434 151.27 267.641 151.144 267.851 151.029C268.062 150.915 268.269 150.816 268.56 150.657C268.851 150.497 269.221 150.281 269.636 150.075C270.051 149.87 270.502 149.68 270.774 149.556C271.047 149.432 271.128 149.378 271.3 149.233C271.741 148.862 272.047 148.585 272.147 148.522C272.424 148.346 272.575 148.067 272.662 147.931C272.762 147.773 272.965 147.504 273.148 147.33C273.221 147.276 273.294 147.212 273.353 147.139C273.376 147.103 273.385 147.067 273.394 147.03" stroke="black" stroke-width="5" stroke-linecap="round"/>
<path d="M275.667 141.735C275.675 141.704 275.769 141.595 275.944 141.451C276.204 141.236 276.557 140.916 276.718 140.736C276.823 140.618 277.056 140.37 277.506 139.998C277.712 139.827 277.979 139.658 278.159 139.536C278.436 139.35 278.527 139.267 278.784 139.021C278.959 138.854 279.105 138.704 279.362 138.462C279.488 138.344 279.667 138.212 279.831 138.075C279.932 137.991 280.213 137.799 280.556 137.526C280.913 137.242 281.183 137.024 281.382 136.892C281.637 136.722 281.847 136.594 281.933 136.516C282.043 136.417 282.237 136.236 282.506 136.033C282.844 135.779 283.165 135.588 283.437 135.399C283.638 135.26 283.947 135.01 284.152 134.836C284.279 134.729 284.418 134.586 284.559 134.485C284.735 134.358 284.933 134.212 285.366 133.911C285.727 133.661 285.902 133.469 286.253 133.188C286.386 133.082 286.473 133.039 286.636 132.946C287.293 132.57 287.449 132.586 287.551 132.539C287.598 132.5 287.645 132.461 287.696 132.422C287.723 132.398 287.754 132.367 287.81 132.336" stroke="black" stroke-width="5" stroke-linecap="round"/>
<path d="M180.267 259.47C180.275 259.423 180.306 259.33 180.369 259.216C180.445 259.077 180.867 258.993 181.089 258.93C181.197 258.899 181.332 258.805 181.442 258.761C181.542 258.722 181.63 258.679 181.724 258.648C181.748 258.64 181.771 258.632 181.744 258.628C181.717 258.624 181.64 258.624 181.224 258.686C180.808 258.748 180.055 258.872 179.605 258.94C179.156 259.008 179.032 259.016 178.855 259.031C178.679 259.047 178.454 259.07 178.233 259.082C177.804 259.105 177.541 259.086 177.435 259.075C177.308 259.06 177.188 259.086 176.963 259.145C176.784 259.191 176.473 259.257 176.1 259.301C175.727 259.345 175.3 259.36 175.046 259.364C174.721 259.37 174.541 259.353 174.341 259.345C174.036 259.333 173.618 259.259 173.365 259.231C173.183 259.211 172.887 259.134 172.757 259.114C172.544 259.081 172.183 259.063 171.763 259.043C171.608 259.036 171.407 258.993 171.245 258.957C171.141 258.934 171.03 259.062 170.643 259.433C170.507 259.564 170.32 259.687 169.949 259.941C169.578 260.195 169.019 260.567 168.611 260.872C168.203 261.176 167.963 261.401 167.777 261.563C167.474 261.828 167.277 261.946 167.218 261.985C167.21 261.99 167.29 261.978 167.544 261.888C167.797 261.799 168.231 261.636 169.3 261.428C170.37 261.22 172.061 260.972 172.978 260.844C173.896 260.716 173.989 260.716 174.014 260.743C174.071 260.806 173.843 260.95 173.586 261.114C173.229 261.341 172.926 261.499 172.72 261.62C172.23 261.907 172.08 261.922 171.757 262.152C171.5 262.334 171.1 262.715 170.865 262.914C170.525 263.202 170.333 263.208 170.129 263.227C169.937 263.245 169.69 263.38 169.44 263.571C169.098 263.833 168.844 263.991 168.645 264.123C168.467 264.242 168.145 264.488 167.957 264.635C167.731 264.829 167.653 264.9 167.582 264.947C167.551 264.97 167.527 264.994 167.456 265.041" stroke="black" stroke-width="5" stroke-linecap="round"/>
<path d="M167.973 262.797C167.817 262.758 167.078 263.262 166.477 263.726C166.172 263.961 165.667 264.438 165.042 264.927C164.197 265.587 163.512 266.358 163.228 266.652C162.934 266.956 162.514 267.317 162.25 267.532C162.159 267.607 162.045 267.727 161.966 267.816C161.887 267.905 161.848 267.963 161.925 267.993C162.179 268.091 162.686 267.964 163.62 267.692C164.272 267.503 165.252 267.11 165.868 266.892C167.003 266.488 167.403 266.399 167.708 266.408C167.765 266.409 167.777 266.495 167.758 266.564C167.713 266.723 167.31 266.983 166.444 267.471C165.895 267.779 165.092 268.152 164.586 268.38C163.897 268.692 163.609 268.766 163.25 268.912C161.911 269.455 161.458 269.509 161.067 269.705C160.283 270.096 159.931 270.37 159.667 270.517C159.27 270.738 159.05 270.918 158.766 271.114C158.521 271.283 158.189 271.446 157.973 271.506C157.746 271.569 158.847 270.417 159.844 269.254C160.351 268.663 160.535 268.415 160.556 268.423C160.651 268.463 160.305 268.761 159.741 269.298C159.176 269.834 158.246 270.648 157.728 271.116C156.954 271.815 156.761 272.053 156.428 272.142C156.135 272.219 155.841 272.386 155.537 272.611C155.247 272.825 154.864 273.264 154.578 273.589C154.367 273.829 154.021 274.068 153.766 274.235C153.541 274.383 153.238 274.441 153.003 274.568C152.668 274.749 152.514 275.125 152.308 275.36C152.121 275.575 151.888 275.771 151.662 276.055C151.454 276.317 151.183 276.593 150.948 276.77C150.713 276.946 150.479 277.141 150.234 277.298C149.952 277.478 149.715 277.747 149.519 278.012C149.268 278.351 148.952 278.589 148.756 278.834C148.526 279.121 148.248 279.196 148.013 279.353C147.896 279.431 147.758 279.509 147.612 279.597C147.543 279.646 147.485 279.704 147.366 279.764" stroke="black" stroke-width="5" stroke-linecap="round"/>
</svg>
