<svg width="427" height="442" viewBox="0 0 427 442" fill="none" xmlns="http://www.w3.org/2000/svg">
<path d="M323.026 144.168H112.107C97.173 144.168 85.0664 158.159 85.0664 175.418V237.918C85.0664 255.177 97.173 269.168 112.107 269.168H323.026C337.96 269.168 350.066 255.177 350.066 237.918V175.418C350.066 158.159 337.96 144.168 323.026 144.168Z" stroke="black" stroke-width="10" stroke-linecap="round" stroke-linejoin="round"/>
<rect x="100" y="157" width="164.5" height="100" rx="20" fill="black"/>
<path d="M182.144 255.244C182.006 255.244 181.868 255.244 181.343 255.29C180.819 255.336 179.913 255.428 177.073 255.56C174.233 255.692 169.487 255.861 166.62 255.895C163.753 255.928 162.908 255.82 162.358 255.773C161.577 255.74 161.017 255.802 160.482 255.864C160.27 255.88 160.178 255.865 159.99 255.803" stroke="black" stroke-linecap="round"/>
<path d="M351 177V177C358.732 177 365 183.268 365 191V225C365 232.732 358.732 239 351 239V239V177Z" fill="black"/>
<path d="M225.954 189.49L223.498 192.034L227.034 192.031L281.127 191.995L124.9 290.363L201.422 214.958L204.031 212.387L200.368 212.389L146.049 212.43L288.653 124.523L225.954 189.49Z" fill="white" stroke="black" stroke-width="3"/>
<line x1="160" y1="255" x2="183" y2="255" stroke="black" stroke-width="4"/>
<path d="M233.5 157.5C246.379 157.265 251.055 157.894 254.5 160.5" stroke="black"/>
<path d="M264.5 202.5V192H265.5V200.5H266.5V193L268 192.5L267.878 194.202M268.5 194L276 193.5L267 193L267.5 199.5L267.698 196.73M268.5 194L275 194.5L267.878 194.202M268.5 194L268 193.5L269 197.5L268.5 198.5L267.698 196.73M267.878 194.202L267.698 196.73M267.698 196.73L269.5 197L269 195H273.5M273.5 195L270 195.438M273.5 195L271.345 196.293M270 195.438L269.5 195.5L269.75 196.25M270 195.438L270.5 195.5L271.345 196.293M271.345 196.293L271 196.5L270 197L269.75 196.25M269.75 196.25L271.345 195.721" stroke="black"/>
<path d="M242.026 155.509C242.119 155.498 242.347 155.457 242.503 155.415C242.765 155.346 243.085 155.363 243.622 155.358C244.065 155.353 244.919 155.445 245.374 155.472C245.933 155.504 246.1 155.395 246.281 155.358C246.521 155.31 246.713 155.405 246.988 155.477C247.284 155.555 247.492 155.592 247.643 155.628C247.822 155.671 248.054 155.716 248.298 155.763C248.584 155.818 248.874 155.841 249.155 155.888C249.404 155.929 249.747 156.028 249.961 156.07C250.07 156.091 250.267 156.091 250.681 156.127C251.396 156.189 251.931 156.423 252.128 156.491C252.383 156.578 252.638 156.621 252.784 156.668C252.924 156.712 253.054 156.849 253.189 156.969C253.22 156.996 253.251 157.016 252.814 156.753C252.378 156.491 251.472 155.946 250.98 155.644C250.432 155.309 250.198 155.146 249.891 154.964C249.724 154.865 249.285 154.586 248.677 154.15C248.377 153.935 248.232 153.732 248.03 153.448C247.784 153.1 247.608 152.828 247.504 152.749C247.468 152.722 247.442 152.764 247.441 152.811C247.441 152.857 247.462 152.919 247.483 152.966C247.503 153.014 247.524 153.045 247.576 153.05C247.628 153.056 247.71 153.035 248.596 152.551C249.482 152.067 251.17 151.121 252.153 150.55C253.135 149.98 253.362 149.816 253.838 149.494C254.315 149.173 255.036 148.699 256.302 147.982C257.568 147.265 259.359 146.318 260.369 145.8C261.379 145.281 261.554 145.219 261.67 145.187C261.785 145.156 261.837 145.156 261.858 145.176C261.903 145.22 261.787 145.383 261.647 145.57C261.53 145.726 261.32 145.882 260.566 146.64C259.931 147.28 258.846 148.499 258.026 149.469C257.207 150.439 256.703 151.139 256.314 151.644C255.926 152.148 255.669 152.436 255.51 152.621C255.06 153.146 254.76 153.751 254.65 153.907C254.564 154.031 254.417 154.136 254.323 154.271C254.22 154.419 254.209 154.593 254.12 154.76C254.073 154.849 254.001 154.906 253.918 154.942C253.802 154.993 253.534 154.979 253.28 154.999C253.207 155.005 253.261 155.061 253.303 155.087C253.461 155.186 253.688 155.186 254.072 155.254C254.272 155.289 254.56 155.322 254.774 155.27C255.128 155.185 255.351 154.845 255.683 154.569C256.082 154.238 256.317 153.847 256.463 153.675C256.523 153.605 256.66 153.431 256.935 153.084C257.316 152.602 257.617 152.318 257.803 152.127C257.953 151.972 258.236 151.72 258.477 151.52C258.9 151.17 259.228 150.998 259.415 150.91C259.636 150.805 260.048 150.593 260.628 150.149C260.984 149.876 261.372 149.395 261.615 149.142C262.027 148.712 262.336 148.566 262.466 148.425C262.627 148.253 262.804 148.098 262.934 147.952C263.022 147.859 263.116 147.745 263.225 147.605C263.292 147.527 263.385 147.434 263.543 147.307" stroke="black" stroke-width="5" stroke-linecap="round"/>
<path d="M262.919 144.75C262.94 144.75 263.269 144.586 263.804 144.3C264.133 144.125 264.486 143.909 264.896 143.707C265.22 143.547 265.423 143.296 265.792 143.026C266.057 142.832 266.317 142.703 266.551 142.552C266.624 142.505 266.939 142.227 267.37 141.791C267.618 141.54 267.968 141.229 268.189 141.029C268.352 140.881 268.521 140.717 268.791 140.577C269.083 140.426 269.342 140.125 269.586 139.892C270.214 139.292 270.361 139.107 270.512 138.982C270.691 138.833 270.88 138.743 271.063 138.597C271.272 138.429 271.38 138.265 271.52 138.109C271.671 137.941 271.806 137.766 272.225 137.496C272.76 137.152 272.959 136.882 273.219 136.628C273.396 136.455 273.573 136.3 273.765 136.175C273.962 136.047 274.186 135.874 274.342 135.64C274.518 135.377 274.736 135.219 275.094 134.893C275.732 134.311 275.942 134.169 276.202 133.961C276.678 133.581 276.961 133.462 277.128 133.311C277.232 133.192 277.326 133.119 277.388 133.057C277.419 133.025 277.45 132.994 277.482 132.963" stroke="black" stroke-width="5" stroke-linecap="round"/>
<path d="M240.671 157.241C240.458 157.216 240.298 157.19 240.207 157.162C240.033 157.108 239.857 156.756 239.71 156.539C239.69 156.509 239.666 156.507 239.647 156.51C239.628 156.514 239.609 156.526 239.618 156.567C239.683 156.858 239.799 157.082 239.808 157.155C239.813 157.192 239.761 157.058 239.72 157.001C239.625 156.869 239.357 156.849 239.236 156.823C239.162 156.808 239.078 156.798 239.046 156.798C238.867 156.798 239.418 156.893 239.555 156.874C239.602 156.849 239.671 156.799 239.747 156.751C239.823 156.704 239.904 156.66 239.988 156.615" stroke="black" stroke-linecap="round"/>
<path d="M173.164 257.592C173.184 257.592 173.205 257.592 173.246 257.602C173.893 257.763 171.318 258.925 170.806 259.191C170.643 259.276 170.459 259.355 170.466 259.367C170.741 259.79 171.355 259.05 172.104 258.671C172.733 258.353 173.409 257.982 173.707 257.839C173.972 257.711 174.21 257.491 174.446 257.223C174.499 257.163 174.538 257.1 174.458 257.089C174.377 257.078 174.174 257.119 173.399 257.729C172.623 258.339 171.282 259.518 170.388 260.338C169.494 261.159 169.088 261.585 168.909 261.714C168.73 261.842 168.791 261.659 169.219 261.016C169.646 260.374 170.439 259.276 170.989 258.579C171.778 257.58 172.361 257.203 172.781 256.967C172.956 256.87 173.059 256.833 172.898 257.056C172.737 257.279 172.311 257.767 170.912 259.024C169.514 260.281 167.157 262.292 166.431 262.831C165.704 263.369 166.679 262.373 167.923 261.21C169.167 260.047 170.651 258.747 171.455 258.026C172.26 257.306 172.341 257.204 172.353 257.162C172.364 257.12 172.303 257.14 170.9 258.309C169.497 259.477 166.754 261.793 165.372 262.956C163.989 264.119 164.05 264.058 164.183 263.945C164.316 263.833 164.519 263.67 165.457 262.784C166.395 261.898 168.061 260.292 168.95 259.425C169.839 258.557 169.9 258.476 169.961 258.383C170.023 258.291 170.084 258.189 170.004 258.177C169.924 258.166 169.7 258.247 167.939 259.701C166.178 261.155 162.887 263.979 160.967 265.678C159.048 267.377 158.601 267.864 158.411 268.085C158.222 268.306 158.303 268.245 160.082 266.639C161.861 265.033 165.336 261.883 167.268 260.159C169.2 258.435 169.485 258.232 169.408 258.29C169.331 258.348 168.884 258.673 167.19 260.253C165.497 261.832 162.571 264.657 160.962 266.244C159.354 267.831 159.15 268.095 159.076 268.21C159.002 268.326 159.063 268.286 159.978 267.371C160.893 266.456 162.661 264.668 164.141 263.33C165.62 261.992 166.758 261.159 167.314 260.74C167.87 260.321 167.809 260.342 166.944 260.982C166.08 261.622 164.413 262.882 163.423 263.653C162.433 264.424 162.169 264.668 162.185 264.631C162.201 264.594 162.506 264.269 163.801 263.258C165.096 262.247 167.371 260.561 169.235 259.306C171.098 258.051 172.479 257.279 173.242 256.861C174.005 256.443 174.106 256.402 172.381 257.489C170.655 258.575 167.099 260.79 165.146 262.022C163.192 263.255 162.948 263.437 162.883 263.461C162.819 263.484 162.941 263.341 164.355 262.191C165.769 261.041 168.471 258.887 169.904 257.727C171.337 256.567 171.418 256.465 171.399 256.433C171.38 256.401 171.258 256.442 169.976 257.346C168.694 258.251 166.256 260.019 164.837 261.021C163.418 262.023 163.093 262.206 163.17 262.077C163.246 261.947 163.734 261.5 164.93 260.681C166.126 259.861 168.015 258.683 167.638 258.949C167.26 259.216 164.558 260.963 162.8 262.209C161.042 263.455 160.31 264.146 160.035 264.481C159.76 264.817 159.963 264.776 161.795 263.617C163.627 262.458 167.081 260.183 168.769 259.112C170.457 258.041 170.274 258.244 169.794 258.664C168.563 259.739 167.685 260.383 167.653 260.403C167.629 260.42 167.805 260.383 168.528 259.987C169.251 259.59 170.572 258.818 171.476 258.238C172.38 257.657 172.827 257.291 171.157 258.22C169.488 259.15 165.688 261.385 163.66 262.567C161.631 263.748 161.489 263.809 161.416 263.8C161.342 263.791 161.342 263.71 161.627 263.353C161.911 262.996 162.48 262.366 163.901 261.168C165.322 259.97 167.577 258.222 168.881 257.241C170.185 256.259 170.47 256.097 170.576 256.033C170.682 255.97 170.6 256.011 168.841 257.281C167.083 258.552 163.649 261.051 163.079 261.302C162.508 261.553 164.906 259.481 166.08 258.423C167.254 257.366 167.132 257.386 166.552 257.651C165.971 257.915 164.934 258.423 163.618 259.243C162.302 260.064 160.738 261.181 159.891 261.798C158.953 262.481 158.798 262.64 158.705 262.712C158.693 262.722 158.755 262.683 159.813 261.768C160.87 260.853 162.922 259.065 163.766 258.245C164.61 257.426 164.183 257.629 163.161 258.323C162.138 259.017 160.533 260.195 159.737 260.782C158.94 261.369 159.001 261.328 159.927 260.464C160.852 259.6 162.64 257.913 163.582 257.014C164.523 256.115 164.564 256.054 164.107 256.337C163.651 256.621 162.696 257.251 161.675 258.022C160.655 258.794 159.599 259.688 159.024 260.169C158.449 260.649 158.388 260.69 158.458 260.63C158.528 260.569 158.732 260.407 159.476 259.592C160.221 258.776 161.501 257.314 162.201 256.499C162.901 255.684 162.983 255.562 162.598 255.865C161.33 256.863 160.257 257.897 160.497 257.688C160.986 257.261 162.119 256.076 162.696 255.51C163.272 254.944 163.231 255.005 162.52 255.778C161.808 256.551 160.426 258.034 159.694 258.839C158.962 259.643 158.921 259.725 159.012 259.665C159.103 259.605 159.326 259.402 159.939 258.718C160.552 258.035 161.548 256.876 162.152 256.198C162.919 255.339 163.27 255.109 163.526 254.996C163.634 254.949 163.721 254.985 163.763 255.087C163.805 255.189 163.805 255.372 162.901 256.522C161.997 257.673 160.188 259.786 159.43 260.773C158.671 261.76 159.016 261.557 160.047 260.772C161.079 259.986 162.786 258.625 164.478 257.406C166.17 256.186 167.795 255.15 168.754 254.586C169.714 254.021 169.957 253.96 170.012 254.051C170.066 254.141 169.924 254.385 168.175 255.76C166.425 257.136 163.072 259.635 162.869 259.642C162.666 259.65 165.714 257.089 167.335 255.74C168.956 254.391 169.057 254.33 169.018 254.4C168.979 254.47 168.796 254.673 167.371 255.814C165.946 256.955 163.284 259.028 161.862 260.126C160.44 261.224 160.339 261.285 160.327 261.265C160.315 261.246 160.397 261.145 161.231 260.452C162.065 259.76 163.65 258.48 164.873 257.587C166.096 256.693 166.908 256.226 167.571 255.874C168.233 255.521 168.721 255.298 168.952 255.233C169.183 255.169 169.142 255.271 168.004 256.298C166.865 257.326 164.63 259.276 163.509 260.271C162.388 261.266 162.449 261.245 163.293 260.656C164.138 260.066 165.763 258.908 166.58 258.352C167.397 257.796 167.357 257.878 167.224 258.031C167.091 258.185 166.868 258.408 166.377 258.838C165.886 259.268 165.134 259.898 164.777 260.182C164.42 260.466 164.481 260.385 165.285 259.703C166.088 259.021 167.632 257.741 168.56 257C169.488 256.259 169.752 256.097 169.878 256.044C170.004 255.99 169.983 256.051 168.723 257.251C167.463 258.451 164.964 260.787 163.727 261.92C162.491 263.053 162.592 262.91 163.559 262.055C164.526 261.199 166.354 259.635 167.672 258.575C168.99 257.515 169.742 257.007 170.19 256.715C170.638 256.423 170.76 256.362 170.803 256.371C170.891 256.39 170.519 256.809 169.459 257.738C168.667 258.431 167.261 259.459 167.372 259.485C167.483 259.511 169.129 258.475 170.17 257.849C172.068 256.709 172.588 256.751 172.834 256.74C172.923 256.736 172.918 256.871 172.816 257.046C172.556 257.493 172.16 257.837 171.538 258.276C170.285 259.159 169.307 259.664 169.203 259.706C169.103 259.746 170.343 259.156 171.84 258.418C172.401 258.141 172.566 258.086 172.69 258.044C172.814 258.002 172.896 257.982 172.795 258.094C172.445 258.483 171.589 258.924 170.748 259.272C170.437 259.401 170.354 259.418 170.82 259.012C171.286 258.606 172.302 257.773 172.795 257.323C173.288 256.874 173.227 256.833 173.094 256.812C172.961 256.791 172.758 256.791 172.684 256.781C172.609 256.771 172.67 256.751 173.311 256.588C173.952 256.425 175.171 256.12 175.85 255.963C176.529 255.806 176.631 255.806 176.632 255.827C176.641 255.943 175.574 256.478 174.21 257.38C173.692 257.723 173.557 257.876 173.595 257.878C174.23 257.531 174.742 257.265 175.142 257.019C175.318 256.915 175.44 256.854 175.689 256.73" stroke="black" stroke-linecap="round"/>
<path d="M159.187 262.025C159.146 262.045 159.106 262.066 158.343 262.757C157.581 263.448 156.097 264.809 155.303 265.551C154.244 266.54 153.934 266.888 153.8 267.043C153.7 267.157 154.585 266.687 155.862 265.707C156.664 265.092 157.648 264.077 158.547 263.147C159.446 262.218 160.198 261.365 160.636 260.885C161.348 260.105 161.67 259.81 162.008 259.43C162.105 259.321 162.182 259.195 162.275 259.082C162.367 258.968 162.469 258.866 162.227 259.007C161.984 259.148 161.395 259.534 160.462 260.241C159.528 260.947 158.268 261.963 157.569 262.538C156.532 263.388 156.232 263.585 156.109 263.585C156.044 263.585 155.987 263.504 155.986 263.381C155.983 263.07 156.169 262.806 156.404 262.561C156.828 262.118 157.419 261.739 158.216 261.31C159.508 260.614 160.54 260.179 160.858 259.974C161.067 259.839 161.239 259.747 161.342 259.706C161.368 259.695 161.322 259.827 160.306 261.088C159.289 262.349 157.298 264.767 156.171 266.165C154.814 267.848 154.59 268.284 154.518 268.468C154.486 268.551 154.467 268.612 155.574 267.902C156.681 267.191 158.916 265.708 160.108 264.924C161.376 264.09 161.526 264.037 161.497 264.046C161.406 264.077 161.162 264.158 160.285 264.647C159.408 265.136 157.904 266.03 156.886 266.673C155.867 267.316 155.38 267.682 154.874 268.114C153.834 269.004 153.236 269.659 152.95 269.945C152.502 270.313 152.128 270.624 151.933 270.808C151.84 270.891 151.759 270.952 151.614 271.014" stroke="black" stroke-width="5" stroke-linecap="round"/>
<path d="M134.559 282.405C134.722 282.262 135.659 281.65 136.424 281.227C136.894 280.966 137.368 280.56 137.788 280.191C137.991 280.013 138.147 279.823 138.901 279.089C139.656 278.354 140.997 277.074 141.86 276.222C142.724 275.369 143.069 274.983 143.349 274.642C143.628 274.301 143.831 274.017 144.556 273.271C145.28 272.525 146.52 271.326 147.371 270.566C148.603 269.467 149.211 269.168 149.508 268.994C149.687 268.889 149.906 268.719 150.367 268.442C150.827 268.166 151.518 267.78 152.361 267.245C153.205 266.711 154.18 266.041 154.805 265.594C156.009 264.732 156.169 264.428 156.375 264.303C156.711 264.1 155.639 265.123 154.924 265.612C154.428 265.953 153.682 266.509 153.233 266.852C152.649 267.3 152.233 267.687 151.72 268.087C151.422 268.32 151.083 268.57 150.216 269.477C149.557 270.167 148.516 271.38 147.738 272.343C146.96 273.306 146.492 273.997 146.211 274.414C145.848 274.952 145.724 275.16 145.774 275.171C146.194 275.266 146.786 274.058 147.545 273.114C147.837 272.76 147.938 272.658 148.001 272.576C148.063 272.493 148.083 272.432 148.166 272.369" stroke="black" stroke-width="5" stroke-linecap="round"/>
</svg>
