<svg width="427" height="442" viewBox="0 0 427 442" fill="none" xmlns="http://www.w3.org/2000/svg">
<path d="M323.026 144.168H112.107C97.173 144.168 85.0664 158.159 85.0664 175.418V237.918C85.0664 255.177 97.173 269.168 112.107 269.168H323.026C337.96 269.168 350.066 255.177 350.066 237.918V175.418C350.066 158.159 337.96 144.168 323.026 144.168Z" stroke="black" stroke-width="10" stroke-linecap="round" stroke-linejoin="round"/>
<rect x="100" y="157" width="176.25" height="100" rx="20" fill="#00C317"/>
<path d="M245.429 157.716H262.706" stroke="black" stroke-linecap="round"/>
<path d="M351 177V177C358.732 177 365 183.268 365 191V225C365 232.732 358.732 239 351 239V239V177Z" fill="black"/>
<path d="M233.954 189.49L231.498 192.034L235.034 192.031L289.127 191.995L132.9 290.363L209.422 214.958L212.031 212.387L208.368 212.389L154.049 212.43L296.653 124.523L233.954 189.49Z" fill="white" stroke="black" stroke-width="3"/>
<path d="M264.5 159.5C258.454 156.46 252.348 156.591 240.5 157.5" stroke="black"/>
<line x1="187" y1="256.5" x2="169" y2="256.5" stroke="black"/>
<path d="M283.053 192.94C283.728 192.999 284.036 193.094 284.156 193.159C284.203 193.185 283.908 193.26 283.16 193.443C282.586 193.583 281.625 193.848 280.958 194.046C279.944 194.347 279.53 194.541 279.406 194.6C279.319 194.642 279.245 194.672 279.174 194.696C279.008 194.751 278.784 194.471 278.605 194.399C278.461 194.342 278.273 194.269 278.077 194.251C277.915 194.236 277.751 194.174 277.608 194.05C277.471 193.93 277.347 193.795 277.258 193.652C277.237 193.618 277.228 193.581 277.234 193.598C277.305 193.812 277.311 194.101 277.317 194.735C277.32 194.972 277.252 195.439 277.281 195.962C277.35 197.173 277.24 197.305 277.222 197.435C277.213 197.506 277.216 197.588 277.346 197.449C277.777 196.982 278.164 196.394 278.442 196.103C278.694 195.841 279.205 195.552 279.931 195.266C280.134 195.186 280.758 194.97 281.611 194.692C282.044 194.551 282.339 194.282 282.542 193.991C282.597 193.912 282.625 193.83 282.696 193.771C282.729 193.743 282.767 193.735 282.703 193.77C282.478 193.893 282.07 194.019 281.65 194.096C281.338 194.153 281.026 194.138 280.571 194.068C279.467 193.896 279.258 193.676 279.038 193.581C278.881 193.514 278.794 193.439 278.759 193.45C278.419 193.557 278.699 193.948 278.664 194.031C278.647 194.07 278.605 194.09 278.563 194.102C278.398 194.15 278.202 194.079 277.929 194.002C277.65 193.924 277.502 193.759 277.359 193.676C277.207 193.587 277.193 193.403 277.139 193.255C277.106 193.163 277.062 193.083 277.033 193.012C277.017 192.975 276.991 192.941 276.979 192.975C276.87 193.289 276.932 193.615 276.89 193.87C276.82 194.305 276.766 194.541 276.748 194.748C276.724 195.027 276.742 195.359 276.789 195.573C276.837 195.787 276.884 195.929 276.931 196.071C276.99 196.246 277.026 196.509 277.103 196.8C277.158 197.008 277.181 197.292 277.21 197.642C277.25 198.11 277.181 198.301 277.151 198.597C277.136 198.749 277.145 199.008 277.128 199.124C277.11 199.239 277.075 199.204 277.051 199.162C276.954 198.995 276.967 198.366 277.003 197.864C277.024 197.566 277.062 197.259 277.08 197.028C277.105 196.71 277.204 196.334 277.246 196.038C277.288 195.734 277.264 195.491 277.281 195.238C277.351 194.248 277.323 193.845 277.288 193.481C277.266 193.257 277.216 193.072 277.187 192.775C277.166 192.564 277.169 192.407 277.134 192.342C277.043 192.175 276.849 192.028 276.689 191.838C276.611 191.744 276.541 191.659 276.47 191.612C276.438 191.591 276.399 191.611 276.386 191.635C276.325 191.753 276.433 192.26 276.475 192.631C276.516 192.761 276.564 192.869 276.599 194.02C276.611 195.136 276.611 197.332 276.611 199.595" stroke="black" stroke-width="2" stroke-linecap="round"/>
<path d="M156.91 264.564H176.99" stroke="black" stroke-linecap="round"/>
<path d="M170.244 265.453C170.088 265.453 169.672 265.522 169.122 265.566C168.506 265.615 167.632 265.488 167.36 265.444C167.229 265.423 167.09 265.383 166.64 265.357C165.571 265.295 164.789 265.331 164.624 265.305C164.202 265.238 163.745 265.348 163.36 265.391C162.909 265.442 162.076 265.348 161.434 265.305C161.146 265.285 160.729 265.243 160.406 265.183C159.838 265.076 159.491 264.965 159.09 264.826C158.943 264.774 158.845 264.703 158.853 264.703C158.915 264.701 159.085 264.772 159.597 264.868C160.109 264.963 160.954 265.101 161.441 265.19C161.929 265.278 162.032 265.312 162.698 265.451C163.364 265.59 164.589 265.831 165.264 265.956C166.365 266.159 167.001 266.185 167.349 266.228C167.886 266.295 168.342 266.289 168.76 266.333C169.276 266.386 169.668 266.324 169.755 266.272C169.798 266.247 169.808 266.186 169.791 266.125C169.706 265.819 169.356 265.732 169.017 265.575C168.743 265.449 168.242 265.453 167.876 265.453C167.652 265.453 168.396 265.383 168.552 265.357C168.622 265.345 168.674 265.348 168.649 265.4C168.561 265.581 168.207 265.8 167.125 266.475C166.255 267.018 164.715 267.944 163.82 268.501C162.706 269.196 162.419 269.426 162.271 269.531C162.204 269.577 162.175 269.635 162.7 269.239C163.226 268.843 164.313 267.997 164.908 267.527C165.502 267.057 165.571 266.988 165.728 266.866C165.884 266.744 166.126 266.572 165.767 266.724C165.408 266.877 164.442 267.36 163.331 268.075C162.221 268.79 160.996 269.722 160.296 270.271C159.596 270.82 159.457 270.958 159.524 270.96C159.591 270.962 159.867 270.824 160.752 270.252C161.636 269.681 163.12 268.68 163.91 268.156C164.701 267.632 164.752 267.614 164.753 267.64C164.754 267.666 164.702 267.735 164.192 268.184C163.683 268.634 162.716 269.462 161.908 270.251C161.099 271.04 160.478 271.765 160.262 272.052C160.045 272.339 160.252 272.167 161.101 271.422C161.95 270.678 163.434 269.366 164.224 268.656C165.014 267.946 165.066 267.877 164.265 268.463C163.463 269.048 161.806 270.291 160.91 270.982C159.559 272.025 159.089 272.598 159.123 272.669C159.167 272.762 159.501 272.532 160.584 271.909C161.667 271.286 163.548 270.164 164.56 269.552C165.572 268.939 165.658 268.87 165.728 268.809C165.799 268.747 165.851 268.696 165.782 268.678C165.533 268.612 164.846 268.85 163.717 269.292C163.059 269.55 162.277 269.994 161.299 270.621C160.32 271.249 159.181 272.077 158.051 273.038C156.921 274 155.834 275.07 155.239 275.638C154.645 276.207 154.576 276.241 153.72 276.57C152.865 276.898 151.226 277.519 150.278 277.891C149.115 278.347 148.72 278.542 148.044 278.862C146.747 279.477 145.912 280.041 145.773 280.137C145.525 280.308 145.268 280.459 144.954 280.79C144.42 281.352 144.257 281.593 143.978 281.819C143.628 282.102 143.419 282.203 143.393 282.177C143.252 282.042 143.801 281.717 144.252 281.231C144.52 280.942 144.91 280.607 145.528 280.118C146.147 279.63 146.992 279.009 147.506 278.62C148.184 278.105 148.438 277.881 149.371 276.991C150.216 276.186 151.754 274.6 152.623 273.74C153.614 272.759 153.893 272.531 154.439 272.045C154.848 271.681 155.588 271.146 156.039 270.818C156.633 270.387 156.961 270.178 157.515 269.753C158.517 268.985 159.314 268.504 159.488 268.347C159.736 268.124 159.994 267.859 160.255 267.632C160.555 267.373 160.726 267.092 161.178 266.475C161.762 265.677 162.033 265.315 162.078 265.096C162.152 264.738 161.373 265.156 160.774 265.416C160.238 265.649 159.633 266.13 159.049 266.47C158.481 266.801 158.2 267.421 158.052 267.648C157.88 267.913 157.643 268.24 157.028 268.916C156.596 269.391 155.707 270.194 155.125 270.716C154.294 271.46 153.861 271.744 153.643 271.944C153.495 272.08 153.182 272.301 152.687 272.744C152.118 273.253 151.596 273.626 151.248 273.87C150.944 274.082 150.551 274.496 149.942 275.07C149.263 275.71 148.824 276.31 148.589 276.649C148.421 276.891 148.352 277.061 148.231 277.312C147.642 278.53 147.497 279.362 147.541 279.431C147.609 279.541 148.156 279.035 148.887 278.296C149.232 277.947 149.479 277.608 150.467 276.516C151.454 275.424 153.163 273.578 154.371 272.316C155.579 271.054 156.234 270.433 156.624 270.052C157.013 269.672 157.117 269.551 157.412 269.178C157.707 268.806 158.19 268.184 158.56 267.744C159.148 267.042 159.679 266.605 160.123 266.266C160.831 265.723 161.945 265.575 162.113 265.557C162.288 265.538 161.636 265.922 160.623 266.744C159.831 267.386 158.557 268.584 157.839 269.214C157.12 269.845 157.017 269.896 156.696 270.13C155.828 270.762 155.116 271.291 154.648 271.594C154.34 271.794 153.938 272.156 153.56 272.524C152.825 273.241 152.345 273.818 152.049 274.096C151.842 274.291 151.354 274.86 150.657 275.635C150.277 276.058 150.13 276.432 149.956 276.901C149.591 277.887 149.641 278.47 149.71 278.863C149.795 279.344 150.492 277.989 151.282 276.973C151.74 276.385 152.331 275.664 152.711 275.222C153.226 274.623 153.648 274.309 154.049 273.987C154.286 273.796 154.486 273.611 155.325 273.109C156.017 272.695 157.285 272.02 158.124 271.518C158.963 271.016 159.342 270.723 159.581 270.546C159.82 270.369 159.906 270.317 160.391 269.988C160.875 269.659 161.755 269.055 162.536 268.434C163.318 267.812 163.973 267.191 164.363 266.836C164.844 266.399 165.014 266.324 165.119 266.281C165.173 266.258 165.223 266.22 164.508 266.858C163.792 267.496 162.308 268.808 161.397 269.647C160.486 270.487 160.193 270.815 159.619 271.337C159.045 271.86 158.199 272.567 157.496 273.096C156.793 273.624 156.258 273.952 155.758 274.276C154.801 274.897 154.227 275.335 154.018 275.509C153.733 275.746 153.391 276.101 152.99 276.372C152.655 276.597 152.413 276.799 152.413 276.869C152.41 277.075 152.969 276.731 153.455 276.358C154.199 275.788 154.626 275.249 154.877 274.981C155.328 274.498 156.052 273.961 156.679 273.517C156.912 273.352 156.961 273.297 157.376 272.986C157.791 272.675 158.567 272.105 159.071 271.717C159.797 271.157 160.185 270.719 160.283 270.552C160.337 270.458 159.811 270.954 158.528 271.83C157.246 272.707 155.071 274.105 153.796 274.937C152.521 275.769 152.21 275.993 151.998 276.144C151.685 276.366 151.524 276.451 151.489 276.46C151.471 276.464 151.592 276.417 151.912 276.158C152.233 275.898 152.785 275.415 153.527 274.657C154.269 273.899 155.183 272.881 155.939 272.106C156.695 271.332 157.264 270.831 158.188 270.22C159.111 269.608 160.37 268.901 161.088 268.484C161.955 267.982 162.207 267.789 162.442 267.641C162.673 267.496 162.922 267.284 163.407 266.877C164.899 265.626 164.962 265.418 165.006 265.366C165.201 265.133 164.215 265.522 163.6 265.799C163.154 266 162.45 266.352 161.93 266.582C160.733 267.11 160.432 267.16 160.075 267.326C159.936 267.39 159.821 267.474 159.769 267.475C159.116 267.481 161.246 266.535 161.815 266.351C162.026 266.282 162.208 266.289 162.313 266.324C162.76 266.471 161.687 267.542 161.651 267.874C161.644 267.937 161.754 267.945 161.816 267.945C162.061 267.946 162.312 267.633 162.461 267.372C162.509 267.286 161.675 267.714 160.474 268.515C159.551 269.13 159.142 269.548 158.968 269.704C158.867 269.796 158.725 269.895 158.223 270.423C157.72 270.951 156.858 271.9 156.379 272.441C155.669 273.242 155.481 273.487 155.403 273.575C155.339 273.645 155.619 273.263 155.836 273.002C156.016 272.786 156.401 272.306 157.295 271.412C157.844 270.863 158.654 270.19 159.348 269.671C160.565 268.759 161.267 268.434 161.406 268.321C161.679 268.099 161.824 267.756 161.921 267.476C161.944 267.409 161.93 267.319 161.895 267.266C161.763 267.063 161.426 267.144 161.112 267.195C160.466 267.301 159.945 268.272 159.795 268.746C159.689 269.078 159.907 269.442 159.951 269.722C160.025 270.189 159.961 270.714 159.83 271.151C159.701 271.582 159.213 271.779 158.369 272.066C157.987 272.197 157.402 272.336 156.438 272.597C155.172 272.94 154.21 272.93 153.871 272.939C153.721 272.948 153.618 272.965 153.487 272.974C153.356 272.983 153.2 272.983 153.04 272.983" stroke="black" stroke-linecap="round"/>
<path d="M263.208 157.771C262.821 157.571 262.424 157.285 261.827 156.881C261.527 156.678 261.186 156.554 260.907 156.464C260.418 156.307 260.105 156.307 259.923 156.296C259.684 156.282 259.462 156.23 258.989 156.213C258.604 156.2 257.923 156.208 257.271 156.153C256.619 156.098 256.015 155.988 255.457 155.926C254.899 155.864 254.405 155.853 254.135 155.842C253.673 155.823 253.365 155.742 253.166 155.681C252.969 155.621 252.657 155.565 252.423 155.515C252.238 155.475 252.058 155.476 251.748 155.448C251.451 155.422 251.193 155.432 250.945 155.415C250.207 155.366 249.788 155.443 249.447 155.481C249.198 155.509 248.756 155.542 248.296 155.548C247.905 155.553 247.645 155.731 247.556 155.819C247.4 155.973 247.975 156.151 248.198 156.312C248.426 156.477 248.575 156.495 248.708 156.567C248.83 156.633 248.974 156.629 249.273 156.634C249.477 156.638 249.936 156.573 250.26 156.546C250.538 156.522 250.692 156.474 250.891 156.446C250.979 156.434 251.122 156.44 251.179 156.424C251.236 156.407 251.204 156.374 251.165 156.347C251.017 156.241 250.256 156.153 249.542 156.102C249.208 156.079 248.92 156.053 248.748 155.975C248.707 155.957 248.676 155.931 248.681 155.914C248.697 155.86 248.808 155.875 248.94 155.891C249.207 155.925 249.78 156.03 250.417 156.118C250.882 156.183 251.235 156.241 251.534 156.296C251.721 156.331 251.901 156.319 252.177 156.274C252.367 156.244 252.543 156.219 253.223 156.213C253.476 156.211 253.674 156.285 253.89 156.313C254.087 156.338 254.35 156.374 254.561 156.434C254.756 156.491 254.96 156.495 255.209 156.534C255.686 156.609 255.891 156.573 256.14 156.601C256.511 156.642 256.822 156.673 257.094 156.706C257.421 156.746 257.841 156.773 258.092 156.795C258.341 156.817 258.629 156.795 258.79 156.812C258.963 156.83 259.249 156.883 259.737 156.911C260.005 156.927 260.203 156.961 260.446 156.994C261.214 157.099 261.666 157.415 261.844 157.532C261.967 157.612 262.154 157.703 262.337 157.826C262.409 157.859 262.487 157.892 262.57 157.931C262.609 157.948 262.642 157.959 262.676 158.003" stroke="black" stroke-linecap="round"/>
<path d="M265.037 148.925C264.63 149.145 263.897 149.544 263.697 149.689C263.527 149.811 263.452 150.088 263.22 150.221C262.879 150.417 262.534 150.42 262.261 150.504C261.946 150.601 261.637 150.852 261.369 150.953C261.157 151.033 260.86 151.129 260.643 151.219C260.478 151.287 260.294 151.308 260.011 151.324C259.915 151.33 259.839 151.363 259.756 151.385C259.683 151.405 260.012 151.287 261.049 150.972C261.718 150.769 262.701 150.559 263.22 150.435C263.86 150.282 264.193 150.2 264.405 150.094C264.536 150.029 264.671 149.945 264.865 149.817C265.068 149.684 265.257 149.403 265.408 149.224C265.532 149.078 265.768 148.937 266.249 148.588C266.536 148.38 266.699 148.073 266.921 147.778C267.207 147.399 267.508 147.229 267.669 147.096C267.841 146.952 267.996 146.819 268.135 146.719C268.174 146.686 268.218 146.642 268.263 146.563" stroke="black" stroke-width="9" stroke-linecap="round"/>
<path d="M271.496 146.907C271.526 146.877 271.785 146.466 272.265 145.909C272.534 145.597 272.912 145.276 273.335 144.953C273.757 144.629 274.226 144.326 274.612 144.034C275.706 143.205 275.812 142.837 275.866 142.667C275.892 142.588 275.524 142.682 275.036 142.758C274.337 142.867 273.627 143.369 273.046 143.744C272.475 144.112 272.109 144.244 272.017 144.221C271.833 144.176 272.504 143.893 273.017 143.648C273.232 143.545 273.601 143.42 274.001 143.251C274.4 143.082 274.824 142.885 275.187 142.693C275.85 142.341 276.24 142.04 276.424 141.872C276.928 141.411 277.556 140.51 277.855 140.273C278.166 140.025 278.384 139.805 278.596 139.615C279.442 138.861 279.698 138.475 279.945 138.275C280.11 138.14 280.312 138.076 280.549 137.93C280.873 137.732 281.047 137.494 281.452 137.082C281.567 136.943 281.629 136.851 281.697 136.759C281.736 136.713 281.781 136.668 281.828 136.575" stroke="black" stroke-width="6" stroke-linecap="round"/>
<path d="M283.16 135.381C283.266 135.29 283.51 135.107 283.748 134.923C283.95 134.766 284.123 134.632 284.315 134.502C284.537 134.341 284.841 134.067 285.042 133.821C285.073 133.774 285.103 133.729 285.18 133.636" stroke="black" stroke-width="6" stroke-linecap="round"/>
<path d="M260.154 150.81C259.879 151.039 259.635 151.223 259.405 151.323C259.136 151.44 258.824 151.453 258.593 151.506C258.389 151.553 258.226 151.697 258.05 151.828C257.858 151.969 257.614 152.248 257.354 152.379C257.117 152.498 256.894 152.54 256.711 152.601C256.522 152.664 256.313 152.769 256.068 152.83C255.811 152.895 255.532 152.937 255.287 153.014C255.06 153.085 254.874 153.137 254.69 153.198C254.506 153.259 254.323 153.32 254.139 153.382C253.955 153.443 253.772 153.534 253.588 153.657C253.411 153.775 253.221 153.856 253.022 153.963C252.966 153.993 252.885 153.979 252.884 153.971C252.853 153.768 253.416 153.766 253.755 153.581C253.96 153.469 254.183 153.397 254.367 153.336C254.556 153.273 254.825 153.198 255.139 153.16C255.771 153.083 256.141 153.198 256.487 153.244C256.804 153.286 256.984 153.396 257.229 153.504C257.525 153.634 258.28 153.565 258.745 153.52C259.187 153.476 259.77 153.443 260.015 153.435C260.251 153.428 260.489 153.55 260.78 153.687C260.974 153.779 261.193 153.825 261.401 153.932C261.62 154.046 261.806 154.131 262.066 154.17C262.27 154.2 262.449 154.285 262.717 154.3C262.954 154.285 263.092 154.239 263.191 154.216C263.245 154.208 263.306 154.208 263.368 154.208" stroke="black" stroke-width="6" stroke-linecap="round"/>
<path d="M179.684 257.201L179.712 257.259" stroke="black" stroke-width="2" stroke-linecap="round"/>
<path d="M177.057 257.836C177.019 257.845 176.981 257.855 176.757 257.893C176.533 257.931 176.123 257.998 175.669 258.032C175.215 258.067 174.73 258.067 174.172 258.038" stroke="black" stroke-width="2" stroke-linecap="round"/>
<path d="M183.002 257.23C182.916 257.268 182.763 257.307 182.623 257.321C182.454 257.339 182.262 257.364 182.084 257.379C181.905 257.394 181.676 257.422 181.244 257.437C180.896 257.448 180.589 257.48 180.377 257.494C180.193 257.507 180.021 257.538 179.266 257.605C178.771 257.649 177.883 257.643 177.399 257.648C176.75 257.655 176.558 257.596 176.107 257.471C175.888 257.41 175.245 257.374 174.855 257.345C174.68 257.333 174.509 257.297 174.235 257.235C173.933 257.166 173.586 257.095 172.919 257.081C172.698 257.076 172.509 257.028 172.254 257.052C171.74 257.1 171.261 257.028 170.835 257.052C170.498 257.071 170.115 257.086 169.867 257.057C169.714 257.039 169.565 256.98 169.43 256.98C169.176 256.979 168.93 257.22 168.78 257.316C168.646 257.403 168.536 257.585 168.453 257.725C168.367 257.871 168.294 258.009 168.131 258.196C168.013 258.332 167.833 258.441 167.679 258.576C167.506 258.727 167.237 258.893 167.078 259.047C166.943 259.178 166.823 259.307 166.391 259.734C166.122 260 165.774 260.307 165.621 260.457C165.448 260.624 165.265 260.721 165.111 260.818C164.942 260.923 164.765 261.077 164.586 261.265C164.357 261.506 164.101 261.827 163.966 261.986C163.84 262.135 163.649 262.308 163.514 262.457C163.246 262.753 163.052 262.828 162.888 262.896C162.701 262.973 162.542 263.097 162.345 263.184C161.976 263.346 161.532 263.598 161.445 263.617C161.323 263.644 161.704 263.723 161.987 263.819C162.275 263.916 162.56 263.963 162.928 263.954C163.192 263.947 163.611 263.888 163.945 263.863C164.828 263.798 165.08 263.867 165.316 263.925C165.557 263.984 165.763 264.079 166.037 264.122C166.184 264.146 166.331 264.137 166.642 264.189C167.306 264.301 167.774 264.387 167.87 264.392C168.005 264.398 168.149 264.416 168.602 264.359C168.99 264.31 169.694 264.187 170.105 264.128C170.733 264.038 170.852 264.098 171.044 264.156C171.214 264.206 171.381 264.281 171.588 264.305C171.661 264.314 171.795 264.329 171.987 264.324C172.141 264.321 172.485 264.195 172.985 263.994C173.38 263.834 173.584 263.685 173.766 263.518C173.903 263.392 174.119 263.17 174.356 262.957C174.592 262.744 174.84 262.544 175.077 262.341C175.539 261.945 175.825 261.694 175.969 261.617C176.128 261.532 176.401 261.444 176.79 261.305C177.236 261.145 177.623 260.963 177.964 260.848C178.59 260.636 178.778 260.463 179.019 260.395C179.235 260.334 179.337 260.203 179.419 260.087C179.495 259.979 179.52 259.809 179.606 259.659C179.701 259.495 179.914 259.472 180.523 259.193C180.728 259.1 180.809 259.038 180.814 259.015C180.82 258.988 180.714 258.981 180.361 258.962C180.007 258.942 179.379 258.923 178.76 258.875C178.141 258.828 177.55 258.751 177.113 258.712C176.675 258.673 176.409 258.673 175.957 258.711C175.505 258.749 174.877 258.825 174.353 258.855C173.829 258.885 173.429 258.866 173.19 258.846C172.687 258.806 172.231 258.673 171.874 258.606C171.662 258.565 171.307 258.386 170.909 258.141C170.665 257.991 170.45 257.846 170.205 257.721C169.866 257.548 169.43 257.672 169.247 257.72C169.067 257.768 168.662 257.854 168.204 258.075C167.813 258.265 167.689 258.413 167.478 258.734C167.074 259.347 166.948 259.537 166.847 259.745C166.744 259.956 166.621 260.268 166.338 260.83C166.26 260.984 166.15 261.296 165.934 261.834C165.708 262.395 165.601 262.827 165.5 263.02C165.371 263.266 165.082 263.434 164.933 263.487C164.791 263.538 164.611 263.521 164.452 263.574C164.417 263.585 164.389 263.598 164.36 263.612C164.3 263.642 164.606 263.513 165.307 263.144C165.684 262.945 166.064 262.651 166.399 262.38C166.733 262.11 167 261.852 167.513 261.263C168.027 260.673 168.779 259.759 169.219 259.245C169.659 258.731 169.764 258.646 169.975 258.544C170.487 258.299 170.862 258.192 170.906 258.173C170.933 258.161 170.662 258.383 169.96 259.137C169.43 259.706 168.619 260.711 168.158 261.284C167.698 261.856 167.632 261.979 167.545 262.219C167.458 262.459 167.353 262.812 167.342 262.974C167.331 263.137 167.417 263.099 167.504 263.05C167.681 262.952 167.87 262.791 168.376 262.27C168.784 261.851 169.473 261.093 170.279 260.367C171.084 259.642 171.979 258.965 172.488 258.589C172.997 258.212 173.092 258.155 172.446 258.954C171.8 259.753 170.41 261.41 169.665 262.325C168.92 263.241 168.863 263.365 168.819 263.476C168.775 263.587 168.747 263.683 168.751 263.722C168.756 263.769 169.08 263.552 169.775 263.04C170.227 262.706 170.859 262.194 171.507 261.767C172.155 261.341 172.793 261.007 173.217 260.802C173.821 260.51 174.132 260.414 174.324 260.309C174.606 260.154 174.633 259.953 174.902 259.679C174.967 259.613 175.017 259.578 175.061 259.549C175.104 259.52 175.142 259.5 174.719 259.862C174.296 260.224 173.41 260.967 172.797 261.53C172.184 262.094 171.869 262.456 171.693 262.666C171.482 262.918 171.411 263.039 171.363 263.136C171.34 263.181 171.849 262.984 172.555 262.672C172.875 262.531 173.099 262.389 173.269 262.282C173.439 262.175 173.544 262.099 173.86 261.917C174.176 261.735 174.7 261.449 175.055 261.273C175.411 261.098 175.582 261.04 175.799 260.992C176.269 260.887 176.728 260.809 177.055 260.703C177.434 260.581 177.71 260.415 178.249 260.15C178.328 260.112 178.252 260.078 178.103 260.073C177.954 260.068 177.726 260.077 177.408 260.125C176.686 260.233 176.183 260.356 175.996 260.38C175.818 260.414 175.663 260.433 175.548 260.428C175.499 260.424 175.471 260.414 175.413 260.375" stroke="black" stroke-width="2" stroke-linecap="round"/>
</svg>
