<svg width="427" height="442" viewBox="0 0 427 442" fill="none" xmlns="http://www.w3.org/2000/svg">
<path d="M323.026 144.168H112.107C97.173 144.168 85.0664 158.159 85.0664 175.418V237.918C85.0664 255.177 97.173 269.168 112.107 269.168H323.026C337.96 269.168 350.066 255.177 350.066 237.918V175.418C350.066 158.159 337.96 144.168 323.026 144.168Z" stroke="black" stroke-width="10" stroke-linecap="round" stroke-linejoin="round"/>
<rect x="100" y="157" width="199.75" height="100" rx="20" fill="#00C317"/>
<path d="M187.769 255.958C187.486 255.927 187.106 255.832 186.627 255.738C186.245 255.663 185.57 255.581 184.833 255.517C184.095 255.453 183.313 255.422 182.855 255.398C182.288 255.368 181.8 255.342 181.177 255.35C180.486 255.359 179.917 255.421 179.617 255.484C179.319 255.547 179.127 255.547 178.602 255.571C178.14 255.592 177.279 255.579 176.789 255.587C176.205 255.596 175.498 255.627 174.551 255.619C174.005 255.614 173.504 255.532 173.03 255.492C172.256 255.428 171.532 255.437 170.983 255.398C170.249 255.345 169.995 255.468 169.805 255.5C169.596 255.535 169.426 255.689 169.197 255.808C169.094 255.847 168.983 255.879 168.865 255.911C168.809 255.927 168.762 255.942 168.619 255.958" stroke="black" stroke-width="2" stroke-linecap="round"/>
<path d="M188.5 255.5C188.431 255.5 190.983 255.576 187.957 255.588C184.931 255.599 178.949 255.622 175.822 255.622C172.695 255.623 172.604 255.6 172.371 255.576" stroke="black" stroke-width="2" stroke-linecap="round"/>
<path d="M351 177V177C358.732 177 365 183.268 365 191V225C365 232.732 358.732 239 351 239V239V177Z" fill="black"/>
<path d="M235.954 188.49L233.498 191.034L237.034 191.031L291.127 190.995L134.9 289.363L211.422 213.958L214.031 211.387L210.368 211.389L156.049 211.43L298.653 123.523L235.954 188.49Z" fill="white" stroke="black" stroke-width="3"/>
<path d="M169.946 257.151H184.317" stroke="black" stroke-width="2" stroke-linecap="round"/>
<path d="M167.91 258.678H182.281" stroke="black" stroke-width="2" stroke-linecap="round"/>
<path d="M166.952 259.636H181.323" stroke="black" stroke-width="2" stroke-linecap="round"/>
<path d="M163.12 261.552H177.491" stroke="black" stroke-width="2" stroke-linecap="round"/>
<path d="M167.317 260.192C166.812 260.405 166.15 261.041 165.979 261.219C165.826 261.378 165.744 261.524 165.648 261.676C165.538 261.852 165.338 262.006 165.135 262.082C164.73 262.235 164.4 262.159 164.07 262.247C163.855 262.305 163.739 262.463 163.701 262.52C163.593 262.68 164.067 262.73 164.622 262.78C165.074 262.822 165.879 262.831 166.319 262.85C166.961 262.878 167.315 262.92 167.784 262.964C168.492 263.032 168.826 262.908 169.313 262.832C169.622 262.783 169.93 262.781 170.429 262.749C171.35 262.691 171.704 262.704 172.143 262.673C172.479 262.649 172.733 262.73 172.943 262.78C173.027 262.801 173.102 262.831 173.178 262.857C173.216 262.869 173.254 262.882 173.236 262.945C173.098 263.421 172.672 263.655 172.419 263.947C172.188 264.213 172.012 264.29 171.942 264.366C171.909 264.403 172.514 263.876 173.294 263.191C173.882 262.675 174.206 262.578 174.402 262.489C174.456 262.465 174.522 262.476 174.555 262.501C174.62 262.551 174.06 263.068 173.172 263.784C172.367 264.434 171.785 264.556 171.549 264.671C171.227 264.828 171.086 264.924 170.858 264.944C170.625 264.964 170.351 264.849 170.015 264.786C169.388 264.668 168.831 264.609 168.441 264.563C168.283 264.545 168.054 264.532 167.826 264.525C167.697 264.522 167.182 264.494 166.421 264.5C166.062 264.503 165.884 264.544 165.506 264.563C164.776 264.6 164.146 264.545 163.861 264.494C163.475 264.425 163.181 264.278 162.921 264.158C162.82 264.111 162.737 264.025 162.642 263.967C162.389 263.815 162.103 264.606 161.868 264.873C161.52 265.268 161.278 265.431 161.088 265.653C161.024 265.728 161.073 265.762 161.118 265.781C161.335 265.875 161.656 265.738 162.307 265.617C163.082 265.473 163.674 265.61 163.833 265.629C163.903 265.637 163.953 265.636 164.419 265.692C164.884 265.749 165.764 265.862 166.279 265.939C167.118 266.064 167.492 266.143 167.874 266.175C168.389 266.218 169.067 266.485 169.226 266.524C169.699 266.639 169.955 265.497 170.152 265.23C170.309 265.017 170.387 264.799 170.438 264.646C170.463 264.57 170.489 264.494 170.495 264.418C170.498 264.379 170.464 264.342 170.42 264.323C170.32 264.279 169.682 264.454 168.801 264.689C168.33 264.814 168.142 264.962 167.708 265.535C167.347 266.01 166.758 266.899 166.416 267.377C166.074 267.855 166.011 267.906 165.96 267.938C165.876 267.991 165.33 268.021 164.487 268.046C163.736 268.069 163.36 267.769 163.067 267.521C162.825 267.316 162.269 267.121 161.9 267.044C161.671 266.997 161.091 266.867 160.707 266.778C160.534 266.737 160.239 266.663 160.009 266.644C159.97 266.641 159.933 266.675 159.907 266.707C159.881 266.739 159.869 266.777 159.906 266.809C159.944 266.841 160.032 266.866 160.693 266.916C161.353 266.967 162.584 267.042 163.388 267.113C164.534 267.213 164.981 267.361 165.234 267.468C165.865 267.737 166.174 267.678 166.345 267.704C166.403 267.712 166.478 267.654 166.498 267.615C166.518 267.577 166.48 267.54 166.404 267.514C166.221 267.452 165.935 267.475 165.405 267.614C165.03 267.712 164.473 267.978 164.019 268.22C163.564 268.463 163.238 268.701 162.912 268.981C162.587 269.261 162.273 269.575 161.992 269.888C161.454 270.486 161.138 270.888 160.974 271.021C160.735 271.214 160.529 271.307 159.762 271.766C159.075 272.176 157.813 272.991 157.135 273.418C156.277 273.957 155.95 274.187 155.67 274.377C155.608 274.419 155.543 274.441 155.492 274.466C155.441 274.492 155.403 274.517 155.44 274.461C155.477 274.405 155.59 274.266 156.126 273.85C156.661 273.433 157.616 272.742 158.51 271.972C159.404 271.201 160.208 270.372 160.647 269.908C161.296 269.22 161.505 268.935 161.562 268.796C161.582 268.748 161.531 268.732 161.443 268.757C161.209 268.823 160.798 269.098 160.31 269.446C160.094 269.6 159.96 269.731 159.738 269.953C159.516 270.175 159.215 270.489 158.821 270.858C158.427 271.227 157.95 271.641 157.383 272.188C156.817 272.734 156.176 273.4 155.821 273.781C155.405 274.227 155.301 274.44 155.212 274.612C155.205 274.626 155.375 274.267 155.811 273.54C156.065 273.115 156.46 272.624 157.013 271.976C157.565 271.328 158.281 270.549 158.737 270.016C159.4 269.243 159.589 268.91 159.665 268.808C159.856 268.554 159.868 268.289 159.888 268.154C159.892 268.123 159.781 268.21 159.422 268.55C159.063 268.89 158.422 269.518 158.048 269.898C157.574 270.38 157.307 270.696 156.934 271.095C156.547 271.508 156.153 272.003 155.779 272.383C155.522 272.644 155.076 273.08 154.579 273.514C154.152 273.886 153.793 274.64 153.645 275.081C153.575 275.43 153.55 275.734 153.531 276.026C153.524 276.103 153.512 276.178 153.499 276.256" stroke="black" stroke-width="2" stroke-linecap="round"/>
<path d="M155.516 271.992C155.907 271.489 156.582 270.648 156.595 270.635C156.734 270.494 156.342 270.964 155.813 271.486C155.329 271.964 154.431 272.9 153.77 273.63C153.11 274.36 152.72 274.863 152.45 275.191C151.901 275.859 151.761 275.989 151.358 276.341C151.028 276.631 150.403 277.096 150.035 277.367C149.579 277.704 149.326 277.841 149.028 278.043C148.467 278.426 148.121 278.703 147.847 279.008C147.538 279.353 147.308 279.605 146.89 279.991C146.626 280.235 146.496 280.48 146.387 280.633C146.305 280.773 146.191 280.836 146.115 280.868C146.077 280.887 146.039 280.912 146 280.938" stroke="black" stroke-width="2" stroke-linecap="round"/>
<path d="M247.721 157.242C247.885 157.024 248.133 156.83 248.844 156.556C250.296 155.997 251.712 155.645 252.428 155.453C253.03 155.291 254.213 154.903 255.556 154.296C256.119 154.042 256.314 153.361 256.948 152.836C257.131 152.685 257.387 152.534 257.554 152.423C258.159 152.019 254.666 153.743 253.964 154.168C253.394 154.515 253.123 154.981 252.394 155.464C251.891 155.797 251.279 155.781 250.726 155.919C250.615 155.947 250.533 155.974 250.532 156.002C250.531 156.03 250.612 156.057 250.75 156.044C251.844 155.939 252.844 154.682 253.367 153.98C253.581 153.693 253.644 153.441 253.7 153.262C253.728 153.17 253.646 153.057 253.563 152.973C253.397 152.805 253.177 152.752 252.971 152.751C252.33 152.75 252.075 153.438 251.429 154.14C251.162 154.43 250.946 154.761 250.835 154.968C250.498 155.593 252.125 154.462 253.556 153.554C254.853 152.732 255.489 152.532 255.778 152.408C255.899 152.356 255.985 152.366 255.891 152.475C255.569 152.847 254.806 153.3 253.913 153.877C252.364 154.877 251.665 155.256 251.141 155.505C251.061 155.543 251.325 155.264 252.556 154.496C253.788 153.729 255.97 152.447 257.285 151.65C259.001 150.61 259.485 150.19 259.773 149.957C260.566 149.313 261.192 148.978 262.456 148.098C263.128 147.631 263.616 147.491 265.251 146.776C265.93 146.479 266.562 146.058 267.442 145.619C268.452 145.114 269.073 144.761 270.097 144.12C271.045 143.528 272.731 142.197 273.671 141.482C274.936 140.52 275.353 140.108 276.563 139.186C277.494 138.476 278.081 138.122 278.742 137.573C279.495 136.947 280.309 136.225 281.002 135.753C281.504 135.412 282.131 134.927 282.518 134.609C282.937 134.266 283.509 133.852 284.252 133.411C284.772 133.102 285.411 132.832 285.879 132.612C286.26 132.432 286.568 132.226 286.899 131.978C287.313 131.669 287.973 131.482 288.318 131.385C288.705 131.276 289.102 131.179 289.626 131.041C289.762 131.005 289.9 130.986 289.971 131.013C290.041 131.04 290.041 131.121 290 131.232C289.758 131.884 288.641 132.606 288.045 133.133C287.498 133.617 287.095 134.097 286.558 134.497C285.717 135.122 284.48 136.025 283.857 136.508C283.272 136.962 282.251 138.086 281.516 138.753C281.05 139.175 280.565 139.799 280.085 140.54C279.068 142.109 278.636 142.774 278.223 143.422C277.801 144.084 277.533 144.595 277.464 144.76C277.428 144.846 277.368 144.925 278.145 143.821C278.921 142.718 280.531 140.427 281.4 139.206C282.337 137.891 282.682 137.464 283.095 136.885C283.324 136.565 283.538 136.332 284.071 135.757C285.952 133.729 286.622 133.467 286.939 133.177C287.029 133.095 287.011 133.188 286.901 133.353C286.792 133.518 286.601 133.763 285.057 135.172C283.513 136.58 280.621 139.144 279.05 140.519C277.332 142.023 276.901 142.334 276.038 143.197C275.407 143.828 274.439 144.905 273.633 145.685C272.284 146.99 271.281 147.788 270.744 148.435C269.916 149.433 269.074 150.628 269.005 150.836C268.98 150.911 269.263 150.633 270.343 149.321C271.423 148.01 273.387 145.555 274.863 143.826C276.338 142.098 277.266 141.171 277.839 140.57C278.412 139.97 278.603 139.724 279.411 138.834C280.218 137.944 281.636 136.416 282.408 135.589C283.18 134.761 283.261 134.679 283.222 134.759C283.182 134.84 283.018 135.086 282.375 135.73C281.732 136.375 280.613 137.411 278.987 138.764C277.361 140.116 275.26 141.753 273.442 143.4C271.624 145.048 270.151 146.657 269.337 147.568C268.132 148.918 267.78 149.388 266.615 150.459C265.325 151.644 264.171 152.199 263.882 152.337C263.759 152.396 263.675 152.42 263.66 152.339C263.646 152.257 263.7 152.066 264.956 150.331C266.211 148.596 268.666 145.323 270.013 143.555C271.359 141.787 271.523 141.624 271.866 141.348C272.712 140.671 273.344 140.216 273.331 140.256C273.285 140.402 272.964 140.705 272.046 141.623C271.128 142.542 269.574 144.042 268.691 144.87C267.666 145.83 267.394 146 267.175 146.165C266.881 146.386 265.613 147.151 263.879 148.403C262.83 149.16 262.435 149.527 262.079 149.733C260.589 150.592 259.627 151.096 259.143 151.51C258.791 151.811 258.276 152.225 257.807 152.461C257.328 152.703 256.788 153.108 256.47 153.453C256.097 153.855 255.686 154.21 255.299 154.294C254.813 154.399 254.582 154.542 254.417 154.611C254.332 154.646 254.253 154.706 254.306 154.762C254.359 154.817 254.55 154.872 256.844 154.054C259.138 153.237 263.53 151.546 265.997 150.552C268.464 149.558 268.873 149.312 269.165 149.118C270.427 148.278 271.964 147.271 272.598 146.898C273.18 146.556 273.726 146.279 274.471 145.988C275.065 145.757 275.464 145.342 275.658 145.01C275.703 144.935 275.713 144.846 275.686 144.913C275.573 145.196 275.384 145.613 275.028 146.176C274.433 147.114 273.678 148.063 273.155 148.738C272.686 149.342 272.217 149.911 271.09 151.08C270.48 151.758 269.549 152.853 268.951 153.48C268.855 153.577 268.745 153.713 268.633 153.853" stroke="black" stroke-width="2" stroke-linecap="round"/>
<path d="M266.567 156.416L266.153 156.912" stroke="black" stroke-width="2" stroke-linecap="round"/>
<path d="M262.103 157.408C261.639 157.462 260.591 157.573 259.876 157.642C257.843 157.837 257.23 157.793 256.252 157.807C254.947 157.827 252.849 157.684 252.379 157.628C251.609 157.538 250.974 157.133 250.438 157.008C249.563 156.805 248.829 156.53 248.383 156.278C248.309 156.236 249.202 156.415 250.658 156.553C252.381 156.715 253.505 156.691 253.931 156.732C254.544 156.792 255.621 156.528 256.86 156.157C258.208 155.752 259.04 155.672 259.677 155.74C260.391 155.817 260.779 155.892 261.179 156.002C261.521 156.097 261.854 156.14 262.253 156.181C263.169 156.277 264.664 156.305 265.077 156.402C265.482 156.497 265.821 156.032 266.179 155.632C266.633 155.126 267.195 154.219 267.9 153.32C268.665 152.346 269.483 151.049 270.308 150.017C270.972 149.187 271.579 148.73 271.814 148.578C271.831 148.567 271.64 148.78 270.955 149.342C270.271 149.904 269.098 150.832 268.152 151.678C266.461 153.191 265.741 154.128 265.522 154.361C264.908 155.014 264.036 155.449 263.387 155.891C262.971 156.174 262.71 156.579 262.586 156.979C262.555 157.08 262.49 157.158 262.53 157.091C262.702 156.803 262.956 156.445 263.626 155.461C264.198 154.621 265.196 153.058 265.757 152.216C266.381 151.28 266.839 150.717 267.43 149.905C267.666 149.583 267.777 149.448 267.042 150.182C266.307 150.917 264.725 152.526 263.856 153.396C262.519 154.733 261.802 155.34 261.554 155.492C261.442 155.56 261.361 155.616 261.551 155.344C261.74 155.072 262.204 154.472 262.975 153.603C263.746 152.735 264.809 151.617 265.221 151.109C265.633 150.601 265.36 150.737 264.865 151.149C263.614 152.188 262.848 153.053 262.615 153.328C262.27 153.734 261.939 153.991 261.815 153.978C260.916 153.885 262.624 151.764 262.86 151.292C262.946 151.122 262.14 151.943 260.708 153.389C259.968 154.136 259.652 154.349 259.501 154.541C259.291 154.807 260.082 154.028 261.079 153.114C261.988 152.28 259.184 155.064 258.814 155.476C258.174 156.187 257.641 156.636 257.544 156.664C257.408 156.703 257.831 156.143 258.447 155.402C259.444 154.205 260.53 153.114 261.039 152.316C261.508 151.581 261.882 150.825 262.403 150.096C262.95 149.332 264.162 148.486 265.346 147.728C265.785 147.447 265.93 147.434 266.055 147.393C266.18 147.352 266.289 147.297 264.872 148.551C263.456 149.805 260.51 152.369 258.801 153.799C256.198 155.978 255.409 156.057 255.408 156.031C255.402 155.916 255.734 155.731 256.46 155.223C257.187 154.716 258.387 153.925 260.178 152.521C261.969 151.118 264.315 149.127 265.837 147.883C267.359 146.639 267.987 146.203 268.433 145.855C269.508 145.017 269.87 144.434 270.449 143.923C270.971 143.463 271.305 143.274 271.511 143.123C271.607 143.052 271.69 142.999 271.5 143.285C270.879 144.22 270.123 145.089 269.492 145.57C268.149 146.595 267.342 146.304 266.761 146.304C266.552 146.305 266.375 146.112 266.196 145.988C265.886 145.774 265.988 145.204 266.153 144.42C266.216 144.116 266.428 143.936 266.648 143.839C267.182 143.604 268.377 144.867 269.511 145.229C269.775 145.313 270.114 145.257 270.228 145.257C270.582 145.257 268.341 145.284 266.846 145.285C266.693 145.285 266.839 145.122 267.032 145.025C267.456 144.812 268.024 144.707 269.024 144.61C270.808 144.439 272.103 144.486 272.665 144.445C274.414 144.316 274.857 144.348 275.862 144.211C276.668 144.101 277.778 144.431 278.192 144.362C278.329 144.348 278.52 144.348 278.619 144.307C278.717 144.266 278.717 144.184 278.717 144.1" stroke="black" stroke-width="2" stroke-linecap="round"/>
<line x1="187" y1="256.5" x2="168" y2="256.5" stroke="black"/>
<path d="M242 158.136L265.077 158.136" stroke="black" stroke-width="2" stroke-linecap="round"/>
</svg>
