<svg width="427" height="442" viewBox="0 0 427 442" fill="none" xmlns="http://www.w3.org/2000/svg">
<path d="M323.026 144.168H112.107C97.173 144.168 85.0664 158.159 85.0664 175.418V237.918C85.0664 255.177 97.173 269.168 112.107 269.168H323.026C337.96 269.168 350.066 255.177 350.066 237.918V175.418C350.066 158.159 337.96 144.168 323.026 144.168Z" stroke="black" stroke-width="10" stroke-linecap="round" stroke-linejoin="round"/>
<rect x="100" y="157" width="211.5" height="100" rx="20" fill="#00C317"/>
<path d="M351 177V177C358.732 177 365 183.268 365 191V225C365 232.732 358.732 239 351 239V239V177Z" fill="black"/>
<path d="M233.954 189.49L231.498 192.034L235.034 192.031L289.127 191.995L132.9 290.363L209.422 214.958L212.031 212.387L208.368 212.389L154.049 212.43L296.653 124.523L233.954 189.49Z" fill="white" stroke="black" stroke-width="3"/>
<path d="M167.946 258.151H182.317" stroke="black" stroke-width="2" stroke-linecap="round"/>
<path d="M165.91 259.678H180.281" stroke="black" stroke-width="2" stroke-linecap="round"/>
<path d="M164.952 260.636H179.323" stroke="black" stroke-width="2" stroke-linecap="round"/>
<path d="M161.12 262.552H175.491" stroke="black" stroke-width="2" stroke-linecap="round"/>
<path d="M165.317 261.192C164.812 261.405 164.15 262.041 163.979 262.219C163.826 262.378 163.744 262.524 163.648 262.676C163.538 262.852 163.338 263.006 163.135 263.082C162.73 263.235 162.4 263.159 162.07 263.247C161.855 263.305 161.739 263.463 161.701 263.52C161.593 263.68 162.067 263.73 162.622 263.78C163.074 263.822 163.879 263.831 164.319 263.85C164.961 263.878 165.315 263.92 165.784 263.964C166.492 264.032 166.826 263.908 167.313 263.832C167.622 263.783 167.93 263.781 168.429 263.749C169.35 263.691 169.704 263.704 170.143 263.673C170.479 263.649 170.733 263.73 170.943 263.78C171.027 263.801 171.102 263.831 171.178 263.857C171.216 263.869 171.254 263.882 171.236 263.945C171.098 264.421 170.672 264.655 170.419 264.947C170.188 265.213 170.012 265.29 169.942 265.366C169.909 265.403 170.514 264.876 171.294 264.191C171.882 263.675 172.206 263.578 172.402 263.489C172.456 263.465 172.522 263.476 172.555 263.501C172.62 263.551 172.06 264.068 171.172 264.784C170.367 265.434 169.785 265.556 169.549 265.671C169.227 265.828 169.086 265.924 168.858 265.944C168.625 265.964 168.351 265.849 168.015 265.786C167.388 265.668 166.831 265.609 166.441 265.563C166.283 265.545 166.054 265.532 165.826 265.525C165.697 265.522 165.182 265.494 164.421 265.5C164.062 265.503 163.884 265.544 163.506 265.563C162.776 265.6 162.146 265.545 161.861 265.494C161.475 265.425 161.181 265.278 160.921 265.158C160.82 265.111 160.737 265.025 160.642 264.967C160.389 264.815 160.103 265.606 159.868 265.873C159.52 266.268 159.278 266.431 159.088 266.653C159.024 266.728 159.073 266.762 159.118 266.781C159.335 266.875 159.656 266.738 160.307 266.617C161.082 266.473 161.674 266.61 161.833 266.629C161.903 266.637 161.953 266.636 162.419 266.692C162.884 266.749 163.764 266.862 164.279 266.939C165.118 267.064 165.492 267.143 165.874 267.175C166.389 267.218 167.067 267.485 167.226 267.524C167.699 267.639 167.955 266.497 168.152 266.23C168.309 266.017 168.387 265.799 168.438 265.646C168.463 265.57 168.489 265.494 168.495 265.418C168.498 265.379 168.464 265.342 168.42 265.323C168.32 265.279 167.682 265.454 166.801 265.689C166.33 265.814 166.142 265.962 165.708 266.535C165.347 267.01 164.758 267.899 164.416 268.377C164.074 268.855 164.011 268.906 163.96 268.938C163.876 268.991 163.33 269.021 162.487 269.046C161.736 269.069 161.36 268.769 161.067 268.521C160.825 268.316 160.269 268.121 159.9 268.044C159.671 267.997 159.091 267.867 158.707 267.778C158.534 267.737 158.239 267.663 158.009 267.644C157.97 267.641 157.933 267.675 157.907 267.707C157.881 267.739 157.869 267.777 157.906 267.809C157.944 267.841 158.032 267.866 158.693 267.916C159.353 267.967 160.584 268.042 161.388 268.113C162.534 268.213 162.981 268.361 163.234 268.468C163.865 268.737 164.174 268.678 164.345 268.704C164.403 268.712 164.478 268.654 164.498 268.615C164.518 268.577 164.48 268.54 164.404 268.514C164.221 268.452 163.935 268.475 163.405 268.614C163.03 268.712 162.473 268.978 162.019 269.22C161.564 269.463 161.238 269.701 160.912 269.981C160.587 270.261 160.273 270.575 159.992 270.888C159.454 271.486 159.138 271.888 158.974 272.021C158.735 272.214 158.529 272.307 157.762 272.766C157.075 273.176 155.813 273.991 155.135 274.418C154.277 274.957 153.95 275.187 153.67 275.377C153.608 275.419 153.543 275.441 153.492 275.466C153.441 275.492 153.403 275.517 153.44 275.461C153.477 275.405 153.59 275.266 154.126 274.85C154.661 274.433 155.616 273.742 156.51 272.972C157.404 272.201 158.208 271.372 158.647 270.908C159.296 270.22 159.505 269.935 159.562 269.796C159.582 269.748 159.531 269.732 159.443 269.757C159.209 269.823 158.798 270.098 158.31 270.446C158.094 270.6 157.96 270.731 157.738 270.953C157.516 271.175 157.215 271.489 156.821 271.858C156.427 272.227 155.95 272.641 155.383 273.188C154.817 273.734 154.176 274.4 153.821 274.781C153.405 275.227 153.301 275.44 153.212 275.612C153.205 275.626 153.375 275.267 153.811 274.54C154.065 274.115 154.46 273.624 155.013 272.976C155.565 272.328 156.281 271.549 156.737 271.016C157.4 270.243 157.589 269.91 157.665 269.808C157.856 269.554 157.868 269.289 157.888 269.154C157.892 269.123 157.781 269.21 157.422 269.55C157.063 269.89 156.422 270.518 156.048 270.898C155.574 271.38 155.307 271.696 154.934 272.095C154.547 272.508 154.153 273.003 153.779 273.383C153.522 273.644 153.076 274.08 152.579 274.514C152.152 274.886 151.793 275.64 151.645 276.081C151.575 276.43 151.55 276.734 151.531 277.026C151.524 277.103 151.512 277.178 151.499 277.256" stroke="black" stroke-width="2" stroke-linecap="round"/>
<path d="M153.516 272.992C153.907 272.489 154.582 271.648 154.595 271.635C154.734 271.494 154.342 271.964 153.813 272.486C153.329 272.964 152.431 273.9 151.77 274.63C151.11 275.36 150.72 275.863 150.45 276.191C149.901 276.859 149.761 276.989 149.358 277.341C149.028 277.631 148.403 278.096 148.035 278.367C147.579 278.704 147.326 278.841 147.028 279.043C146.467 279.426 146.121 279.703 145.847 280.008C145.538 280.353 145.308 280.605 144.89 280.991C144.626 281.235 144.496 281.48 144.387 281.633C144.305 281.773 144.191 281.836 144.115 281.868C144.077 281.887 144.039 281.912 144 281.938" stroke="black" stroke-width="2" stroke-linecap="round"/>
<path d="M245.721 158.242C245.885 158.024 246.133 157.83 246.844 157.556C248.296 156.997 249.712 156.645 250.428 156.453C251.03 156.291 252.213 155.903 253.556 155.296C254.119 155.042 254.314 154.361 254.948 153.836C255.131 153.685 255.387 153.534 255.554 153.423C256.159 153.019 252.666 154.743 251.964 155.168C251.394 155.515 251.123 155.981 250.394 156.464C249.891 156.797 249.279 156.781 248.726 156.919C248.615 156.947 248.533 156.974 248.532 157.002C248.531 157.03 248.612 157.057 248.75 157.044C249.844 156.939 250.844 155.682 251.367 154.98C251.581 154.693 251.644 154.441 251.7 154.262C251.728 154.17 251.646 154.057 251.563 153.973C251.397 153.805 251.177 153.752 250.971 153.751C250.33 153.75 250.075 154.438 249.429 155.14C249.162 155.43 248.946 155.761 248.835 155.968C248.498 156.593 250.125 155.462 251.556 154.554C252.853 153.732 253.489 153.532 253.778 153.408C253.899 153.356 253.985 153.366 253.891 153.475C253.569 153.847 252.806 154.3 251.913 154.877C250.364 155.877 249.665 156.256 249.141 156.505C249.061 156.543 249.325 156.264 250.556 155.496C251.788 154.729 253.97 153.447 255.285 152.65C257.001 151.61 257.485 151.19 257.773 150.957C258.566 150.313 259.192 149.978 260.456 149.098C261.128 148.631 261.616 148.491 263.251 147.776C263.93 147.479 264.562 147.058 265.442 146.619C266.452 146.114 267.073 145.761 268.097 145.12C269.045 144.528 270.731 143.197 271.671 142.482C272.936 141.52 273.353 141.108 274.563 140.186C275.494 139.476 276.081 139.122 276.742 138.573C277.495 137.947 278.309 137.225 279.002 136.753C279.504 136.412 280.131 135.927 280.518 135.609C280.937 135.266 281.509 134.852 282.252 134.411C282.772 134.102 283.411 133.832 283.879 133.612C284.26 133.432 284.568 133.226 284.899 132.978C285.313 132.669 285.973 132.482 286.318 132.385C286.705 132.276 287.102 132.179 287.626 132.041C287.762 132.005 287.9 131.986 287.971 132.013C288.041 132.04 288.041 132.121 288 132.232C287.758 132.884 286.641 133.606 286.045 134.133C285.498 134.617 285.095 135.097 284.558 135.497C283.717 136.122 282.48 137.025 281.857 137.508C281.272 137.962 280.251 139.086 279.516 139.753C279.05 140.175 278.565 140.799 278.085 141.54C277.068 143.109 276.636 143.774 276.223 144.422C275.801 145.084 275.533 145.595 275.464 145.76C275.428 145.846 275.368 145.925 276.145 144.821C276.921 143.718 278.531 141.427 279.4 140.206C280.337 138.891 280.682 138.464 281.095 137.885C281.324 137.565 281.538 137.332 282.071 136.757C283.952 134.729 284.622 134.467 284.939 134.177C285.029 134.095 285.011 134.188 284.901 134.353C284.792 134.518 284.601 134.763 283.057 136.172C281.513 137.58 278.621 140.144 277.05 141.519C275.332 143.023 274.901 143.334 274.038 144.197C273.407 144.828 272.439 145.905 271.633 146.685C270.284 147.99 269.281 148.788 268.744 149.435C267.916 150.433 267.074 151.628 267.005 151.836C266.98 151.911 267.263 151.633 268.343 150.321C269.423 149.01 271.387 146.555 272.863 144.826C274.338 143.098 275.266 142.171 275.839 141.57C276.412 140.97 276.603 140.724 277.411 139.834C278.218 138.944 279.636 137.416 280.408 136.589C281.18 135.761 281.261 135.679 281.222 135.759C281.182 135.84 281.018 136.086 280.375 136.73C279.732 137.375 278.613 138.411 276.987 139.764C275.361 141.116 273.26 142.753 271.442 144.4C269.624 146.048 268.151 147.657 267.337 148.568C266.132 149.918 265.78 150.388 264.615 151.459C263.325 152.644 262.171 153.199 261.882 153.337C261.759 153.396 261.675 153.42 261.66 153.339C261.646 153.257 261.7 153.066 262.956 151.331C264.211 149.596 266.666 146.323 268.013 144.555C269.359 142.787 269.523 142.624 269.866 142.348C270.712 141.671 271.344 141.216 271.331 141.256C271.285 141.402 270.964 141.705 270.046 142.623C269.128 143.542 267.574 145.042 266.691 145.87C265.666 146.83 265.394 147 265.175 147.165C264.881 147.386 263.613 148.151 261.879 149.403C260.83 150.16 260.435 150.527 260.079 150.733C258.589 151.592 257.627 152.096 257.143 152.51C256.791 152.811 256.276 153.225 255.807 153.461C255.328 153.703 254.788 154.108 254.47 154.453C254.097 154.855 253.686 155.21 253.299 155.294C252.813 155.399 252.582 155.542 252.417 155.611C252.332 155.646 252.253 155.706 252.306 155.762C252.359 155.817 252.55 155.872 254.844 155.054C257.138 154.237 261.53 152.546 263.997 151.552C266.464 150.558 266.873 150.312 267.165 150.118C268.427 149.278 269.964 148.271 270.598 147.898C271.18 147.556 271.726 147.279 272.471 146.988C273.065 146.757 273.464 146.342 273.658 146.01C273.703 145.935 273.713 145.846 273.686 145.913C273.573 146.196 273.384 146.613 273.028 147.176C272.433 148.114 271.678 149.063 271.155 149.738C270.686 150.342 270.217 150.911 269.09 152.08C268.48 152.758 267.549 153.853 266.951 154.48C266.855 154.577 266.745 154.713 266.633 154.853" stroke="black" stroke-width="2" stroke-linecap="round"/>
<path d="M264.567 157.416L264.153 157.912" stroke="black" stroke-width="2" stroke-linecap="round"/>
<path d="M260.103 158.408C259.639 158.462 258.591 158.573 257.876 158.642C255.843 158.837 255.23 158.793 254.252 158.807C252.947 158.827 250.849 158.684 250.379 158.628C249.609 158.538 248.974 158.133 248.438 158.008C247.563 157.805 246.829 157.53 246.383 157.278C246.309 157.236 247.202 157.415 248.658 157.553C250.381 157.715 251.505 157.691 251.931 157.732C252.544 157.792 253.621 157.528 254.86 157.157C256.208 156.752 257.04 156.672 257.677 156.74C258.391 156.817 258.779 156.892 259.179 157.002C259.521 157.097 259.854 157.14 260.253 157.181C261.169 157.277 262.664 157.305 263.077 157.402C263.482 157.497 263.821 157.032 264.179 156.632C264.633 156.126 265.195 155.219 265.9 154.32C266.665 153.346 267.483 152.049 268.308 151.017C268.972 150.187 269.579 149.73 269.814 149.578C269.831 149.567 269.64 149.78 268.955 150.342C268.271 150.904 267.098 151.832 266.152 152.678C264.461 154.191 263.741 155.128 263.522 155.361C262.908 156.014 262.036 156.449 261.387 156.891C260.971 157.174 260.71 157.579 260.586 157.979C260.555 158.08 260.49 158.158 260.53 158.091C260.702 157.803 260.956 157.445 261.626 156.461C262.198 155.621 263.196 154.058 263.757 153.216C264.381 152.28 264.839 151.717 265.43 150.905C265.666 150.583 265.777 150.448 265.042 151.182C264.307 151.917 262.725 153.526 261.856 154.396C260.519 155.733 259.802 156.34 259.554 156.492C259.442 156.56 259.361 156.616 259.551 156.344C259.74 156.072 260.204 155.472 260.975 154.603C261.746 153.735 262.809 152.617 263.221 152.109C263.633 151.601 263.36 151.737 262.865 152.149C261.614 153.188 260.848 154.053 260.615 154.328C260.27 154.734 259.939 154.991 259.815 154.978C258.916 154.885 260.624 152.764 260.86 152.292C260.946 152.122 260.14 152.943 258.708 154.389C257.968 155.136 257.652 155.349 257.501 155.541C257.291 155.807 258.082 155.028 259.079 154.114C259.988 153.28 257.184 156.064 256.814 156.476C256.174 157.187 255.641 157.636 255.544 157.664C255.408 157.703 255.831 157.143 256.447 156.402C257.444 155.205 258.53 154.114 259.039 153.316C259.508 152.581 259.882 151.825 260.403 151.096C260.95 150.332 262.162 149.486 263.346 148.728C263.785 148.447 263.93 148.434 264.055 148.393C264.18 148.352 264.289 148.297 262.872 149.551C261.456 150.805 258.51 153.369 256.801 154.799C254.198 156.978 253.409 157.057 253.408 157.031C253.402 156.916 253.734 156.731 254.46 156.223C255.187 155.716 256.387 154.925 258.178 153.521C259.969 152.118 262.315 150.127 263.837 148.883C265.359 147.639 265.987 147.203 266.433 146.855C267.508 146.017 267.87 145.434 268.449 144.923C268.971 144.463 269.305 144.274 269.511 144.123C269.607 144.052 269.69 143.999 269.5 144.285C268.879 145.22 268.123 146.089 267.492 146.57C266.149 147.595 265.342 147.304 264.761 147.304C264.552 147.305 264.375 147.112 264.196 146.988C263.886 146.774 263.988 146.204 264.153 145.42C264.216 145.116 264.428 144.936 264.648 144.839C265.182 144.604 266.377 145.867 267.511 146.229C267.775 146.313 268.114 146.257 268.228 146.257C268.582 146.257 266.341 146.284 264.846 146.285C264.693 146.285 264.839 146.122 265.032 146.025C265.456 145.812 266.024 145.707 267.024 145.61C268.808 145.439 270.103 145.486 270.665 145.445C272.414 145.316 272.857 145.348 273.862 145.211C274.668 145.101 275.778 145.431 276.192 145.362C276.329 145.348 276.52 145.348 276.619 145.307C276.717 145.266 276.717 145.184 276.717 145.1" stroke="black" stroke-width="2" stroke-linecap="round"/>
<path d="M187 257.5L166 257.5" stroke="black"/>
<path d="M241 159L263 159" stroke="black" stroke-width="2" stroke-linecap="round"/>
</svg>
