<svg width="427" height="442" viewBox="0 0 427 442" fill="none" xmlns="http://www.w3.org/2000/svg">
<path d="M323.026 144.168H112.107C97.173 144.168 85.0664 158.159 85.0664 175.418V237.918C85.0664 255.177 97.173 269.168 112.107 269.168H323.026C337.96 269.168 350.066 255.177 350.066 237.918V175.418C350.066 158.159 337.96 144.168 323.026 144.168Z" stroke="black" stroke-width="10" stroke-linecap="round" stroke-linejoin="round"/>
<rect x="100" y="157" width="223.25" height="100" rx="20" fill="black"/>
<path d="M351 177V177C358.732 177 365 183.268 365 191V225C365 232.732 358.732 239 351 239V239V177Z" fill="black"/>
<path d="M231.954 189.49L229.498 192.034L233.034 192.031L287.127 191.995L130.9 290.363L207.422 214.958L210.031 212.387L206.368 212.389L152.049 212.43L294.653 124.523L231.954 189.49Z" fill="white" stroke="black" stroke-width="3"/>
<path d="M165.946 258.151H180.317" stroke="black" stroke-width="2" stroke-linecap="round"/>
<path d="M163.91 259.678H178.281" stroke="black" stroke-width="2" stroke-linecap="round"/>
<path d="M162.952 260.636H177.323" stroke="black" stroke-width="2" stroke-linecap="round"/>
<path d="M159.12 262.552H173.491" stroke="black" stroke-width="2" stroke-linecap="round"/>
<path d="M163.317 261.192C162.812 261.405 162.15 262.041 161.979 262.219C161.826 262.378 161.744 262.524 161.648 262.676C161.538 262.852 161.338 263.006 161.135 263.082C160.73 263.235 160.4 263.159 160.07 263.247C159.855 263.305 159.739 263.463 159.701 263.52C159.593 263.68 160.067 263.73 160.622 263.78C161.074 263.822 161.879 263.831 162.319 263.85C162.961 263.878 163.315 263.92 163.784 263.964C164.492 264.032 164.826 263.908 165.313 263.832C165.622 263.783 165.93 263.781 166.429 263.749C167.35 263.691 167.704 263.704 168.143 263.673C168.479 263.649 168.733 263.73 168.943 263.78C169.027 263.801 169.102 263.831 169.178 263.857C169.216 263.869 169.254 263.882 169.236 263.945C169.098 264.421 168.672 264.655 168.419 264.947C168.188 265.213 168.012 265.29 167.942 265.366C167.909 265.403 168.514 264.876 169.294 264.191C169.882 263.675 170.206 263.578 170.402 263.489C170.456 263.465 170.522 263.476 170.555 263.501C170.62 263.551 170.06 264.068 169.172 264.784C168.367 265.434 167.785 265.556 167.549 265.671C167.227 265.828 167.086 265.924 166.858 265.944C166.625 265.964 166.351 265.849 166.015 265.786C165.388 265.668 164.831 265.609 164.441 265.563C164.283 265.545 164.054 265.532 163.826 265.525C163.697 265.522 163.182 265.494 162.421 265.5C162.062 265.503 161.884 265.544 161.506 265.563C160.776 265.6 160.146 265.545 159.861 265.494C159.475 265.425 159.181 265.278 158.921 265.158C158.82 265.111 158.737 265.025 158.642 264.967C158.389 264.815 158.103 265.606 157.868 265.873C157.52 266.268 157.278 266.431 157.088 266.653C157.024 266.728 157.073 266.762 157.118 266.781C157.335 266.875 157.656 266.738 158.307 266.617C159.082 266.473 159.674 266.61 159.833 266.629C159.903 266.637 159.953 266.636 160.419 266.692C160.884 266.749 161.764 266.862 162.279 266.939C163.118 267.064 163.492 267.143 163.874 267.175C164.389 267.218 165.067 267.485 165.226 267.524C165.699 267.639 165.955 266.497 166.152 266.23C166.309 266.017 166.387 265.799 166.438 265.646C166.463 265.57 166.489 265.494 166.495 265.418C166.498 265.379 166.464 265.342 166.42 265.323C166.32 265.279 165.682 265.454 164.801 265.689C164.33 265.814 164.142 265.962 163.708 266.535C163.347 267.01 162.758 267.899 162.416 268.377C162.074 268.855 162.011 268.906 161.96 268.938C161.876 268.991 161.33 269.021 160.487 269.046C159.736 269.069 159.36 268.769 159.067 268.521C158.825 268.316 158.269 268.121 157.9 268.044C157.671 267.997 157.091 267.867 156.707 267.778C156.534 267.737 156.239 267.663 156.009 267.644C155.97 267.641 155.933 267.675 155.907 267.707C155.881 267.739 155.869 267.777 155.906 267.809C155.944 267.841 156.032 267.866 156.693 267.916C157.353 267.967 158.584 268.042 159.388 268.113C160.534 268.213 160.981 268.361 161.234 268.468C161.865 268.737 162.174 268.678 162.345 268.704C162.403 268.712 162.478 268.654 162.498 268.615C162.518 268.577 162.48 268.54 162.404 268.514C162.221 268.452 161.935 268.475 161.405 268.614C161.03 268.712 160.473 268.978 160.019 269.22C159.564 269.463 159.238 269.701 158.912 269.981C158.587 270.261 158.273 270.575 157.992 270.888C157.454 271.486 157.138 271.888 156.974 272.021C156.735 272.214 156.529 272.307 155.762 272.766C155.075 273.176 153.813 273.991 153.135 274.418C152.277 274.957 151.95 275.187 151.67 275.377C151.608 275.419 151.543 275.441 151.492 275.466C151.441 275.492 151.403 275.517 151.44 275.461C151.477 275.405 151.59 275.266 152.126 274.85C152.661 274.433 153.616 273.742 154.51 272.972C155.404 272.201 156.208 271.372 156.647 270.908C157.296 270.22 157.505 269.935 157.562 269.796C157.582 269.748 157.531 269.732 157.443 269.757C157.209 269.823 156.798 270.098 156.31 270.446C156.094 270.6 155.96 270.731 155.738 270.953C155.516 271.175 155.215 271.489 154.821 271.858C154.427 272.227 153.95 272.641 153.383 273.188C152.817 273.734 152.176 274.4 151.821 274.781C151.405 275.227 151.301 275.44 151.212 275.612C151.205 275.626 151.375 275.267 151.811 274.54C152.065 274.115 152.46 273.624 153.013 272.976C153.565 272.328 154.281 271.549 154.737 271.016C155.4 270.243 155.589 269.91 155.665 269.808C155.856 269.554 155.868 269.289 155.888 269.154C155.892 269.123 155.781 269.21 155.422 269.55C155.063 269.89 154.422 270.518 154.048 270.898C153.574 271.38 153.307 271.696 152.934 272.095C152.547 272.508 152.153 273.003 151.779 273.383C151.522 273.644 151.076 274.08 150.579 274.514C150.152 274.886 149.793 275.64 149.645 276.081C149.575 276.43 149.55 276.734 149.531 277.026C149.524 277.103 149.512 277.178 149.499 277.256" stroke="black" stroke-width="2" stroke-linecap="round"/>
<path d="M151.516 272.992C151.907 272.489 152.582 271.648 152.595 271.635C152.734 271.494 152.342 271.964 151.813 272.486C151.329 272.964 150.431 273.9 149.77 274.63C149.11 275.36 148.72 275.863 148.45 276.191C147.901 276.859 147.761 276.989 147.358 277.341C147.028 277.631 146.403 278.096 146.035 278.367C145.579 278.704 145.326 278.841 145.028 279.043C144.467 279.426 144.121 279.703 143.847 280.008C143.538 280.353 143.308 280.605 142.89 280.991C142.626 281.235 142.496 281.48 142.387 281.633C142.305 281.773 142.191 281.836 142.115 281.868C142.077 281.887 142.039 281.912 142 281.938" stroke="black" stroke-width="2" stroke-linecap="round"/>
<path d="M243.721 158.242C243.885 158.024 244.133 157.83 244.844 157.556C246.296 156.997 247.712 156.645 248.428 156.453C249.03 156.291 250.213 155.903 251.556 155.296C252.119 155.042 252.314 154.361 252.948 153.836C253.131 153.685 253.387 153.534 253.554 153.423C254.159 153.019 250.666 154.743 249.964 155.168C249.394 155.515 249.123 155.981 248.394 156.464C247.891 156.797 247.279 156.781 246.726 156.919C246.615 156.947 246.533 156.974 246.532 157.002C246.531 157.03 246.612 157.057 246.75 157.044C247.844 156.939 248.844 155.682 249.367 154.98C249.581 154.693 249.644 154.441 249.7 154.262C249.728 154.17 249.646 154.057 249.563 153.973C249.397 153.805 249.177 153.752 248.971 153.751C248.33 153.75 248.075 154.438 247.429 155.14C247.162 155.43 246.946 155.761 246.835 155.968C246.498 156.593 248.125 155.462 249.556 154.554C250.853 153.732 251.489 153.532 251.778 153.408C251.899 153.356 251.985 153.366 251.891 153.475C251.569 153.847 250.806 154.3 249.913 154.877C248.364 155.877 247.665 156.256 247.141 156.505C247.061 156.543 247.325 156.264 248.556 155.496C249.788 154.729 251.97 153.447 253.285 152.65C255.001 151.61 255.485 151.19 255.773 150.957C256.566 150.313 257.192 149.978 258.456 149.098C259.128 148.631 259.616 148.491 261.251 147.776C261.93 147.479 262.562 147.058 263.442 146.619C264.452 146.114 265.073 145.761 266.097 145.12C267.045 144.528 268.731 143.197 269.671 142.482C270.936 141.52 271.353 141.108 272.563 140.186C273.494 139.476 274.081 139.122 274.742 138.573C275.495 137.947 276.309 137.225 277.002 136.753C277.504 136.412 278.131 135.927 278.518 135.609C278.937 135.266 279.509 134.852 280.252 134.411C280.772 134.102 281.411 133.832 281.879 133.612C282.26 133.432 282.568 133.226 282.899 132.978C283.313 132.669 283.973 132.482 284.318 132.385C284.705 132.276 285.102 132.179 285.626 132.041C285.762 132.005 285.9 131.986 285.971 132.013C286.041 132.04 286.041 132.121 286 132.232C285.758 132.884 284.641 133.606 284.045 134.133C283.498 134.617 283.095 135.097 282.558 135.497C281.717 136.122 280.48 137.025 279.857 137.508C279.272 137.962 278.251 139.086 277.516 139.753C277.05 140.175 276.565 140.799 276.085 141.54C275.068 143.109 274.636 143.774 274.223 144.422C273.801 145.084 273.533 145.595 273.464 145.76C273.428 145.846 273.368 145.925 274.145 144.821C274.921 143.718 276.531 141.427 277.4 140.206C278.337 138.891 278.682 138.464 279.095 137.885C279.324 137.565 279.538 137.332 280.071 136.757C281.952 134.729 282.622 134.467 282.939 134.177C283.029 134.095 283.011 134.188 282.901 134.353C282.792 134.518 282.601 134.763 281.057 136.172C279.513 137.58 276.621 140.144 275.05 141.519C273.332 143.023 272.901 143.334 272.038 144.197C271.407 144.828 270.439 145.905 269.633 146.685C268.284 147.99 267.281 148.788 266.744 149.435C265.916 150.433 265.074 151.628 265.005 151.836C264.98 151.911 265.263 151.633 266.343 150.321C267.423 149.01 269.387 146.555 270.863 144.826C272.338 143.098 273.266 142.171 273.839 141.57C274.412 140.97 274.603 140.724 275.411 139.834C276.218 138.944 277.636 137.416 278.408 136.589C279.18 135.761 279.261 135.679 279.222 135.759C279.182 135.84 279.018 136.086 278.375 136.73C277.732 137.375 276.613 138.411 274.987 139.764C273.361 141.116 271.26 142.753 269.442 144.4C267.624 146.048 266.151 147.657 265.337 148.568C264.132 149.918 263.78 150.388 262.615 151.459C261.325 152.644 260.171 153.199 259.882 153.337C259.759 153.396 259.675 153.42 259.66 153.339C259.646 153.257 259.7 153.066 260.956 151.331C262.211 149.596 264.666 146.323 266.013 144.555C267.359 142.787 267.523 142.624 267.866 142.348C268.712 141.671 269.344 141.216 269.331 141.256C269.285 141.402 268.964 141.705 268.046 142.623C267.128 143.542 265.574 145.042 264.691 145.87C263.666 146.83 263.394 147 263.175 147.165C262.881 147.386 261.613 148.151 259.879 149.403C258.83 150.16 258.435 150.527 258.079 150.733C256.589 151.592 255.627 152.096 255.143 152.51C254.791 152.811 254.276 153.225 253.807 153.461C253.328 153.703 252.788 154.108 252.47 154.453C252.097 154.855 251.686 155.21 251.299 155.294C250.813 155.399 250.582 155.542 250.417 155.611C250.332 155.646 250.253 155.706 250.306 155.762C250.359 155.817 250.55 155.872 252.844 155.054C255.138 154.237 259.53 152.546 261.997 151.552C264.464 150.558 264.873 150.312 265.165 150.118C266.427 149.278 267.964 148.271 268.598 147.898C269.18 147.556 269.726 147.279 270.471 146.988C271.065 146.757 271.464 146.342 271.658 146.01C271.703 145.935 271.713 145.846 271.686 145.913C271.573 146.196 271.384 146.613 271.028 147.176C270.433 148.114 269.678 149.063 269.155 149.738C268.686 150.342 268.217 150.911 267.09 152.08C266.48 152.758 265.549 153.853 264.951 154.48C264.855 154.577 264.745 154.713 264.633 154.853" stroke="black" stroke-width="2" stroke-linecap="round"/>
<path d="M262.567 157.416L262.153 157.912" stroke="black" stroke-width="2" stroke-linecap="round"/>
<path d="M258.103 158.408C257.639 158.462 256.591 158.573 255.876 158.642C253.843 158.837 253.23 158.793 252.252 158.807C250.947 158.827 248.849 158.684 248.379 158.628C247.609 158.538 246.974 158.133 246.438 158.008C245.563 157.805 244.829 157.53 244.383 157.278C244.309 157.236 245.202 157.415 246.658 157.553C248.381 157.715 249.505 157.691 249.931 157.732C250.544 157.792 251.621 157.528 252.86 157.157C254.208 156.752 255.04 156.672 255.677 156.74C256.391 156.817 256.779 156.892 257.179 157.002C257.521 157.097 257.854 157.14 258.253 157.181C259.169 157.277 260.664 157.305 261.077 157.402C261.482 157.497 261.821 157.032 262.179 156.632C262.633 156.126 263.195 155.219 263.9 154.32C264.665 153.346 265.483 152.049 266.308 151.017C266.972 150.187 267.579 149.73 267.814 149.578C267.831 149.567 267.64 149.78 266.955 150.342C266.271 150.904 265.098 151.832 264.152 152.678C262.461 154.191 261.741 155.128 261.522 155.361C260.908 156.014 260.036 156.449 259.387 156.891C258.971 157.174 258.71 157.579 258.586 157.979C258.555 158.08 258.49 158.158 258.53 158.091C258.702 157.803 258.956 157.445 259.626 156.461C260.198 155.621 261.196 154.058 261.757 153.216C262.381 152.28 262.839 151.717 263.43 150.905C263.666 150.583 263.777 150.448 263.042 151.182C262.307 151.917 260.725 153.526 259.856 154.396C258.519 155.733 257.802 156.34 257.554 156.492C257.442 156.56 257.361 156.616 257.551 156.344C257.74 156.072 258.204 155.472 258.975 154.603C259.746 153.735 260.809 152.617 261.221 152.109C261.633 151.601 261.36 151.737 260.865 152.149C259.614 153.188 258.848 154.053 258.615 154.328C258.27 154.734 257.939 154.991 257.815 154.978C256.916 154.885 258.624 152.764 258.86 152.292C258.946 152.122 258.14 152.943 256.708 154.389C255.968 155.136 255.652 155.349 255.501 155.541C255.291 155.807 256.082 155.028 257.079 154.114C257.988 153.28 255.184 156.064 254.814 156.476C254.174 157.187 253.641 157.636 253.544 157.664C253.408 157.703 253.831 157.143 254.447 156.402C255.444 155.205 256.53 154.114 257.039 153.316C257.508 152.581 257.882 151.825 258.403 151.096C258.95 150.332 260.162 149.486 261.346 148.728C261.785 148.447 261.93 148.434 262.055 148.393C262.18 148.352 262.289 148.297 260.872 149.551C259.456 150.805 256.51 153.369 254.801 154.799C252.198 156.978 251.409 157.057 251.408 157.031C251.402 156.916 251.734 156.731 252.46 156.223C253.187 155.716 254.387 154.925 256.178 153.521C257.969 152.118 260.315 150.127 261.837 148.883C263.359 147.639 263.987 147.203 264.433 146.855C265.508 146.017 265.87 145.434 266.449 144.923C266.971 144.463 267.305 144.274 267.511 144.123C267.607 144.052 267.69 143.999 267.5 144.285C266.879 145.22 266.123 146.089 265.492 146.57C264.149 147.595 263.342 147.304 262.761 147.304C262.552 147.305 262.375 147.112 262.196 146.988C261.886 146.774 261.988 146.204 262.153 145.42C262.216 145.116 262.428 144.936 262.648 144.839C263.182 144.604 264.377 145.867 265.511 146.229C265.775 146.313 266.114 146.257 266.228 146.257C266.582 146.257 264.341 146.284 262.846 146.285C262.693 146.285 262.839 146.122 263.032 146.025C263.456 145.812 264.024 145.707 265.024 145.61C266.808 145.439 268.103 145.486 268.665 145.445C270.414 145.316 270.857 145.348 271.862 145.211C272.668 145.101 273.778 145.431 274.192 145.362C274.329 145.348 274.52 145.348 274.619 145.307C274.717 145.266 274.717 145.184 274.717 145.1" stroke="black" stroke-width="2" stroke-linecap="round"/>
<line x1="185" y1="257.5" x2="161" y2="257.5" stroke="black"/>
<path d="M211.177 159.136H264.077" stroke="black" stroke-width="2" stroke-linecap="round"/>
</svg>
