<svg fill="none" height="287" viewBox="0 0 367 287" width="367" xmlns="http://www.w3.org/2000/svg">
          <path d="M263.026 66.168H52.1072C37.173 66.168 25.0664 80.1591 25.0664 97.418V159.918C25.0664 177.177 37.173 191.168 52.1072 191.168H263.026C277.96 191.168 290.066 177.177 290.066 159.918V97.418C290.066 80.1591 277.96 66.168 263.026 66.168Z" stroke="#ebdbb2" stroke-linecap="round" stroke-linejoin="round" stroke-width="10"></path>
          <rect fill="#b8bb26" height="100" rx="20" width="206" x="40" y="79"></rect>
          <path d="M291 99C298.732 99 305 105.268 305 113V147C305 154.732 298.732 161 291 161V99Z" fill="#ebdbb2"></path>
          <path d="M212.184 121.25L213.567 119.695C214.288 118.888 213.918 117.563 212.92 117.373L171.054 109.424C169.892 109.203 169.144 107.995 169.386 106.725L181.514 42.8509L181.551 42.6589C181.679 41.9832 180.925 41.5683 180.478 42.0693L103.147 128.887L102.043 130.125C101.469 130.77 101.763 131.827 102.56 131.978L144.394 139.921L144.923 140.022C146.071 140.24 146.808 141.432 146.57 142.686L134.775 204.8C134.535 206.064 135.958 206.825 136.792 205.889L212.184 121.25Z" fill="#ebdbb2" stroke="#282828" stroke-linejoin="round" stroke-width="13"></path>
        </svg>